<svg width="360" height="347" viewBox="0 0 360 347" fill="none" xmlns="http://www.w3.org/2000/svg">
<path d="M358.022 244.69L185.524 344.478L185.479 344.432V207.72L358.022 107.932V244.69Z" fill="#1C1C1C"/>
<path d="M185.57 346.073L184.112 345.298V207.035L184.704 206.579L358.022 106.29L359.48 107.065V245.328L358.797 245.875L185.57 346.073ZM186.891 208.54V342.061L356.656 243.869V110.347L186.891 208.54Z" fill="#1C1C1C"/>
<path d="M195.363 329.662V263.881H197.504V325.924L346.498 240.769V128.536H348.639V242.046L195.363 329.662Z" fill="#B8C3CC"/>
<path d="M334.405 135.059L252.914 181.893L253.98 183.751L335.471 136.917L334.405 135.059Z" fill="#B8C3CC"/>
<path d="M244.201 187.022L217.894 202.142L218.96 204L245.267 188.88L244.201 187.022Z" fill="#B8C3CC"/>
<path d="M185.433 344.477L2.23047 238.581V101.868L185.478 207.719V344.432L185.433 344.477Z" fill="#B8C3CC"/>
<path d="M185.387 346.119L0.818359 239.402V101.048L2.18486 100.228L186.89 206.899V345.298L185.387 346.119ZM3.64247 237.806L184.112 342.062V208.54L3.64247 104.239V237.806Z" fill="#1C1C1C"/>
<path d="M13.9823 120.103H11.1582V206.625H13.9823V120.103Z" fill="#1C1C1C"/>
<path d="M2.27637 101.868L185.479 207.719L358.022 107.931V107.885L174.774 2.08008L2.27637 101.777V101.868Z" fill="white"/>
<path d="M185.433 209.405L184.659 208.858L0.864258 102.688V101.002L174.729 0.484375L359.434 107.065V108.66L185.433 209.405ZM5.0093 101.822L185.479 206.123L355.198 107.931L174.774 3.6754L5.0093 101.822Z" fill="#1C1C1C"/>
<path d="M330.784 109.207L174.775 19.1292L31.8388 101.777L30.4268 99.3607L174.775 15.8926L332.15 106.746L330.784 109.207Z" fill="#1C1C1C"/>
<path d="M317.915 117.405L247.203 157.657L248.599 160.114L319.311 119.861L317.915 117.405Z" fill="#1C1C1C"/>
<path d="M128.996 96.2151L196.41 135.146C205.293 140.297 220.825 139.659 231.074 133.687C241.323 127.761 242.461 118.78 233.579 113.675L166.165 74.6985C157.283 69.5473 141.75 70.1855 131.501 76.1573C121.253 82.0834 120.114 91.0639 128.996 96.2151Z" fill="#B8C3CC"/>
<path d="M211.169 140.024C206.067 139.978 201.375 139.067 197.64 137.334L198.779 134.781C202.195 136.331 206.477 137.152 211.169 137.198V140.024ZM218.001 139.522L217.591 136.742C222.055 136.103 226.246 134.736 229.753 132.821L231.074 135.283C227.293 137.38 222.784 138.839 218.001 139.522ZM191.673 134.052L180.149 127.397L181.561 124.98L193.085 131.636L191.673 134.052ZM236.768 131.226L234.809 129.22C236.995 127.032 238.18 124.661 238.18 122.382C238.18 121.197 237.861 120.012 237.223 118.918L239.637 117.504C240.548 119.054 241.004 120.695 241.004 122.382C241.004 125.436 239.546 128.491 236.768 131.226ZM174.41 124.069L162.886 117.413L164.298 114.997L175.822 121.653L174.41 124.069ZM232.896 114.906L233.579 113.675L232.896 114.906L221.372 108.25L222.784 105.834L234.262 112.49L232.896 114.906ZM157.101 114.085L145.576 107.43L146.989 105.014L158.513 111.669L157.101 114.085ZM215.632 104.923L204.108 98.267L205.52 95.851L217.045 102.507L215.632 104.923ZM139.837 104.056L128.313 97.4009L129.634 94.9392L141.249 101.64L139.837 104.056ZM198.323 94.9392L186.799 88.2837L188.211 85.8676L199.735 92.5232L198.323 94.9392ZM122.938 92.3408C122.073 90.8365 121.617 89.1954 121.617 87.5087C121.617 84.4544 123.075 81.3546 125.853 78.665L127.812 80.6708C125.58 82.8589 124.396 85.2294 124.396 87.5087C124.396 88.6939 124.715 89.8336 125.352 90.9277L122.938 92.3408ZM181.06 84.9559L169.536 78.3003L170.948 75.8843L182.472 82.5398L181.06 84.9559ZM132.868 77.0239L131.547 74.5623C135.328 72.5109 139.837 71.0521 144.62 70.3683L145.03 73.1491C140.566 73.7873 136.375 75.1093 132.868 77.0239ZM163.842 75.1093C160.426 73.5594 156.144 72.6932 151.452 72.6476L151.498 69.8213C156.6 69.8669 161.246 70.7786 165.026 72.5109L163.842 75.1093Z" fill="#1C1C1C"/>
<path d="M140.11 93.9364L200.328 128.719C205.611 131.773 214.858 131.408 221.007 127.852C227.111 124.297 227.794 118.963 222.51 115.909L162.293 81.1267C157.01 78.0724 147.763 78.4371 141.614 81.9928C135.464 85.5486 134.827 90.8821 140.11 93.9364Z" fill="#1C1C1C"/>
<path d="M157.921 83.7246H155.097V96.7167H157.921V83.7246Z" fill="#B8C3CC"/>
<path d="M175.139 91.3838H172.314V99.0422H175.139V91.3838Z" fill="#B8C3CC"/>
<path d="M216.59 115.772H213.766V126.303H216.59V115.772Z" fill="#B8C3CC"/>
</svg>
