<svg width="127" height="162" viewBox="0 0 127 162" fill="none" xmlns="http://www.w3.org/2000/svg">
<path d="M100.846 31.409C100.755 30.3605 100.618 29.3576 100.482 28.4003L110.184 19.1919C110.457 18.9184 110.412 18.4625 110.093 18.2802L85.4502 4.10291C77.8434 0.228088 68.0046 0.364846 57.1181 5.24256C27.2373 18.736 1.95703 60.265 1.95703 93.9987C1.95703 109.544 7.33192 120.53 16.032 125.818C16.032 125.818 37.4405 138.126 41.039 140.223C41.3123 140.405 41.6767 140.269 41.8133 139.95L46.7782 129.601L42.0866 126.957C45.1385 125.863 48.2814 124.45 51.4699 122.581C52.2442 122.125 53.0186 121.669 53.793 121.168C56.2982 126.183 56.3438 134.889 55.5239 143.414C55.3417 145.238 55.9793 146.195 56.9359 146.468L80.1664 159.871C80.4853 160.053 80.8497 159.916 80.9863 159.597L83.4005 153.124L82.3073 125.453H69.7355L92.9204 72.71C98.8875 58.9886 101.939 44.4466 100.846 31.409Z" fill="#E36F59"/>
<path d="M80.5301 161.466C80.1657 161.466 79.8469 161.375 79.528 161.193L56.4342 147.836C55.6143 147.563 53.8834 146.56 54.1567 143.369C55.0221 134.388 54.7033 127.55 53.2001 123.311C52.8813 123.493 52.5624 123.721 52.2436 123.903C50.0116 125.225 47.7341 126.32 45.4566 127.277L48.6907 129.1L43.1335 140.634C42.9058 141.135 42.4503 141.5 41.9493 141.682C41.4482 141.864 40.856 141.773 40.4005 141.5C38.8063 140.588 15.7124 127.322 15.5302 127.186C5.82809 121.305 0.589844 109.589 0.589844 94.0446C0.589844 59.5359 26.7355 17.4599 56.5708 3.96641C67.4117 -0.911299 77.9338 -1.32157 86.0872 2.87235C86.0872 2.87235 87.4082 3.60173 88.0003 3.96641L110.775 17.0496C111.322 17.3687 111.686 17.9158 111.732 18.5084C111.823 19.1466 111.595 19.7392 111.14 20.1951L101.939 28.902C102.03 29.677 102.121 30.4519 102.212 31.2725C103.305 44.0366 100.527 58.5786 94.2407 73.3485L71.9212 124.131H83.6731L84.8574 153.443L82.3521 160.19C82.1244 160.737 81.7144 161.147 81.1678 161.375C80.9401 161.421 80.7579 161.466 80.5301 161.466ZM54.43 119.254L55.1132 120.621C57.3907 125.134 58.0284 132.884 56.9808 143.642C56.9352 144.28 56.9808 145.101 57.3907 145.192L57.7096 145.329L80.0746 158.23L82.0333 152.942L80.9856 126.912H67.6395L91.6899 72.2088C97.7936 57.8948 100.481 43.8087 99.4334 31.5004C99.3423 30.4975 99.2056 29.4946 99.069 28.5373L98.9779 27.808L108.407 18.8731L84.7663 5.28841C77.2961 1.45918 67.9128 1.86945 57.664 6.51924C28.7398 19.648 3.36838 60.4932 3.36838 94.0446C3.36838 108.541 8.15115 119.436 16.7601 124.678C17.2612 124.998 35.8 135.619 40.9472 138.582L44.9556 130.24L38.7152 126.73L41.6304 125.681C44.6823 124.587 47.7341 123.174 50.7859 121.396C51.5603 120.94 52.3346 120.485 53.0634 120.029L54.43 119.254Z" fill="#1C1C1C"/>
<path d="M91.5994 76.1292L93.0114 72.9382C98.9329 59.1256 101.985 44.5836 100.892 31.546C100.8 30.4975 100.664 29.4946 100.527 28.5373L110.229 19.3289C110.503 19.0554 110.457 18.5996 110.138 18.4172L85.4501 4.28552C77.8433 0.410705 68.0045 0.547463 57.118 5.42518C44.1363 11.2602 32.0655 22.4288 22.5 35.9223L91.5994 76.1292Z" fill="white"/>
<path d="M92.237 78.1345L20.4502 36.3776L21.3612 35.1012C31.4733 20.7872 43.954 9.80092 56.5258 4.14825C67.4123 -0.775055 77.9343 -1.18533 86.0878 3.00859C86.0878 3.00859 87.4087 3.73797 88.0009 4.10266L110.776 17.1859C111.323 17.505 111.687 18.052 111.778 18.6902C111.869 19.3284 111.641 19.921 111.186 20.3769L101.985 29.0838C102.076 29.8588 102.167 30.6338 102.258 31.4543C103.306 43.8537 100.755 57.9399 94.7878 72.2995L92.237 78.1345ZM24.5497 35.5115L90.9616 74.1229L91.6905 72.3907C97.7942 58.0766 100.482 43.9905 99.434 31.6823C99.3429 30.6794 99.2062 29.6765 99.0695 28.7192L98.9785 27.9898L108.407 19.0549L84.7668 5.47024C77.2966 1.64101 67.9133 2.05128 57.6646 6.70107C45.9127 12.0346 34.2063 22.2459 24.5497 35.5115Z" fill="#1C1C1C"/>
<path d="M117.062 86.659C122.983 72.8464 126.035 58.3045 124.942 45.2669C122.801 19.7842 104.308 8.7068 81.2138 19.146C51.333 32.6395 26.0527 74.1684 26.0527 107.902C26.0527 139.539 48.2356 152.349 75.6112 136.53C76.3855 136.074 77.1599 135.619 77.9342 135.117C80.4395 140.132 80.485 148.838 79.6651 157.363C79.2096 162.058 84.2657 161.283 86.4521 156.315L117.062 86.659Z" fill="#1C1C1C"/>
<path d="M81.6693 161.922C81.3504 161.922 81.0771 161.876 80.7583 161.785C80.075 161.603 77.9342 160.782 78.253 157.227C79.1185 148.292 78.7996 141.408 77.2964 137.169C76.9776 137.351 76.6587 137.579 76.2943 137.761C62.5838 145.693 49.6476 146.924 39.8543 141.226C30.0611 135.573 24.6406 123.721 24.6406 107.902C24.6406 73.3937 50.7863 31.3177 80.6216 17.8242C92.1458 12.6274 103.123 12.4907 111.505 17.414C119.977 22.3829 125.261 32.275 126.354 45.1303C127.401 57.5297 124.805 71.6614 118.884 85.9755L87.7274 156.862C86.3609 159.916 83.9012 161.922 81.6693 161.922ZM78.4808 133.112L79.164 134.479C81.4415 138.992 82.0792 146.742 81.0316 157.454C80.986 158.093 81.0316 158.913 81.4415 159.05C82.1248 159.232 83.9923 158.275 85.1311 155.722L115.741 86.0666C121.844 71.7526 124.532 57.6665 123.484 45.3583C122.482 33.4147 117.699 24.3431 110.001 19.83C102.44 15.3626 92.3735 15.5905 81.7148 20.3771C52.7905 33.4603 27.4192 74.3054 27.4192 107.857C27.4192 122.627 32.3386 133.613 41.2208 138.764C50.1031 143.915 62.0828 142.685 74.8368 135.3C75.6111 134.844 76.3855 134.388 77.1143 133.932L78.4808 133.112Z" fill="#1C1C1C"/>
<path d="M2.59473 100.701L26.6451 114.559L2.59473 100.701Z" fill="#E36F59"/>
<path d="M3.27333 99.4935L1.86523 101.943L25.9102 115.785L27.3183 113.336L3.27333 99.4935Z" fill="#1C1C1C"/>
<path d="M58.9395 4.78711L82.9899 18.6453L58.9395 4.78711Z" fill="#E36F59"/>
<path d="M59.6229 3.57552L58.2148 6.02539L82.2598 19.8675L83.6679 17.4176L59.6229 3.57552Z" fill="#1C1C1C"/>
<path d="M58.9399 75.9932C66.5923 65.0069 75.2013 69.292 77.1144 72.0272L77.1599 71.9816C79.073 67.0583 87.682 52.8354 95.3344 54.978C103.351 57.2573 101.803 66.8303 97.8852 78.0901C94.6967 87.2073 80.4851 111.596 77.4788 116.747C77.1599 117.294 76.6589 117.568 76.34 117.385C72.696 115.334 59.7143 107.812 56.3436 102.023C52.4718 95.3672 50.9231 87.5264 58.9399 75.9932Z" fill="#1C1C1C"/>
<path d="M76.522 118.798C76.2487 118.798 75.9299 118.707 75.7021 118.57C70.6916 115.744 58.6209 108.587 55.2502 102.752C51.7428 96.7347 48.9187 88.1645 57.8921 75.2636C62.3104 68.9271 66.9565 67.6051 70.0539 67.5596C72.787 67.5596 75.1555 68.5625 76.7042 69.7477C79.7105 63.4568 87.7729 51.4677 95.653 53.7014C98.2038 54.4308 100.071 55.8439 101.165 57.9865C103.26 62.0436 102.622 68.3345 99.1149 78.5002C95.8808 87.7542 81.487 112.553 78.6173 117.385C78.0707 118.297 77.2964 118.798 76.522 118.798ZM70.0539 70.158C66.4555 70.158 62.9937 72.4373 59.9874 76.7224C51.8795 88.3468 54.2025 95.7318 57.4821 101.384C59.9418 105.624 68.733 111.596 76.3854 115.926C79.665 110.365 93.5578 86.4778 96.6096 77.6341C98.6594 71.7991 101.074 63.5024 98.796 59.1717C98.0217 57.713 96.7463 56.7101 94.8787 56.2086C88.775 54.4763 80.4849 66.7846 78.2985 72.4373L78.0252 73.1667L76.431 73.3946L75.9755 72.7108C75.3378 71.7535 73.0603 70.158 70.0539 70.158Z" fill="white"/>
<path d="M94.8786 73.7142L92.4189 72.8936C92.8744 71.526 93.9221 67.1953 92.5556 65.5087C92.3734 65.2807 91.8268 64.5969 90.0048 64.8249L89.7314 62.2265C92.4189 61.9074 93.8765 62.9558 94.6053 63.8676C97.065 66.9218 95.1064 73.0304 94.8786 73.7142Z" fill="white"/>
<path d="M75.7932 107.63C75.611 107.539 71.4659 105.442 67.1387 102.16L68.7329 100.108C72.8324 103.254 76.9775 105.351 76.9775 105.351L75.7932 107.63Z" fill="white"/>
</svg>
