<svg width="71" height="85" viewBox="0 0 71 85" fill="none" xmlns="http://www.w3.org/2000/svg">
<path d="M68.6895 63.3999C68.6895 63.3999 68.5984 23.1473 68.5528 22.0077C68.5528 21.8709 68.4617 21.7797 68.3707 21.7797L38.171 24.6061L38.1254 24.5605L35.3013 7.87599C35.2102 7.8304 35.1191 7.8304 35.028 7.87599L7.24251 23.9223C7.19696 23.9679 7.10586 23.9679 7.06031 23.9679L1.73096 22.5091C1.54876 22.4635 1.41211 22.6003 1.41211 22.737C1.41211 24.1046 1.54876 63.6278 1.54876 63.8101C1.63986 64.7218 2.14091 65.588 3.00636 66.135L31.1107 82.3181C33.5249 83.6857 36.4401 83.6857 38.8542 82.3181L67.2319 65.9071C68.1884 65.3145 68.644 64.3572 68.6895 63.3999Z" fill="#70CAFC"/>
<path d="M34.9824 84.7339C33.3882 84.7339 31.8395 84.3236 30.4274 83.5031L2.32305 67.32C1.0932 66.6362 0.31885 65.4054 0.1822 63.9922C0.1822 63.8099 0.1822 63.7643 0.04555 34.6348C0 28.2527 0 23.2382 0 22.7824C0 22.2809 0.22775 21.7795 0.6377 21.4604C1.04765 21.1413 1.59425 21.0501 2.0953 21.1869L6.9236 22.5089L34.2992 6.6905C34.8002 6.3714 35.4379 6.3714 35.9845 6.6905L36.5767 7.00961L39.3097 23.1015L68.5528 20.4119L68.7805 20.4575C69.5093 20.6399 70.0104 21.2781 70.0104 22.053C70.0104 22.4633 70.147 63.354 70.147 63.4452V63.6276C70.1015 64.9951 69.2816 66.3627 68.0062 67.1377L39.6285 83.5487C38.1254 84.3236 36.5311 84.7339 34.9824 84.7339ZM2.8241 24.2411C2.8241 26.2925 2.96075 63.2629 2.96075 63.7187C3.0063 63.9467 3.14295 64.4937 3.7351 64.8584L31.7939 81.087C33.7526 82.2267 36.1667 82.2267 38.1254 81.087L66.503 64.676C67.1863 64.3113 67.2774 63.6275 67.2774 63.354C67.2774 62.9893 67.1863 30.3041 67.1863 23.3294L38.0343 26.019L37.4421 25.7911L36.85 25.472L34.2081 9.9727L7.42465 25.472L6.6503 25.3352L2.8241 24.2411Z" fill="#1C1C1C"/>
<path d="M68.3705 21.7793L38.1708 24.6056L38.1252 24.56L34.709 34.8625V83.3205C36.121 83.3661 37.6242 83.0014 38.854 82.272L67.2317 65.861C68.1883 65.314 68.6438 64.3567 68.6893 63.3994C68.6893 63.3994 68.5982 23.1469 68.5527 22.0072C68.5982 21.9161 68.5071 21.8249 68.3705 21.7793Z" fill="#1C1C1C"/>
<path d="M34.9822 84.7338C34.8911 84.7338 33.2969 84.6882 33.2969 84.6882V34.6347L37.3508 22.5088L38.4896 23.147L68.5526 20.3662L68.7803 20.4118C69.5092 20.5942 70.0102 21.2324 70.0102 22.0073C70.0102 22.4176 70.1469 63.3083 70.1469 63.3995C70.1013 64.995 69.2814 66.317 67.9604 67.092L39.5828 83.503C38.1707 84.3235 36.5765 84.7338 34.9822 84.7338ZM36.0754 35.1361V81.8163C36.7587 81.6795 37.4875 81.4516 38.1252 81.0869L66.5028 64.6759C67.1861 64.3112 67.2772 63.6274 67.2772 63.3539C67.2772 63.0348 67.1861 30.304 67.1861 23.3293L39.1273 25.9277L36.0754 35.1361Z" fill="#1C1C1C"/>
<path d="M31.1107 41.0623L2.91526 24.788C0.911059 23.6484 0.911059 20.7765 2.91526 19.6368L31.4296 3.13464C33.7526 1.81264 36.5767 1.76706 38.8998 3.13464L67.0953 19.4089C69.0995 20.5485 69.0995 23.4205 67.0953 24.5601L38.5809 41.0623C36.2579 42.3843 33.4338 42.3843 31.1107 41.0623Z" fill="white"/>
<path d="M34.8458 43.4785C33.2971 43.4785 31.7939 43.0682 30.4274 42.2933L2.1864 26.019C0.819901 25.2441 0 23.7853 0 22.2354C0 20.6399 0.819901 19.2267 2.1864 18.4517L30.7007 1.94957C33.4337 0.354051 36.85 0.354051 39.583 1.94957L67.7785 18.2238C69.145 18.9987 69.9649 20.4575 69.9649 22.053C69.9649 23.6485 69.145 25.0161 67.7785 25.8367L39.2641 42.3388C37.8976 43.0682 36.3945 43.4785 34.8458 43.4785ZM35.1646 3.54508C34.117 3.54508 33.0693 3.81859 32.1128 4.36562L3.59845 20.8678C2.9152 21.2781 2.8241 21.9619 2.8241 22.2354C2.8241 22.5089 2.9152 23.1927 3.59845 23.603L31.7939 39.8772C33.6615 40.9713 35.9845 40.9713 37.8521 39.8772L66.3664 23.375C67.0496 22.9648 67.1407 22.281 67.1407 22.0075C67.1407 21.7339 67.0496 21.0501 66.3664 20.6399L38.1709 4.36562C37.2599 3.81859 36.2123 3.54508 35.1646 3.54508Z" fill="#1C1C1C"/>
<path d="M21.1354 35.1356L57.9854 13.9381L48.1466 8.46777L12.0254 29.8932L21.1354 35.1356Z" fill="white"/>
<path d="M21.1356 36.7775L9.24707 29.9396L48.1468 6.87305L60.8553 13.9845L21.1356 36.7775ZM14.8042 29.894L21.1356 33.5409L55.116 13.9845L48.1468 10.1096L14.8042 29.894Z" fill="#1C1C1C"/>
<path d="M13.4375 13.5285L48.6932 35.2731L57.8032 29.9851L22.4109 8.42285L13.4375 13.5285Z" fill="white"/>
<path d="M48.6928 36.9137L10.7041 13.4824L22.456 6.78125L60.5358 30.0302L48.6928 36.9137ZM16.2157 13.5736L48.7384 33.6315L55.0698 29.9846L22.4105 10.0635L16.2157 13.5736Z" fill="#1C1C1C"/>
<path d="M22.4566 35.1357H19.5869V69.5076H22.4566V35.1357Z" fill="#1C1C1C"/>
<path d="M13.3915 29.8936H10.5674V44.6179H13.3915V29.8936Z" fill="#1C1C1C"/>
<path d="M58.8505 34.1787H56.0264V43.7974H58.8505V34.1787Z" fill="#70CAFC"/>
<path d="M48.9667 38.7373H46.1426V68.5962H48.9667V38.7373Z" fill="#70CAFC"/>
<path d="M25.3713 57.747C25.3713 60.938 23.1394 62.2144 20.4064 60.6189C17.6734 59.0234 15.4414 55.1486 15.4414 52.0031C15.4414 48.8121 17.6734 47.5357 20.4064 49.1312C23.1394 50.6812 25.3713 54.556 25.3713 57.747Z" fill="#70CAFC"/>
<path d="M22.6387 62.3506C21.7733 62.3506 20.8167 62.0771 19.8602 61.53C16.7628 59.7522 14.3486 55.5582 14.3486 51.9569C14.3486 49.9967 15.0774 48.538 16.3528 47.8086C17.6282 47.0792 19.268 47.1704 20.9534 48.1733C24.0508 49.9512 26.4649 54.1451 26.4649 57.7464C26.4649 59.7066 25.7361 61.1654 24.4607 61.8947C23.9141 62.2138 23.2764 62.3506 22.6387 62.3506ZM18.1748 49.4953C17.9015 49.4953 17.6282 49.5409 17.4005 49.6776C16.8083 49.9967 16.4895 50.8629 16.4895 51.9569C16.4895 54.7377 18.5392 58.2478 20.9078 59.661C21.8644 60.208 22.7754 60.3448 23.3675 60.0257C23.9597 59.7066 24.2785 58.8404 24.2785 57.7464C24.2785 54.9656 22.2288 51.4555 19.8602 50.0423C19.2225 49.6777 18.6759 49.4953 18.1748 49.4953Z" fill="white"/>
</svg>
