<svg width="71" height="85" viewBox="0 0 71 85" fill="none" xmlns="http://www.w3.org/2000/svg">
<path d="M69.588 63.5307C69.588 63.5307 69.4968 23.2782 69.4513 22.1385C69.4513 22.0018 69.3602 21.9106 69.2691 21.9106L39.0695 24.7369L39.0239 24.6913L36.1998 8.00685C36.1087 7.96126 36.0176 7.96126 35.9265 8.00685L8.14097 24.0531C8.09542 24.0987 8.00431 24.0987 7.95876 24.0987L2.62943 22.64C2.44723 22.5944 2.31055 22.7311 2.31055 22.8679C2.31055 24.2355 2.44722 63.7586 2.44722 63.941C2.53832 64.8527 3.03935 65.7188 3.9048 66.2659L32.0092 82.449C34.3778 83.8165 37.3386 83.8165 39.7527 82.449L68.1303 66.038C69.0869 65.4453 69.5424 64.488 69.588 63.5307Z" fill="#75B687"/>
<path d="M35.8355 84.8653C34.2412 84.8653 32.6925 84.455 31.2805 83.6344L3.17607 67.4514C1.94622 66.7676 1.17189 65.5368 1.03524 64.1236C1.03524 63.9412 0.989666 63.8956 0.898566 34.3103C0.898566 28.1561 0.853027 23.324 0.853027 22.8682C0.853027 22.3211 1.08079 21.8653 1.49074 21.5462C1.90069 21.2271 2.44727 21.1359 2.94832 21.2726L7.8222 22.5947L35.1978 6.77627C35.6988 6.50275 36.3365 6.45717 36.8375 6.77627L37.4297 7.09538L40.1627 23.1873L69.4058 20.4977L69.6336 20.5433C70.3624 20.7256 70.8634 21.3638 70.8634 22.1388C70.8634 22.5491 71.0001 63.4398 71.0001 63.531V63.6677C70.9545 65.0353 70.1346 66.4029 68.8592 67.1779L40.4816 83.5889C39.0239 84.455 37.4297 84.8653 35.8355 84.8653ZM3.7227 24.4181C3.7227 26.3783 3.85932 63.3942 3.85932 63.8957C3.90487 64.1236 4.04155 64.6706 4.6337 65.0353L32.738 81.2184C34.6967 82.358 37.1109 82.358 39.0695 81.2184L67.4471 64.8074C68.1304 64.4427 68.2215 63.7589 68.2215 63.4854H69.6336H68.2215C68.2215 63.0751 68.1304 30.4354 68.0849 23.4608L39.024 26.1504L38.5685 26.0592L37.7941 25.5578L35.1978 10.1496L8.45986 25.6033L7.73107 25.5121L3.7227 24.4181Z" fill="#1C1C1C"/>
<path d="M69.2688 21.9111L39.0692 24.7374L39.0237 24.6919L35.6074 34.9943V83.4524C37.0195 83.498 38.5226 83.1333 39.7525 82.4039L68.1301 65.9929C69.0866 65.4458 69.5422 64.4886 69.5877 63.5312C69.5877 63.5312 69.4966 23.2787 69.4511 22.1391C69.4511 22.0479 69.4055 21.9567 69.2688 21.9111Z" fill="#1C1C1C"/>
<path d="M35.8353 84.865C35.7442 84.865 34.1499 84.8194 34.1499 84.8194V34.8114L38.2039 22.6855L39.3426 23.3237L69.4056 20.543L69.6334 20.5885C70.3622 20.7709 70.8632 21.4091 70.8632 22.1841C70.8632 22.5943 70.9999 63.4851 70.9999 63.5762C70.9543 65.1262 70.1344 66.4937 68.8135 67.2231L40.4358 83.6341C39.0693 84.4547 37.4751 84.865 35.8353 84.865ZM36.974 35.2673V81.9474C37.6573 81.8107 38.3861 81.5828 39.0238 81.2181L67.4014 64.8071C68.0847 64.4424 68.1758 63.7586 68.1758 63.4851C68.1758 63.0748 68.0847 30.4351 68.0391 23.4605L40.0259 26.0589L36.974 35.2673Z" fill="#1C1C1C"/>
<path d="M32.0092 41.1941L3.8137 24.9199C1.8095 23.7802 1.8095 20.9083 3.8137 19.7687L32.2825 3.26648C34.6055 1.94448 37.4296 1.89889 39.7527 3.26648L67.9482 19.5407C69.9524 20.6804 69.9524 23.5523 67.9482 24.6919L39.4338 41.1941C37.1563 42.5161 34.3322 42.5161 32.0092 41.1941Z" fill="white"/>
<path d="M35.7446 43.61C34.1959 43.61 32.6927 43.1998 31.3262 42.4248L3.13076 26.1506C1.76426 25.3756 0.944336 23.9624 0.944336 22.3669C0.944336 20.7714 1.76426 19.3582 3.13076 18.5377L31.6451 2.0355C34.3781 0.439989 37.7943 0.439989 40.5273 2.0355L68.7228 18.3097C70.0893 19.0847 70.9092 20.5435 70.9092 22.139C70.9092 23.7345 70.0893 25.1021 68.7228 25.9226L40.2085 42.4248C38.7964 43.1998 37.2933 43.61 35.7446 43.61ZM36.0635 3.67662C35.0158 3.67662 33.9681 3.95013 33.0116 4.49716L4.49726 20.9993C3.81401 21.4096 3.72293 22.0934 3.72293 22.3669C3.72293 22.6404 3.81401 23.3242 4.49726 23.7345L32.7383 40.0087C34.6058 41.1028 36.9289 41.1028 38.7965 40.0087L67.3108 23.5066C67.994 23.0963 68.0851 22.4125 68.0851 22.139C68.0851 21.8655 67.994 21.1817 67.3108 20.7714L39.1153 4.49716C38.1587 3.95013 37.1111 3.67662 36.0635 3.67662Z" fill="#1C1C1C"/>
<path d="M22.0338 35.2675L58.8838 14.1155L49.045 8.59961L12.9238 30.0251L22.0338 35.2675Z" fill="white"/>
<path d="M22.0336 36.9084L10.145 30.0705L49.0448 7.00391L61.7532 14.1153L22.0336 36.9084ZM15.7021 30.0249L22.0336 33.6718L56.0139 14.1153L49.0448 10.2405L15.7021 30.0249Z" fill="#1C1C1C"/>
<path d="M14.3359 13.6603L49.5917 35.4049L58.7017 30.1625L23.3093 8.55469L14.3359 13.6603Z" fill="white"/>
<path d="M49.5918 37.0455L11.603 13.6142L23.355 6.91309L61.4348 30.162L49.5918 37.0455ZM17.1146 13.7054L49.6373 33.7633L55.9688 30.1164L23.3094 10.1953L17.1146 13.7054Z" fill="#1C1C1C"/>
<path d="M23.3545 35.2676H20.4849V69.6395H23.3545V35.2676Z" fill="#1C1C1C"/>
<path d="M14.2904 30.0254H11.4663V44.7497H14.2904V30.0254Z" fill="#1C1C1C"/>
<path d="M59.7489 34.3105H56.9248V43.9292H59.7489V34.3105Z" fill="#75B687"/>
<path d="M49.8646 38.8691H47.0405V68.728H49.8646V38.8691Z" fill="#75B687"/>
<path d="M26.2698 57.8788C26.2698 61.0698 24.0378 62.3463 21.3048 60.7507C18.5718 59.1552 16.3398 55.2804 16.3398 52.135C16.3398 48.944 18.5718 47.6675 21.3048 49.2631C24.0378 50.813 26.2698 54.6878 26.2698 57.8788Z" fill="white"/>
</svg>
