<svg width="183" height="118" viewBox="0 0 183 118" fill="none" xmlns="http://www.w3.org/2000/svg">
<path d="M114.008 21.4725L17.4326 77.2588L18.2524 78.6801L114.828 22.8939L114.008 21.4725Z" fill="#1C1C1C"/>
<path d="M118.434 23.8417L21.8584 79.6279L22.6781 81.0493L119.254 25.2631L118.434 23.8417Z" fill="#1C1C1C"/>
<path d="M122.41 26.3442L25.8457 82.1416L26.6656 83.5628L123.23 27.7654L122.41 26.3442Z" fill="#1C1C1C"/>
<path d="M126.899 28.6398L30.3564 84.4707L31.1768 85.8916L127.719 30.0607L126.899 28.6398Z" fill="#1C1C1C"/>
<path d="M130.634 31.1686L34.0801 86.9883L34.9003 88.4093L131.454 32.5896L130.634 31.1686Z" fill="#1C1C1C"/>
<path d="M135.061 33.5465L38.5078 89.3662L39.328 90.7872L135.881 34.9676L135.061 33.5465Z" fill="#1C1C1C"/>
<path d="M139.064 36.0465L42.5107 91.8662L43.331 93.2872L139.884 37.4675L139.064 36.0465Z" fill="#1C1C1C"/>
<path d="M143.621 38.4286L47.0449 94.2148L47.8647 95.6362L144.44 39.8499L143.621 38.4286Z" fill="#1C1C1C"/>
<path d="M147.582 40.9037L51.0059 96.6787L51.8254 98.1001L148.401 42.325L147.582 40.9037Z" fill="#1C1C1C"/>
<path d="M152.162 43.2621L55.5752 99.0371L56.3948 100.459L152.982 44.6836L152.162 43.2621Z" fill="#1C1C1C"/>
<path d="M156.086 45.759L59.5439 101.59L60.3643 103.011L156.907 47.1798L156.086 45.759Z" fill="#1C1C1C"/>
<path d="M160.639 48.0731L64.0635 103.859L64.8832 105.281L161.459 49.4945L160.639 48.0731Z" fill="#1C1C1C"/>
<path d="M164.297 50.6217L67.7432 106.441L68.5634 107.862L165.117 52.0427L164.297 50.6217Z" fill="#1C1C1C"/>
<path d="M168.705 53.0354L72.1631 108.866L72.9835 110.287L169.526 54.4562L168.705 53.0354Z" fill="#1C1C1C"/>
<path d="M172.758 55.5069L76.1934 111.315L77.0134 112.737L173.578 56.9281L172.758 55.5069Z" fill="#1C1C1C"/>
<path d="M177.283 57.8749L80.707 113.661L81.5268 115.082L178.103 59.2962L177.283 57.8749Z" fill="#1C1C1C"/>
<path d="M181.25 60.3278L84.6963 116.147L85.5165 117.568L182.07 61.7488L181.25 60.3278Z" fill="#1C1C1C"/>
<path d="M96.8296 11.9042L0.253906 67.6904L1.07364 69.1118L97.6494 13.3256L96.8296 11.9042Z" fill="#1C1C1C"/>
<path d="M101.212 14.2037L4.6582 70.0234L5.47843 71.4445L102.032 15.6248L101.212 14.2037Z" fill="#1C1C1C"/>
<path d="M105.276 16.7513L8.68945 72.5264L9.50903 73.9479L106.096 18.1728L105.276 16.7513Z" fill="#1C1C1C"/>
<path d="M109.793 19.0716L13.2061 74.8467L14.0256 76.2682L110.612 20.4931L109.793 19.0716Z" fill="#1C1C1C"/>
<path d="M113.779 21.6005L17.2031 77.3867L18.0229 78.8081L114.599 23.0218L113.779 21.6005Z" fill="#1C1C1C"/>
<path d="M124.822 62.8969C124.822 62.8969 124.731 22.6444 124.686 21.5048C124.686 21.368 124.595 21.2768 124.503 21.2768L94.3038 24.1032L94.2583 24.0576L91.4342 7.37306C91.3431 7.32747 91.252 7.32747 91.1609 7.37306L63.3753 23.4194C63.3298 23.465 63.2387 23.465 63.1931 23.465L57.8638 22.0062C57.6816 21.9606 57.5449 22.0974 57.5449 22.2341C57.5449 23.6017 57.6816 63.1249 57.6816 63.3072C57.7727 64.2189 58.2737 65.0851 59.1392 65.6321L87.2436 81.8152C89.6577 83.1828 92.5729 83.1828 94.9871 81.8152L123.365 65.4042C124.321 64.8115 124.777 63.8542 124.822 62.8969Z" fill="#70CAFC"/>
<path d="M91.0694 84.2305C89.4751 84.2305 87.9264 83.8202 86.5144 82.9997L58.41 66.8166C57.1801 66.1328 56.4058 64.902 56.2691 63.4888C56.2691 63.3065 56.2691 63.2609 56.1325 33.6755C56.1325 27.5214 56.0869 22.6893 56.0869 22.2334C56.0869 21.732 56.3147 21.2305 56.7246 20.9114C57.1346 20.5923 57.6812 20.5011 58.1822 20.6379L63.0561 21.9599L90.4316 6.14151C90.9327 5.86799 91.5704 5.8224 92.117 6.14151L92.7091 6.46061L95.4422 22.5525L124.685 19.8629L124.913 19.9541C125.642 20.1364 126.143 20.7746 126.143 21.5496C126.143 22.6437 126.234 63.1241 126.234 63.1241C126.188 64.4917 125.369 65.8593 124.093 66.6343L95.7154 83.0453C94.2578 83.8202 92.6636 84.2305 91.0694 84.2305ZM58.9566 23.7833C58.9566 25.7435 59.0932 62.7594 59.0932 63.2609C59.1388 63.4888 59.2754 64.0359 59.8676 64.4005L87.9719 80.5836C89.9306 81.7233 92.3447 81.7233 94.3034 80.5836L122.681 64.1726C123.364 63.8079 123.455 63.1241 123.455 62.8506C123.455 62.3036 123.364 29.8007 123.319 22.826L94.2123 25.5156L93.5746 25.2877L92.9824 24.9686L90.3405 9.46929L63.5571 24.9686L62.7827 24.8318L58.9566 23.7833Z" fill="#1C1C1C"/>
<path d="M124.503 21.2764L94.3036 24.1027L94.258 24.0571L90.8418 34.3596V82.8176C92.2538 82.8632 93.757 82.4985 94.9868 81.7691L123.364 65.3581C124.321 64.8111 124.777 63.8538 124.822 62.8965C124.822 62.8965 124.731 22.644 124.685 21.5043C124.685 21.4131 124.64 21.322 124.503 21.2764Z" fill="#1C1C1C"/>
<path d="M91.0702 84.2312C90.9791 84.2312 89.3848 84.1856 89.3848 84.1856V34.1776L93.4387 22.0517L94.5775 22.6899L124.64 19.9092L124.868 20.0004C125.597 20.1827 126.098 20.8209 126.098 21.5959C126.098 22.6899 126.189 63.1704 126.189 63.1704C126.144 64.538 125.324 65.9056 124.048 66.6805L95.6707 83.0915C94.3042 83.8209 92.71 84.2312 91.0702 84.2312ZM92.2089 34.6335V81.3137C92.8922 81.1769 93.621 80.949 94.2587 80.5843L122.636 64.1733C123.32 63.8086 123.411 63.1248 123.411 62.8513C123.411 62.7145 123.32 29.8469 123.274 22.8267L95.2152 25.4251L92.2089 34.6335Z" fill="#1C1C1C"/>
<path d="M87.2436 40.5593L59.0481 24.2851C57.0439 23.1455 57.0439 20.2735 59.0481 19.1339L87.5624 2.63171C89.8854 1.30971 92.7095 1.26413 95.0326 2.63171L123.228 18.9059C125.232 20.0456 125.232 22.9175 123.228 24.0572L94.7138 40.5593C92.3907 41.8813 89.5666 41.9269 87.2436 40.5593Z" fill="white"/>
<path d="M90.9789 42.9753C89.4302 42.9753 87.9271 42.565 86.5606 41.79L58.3651 25.5158C56.9986 24.7408 56.1787 23.2821 56.1787 21.7321C56.1787 20.1366 56.9986 18.7235 58.3651 17.9029L86.8794 1.40074C89.6124 -0.194777 93.0287 -0.194777 95.7617 1.40074L123.957 17.675C125.324 18.4499 126.144 19.9087 126.144 21.5042C126.144 23.0997 125.324 24.4673 123.957 25.2879L95.4429 41.79C94.0308 42.565 92.4821 42.9753 90.9789 42.9753ZM91.2978 3.04184C90.2502 3.04184 89.2025 3.31536 88.2459 3.86239L59.7316 20.3646C59.0028 20.7748 58.9573 21.4586 58.9573 21.7321C58.9573 22.0057 59.0484 22.6894 59.7316 23.0997L87.9271 39.374C89.7947 40.468 92.1177 40.468 93.9852 39.374L122.5 22.8718C123.183 22.4615 123.274 21.7777 123.274 21.5042C123.274 21.2307 123.183 20.5469 122.5 20.1366L94.3041 3.86239C93.3476 3.31536 92.3455 3.04184 91.2978 3.04184Z" fill="#1C1C1C"/>
<path d="M77.2682 34.6327L114.118 13.4808L104.279 7.96484L68.1582 29.3903L77.2682 34.6327Z" fill="white"/>
<path d="M77.2684 36.2746L65.3799 29.4367L104.28 6.37012L116.988 13.4815L77.2684 36.2746ZM70.937 29.3911L77.2684 33.038L111.249 13.4815L104.28 9.60673L70.937 29.3911Z" fill="#1C1C1C"/>
<path d="M69.5703 13.0256L104.826 34.7701L113.936 29.5277L78.5437 7.91992L69.5703 13.0256Z" fill="white"/>
<path d="M104.781 36.4107L66.792 12.9795L78.5439 6.27832L116.624 29.5272L104.781 36.4107ZM72.3491 13.0706L104.872 33.1285L111.203 29.4816L78.5439 9.56052L72.3491 13.0706Z" fill="#1C1C1C"/>
<path d="M78.5894 34.6328H75.7197V69.0047H78.5894V34.6328Z" fill="#1C1C1C"/>
<path d="M69.5243 29.3906H66.7002V44.1149H69.5243V29.3906Z" fill="#1C1C1C"/>
<path d="M114.983 33.6758H112.159V43.2944H114.983V33.6758Z" fill="#70CAFC"/>
<path d="M105.099 38.2344H102.275V68.0933H105.099V38.2344Z" fill="#70CAFC"/>
<path d="M79.3182 54.554V54.0525C79.3637 52.2291 77.9061 49.8586 76.0841 48.8101L69.8437 45.0721C68.0673 43.978 66.5642 44.6162 66.5186 46.4396V46.9411C66.4731 48.7645 67.9307 51.135 69.7527 52.1835L75.993 55.9215C77.815 56.97 79.3182 56.3774 79.3182 54.554Z" fill="#70CAFC"/>
<path d="M77.6781 57.5175C76.9948 57.5175 76.2205 57.2895 75.4461 56.8337L69.2058 53.0956C67.0649 51.8192 65.4251 49.084 65.4707 46.8959V46.3945C65.4707 45.2092 66.0173 44.2519 66.8372 43.796C67.8393 43.249 69.1147 43.3858 70.3901 44.1607L76.6304 47.8988C78.7713 49.1752 80.4111 51.9104 80.3655 54.0985V54.5999C80.3655 55.7852 79.8645 56.7425 78.999 57.1983C78.6346 57.3807 78.1791 57.5175 77.6781 57.5175ZM68.2037 45.6195C68.067 45.6195 67.9759 45.6651 67.8848 45.6651C67.6571 45.8018 67.6115 46.2121 67.6115 46.3945V46.8959C67.6115 48.3091 68.8413 50.3149 70.2989 51.2266L76.5393 54.9646C77.2226 55.3749 77.7236 55.4205 77.9514 55.2837C78.1791 55.147 78.2247 54.7367 78.2247 54.5544V54.0529C78.2247 52.6397 76.9948 50.634 75.5372 49.7222L69.2969 45.9842C68.8414 45.7107 68.477 45.6195 68.2037 45.6195Z" fill="white"/>
</svg>
