<svg width="193" height="55" viewBox="0 0 193 55" fill="none" xmlns="http://www.w3.org/2000/svg">
<path d="M1 8.8C1 4.478 4.44765 1 8.66906 1H184.218C188.439 1 191.887 4.478 191.887 8.8V46.2C191.887 50.522 188.439 54 184.218 54H8.66906C4.44764 54 1 50.522 1 46.2V8.8Z" fill="white" stroke="#E2E7EB" stroke-width="2"/>
<path d="M38.7848 18.0879L38.7611 18.0737L38.7058 18.0566C38.7281 18.0756 38.7557 18.0866 38.7848 18.0879Z" fill="#23262D"/>
<path d="M39.1346 20.6025L39.1072 20.6101L39.1346 20.6025Z" fill="#23262D"/>
<path d="M38.7954 18.0843C38.7919 18.0839 38.7888 18.0831 38.7857 18.082C38.7853 18.0842 38.7853 18.0863 38.7857 18.0884C38.7892 18.0879 38.7923 18.0865 38.7954 18.0843Z" fill="#23262D"/>
<path d="M38.7852 18.0889H38.7902V18.0859L38.7852 18.0889Z" fill="#23262D"/>
<path d="M39.1123 20.5982L39.1523 20.575L39.1672 20.5664L39.1807 20.5518C39.1555 20.5629 39.1321 20.5786 39.1123 20.5982Z" fill="#23262D"/>
<path d="M38.8532 18.1434L38.8139 18.1055L38.7874 18.0908C38.8019 18.1164 38.8252 18.1353 38.8532 18.1434Z" fill="#23262D"/>
<path d="M28.996 42.5449C28.9647 42.5586 28.9373 42.5802 28.9163 42.6075L28.941 42.5913C28.9578 42.5758 28.9816 42.5571 28.996 42.5449Z" fill="#23262D"/>
<path d="M34.7212 41.4017C34.7212 41.3658 34.7034 41.3722 34.7077 41.5002C34.7077 41.4898 34.7121 41.4794 34.714 41.4693C34.7164 41.4466 34.7183 41.4244 34.7212 41.4017Z" fill="#23262D"/>
<path d="M34.1296 42.5449C34.0982 42.5586 34.0708 42.5802 34.0498 42.6075L34.0745 42.5913C34.0913 42.5758 34.1151 42.5571 34.1296 42.5449Z" fill="#23262D"/>
<path d="M24.9621 42.8172C24.9384 42.7964 24.9093 42.7824 24.8782 42.7773C24.9034 42.7899 24.9285 42.8021 24.9454 42.8115L24.9621 42.8172Z" fill="#23262D"/>
<path d="M24.0561 41.9351C24.0524 41.8978 24.0411 41.8618 24.0229 41.8291C24.0358 41.8629 24.0465 41.8978 24.0551 41.9334L24.0561 41.9351Z" fill="#23262D"/>
<path d="M30.1493 26.16C28.9038 26.7013 27.4903 27.315 25.6583 27.315C24.8919 27.3134 24.1293 27.2067 23.3911 26.9977L24.6582 40.2027C24.703 40.7545 24.9507 41.2693 25.352 41.6442C25.7534 42.0195 26.279 42.2277 26.8246 42.2273C26.8246 42.2273 28.6211 42.3222 29.2205 42.3222C29.8657 42.3222 31.8003 42.2273 31.8003 42.2273C32.3457 42.2273 32.8713 42.0192 33.2725 41.6442C33.6738 41.2689 33.9214 40.7545 33.9662 40.2027L35.3233 25.6107C34.7169 25.4004 34.1048 25.2607 33.4148 25.2607C32.2215 25.2603 31.2601 25.6774 30.1493 26.16Z" fill="#FFDD00"/>
<path d="M19.4714 20.5273L19.4929 20.5477L19.5069 20.5562C19.4961 20.5454 19.4842 20.5356 19.4714 20.5273Z" fill="#23262D"/>
<path d="M41.1848 19.3086L40.9943 18.3317C40.8229 17.4551 40.4344 16.6269 39.548 16.3101C39.264 16.2087 38.9414 16.1652 38.7236 15.9554C38.5058 15.7456 38.4414 15.4198 38.3911 15.1177C38.2979 14.5631 38.2101 14.0082 38.1145 13.4546C38.032 12.9787 37.9665 12.444 37.7515 12.0074C37.4718 11.4212 36.891 11.0783 36.3134 10.8515C36.0173 10.7394 35.7153 10.6445 35.4087 10.5674C33.9658 10.1809 32.4488 10.0389 30.9644 9.95792C29.1827 9.85813 27.3962 9.88818 25.6187 10.0479C24.2957 10.17 22.9023 10.3178 21.6451 10.7823C21.1856 10.9524 20.7121 11.1565 20.3627 11.5168C19.934 11.9596 19.794 12.6444 20.107 13.1965C20.3296 13.5886 20.7065 13.8656 21.1063 14.0489C21.627 14.285 22.1709 14.4647 22.7288 14.5849C24.2822 14.9335 25.8912 15.0703 27.4782 15.1286C29.2372 15.2006 30.9991 15.1422 32.7497 14.9538C33.1826 14.9055 33.6147 14.8476 34.0461 14.7801C34.5541 14.701 34.8802 14.0266 34.7304 13.5569C34.5513 12.9953 34.0699 12.7774 33.5255 12.8622C33.4452 12.875 33.3655 12.8868 33.2852 12.8987L33.2274 12.9072C33.043 12.9308 32.8585 12.9529 32.6741 12.9735C32.2931 13.0151 31.9112 13.0492 31.5284 13.0757C30.671 13.1363 29.8112 13.1643 28.9519 13.1657C28.1075 13.1657 27.2627 13.1416 26.4202 13.0852C26.0358 13.0596 25.6523 13.0271 25.2698 12.9877C25.0958 12.9692 24.9223 12.9498 24.7487 12.928L24.5836 12.9067L24.5477 12.9015L24.3764 12.8764C24.0266 12.8229 23.6767 12.7613 23.3306 12.687C23.2956 12.6791 23.2644 12.6594 23.242 12.6311C23.2196 12.6027 23.2074 12.5675 23.2074 12.5312C23.2074 12.4949 23.2196 12.4596 23.242 12.4313C23.2644 12.403 23.2956 12.3832 23.3306 12.3754H23.3371C23.6371 12.3105 23.9393 12.2551 24.2425 12.2068C24.3436 12.1907 24.445 12.1749 24.5467 12.1594H24.5495C24.7394 12.1466 24.9302 12.1121 25.1191 12.0893C26.7629 11.9158 28.4165 11.8566 30.0682 11.9123C30.8701 11.9359 31.6716 11.9838 32.4698 12.0661C32.6414 12.0842 32.8122 12.1031 32.9829 12.1244C33.0482 12.1324 33.114 12.1419 33.1798 12.15L33.3123 12.1694C33.6986 12.2278 34.0828 12.2987 34.465 12.382C35.0314 12.507 35.7585 12.5477 36.0106 13.1776C36.0907 13.3774 36.1271 13.5995 36.1714 13.8093L36.2281 14.0768C36.2295 14.0816 36.2305 14.0866 36.2312 14.0915C36.3647 14.7229 36.4983 15.3543 36.6318 15.9857C36.6417 16.0323 36.642 16.0805 36.6325 16.1273C36.6233 16.174 36.6045 16.2183 36.5776 16.2573C36.5507 16.2964 36.516 16.3294 36.4759 16.3543C36.4359 16.3792 36.391 16.3954 36.3446 16.4019H36.3407L36.2592 16.4133L36.1785 16.4242C35.9228 16.458 35.6668 16.4895 35.4106 16.5189C34.9058 16.5773 34.4003 16.6278 33.894 16.6704C32.8879 16.7554 31.8798 16.8111 30.8697 16.8376C30.355 16.8515 29.8404 16.858 29.326 16.857C27.2786 16.8554 25.2329 16.7346 23.199 16.4952C22.9788 16.4687 22.7586 16.4403 22.5384 16.4114C22.7092 16.4337 22.4144 16.3944 22.3547 16.3858C22.2147 16.366 22.0747 16.3453 21.9348 16.3238C21.465 16.2523 20.9981 16.1642 20.5292 16.087C19.9624 15.9923 19.4203 16.0397 18.9077 16.3238C18.4868 16.5576 18.1462 16.9161 17.9313 17.3514C17.7101 17.8155 17.6444 18.3208 17.5455 18.8194C17.4466 19.3181 17.2926 19.8546 17.351 20.3665C17.4764 21.4713 18.2373 22.3691 19.3317 22.5699C20.3613 22.7593 21.3964 22.9128 22.4344 23.0434C26.5118 23.5504 30.631 23.611 34.7211 23.2244C35.0542 23.1928 35.3868 23.1584 35.7188 23.1211C35.8226 23.1095 35.9278 23.1216 36.0262 23.1566C36.1247 23.1916 36.2142 23.2484 36.2883 23.3231C36.3623 23.3977 36.4193 23.4882 36.4543 23.588C36.4894 23.6878 36.5022 23.7942 36.4915 23.8996L36.3878 24.9215C36.1792 26.9865 35.9706 29.0513 35.762 31.116C35.5442 33.2842 35.3251 35.4523 35.1046 37.62C35.0424 38.2308 34.9802 38.8412 34.918 39.4515C34.8583 40.0522 34.8499 40.6723 34.7374 41.2662C34.5602 42.1997 33.9374 42.7735 33.0286 42.983C32.1961 43.1754 31.3456 43.2764 30.4918 43.2843C29.5453 43.2893 28.5992 43.2469 27.6527 43.2519C26.6423 43.2577 25.4046 43.1631 24.6246 42.3996C23.9393 41.7292 23.8446 40.6792 23.7513 39.7715C23.6269 38.5697 23.5036 37.368 23.3814 36.1663L22.6956 29.4851L22.252 25.1621C22.2446 25.0906 22.2371 25.02 22.2301 24.948C22.1769 24.4324 21.8172 23.9276 21.2504 23.9536C20.7653 23.9754 20.2139 24.394 20.2708 24.948L20.5997 28.153L21.2798 34.7827C21.4736 36.666 21.6669 38.5493 21.8597 40.4329C21.897 40.7938 21.932 41.1558 21.9712 41.5164C22.1843 43.4885 23.6678 44.5511 25.5049 44.8502C26.5779 45.0256 27.677 45.0615 28.7658 45.0795C30.1615 45.1022 31.5713 45.1568 32.9442 44.9001C34.9786 44.5212 36.505 43.1423 36.7228 41.003C36.7851 40.3858 36.8474 39.7679 36.9094 39.1503C37.1162 37.107 37.3227 35.0637 37.5291 33.0201L38.2034 26.3431L38.5129 23.2831C38.5281 23.1313 38.5915 22.9886 38.6928 22.8762C38.7944 22.7637 38.929 22.6873 39.0763 22.6585C39.6581 22.5434 40.2141 22.3469 40.6281 21.8975C41.2868 21.1819 41.4178 20.249 41.1848 19.3086ZM19.3019 19.9687C19.3107 19.9644 19.2944 20.0416 19.2874 20.0776C19.286 20.0232 19.2888 19.9749 19.3019 19.9687ZM19.3583 20.4119C19.363 20.4086 19.377 20.4276 19.3914 20.4503C19.3695 20.4295 19.3555 20.4139 19.3578 20.4119H19.3583ZM19.4138 20.4863C19.4339 20.5209 19.4446 20.5427 19.4138 20.4863V20.4863ZM19.5253 20.5782H19.5281C19.5281 20.5815 19.5332 20.5848 19.5351 20.5881C19.532 20.5845 19.5286 20.5811 19.5248 20.5782H19.5253ZM39.0494 20.4408C38.8405 20.6426 38.5253 20.7363 38.2144 20.7832C34.7249 21.3088 31.1846 21.575 27.6569 21.4575C25.1322 21.3699 22.6341 21.0853 20.1345 20.7268C19.8896 20.6918 19.6242 20.6464 19.4558 20.4631C19.1386 20.1174 19.2944 19.4213 19.377 19.0036C19.4525 18.621 19.5972 18.111 20.0454 18.0565C20.7452 17.9732 21.5579 18.2729 22.2501 18.3795C23.0836 18.5086 23.9202 18.612 24.7599 18.6897C28.3436 19.0211 31.9874 18.9695 35.5552 18.4846C36.2054 18.3959 36.8534 18.2928 37.499 18.1754C38.0745 18.0707 38.7119 17.8742 39.0597 18.4789C39.298 18.8909 39.3295 19.4421 39.2927 19.9076C39.2814 20.1104 39.1942 20.3012 39.0487 20.4408H39.0494Z" fill="#23262D"/>
<path fill-rule="evenodd" clip-rule="evenodd" d="M60.2146 30.2819C60.0109 30.6766 59.7308 31.0204 59.3742 31.3121C59.0176 31.6041 58.6019 31.8418 58.1263 32.0248C57.651 32.2082 57.1726 32.3313 56.6917 32.394C56.2104 32.457 55.7433 32.4515 55.2911 32.3768C54.8382 32.3025 54.4529 32.1509 54.1363 31.9217L54.4933 28.161C54.8212 28.0466 55.2341 27.9292 55.7324 27.8089C56.2303 27.6889 56.7423 27.6028 57.2689 27.5514C57.7955 27.4998 58.2931 27.5058 58.763 27.5686C59.2326 27.6316 59.6033 27.7832 59.8749 28.0237C60.0223 28.161 60.1469 28.3098 60.2486 28.4701C60.3505 28.6305 60.4125 28.7965 60.4355 28.9682C60.4918 29.449 60.4185 29.8869 60.2146 30.2819ZM55.0361 22.2709C55.2738 22.1221 55.5599 21.9902 55.8935 21.8756C56.2274 21.7615 56.5699 21.6811 56.9208 21.6354C57.2714 21.5898 57.6138 21.5837 57.9481 21.6182C58.2817 21.6526 58.5764 21.7469 58.831 21.9014C59.0856 22.0561 59.2751 22.2794 59.3997 22.5711C59.524 22.8632 59.558 23.2325 59.5013 23.6789C59.4564 24.0338 59.3172 24.3344 59.0856 24.5804C58.8536 24.8268 58.5703 25.0327 58.2368 25.1987C57.9028 25.3649 57.549 25.4965 57.1758 25.5935C56.8018 25.6911 56.4424 25.7627 56.0975 25.8083C55.7522 25.8543 55.4522 25.883 55.1976 25.8941C54.943 25.9057 54.7759 25.9113 54.6965 25.9113L55.0361 22.2709ZM62.0482 27.8518C61.8673 27.4514 61.624 27.0993 61.3184 26.7956C61.0128 26.4924 60.6501 26.2721 60.2316 26.1347C60.4125 25.9858 60.591 25.7512 60.7666 25.4305C60.9419 25.1103 61.0917 24.7608 61.2164 24.383C61.3407 24.005 61.426 23.6246 61.471 23.241C61.516 22.8576 61.499 22.5284 61.4204 22.2534C61.2274 21.5667 60.9249 21.0286 60.5117 20.6393C60.0984 20.2502 59.6175 19.9811 59.0686 19.8321C58.5193 19.6838 57.9141 19.652 57.2519 19.7378C56.5897 19.8236 55.9133 19.9925 55.2231 20.2443C55.2231 20.1872 55.2288 20.1271 55.2401 20.0641C55.2511 20.0014 55.2568 19.9354 55.2568 19.8665C55.2568 19.6949 55.1721 19.5463 55.0021 19.4201C54.8325 19.2942 54.6374 19.2199 54.4168 19.1968C54.1958 19.1742 53.9808 19.2225 53.7712 19.3428C53.5619 19.463 53.4174 19.6838 53.3384 20.0038C53.2478 21.0343 53.1571 22.1048 53.0668 23.2151C52.9762 24.3257 52.8799 25.4477 52.7782 26.5813C52.6762 27.7146 52.5742 28.8394 52.4726 29.9555C52.3706 31.0718 52.2686 32.145 52.167 33.1753C52.201 33.4844 52.2856 33.7249 52.4216 33.8966C52.5572 34.0685 52.7159 34.1716 52.8968 34.2058C53.0778 34.2402 53.2676 34.2084 53.4656 34.1112C53.6635 34.0143 53.8364 33.845 53.9837 33.6047C54.4362 33.8565 54.9458 34.0197 55.5117 34.0942C56.0776 34.1685 56.6517 34.1685 57.2353 34.0942C57.8178 34.0197 58.3922 33.8796 58.9581 33.6733C59.524 33.4674 60.0393 33.2097 60.5032 32.9008C60.9674 32.5916 61.3577 32.2393 61.675 31.8446C61.9916 31.4494 62.2012 31.023 62.3029 30.5653C62.4048 30.0958 62.4332 29.6265 62.3878 29.157C62.3425 28.6878 62.2292 28.2529 62.0482 27.8518Z" fill="#23262D"/>
<path fill-rule="evenodd" clip-rule="evenodd" d="M78.6127 36.9187C78.5508 37.2966 78.4626 37.6945 78.3496 38.1126C78.2363 38.5299 78.1035 38.911 77.9509 39.2546C77.7979 39.5979 77.6283 39.8751 77.4416 40.0872C77.2547 40.2989 77.0535 40.3877 76.8386 40.3536C76.6689 40.3302 76.5613 40.2216 76.5163 40.0271C76.4706 39.8323 76.4706 39.5918 76.5163 39.306C76.5613 39.0195 76.6487 38.696 76.7791 38.3354C76.9094 37.9749 77.068 37.6169 77.2547 37.2624C77.4416 36.9072 77.6538 36.5668 77.8914 36.2404C78.129 35.9144 78.378 35.6423 78.6382 35.4249C78.6949 35.4935 78.7204 35.6652 78.7147 35.9401C78.7087 36.2149 78.6751 36.5413 78.6127 36.9187ZM84.3687 29.466C84.2158 29.2943 84.0291 29.1971 83.8082 29.174C83.5875 29.1511 83.3637 29.2771 83.1378 29.5518C82.9905 29.8265 82.8035 30.0899 82.5772 30.3418C82.3509 30.5938 82.1161 30.8226 81.8728 31.0287C81.6292 31.2346 81.3972 31.4123 81.1766 31.5609C80.956 31.7099 80.7832 31.8186 80.6589 31.8873C80.6136 31.5211 80.5877 31.1261 80.5824 30.7023C80.5764 30.2788 80.5852 29.8496 80.6079 29.4145C80.6415 28.7963 80.7124 28.1725 80.82 27.5426C80.9277 26.9131 81.0831 26.2948 81.2871 25.6878C81.2871 25.3675 81.2131 25.107 81.0661 24.9065C80.9188 24.7063 80.7407 24.5802 80.5314 24.5288C80.3218 24.4774 80.1072 24.5059 79.8862 24.6146C79.6656 24.7235 79.4761 24.9211 79.3175 25.207C79.1818 25.585 79.026 26.0085 78.8507 26.4778C78.6751 26.9472 78.4771 27.4252 78.2565 27.9117C78.0355 28.3986 77.7894 28.8707 77.5178 29.3285C77.2462 29.7867 76.949 30.1932 76.6264 30.5478C76.3038 30.9028 75.9529 31.1805 75.574 31.3808C75.1943 31.5812 74.7846 31.6698 74.343 31.647C74.139 31.5897 73.9917 31.4352 73.9014 31.1831C73.8108 30.9315 73.7569 30.6165 73.7403 30.2387C73.7233 29.8609 73.7403 29.4459 73.7909 28.9936C73.8419 28.5416 73.9099 28.0921 73.9949 27.6457C74.0795 27.1991 74.173 26.7756 74.2747 26.3749C74.3767 25.9743 74.4726 25.6364 74.5633 25.3617C74.6993 25.0298 74.6993 24.7518 74.5633 24.5288C74.4276 24.3054 74.241 24.1569 74.0034 24.0821C73.7658 24.0079 73.5165 24.0109 73.2562 24.0909C72.9959 24.171 72.8089 24.3484 72.696 24.6231C72.5033 25.0928 72.3277 25.6192 72.1694 26.203C72.0111 26.7869 71.8836 27.391 71.7876 28.0148C71.6913 28.6389 71.6371 29.2572 71.6261 29.8697C71.6254 29.9095 71.6272 29.9474 71.6272 29.9871C71.3804 30.6526 71.1452 31.1557 70.9218 31.4923C70.6332 31.9276 70.3074 32.1165 69.9454 32.0589C69.7864 31.9903 69.6823 31.8302 69.6313 31.5781C69.58 31.3265 69.5633 31.0174 69.58 30.6507C69.5973 30.2847 69.6398 29.8697 69.7075 29.4058C69.7758 28.9422 69.8601 28.4614 69.9621 27.9633C70.0641 27.4651 70.1717 26.9647 70.2847 26.4608C70.398 25.9571 70.4997 25.4819 70.5907 25.0353C70.5793 24.6347 70.4632 24.3286 70.2422 24.1166C70.0219 23.905 69.7131 23.822 69.3172 23.8676C69.0456 23.9821 68.8445 24.1312 68.7145 24.3142C68.5842 24.4972 68.4794 24.732 68.4004 25.0181C68.3547 25.1671 68.2871 25.4647 68.1964 25.9113C68.1057 26.3575 67.9899 26.8701 67.8483 27.4481C67.707 28.0265 67.5398 28.6302 67.3476 29.2598C67.1553 29.8895 66.94 30.4594 66.7027 30.9685C66.4647 31.4779 66.2044 31.8873 65.9215 32.1964C65.6385 32.5053 65.3329 32.6315 65.0046 32.5742C64.8233 32.5398 64.7075 32.3509 64.6565 32.0075C64.6055 31.6639 64.5974 31.2407 64.631 30.7367C64.665 30.233 64.733 29.6805 64.8347 29.0797C64.9366 28.4786 65.0411 27.9091 65.1488 27.3708C65.2564 26.8329 65.3556 26.3575 65.4462 25.9455C65.5365 25.5333 65.5989 25.2586 65.6329 25.1214C65.6329 24.7893 65.5589 24.5233 65.4122 24.3227C65.2649 24.1227 65.0868 23.9965 64.8772 23.9449C64.6675 23.8935 64.4526 23.922 64.2323 24.0307C64.0113 24.1397 63.8219 24.3373 63.6632 24.6231C63.6065 24.9322 63.5329 25.2902 63.4426 25.6965C63.3519 26.1028 63.2645 26.5207 63.1795 26.9501C63.0945 27.3795 63.0151 27.8002 62.9418 28.2124C62.8682 28.6246 62.8144 28.9851 62.7804 29.2943C62.7577 29.5346 62.7322 29.8296 62.7042 30.1786C62.6755 30.528 62.6614 30.8971 62.6614 31.2862C62.6614 31.6757 62.6897 32.062 62.7467 32.4454C62.803 32.8291 62.905 33.1812 63.052 33.5014C63.1989 33.8221 63.4058 34.0853 63.6721 34.2914C63.9377 34.4975 64.2744 34.6118 64.682 34.635C65.1006 34.6576 65.4657 34.6264 65.7774 34.5404C66.0883 34.4545 66.3712 34.3199 66.6262 34.1367C66.8808 33.9539 67.1128 33.7363 67.3224 33.4842C67.5313 33.2326 67.7382 32.9578 67.9418 32.66C68.1344 33.0953 68.3834 33.4328 68.689 33.6733C68.9946 33.9136 69.3172 34.0569 69.6568 34.1025C69.9961 34.148 70.3417 34.0999 70.6927 33.9565C71.0432 33.8136 71.3602 33.5703 71.6431 33.2267C71.8298 33.016 72.0054 32.7766 72.1704 32.5119C72.2405 32.6358 72.3149 32.7554 72.3988 32.8659C72.6761 33.2326 73.0526 33.4842 73.5282 33.6217C74.0374 33.7591 74.5349 33.7822 75.0219 33.6905C75.5084 33.599 75.9727 33.4328 76.414 33.1925C76.8556 32.952 77.2656 32.6631 77.6453 32.3252C78.0242 31.9875 78.3553 31.6356 78.6382 31.269C78.6269 31.5324 78.6212 31.7816 78.6212 32.016C78.6212 32.2509 78.6156 32.5053 78.6046 32.7803C78.0383 33.1812 77.5036 33.662 77 34.2227C76.4961 34.7835 76.0545 35.3818 75.6756 36.0172C75.2963 36.6524 74.9992 37.2966 74.7846 37.949C74.5693 38.6018 74.4645 39.2115 74.4701 39.7784C74.4758 40.3449 74.6086 40.8399 74.8692 41.2634C75.1292 41.6872 75.5538 41.9902 76.1423 42.1736C76.7539 42.3684 77.2911 42.3738 77.7557 42.1908C78.2197 42.0075 78.6241 41.7041 78.9693 41.2806C79.3146 40.8572 79.5976 40.3449 79.8185 39.7439C80.0392 39.1428 80.2145 38.5159 80.3448 37.8635C80.4747 37.211 80.5569 36.5693 80.5909 35.9401C80.6249 35.3103 80.6249 34.7491 80.5909 34.257C81.5644 33.845 82.3623 33.324 82.9848 32.6942C83.6074 32.0651 84.1223 31.4008 84.5299 30.7023C84.6542 30.5306 84.6967 30.3245 84.6574 30.0842C84.6173 29.8437 84.5214 29.6376 84.3687 29.466Z" fill="#23262D"/>
<path fill-rule="evenodd" clip-rule="evenodd" d="M105.787 28.3671C105.821 28.1039 105.872 27.8262 105.939 27.5343C106.007 27.2423 106.092 26.9589 106.194 26.6842C106.296 26.4094 106.415 26.172 106.551 25.9715C106.686 25.7713 106.831 25.6282 106.984 25.5421C107.137 25.4565 107.292 25.465 107.451 25.5678C107.62 25.6711 107.725 25.8885 107.765 26.2203C107.804 26.5528 107.765 26.9075 107.646 27.2852C107.527 27.6632 107.315 28.0179 107.009 28.3499C106.703 28.6822 106.29 28.8994 105.77 29.0024C105.747 28.8425 105.753 28.6305 105.787 28.3671ZM111.669 29.071C111.483 29.0142 111.305 29.0083 111.135 29.054C110.965 29.0998 110.857 29.2201 110.812 29.4149C110.721 29.7811 110.577 30.156 110.379 30.5394C110.181 30.9231 109.938 31.2865 109.649 31.6301C109.361 31.9734 109.035 32.2769 108.673 32.5401C108.31 32.8035 107.932 32.9923 107.535 33.1067C107.139 33.2329 106.811 33.247 106.551 33.1496C106.29 33.0527 106.084 32.8865 105.931 32.6518C105.778 32.4172 105.668 32.1338 105.6 31.8017C105.532 31.4697 105.492 31.1264 105.481 30.7712C106.126 30.8172 106.701 30.7 107.205 30.4192C107.708 30.139 108.135 29.7667 108.486 29.3031C108.837 28.8395 109.103 28.3186 109.284 27.7403C109.465 27.1624 109.567 26.587 109.59 26.0145C109.601 25.4763 109.522 25.0214 109.352 24.6493C109.182 24.2774 108.953 23.9879 108.664 23.782C108.376 23.5759 108.044 23.4557 107.671 23.4215C107.298 23.387 106.918 23.4387 106.533 23.5759C106.069 23.7363 105.676 23.9966 105.353 24.3574C105.031 24.718 104.762 25.136 104.547 25.611C104.332 26.0861 104.162 26.5983 104.038 27.1478C103.913 27.6974 103.823 28.2384 103.766 28.7708C103.715 29.2486 103.688 29.7055 103.678 30.1464C103.654 30.2024 103.631 30.2562 103.605 30.3161C103.429 30.7229 103.225 31.1207 102.994 31.5098C102.762 31.8991 102.504 32.2255 102.221 32.4886C101.938 32.7521 101.644 32.8435 101.338 32.7634C101.157 32.7178 101.058 32.5056 101.041 32.1281C101.024 31.7501 101.044 31.2808 101.1 30.7198C101.157 30.159 101.222 29.5519 101.296 28.8994C101.369 28.2469 101.406 27.6231 101.406 27.0277C101.406 26.5125 101.31 26.0175 101.117 25.5421C100.925 25.0674 100.662 24.6722 100.328 24.3574C99.9941 24.0424 99.6063 23.8334 99.1651 23.7306C98.7235 23.6273 98.2482 23.6962 97.739 23.9365C97.2294 24.177 96.8246 24.5147 96.5251 24.9498C96.2248 25.385 95.9503 25.8428 95.7013 26.3236C95.6107 25.9572 95.4779 25.6169 95.3022 25.3018C95.127 24.987 94.912 24.7123 94.6574 24.4774C94.4024 24.243 94.1163 24.0598 93.8 23.928C93.4831 23.7966 93.1488 23.7306 92.7978 23.7306C92.4586 23.7306 92.1445 23.7966 91.8559 23.928C91.5672 24.0598 91.3041 24.2284 91.0662 24.4345C90.8285 24.6408 90.6136 24.8724 90.4209 25.1301C90.2286 25.3877 90.0587 25.6426 89.9117 25.8942C89.8887 25.5966 89.8635 25.3363 89.8356 25.1127C89.8069 24.8896 89.7559 24.7007 89.6826 24.5463C89.6089 24.3916 89.5045 24.2744 89.3685 24.1942C89.2325 24.1143 89.0402 24.074 88.7912 24.074C88.6666 24.074 88.5419 24.0997 88.4176 24.1511C88.293 24.2027 88.1825 24.2744 88.0865 24.3659C87.9902 24.4578 87.9169 24.5691 87.8659 24.7007C87.8149 24.8323 87.8011 24.9842 87.8234 25.1558C87.8347 25.282 87.8659 25.4334 87.9169 25.611C87.9675 25.7885 88.0157 26.0206 88.061 26.3064C88.1064 26.5927 88.1432 26.9391 88.1715 27.3454C88.1998 27.7519 88.208 28.2499 88.197 28.8395C88.1853 29.4292 88.1432 30.1187 88.0695 30.9087C87.9959 31.6987 87.8797 32.6146 87.7214 33.6562C87.6988 33.8967 87.7894 34.0915 87.9934 34.2403C88.197 34.3888 88.429 34.4747 88.6893 34.4978C88.9495 34.5206 89.196 34.4747 89.428 34.3605C89.6599 34.2457 89.7931 34.0455 89.8267 33.7594C89.8607 33.2213 89.9259 32.649 90.0222 32.042C90.1182 31.4355 90.2371 30.8344 90.3788 30.239C90.5201 29.6438 90.6812 29.0772 90.8625 28.5388C91.0435 28.0007 91.2446 27.5258 91.4653 27.1136C91.6862 26.7014 91.9154 26.3724 92.153 26.1262C92.3906 25.88 92.6396 25.7569 92.9002 25.7569C93.2168 25.7569 93.4629 25.9027 93.6386 26.1946C93.8138 26.4868 93.9381 26.8619 94.0122 27.3194C94.0855 27.7776 94.1195 28.2787 94.1141 28.8223C94.1081 29.366 94.0855 29.8898 94.0462 30.3935C94.0065 30.8974 93.9612 31.3466 93.9102 31.7416C93.8592 32.1366 93.8223 32.4087 93.8 32.5573C93.8 32.8207 93.8988 33.0294 94.0968 33.1841C94.2947 33.3385 94.5154 33.4302 94.759 33.4588C95.0027 33.4875 95.2314 33.4416 95.4467 33.3213C95.6617 33.201 95.7863 32.9982 95.8203 32.7117C95.9333 31.8876 96.0891 31.0606 96.2871 30.2305C96.485 29.4005 96.7117 28.6565 96.9663 27.9981C97.2209 27.3397 97.5039 26.8016 97.8151 26.3837C98.1264 25.9661 98.4575 25.7569 98.8085 25.7569C98.9894 25.7569 99.1282 25.8831 99.2242 26.1347C99.3205 26.3865 99.3687 26.7299 99.3687 27.165C99.3687 27.4857 99.3432 27.8149 99.2926 28.1525C99.2412 28.4902 99.1821 28.8395 99.1141 29.2C99.0461 29.5608 98.9866 29.9299 98.9356 30.3077C98.885 30.6856 98.8595 31.0804 98.8595 31.4926C98.8595 31.7788 98.8878 32.1109 98.9445 32.4886C99.0008 32.8662 99.1081 33.2244 99.2667 33.5618C99.4254 33.8997 99.6432 34.1858 99.9208 34.4204C100.198 34.6551 100.551 34.7725 100.981 34.7725C101.627 34.7725 102.198 34.6322 102.696 34.3518C103.194 34.0714 103.622 33.7052 103.978 33.2529C103.997 33.2292 104.014 33.2039 104.032 33.1804C104.059 33.2472 104.083 33.3181 104.114 33.3816C104.357 33.8853 104.688 34.2744 105.107 34.5494C105.526 34.8241 106.019 34.9758 106.585 35.0045C107.15 35.0328 107.767 34.927 108.435 34.6867C108.933 34.5034 109.366 34.2744 109.734 33.9997C110.102 33.725 110.433 33.3902 110.727 32.9952C111.022 32.6002 111.29 32.1451 111.534 31.6301C111.777 31.1146 112.023 30.5253 112.272 29.861C112.317 29.6782 112.275 29.515 112.145 29.3717C112.015 29.2288 111.856 29.1286 111.669 29.071Z" fill="#23262D"/>
<path fill-rule="evenodd" clip-rule="evenodd" d="M120.897 27.156C120.84 27.4939 120.764 27.8662 120.668 28.2723C120.571 28.6788 120.45 29.0995 120.303 29.5346C120.156 29.9696 119.974 30.3618 119.759 30.7108C119.544 31.0603 119.298 31.3376 119.021 31.5437C118.743 31.7498 118.424 31.8356 118.062 31.8012C117.88 31.7786 117.742 31.6526 117.646 31.4234C117.549 31.1947 117.499 30.9026 117.493 30.5476C117.487 30.1929 117.518 29.8036 117.586 29.3799C117.654 28.9566 117.759 28.5414 117.901 28.1348C118.042 27.7287 118.214 27.3536 118.418 27.01C118.622 26.6667 118.857 26.4004 119.123 26.2116C119.389 26.0227 119.68 25.9342 119.997 25.9453C120.314 25.9569 120.654 26.117 121.016 26.4261C120.993 26.5752 120.954 26.8185 120.897 27.156ZM126.933 28.4697C126.757 28.3782 126.576 28.3584 126.389 28.4098C126.203 28.4612 126.07 28.6359 125.991 28.9335C125.945 29.2542 125.843 29.6318 125.685 30.0668C125.526 30.5019 125.331 30.9143 125.099 31.3032C124.867 31.6925 124.601 32.016 124.301 32.2735C124.001 32.5313 123.681 32.6487 123.342 32.6254C123.059 32.6027 122.86 32.4568 122.748 32.1877C122.634 31.9187 122.575 31.5812 122.569 31.1744C122.563 30.7683 122.603 30.3104 122.688 29.8008C122.773 29.2915 122.875 28.7849 122.994 28.2808C123.113 27.7773 123.234 27.2934 123.359 26.8298C123.483 26.3662 123.585 25.9741 123.665 25.6536C123.755 25.3673 123.727 25.1242 123.58 24.9236C123.432 24.7235 123.249 24.5802 123.028 24.4944C122.807 24.4085 122.583 24.3856 122.357 24.4257C122.131 24.4658 121.984 24.5889 121.916 24.7948C121.248 24.2109 120.605 23.8961 119.989 23.8504C119.372 23.8046 118.803 23.9421 118.282 24.2625C117.761 24.583 117.3 25.0466 116.899 25.6536C116.497 26.2606 116.171 26.9216 115.922 27.637C115.673 28.3525 115.518 29.0825 115.455 29.8265C115.393 30.5707 115.441 31.2492 115.6 31.8616C115.758 32.474 116.038 32.975 116.44 33.3639C116.842 33.7532 117.388 33.948 118.079 33.948C118.384 33.948 118.679 33.8851 118.962 33.7591C119.244 33.633 119.505 33.4842 119.742 33.3125C119.98 33.1408 120.189 32.9605 120.371 32.7716C120.552 32.5827 120.693 32.4254 120.795 32.2993C120.874 32.7114 121.005 33.0609 121.186 33.347C121.366 33.633 121.573 33.8681 121.805 34.0509C122.037 34.2339 122.281 34.3685 122.535 34.4545C122.79 34.5404 123.037 34.5833 123.274 34.5833C123.806 34.5833 124.304 34.4001 124.768 34.0336C125.232 33.6677 125.648 33.218 126.016 32.6857C126.384 32.1533 126.687 31.5925 126.924 31.0027C127.162 30.4132 127.32 29.8895 127.4 29.4313C127.479 29.2596 127.465 29.0795 127.357 28.8906C127.25 28.7017 127.108 28.5616 126.933 28.4697Z" fill="#23262D"/>
<path fill-rule="evenodd" clip-rule="evenodd" d="M157.494 37.9503C157.398 38.3393 157.248 38.6689 157.044 38.9378C156.841 39.2067 156.586 39.3469 156.28 39.3587C156.088 39.3699 155.941 39.2667 155.839 39.0496C155.737 38.8317 155.666 38.5514 155.627 38.2081C155.587 37.8644 155.57 37.4808 155.576 37.0574C155.581 36.6339 155.598 36.2158 155.627 35.8037C155.655 35.3918 155.689 35.0079 155.729 34.6532C155.768 34.2981 155.799 34.0238 155.822 33.829C156.207 33.8748 156.527 34.0434 156.781 34.3356C157.036 34.6275 157.231 34.9737 157.367 35.3745C157.503 35.7752 157.582 36.2076 157.605 36.6709C157.627 37.1347 157.59 37.561 157.494 37.9503ZM151.348 37.9503C151.252 38.3393 151.102 38.6689 150.898 38.9378C150.695 39.2067 150.44 39.3469 150.134 39.3587C149.942 39.3699 149.795 39.2667 149.693 39.0496C149.591 38.8317 149.52 38.5514 149.481 38.2081C149.441 37.8644 149.424 37.4808 149.43 37.0574C149.435 36.6339 149.452 36.2158 149.481 35.8037C149.509 35.3918 149.543 35.0079 149.582 34.6532C149.622 34.2981 149.653 34.0238 149.676 33.829C150.06 33.8748 150.381 34.0434 150.635 34.3356C150.89 34.6275 151.085 34.9737 151.221 35.3745C151.357 35.7752 151.436 36.2076 151.459 36.6709C151.481 37.1347 151.444 37.561 151.348 37.9503ZM145.041 28.1964C145.029 28.4709 145.004 28.7143 144.964 28.9261C144.924 29.1383 144.871 29.2725 144.803 29.3298C144.678 29.2609 144.525 29.0838 144.344 28.7973C144.163 28.5113 144.022 28.1875 143.92 27.8269C143.818 27.4664 143.787 27.1117 143.827 26.7623C143.866 26.4133 144.044 26.1416 144.361 25.9466C144.486 25.878 144.593 25.9037 144.684 26.0239C144.775 26.1442 144.848 26.3187 144.905 26.5477C144.961 26.7769 145.001 27.04 145.024 27.3376C145.046 27.6354 145.052 27.9215 145.041 28.1964ZM143.538 31.6223C143.362 31.811 143.167 31.9741 142.952 32.1116C142.737 32.2491 142.516 32.3521 142.29 32.4208C142.063 32.4896 141.86 32.5066 141.679 32.4722C141.17 32.3694 140.779 32.1458 140.507 31.8025C140.236 31.4591 140.063 31.0556 139.99 30.5921C139.916 30.1282 139.924 29.633 140.015 29.1065C140.106 28.5799 140.258 28.0906 140.473 27.6383C140.688 27.186 140.949 26.7967 141.254 26.4706C141.56 26.1442 141.894 25.9412 142.256 25.8607C142.12 26.4446 142.075 27.0487 142.12 27.6725C142.165 28.2964 142.313 28.8831 142.562 29.4326C142.72 29.7651 142.91 30.0681 143.13 30.3428C143.351 30.6178 143.62 30.8524 143.937 31.0469C143.847 31.2417 143.713 31.4334 143.538 31.6223ZM162.325 28.3681C162.359 28.105 162.409 27.8269 162.478 27.535C162.545 27.2433 162.63 26.9599 162.732 26.6851C162.834 26.4102 162.953 26.1727 163.089 25.9725C163.225 25.7723 163.369 25.6289 163.522 25.5431C163.675 25.4573 163.83 25.4658 163.988 25.5688C164.158 25.6721 164.263 25.8895 164.302 26.2213C164.342 26.5536 164.302 26.9082 164.184 27.2862C164.065 27.664 163.853 28.0189 163.547 28.3507C163.242 28.6831 162.828 28.9004 162.308 29.0034C162.285 28.8433 162.291 28.6315 162.325 28.3681ZM169.167 28.3681C169.201 28.105 169.252 27.8269 169.32 27.535C169.388 27.2433 169.473 26.9599 169.575 26.6851C169.676 26.4102 169.795 26.1727 169.931 25.9725C170.067 25.7723 170.211 25.6289 170.364 25.5431C170.517 25.4573 170.672 25.4658 170.831 25.5688C171.001 25.6721 171.105 25.8895 171.145 26.2213C171.185 26.5536 171.145 26.9082 171.026 27.2862C170.907 27.664 170.695 28.0189 170.39 28.3507C170.084 28.6831 169.671 28.9004 169.15 29.0034C169.127 28.8433 169.133 28.6315 169.167 28.3681ZM175.525 29.3727C175.395 29.2298 175.237 29.1295 175.05 29.072C174.863 29.0149 174.685 29.0093 174.515 29.055C174.345 29.1008 174.237 29.2211 174.192 29.4156C174.102 29.7821 173.958 30.157 173.76 30.5402C173.561 30.9241 173.318 31.2875 173.03 31.6308C172.741 31.9741 172.415 32.2779 172.054 32.541C171.691 32.8044 171.312 32.9933 170.916 33.1075C170.519 33.2338 170.191 33.248 169.931 33.1506C169.671 33.0534 169.464 32.8874 169.311 32.6528C169.159 32.418 169.048 32.1347 168.98 31.8025C168.912 31.4707 168.872 31.1273 168.861 30.7722C169.507 30.8182 170.081 30.701 170.585 30.4202C171.088 30.1398 171.516 29.7674 171.867 29.3038C172.218 28.8404 172.483 28.3195 172.664 27.7413C172.845 27.1631 172.947 26.588 172.97 26.0154C172.981 25.4773 172.902 25.0222 172.732 24.6501C172.563 24.2782 172.334 23.9889 172.045 23.783C171.756 23.5767 171.425 23.4566 171.051 23.4222C170.678 23.3878 170.299 23.4397 169.914 23.5767C169.45 23.7372 169.057 23.9976 168.734 24.3582C168.412 24.7189 168.143 25.137 167.928 25.6117C167.712 26.0871 167.543 26.5991 167.418 27.1487C167.293 27.6982 167.203 28.2394 167.147 28.7716C167.092 29.2881 167.062 29.7825 167.055 30.2557C167.012 30.35 166.967 30.4448 166.917 30.5402C166.719 30.9241 166.476 31.2875 166.187 31.6308C165.899 31.9741 165.573 32.2779 165.211 32.541C164.849 32.8044 164.47 32.9933 164.074 33.1075C163.677 33.2338 163.349 33.248 163.089 33.1506C162.828 33.0534 162.622 32.8874 162.469 32.6528C162.316 32.418 162.206 32.1347 162.138 31.8025C162.07 31.4707 162.03 31.1273 162.019 30.7722C162.664 30.8182 163.239 30.701 163.743 30.4202C164.246 30.1398 164.673 29.7674 165.024 29.3038C165.375 28.8404 165.641 28.3195 165.822 27.7413C166.003 27.1631 166.105 26.588 166.128 26.0154C166.139 25.4773 166.06 25.0222 165.89 24.6501C165.72 24.2782 165.491 23.9889 165.202 23.783C164.914 23.5767 164.583 23.4566 164.209 23.4222C163.836 23.3878 163.456 23.4397 163.072 23.5767C162.607 23.7372 162.214 23.9976 161.892 24.3582C161.569 24.7189 161.3 25.137 161.085 25.6117C160.87 26.0871 160.701 26.5991 160.576 27.1487C160.451 27.6982 160.361 28.2394 160.304 28.7716C160.272 29.0718 160.251 29.3629 160.235 29.6487C160.125 29.7428 160.019 29.8376 159.905 29.9306C159.515 30.2513 159.104 30.5402 158.674 30.7979C158.244 31.0556 157.797 31.2674 157.333 31.4334C156.869 31.5994 156.393 31.6997 155.907 31.7339L156.96 20.3312C157.028 20.0907 156.994 19.8791 156.858 19.6959C156.722 19.5127 156.546 19.3868 156.331 19.3181C156.116 19.2493 155.887 19.2552 155.644 19.3351C155.4 19.4155 155.2 19.5988 155.041 19.8846C154.962 20.3199 154.879 20.915 154.795 21.6706C154.71 22.4261 154.625 23.2505 154.54 24.1436C154.455 25.0366 154.37 25.9581 154.286 26.9082C154.201 27.8587 154.127 28.7459 154.065 29.5701C154.062 29.6067 154.06 29.6398 154.057 29.6759C153.958 29.7609 153.862 29.8465 153.759 29.9306C153.369 30.2513 152.958 30.5402 152.528 30.7979C152.098 31.0556 151.651 31.2674 151.187 31.4334C150.723 31.5994 150.247 31.6997 149.76 31.7339L150.813 20.3312C150.881 20.0907 150.847 19.8791 150.712 19.6959C150.576 19.5127 150.4 19.3868 150.185 19.3181C149.97 19.2493 149.741 19.2552 149.497 19.3351C149.254 19.4155 149.053 19.5988 148.895 19.8846C148.815 20.3199 148.734 20.915 148.649 21.6706C148.564 22.4261 148.479 23.2505 148.394 24.1436C148.309 25.0366 148.224 25.9581 148.139 26.9082C148.055 27.8587 147.981 28.7459 147.919 29.5701C147.917 29.5866 147.916 29.6016 147.915 29.6182C147.737 29.7016 147.543 29.7749 147.333 29.8363C147.118 29.8995 146.874 29.9367 146.603 29.9481C146.648 29.7417 146.685 29.5128 146.713 29.2609C146.741 29.0093 146.764 28.7459 146.781 28.4709C146.798 28.1964 146.803 27.9215 146.798 27.6468C146.792 27.3718 146.778 27.1202 146.756 26.891C146.699 26.3991 146.594 25.9324 146.442 25.4915C146.289 25.0509 146.082 24.6819 145.822 24.3839C145.561 24.0862 145.236 23.8858 144.845 23.783C144.455 23.6799 143.999 23.7142 143.479 23.8858C142.709 23.783 142.016 23.8547 141.399 24.1006C140.782 24.3471 140.247 24.7045 139.794 25.1738C139.342 25.6435 138.971 26.1956 138.682 26.8311C138.394 27.4664 138.201 28.1191 138.105 28.7886C138.064 29.0724 138.044 29.355 138.038 29.6369C137.863 29.9999 137.671 30.3171 137.46 30.5833C137.16 30.9611 136.849 31.2703 136.526 31.5106C136.203 31.7511 135.884 31.9343 135.567 32.0602C135.25 32.1863 134.967 32.2722 134.718 32.3177C134.424 32.375 134.141 32.3809 133.869 32.335C133.597 32.2894 133.348 32.1576 133.122 31.94C132.941 31.7798 132.802 31.5221 132.706 31.1672C132.61 30.8123 132.553 30.4091 132.536 29.9565C132.519 29.5043 132.536 29.0319 132.587 28.5398C132.638 28.0477 132.725 27.581 132.85 27.1403C132.975 26.6995 133.133 26.3045 133.326 25.9551C133.518 25.6063 133.744 25.357 134.005 25.2082C134.152 25.2313 134.243 25.3198 134.277 25.4743C134.311 25.6289 134.319 25.8122 134.302 26.0239C134.285 26.2359 134.26 26.4533 134.226 26.6764C134.192 26.8997 134.175 27.086 134.175 27.2346C134.231 27.5437 134.341 27.7843 134.506 27.9559C134.67 28.1276 134.854 28.228 135.057 28.2564C135.261 28.2851 135.462 28.2365 135.66 28.1104C135.858 27.9847 136.019 27.7843 136.144 27.5093C136.155 27.5208 136.172 27.5265 136.195 27.5265L136.433 25.3457C136.5 25.0479 136.455 24.7847 136.297 24.5558C136.138 24.3268 135.929 24.195 135.669 24.1608C135.34 23.6799 134.896 23.4253 134.336 23.3965C133.775 23.368 133.201 23.554 132.613 23.9547C132.25 24.2183 131.93 24.5815 131.653 25.0451C131.376 25.5089 131.15 26.0239 130.974 26.5906C130.798 27.1572 130.674 27.7557 130.601 28.3853C130.527 29.0149 130.513 29.6276 130.558 30.2226C130.603 30.8182 130.708 31.3792 130.872 31.9055C131.036 32.4323 131.265 32.8731 131.56 33.2278C131.809 33.5369 132.092 33.7632 132.409 33.9064C132.725 34.0495 133.057 34.138 133.402 34.1724C133.747 34.2066 134.09 34.1922 134.429 34.1295C134.769 34.0667 135.091 33.9781 135.397 33.8632C135.793 33.7147 136.201 33.5255 136.619 33.2966C137.038 33.0678 137.44 32.7929 137.825 32.4722C138.027 32.3036 138.222 32.1197 138.411 31.9225C138.496 32.1378 138.592 32.3461 138.708 32.541C139.013 33.0561 139.426 33.4741 139.947 33.7946C140.467 34.1151 141.107 34.2693 141.866 34.2582C142.681 34.2467 143.433 34.038 144.124 33.6314C144.814 33.2253 145.38 32.6267 145.822 31.8369C146.483 31.8369 147.134 31.7267 147.773 31.5077C147.768 31.577 147.762 31.65 147.757 31.7169C147.712 32.3236 147.689 32.7356 147.689 32.9532C147.678 33.331 147.653 33.7975 147.613 34.3526C147.573 34.9079 147.548 35.4918 147.537 36.104C147.526 36.7166 147.548 37.3349 147.605 37.9589C147.661 38.5826 147.78 39.1495 147.961 39.6593C148.142 40.1683 148.399 40.6007 148.733 40.9559C149.067 41.3103 149.506 41.5224 150.049 41.5911C150.627 41.6709 151.125 41.5681 151.544 41.2819C151.962 40.9954 152.302 40.6036 152.562 40.1057C152.823 39.6075 153.006 39.0323 153.114 38.3799C153.221 37.7271 153.253 37.0717 153.208 36.4132C153.162 35.7549 153.043 35.134 152.851 34.5504C152.658 33.9663 152.392 33.4855 152.053 33.1075C152.257 33.0506 152.5 32.9419 152.783 32.7814C153.066 32.6212 153.357 32.4408 153.657 32.2404C153.731 32.1912 153.804 32.1393 153.877 32.0887C153.85 32.4944 153.835 32.7837 153.835 32.9532C153.824 33.331 153.799 33.7975 153.759 34.3526C153.72 34.9079 153.694 35.4918 153.683 36.104C153.671 36.7166 153.694 37.3349 153.751 37.9589C153.807 38.5826 153.926 39.1495 154.107 39.6593C154.288 40.1683 154.546 40.6007 154.879 40.9559C155.213 41.3103 155.652 41.5224 156.196 41.5911C156.773 41.6709 157.27 41.5681 157.689 41.2819C158.108 40.9954 158.448 40.6036 158.708 40.1057C158.969 39.6075 159.152 39.0323 159.26 38.3799C159.368 37.7271 159.398 37.0717 159.353 36.4132C159.308 35.7549 159.189 35.134 158.997 34.5504C158.804 33.9663 158.539 33.4855 158.199 33.1075C158.403 33.0506 158.646 32.9419 158.929 32.7814C159.212 32.6212 159.503 32.4408 159.804 32.2404C159.959 32.1363 160.114 32.0289 160.269 31.9184C160.327 32.4783 160.452 32.9694 160.652 33.3824C160.896 33.8863 161.226 34.2754 161.645 34.5504C162.064 34.8249 162.557 34.9767 163.123 35.0053C163.689 35.0336 164.305 34.9279 164.973 34.6874C165.471 34.5044 165.904 34.2754 166.272 34.0007C166.64 33.7258 166.971 33.3909 167.265 32.9961C167.282 32.9733 167.298 32.9484 167.315 32.9254C167.367 33.0857 167.425 33.2397 167.495 33.3824C167.738 33.8863 168.069 34.2754 168.488 34.5504C168.906 34.8249 169.399 34.9767 169.965 35.0053C170.531 35.0336 171.148 34.9279 171.816 34.6874C172.314 34.5044 172.747 34.2754 173.115 34.0007C173.482 33.7258 173.813 33.3909 174.108 32.9961C174.402 32.601 174.671 32.1458 174.914 31.6308C175.157 31.1156 175.404 30.5262 175.653 29.862C175.698 29.679 175.655 29.5158 175.525 29.3727Z" fill="#23262D"/>
</svg>
