<svg width="176" height="55" viewBox="0 0 176 55" fill="none" xmlns="http://www.w3.org/2000/svg">
<rect x="1" y="1" width="174" height="53" rx="7" fill="white" stroke="#E2E7EB" stroke-width="2"/>
<g clip-path="url(#clip0_1_7250)">
<path d="M44.2238 16C44.9902 16.1403 45.7705 16.2314 46.5231 16.4208C51.7155 17.7252 55.6512 22.1995 56.3831 27.5995C57.3567 34.7808 52.7581 41.3449 45.7498 42.7686C45.2457 42.8738 44.7279 42.9299 44.2169 43.007C41.8693 43.007 39.5217 43.007 37.174 43.007C37.174 38.4836 37.174 33.9603 37.181 29.4439C37.181 29.1423 37.2086 28.8338 37.2569 28.5392C37.7126 25.5026 40.44 23.2094 43.4298 23.3286C46.5852 23.4618 49.1193 25.9374 49.3195 29.0932C49.6164 33.7779 44.9212 37.067 40.7162 35.1174C40.6264 35.0753 40.5367 35.0403 40.4055 34.9912C40.4055 36.4288 40.3986 37.8174 40.4193 39.206C40.4193 39.2901 40.5781 39.4164 40.6817 39.4444C42.0281 39.8371 43.4021 39.9143 44.7831 39.6899C50.6245 38.7361 54.3945 33.1047 53.131 27.2558C51.964 21.8418 46.6336 18.3003 41.3238 19.4013C36.5181 20.3831 33.1624 24.5488 33.1486 29.5421C33.1417 33.9112 33.1486 38.2803 33.1486 42.6494C33.1486 42.7686 33.1624 42.8808 33.1762 43C32.1198 43 31.0564 43 30 43C30 38.161 30 33.3221 30 28.4831C30.0414 28.2096 30.0898 27.9361 30.1243 27.6556C30.8562 22.2065 34.7712 17.7462 40.0257 16.4138C40.7714 16.2244 41.5379 16.1332 42.2905 16C42.9326 16 43.5817 16 44.2238 16Z" fill="#E6461A"/>
<path d="M146 35.0753C145.289 35.0753 144.578 35.0753 143.811 35.0753C143.811 34.5353 143.811 34.0024 143.811 33.4694C143.804 31.4005 143.811 29.3317 143.79 27.2629C143.77 25.6429 142.568 24.1842 141.008 23.8546C138.867 23.3987 136.692 25.159 136.685 27.3891C136.678 29.8086 136.692 32.2281 136.699 34.6475C136.699 34.7878 136.699 34.9211 136.699 35.0824C135.974 35.0824 135.291 35.0824 134.573 35.0824C134.573 30.8114 134.573 26.5405 134.573 22.2346C135.256 22.2346 135.947 22.2346 136.678 22.2346C136.678 22.445 136.678 22.6624 136.678 22.9429C137.369 22.3187 138.101 21.933 138.929 21.7226C142.188 20.8881 145.599 23.3216 145.931 26.7159C145.938 26.814 145.972 26.9192 145.993 27.0174C146 29.6964 146 32.3894 146 35.0753Z" fill="#222C31"/>
<path d="M63.2672 33.6378C63.2672 35.7697 63.2672 37.8947 63.2672 40.0477C62.5422 40.0477 61.8587 40.0477 61.1544 40.0477C61.1475 39.9565 61.1337 39.8653 61.1337 39.7742C61.1337 36.0432 61.1199 32.3193 61.1406 28.5884C61.1613 25.2152 63.4882 22.3679 66.7334 21.7017C70.6346 20.9022 74.4529 23.6864 74.9639 27.6978C75.4679 31.6531 72.7889 35.2017 68.8808 35.6786C66.8301 35.924 65.0625 35.2087 63.5434 33.8201C63.4744 33.757 63.4399 33.6448 63.3846 33.5536C63.3432 33.5817 63.3087 33.6097 63.2672 33.6378ZM68.0937 33.5606C70.7658 33.5536 72.8994 31.3656 72.8994 28.6445C72.8925 25.9305 70.7313 23.7355 68.0729 23.7495C65.4077 23.7635 63.2672 25.9516 63.2741 28.6726C63.2672 31.3796 65.4215 33.5677 68.0937 33.5606Z" fill="#222C31"/>
<path d="M107.865 31.5195C108.887 33.1044 111.048 33.8899 112.961 33.3709C114.128 33.0553 115.06 32.3751 115.73 31.3582C116.399 30.3413 116.648 29.2052 116.503 27.9639C117.228 27.9639 117.925 27.9639 118.616 27.9639C118.996 30.6779 117.401 34.2195 113.824 35.3766C110.441 36.4706 106.788 34.7875 105.359 31.4844C103.922 28.1673 105.186 24.2751 108.3 22.4727C111.525 20.6073 115.136 21.8275 116.821 23.8683C113.838 26.414 110.862 28.9597 107.865 31.5195ZM106.967 29.4506C109.115 27.6203 111.2 25.839 113.306 24.0366C111.697 23.3564 109.646 23.8122 108.341 25.1377C107.195 26.3088 106.76 27.7325 106.967 29.4506Z" fill="#222C31"/>
<path d="M89.6572 35.0825C88.9322 35.0825 88.2417 35.0825 87.5236 35.0825C87.5236 34.6476 87.5236 34.2339 87.5236 33.757C87.4131 33.8482 87.351 33.8973 87.2957 33.9464C83.3393 37.4248 77.2424 35.4892 75.9581 30.3487C74.7774 25.6079 78.6165 21.0986 83.4015 21.5895C86.9229 21.9541 89.6157 24.9347 89.6503 28.5253C89.671 30.6292 89.6572 32.7331 89.6572 34.837C89.6572 34.9071 89.6572 34.9773 89.6572 35.0825ZM77.8845 28.6235C77.8776 31.3165 80.025 33.5256 82.6626 33.5396C85.3279 33.5466 87.5167 31.3796 87.5236 28.7147C87.5305 25.9305 85.4038 23.7284 82.7179 23.7284C80.0526 23.7144 77.8915 25.9095 77.8845 28.6235Z" fill="#222C31"/>
<path d="M119.438 28.6238C119.444 24.7246 122.565 21.5547 126.391 21.5547C130.23 21.5547 133.364 24.7596 133.344 28.6588C133.323 32.5651 130.209 35.7139 126.37 35.7069C122.545 35.6999 119.431 32.523 119.438 28.6238ZM126.384 33.5329C129.049 33.5329 131.217 31.3448 131.217 28.6378C131.224 25.9378 129.056 23.7217 126.404 23.7147C123.746 23.7077 121.571 25.9098 121.564 28.6098C121.564 31.3238 123.725 33.5329 126.384 33.5329Z" fill="#222C31"/>
<path d="M90.3337 22.1927C90.7549 22.1927 91.1278 22.1927 91.5559 22.1927C91.5559 20.5307 91.5559 18.8896 91.5559 17.2275C92.2878 17.2275 92.9714 17.2275 93.6964 17.2275C93.6964 18.8756 93.6964 20.5166 93.6964 22.1927C94.7804 22.1927 95.823 22.1927 96.8864 22.1927C96.8864 22.9221 96.8864 23.6164 96.8864 24.3597C95.8368 24.3597 94.7873 24.3597 93.7033 24.3597C93.7033 27.9574 93.7033 31.506 93.7033 35.0756C92.9852 35.0756 92.3016 35.0756 91.5766 35.0756C91.5766 34.9213 91.5766 34.7881 91.5766 34.6548C91.5766 31.3587 91.5697 28.0626 91.5835 24.7665C91.5835 24.4509 91.5075 24.3247 91.183 24.3597C90.9137 24.3878 90.6376 24.3668 90.3406 24.3668C90.3337 23.6374 90.3337 22.9431 90.3337 22.1927Z" fill="#222C31"/>
<path d="M100.118 24.0715C101.133 23.1458 102.293 22.5076 103.632 22.2692C104.102 22.185 104.585 22.178 105.096 22.1289C105.096 22.8442 105.096 23.4824 105.096 24.1206C105.096 24.366 104.917 24.324 104.779 24.324C103.715 24.338 102.762 24.6816 101.941 25.3479C100.746 26.3086 100.097 27.571 100.076 29.1279C100.056 30.9723 100.07 32.8237 100.07 34.6681C100.07 34.7944 100.07 34.9206 100.07 35.0749C99.3584 35.0749 98.6748 35.0749 97.9636 35.0749C97.9636 30.7899 97.9636 26.512 97.9636 22.2201C98.6334 22.2201 99.3101 22.2201 100.028 22.2201C100.028 22.8232 100.028 23.4263 100.028 24.0294C100.063 24.0435 100.09 24.0575 100.118 24.0715Z" fill="#222C31"/>
</g>
<defs>
<clipPath id="clip0_1_7250">
<rect width="116" height="27" fill="white" transform="translate(30 16)"/>
</clipPath>
</defs>
</svg>
