<svg width="142" height="55" viewBox="0 0 142 55" fill="none" xmlns="http://www.w3.org/2000/svg">
<rect x="1" y="1" width="140" height="53" rx="7" fill="white" stroke="#E2E7EB" stroke-width="2"/>
<path d="M75.1832 24.2443H72.1124C71.8188 24.2443 71.544 24.3901 71.3795 24.6341L67.1432 30.8844L65.3483 24.878C65.2356 24.5022 64.8901 24.2443 64.4986 24.2443H61.4805C61.1161 24.2443 60.8594 24.6036 60.9771 24.9489L64.3579 34.8931L61.1778 39.3889C60.9285 39.7416 61.1804 40.2295 61.6121 40.2295H64.6795C64.9699 40.2295 65.2422 40.0869 65.4084 39.8479L75.62 25.0808C75.8643 24.7272 75.6125 24.2443 75.1832 24.2443ZM54.6541 30.202C54.3588 31.9508 52.9735 33.1252 51.2058 33.1252C50.3199 33.1252 49.61 32.8393 49.1543 32.2986C48.7027 31.7629 48.5324 30.9989 48.6755 30.1492C48.9503 28.4152 50.3585 27.2037 52.0991 27.2037C52.967 27.2037 53.6711 27.4922 54.1359 28.0377C54.6039 28.5875 54.7882 29.3556 54.6541 30.202ZM58.9118 24.2442H55.8567C55.5951 24.2442 55.3722 24.4346 55.3311 24.6942L55.197 25.5496L54.9839 25.2398C54.3218 24.278 52.8469 23.9557 51.3744 23.9557C47.9994 23.9557 45.1162 26.5188 44.5552 30.113C44.2632 31.9063 44.6777 33.6197 45.6928 34.8156C46.6248 35.9142 47.9549 36.3716 49.5401 36.3716C52.2612 36.3716 53.7698 34.6211 53.7698 34.6211L53.6333 35.4716C53.5823 35.7947 53.8315 36.0872 54.1589 36.0872H56.9096C57.3464 36.0872 57.7174 35.7699 57.7857 35.3381L59.4374 24.8598C59.4884 24.5367 59.2384 24.2442 58.9118 24.2442ZM40.5785 24.3177C40.2298 26.6121 38.4809 26.6121 36.7889 26.6121H35.8264L36.5018 22.3282C36.5421 22.0694 36.765 21.879 37.0266 21.879H37.4683C38.62 21.879 39.7074 21.879 40.2684 22.5359C40.604 22.929 40.7052 23.5125 40.5785 24.3177ZM39.8423 18.3311H33.4623C33.0255 18.3311 32.6546 18.6492 32.5863 19.081L30.0066 35.4718C29.9556 35.7948 30.2049 36.0874 30.5315 36.0874H33.5783C34.0143 36.0874 34.3853 35.7693 34.4536 35.3382L35.1503 30.9158C35.2177 30.484 35.5895 30.1659 36.0255 30.1659H38.0441C42.2467 30.1659 44.6726 28.1286 45.306 24.0894C45.5914 22.3241 45.3175 20.9362 44.4924 19.9645C43.5851 18.8964 41.9769 18.3311 39.8423 18.3311Z" fill="#002F86"/>
<path d="M108.017 18.7805L105.398 35.4712C105.347 35.7943 105.597 36.0869 105.923 36.0869H108.557C108.993 36.0869 109.365 35.7687 109.432 35.3369L112.014 18.9461C112.065 18.6231 111.816 18.3305 111.489 18.3305H108.542C108.28 18.3305 108.057 18.5209 108.017 18.7805ZM100.158 30.201C99.8628 31.9499 98.4775 33.1243 96.7098 33.1243C95.8239 33.1243 95.114 32.8383 94.6583 32.2977C94.2058 31.762 94.0364 30.998 94.1795 30.1483C94.4543 28.4142 95.8625 27.2027 97.6031 27.2027C98.471 27.2027 99.1751 27.4912 99.6399 28.0368C100.108 28.5865 100.292 29.3546 100.158 30.201ZM104.416 24.2432H101.361C101.099 24.2432 100.876 24.4336 100.835 24.6932L100.701 25.5487L100.487 25.2388C99.8258 24.277 98.3509 23.9548 96.8784 23.9548C93.5033 23.9548 90.6202 26.5179 90.0592 30.112C89.7671 31.9054 90.1817 33.6188 91.1968 34.8146C92.1288 35.9132 93.4589 36.3706 95.0441 36.3706C97.7652 36.3706 99.2738 34.6201 99.2738 34.6201L99.1372 35.4706C99.0862 35.7937 99.3355 36.0863 99.6629 36.0863H102.414C102.85 36.0863 103.221 35.769 103.29 35.3371L104.941 24.8589C104.992 24.5358 104.742 24.2432 104.416 24.2432ZM86.0824 24.3167C85.7337 26.6112 83.9848 26.6112 82.2928 26.6112H81.3303L82.0057 22.3272C82.046 22.0684 82.2689 21.8781 82.5305 21.8781H82.9722C84.1239 21.8781 85.2113 21.8781 85.7723 22.5349C86.1079 22.928 86.2091 23.5115 86.0824 24.3167ZM85.3462 18.3301H78.9662C78.5294 18.3301 78.1584 18.6482 78.0902 19.0801L75.5105 35.4708C75.4595 35.7939 75.7096 36.0864 76.0353 36.0864H79.3092C79.6144 36.0864 79.8744 35.8639 79.9221 35.5623L80.6542 30.9149C80.7216 30.483 81.0934 30.1649 81.5294 30.1649H83.548C87.7507 30.1649 90.1765 28.1276 90.8099 24.0884C91.0953 22.3231 90.8214 20.9352 89.9963 19.9635C89.089 18.8954 87.4808 18.3301 85.3462 18.3301Z" fill="#009CDE"/>
</svg>
