<svg width="162" height="55" viewBox="0 0 162 55" fill="none" xmlns="http://www.w3.org/2000/svg">
<rect x="1" y="1" width="160" height="53" rx="7" fill="white" stroke="#E2E7EB" stroke-width="2"/>
<path d="M45.6915 12.1016C54.3014 12.1016 61.2832 19.2206 61.2832 27.9997C61.2832 36.7788 54.3014 43.8979 45.6915 43.8979C37.0816 43.8979 30.0999 36.7788 30.0999 27.9997C30.0999 19.2206 37.0816 12.1016 45.6915 12.1016Z" fill="url(#paint0_linear_1_7233)"/>
<path d="M45.6915 12C37.0317 12 30 19.1598 30 28C30 36.8402 37.0217 44 45.6915 44C54.3613 44 61.3831 36.8402 61.3831 28C61.3831 19.1598 54.3613 12 45.6915 12ZM45.6915 42.2381C37.9806 42.2381 31.728 35.8625 31.728 28C31.728 20.1375 37.9806 13.7619 45.6915 13.7619C53.4025 13.7619 59.6551 20.1375 59.6551 28C59.6551 35.8625 53.4025 42.2381 45.6915 42.2381Z" fill="#8DC641"/>
<path d="M51.1751 24.3644L47.6792 29.6502H51.1751V24.3644ZM52.4935 22.2256V29.6603H54.0317V31.0047H52.4935V33.7851H51.1651V31.0047H46.2209V29.5585L51.205 22.2358L52.4935 22.2256ZM44.7626 32.4306V33.7749H37.3513V33.7342C37.4212 32.4713 37.7409 31.5445 38.3601 30.7806C38.8595 30.1492 39.4688 29.6807 40.7174 28.8863C40.7174 28.8863 41.1568 28.6011 41.2867 28.5197C41.9559 28.0817 42.3854 27.7355 42.735 27.3383C43.1645 26.829 43.3842 26.2791 43.3842 25.6272C43.3842 24.3644 42.5053 23.4987 41.2467 23.4987C39.7785 23.4987 39.0293 24.6393 38.9894 26.3402V26.3707H37.6709V26.3402L37.661 26.0346C37.661 23.7533 39.1192 22.2256 41.3167 22.2256C43.4641 22.2256 44.8625 23.5496 44.8625 25.5967C44.8625 26.6457 44.4929 27.491 43.7838 28.2345C43.2544 28.8048 42.705 29.1817 41.4765 29.9455C41.4565 29.9557 41.4465 29.9659 41.4265 29.9761C41.3666 30.0066 41.0969 30.1696 41.027 30.2205C40.4377 30.577 40.0781 30.8316 39.7585 31.1371C39.3689 31.5139 39.1093 31.9315 38.9894 32.4204H44.7626V32.4306Z" fill="white"/>
<path d="M69.4937 21.5527H74.7175C76.016 21.5527 77.0348 21.8685 77.7839 22.4897C78.533 23.1212 78.9126 24.048 78.9126 25.2905C78.9126 26.4617 78.563 27.3885 77.8638 28.0709C77.1646 28.7532 76.2157 29.0995 75.0072 29.0995H71.6112V33.8252H69.4937V21.5527ZM71.6112 23.3554V27.3783H74.5577C76.0959 27.3783 76.855 26.7061 76.855 25.3618C76.855 24.0276 76.026 23.3656 74.3679 23.3656L71.6112 23.3554Z" fill="black"/>
<path d="M85.1851 24.7614V26.6456C84.8454 26.615 84.6257 26.5947 84.5059 26.5947C82.8278 26.5947 81.9888 27.7048 81.9888 29.925V33.8359H80.0811V24.9346H81.8889V26.7067C82.5082 25.3827 83.487 24.7207 84.8155 24.7207L85.1851 24.7614Z" fill="black"/>
<path d="M88.3313 21.502V23.437H86.4036V21.502H88.3313ZM88.3313 24.9342V33.8355H86.4036V24.9342H88.3313Z" fill="black"/>
<path d="M89.6997 24.9346H91.7972L94.0346 31.7786L96.1821 24.9346H98.1797L95.0534 33.8563H92.886L89.6997 24.9346Z" fill="black"/>
<path d="M98.839 27.6846C99.0388 25.668 100.317 24.6699 102.665 24.6699C103.753 24.6699 104.632 24.8838 105.281 25.3217C105.931 25.7597 106.25 26.442 106.25 27.3587V31.8704C106.25 32.125 106.28 32.2982 106.34 32.3898C106.4 32.4815 106.52 32.5324 106.7 32.5324C106.84 32.5324 106.979 32.5222 107.139 32.5019V33.887C106.64 34.0092 106.23 34.0805 105.891 34.0805C105.072 34.0805 104.592 33.724 104.472 33.0111C103.743 33.724 102.714 34.0805 101.406 34.0805C100.507 34.0805 99.7879 33.8462 99.2585 33.3676C98.7292 32.8889 98.4595 32.2473 98.4595 31.4223C98.4595 31.1677 98.4894 30.9334 98.5394 30.7196C98.5993 30.5057 98.6592 30.3122 98.7391 30.1492C98.8091 29.9863 98.9289 29.8437 99.0987 29.7011C99.2585 29.5585 99.3984 29.4465 99.5082 29.3548C99.6181 29.2632 99.7879 29.1817 100.038 29.1002C100.277 29.0187 100.457 28.9576 100.577 28.9169C100.697 28.8762 100.897 28.8354 101.196 28.7845C101.486 28.7438 101.686 28.703 101.776 28.6928C101.875 28.6725 102.075 28.6521 102.375 28.6114C103.064 28.5197 103.534 28.4382 103.783 28.3771C104.033 28.316 104.203 28.2142 104.293 28.0919C104.373 28.0003 104.412 27.7864 104.412 27.4503C104.412 26.5541 103.813 26.1059 102.615 26.1059C101.985 26.1059 101.526 26.2282 101.226 26.4726C100.937 26.717 100.747 27.1244 100.667 27.6947H98.839V27.6846ZM104.383 29.3752C104.233 29.4567 104.063 29.528 103.873 29.5891C103.683 29.6502 103.524 29.6909 103.404 29.7113C103.284 29.7317 103.104 29.752 102.844 29.7928C102.595 29.8233 102.425 29.8539 102.345 29.8641C102.105 29.8946 101.925 29.9354 101.786 29.9557C101.646 29.9863 101.486 30.0372 101.286 30.0983C101.086 30.1696 100.937 30.2511 100.827 30.3529C100.717 30.4548 100.627 30.5872 100.547 30.7501C100.467 30.9131 100.427 31.1168 100.427 31.3408C100.427 31.7686 100.567 32.0945 100.837 32.3186C101.116 32.5528 101.496 32.6648 101.995 32.6648C102.854 32.6648 103.514 32.4306 103.973 31.9621C104.233 31.6973 104.363 31.1881 104.363 30.4242V29.3752H104.383Z" fill="black"/>
<path d="M112.673 24.9344V26.3704H110.915V31.0554C110.915 31.3303 110.925 31.5238 110.935 31.6359C110.945 31.7479 110.975 31.8701 111.035 32.0025C111.095 32.1349 111.194 32.2266 111.334 32.2673C111.474 32.3182 111.674 32.3386 111.914 32.3386C112.233 32.3386 112.483 32.3284 112.673 32.3081V33.8561C112.293 33.8969 111.854 33.9274 111.374 33.9274C111.035 33.9274 110.735 33.8969 110.485 33.8459C110.236 33.795 110.016 33.7339 109.846 33.6626C109.676 33.5913 109.536 33.4793 109.427 33.3061C109.317 33.1432 109.227 33.0006 109.167 32.8886C109.107 32.7765 109.057 32.583 109.027 32.3081C108.997 32.0331 108.987 31.8192 108.987 31.6766C108.987 31.534 108.987 31.2794 108.987 30.923C108.987 30.8822 108.987 30.8415 108.987 30.8109C108.987 30.7804 108.987 30.7498 108.987 30.7091C108.987 30.6683 108.987 30.6276 108.987 30.597V26.3704H107.529V24.9344H108.987V22.2559H110.915V24.9344H112.673Z" fill="black"/>
<path d="M122.811 32.0943V33.8359H114.73C114.74 33.2961 114.81 32.7971 114.95 32.349C115.09 31.9008 115.24 31.5138 115.419 31.1981C115.589 30.8824 115.849 30.5565 116.198 30.2306C116.538 29.9047 116.848 29.6297 117.127 29.4158C117.407 29.2019 117.787 28.9269 118.266 28.601C118.296 28.5807 118.466 28.4686 118.765 28.2649C119.065 28.0612 119.245 27.939 119.315 27.8881C119.385 27.8372 119.535 27.715 119.774 27.5215C120.014 27.328 120.164 27.1752 120.244 27.0632C120.314 26.9511 120.414 26.7882 120.543 26.5947C120.673 26.4012 120.763 26.1975 120.803 26.004C120.843 25.8003 120.873 25.5864 120.873 25.3623C120.873 24.7309 120.703 24.2318 120.354 23.8754C120.014 23.5087 119.545 23.3356 118.955 23.3356C118.616 23.3356 118.326 23.3865 118.076 23.4985C117.827 23.6106 117.637 23.7532 117.497 23.9161C117.357 24.0893 117.237 24.3133 117.147 24.5781C117.057 24.8531 116.998 25.1077 116.968 25.342C116.938 25.5864 116.918 25.8614 116.908 26.1873H115.03V25.8817C115.03 24.5781 115.389 23.5495 116.109 22.7856C116.828 22.0218 117.797 21.6348 119.005 21.6348C120.154 21.6348 121.083 21.9607 121.782 22.6227C122.481 23.2847 122.831 24.1605 122.831 25.2503C122.831 25.6882 122.761 26.1058 122.631 26.4928C122.491 26.8798 122.351 27.1956 122.201 27.44C122.052 27.6844 121.782 27.9594 121.412 28.2853C121.043 28.6112 120.763 28.8353 120.583 28.9575C120.404 29.0797 120.074 29.314 119.585 29.65C118.176 30.5768 117.327 31.3916 117.047 32.0842H122.811V32.0943Z" fill="black"/>
<path d="M132 29.3137V30.9738H130.492V33.8356H128.634L128.614 30.9738H123.59V29.0285L128.664 21.665H130.492V29.3239L132 29.3137ZM128.644 29.3137V24.089L125.178 29.3137H128.644Z" fill="black"/>
<defs>
<linearGradient id="paint0_linear_1_7233" x1="30.0999" y1="27.9997" x2="61.2832" y2="27.9997" gradientUnits="userSpaceOnUse">
<stop stop-color="#333333"/>
<stop offset="1"/>
</linearGradient>
</defs>
</svg>
