<svg width="167" height="55" viewBox="0 0 167 55" fill="none" xmlns="http://www.w3.org/2000/svg">
<rect x="1" y="1" width="165" height="53" rx="7" fill="white" stroke="#E2E7EB" stroke-width="2"/>
<path fill-rule="evenodd" clip-rule="evenodd" d="M46.3456 34.7172V26.4934C46.3456 24.1605 45.154 23.053 43.153 23.053C41.4891 23.053 40.0503 24.0898 39.4207 25.1266C39.0159 23.8306 38.0042 23.053 36.4079 23.053C34.744 23.053 33.3052 24.1369 32.8554 24.8202V23.3358H30V34.7172H32.8554V27.059C33.2827 26.4227 34.1145 25.7158 35.1038 25.7158C36.2729 25.7158 36.7226 26.4698 36.7226 27.5302V34.7172H39.6005V27.0354C40.0053 26.4227 40.8371 25.7158 41.8488 25.7158C43.018 25.7158 43.4677 26.4698 43.4677 27.5302L43.4678 34.7172H46.3456ZM54.1925 35C50.6176 35 48.4591 32.2665 48.4591 29.0147C48.4591 25.7864 50.6175 23.0531 54.1925 23.0531C57.7898 23.0531 59.9483 25.7866 59.9483 29.0147C59.9483 32.2665 57.79 35 54.1925 35ZM54.1925 32.3373C55.9686 32.3373 56.9805 30.8056 56.9805 29.0147C56.9805 27.2475 55.9688 25.7158 54.1925 25.7158C52.4162 25.7158 51.427 27.2475 51.427 29.0147C51.427 30.8056 52.4163 32.3373 54.1925 32.3373ZM72.2469 34.7172V26.6819C72.2469 24.4668 71.1003 23.053 68.717 23.053C66.9408 23.053 65.6143 23.9484 64.9173 24.8202V23.3358H62.0617V34.7172H64.9173V27.059C65.3894 26.3756 66.2663 25.7158 67.3905 25.7158C68.6046 25.7158 69.3915 26.2578 69.3915 27.8366V34.7172H72.2469ZM80.1162 35C76.5413 35 74.3828 32.2665 74.3828 29.0147C74.3828 25.7864 76.5412 23.0531 80.1162 23.0531C83.7136 23.0531 85.8721 25.7866 85.8721 29.0147C85.8721 32.2665 83.7137 35 80.1162 35ZM80.1162 32.3373C81.8924 32.3373 82.9042 30.8056 82.9042 29.0147C82.9042 27.2475 81.8925 25.7158 80.1162 25.7158C78.3399 25.7158 77.3507 27.2475 77.3507 29.0147C77.3507 30.8056 78.34 32.3373 80.1162 32.3373ZM90.8409 31.0648C91.313 31.7953 92.3698 32.3372 93.2916 32.3372C94.9554 32.3372 96.0571 31.0176 96.0571 29.0382C96.0571 27.0589 94.9554 25.7157 93.2916 25.7157C92.3698 25.7157 91.313 26.2811 90.8409 27.0353V31.0648ZM90.8409 34.7172H87.9855V19H90.8409V24.7967C91.6953 23.6422 92.9093 23.053 94.191 23.053C96.9565 23.053 99.0025 25.3151 99.0025 29.0382C99.0025 32.832 96.9341 34.9999 94.191 34.9999C92.887 34.9999 91.6953 34.3872 90.8409 33.2561V34.7172ZM110.537 34.7172H107.681V33.5391C106.939 34.4581 105.658 35 104.241 35C102.51 35 100.464 33.7746 100.464 31.2298C100.464 28.5671 102.51 27.5538 104.241 27.5538C105.68 27.5538 106.962 28.0487 107.681 28.9441V27.4124C107.681 26.2578 106.737 25.5037 105.298 25.5037C104.129 25.5037 103.05 25.9515 102.128 26.8469L101.049 24.8439C102.375 23.6186 104.084 23.0531 105.793 23.0531C108.266 23.0531 110.537 24.09 110.537 27.3653L110.537 34.7172ZM105.388 32.9735C106.31 32.9735 107.209 32.6435 107.681 31.9838V30.5699C107.209 29.9102 106.31 29.5802 105.388 29.5802C104.264 29.5802 103.342 30.1929 103.342 31.3004C103.342 32.3608 104.264 32.9735 105.388 32.9735ZM123.555 34.7172V26.6819C123.555 24.4668 122.408 23.053 120.025 23.053C118.249 23.053 116.922 23.9484 116.225 24.8202V23.3358H113.37V34.7172H116.225V27.059C116.697 26.3756 117.574 25.7158 118.698 25.7158C119.912 25.7158 120.699 26.2578 120.699 27.8366V34.7172H123.555ZM137 34.7172L132.571 28.4963L136.865 23.3358H133.358L129.243 28.4021V19H126.388V34.7172H129.243V31.7953L130.547 30.3344L133.425 34.7172H137Z" fill="black"/>
</svg>
