<svg width="98" height="99" viewBox="0 0 98 99" fill="none" xmlns="http://www.w3.org/2000/svg">
<path d="M77.5814 57.037C73.3453 51.8402 68.7448 52.9343 57.1295 50.4726C47.1541 48.3301 36.7231 48.558 26.8843 51.202C17.091 53.846 11.124 55.5327 7.11557 60.1825L1.92285 62.9632L2.05952 73.8583L2.10506 74.1318C2.37836 81.4712 8.43649 88.2635 20.4162 93.0501C32.3047 97.791 45.5142 98.4292 57.9494 95.2838C75.4861 90.8619 84.1862 81.9271 84.3684 72.9922V62.0971L77.5814 57.037Z" fill="#1C1C1C"/>
<path d="M42.4623 98.6114C34.6277 98.6114 26.9298 97.1982 19.8695 94.3263C7.79875 89.4942 1.0118 82.3372 0.692953 74.1317L0.647387 73.9949L0.510742 62.0969L6.25003 59.0427C10.6684 54.0738 17.3187 52.2959 26.5653 49.8343C36.5408 47.1447 47.1995 46.9168 57.4938 49.0593C60.7279 49.7431 63.3698 50.1534 65.7384 50.5181C71.6599 51.4298 75.3039 51.9768 78.629 55.9884L85.826 61.3676V73.1288C85.5982 83.568 75.3494 92.3661 58.3137 96.6512C53.0299 97.9732 47.7006 98.6114 42.4623 98.6114ZM3.33485 63.8292L3.47149 73.9493C3.74479 81.1063 9.93962 87.3972 20.9172 91.7735C32.2136 96.2865 45.2409 97.0615 57.5849 93.9616C73.072 90.0412 82.7741 82.0181 82.9563 72.992V62.8263L76.4882 57.9486C73.8008 54.6208 70.9311 54.2105 65.2373 53.3444C62.8687 52.9797 60.1813 52.5695 56.8561 51.8857C47.0173 49.7887 36.8141 50.0622 27.2486 52.615C17.2276 55.3046 11.8527 56.9001 8.16317 61.1396L7.75321 61.4588L3.33485 63.8292Z" fill="#1C1C1C"/>
<path d="M72.0701 45.4126C88.2404 54.5298 88.4226 69.6188 72.4345 79.0551C56.4465 88.537 30.3463 88.7649 14.176 79.6477C-1.99421 70.5305 -2.17644 55.4415 13.8116 45.9596C29.7997 36.5689 55.8543 36.2953 72.0701 45.4126Z" fill="white"/>
<path d="M42.5994 87.7164C32.0317 87.7164 21.5097 85.437 13.4473 80.8784C5.15723 76.1831 0.55667 69.8466 0.51112 62.9631C0.420019 56.0796 4.92946 49.6064 13.0829 44.7742C29.4354 35.11 56.2188 34.8365 72.7534 44.1816C81.0436 48.877 85.6441 55.2135 85.6897 62.097C85.7808 68.9805 81.2713 75.4537 73.1179 80.2858C64.7367 85.2547 53.668 87.7164 42.5994 87.7164ZM43.6014 40.1244C33.0794 40.1244 22.5118 42.4949 14.5405 47.2359C7.25254 51.5666 3.28968 57.1281 3.33523 62.9631C3.38078 68.7981 7.48027 74.314 14.8594 78.4624C30.6197 87.3517 56.1277 87.0782 71.7058 77.8698C78.9938 73.5391 82.9567 67.9776 82.9111 62.1426C82.8656 56.3075 78.7661 50.7916 71.3869 46.6433C63.6434 42.3126 53.6224 40.1244 43.6014 40.1244Z" fill="#1C1C1C"/>
<path d="M63.3246 52.068C52.0282 46.5065 33.8082 46.6889 22.6484 52.4783C11.4887 58.2678 11.5798 67.4761 22.8762 72.9921C34.1726 78.5536 52.3926 78.3712 63.5524 72.5818C74.7121 66.8379 74.621 57.6295 63.3246 52.068Z" fill="#1C1C1C"/>
<path d="M42.6441 78.4627C35.265 78.4627 27.8858 77.0951 22.2376 74.3144C16.2706 71.3968 12.9454 67.3397 12.8999 62.8723C12.8543 58.4504 16.0884 54.3021 21.9644 51.2478C33.4885 45.276 52.3007 45.0937 63.9159 50.8375C69.883 53.755 73.2081 57.8122 73.2537 62.2796C73.2992 66.7015 70.0652 70.8498 64.1893 73.9041C58.2678 76.9128 50.4331 78.4627 42.6441 78.4627ZM43.5551 49.4244C36.2215 49.4244 28.888 50.8831 23.3309 53.755C18.4115 56.3079 15.724 59.5445 15.7696 62.8267C15.8151 66.1545 18.5481 69.2999 23.5131 71.7615C34.4451 77.1407 52.1185 76.9584 62.9138 71.3513C67.8332 68.7984 70.5207 65.5618 70.4751 62.2796C70.4296 58.9519 67.6966 55.8064 62.7316 53.3447C57.4023 50.7008 50.4787 49.4244 43.5551 49.4244Z" fill="#1C1C1C"/>
<path d="M63.4151 58.2223C52.1187 52.6608 33.8987 52.8432 22.739 58.6326C18.685 60.7296 16.1798 63.2368 15.041 65.9264C16.1798 68.5704 18.7761 71.032 22.8756 73.0378C34.172 78.5993 52.392 78.417 63.5518 72.6276C67.6057 70.5306 70.111 67.9778 71.2498 65.3338C70.0655 62.6898 67.4691 60.2281 63.4151 58.2223Z" fill="#FFCA41"/>
<path d="M42.6446 78.4622C35.2655 78.4622 27.8863 77.0946 22.2381 74.3139C18.002 72.2169 15.0868 69.5273 13.7658 66.5186L13.5381 65.9716L13.7658 65.4246C15.0412 62.3703 17.9109 59.5895 22.1015 57.447C33.6257 51.4752 52.4378 51.2929 64.0531 57.0367C68.2892 59.1337 71.2044 61.8233 72.5254 64.832L72.7531 65.379L72.5254 65.926C71.25 68.9803 68.3803 71.7611 64.1897 73.9036C58.2682 76.9123 50.4336 78.4622 42.6446 78.4622ZM16.59 65.8804C17.7743 68.0686 20.1429 70.12 23.468 71.7611C34.4 77.1402 52.0734 76.9579 62.8688 71.3508C66.1939 69.6185 68.517 67.5671 69.6558 65.3334C68.4715 63.1453 66.1028 61.0939 62.7777 59.4528C51.8456 54.0736 34.1722 54.256 23.3769 59.8631C20.0517 61.5954 17.7287 63.6467 16.59 65.8804Z" fill="#1C1C1C"/>
<path d="M72.4082 80.1629L70.2676 80.1846L70.3583 89.1641L72.4989 89.1425L72.4082 80.1629Z" fill="#FFCA41"/>
<path d="M47.8291 48.3005L45.6885 48.3223L45.7472 54.1111L47.8878 54.0894L47.8291 48.3005Z" fill="#E36F59"/>
<path d="M21.874 59.7266L21.9196 64.6499L28.7521 67.1116L31.895 61.9148L31.9861 61.8692L56.0821 75.4538C58.1318 74.9068 60.0905 74.2686 61.9125 73.4481L64.4633 71.9437L64.4178 67.0204L32.5327 53.8916L21.874 59.7266Z" fill="#1C1C1C"/>
<path d="M55.8544 76.5479L32.2595 63.2368L29.1621 68.388L20.7809 65.3793L20.7354 59.0429L32.3506 52.6152L65.3744 66.1999L65.4199 72.4452L62.3225 74.2686C60.3638 75.1348 58.3597 75.8186 56.2188 76.3656L55.8544 76.5479ZM31.8496 60.6384L32.4872 60.8663L56.1732 74.2231C58.0408 73.7216 59.7717 73.0834 61.4115 72.3996L63.3246 71.26L63.2791 67.7042L32.5328 55.0769L22.9673 60.3649L23.0129 63.875L28.2966 65.744L31.1207 61.0487L31.8496 60.6384Z" fill="#1C1C1C"/>
<path d="M31.895 56.9004L31.8039 56.9916L28.661 62.1884L21.874 59.7267L26.3379 52.5241L32.3961 48.9229L64.3266 66.9749L57.2208 71.2144L31.895 56.9004Z" fill="white"/>
<path d="M57.2207 72.4447L32.2137 58.3585L29.1163 63.5098L20.1885 60.3188L25.5179 51.7486L32.3504 47.6914L65.5564 66.4273L65.283 67.6581L57.2207 72.4447ZM31.8037 55.7145L32.4414 55.9425L57.2207 69.9374L62.2312 66.9743L32.4414 50.1986L27.1121 53.3441L23.5137 59.1791L28.2509 60.8658L31.0749 56.1704L31.8037 55.7145Z" fill="#1C1C1C"/>
<path d="M62.3428 84.4035L60.2021 84.4258L60.2956 93.4054L62.4363 93.383L62.3428 84.4035Z" fill="#FFCA41"/>
<path d="M14.6084 80.528L12.4678 80.5498L12.5591 89.5294L14.6997 89.5076L14.6084 80.528Z" fill="#FFCA41"/>
<path d="M89.3334 20.3398C85.0972 15.143 80.4967 16.237 68.8814 13.7754C58.906 11.6328 48.475 11.8608 38.6362 14.5048C28.8429 17.1487 22.8759 18.8354 18.8675 23.4852L13.6748 26.266L13.8114 37.161L13.857 37.4346C14.1303 44.7739 20.1884 51.5663 32.1681 56.3528C44.0567 61.0938 57.2662 61.7319 69.7013 58.5865C87.2381 54.1646 95.9382 45.2298 96.1204 36.2949V25.3998L89.3334 20.3398Z" fill="#1C1C1C"/>
<path d="M54.2143 61.8692C46.3797 61.8692 38.6817 60.4561 31.6215 57.5842C19.5963 52.752 12.7637 45.595 12.4449 37.3895L12.3993 37.2527L12.2627 25.3548L18.002 22.3005C22.4203 17.3316 29.0706 15.5538 38.3173 13.0921C48.2927 10.4025 58.9515 10.1746 69.2458 12.3171C72.4798 13.0009 75.1217 13.4112 77.4903 13.7759C83.4118 14.6876 87.0558 15.2347 90.381 19.2462L97.5779 24.6254V36.341C97.3501 46.7802 87.1013 55.5784 70.0656 59.8635C64.8274 61.2311 59.4981 61.8692 54.2143 61.8692ZM15.0868 27.087L15.2234 37.2072C15.4967 44.3642 21.6915 50.6551 32.6691 55.0313C43.9655 59.5443 56.9928 60.3193 69.3368 57.2195C84.8239 53.299 94.526 45.2759 94.7082 36.2498V26.0841L88.2401 21.2064C85.5527 17.8786 82.683 17.4684 76.9893 16.6022C74.6207 16.2376 71.9332 15.8273 68.6081 15.1435C58.7693 13.0465 48.566 13.3201 39.0005 15.8729C28.9795 18.5625 23.6046 20.1579 19.9151 24.3975L19.5051 24.7166L15.0868 27.087Z" fill="#1C1C1C"/>
<path d="M83.8221 8.66993C99.9923 17.7872 100.174 32.8762 84.1864 42.3581C68.1984 51.84 42.0983 52.0679 25.928 42.9507C9.75774 33.8335 9.57552 18.7445 25.5636 9.26257C41.5516 -0.17375 67.6518 -0.447289 83.8221 8.66993Z" fill="white"/>
<path d="M54.3513 50.9742C43.7836 50.9742 33.2616 48.6949 25.1992 44.1362C16.9091 39.4409 12.3086 33.1044 12.2631 26.2209C12.172 19.3374 16.6814 12.8642 24.8349 8.03205C41.1873 -1.63221 67.9707 -1.90572 84.5054 7.43944C92.7955 12.1348 97.3961 18.4713 97.4416 25.3548C97.5327 32.2383 93.0232 38.7115 84.8698 43.5436C76.5341 48.5125 65.4199 50.9742 54.3513 50.9742ZM55.3534 3.38226C44.8313 3.38226 34.2637 5.75273 26.2924 10.4937C19.0044 14.8244 15.0416 20.3859 15.0872 26.2209C15.1327 32.0559 19.2322 37.5718 26.6113 41.7202C42.3716 50.6095 67.8796 50.3359 83.4577 41.1275C90.7457 36.7969 94.7086 31.2354 94.663 25.4003C94.6175 19.5653 90.518 14.0494 83.1389 9.90107C75.4409 5.57039 65.4199 3.38226 55.3534 3.38226Z" fill="#1C1C1C"/>
<path d="M75.0765 15.3259C63.7801 9.76435 45.5601 9.94668 34.4004 15.7361C23.2406 21.5256 23.3317 30.7339 34.6281 36.2499C45.9245 41.8114 64.1445 41.629 75.3043 35.8396C86.5096 30.0958 86.3729 20.8874 75.0765 15.3259Z" fill="#1C1C1C"/>
<path d="M54.396 41.7195C47.0169 41.7195 39.6378 40.3519 33.9896 37.5712C28.0225 34.6537 24.6974 30.5965 24.6518 26.1291C24.6063 21.7072 27.8404 17.5589 33.7163 14.5046C45.2405 8.53285 64.0526 8.3505 75.6679 14.0943C81.6349 17.0119 84.9601 21.069 85.0056 25.5364C85.0512 29.9583 81.8171 34.1066 75.9412 37.1609C70.0652 40.1696 62.2306 41.7195 54.396 41.7195ZM55.307 12.6812C47.9735 12.6812 40.6399 14.1399 35.0828 17.0119C30.1634 19.5647 27.476 22.8013 27.5215 26.0835C27.5671 29.4113 30.3001 32.5567 35.265 35.0184C46.197 40.3975 63.8704 40.2152 74.6658 34.6081C79.5852 32.0553 82.2726 28.8186 82.2271 25.5364C82.1815 22.2087 79.4485 19.0632 74.4836 16.6016C69.1542 13.9576 62.2306 12.6812 55.307 12.6812Z" fill="#1C1C1C"/>
<path d="M75.1671 21.4802C63.8707 15.9186 45.6507 16.101 34.4909 21.8904C30.437 23.9874 27.9317 26.4946 26.793 29.1842C27.9317 31.8282 30.5281 34.2899 34.6276 36.2956C45.924 41.8571 64.144 41.6748 75.3037 35.8854C79.3577 33.7884 81.863 31.2812 83.0017 28.5916C81.8174 25.9476 79.2211 23.4859 75.1671 21.4802Z" fill="#FFCA41"/>
<path d="M54.3965 41.72C47.0174 41.72 39.6383 40.3524 33.9901 37.5717C29.7539 35.4747 26.8387 32.7852 25.5178 29.7765L25.29 29.2294L25.5178 28.6824C26.7932 25.6281 29.6628 22.8474 33.8534 20.7048C45.3776 14.7331 64.1898 14.5507 75.805 20.2945C80.0412 22.3915 82.9564 25.0811 84.2773 28.0898L84.5051 28.6368L84.2773 29.1838C83.0019 32.2381 80.1322 35.0189 75.9416 37.1614C70.0657 40.1701 62.2311 41.72 54.3965 41.72ZM28.3419 29.1383C29.5262 31.3264 31.8948 33.3778 35.2199 35.0189C46.1519 40.398 63.8253 40.2157 74.6207 34.6086C77.9458 32.8763 80.2689 30.8249 81.4076 28.5912C80.2233 26.4031 77.8548 24.3517 74.5296 22.7106C63.5976 17.3315 45.9242 17.5138 35.1288 23.1209C31.8037 24.8532 29.4806 26.9045 28.3419 29.1383Z" fill="#1C1C1C"/>
<path d="M84.1602 43.4227L82.0195 43.4443L82.1103 52.4239L84.251 52.4022L84.1602 43.4227Z" fill="#FFCA41"/>
<path d="M59.5811 11.5612L57.4404 11.584L57.502 17.3728L59.6426 17.3501L59.5811 11.5612Z" fill="#FFCA41"/>
<path d="M33.626 22.9844L33.6716 27.9077L40.5041 30.3694L43.647 25.1726L43.7381 25.127L67.8341 38.7116C69.8838 38.1646 71.8425 37.5264 73.6645 36.7058L76.2153 35.2015L76.1697 30.2782L44.2847 17.1494L33.626 22.9844Z" fill="#1C1C1C"/>
<path d="M67.6513 39.8058L44.0564 26.4946L40.959 31.6458L32.5778 28.6372L32.5322 22.3007L44.1475 15.873L77.1713 29.4577L77.2168 35.703L74.1194 37.5264C72.1607 38.3926 70.1565 39.0764 68.0157 39.6234L67.6513 39.8058ZM43.6009 23.8962L44.2386 24.1697L67.9246 37.5264C69.7921 37.025 71.5686 36.3868 73.1628 35.703L75.0759 34.5633L75.0304 31.0076L44.2841 18.3803L34.7186 23.6683L34.7641 27.1784L40.048 29.0474L42.8721 24.3976L43.6009 23.8962Z" fill="#1C1C1C"/>
<path d="M43.647 20.1576L43.5559 20.2487L40.4585 25.4456L33.626 22.9839L38.0899 15.7813L44.1481 12.2256L76.1242 30.2321L68.9728 34.4716L43.647 20.1576Z" fill="white"/>
<path d="M68.9726 35.7025L43.9656 21.6164L40.8682 26.7676L31.9404 23.5766L37.2698 15.0064L44.1023 10.9492L77.126 29.5939V30.916L68.9726 35.7025ZM43.5557 18.9724L44.1934 19.2003L68.9726 33.1953L73.9831 30.2322L44.1934 13.4565L38.864 16.6019L35.2656 22.4369L40.0028 24.1236L42.8269 19.4283L43.5557 18.9724Z" fill="#1C1C1C"/>
<path d="M74.0937 47.6624L71.9531 47.6846L72.046 56.6641L74.1867 56.642L74.0937 47.6624Z" fill="#FFCA41"/>
<path d="M26.3594 43.7883L24.2188 43.8105L24.3117 52.7901L26.4524 52.7679L26.3594 43.7883Z" fill="#FFCA41"/>
</svg>
