<svg width="192" height="331" viewBox="0 0 192 331" fill="none" xmlns="http://www.w3.org/2000/svg">
<path d="M143.294 267.682C143.294 267.682 143.203 249.083 143.157 247.989C143.157 247.852 143.066 247.761 142.975 247.761L112.775 250.588L112.73 250.542L109.906 233.857C109.815 233.812 109.724 233.812 109.633 233.857L81.847 249.904C81.8015 249.949 81.7104 249.949 81.6648 249.949L76.3355 248.491C76.1533 248.445 76.0166 248.582 76.0166 248.719C76.0166 250.086 76.1533 267.956 76.1533 268.093C76.2444 269.004 76.7454 269.87 77.6109 270.418L105.715 286.601C108.129 287.968 111.045 287.968 113.459 286.601L141.836 270.19C142.793 269.597 143.294 268.64 143.294 267.682Z" fill="#E36F59"/>
<path d="M109.587 289.017C107.993 289.017 106.444 288.606 105.032 287.786L76.9275 271.603C75.6977 270.919 74.9234 269.688 74.7867 268.275C74.7412 267.91 74.6045 248.855 74.6045 248.673C74.6045 248.172 74.8323 247.67 75.2422 247.351C75.6522 247.032 76.1987 246.941 76.6998 247.077L81.5736 248.399L108.949 232.581C109.45 232.262 110.088 232.262 110.635 232.581L111.227 232.9L113.96 248.992L143.203 246.303L143.431 246.348C144.159 246.53 144.66 247.169 144.66 247.944C144.66 248.582 144.752 267.774 144.752 267.774C144.706 269.232 143.886 270.6 142.565 271.329L114.187 287.74C112.73 288.652 111.181 289.017 109.587 289.017ZM77.4286 250.223C77.4741 254.782 77.5652 267.546 77.5652 268.047C77.6108 268.275 77.7474 268.868 78.3396 269.187L106.444 285.37C108.403 286.509 110.817 286.509 112.775 285.37L141.153 268.959C141.836 268.549 141.927 267.91 141.927 267.637C141.927 267.637 141.836 251.591 141.836 249.266L112.775 251.955L112.32 251.864L111.546 251.363L108.949 235.955L82.1658 251.454L81.3915 251.317L77.4286 250.223Z" fill="#1C1C1C"/>
<path d="M143.021 247.761L112.821 250.587L112.776 250.542L109.359 260.844V287.603C110.771 287.649 112.275 287.284 113.504 286.555L141.882 270.144C142.839 269.597 143.294 268.639 143.34 267.682C143.34 267.682 143.249 249.083 143.203 247.989C143.203 247.852 143.112 247.761 143.021 247.761Z" fill="#1C1C1C"/>
<path d="M109.587 289.017C109.496 289.017 109.405 289.017 109.359 289.017L107.901 288.971V260.571L111.955 248.445L113.094 249.083L143.157 246.303L143.385 246.348C144.114 246.531 144.615 247.169 144.615 247.944C144.615 248.764 144.751 267.728 144.751 267.728V267.865C144.706 269.233 143.886 270.6 142.61 271.375L114.233 287.786C112.775 288.607 111.181 289.017 109.587 289.017ZM110.68 261.073V286.099C111.363 285.963 112.092 285.735 112.73 285.37L141.107 268.959C141.791 268.594 141.882 267.911 141.882 267.637C141.882 267.637 141.791 252.502 141.791 249.266L113.732 251.864L110.68 261.073Z" fill="#1C1C1C"/>
<path d="M105.715 267.044L77.5198 250.77C75.5156 249.63 75.5156 246.758 77.5198 245.618L106.034 229.116C108.357 227.794 111.181 227.749 113.504 229.116L141.7 245.39C143.704 246.53 143.704 249.402 141.7 250.542L113.185 267.044C110.908 268.366 108.038 268.366 105.715 267.044Z" fill="white"/>
<path d="M109.45 269.414C107.902 269.414 106.398 269.004 105.032 268.229L76.7909 251.955C75.4244 251.18 74.6045 249.766 74.6045 248.171C74.6045 246.575 75.4244 245.162 76.7909 244.387L105.305 227.885C108.038 226.29 111.454 226.29 114.187 227.885L142.383 244.159C143.749 244.934 144.569 246.393 144.569 247.989C144.569 249.584 143.749 250.952 142.383 251.772L113.869 268.274C112.548 269.049 110.999 269.414 109.45 269.414ZM109.769 229.481C108.721 229.481 107.674 229.754 106.717 230.301L78.203 246.803C77.5197 247.214 77.4286 247.897 77.4286 248.171C77.4286 248.444 77.5197 249.128 78.203 249.539L106.444 265.813C108.312 266.907 110.635 266.907 112.502 265.813L141.016 249.311C141.7 248.9 141.791 248.217 141.791 247.943C141.791 247.669 141.7 246.986 141.016 246.575L112.775 230.301C111.864 229.754 110.817 229.481 109.769 229.481Z" fill="#1C1C1C"/>
<path d="M133.455 260.16H130.631V269.779H133.455V260.16Z" fill="#E36F59"/>
<path d="M88.3143 256.194H85.4902V268.731H88.3143V256.194Z" fill="#1C1C1C"/>
<path d="M95.9218 267.683H93.0977V280.219H95.9218V267.683Z" fill="#1C1C1C"/>
<path d="M189.983 74.671C188.343 60.7217 178.459 62.9554 176.5 63.548C176.363 63.5936 176.227 63.4113 176.227 63.1833C176.136 59.6732 175.27 42.2137 167.162 42.4417L153.315 43.5357C153.178 43.5357 153.042 43.6725 153.042 43.8549L154.773 60.7673L152.085 94.1363L148.942 93.5437L146.346 99.4243C146.255 99.6066 146.391 99.8346 146.619 99.8346L160.284 98.7405L178.96 94.1363C178.96 94.0907 192.078 92.3585 189.983 74.671Z" fill="white"/>
<path d="M146.619 101.202C146.072 101.202 145.571 100.929 145.252 100.473C144.888 99.9713 144.842 99.3787 145.07 98.8317L148.122 91.9026L150.809 92.4496L153.36 60.7673L151.629 43.399L152.085 42.7608C152.358 42.3961 152.813 42.2137 153.269 42.1681L167.116 41.0741C175.679 40.8005 177.365 55.5704 177.638 61.9069C179.642 61.5422 182.922 61.4511 185.837 63.3657C188.935 65.4171 190.802 69.1551 191.44 74.5799C193.626 93.4069 179.323 95.5039 179.187 95.5495L160.284 100.199L146.619 101.202ZM149.762 95.0936L148.395 98.2391L160.101 97.3273L178.64 92.7231C179.278 92.6319 190.483 90.8997 188.616 74.8534C188.069 70.3404 186.612 67.2405 184.243 65.6906C181.373 63.8215 177.911 64.6421 176.909 64.9156L176.226 65.0979L175.543 64.6421C175.087 64.323 174.86 63.7759 174.86 63.1833C174.677 55.9351 172.946 43.6725 167.207 43.8092L154.59 44.8121L156.184 60.6761L153.36 95.7318L149.762 95.0936Z" fill="#1C1C1C"/>
<path d="M175.68 77.0869C175.68 77.0869 170.897 74.5797 169.986 74.3062C169.029 74.0327 156.412 73.668 156.412 73.668L153.178 76.5855L151.766 93.9538L148.623 93.3612L146.027 99.2418C145.935 99.4241 146.072 99.6521 146.3 99.6521L159.965 98.558L178.64 93.9538C178.64 93.9538 190.848 92.3127 189.755 76.1752L175.68 77.0869Z" fill="#E36F59"/>
<path d="M146.3 101.02C145.754 101.02 145.253 100.746 144.934 100.29C144.569 99.7889 144.524 99.1963 144.752 98.6492L147.803 91.7202L150.491 92.2672L151.812 75.9473L155.866 72.2549H156.412C161.195 72.3916 169.349 72.6652 170.305 72.9387C171.216 73.1666 174.496 74.8989 175.953 75.6282L191.076 74.5798L191.167 75.9929C192.306 93.2701 178.96 95.2759 178.823 95.2759L159.965 99.9712L146.3 101.02ZM149.443 94.9568L148.077 98.1022L159.783 97.1905L178.322 92.5863C178.914 92.4951 188.707 90.9452 188.434 77.634L175.361 78.5458L174.997 78.3634C172.81 77.1782 170.077 75.8562 169.576 75.7194C168.847 75.5827 162.607 75.3547 156.868 75.1724L154.454 77.3605L152.951 95.7317L149.443 94.9568Z" fill="#1C1C1C"/>
<path d="M164.884 64.3686L175.862 63.548C175.862 63.548 176.135 63.2289 176.135 63.1833C176.09 61.451 175.862 56.4366 174.678 51.7412L160.603 53.0632L154.362 57.9409L154.636 60.7217L154.226 66.0552L156.685 70.7506L164.884 64.3686Z" fill="#E36F59"/>
<path d="M156.23 72.8933L152.813 66.3289L153.269 60.7218L152.905 57.3029L160.056 51.6502L175.771 50.1914L176.044 51.3767C177.274 56.3 177.502 61.6335 177.547 63.1379C177.547 63.7305 177.274 64.0952 176.909 64.4599L176.545 64.8701L165.431 65.7363L156.23 72.8933ZM155.638 65.7363L157.141 68.6082L164.338 63.0011L174.677 62.2261C174.586 60.3571 174.313 56.8014 173.584 53.2457L161.149 54.3853L155.865 58.5337L156.048 60.813L155.638 65.7363Z" fill="#1C1C1C"/>
<path d="M175.862 75.8107C174.222 61.8613 164.338 64.0951 162.379 64.6877C162.243 64.7333 162.106 64.5509 162.106 64.323C162.015 60.8129 161.149 43.3534 153.042 43.5813C142.747 43.8548 144.615 66.6479 144.615 66.6479L145.936 99.4699C145.936 99.6978 146.072 99.8802 146.209 99.8346L164.885 95.2304C164.839 95.1848 177.912 93.4981 175.862 75.8107Z" fill="#E36F59"/>
<path d="M145.844 101.339L145.207 100.928C144.797 100.609 144.523 100.108 144.478 99.5151L143.157 66.6931C143.111 66.1005 141.927 50.9203 147.439 44.8118C148.942 43.1251 150.809 42.259 152.996 42.2134C155.774 42.1222 159.737 43.8089 161.923 52.2423C162.971 56.2539 163.335 60.539 163.427 63.0462C165.431 62.6816 168.71 62.5904 171.626 64.505C174.723 66.5564 176.591 70.2944 177.228 75.7192C179.415 94.5462 165.112 96.6432 164.975 96.6888L145.844 101.339ZM153.178 44.9942H153.087C151.72 45.0397 150.536 45.5868 149.579 46.6808C145.708 51.0115 145.708 62.4536 146.026 66.5108L147.302 98.102L164.565 93.8169C165.203 93.7257 176.408 91.9934 174.541 75.9471C173.994 71.4341 172.537 68.3342 170.168 66.7843C167.298 64.9153 163.837 65.7358 162.834 66.0093L162.151 66.1917L161.468 65.7814C161.012 65.4623 160.785 64.9153 160.739 64.3226C160.694 62.8183 160.466 57.5759 159.236 52.8805C158.279 49.2792 156.457 44.9942 153.178 44.9942Z" fill="#1C1C1C"/>
<path d="M152.504 72.352L149.683 72.4814L150.521 90.7887L153.343 90.6593L152.504 72.352Z" fill="white"/>
<path d="M161.696 58.6246L175.726 57.5762L175.862 63.5024L162.106 64.3229L161.696 58.6246Z" fill="#1C1C1C"/>
<path d="M167.754 95.0934L174.313 95.2302L182.649 93.4067L187.022 89.0305L189.527 83.9248L189.618 81.6455L176.773 82.6484L175.497 86.8423L171.99 91.0818L167.754 95.0934Z" fill="#1C1C1C"/>
<path d="M37.7997 143.871C36.6154 146.013 27.8698 161.832 21.675 180.522C21.265 181.707 22.0394 182.938 23.2693 183.166L27.7331 183.941C28.6897 184.123 29.4185 184.944 29.4185 185.947C29.4185 187.314 30.7395 188.271 32.0604 187.861L33.2447 187.497C34.2924 187.177 35.4311 187.77 35.7955 188.819L36.251 190.277C36.661 191.645 38.3463 192.146 39.4395 191.235L39.7128 191.007C40.6694 190.232 42.0814 190.46 42.7191 191.508L43.7668 193.24C44.1767 193.924 44.9511 194.289 45.7254 194.198L56.293 192.921C57.204 192.83 57.8873 192.146 58.0239 191.235L65.3575 148.11C65.4941 147.244 65.0842 146.423 64.3554 146.013L51.9658 139.175C51.6925 139.038 51.4192 138.947 51.1459 138.947L44.2223 138.4C43.6301 138.355 43.0835 138.583 42.628 138.993L38.1186 143.415C38.0275 143.552 37.8908 143.688 37.7997 143.871Z" fill="#E36F59"/>
<path d="M45.4981 195.565C44.3138 195.565 43.1751 194.973 42.5829 193.924L41.5353 192.192C41.3986 191.964 41.2164 191.918 41.1253 191.918C41.0342 191.873 40.8065 191.873 40.6243 192.055L40.3509 192.283C39.4855 193.012 38.3012 193.24 37.208 192.921C36.1148 192.602 35.2494 191.736 34.9305 190.688L34.475 189.229C34.3839 188.91 34.0195 188.727 33.7006 188.818L32.5163 189.183C31.4687 189.502 30.33 189.32 29.4645 188.682C28.5991 188.044 28.0524 187.041 28.0524 185.901C28.0524 185.582 27.8247 185.354 27.5514 185.308L23.0875 184.533C22.0854 184.351 21.2199 183.758 20.7189 182.938C20.2178 182.072 20.0812 181.069 20.4 180.112C26.6404 161.239 35.6137 145.056 36.6158 143.232C36.7525 142.959 36.9803 142.685 37.208 142.457L41.7174 138.036C42.4462 137.352 43.4028 136.987 44.4049 137.078L51.3285 137.625C51.784 137.671 52.2851 137.808 52.695 138.036L65.0846 144.828C66.36 145.512 67.0433 146.97 66.8155 148.429L59.4819 191.554C59.2086 193.058 58.0243 194.198 56.5212 194.38L45.9536 195.656C45.7714 195.565 45.6347 195.565 45.4981 195.565ZM40.9887 189.092C41.1709 189.092 41.353 189.092 41.5808 189.138C42.5373 189.32 43.4028 189.867 43.9494 190.733L44.997 192.465C45.1337 192.648 45.3614 192.784 45.5892 192.739L56.1568 191.462C56.4301 191.417 56.6579 191.235 56.7034 190.961L64.037 147.837C64.0825 147.563 63.9458 147.335 63.7181 147.198L51.3285 140.406C51.2374 140.36 51.1463 140.36 51.1008 140.315L44.1772 139.768C43.995 139.768 43.8128 139.813 43.7217 139.95L39.1211 144.509C38.119 146.287 29.2823 162.287 23.133 180.886C23.0419 181.114 23.133 181.297 23.1786 181.388C23.2241 181.479 23.3608 181.661 23.5885 181.661L28.0524 182.436C29.6922 182.71 30.9221 184.123 30.9221 185.81C30.9221 186.083 31.0587 186.22 31.1498 186.311C31.2409 186.402 31.4231 186.494 31.6964 186.402L32.8808 186.038C34.7028 185.491 36.6158 186.494 37.1624 188.271L37.6179 189.73C37.709 190.004 37.8913 190.095 38.0279 190.14C38.119 190.186 38.3923 190.186 38.5745 190.049L38.8478 189.821C39.4399 189.366 40.2143 189.092 40.9887 189.092Z" fill="#1C1C1C"/>
<path d="M18.3043 300.504L16.209 310.442L17.2566 318.282L30.284 316.915L32.5159 301.963L18.3043 300.504Z" fill="#FFDCCB"/>
<path d="M16.0264 319.787L14.751 310.397L17.1652 299L34.1097 300.687L31.4678 318.192L16.0264 319.787ZM17.6207 310.533L18.4405 316.733L29.0082 315.639L30.8757 303.194L19.3971 302.054L17.6207 310.533Z" fill="#1C1C1C"/>
<path d="M105.533 223.737L102.8 233.174L106.808 236.957L114.552 235.088L118.241 225.834L105.533 223.737Z" fill="#FFDCCB"/>
<path d="M106.398 238.507L101.205 233.675L104.485 222.188L120.154 224.786L115.599 236.274L106.398 238.507ZM104.394 232.764L107.218 235.407L113.549 233.903L116.282 226.974L106.534 225.379L104.394 232.764Z" fill="#1C1C1C"/>
<path d="M168.529 99.6518L167.8 98.3298C167.8 96.2784 168.028 93.4065 169.531 92.0389L171.672 91.036L172.947 92.7227L178.185 88.5743C180.599 86.7053 184.152 86.8877 186.065 89.2126C186.794 90.0787 187.386 91.1272 187.705 92.4492C189.208 98.193 180.326 107.629 174.951 108.495C170.442 109.225 168.984 102.843 168.62 100.791C168.529 100.427 168.529 100.062 168.529 99.6518Z" fill="#1C1C1C"/>
<path d="M174.222 110C170.76 110 168.209 106.763 167.207 101.065C167.162 100.7 167.116 100.381 167.116 100.017L166.342 98.6946V98.3299C166.342 94.7286 167.071 92.3125 168.574 90.9905L168.938 90.7626L172.081 89.3038L173.174 90.7626L177.319 87.526C180.371 85.1099 184.79 85.5202 187.158 88.3921C188.069 89.4862 188.707 90.7626 189.071 92.1758C189.846 95.2756 188.297 98.6034 186.794 100.837C183.787 105.441 178.777 109.362 175.178 109.954C174.86 109.954 174.541 110 174.222 110ZM169.166 97.9652L169.895 99.2872V99.6519C169.895 99.971 169.895 100.29 169.986 100.564C170.259 102.25 171.489 107.675 174.723 107.128C177.547 106.672 181.92 103.116 184.425 99.2416C186.065 96.7344 186.748 94.4551 186.338 92.814C186.065 91.8111 185.609 90.8994 184.972 90.1244C183.56 88.3921 180.918 88.2098 179.05 89.6686L172.673 94.7286L171.216 92.814L170.35 93.2243C169.804 93.7713 169.211 95.0477 169.166 97.9652Z" fill="#1C1C1C"/>
<path d="M25.4102 134.753L36.2966 143.688C36.9343 144.463 37.7998 144.964 38.7563 145.147L41.8993 145.694C42.9014 145.876 43.9035 145.648 44.7234 145.101C46.6365 143.87 49.8705 141.728 49.825 141.135C49.7794 140.953 49.7794 140.679 49.7794 140.36C49.7339 138.81 48.8684 137.397 47.4564 136.759L44.0401 135.163C42.8558 134.616 41.9904 133.522 41.7626 132.246L41.6715 131.79H45.6344C47.0009 131.79 48.2763 132.474 49.0506 133.659L51.6014 132.838L49.3695 129.83C48.6862 128.918 47.6841 128.371 46.5909 128.234L40.4417 127.55C40.305 127.55 40.1228 127.505 39.9862 127.505H35.6589C34.338 127.505 33.1081 128.143 32.3338 129.237L25.4102 134.753Z" fill="#1C1C1C"/>
<path d="M42.5827 147.152C42.2638 147.152 41.9905 147.107 41.6717 147.061L38.5287 146.514C37.2533 146.286 36.1146 145.648 35.2947 144.645L23.1328 134.707L31.2863 128.234C32.3339 126.866 33.9282 126.046 35.6135 126.046H39.9408C40.123 126.046 40.3507 126.046 40.5785 126.091L46.7277 126.821C48.2309 127.003 49.5974 127.778 50.4628 129.009L53.8791 133.613L48.4131 135.345L47.8209 134.434C47.3199 133.659 46.5 133.203 45.589 133.203H43.6759C43.9036 133.476 44.2225 133.75 44.5869 133.887L48.0031 135.482C49.9162 136.348 51.1005 138.217 51.1461 140.314C51.1461 140.542 51.1461 140.77 51.1916 140.907C51.3283 141.864 51.1461 142.639 45.4523 146.241C44.6324 146.833 43.6303 147.152 42.5827 147.152ZM27.6423 134.753L37.39 142.822C37.7999 143.323 38.3465 143.642 38.9842 143.779L42.1272 144.326C42.7649 144.417 43.4481 144.28 43.9947 143.961C46.6366 142.275 47.912 141.272 48.4131 140.861C48.4131 140.725 48.4131 140.588 48.4131 140.451C48.4131 139.403 47.8209 138.536 46.9099 138.081L43.4937 136.485C41.8994 135.756 40.7607 134.251 40.4418 132.565L40.0319 130.468H45.6801C46.8188 130.468 47.912 130.832 48.823 131.471L48.2764 130.741C47.8665 130.149 47.1832 129.784 46.4544 129.693L40.3052 129.009C40.2141 129.009 40.123 129.009 39.9863 129.009H35.6591C34.7936 129.009 33.9737 129.419 33.4727 130.149L33.1994 130.468L27.6423 134.753Z" fill="#1C1C1C"/>
<path d="M56.8854 151.3C56.8854 151.3 48.1853 189 45.4979 211.884C42.8104 234.769 34.3381 230.028 26.9135 253.003C21.4019 269.961 19.0789 289.745 18.2134 298.908C17.9401 301.78 20.0354 304.333 22.9051 304.698L28.8266 305.427C31.5596 305.746 34.0648 303.968 34.657 301.279C36.9345 290.657 43.1293 264.764 51.4194 251.043C62.0325 233.447 64.0823 235.817 69.8216 218.905C74.741 204.454 80.4803 187.769 82.0746 183.256C82.2568 182.755 82.8944 182.573 83.3044 182.937C85.2175 184.533 92.6421 186.402 106.079 179.883C118.287 173.957 124.755 171.951 127.533 171.267C128.08 171.13 128.49 171.769 128.126 172.179C125.62 175.233 119.517 183.484 117.421 194.744C115.645 204.18 109.815 214.848 106.034 221.047C104.531 223.509 106.079 226.7 108.949 227.019L114.506 227.657C115.964 227.84 117.421 227.156 118.241 225.925C124.072 217.172 145.116 186.447 151.311 171.45C158.416 154.218 156.276 146.24 145.799 142.821C135.323 139.448 92.961 150.252 92.961 150.252L56.8854 151.3Z" fill="#1C1C1C"/>
<path d="M29.4189 306.84C29.1456 306.84 28.8723 306.84 28.599 306.795L22.6775 306.065C19.0335 305.61 16.4371 302.419 16.756 298.772C17.7125 288.743 20.0811 269.414 25.5016 252.593C28.9178 241.971 32.5618 237.139 35.7959 232.9C39.5765 227.885 42.5828 223.919 44.0404 211.748C46.7279 189.046 55.3824 151.392 55.4735 151.027L55.7012 149.979L92.7334 148.839C95.9675 148.018 135.687 138.081 146.209 141.454C150.946 142.958 153.998 145.374 155.592 148.793C157.961 153.899 157.005 161.238 152.586 171.951C146.984 185.536 129.265 211.93 121.703 223.236L119.38 226.7C118.241 228.387 116.283 229.298 114.279 229.025L108.721 228.387C106.899 228.159 105.305 227.065 104.531 225.378C103.757 223.737 103.848 221.822 104.804 220.272C108.22 214.665 114.279 203.861 116.009 194.471C117.831 184.806 122.432 177.33 125.438 173.273C121.977 174.367 116.055 176.601 106.626 181.114C93.9177 187.268 86.1742 186.265 83.0312 184.487C81.1637 189.958 75.6977 205.639 71.0516 219.361C67.3165 230.301 65.039 233.447 61.2583 238.689C59.0719 241.698 56.3845 245.39 52.5583 251.772C44.3593 265.357 38.21 291.159 35.9325 301.598C35.3404 304.652 32.5618 306.84 29.4189 306.84ZM57.9787 152.668C56.5667 158.959 49.2331 191.644 46.8645 212.021C45.3614 224.922 41.9907 229.39 38.0734 234.541C34.976 238.644 31.5142 243.248 28.189 253.413C22.8141 270.007 20.4911 289.107 19.5345 299C19.3523 301.142 20.8555 303.011 22.9963 303.239L28.9178 303.968C30.922 304.196 32.7896 302.874 33.1995 300.914C35.477 290.338 41.7174 264.172 50.1441 250.222C54.0614 243.749 56.7944 239.966 58.9808 236.957C62.7615 231.76 64.8113 228.934 68.4097 218.403C73.3291 203.953 79.0684 187.268 80.6626 182.755C80.8904 182.071 81.437 181.57 82.1203 181.387C82.8035 181.205 83.5323 181.342 84.1245 181.798C85.5365 182.983 92.4601 184.852 105.396 178.561C117.74 172.589 124.345 170.538 127.124 169.809C127.944 169.581 128.855 169.945 129.31 170.675C129.766 171.404 129.72 172.316 129.173 173C126.714 175.963 120.838 183.986 118.742 194.927C116.966 204.272 111.454 214.665 107.127 221.686C106.672 222.415 106.626 223.327 106.991 224.102C107.401 224.922 108.129 225.424 108.995 225.515L114.552 226.153C115.508 226.29 116.419 225.834 116.966 225.059L119.289 221.594C126.805 210.38 144.433 184.123 149.899 170.811C153.907 161.01 154.909 154.173 152.951 149.933C151.721 147.243 149.215 145.329 145.253 144.098C135.277 140.861 93.5989 151.437 93.1889 151.574L92.87 151.62L57.9787 152.668Z" fill="#1C1C1C"/>
<path d="M178.459 104.393C176.591 96.2327 170.67 98.6487 170.67 98.6487C161.058 105.304 152.313 113.282 152.313 113.282C152.313 113.282 146.756 113.1 133.045 99.3781C119.335 85.6567 104.075 76.2204 104.075 76.2204L87.7229 66.6473C87.7229 66.6473 73.7846 61.177 64.8113 58.2139C55.8379 55.2508 50.6452 54.1567 34.3383 69.1545C23.5429 79.0923 19.489 82.7392 14.023 87.6169C11.1078 90.2153 3.18207 98.7855 2.08887 102.524C6.37057 117.157 25.3649 134.707 25.3649 134.707C25.3649 134.707 27.3236 135.026 30.6487 134.206C36.5247 132.747 36.9346 126.411 36.9346 126.411L20.2178 104.21C19.8534 103.663 19.99 102.934 20.5366 102.615C32.8351 95.4577 47.8666 86.2493 47.8666 86.2493C47.0467 103.572 49.2787 132.747 49.2787 132.747C48.6866 138.354 39.03 162.697 39.03 162.697L51.5106 169.672C69.9129 179.746 92.1868 177.877 111.591 169.9C114.096 168.851 121.384 162.378 122.614 158.822L110.134 122.764L108.266 109.042C108.403 108.359 109.177 108.131 109.678 108.541C119.927 117.658 148.76 132.61 152.131 131.653C158.371 129.875 180.326 112.552 178.459 104.393Z" fill="#70CAFC"/>
<path d="M79.9793 177.968C69.4117 177.968 59.4818 175.644 50.9184 170.948L37.3445 163.381L37.8 162.241C41.0796 153.945 47.3655 137.26 47.9121 132.793C47.7299 130.468 45.9079 105.578 46.409 88.8932C41.8084 91.7195 30.922 98.3295 21.5842 103.709L38.3922 126L38.3466 126.502C38.1644 129.055 36.4335 134.251 30.9675 135.573C27.4602 136.439 25.3649 136.12 25.1371 136.075L24.7272 135.984L24.4083 135.71C23.634 134.981 5.09512 117.749 0.767863 102.888L0.676758 102.478L0.767863 102.068C1.99771 97.7825 10.5611 88.7564 13.1119 86.5227C18.8968 81.3259 22.9963 77.6334 33.3817 68.0603C50.0074 52.7434 55.7467 53.7007 65.2212 56.8462C74.149 59.8093 88.0873 65.234 88.2239 65.2796L104.759 74.9438C104.941 75.0806 120.382 84.6537 134.047 98.3295C144.706 108.997 150.263 111.23 151.903 111.686C153.953 109.863 161.605 103.116 169.85 97.4178L170.123 97.281C170.26 97.2354 172.901 96.187 175.589 97.5545C177.639 98.6486 179.051 100.791 179.779 104.028C181.875 113.327 158.872 131.151 152.495 132.929C148.259 134.069 120.747 119.481 109.86 110.455L111.454 122.353L124.117 158.777L123.935 159.233C122.523 163.244 114.871 170.036 112.138 171.176C101.297 175.735 90.3648 177.968 79.9793 177.968ZM40.8519 162.104L52.2394 168.441C68.4097 177.285 89.8637 177.376 111.09 168.578C113.14 167.712 119.653 161.968 121.157 158.731L108.721 122.855L106.854 108.86L106.899 108.632C107.082 107.811 107.628 107.173 108.403 106.9C109.177 106.626 109.997 106.809 110.635 107.356C120.929 116.518 147.986 130.194 151.721 130.194H151.857C157.642 128.553 178.686 111.595 177.138 104.62C176.591 102.25 175.68 100.7 174.359 100.016C173.084 99.3324 171.763 99.6971 171.353 99.7882C161.969 106.307 153.406 114.148 153.315 114.193L152.905 114.558H152.313C151.675 114.558 145.799 113.966 132.089 100.244C118.651 86.7962 103.529 77.3599 103.347 77.2687L87.1307 67.7868C85.8553 67.2854 72.828 62.2253 64.4012 59.4445C56.0656 56.7094 51.5106 55.2051 35.3403 70.0661C24.9549 79.6392 20.8554 83.3317 15.025 88.5285C12.1554 91.0813 5.00401 98.9221 3.63751 102.387C7.64591 115.333 23.4973 130.787 26.0026 133.203C26.6858 133.248 28.189 133.203 30.3298 132.701C34.2927 131.744 35.2492 128.006 35.477 126.684L19.1245 104.939C18.669 104.347 18.5324 103.618 18.669 102.888C18.8057 102.204 19.2612 101.612 19.8533 101.247C32.0152 94.1812 47.0011 84.9728 47.1833 84.8816L49.4608 83.4684L49.3242 86.1124C48.5043 102.888 50.6451 131.243 50.7362 132.428V132.565V132.701C50.1896 138.035 42.8105 157.181 40.8519 162.104Z" fill="#1C1C1C"/>
<path d="M96.2407 69.1552C96.1496 65.3715 96.4229 60.4938 96.7417 58.9895C97.015 57.5307 98.4271 56.619 99.8847 56.8013C101.798 57.0293 104.941 57.0293 108.175 55.2514C108.767 54.9323 109.222 54.3397 109.405 53.7015C110.452 50.3737 113.641 39.7066 114.096 32.7319C114.643 24.3896 105.214 18.8281 105.214 18.8281L81.8924 30.2247L79.1139 36.6067V48.5503C79.1139 48.5503 82.7123 55.2058 71.3248 63.2746C59.9373 71.3433 85.4909 79.1385 85.4909 79.1385L96.0585 74.9902L96.2407 69.1552Z" fill="#FFDCCB"/>
<path d="M85.536 80.6883L85.0805 80.5515C83.3496 80.0045 68.1359 75.218 67.0427 68.4712C66.6783 66.1919 67.8171 64.0949 70.5045 62.1803C80.6166 55.0233 77.9747 49.4618 77.8381 49.2339L77.7014 48.9148V36.333L80.7988 29.176L105.259 17.2324L105.897 17.5971C106.307 17.825 116.1 23.7057 115.508 32.8229C115.052 39.752 112.046 50.0088 110.771 54.1116C110.452 55.1601 109.769 55.9806 108.858 56.482C105.305 58.4422 101.934 58.4879 99.7021 58.2143C98.9277 58.1232 98.2445 58.579 98.1078 59.2628C97.8345 60.5392 97.5157 65.2346 97.6523 69.1094L97.4246 75.9473L85.536 80.6883ZM80.5255 48.3221C81.2088 49.9632 83.0308 56.8012 72.1443 64.5052C70.4134 65.736 69.6391 66.9213 69.8213 68.0609C70.4134 71.7534 79.5234 75.8562 85.4449 77.7252L94.6916 74.0783L94.8738 69.2006C94.7827 65.2802 95.056 60.3569 95.4204 58.7614C95.8759 56.5732 97.9256 55.2057 100.112 55.4792C101.934 55.7071 104.667 55.6615 107.582 54.066C107.856 53.9292 108.038 53.6557 108.129 53.3366C109.085 50.2368 112.274 39.524 112.729 32.6861C113.139 26.4864 107.127 21.8366 105.123 20.469L82.9852 31.2729L80.5255 36.9256V48.3221Z" fill="#1C1C1C"/>
<path d="M109.45 2.23468C108.949 1.96117 108.312 2.41703 108.448 3.00965C108.858 4.96985 109.086 8.43442 106.444 10.349C106.444 10.349 98.5183 5.51689 92.5968 5.836C85.7187 6.20068 75.1056 7.4771 73.4202 20.4235C71.8715 23.022 69.6851 28.082 70.8694 34.8288C72.6459 44.8121 80.9815 51.2398 93.7811 49.5075C93.7811 49.5075 93.3256 49.5075 93.7811 49.5075C93.7811 49.5075 98.8827 47.9576 101.206 42.077C103.574 36.1963 108.63 35.4214 108.63 35.4214C108.63 35.4214 114.279 32.8686 116.829 29.5408C119.471 25.9851 125.575 10.9416 109.45 2.23468Z" fill="#E36F59"/>
<path d="M89.8177 51.1939C79.0224 51.1939 71.2333 45.1765 69.4569 35.0564C68.227 28.0362 70.459 22.657 72.0532 19.9218C74.1485 5.42547 86.9936 4.69609 92.5052 4.42257C97.6523 4.14906 103.938 7.34006 106.261 8.61647C107.582 7.06654 107.354 4.69609 107.081 3.28292C106.899 2.46237 107.218 1.64181 107.901 1.14037C108.584 0.638919 109.404 0.593322 110.133 0.958011C116.282 4.2858 120.017 8.79883 121.202 14.3603C122.796 21.7909 119.38 28.4009 117.968 30.3155C115.235 33.9168 109.495 36.5152 109.222 36.6064L108.858 36.6975C108.675 36.7431 104.53 37.4725 102.526 42.487C99.9754 48.9146 94.4183 50.6925 94.1905 50.738L93.8717 50.7836C92.4596 51.1027 91.0931 51.1939 89.8177 51.1939ZM93.1429 7.20331C92.9607 7.20331 92.7785 7.20331 92.6418 7.20331C84.2151 7.65917 76.2438 9.57378 74.7862 20.56L74.7407 20.8336L74.604 21.1071C73.2375 23.3864 71.0967 28.2185 72.2354 34.555C73.9663 44.4016 82.1198 49.5528 93.4617 48.1396C94.145 47.9117 98.0167 46.3162 99.9298 41.5296C102.298 35.649 107.127 34.2815 108.22 34.0535C109.085 33.6433 113.64 31.4095 115.736 28.6744C116.874 27.17 119.881 21.3806 118.469 14.9985C117.512 10.6223 114.688 7.02098 110.088 4.19464C110.406 7.38567 109.45 9.93849 107.263 11.4884L106.489 11.9899L105.715 11.4884C105.624 11.4884 98.5178 7.20331 93.1429 7.20331Z" fill="#1C1C1C"/>
<path d="M103.62 50.0544C102.208 50.0544 101.297 49.5073 100.796 49.0059C99.1559 47.4104 99.247 44.7664 99.247 44.4473L101.388 44.5384C101.342 45.0855 101.479 46.6354 102.253 47.4104C102.663 47.7751 103.21 47.9118 103.939 47.8662L104.166 50.0088C104.03 50.0544 103.802 50.0544 103.62 50.0544Z" fill="#1C1C1C"/>
<path d="M89.0435 29.7683C85.6728 19.7393 74.1486 21.6995 73.6476 21.7907L73.1465 19.01C73.2831 18.9644 87.5403 16.5483 91.6854 28.8565L89.0435 29.7683Z" fill="#1C1C1C"/>
<path d="M77.0184 67.3318C80.7535 70.4773 87.2672 73.9874 96.1494 71.6625L100.34 70.8419L106.17 77.5431C106.17 77.5431 102.982 87.8 86.5839 85.4295C70.1859 83.059 63.9456 73.7595 64.9021 67.5142C64.9021 67.4686 64.9021 67.3774 64.9477 67.3318C65.6765 63.0923 69.1838 59.9013 73.4655 59.3087L75.3331 59.0352C73.9666 61.8615 74.6043 65.326 77.0184 67.3318Z" fill="#E36F59"/>
<path d="M91.3211 87.2072C89.818 87.2072 88.1782 87.0705 86.4017 86.8425C77.2917 85.5205 70.1403 81.9192 66.2686 76.6768C64.0366 73.6681 63.0801 70.3404 63.5356 67.3317C64.401 62.3628 68.2728 58.6703 73.2377 57.9409L77.7472 57.3027L76.6085 59.6732C75.4697 61.9981 76.0163 64.6877 77.9294 66.2832C81.5278 69.3374 87.586 72.4829 95.785 70.3403L100.841 69.3374L107.719 77.2694L107.491 77.9988C107.4 78.4091 104.485 87.2072 91.3211 87.2072ZM73.3288 60.7673C69.7759 61.4055 66.9063 64.1862 66.3141 67.5596C65.9497 69.9757 66.7241 72.6197 68.5005 74.9901C70.5047 77.6797 75.5152 82.4207 86.7661 84.0618C99.3835 85.8852 103.483 79.959 104.531 77.8621L99.7934 72.4373L96.4227 73.1211C87.1305 75.5827 80.2524 71.9359 76.1074 68.4713C73.8754 66.5111 72.8733 63.5936 73.3288 60.7673Z" fill="#1C1C1C"/>
<path d="M49.3241 86.3407L46.5 86.2496C46.5 85.8849 46.6822 77.6793 50.6451 74.3516L52.4671 76.4941C50.0074 78.6367 49.3697 84.3349 49.3241 86.3407Z" fill="#1C1C1C"/>
<path d="M14.7055 310.442C14.7055 310.442 22.0846 310.989 24.3621 314.134C24.6809 314.59 25.0453 314.955 25.4097 315.229C27.4595 316.778 30.5113 315.32 30.8757 312.767L31.559 308.254L31.9234 308.208C37.8449 307.297 43.9031 307.524 49.7335 308.801L52.4665 309.394C52.4665 309.394 57.2948 311.855 54.9717 314.545C52.6487 317.234 38.3915 320.243 28.5982 326.306C18.805 332.369 10.7882 329.998 11.1526 320.243C11.4714 310.442 12.2002 309.393 14.7055 310.442Z" fill="#E36F59"/>
<path d="M18.8051 331.001C17.0286 331.001 15.3888 330.591 14.0223 329.816C11.0616 328.083 9.55843 324.665 9.69508 320.152C9.96838 312.447 10.4694 310.077 12.0181 309.074C13.1113 308.39 14.3412 308.755 14.9789 309.028C16.482 309.165 22.9957 309.94 25.4554 313.268C25.6831 313.587 25.9564 313.861 26.2297 314.089C26.9585 314.636 27.7329 314.408 28.0517 314.271C28.7805 313.952 29.3272 313.314 29.4638 312.539L30.2837 306.977L31.6502 306.749C37.7539 305.837 43.9487 306.02 50.0069 307.342L53.0587 308.071C53.4231 308.254 56.4294 309.849 56.8849 312.265C57.0215 313.04 56.976 314.18 55.9739 315.365C54.744 316.824 51.6011 318.009 46.1806 319.969C40.9424 321.884 34.4287 324.254 29.2816 327.4C25.5465 329.816 21.948 331.001 18.8051 331.001ZM13.4302 311.536C12.838 312.22 12.6103 318.282 12.5192 320.288C12.4281 322.704 12.8836 325.895 15.4344 327.4C18.2585 329.041 22.859 328.175 27.824 325.12C33.2444 321.793 39.8947 319.377 45.2241 317.416C49.0503 316.003 53.0132 314.59 53.8786 313.633C54.1975 313.222 54.1519 313.04 54.1519 312.903C54.0152 312.174 52.831 311.217 51.9655 310.761L49.4147 310.214C43.9032 309.028 38.3005 308.801 32.7434 309.576L32.1968 313.086C31.9235 314.818 30.7392 316.368 29.0994 317.006C27.5507 317.644 25.8198 317.416 24.4988 316.413C23.9978 316.049 23.5423 315.547 23.1779 315.046C21.8114 313.131 17.1653 312.128 14.5234 311.9L14.0679 311.809C13.6579 311.536 13.4302 311.536 13.4302 311.536Z" fill="#1C1C1C"/>
<path d="M36.2051 322.386C20.0804 328.631 20.9003 322.249 18.1673 318.602C15.4343 314.955 11.2437 318.237 11.2437 318.237C11.1981 318.83 11.1981 319.514 11.1526 320.197C10.7882 329.953 18.805 332.323 28.5982 326.26C30.9668 324.847 33.5632 323.571 36.2051 322.386Z" fill="white"/>
<path d="M18.8051 331.001C17.0286 331.001 15.3888 330.591 14.0223 329.816C11.0616 328.083 9.55843 324.664 9.69508 320.151C9.74063 319.422 9.83172 317.553 9.83172 317.553L10.3328 317.143C10.3328 317.143 12.7925 315.182 15.6166 315.547C17.0742 315.73 18.304 316.505 19.3061 317.781C19.8527 318.51 20.2627 319.285 20.6271 320.06C22.2213 323.114 23.5423 325.804 35.7041 321.109L36.7518 323.707C33.7911 324.984 31.3769 326.214 29.3271 327.491C25.5465 329.816 21.948 331.001 18.8051 331.001ZM12.5647 319.057C12.5647 319.468 12.5192 319.878 12.5192 320.288C12.4281 322.704 12.8836 325.895 15.4344 327.4C17.7574 328.767 21.4014 328.402 25.3643 326.442C21.1737 326.397 19.5339 324.163 18.0763 321.337C17.7119 320.653 17.393 320.015 16.9831 319.468C16.482 318.784 15.8899 318.419 15.2522 318.328C14.2956 318.191 13.248 318.647 12.5647 319.057Z" fill="#1C1C1C"/>
<path d="M103.847 229.572C103.847 229.572 108.858 229.846 109.769 232.946C110.68 236.046 114.597 235.088 114.597 235.088L117.74 227.247C117.74 227.247 130.54 225.698 136.416 227.247C142.292 228.797 143.248 231.213 141.107 233.356C138.966 235.499 115.918 244.98 112.912 245.938C111.5 246.394 102.481 250.223 100.34 244.342C98.1991 238.462 101.934 230.393 101.934 230.393L103.847 229.572Z" fill="#E36F59"/>
<path d="M105.487 248.946C102.162 248.946 99.9754 247.578 98.9733 244.798C96.6503 238.461 100.476 230.119 100.613 229.8L100.841 229.298L103.619 228.204H103.938C104.166 228.204 109.951 228.569 111.135 232.581C111.5 233.811 112.775 233.903 113.595 233.857L116.738 225.971L117.558 225.879C118.104 225.834 130.676 224.33 136.734 225.925C140.606 226.974 142.838 228.478 143.385 230.438C143.658 231.395 143.612 232.809 142.064 234.404C139.558 236.911 116.009 246.484 113.322 247.305L112.821 247.487C109.951 248.445 107.491 248.946 105.487 248.946ZM102.936 231.441C102.207 233.219 99.9754 239.327 101.615 243.795C102.617 246.53 105.942 246.849 111.864 244.752C112.092 244.661 112.319 244.615 112.456 244.57C116.146 243.43 138.374 234.039 140.059 232.353C140.333 232.079 140.788 231.532 140.697 231.122C140.652 230.894 140.105 229.709 136.051 228.615C131.314 227.384 121.612 228.25 118.742 228.569L115.645 236.319L114.916 236.501C113.094 236.957 109.45 236.866 108.448 233.401C107.992 231.806 105.35 231.213 104.12 231.076L102.936 231.441Z" fill="#1C1C1C"/>
<path d="M122.295 242.154C117.786 244.069 106.125 244.707 105.624 239.602C105.077 234.542 100.021 236.319 100.021 236.319C99.52 238.827 99.3834 241.744 100.294 244.251C102.435 250.132 111.454 246.303 112.866 245.847C113.959 245.573 117.786 244.023 122.295 242.154Z" fill="white"/>
<path d="M105.487 248.946C102.162 248.946 99.9759 247.579 98.9738 244.798C98.1084 242.428 98.0173 239.51 98.655 236.091L98.7916 235.271L99.566 234.997C100.067 234.815 102.709 234.04 104.804 235.362C105.67 235.909 106.763 237.094 107.036 239.419C107.082 239.829 107.264 240.422 108.22 240.969C111.318 242.792 118.469 242.154 121.703 240.832L121.794 240.786L122.888 243.385L122.796 243.43C118.287 245.299 114.506 246.804 113.322 247.169L112.821 247.351C109.951 248.445 107.492 248.946 105.487 248.946ZM101.251 237.504C100.887 240.011 100.978 242.108 101.616 243.795C102.572 246.485 105.852 246.849 111.591 244.844C109.769 244.661 108.084 244.205 106.763 243.43C104.85 242.291 104.349 240.786 104.212 239.738C104.121 238.735 103.802 238.051 103.256 237.732C102.709 237.413 101.889 237.413 101.251 237.504Z" fill="#1C1C1C"/>
<path d="M22.6319 130.97C21.5387 130.97 20.8099 130.833 20.7188 130.833L21.2654 128.052C21.4476 128.098 25.9114 128.873 28.7355 125.545L30.8764 127.368C28.28 130.468 24.7727 130.97 22.6319 130.97Z" fill="#1C1C1C"/>
<path d="M172.537 108.131C169.713 103.299 165.659 103.937 165.477 103.983L164.976 101.202C165.203 101.157 171.125 100.108 174.997 106.718L172.537 108.131Z" fill="#1C1C1C"/>
<path d="M108.766 109.589C106.443 107.584 104.986 104.94 104.53 101.657L107.309 101.247C107.673 103.845 108.812 105.942 110.588 107.447L108.766 109.589Z" fill="#1C1C1C"/>
<path d="M107.264 112.097C107.264 112.097 106.672 109.635 105.624 105.35L108.357 104.666C109.405 108.951 109.997 111.458 109.997 111.458L107.264 112.097Z" fill="#1C1C1C"/>
<path d="M99.065 85.8853L96.5142 84.6545L97.7896 85.2471L96.5142 84.6545C96.5597 84.5178 97.7896 81.6458 94.2822 77.9078L96.332 75.9932C101.251 81.2356 99.1561 85.703 99.065 85.8853Z" fill="#1C1C1C"/>
<path d="M66.997 72.8474L64.3096 72.0724C64.4007 71.7533 66.5871 64.4139 75.196 63.6846L75.4238 66.4653C68.7735 67.0579 67.0426 72.6194 66.997 72.8474Z" fill="#1C1C1C"/>
<path d="M87.8137 150.799C85.354 150.799 82.3021 150.663 78.5215 150.252L78.7948 147.471C91.9588 148.885 96.1038 147.016 96.1038 147.016L97.3792 149.523C97.1059 149.66 94.6462 150.799 87.8137 150.799Z" fill="#1C1C1C"/>
<path d="M73.6936 149.66C55.6103 147.061 47.3657 140.36 47.0469 140.041L48.8233 137.898C48.9144 137.944 56.8857 144.417 74.1036 146.879L73.6936 149.66Z" fill="#1C1C1C"/>
<path d="M113.913 20.1952L111.089 20.1496C111.135 16.5028 107.081 12.6279 105.532 11.4427L107.218 9.20898C107.536 9.39133 114.05 14.4058 113.913 20.1952Z" fill="#1C1C1C"/>
<path d="M79.9787 182.983C77.8834 180.795 75.8792 178.379 75.7881 178.288L77.9745 176.51C77.9745 176.51 79.9787 178.926 81.9829 181.068L79.9787 182.983Z" fill="#E36F59"/>
<path d="M147.074 149.113C144.341 145.557 137.007 146.469 134.457 147.107L133.773 144.372C134.229 144.28 144.888 141.682 149.306 147.38L147.074 149.113Z" fill="#E36F59"/>
<path d="M133.824 169.596L127.875 170.742L128.409 173.518L134.358 172.372L133.824 169.596Z" fill="#E36F59"/>
<path d="M27.6878 298.362C22.7684 298.362 18.76 295.626 18.5322 295.444L20.1265 293.119C20.172 293.165 26.8679 297.678 32.6072 294.168L34.0648 296.538C31.9239 297.86 29.7375 298.362 27.6878 298.362Z" fill="#E36F59"/>
<path d="M118.241 220.546C112.912 220.546 109.086 218.084 108.903 217.948L110.452 215.577C110.498 215.623 114.961 218.449 120.61 217.492L121.065 220.273C120.109 220.5 119.152 220.546 118.241 220.546Z" fill="#E36F59"/>
<path d="M53.6058 231.168C53.0136 231.031 52.3759 230.895 51.8293 230.758C47.001 229.573 43.3115 227.84 43.1748 227.749L44.3591 225.196C44.3591 225.196 47.9576 226.883 52.467 227.977C53.0136 228.114 53.5602 228.251 54.1524 228.342L53.6058 231.168Z" fill="#E36F59"/>
<path d="M44.5869 129.055C43.9947 127.642 30.2842 93.8173 40.4419 69.9758C45.7712 57.394 53.0592 54.203 58.2519 53.7471C64.8567 53.1545 70.9148 56.847 72.3269 58.9895L68.7284 61.36C68.1818 60.6306 63.6724 57.394 58.2519 58.0778C52.6037 58.7616 47.9576 63.3202 44.4047 71.6169C34.9759 93.8173 48.4587 127.004 48.5953 127.369L44.5869 129.055Z" fill="#1C1C1C"/>
<path d="M42.3916 101.388L36.9385 102.19L37.3491 104.987L42.8022 104.185L42.3916 101.388Z" fill="#E36F59"/>
<path d="M34.1315 167.334L32.9355 170.487L35.5758 171.49L36.7717 168.336L34.1315 167.334Z" fill="#1C1C1C"/>
<path d="M31.5757 174.05L27.9395 183.64L30.5797 184.642L34.216 175.053L31.5757 174.05Z" fill="#1C1C1C"/>
<path d="M39.3763 170.564L37.4131 176.971L40.1132 177.799L42.0764 171.392L39.3763 170.564Z" fill="#1C1C1C"/>
<path d="M36.5795 179.562L34.082 187.712L36.7819 188.541L39.2793 180.391L36.5795 179.562Z" fill="#1C1C1C"/>
<path d="M43.3449 178.923L40.1631 190.198L42.881 190.966L46.0628 179.691L43.3449 178.923Z" fill="#1C1C1C"/>
<path d="M43.4023 314.408L40.6238 314.089C41.0337 310.396 37.0709 309.074 36.8887 309.028L37.7086 306.339C39.895 307.023 43.9034 309.576 43.4023 314.408Z" fill="#1C1C1C"/>
<path d="M129.492 232.672L126.668 232.627C126.759 228.524 123.57 228.159 122.933 228.159L123.024 225.333C125.301 225.424 129.628 227.02 129.492 232.672Z" fill="#1C1C1C"/>
<path d="M61.7139 57.4844L46.7735 66.2369C45.3159 67.1031 43.4484 66.6016 42.6285 65.1428L42.4007 64.7326C41.5353 63.2738 42.0363 61.4048 43.4939 60.5842L58.4343 51.8317C59.8919 50.9656 61.7595 51.467 62.5794 52.9258L62.8071 53.3361C63.6726 54.7948 63.1715 56.6182 61.7139 57.4844Z" fill="white"/>
<path d="M45.2243 68.0608C43.6756 68.0608 42.218 67.2859 41.3981 65.8727L41.1703 65.4624C40.5782 64.4595 40.396 63.2287 40.7148 62.0891C41.0337 60.9494 41.7625 59.9921 42.7646 59.3539L57.7505 50.6014C59.8458 49.3705 62.5789 50.0999 63.8543 52.1969L64.082 52.6071C65.3119 54.7497 64.5831 57.4393 62.4878 58.7157L47.5473 67.4682C46.773 67.8785 45.9986 68.0608 45.2243 68.0608ZM59.9369 52.7895C59.6636 52.7895 59.3448 52.8807 59.117 53.0174L44.1766 61.77C43.4023 62.2258 43.129 63.2287 43.5845 64.0037L43.8122 64.414C44.04 64.7786 44.4044 65.0522 44.8143 65.1889C45.2243 65.2801 45.6798 65.2345 46.0442 65.0066L60.9846 56.254C61.7589 55.7982 62.0323 54.7953 61.5768 54.0203L61.349 53.61C61.1213 53.2454 60.7568 52.9718 60.3469 52.8351C60.2102 52.8351 60.0736 52.7895 59.9369 52.7895Z" fill="#1C1C1C"/>
<path d="M102.846 39.1136L112.867 40.9371L113.823 37.8828L117.649 38.4754C118.378 38.5666 118.834 39.296 118.652 39.9798L117.285 45.0854C117.148 45.678 116.556 46.0427 115.964 45.9971L111.773 45.5413L112.548 41.4841L102.846 39.1136Z" fill="#E36F59"/>
<path d="M116.055 47.4098C115.964 47.4098 115.873 47.4098 115.781 47.4098L110.088 46.7716L110.908 42.5321L102.526 40.4807L103.119 37.7455L111.91 39.3866L112.821 36.3779L117.831 37.1529C118.56 37.2897 119.198 37.6999 119.608 38.2926C120.018 38.9308 120.154 39.6601 119.926 40.3895L118.56 45.4952C118.287 46.6348 117.239 47.4098 116.055 47.4098ZM113.413 44.3099L115.918 44.5834L117.148 39.8425L114.779 39.4778L113.823 42.5776H113.732L113.413 44.3099Z" fill="#1C1C1C"/>
<path d="M85.4 143.506C77.6565 143.506 68.2732 139.859 67.8633 139.677L68.9109 137.078C69.002 137.124 78.2031 140.679 85.4 140.679H85.4911V143.506H85.4Z" fill="#1C1C1C"/>
<path d="M103.647 38.262L103.084 40.3291L110.863 42.4504L111.425 40.3832L103.647 38.262Z" fill="#1C1C1C"/>
<path d="M112.729 127.459L106.398 129.328C104.667 129.83 102.845 128.827 102.344 127.094C101.843 125.362 102.845 123.539 104.576 123.037L110.907 121.168C112.638 120.667 114.46 121.67 114.961 123.402C115.462 125.134 114.46 126.958 112.729 127.459Z" fill="white"/>
<path d="M105.487 130.879C103.483 130.879 101.57 129.557 100.977 127.505C100.613 126.32 100.75 125.043 101.342 123.949C101.934 122.855 102.936 122.035 104.12 121.716L110.452 119.847C111.636 119.482 112.911 119.619 114.005 120.211C115.098 120.804 115.918 121.807 116.237 122.992C116.965 125.454 115.553 128.098 113.048 128.827L106.717 130.696C106.352 130.787 105.897 130.879 105.487 130.879ZM111.818 122.445C111.636 122.445 111.454 122.491 111.272 122.536L104.94 124.405C104.439 124.542 104.075 124.861 103.847 125.317C103.619 125.773 103.574 126.274 103.71 126.73C103.984 127.733 105.031 128.28 106.033 128.007L112.365 126.138C112.866 126.001 113.23 125.682 113.458 125.226C113.686 124.77 113.731 124.269 113.595 123.813C113.458 123.311 113.139 122.947 112.684 122.719C112.41 122.536 112.092 122.445 111.818 122.445Z" fill="#1C1C1C"/>
<path d="M116.601 138.856L110.27 140.725C108.539 141.226 106.717 140.223 106.216 138.491C105.715 136.759 106.717 134.935 108.448 134.434L114.779 132.565C116.51 132.063 118.332 133.066 118.833 134.798C119.334 136.485 118.332 138.309 116.601 138.856Z" fill="white"/>
<path d="M109.359 142.229C107.355 142.229 105.442 140.907 104.849 138.856C104.485 137.67 104.622 136.394 105.214 135.3C105.806 134.206 106.808 133.385 107.992 133.066L114.324 131.197C115.508 130.833 116.784 130.969 117.877 131.562C118.97 132.155 119.79 133.157 120.109 134.343C120.838 136.804 119.425 139.448 116.92 140.178L110.589 142.047C110.224 142.184 109.814 142.229 109.359 142.229ZM115.69 133.796C115.508 133.796 115.326 133.841 115.144 133.887L108.812 135.756C108.311 135.893 107.947 136.212 107.719 136.668C107.491 137.123 107.446 137.625 107.582 138.081C107.856 139.084 108.903 139.631 109.905 139.357L116.237 137.488C117.239 137.215 117.786 136.166 117.512 135.163C117.376 134.662 117.057 134.297 116.601 134.069C116.328 133.887 116.009 133.796 115.69 133.796Z" fill="#1C1C1C"/>
<path d="M47.32 135.619C45.7257 134.48 42.5828 134.206 41.5352 134.206V132.063C41.7174 132.063 46.1357 132.063 48.5954 133.887L47.32 135.619Z" fill="#E36F59"/>
<path d="M181.009 106.626L179.597 104.985C184.881 100.427 186.065 97.0076 186.111 94.9562C186.156 92.7225 184.926 91.5828 184.881 91.5372C180.553 88.4374 175.497 95.0018 175.452 95.0929L174.677 96.1414L171.58 92.7681L173.174 91.3093L174.541 92.8136C177.092 90.0329 181.829 86.7507 186.202 89.8961C186.384 90.0329 188.251 91.7652 188.206 94.9562C188.206 98.5575 185.746 102.478 181.009 106.626Z" fill="#E36F59"/>
<path d="M37.1623 29.8594H35.0215V40.8456H37.1623V29.8594Z" fill="white"/>
<path d="M41.5801 34.2812H30.6025V36.4238H41.5801V34.2812Z" fill="white"/>
</svg>
