<svg width="209" height="333" viewBox="0 0 209 333" fill="none" xmlns="http://www.w3.org/2000/svg">
<path d="M183.285 274.392C183.285 274.392 188.524 289.755 191.53 296.593C194.536 303.431 210.433 304.069 206.288 282.598C204.739 274.438 202.826 268.238 201.095 263.634C198.727 257.343 192.168 253.696 185.563 254.927L183.24 266.871V274.392H183.285Z" fill="#E36F59"/>
<path d="M198.545 302.245C195.037 302.245 191.621 300.285 190.255 297.14C187.248 290.302 182.192 275.441 181.964 274.803L181.919 274.347V266.552L184.424 253.696L185.381 253.514C192.623 252.146 199.866 256.204 202.462 263.133C204.557 268.694 206.334 275.167 207.7 282.324C210.661 297.641 203.555 301.106 201.278 301.835C200.412 302.109 199.456 302.245 198.545 302.245ZM184.697 274.164C185.335 276.079 190.072 289.755 192.805 296.046C193.944 298.644 197.497 300.103 200.412 299.146C204.922 297.732 206.607 291.669 204.876 282.871C203.51 275.897 201.824 269.606 199.775 264.181C197.725 258.802 192.395 255.565 186.747 256.203L184.652 267.007V274.164H184.697Z" fill="#1C1C1C"/>
<path d="M200.822 263.68C198.454 257.434 192.031 253.787 185.517 254.927C185.381 254.927 185.29 255.018 185.29 255.155L183.787 262.768C183.741 262.905 183.832 263.087 184.014 263.087C186.747 263.497 194.81 265.093 202.735 270.928C202.963 271.065 203.236 270.882 203.145 270.609C202.371 267.965 201.551 265.64 200.822 263.68Z" fill="#1C1C1C"/>
<path d="M202.872 272.341C202.507 272.341 202.189 272.25 201.87 272.022C194.081 266.278 186.064 264.774 183.786 264.455L183.194 264.363L182.693 263.771C182.42 263.406 182.329 262.95 182.42 262.494L183.923 254.881C184.06 254.198 184.606 253.651 185.29 253.514C192.486 252.283 199.547 256.34 202.143 263.178C202.963 265.366 203.783 267.737 204.466 270.198C204.648 270.882 204.421 271.657 203.828 272.067C203.555 272.25 203.191 272.341 202.872 272.341ZM185.381 261.856C188.341 262.403 194.445 263.953 200.822 267.919C200.412 266.597 199.957 265.366 199.501 264.135C197.497 258.802 192.077 255.52 186.474 256.158L185.381 261.856Z" fill="#1C1C1C"/>
<path d="M192.806 261.947C192.031 260.398 190.893 259.03 189.526 257.981C185.427 254.882 175.998 247.405 169.393 240.203C161.513 231.542 154.453 217.455 137.964 214.903C135.64 211.848 134.912 198.811 134.912 198.811L125.984 188.28L106.124 190.56C106.124 190.56 106.17 208.247 111.59 220.418C116.965 232.544 126.667 236.191 126.667 236.191C126.667 236.191 170.304 253.24 179.095 267.053C187.932 280.866 187.841 288.752 196.313 286.017C203.054 283.829 195.903 268.102 192.806 261.947Z" fill="#FFDCCB"/>
<path d="M193.216 288.022C188.706 288.022 186.702 284.102 183.741 278.267C182.284 275.395 180.462 271.839 177.865 267.828C169.393 254.562 126.53 237.65 126.12 237.513C125.71 237.376 115.826 233.547 110.269 221.011C104.803 208.748 104.712 191.334 104.712 190.605V189.329L126.576 186.821L136.278 198.263L136.324 198.719C136.597 203.323 137.508 211.073 138.829 213.626C151.902 215.86 159.053 225.022 165.385 233.091C167.115 235.325 168.755 237.376 170.441 239.245C176.954 246.402 186.565 253.924 190.346 256.842C191.895 258.027 193.17 259.531 194.036 261.309C197.178 267.6 202.143 278.951 199.866 284.421C199.274 285.88 198.135 286.928 196.677 287.384C195.402 287.795 194.263 288.022 193.216 288.022ZM107.536 191.836C107.673 196.03 108.447 209.979 112.82 219.871C117.921 231.359 127.031 234.869 127.123 234.915C128.945 235.644 171.306 252.283 180.234 266.369C182.876 270.517 184.743 274.119 186.201 277.036C189.982 284.376 191.166 286.245 195.812 284.74C196.541 284.512 196.996 284.056 197.27 283.327C198.591 280.136 196.45 272.386 191.53 262.585C190.847 261.218 189.845 260.033 188.615 259.121C184.743 256.158 174.996 248.545 168.3 241.16C166.569 239.245 164.883 237.103 163.107 234.869C157.003 227.074 150.08 218.23 137.736 216.315L137.189 216.224L136.825 215.814C134.456 212.669 133.636 202.047 133.454 199.403L125.346 189.784L107.536 191.836Z" fill="#1C1C1C"/>
<path d="M72.8726 301.972C72.8726 301.972 58.5243 312.593 53.8782 322.394C49.2321 332.195 59.0254 333.973 69.7752 326.315C80.525 318.611 85.8543 321.528 90.5004 314.599C95.1465 307.67 87.3575 294.541 87.3575 294.541L72.8726 301.972Z" fill="#E36F59"/>
<path d="M57.7948 332.469C55.9273 332.469 54.333 332.013 53.1487 331.01C51.8277 329.916 50.0057 327.272 52.6477 321.756C57.3849 311.727 71.4598 301.242 72.052 300.832L87.9034 292.672L88.5866 293.812C88.9055 294.359 96.7856 307.761 91.684 315.374C88.951 319.477 85.8081 320.525 82.2096 321.71C79.2033 322.713 75.4682 323.944 70.5944 327.409C65.9938 330.691 61.3933 332.469 57.7948 332.469ZM73.6462 303.157C72.4619 304.068 59.4346 314.006 55.1984 322.987C54.4241 324.628 53.3764 327.545 54.9707 328.867C56.9293 330.508 62.532 329.779 69.0001 325.129C74.1928 321.437 78.1557 320.115 81.3442 319.021C84.8515 317.835 87.129 317.06 89.361 313.778C92.4584 309.174 88.9966 300.513 86.8102 296.364L73.6462 303.157Z" fill="#1C1C1C"/>
<path d="M82.6651 319.75C82.574 319.841 82.6195 320.024 82.7561 319.978C85.8535 318.93 88.2677 317.881 90.4996 314.553C94.918 307.943 88.0855 295.726 87.4023 294.541C87.3567 294.495 87.3111 294.45 87.2656 294.495L84.4415 295.954L84.3959 296.045L82.0273 303.339V303.43L84.5781 308.536C84.5781 308.536 87.9489 315.693 82.6651 319.75Z" fill="#1C1C1C"/>
<path d="M82.1187 321.665L81.4354 320.571C81.071 319.887 81.2532 319.067 81.8454 318.611C86.1271 315.329 83.4397 309.357 83.303 309.083L80.5244 303.522L83.2574 294.997L87.858 292.581L88.6779 293.766C90.0444 296.137 96.5125 308.171 91.7298 315.283C89.2245 319.021 86.4004 320.206 83.303 321.255L82.1187 321.665ZM83.4852 303.294L85.8083 307.898C86.7193 309.858 87.6303 313.46 86.5371 316.696C87.5392 316.012 88.4501 315.101 89.3611 313.779C92.3219 309.357 89.3611 301.242 86.8103 296.365L85.5349 297.003L83.4852 303.294Z" fill="#1C1C1C"/>
<path d="M70.5486 217.227C70.5486 217.227 72.4161 235.371 74.147 254.745C75.4224 268.603 75.058 282.598 74.6481 291.989C74.4659 295.681 73.0538 303.659 70.8674 306.439C68.3166 309.676 65.4014 314.007 66.4035 315.511C67.8611 317.79 77.5177 313.915 84.6235 308.536C86.1267 307.397 87.3565 305.847 88.1764 304.023C89.1785 301.835 89.634 299.373 89.4063 296.912C88.8141 289.8 89.9073 271.156 94.3712 255.064C100.293 233.775 99.655 217.546 94.8267 209.888C89.9984 202.321 70.5486 217.227 70.5486 217.227Z" fill="#FFDCCB"/>
<path d="M68.1805 317.608C67.8617 317.608 67.5428 317.562 67.224 317.517C66.0852 317.334 65.4931 316.742 65.1742 316.286C64.3088 314.964 64.2177 312.685 69.7292 305.573C71.5968 303.203 73.0544 295.772 73.2366 291.943C73.6465 282.735 74.0109 268.876 72.7811 254.927C71.0502 235.781 69.0915 216.635 69.0915 216.635L69.7292 216.179C70.3214 215.723 84.2142 205.147 91.9577 206.515C93.7797 206.834 95.1462 207.745 96.0572 209.204C101.523 217.865 101.386 235.188 95.7383 255.474C91.1833 271.885 90.2723 290.484 90.8189 296.821C91.0467 299.556 90.5912 302.245 89.4524 304.616C88.4959 306.667 87.1293 308.399 85.4895 309.676C80.1602 313.687 72.4167 317.608 68.1805 317.608ZM72.0067 217.911C72.3711 221.604 74.0109 237.741 75.5141 254.653C76.7895 268.785 76.4251 282.78 76.0152 292.08C75.8785 295.681 74.4665 304.114 71.9157 307.351C67.2696 313.323 67.5428 314.873 67.5428 314.873C68.6816 315.511 76.5617 312.912 83.6675 307.488C84.9429 306.485 86.0361 305.117 86.8105 303.476C87.7215 301.516 88.0859 299.328 87.9037 297.094C87.266 289.572 88.4503 270.928 92.9142 254.745C98.2891 235.462 98.5169 218.595 93.5519 210.708C93.0509 209.933 92.3676 209.478 91.32 209.295C86.2639 208.338 76.2429 214.811 72.0067 217.911Z" fill="#1C1C1C"/>
<path d="M143.156 204.6H157.048C157.048 204.6 167.434 195.938 163.608 180.257C159.781 164.575 137.143 190.878 137.143 190.878L143.156 204.6Z" fill="#E36F59"/>
<path d="M157.595 206.013H142.245L135.503 190.605L136.096 189.921C137.69 188.098 151.81 172.006 160.1 174.012C162.56 174.604 164.245 176.61 165.02 179.892C168.983 196.258 158.415 205.284 158.005 205.648L157.595 206.013ZM144.067 203.187H156.502C158.278 201.5 165.43 193.705 162.241 180.576C161.421 177.248 159.873 176.883 159.372 176.747C154.589 175.607 144.431 184.679 138.737 191.106L144.067 203.187Z" fill="#1C1C1C"/>
<path d="M47.227 194.252L42.9453 212.806C42.9453 212.806 107.854 247.953 158.779 189.876L105.713 172.325L63.124 179.756L47.227 194.252Z" fill="#E36F59"/>
<path d="M88.4048 224.567C62.3046 224.567 42.627 214.219 42.3082 214.036L41.3516 213.535L45.9522 193.522L62.4868 178.433L105.805 170.866L161.239 189.192L159.827 190.787C136.551 217.318 110.223 224.567 88.4048 224.567ZM44.5401 212.03C52.6024 215.951 110.223 241.16 156.274 190.514L105.577 173.738L63.7622 181.032L48.5029 194.981L44.5401 212.03Z" fill="#1C1C1C"/>
<path d="M149.669 194.435C149.669 194.435 138.418 201.546 118.194 194.435C97.97 187.323 140.24 175.334 140.24 175.334L157.094 178.16V188.919L149.669 194.435Z" fill="white"/>
<path d="M135.367 199.038C130.538 199.038 124.663 198.218 117.693 195.802C116.099 195.255 111.18 193.522 111.271 189.83C111.499 182.445 135.093 175.379 139.831 174.057L140.15 173.966L158.461 177.066V189.693L150.398 195.71C150.079 195.847 144.887 199.038 135.367 199.038ZM140.332 176.792C127.76 180.393 114.232 186.365 114.14 189.875C114.095 190.924 115.78 192.109 118.695 193.112C137.371 199.676 148.212 193.705 148.941 193.249L155.728 188.189V179.345L140.332 176.792Z" fill="#1C1C1C"/>
<path d="M74.1471 78.6458C74.1471 78.6458 69.7287 95.7862 69.2732 106.499C69.2732 106.681 69.091 106.818 68.9088 106.772C66.9957 106.362 57.1114 104.493 46.2705 107.821C37.7526 110.465 23.2222 109.781 23.2222 109.781C23.2222 109.781 18.2117 105.131 15.9342 104.721C13.7933 104.356 13.0645 107.73 15.752 110.966C15.9797 111.24 15.7975 111.605 15.4331 111.559L5.82203 110.055C4.27333 109.827 2.77019 110.602 2.13249 112.015C1.54034 113.337 1.7681 114.841 2.7702 115.89C5.63986 118.944 12.2446 124.414 20.5803 121.223L26.0918 120.448C26.0918 120.448 50.0056 121.633 71.0497 122.181C73.6005 122.226 76.1513 121.907 78.5655 121.132C79.9775 120.676 81.1162 119.582 81.5717 118.169C83.3027 112.835 87.6755 99.0684 90.864 86.8513C94.9179 71.3064 80.433 74.4063 80.433 74.4063L74.1471 78.6458Z" fill="white"/>
<path d="M71.6874 123.594C71.4597 123.594 71.2775 123.594 71.0497 123.594C51.0533 123.092 28.1416 121.998 26.183 121.907L20.9447 122.636C11.7436 126.055 4.45561 119.764 1.76816 116.892C0.356109 115.388 0.037248 113.246 0.902698 111.422C1.8137 109.462 3.95456 108.322 6.09541 108.687L13.3378 109.827C12.3813 107.821 12.4724 105.952 13.1557 104.812C13.7934 103.718 14.9321 103.171 16.2075 103.399C18.5305 103.809 22.4023 107.183 23.8143 108.459C26.4107 108.55 38.5725 108.824 45.8605 106.544C55.4261 103.581 64.3539 104.584 67.9068 105.222C68.59 94.4641 72.5529 79.0559 72.7351 78.3722L72.8717 77.8707L80.1597 73.0842C80.433 73.0386 87.0833 71.671 90.7729 75.5458C93.1415 78.053 93.6425 81.9734 92.276 87.307C89.0875 99.5241 84.7147 113.337 82.9838 118.716C82.3917 120.585 80.9341 122.044 79.0665 122.591C76.6524 123.229 74.1927 123.594 71.6874 123.594ZM26.0918 119.035H26.2285C26.4562 119.035 50.37 120.22 71.1408 120.767C73.555 120.813 75.9236 120.494 78.2011 119.764C79.2032 119.445 79.9775 118.67 80.2963 117.713C82.0273 112.379 86.3545 98.6124 89.543 86.4865C90.6818 82.2014 90.4085 79.1471 88.7231 77.4149C86.4911 75.0444 82.0728 75.5914 80.9796 75.7282L75.3314 79.5574C74.6026 82.4749 71.0042 97.1992 70.6398 106.59C70.5942 107.091 70.3665 107.547 70.0021 107.866C69.5921 108.185 69.0911 108.277 68.6356 108.185C66.8136 107.775 57.2025 105.952 46.726 109.188C38.0715 111.878 23.8144 111.24 23.1767 111.194L22.6756 111.149L22.3112 110.784C20.3526 108.96 17.0274 106.316 15.752 106.089C15.6153 106.089 15.5243 106.225 15.4787 106.59C15.3876 107.365 15.7064 108.641 16.8907 110.055C17.3918 110.647 17.4374 111.422 17.073 112.06C16.7086 112.699 16.0253 113.018 15.2965 112.926L5.68545 111.422C4.77445 111.285 3.86343 111.741 3.49903 112.607C3.13463 113.382 3.27129 114.294 3.90899 114.932C6.77864 117.986 12.7457 122.727 20.1703 119.947L20.4892 119.856L26.0918 119.035Z" fill="#1C1C1C"/>
<path d="M78.7482 26.7686C78.065 26.1759 77.0173 26.723 77.0628 27.5891C77.3361 31.5095 77.1084 39.1224 72.4167 42.4502C65.9031 47.0544 58.114 59.1347 65.2654 74.8163C72.4167 90.4979 80.2513 61.5964 80.2513 61.5964L88.9514 35.2932L78.7482 26.7686Z" fill="#E36F59"/>
<path d="M69.8198 80.9251C67.5878 80.9251 65.6292 79.1017 63.9439 75.4548C56.1093 58.3144 65.4926 45.6415 71.5507 41.3564C75.8324 38.3477 75.8324 30.826 75.6047 27.7261C75.5591 26.7688 76.0602 25.8571 76.9256 25.4012C77.7911 24.9454 78.8387 25.0821 79.6131 25.7203L90.5451 34.8832L81.5717 62.098C80.7518 65.1067 76.2879 80.4237 70.1842 80.9251C70.0476 80.9251 69.9109 80.9251 69.8198 80.9251ZM78.4743 28.4099C78.6565 32.9685 78.0644 40.1711 73.1905 43.6357C67.7701 47.4649 59.4344 58.7703 66.4947 74.2695C67.6334 76.7768 68.9544 78.2355 69.9109 78.0988C72.9628 77.8709 77.0623 67.8875 78.8387 61.2775L87.2655 35.8405L78.4743 28.4099Z" fill="#1C1C1C"/>
<path d="M73.4643 62.5531C73.4643 62.5531 63.2155 73.1747 70.4124 84.6168L75.6507 85.8932C75.6507 85.8932 78.9303 126.055 67.9072 140.597C50.5526 163.481 39.9395 191.471 39.9395 191.471C39.9395 191.471 63.671 231.632 125.3 206.696C125.3 206.696 136.096 200.406 137.143 190.832C138.191 181.305 151.674 176.974 151.856 188.234L149.624 194.434C149.624 194.434 160.829 193.568 163.608 180.211C166.341 166.854 126.211 156.688 120.108 142.238C114.049 127.832 128.443 97.5177 128.443 97.5177L140.286 66.7926L126.94 51.7492L101.796 45.3672L82.9387 48.467L73.4643 62.5531Z" fill="#1C1C1C"/>
<path d="M87.8576 216.179C53.3763 216.179 38.8913 192.52 38.7091 192.2L38.3447 191.608L38.5725 190.97C38.6636 190.696 49.4134 162.524 66.7224 139.731C76.3335 127.058 74.6937 93.2786 74.2837 86.9877L69.501 85.8025L69.1821 85.3011C61.8486 73.6766 71.2318 62.7815 72.325 61.5963L82.1639 47.0999L101.887 43.8633L127.714 50.3821L141.925 66.3828L129.764 97.9284C129.581 98.3387 115.643 127.924 121.428 141.6C124.07 147.8 133.909 153.452 143.429 158.877C155.363 165.715 166.659 172.143 164.974 180.348C162.059 194.571 149.851 195.665 149.715 195.665L147.574 195.847L150.443 187.87C150.307 184.724 148.986 182.901 146.708 182.81C143.292 182.719 139.101 186.046 138.555 190.833C137.416 200.953 126.484 207.472 125.983 207.745C111.27 213.899 98.6074 216.179 87.8576 216.179ZM41.4877 191.334C44.7217 196.258 68.3167 228.259 124.753 205.375C124.753 205.375 134.774 199.357 135.731 190.696C136.459 184.223 142.153 179.938 146.799 180.166C149.851 180.302 153.131 182.491 153.222 188.234V188.508L151.764 192.565C154.907 191.562 160.419 188.599 162.195 179.983C163.471 173.784 152.539 167.538 141.971 161.521C132.041 155.823 121.747 149.942 118.741 142.876C112.5 128.061 126.484 98.2475 127.076 96.9711L138.6 67.1122L126.12 53.0261L101.659 46.8264L83.7125 49.7895L74.3748 63.5565C74.0104 63.9668 65.2648 73.2207 71.2319 83.432L76.88 84.7996L76.9712 85.8025C77.1078 87.4436 80.1596 126.693 68.9088 141.463C53.4218 162.022 43.173 187.004 41.4877 191.334Z" fill="#1C1C1C"/>
<path d="M75.1953 84.0247C75.1497 83.7056 74.4209 76.275 76.3795 70.8047L78.4293 71.5341C76.6073 76.5485 77.3361 83.7056 77.3361 83.7967L75.1953 84.0247Z" fill="#E36F59"/>
<path d="M150.717 181.806C150.717 181.761 148.348 174.33 130.811 167.492C111.999 160.153 110.086 148.893 109.995 148.437L112.136 148.118C112.136 148.209 114.049 158.649 131.586 165.532C150.307 172.871 152.676 180.986 152.767 181.305L150.717 181.806Z" fill="#E36F59"/>
<path d="M118.513 206.013L116.919 204.554C117.647 203.779 118.285 201.454 118.148 197.944C118.012 194.844 116.782 183.904 106.579 174.695C93.1415 162.524 95.3279 151.401 95.419 150.899L97.5143 151.355C97.5143 151.446 95.5101 161.84 107.991 173.1C118.832 182.901 120.107 194.525 120.244 197.853C120.517 201.546 119.834 204.6 118.513 206.013Z" fill="#E36F59"/>
<path d="M160.192 183.448L158.233 182.536C159.144 180.53 159.19 178.707 158.415 176.838C156.229 171.641 148.121 168.769 148.03 168.723L148.759 166.672C149.123 166.809 157.869 169.954 160.419 175.971C161.421 178.433 161.33 180.895 160.192 183.448Z" fill="#E36F59"/>
<path d="M97.5146 122.864V120.722C97.6513 120.722 109.039 120.63 117.602 115.16L118.786 116.984C109.631 122.773 97.9701 122.864 97.5146 122.864Z" fill="#E36F59"/>
<path d="M75.5594 210.024C58.4781 208.93 44.3576 192.929 43.7654 192.291L43.3555 191.79L49.3225 175.926L51.3267 176.701L45.8607 191.334C48.3204 193.978 61.1655 206.97 75.7415 207.882L75.5594 210.024Z" fill="#E36F59"/>
<path d="M65.6749 110.92C64.1717 108.276 62.623 106.316 62.623 106.316L64.855 104.584C64.9006 104.675 66.5403 106.727 68.1346 109.507L65.6749 110.92Z" fill="#1C1C1C"/>
<path d="M137.781 220.144C137.781 220.144 137.143 216.68 136.232 214.719L138.783 213.534C139.831 215.813 140.514 219.46 140.514 219.643L137.781 220.144Z" fill="#1C1C1C"/>
<path d="M99.4734 83.933C99.4734 85.3006 98.3802 86.4403 96.9681 86.4403C95.6016 86.4403 94.4629 85.3462 94.4629 83.933C94.4629 82.5654 95.5561 81.4258 96.9681 81.4258C98.3802 81.4258 99.4734 82.5654 99.4734 83.933Z" fill="#E36F59"/>
<path d="M106.807 80.8334C106.807 82.201 105.714 83.3406 104.302 83.3406C102.936 83.3406 101.797 82.2466 101.797 80.8334C101.797 79.4658 102.89 78.3262 104.302 78.3262C105.669 78.3262 106.807 79.4658 106.807 80.8334Z" fill="#E36F59"/>
<path d="M102.844 49.6528C95.6473 54.7585 89.5436 54.257 89.5436 54.257C77.0629 38.7577 83.7588 20.6144 83.7588 20.6144C83.7588 20.6144 101.523 13.8221 110.178 23.5775L120.108 30.4155C120.108 30.4155 110.223 49.4249 118.696 56.0349C127.168 62.5993 94.9641 78.7367 92.2311 78.7367C89.4981 78.7367 87.3572 65.6079 93.0965 54.5761L102.844 49.6528Z" fill="#FFDCCB"/>
<path d="M92.2309 80.1044C91.5477 80.1044 90.5911 79.8308 89.7712 78.4633C87.5393 74.7252 87.0382 64.6051 91.0011 55.6702C90.0445 55.7158 89.4979 55.7158 89.4068 55.6702L88.8147 55.6246L88.4503 55.1688C75.6052 39.2592 82.1644 20.9336 82.4377 20.1586L82.6654 19.566L83.2575 19.3381C84.0319 19.0646 101.842 12.3634 111.134 22.5747L121.975 30.0052L121.383 31.0993C118.787 36.1138 113.412 50.1543 119.561 54.9408C121.383 56.354 121.93 58.3142 121.201 60.4568C118.377 68.7534 94.8273 80.1044 92.2309 80.1044ZM94.2807 55.1232L94.3718 55.1688C89.2702 64.9698 90.91 75.9104 92.4131 77.278C95.465 76.6854 116.828 65.8359 118.65 59.3171C118.923 58.4054 118.695 57.7672 117.876 57.129C109.768 50.8381 116.281 35.2476 118.377 30.8714L109.176 24.4893C102.115 16.5573 88.0403 20.6601 84.8974 21.663C83.9408 24.854 80.1602 39.8518 90.2267 52.7983C91.821 52.7527 96.6037 52.2512 102.024 48.422L103.664 50.7013C100.111 53.2997 96.7859 54.5306 94.2807 55.1232Z" fill="#1C1C1C"/>
<path d="M89.4522 45.0942C88.8601 45.0942 88.5412 44.9575 88.4045 44.9119L87.858 44.684L86.9014 39.2592L89.0423 38.8945L89.7255 42.9061C90.0899 42.8605 90.6365 42.7238 91.3198 42.3591L92.2763 44.2737C91.092 44.9575 90.1355 45.0942 89.4522 45.0942Z" fill="#1C1C1C"/>
<path d="M90.7275 49.2884C90.3176 49.2884 89.9076 49.2428 89.4521 49.1516L89.9532 47.0546C91.9118 47.5105 93.0961 46.0973 93.1417 46.0518L94.827 47.4193C94.7359 47.4649 93.2783 49.2884 90.7275 49.2884Z" fill="#1C1C1C"/>
<path d="M90.8184 36.6603C90.9551 38.0278 91.775 39.0763 92.686 38.9851C93.5514 38.894 94.1891 37.7087 94.0069 36.3411C93.8703 34.9736 93.0503 33.9251 92.1393 34.0163C91.2739 34.1074 90.6818 35.2927 90.8184 36.6603Z" fill="#1C1C1C"/>
<path d="M82.5284 37.7091C82.665 39.0767 83.4849 40.1251 84.3959 40.034C85.2614 39.9428 85.8991 38.7576 85.7169 37.39C85.5802 36.0224 84.7604 34.9739 83.8494 35.0651C82.9839 35.1563 82.3917 36.3415 82.5284 37.7091Z" fill="#1C1C1C"/>
<path d="M62.4838 147.241L54.2822 150.145L55.0114 152.207L63.2129 149.304L62.4838 147.241Z" fill="#E36F59"/>
<path d="M81.9825 132.665C81.9825 132.665 78.4752 92.5492 78.3841 91.4551C78.3841 91.3183 78.293 91.2728 78.1563 91.2272L48.2755 96.5607H48.23L44.0393 80.1953C43.9482 80.1497 43.8571 80.1497 43.766 80.1953L17.4381 98.5209C17.3926 98.5665 17.3015 98.5665 17.2559 98.5665L11.8355 97.5636C11.6533 97.518 11.5166 97.6548 11.5166 97.8372C11.6533 99.2047 15.0695 138.591 15.1151 138.728C15.2973 139.594 15.8439 140.46 16.7549 140.916L46.0891 154.683C48.5943 155.868 51.5096 155.595 53.7871 154.045L80.7071 135.309C81.6181 134.625 82.0281 133.622 81.9825 132.665Z" fill="#75B687"/>
<path d="M49.3686 156.78C48.0477 156.78 46.7267 156.507 45.4969 155.914L16.1627 142.147C14.8873 141.554 14.0218 140.415 13.7485 139.002C13.7029 138.819 13.703 138.774 11.1977 110.191C10.6055 103.627 10.15 98.3844 10.1045 97.883C10.0589 97.3815 10.2412 96.8801 10.6511 96.5154C11.0155 96.1507 11.5621 96.0139 12.0632 96.1051L17.0281 97.0168L42.9916 78.9647C43.4471 78.6456 44.0848 78.5545 44.6314 78.828L45.2235 79.1015L49.2775 94.8743L78.1562 89.7231L78.4295 89.7686C79.1583 89.9054 79.7505 90.498 79.796 91.2274L83.3945 132.483V132.62C83.4856 134.033 82.7568 135.446 81.527 136.312L54.6069 155.048C53.0582 156.233 51.2362 156.78 49.3686 156.78ZM13.0652 99.205C13.2474 101.302 16.4815 138.09 16.527 138.546C16.5726 138.774 16.7548 139.321 17.3925 139.594L46.7267 153.361C48.7765 154.319 51.1906 154.091 53.0126 152.814L79.9327 134.078C80.5704 133.622 80.616 132.984 80.5704 132.711C80.5249 132.209 77.1086 92.8229 77.1086 92.8229L48.321 97.9741L47.6377 97.7918L47.0456 97.5183L43.1283 82.3381L17.7569 100.026L16.9825 99.9799L13.0652 99.205Z" fill="#1C1C1C"/>
<path d="M78.2011 91.2275L48.3203 96.5611H48.2747L45.6328 107.137L49.8234 155.413C51.2355 155.322 52.602 154.866 53.7863 154.045L80.7063 135.309C81.6173 134.671 82.0273 133.668 81.9818 132.711C81.9818 132.711 78.4744 92.5951 78.3833 91.501C78.3833 91.3187 78.2922 91.2275 78.2011 91.2275Z" fill="#1C1C1C"/>
<path d="M48.548 156.871L44.2207 107L47.3181 94.5551L48.5024 95.1021L78.201 89.7686L78.4743 89.8141C79.2031 89.9509 79.7497 90.5435 79.8408 91.2729C79.8864 91.6832 83.4393 132.437 83.4393 132.528C83.5304 134.078 82.8016 135.491 81.5717 136.358L54.6517 155.093C53.2852 156.051 51.6453 156.643 49.96 156.735L48.548 156.871ZM47.0448 107.228L51.0987 153.726C51.782 153.544 52.4197 153.224 53.0119 152.814L79.9319 134.078C80.5696 133.622 80.6152 132.984 80.5696 132.711C80.5241 132.346 77.7 99.7975 77.1078 92.8228L49.3679 97.7917L47.0448 107.228Z" fill="#1C1C1C"/>
<path d="M42.6723 113.565L13.2014 99.752C11.1061 98.7947 10.8784 95.9228 12.7459 94.6008L39.8026 75.7737C41.989 74.2238 44.8131 73.9959 47.2273 75.1355L76.6982 88.9481C78.7935 89.9054 79.0212 92.7774 77.1537 94.0994L50.0969 112.926C47.9105 114.476 45.0864 114.704 42.6723 113.565Z" fill="white"/>
<path d="M45.815 115.707C44.5396 115.707 43.2641 115.434 42.0343 114.887L12.5635 101.074C11.1514 100.39 10.1949 99.0684 10.0582 97.4729C9.92155 95.8774 10.6048 94.4186 11.9257 93.5069L38.9825 74.6798C41.5788 72.8564 44.9495 72.5829 47.8192 73.9049L77.29 87.7175C78.7021 88.4012 79.6586 89.7688 79.7953 91.3643C79.9319 92.9599 79.2487 94.373 77.9277 95.2847L50.871 114.112C49.4134 115.16 47.637 115.707 45.815 115.707ZM44.0385 75.8195C42.8087 75.8195 41.5788 76.1842 40.5767 76.9135L13.52 95.7406C12.8367 96.1965 12.8367 96.8803 12.8367 97.1538C12.8823 97.4273 12.9734 98.1111 13.7477 98.4302L43.2186 112.243C45.1773 113.154 47.5003 112.972 49.2768 111.741L76.3335 92.9599C77.0167 92.504 77.0167 91.8202 77.0167 91.5467C76.9712 91.2732 76.8801 90.5894 76.1057 90.2703L46.6349 76.4577C45.815 76.0018 44.9495 75.8195 44.0385 75.8195Z" fill="#1C1C1C"/>
<path d="M80.5703 132.756L77.3818 95.6947L80.1604 95.4668L83.3944 132.483L80.5703 132.756Z" fill="#75B687"/>
<path d="M32.2416 108.504L67.1785 84.2982L56.9297 79.6484L22.7217 104.037L32.2416 108.504Z" fill="white"/>
<path d="M32.3785 110.145L19.9434 104.31L56.7478 78.0527L70.0028 84.0701L32.3785 110.145ZM25.5005 103.809L32.1053 106.909L64.3091 84.5715L57.0666 81.2894L25.5005 103.809Z" fill="#1C1C1C"/>
<path d="M22.7666 87.6257L59.7077 106.316L68.3166 100.299L31.2844 81.7451L22.7666 87.6257Z" fill="white"/>
<path d="M59.799 107.957L19.9883 87.8079L31.148 80.1494L71.0499 100.116L59.799 107.957ZM25.4998 87.4432L59.5712 104.72L65.5838 100.526L31.3758 83.386L25.4998 87.4432Z" fill="#1C1C1C"/>
<path d="M33.6452 108.403L30.8301 108.629L33.578 142.891L36.3931 142.665L33.6452 108.403Z" fill="#1C1C1C"/>
<path d="M24.1236 103.94L21.3086 104.165L22.4805 118.842L25.2955 118.617L24.1236 103.94Z" fill="#1C1C1C"/>
<path d="M69.7491 104.398L66.9346 104.632L67.7288 114.218L70.5433 113.984L69.7491 104.398Z" fill="#75B687"/>
<path d="M60.2407 109.745L57.4268 109.983L59.941 139.735L62.7549 139.497L60.2407 109.745Z" fill="#75B687"/>
<path d="M34.0179 122.044L35.8854 127.423C35.931 127.605 36.0676 127.787 36.2043 127.879L40.3493 130.979C40.7137 131.252 40.8504 131.845 40.5771 131.981L37.5708 133.622C37.4797 133.668 37.4341 133.805 37.4341 133.987L38.1629 139.138C38.2085 139.594 37.8441 139.685 37.5253 139.321L33.8357 134.944C33.699 134.808 33.5624 134.717 33.4257 134.717L29.7362 134.808C29.4173 134.808 29.0074 134.261 29.0985 133.896L29.8273 129.565C29.8728 129.429 29.7817 129.201 29.6906 129.018L26.6843 123.913C26.411 123.457 26.5477 123.047 26.9121 123.183L31.0571 124.87C31.1938 124.916 31.3304 124.916 31.376 124.779L33.2435 121.497C33.3802 121.314 33.8357 121.588 34.0179 122.044Z" fill="white"/>
<path d="M62.8472 145.137L58.7637 148.842L60.6603 150.936L64.7438 147.231L62.8472 145.137Z" fill="#75B687"/>
<path d="M128.626 88.8106C128.626 88.8106 129.901 106.452 132.953 116.755C132.998 116.937 132.907 117.074 132.725 117.12C130.766 117.348 120.791 118.761 111.635 125.371C104.438 130.613 84.5786 136.175 84.5786 136.175C84.5786 136.175 78.3383 133.348 76.0608 133.713C73.9199 134.032 74.2843 137.497 77.8828 139.685C78.1561 139.867 78.1105 140.277 77.7916 140.323L68.2261 141.964C66.6774 142.238 65.5387 143.468 65.3565 145.018C65.1743 146.431 65.9487 147.799 67.2241 148.483C70.9136 150.443 78.9304 153.497 85.8085 147.845L90.819 145.337C90.819 145.337 119.698 137.223 139.785 130.978C142.245 130.203 144.522 129.063 146.572 127.559C147.802 126.693 148.485 125.28 148.485 123.775C148.394 118.168 148.121 103.717 147.255 91.1355C146.117 75.1348 133.363 82.7021 133.363 82.7021L128.626 88.8106Z" fill="#FFDCCB"/>
<path d="M76.7442 152.54C72.3714 152.54 68.5452 150.853 66.4955 149.759C64.719 148.802 63.6713 146.887 63.8991 144.882C64.1268 142.739 65.8122 140.961 67.9075 140.596L75.15 139.366C73.6013 137.77 73.1002 135.992 73.328 134.67C73.5557 133.394 74.4667 132.528 75.7421 132.345C78.0651 131.981 82.8479 133.941 84.5788 134.716C87.6306 133.804 104.393 128.835 110.725 124.277C118.832 118.396 127.624 116.481 131.176 115.934C128.398 105.541 127.214 89.6312 127.168 88.9474L127.123 88.4004L132.452 81.5169C132.68 81.3802 138.556 77.9612 143.293 80.4228C146.345 82.0184 148.076 85.6196 148.486 91.0444C149.351 103.626 149.67 118.123 149.715 123.775C149.761 125.735 148.804 127.559 147.256 128.699C145.069 130.294 142.655 131.525 140.059 132.3C120.882 138.272 93.3244 146.067 91.1835 146.659L86.4463 149.03C83.3034 151.674 79.8872 152.54 76.7442 152.54ZM76.5165 135.126C76.4254 135.126 76.3343 135.126 76.2432 135.126C76.1521 135.172 76.1065 135.354 76.152 135.673C76.3342 136.448 77.0175 137.542 78.5662 138.5C79.2039 138.91 79.5227 139.639 79.3861 140.369C79.2494 141.098 78.7028 141.645 77.974 141.736L68.4085 143.377C67.4975 143.514 66.8143 144.289 66.7232 145.201C66.6321 146.067 67.0421 146.887 67.8164 147.298C71.5515 149.303 78.7028 151.856 84.8521 146.796L85.1254 146.614L90.3637 144.015C90.637 143.924 119.47 135.81 139.284 129.656C141.607 128.926 143.748 127.878 145.661 126.465C146.481 125.872 146.982 124.869 146.982 123.821C146.891 118.214 146.618 103.763 145.753 91.2723C145.434 86.8505 144.204 84.0697 142.063 82.9301C139.148 81.3801 135.185 83.2948 134.183 83.8418L130.083 89.2666C130.311 92.2752 131.632 107.364 134.319 116.39C134.456 116.892 134.365 117.393 134.092 117.803C133.818 118.214 133.363 118.487 132.862 118.533C130.994 118.761 121.338 120.083 112.455 126.51C105.122 131.844 85.7631 137.314 84.9432 137.542L84.4422 137.679L83.9867 137.451C81.7092 136.448 78.0652 135.126 76.5165 135.126Z" fill="#1C1C1C"/>
<path d="M126.029 76.4114C126.029 76.4114 124.799 80.6965 127.441 94.4179C127.623 95.3296 128.398 95.9678 129.309 96.0134C133.727 96.1502 146.071 96.059 147.119 91.1357C148.394 85.1639 142.382 66.1545 136.232 65.6075C126.485 64.7413 126.029 76.4114 126.029 76.4114Z" fill="#1C1C1C"/>
<path d="M131.45 97.4722C130.675 97.4722 129.992 97.4722 129.309 97.4266C127.76 97.381 126.394 96.2414 126.12 94.6914C123.661 82.0641 124.435 77.232 124.663 76.1835C124.708 75.135 125.255 69.6647 128.899 66.428C130.903 64.6958 133.408 63.9208 136.415 64.1943C138.237 64.3767 140.059 65.6531 141.789 67.978C146.026 73.7674 149.624 86.2124 148.531 91.4092C147.438 96.5149 138.145 97.4722 131.45 97.4722ZM127.396 76.8217C127.35 76.9584 126.348 81.2891 128.853 94.19C128.899 94.4635 129.127 94.6459 129.354 94.6459C138.601 94.9194 145.206 93.415 145.752 90.9078C146.618 86.8506 143.52 75.2262 139.466 69.7558C138.282 68.1147 137.052 67.1574 136.096 67.1118C133.864 66.8839 132.087 67.431 130.675 68.6618C127.623 71.3514 127.396 76.5026 127.396 76.5937V76.8217Z" fill="#1C1C1C"/>
<path d="M125.984 92.2752C125.847 91.6826 122.704 78.0068 127.077 69.1631C127.122 69.0263 128.853 65.0603 132.862 64.7412L132.998 66.8838C130.311 67.0661 129.035 70.0292 129.035 70.0292C124.982 78.2347 128.079 91.5914 128.079 91.7282L125.984 92.2752Z" fill="#E36F59"/>
<path d="M85.8082 48.7409C85.8082 48.7409 86.537 56.0347 82.0731 59.636C79.4312 61.7786 78.0191 65.6078 77.2903 68.2974C77.017 69.3003 75.605 69.437 75.195 68.4341C73.0542 63.3285 71.4144 55.7156 76.6526 47.9204C83.0752 38.3929 77.837 29.458 77.837 29.458C71.6877 10.4942 88.8601 6.57379 88.8601 6.57379C88.8601 6.57379 100.521 -5.09626 114.277 8.07813C128.033 21.2069 137.143 27.1787 147.529 23.3495C157.914 19.5202 169.939 27.9993 166.614 38.8487C164.154 46.8263 155.226 43.9088 154.771 39.5781C154.68 38.8943 155.363 38.3929 156.046 38.6208C157.048 38.9855 158.643 38.9855 160.283 36.9797C163.016 33.6064 152.721 29.0933 148.895 36.2959C145.069 43.453 151.173 51.2026 159.873 52.479C165.02 53.2084 168.072 50.7011 169.711 48.5586C170.258 47.8292 171.442 48.2395 171.397 49.1968C171.123 53.5275 169.301 60.411 160.51 60.958C147.574 61.8241 140.787 49.6982 140.787 49.6982C140.787 49.6982 137.28 55.7612 142.381 61.9153C148.212 68.9812 140.559 79.4204 132.953 72.856C132.953 72.856 140.559 69.1635 133.18 62.0521C127.031 56.1259 124.07 64.7873 124.07 64.7873C124.07 64.7873 115.461 63.5108 115.507 52.7069C115.507 52.7069 107.9 49.1968 110.314 41.5383C112.501 34.6092 106.898 34.2446 106.898 34.2446C106.397 35.9768 104.529 36.8886 102.844 36.2503C100.111 35.2475 96.3758 32.9226 94.8726 27.7257L84.4873 23.8053C83.7129 23.4862 82.8019 23.8965 82.4831 24.6715C81.2532 28.0904 80.3877 34.3357 82.0275 39.259C83.8951 44.8205 85.8082 48.7409 85.8082 48.7409Z" fill="#E36F59"/>
<path d="M137.827 76.2751C136.005 76.2751 134.001 75.5913 131.996 73.859L130.357 72.4458L132.27 71.5341C132.27 71.5341 134.547 70.3489 134.866 68.3431C135.185 66.4285 133.545 64.3771 132.088 63.0095C130.721 61.6875 129.537 61.1405 128.489 61.3684C126.804 61.7787 125.574 64.2859 125.255 65.1976L124.891 66.2917L123.752 66.1093C123.661 66.1093 114.414 64.605 114.004 53.482C110.952 51.7041 106.853 47.4191 108.857 40.9914C109.267 39.6694 109.586 37.846 108.812 36.7063C108.447 36.2049 107.946 35.9314 107.536 35.749C107.126 36.3872 106.534 36.8887 105.805 37.2533C104.666 37.8004 103.346 37.8916 102.207 37.4357C99.2005 36.3416 95.3743 33.9256 93.5523 28.6376L83.8045 24.9907C82.5747 27.9538 81.6181 33.9712 83.2124 38.7121C85.0799 44.228 86.9475 48.1029 86.9475 48.1029L87.0841 48.6043C87.1297 48.9234 87.813 56.673 82.848 60.7302C80.5249 62.6448 79.204 66.1094 78.5207 68.6622C78.2474 69.7107 77.3364 70.44 76.2432 70.5312C75.15 70.6224 74.1935 70.0298 73.738 69.0269C70.4128 61.0493 70.9139 53.7099 75.3322 47.1911C81.1626 38.5298 76.6532 30.5978 76.471 30.2331L76.3343 29.9596C74.239 23.5775 74.5123 18.0616 77.0176 13.6398C80.2972 7.85032 86.4009 5.79894 87.9951 5.34307C89.9993 3.56522 101.751 -5.64317 115.097 7.07535C128.17 19.5659 137.144 25.6289 146.891 22.0276C152.813 19.8395 159.6 21.207 164.155 25.5377C168.027 29.2302 169.348 34.1991 167.799 39.2592C166.296 44.0913 162.652 45.5044 159.691 45.2309C156.275 44.9118 153.496 42.5413 153.177 39.715C153.086 38.94 153.405 38.1651 154.043 37.6636C154.68 37.1622 155.546 37.0254 156.32 37.2989C156.639 37.3901 157.641 37.7548 159.008 36.0681C159.19 35.8402 159.19 35.7034 159.099 35.5667C158.78 34.8829 157.277 33.88 155.227 33.8344C153.906 33.8344 151.446 34.1535 149.989 36.9343C148.349 40.0341 149.032 42.7693 149.898 44.456C151.629 47.8749 155.455 50.3822 159.919 51.0204C163.472 51.5218 166.341 50.3822 168.436 47.647C169.074 46.8264 170.122 46.5073 171.124 46.872C172.126 47.2367 172.718 48.194 172.673 49.2425C172.172 57.0833 167.753 61.8698 160.465 62.3257C150.444 63.0095 143.931 56.4451 141.061 52.7526C140.651 54.804 140.742 57.8583 143.338 60.9581C147.119 65.5623 145.98 71.1238 143.02 74.0869C141.835 75.3177 139.968 76.2751 137.827 76.2751ZM135.367 72.7649C137.417 73.859 139.512 73.6311 141.106 72.0355C143.202 69.9842 143.976 66.0182 141.243 62.736C135.595 55.8981 139.376 49.1969 139.512 48.9234L140.742 46.7809L141.972 48.9234C142.017 49.0146 148.531 60.2287 160.374 59.4538C167.024 58.9979 169.211 54.5761 169.803 50.4277C167.161 53.1629 163.608 54.3481 159.6 53.7555C154.27 52.9806 149.624 49.8807 147.483 45.6868C145.844 42.4046 145.844 38.8033 147.575 35.5667C149.169 32.558 152.038 30.8713 155.409 31.0081C158.279 31.0992 160.921 32.4668 161.786 34.3814C162.333 35.5667 162.151 36.7975 161.331 37.846C159.509 40.1253 157.641 40.3532 156.366 40.1709C156.912 41.3105 158.461 42.3134 160.146 42.4502C161.285 42.5413 164.064 42.4046 165.294 38.4386C166.523 34.4726 165.476 30.5066 162.378 27.5891C158.689 24.079 152.904 22.8937 148.03 24.6716C136.87 28.7743 127.214 22.3467 113.321 9.08114C100.749 -2.90801 90.3182 7.12094 89.8627 7.5768L89.5894 7.85031L89.1794 7.94149C89.1339 7.94149 82.7113 9.49141 79.6139 14.9617C77.5186 18.6542 77.382 23.3496 79.1584 28.8655C79.2951 29.0934 79.5228 29.5949 79.7961 30.2331C80.0239 27.9082 80.4794 25.7201 81.1171 23.9878C81.3904 23.2584 81.937 22.6658 82.6202 22.3467C83.3491 22.0276 84.169 21.982 84.8978 22.2555L95.9208 26.4039L96.103 27.0877C97.4695 31.6918 100.704 33.7888 103.254 34.7005C103.71 34.8829 104.211 34.8373 104.621 34.6549C105.031 34.427 105.35 34.1079 105.486 33.6521L105.805 32.6036L106.898 32.6492C107.035 32.6492 109.677 32.8315 111.18 35.0652C112.319 36.7519 112.456 38.9856 111.59 41.7664C109.54 48.1484 115.781 51.1115 116.054 51.2483L116.874 51.613V52.5247C116.828 59.8641 121.156 62.2345 123.205 62.9183C123.934 61.414 125.437 59.0891 127.897 58.4965C129.901 57.995 131.996 58.8156 134.092 60.8214C136.87 63.5109 138.055 66.1549 137.69 68.6622C137.417 70.5768 136.324 71.8988 135.367 72.7649ZM81.026 40.7635C80.616 43.2707 79.6595 45.9603 77.7919 48.7411C74.1024 54.2114 73.5558 60.3655 76.1521 67.0667C76.972 64.1947 78.5207 60.6846 81.1626 58.4965C84.5333 55.7613 84.4422 50.2454 84.3967 49.0602C83.9867 48.2396 82.5747 45.1398 81.026 40.7635Z" fill="#1C1C1C"/>
<path d="M118.924 50.7467L117.42 48.3762C117.739 48.1939 124.982 43.4074 123.251 33.0593C121.566 22.8024 113.503 22.1642 113.412 22.1642L113.594 19.3379C113.685 19.3379 123.934 20.204 126.029 32.6035C128.079 44.7749 119.288 50.4732 118.924 50.7467Z" fill="#1C1C1C"/>
<path d="M132.588 56.9012C125.118 50.1545 129.719 37.6183 129.946 37.0713L132.588 38.0742C132.543 38.1654 128.489 49.3339 134.501 54.8043L132.588 56.9012Z" fill="#1C1C1C"/>
<path d="M133.909 121.497C132.406 118.853 130.857 116.892 130.857 116.892L133.044 115.16C133.089 115.251 134.729 117.303 136.323 120.083L133.909 121.497Z" fill="#1C1C1C"/>
</svg>
