<svg width="166" height="328" viewBox="0 0 166 328" fill="none" xmlns="http://www.w3.org/2000/svg">
<path d="M22.2978 199.772C22.9811 197.401 20.6125 200.638 20.6125 200.638L17.4695 188.649C17.4695 188.649 18.0617 184.181 15.1009 182.905C12.1402 181.628 7.31188 181.765 3.62233 184.592C1.57258 186.187 1.39038 190.335 1.66368 193.663C1.84588 196.034 2.71132 198.222 3.89563 200.273C4.35113 201.094 4.76108 202.097 4.76108 203.327C4.76108 206.291 3.62233 207.157 4.35113 211.989C4.80663 215.089 6.49198 222.246 8.04068 224.525C8.95168 225.847 10.4548 226.668 12.0946 226.668C12.9601 226.668 14.8276 225.801 14.9643 225.71C15.1009 225.619 15.6475 225.118 15.7842 224.981C17.0596 223.704 18.9271 221.152 19.3826 216.639C20.1114 209.527 22.3434 203.327 22.3434 203.327V199.772H22.2978Z" fill="#E36F59"/>
<path d="M12.0488 228.035C9.9535 228.035 8.04039 227.032 6.85609 225.3C5.03409 222.61 3.30319 214.906 2.89324 212.171C2.39219 208.889 2.71104 207.248 3.02989 205.789C3.16654 204.968 3.30319 204.284 3.30319 203.282C3.30319 202.507 3.07544 201.732 2.61994 200.957C1.16234 198.449 0.387993 196.079 0.205793 193.754C-0.204157 188.512 0.615744 185.047 2.71104 183.452C6.9472 180.169 12.3676 180.169 15.6017 181.583C19.0179 183.041 18.9269 187.326 18.8358 188.512L21.2955 197.766C21.8421 197.401 22.3887 197.31 22.9353 197.629C23.7096 197.994 23.9374 198.768 23.6641 199.908L23.6185 203.783C23.6185 203.829 21.3866 209.937 20.7033 216.775C20.2023 221.607 18.2436 224.433 16.6949 225.983C16.5127 226.166 15.8294 226.758 15.7383 226.804C15.465 226.986 13.2787 228.035 12.0488 228.035ZM11.0011 183.543C8.8603 183.543 6.44614 184.181 4.44194 185.731C3.21209 186.688 2.71104 189.514 3.02989 193.572C3.16654 195.486 3.84979 197.446 5.07964 199.589C5.76289 200.774 6.1273 202.051 6.1273 203.327C6.1273 204.558 5.94509 205.47 5.76289 206.336C5.48959 207.703 5.26185 208.98 5.6718 211.761C6.1273 214.86 7.76709 221.698 9.13359 223.704C9.77129 224.661 10.8645 225.208 12.0032 225.208C12.4132 225.208 13.7797 224.661 14.1441 224.433C14.1441 224.433 14.5085 224.114 14.6451 223.978C15.9206 222.747 17.4692 220.467 17.8792 216.456C18.5169 209.983 20.43 204.239 20.8399 203.008V202.507L19.9289 203.737L15.9661 188.648L16.0117 188.375C16.0117 188.375 16.376 184.91 14.4629 184.09C13.5519 183.771 12.3221 183.543 11.0011 183.543Z" fill="#1C1C1C"/>
<path d="M51.9505 157.058C51.9505 157.058 49.8552 171.235 49.4908 183.361C49.1264 195.487 49.3086 202.826 49.3086 202.826C49.3086 202.826 44.207 196.581 37.0101 195.259C29.8132 193.937 14.6906 187.509 14.6906 187.509C14.6906 187.509 9.22461 186.187 9.22461 191.293C9.22461 196.398 13.3697 200.957 13.3697 200.957C13.3697 200.957 19.0179 202.826 24.5294 208.16C29.9954 213.448 46.2568 224.024 46.2568 224.024C46.2568 224.024 54.7746 234.052 62.8825 229.129C70.9905 224.206 73.6323 201.139 75.7276 192.615C76.4109 189.743 77.1397 187.509 77.7774 185.822C78.6428 183.543 81.6036 182.859 83.3345 184.592C83.79 185.047 84.1089 185.64 84.2911 186.278C85.0199 189.56 87.3885 200.501 90.3492 212.673C93.8566 227.215 92.3534 234.053 92.3534 234.053C92.3534 234.053 87.2518 241.073 86.1131 251.466C84.9743 261.86 83.4711 290.215 83.4711 290.215C83.4711 290.215 87.2518 295.685 93.6744 292.312C93.6744 292.312 97.2728 277.952 100.644 270.202C104.06 262.453 109.161 246.178 111.211 237.107C113.306 228.035 115.174 207.02 113.489 184.364C111.803 161.662 105.927 148.214 105.927 148.214L51.9505 157.058Z" fill="#1C1C1C"/>
<path d="M89.621 294.818C86.0681 294.818 83.4718 292.63 82.3786 291.034L82.1053 290.624L82.1508 290.123C82.1508 289.849 83.6995 261.586 84.7927 251.283C85.8404 241.665 90.1221 234.918 91.0786 233.505C91.3064 232.183 92.0352 225.481 89.0289 213.036C86.1592 201.23 83.8362 190.608 82.9707 186.597C82.8796 186.232 82.6974 185.867 82.4241 185.594C81.9231 185.138 81.2854 184.91 80.6021 185.047C79.9189 185.183 79.4178 185.639 79.1445 186.277C78.4157 188.192 77.7325 190.426 77.1403 192.933C76.7304 194.574 76.3204 196.853 75.8194 199.406C73.6785 210.62 70.7178 226.029 63.6575 230.268C55.0941 235.419 46.6218 226.439 45.392 225.026C43.57 223.84 28.9029 214.176 23.6191 209.07C18.4719 204.102 13.0514 202.233 13.0059 202.187L12.6415 202.05L12.4137 201.777C12.2315 201.594 7.9043 196.762 7.9043 191.201C7.9043 188.876 8.86085 187.599 9.7263 186.961C11.8216 185.32 14.8279 185.958 15.1467 186.05L15.3745 186.141C15.5111 186.186 30.4516 192.523 37.3752 193.799C41.9302 194.62 45.6653 197.264 47.9428 199.315C47.9428 195.987 47.9428 190.426 48.1705 183.223C48.5349 171.188 50.6302 156.92 50.6302 156.783L50.7669 155.78L106.884 146.526L107.34 147.529C107.568 148.076 113.307 161.479 114.992 184.135C116.769 207.976 114.582 228.992 112.715 237.334C110.711 246.086 105.609 262.543 102.056 270.657C98.731 278.225 95.1781 292.402 95.1326 292.539L94.9959 293.131L94.4493 293.405C92.6729 294.453 91.0786 294.818 89.621 294.818ZM84.9294 289.758C85.7948 290.761 88.3912 293.177 92.4907 291.308C93.2195 288.39 96.3624 276.538 99.4143 269.609C102.922 261.586 107.932 245.403 109.891 236.787C111.758 228.627 113.899 207.976 112.123 184.454C110.711 165.764 106.429 153.273 105.062 149.763L53.1355 158.333C52.68 161.798 51.1313 173.422 50.858 183.451C50.4936 195.349 50.6758 202.78 50.6758 202.871L50.7669 206.974L48.1705 203.828C48.125 203.783 43.2967 197.947 36.7375 196.762C29.7683 195.486 15.83 189.651 14.2813 188.967C13.6436 188.83 12.186 188.739 11.3661 189.377C11.1839 189.514 10.6373 189.97 10.6373 191.383C10.6373 195.258 13.4159 198.859 14.1902 199.817C15.6023 200.364 20.6128 202.461 25.4866 207.201C30.816 212.353 46.8496 222.838 46.9862 222.929L47.3051 223.202C47.3962 223.293 55.1397 232.274 62.1544 228.034C68.1214 224.433 71.1733 208.523 72.9953 199.042C73.4963 196.398 73.9518 194.164 74.3618 192.432C74.9995 189.833 75.7283 187.463 76.5026 185.457C77.0948 183.907 78.3702 182.813 79.9644 182.448C81.5587 182.084 83.1985 182.585 84.3372 183.725C85.0205 184.363 85.476 185.229 85.6582 186.141C86.5236 190.152 88.8467 200.728 91.7163 212.489C95.2692 227.214 93.8116 234.188 93.7205 234.508L93.675 234.781L93.4928 235.009C93.4472 235.055 88.5734 241.847 87.5257 251.739C86.5236 261.039 85.1571 285.837 84.9294 289.758Z" fill="#1C1C1C"/>
<path d="M109.435 86.5812C109.435 86.5812 109.298 109.283 106.611 121.455C104.379 131.62 108.706 149.49 110.209 155.234C110.528 156.373 110.072 157.559 109.07 158.197C105.791 160.294 97.7283 164.625 86.5229 165.217C74.4522 165.81 55.2756 156.1 55.2756 156.1L50.584 122.366L54.1369 78.1022L64.3856 65.4748L84.7465 54.6709L95.0863 57.8163L102.147 64.9278L109.435 86.5812Z" fill="#E36F59"/>
<path d="M85.4304 166.63C73.1319 166.63 55.4585 157.696 54.6841 157.331L54.0464 157.012L49.2637 122.366L52.8621 77.5097L63.5664 64.3353L84.7016 53.1211L95.9524 56.5401L103.468 64.1073L110.893 86.5813C110.893 87.493 110.711 109.557 108.023 121.774C105.837 131.666 110.21 149.627 111.622 154.869C112.077 156.602 111.394 158.425 109.891 159.382C106.793 161.343 98.3666 165.992 86.6602 166.585C86.2047 166.631 85.8404 166.63 85.4304 166.63ZM56.5972 155.143C60.0135 156.784 76.0471 164.306 86.4781 163.804C97.5012 163.257 105.427 158.881 108.342 157.012C108.798 156.693 109.025 156.146 108.889 155.599C107.067 148.67 103.013 131.392 105.245 121.181C107.75 109.921 108.023 89.2253 108.023 86.8092L100.963 65.6573L94.4038 59.0473L84.9294 56.1754L65.3428 66.569L55.5496 78.6493L52.0422 122.321L56.5972 155.143Z" fill="#1C1C1C"/>
<path d="M88.9824 58.1809C88.9824 58.1809 95.1317 57.8162 100.507 62.3292C100.507 62.3292 108.706 60.5058 112.714 63.4689C116.677 66.432 121.232 74.4095 126.88 91.5499C132.528 108.69 133.667 112.702 133.667 112.702C133.667 112.702 138.04 117.078 140.454 123.05C142.868 129.022 145.692 140.19 145.692 140.19C145.692 140.19 139.042 139.324 136.764 145.159C136.764 145.159 129.249 135.085 124.284 128.156C119.319 121.226 120.457 115.118 119.182 112.702C117.952 110.286 88.9824 58.1809 88.9824 58.1809Z" fill="#E36F59"/>
<path d="M137.175 148.031C137.175 148.031 128.065 135.859 123.191 128.976C119.638 124.007 119.046 119.403 118.636 116.349C118.454 115.072 118.317 113.933 117.998 113.385C116.814 111.106 107.977 95.3334 107.977 95.3334L110.437 93.9658C110.437 93.9658 119.273 109.784 120.458 112.063C121.004 113.066 121.187 114.343 121.369 115.984C121.779 118.947 122.325 122.959 125.468 127.38C129.112 132.532 134.259 139.415 136.628 142.606C138.541 139.962 141.547 139.005 143.916 138.823C143.005 135.449 140.955 128.019 139.179 123.642C136.901 118.035 132.711 113.796 132.665 113.75L132.392 113.477L132.301 113.112C132.301 113.112 131.116 108.918 125.514 92.0512C120.458 76.7343 115.994 67.7538 111.849 64.6539C109.025 62.5114 102.921 63.2864 100.826 63.7878L100.142 63.8334L99.5959 63.3775C94.722 59.2748 89.1194 59.5483 89.0738 59.5483L88.8916 56.722C89.1649 56.722 95.2686 56.4029 100.871 60.7791C103.058 60.3689 109.754 59.4571 113.534 62.2835C118.226 65.7936 122.872 74.9564 128.201 91.0483C132.984 105.59 134.533 110.65 134.943 111.881C135.945 112.93 139.634 117.032 141.775 122.457C144.189 128.429 146.968 139.324 147.059 139.78L147.56 141.786L145.51 141.512C145.283 141.467 139.908 140.874 138.086 145.615L137.175 148.031Z" fill="#1C1C1C"/>
<path d="M136.811 145.159C136.811 145.159 136.993 148.396 139.088 152.544C140.455 155.234 142.869 157.786 144.372 159.245C145.419 160.248 146.877 160.749 148.335 160.613C150.111 160.43 152.753 159.655 155.714 157.239C161.362 152.681 159.859 149.854 157.809 148.532C155.714 147.21 154.211 143.974 154.211 143.974C154.211 143.974 156.989 142.287 159.677 141.512C162.364 140.737 163.457 139.051 159.494 137.729L148.335 139.415L145.374 138.686C145.374 138.777 138.86 137.774 136.811 145.159Z" fill="white"/>
<path d="M147.788 162.072C146.148 162.072 144.6 161.434 143.37 160.294C141.593 158.607 139.225 156.009 137.813 153.183C135.626 148.806 135.398 145.387 135.398 145.251V145.023L135.444 144.795C137.357 138.002 142.914 137 145.556 137.41L148.38 138.094L159.585 136.361L159.904 136.452C162.273 137.273 163.457 138.367 163.457 139.78C163.412 141.193 162.182 142.288 160.041 142.926C158.629 143.336 157.126 144.065 156.078 144.567C156.67 145.524 157.581 146.755 158.538 147.348C160.087 148.305 160.952 149.718 161.043 151.268C161.18 153.502 159.677 155.872 156.579 158.334C153.254 160.978 150.339 161.798 148.471 161.981C148.244 162.026 148.016 162.072 147.788 162.072ZM138.223 145.296C138.314 146.071 138.724 148.67 140.318 151.906C141.593 154.505 144.007 156.966 145.328 158.243C146.103 158.972 147.105 159.337 148.152 159.246C149.656 159.063 152.024 158.425 154.803 156.191C157.855 153.73 158.265 152.18 158.219 151.496C158.173 150.721 157.536 150.128 156.989 149.809C154.621 148.305 153.072 145.068 152.89 144.704L152.343 143.564L153.436 142.926C153.573 142.835 156.443 141.102 159.221 140.327C159.768 140.191 160.132 140.008 160.36 139.871C160.178 139.735 159.813 139.552 159.267 139.37L148.198 141.057L144.964 140.282C144.6 140.099 139.953 139.598 138.223 145.296Z" fill="#1C1C1C"/>
<path d="M150.43 160.932L147.742 160.066C148.335 158.242 146.422 155.371 145.738 154.504L147.925 152.727C148.289 153.182 151.569 157.285 150.43 160.932Z" fill="#1C1C1C"/>
<path d="M153.208 157.422C152.525 154.778 150.703 152.726 150.703 152.726L152.753 150.812C152.844 150.903 155.076 153.364 155.941 156.692L153.208 157.422Z" fill="#1C1C1C"/>
<path d="M157.444 153.775C156.898 151.541 154.119 150.539 154.119 150.539L155.03 147.895C155.212 147.94 159.221 149.353 160.177 153.091L157.444 153.775Z" fill="#1C1C1C"/>
<path d="M110.528 97.7039L107.749 97.3392C107.749 97.3392 108.159 94.057 107.111 88.9969L109.844 88.4043C110.983 93.9658 110.528 97.5671 110.528 97.7039Z" fill="#1C1C1C"/>
<path d="M100.78 67.3893C100.371 64.9733 99.2773 63.0131 99.2773 63.0131L101.737 61.6455C101.783 61.7367 103.058 64.016 103.559 66.9335L100.78 67.3893Z" fill="#1C1C1C"/>
<path d="M19.2911 208.25C16.3304 205.287 12.823 206.655 12.823 206.655L11.7754 204.056C12.0031 203.965 17.0592 202.005 21.2953 206.29L19.2911 208.25Z" fill="#1C1C1C"/>
<path d="M19.2001 212.672C17.2415 210.849 13.5975 212.262 13.5975 212.262L12.5498 209.663C12.7776 209.572 17.8792 207.566 21.1132 210.666L19.2001 212.672Z" fill="#1C1C1C"/>
<path d="M83.6536 286.795C83.6536 286.795 79.0075 286.431 78.6431 294.727C78.5064 298.146 78.8708 300.881 79.4174 302.887C79.9185 304.893 81.5127 306.397 83.5625 306.716C84.7468 306.899 86.0677 307.811 86.7965 310.591C88.2997 316.472 99.505 324.13 99.505 324.13C99.505 324.13 104.424 327.549 107.841 324.13C111.257 320.711 110.619 319.298 106.11 311.366C101.555 303.434 98.9128 290.944 98.9128 290.397C98.9128 289.85 95.4966 288.117 91.1693 290.761C89.2562 291.901 88.573 293.405 88.3452 294.727C88.163 295.821 86.7054 296.141 86.0677 295.274C84.6557 293.497 83.4258 290.761 83.6536 286.795Z" fill="#E36F59"/>
<path d="M104.06 327.048C101.874 327.048 99.7787 326.091 98.6399 325.316C98.1844 324.997 86.9791 317.293 85.3849 311.002C85.066 309.816 84.4739 308.312 83.3351 308.175C80.7843 307.811 78.689 305.896 78.0513 303.298C77.3681 300.699 77.0948 297.782 77.2314 294.682C77.4136 290.989 78.3702 288.345 80.1466 286.795C81.832 285.291 83.5629 285.382 83.7906 285.428L85.1571 285.519L85.066 286.887C84.8838 289.713 85.5215 292.175 86.9791 294.18C87.2524 292.767 88.0723 290.944 90.3954 289.576C94.0394 287.343 97.319 287.707 99.0499 288.665C100.052 289.212 100.28 289.895 100.28 290.397C100.371 291.126 102.876 302.979 107.294 310.683C111.622 318.295 113.079 320.848 108.798 325.133C107.34 326.547 105.655 327.048 104.06 327.048ZM82.2419 288.71C81.3309 289.394 80.1922 290.989 80.01 294.819C79.8733 297.645 80.1466 300.243 80.7388 302.568C81.1032 304.027 82.2875 305.121 83.7451 305.349C85.2027 305.577 87.1613 306.625 88.1179 310.272C89.2566 314.649 97.2734 320.939 100.234 322.991C100.416 323.128 104.243 325.68 106.748 323.173C109.299 320.62 109.39 320.21 104.789 312.096C100.644 304.848 98.0478 293.907 97.5012 291.081C96.8179 290.761 94.6315 290.26 91.8074 291.992C90.532 292.767 89.8488 293.725 89.6666 294.955C89.5299 296.004 88.71 296.87 87.6624 297.144C86.5692 297.417 85.476 297.007 84.8383 296.141C83.6995 294.591 82.4241 292.129 82.2419 288.71Z" fill="#1C1C1C"/>
<path d="M94.1304 303.753L91.8984 302.02C92.0351 301.838 95.8157 297.097 101.373 298.1L100.872 300.881C96.9545 300.151 94.1304 303.753 94.1304 303.753Z" fill="#1C1C1C"/>
<path d="M96.6812 308.859L94.4492 307.127C94.5859 306.945 98.3665 302.204 103.924 303.207L103.423 305.987C99.5508 305.258 96.6812 308.859 96.6812 308.859Z" fill="#1C1C1C"/>
<path d="M105.472 321.714C104.835 321.714 104.243 321.623 103.605 321.486C98.8676 320.392 95.998 315.378 95.8613 315.15L98.321 313.782C98.321 313.782 100.735 317.931 104.288 318.797C105.882 319.161 107.477 318.797 109.162 317.703L110.711 320.028C108.98 321.122 107.203 321.714 105.472 321.714Z" fill="#1C1C1C"/>
<path d="M16.1942 225.391C14.6455 225.391 13.279 224.844 12.1858 223.796C9.04283 220.787 9.08839 214.587 9.13394 213.903L11.958 213.994C11.9125 215.544 12.2313 219.966 14.1444 221.79C14.7821 222.428 15.5565 222.656 16.513 222.565L16.7408 225.391C16.5586 225.345 16.3764 225.391 16.1942 225.391Z" fill="#1C1C1C"/>
<path d="M132.62 113.614C131.572 112.474 129.386 111.517 128.611 111.243L129.522 108.554C129.887 108.69 133.03 109.785 134.761 111.699L132.62 113.614Z" fill="#1C1C1C"/>
<path d="M49.5823 213.311C48.6258 209.481 48.2614 203.145 48.2158 202.917L50.3567 202.78C50.3567 202.826 50.7211 209.162 51.6321 212.809L49.5823 213.311Z" fill="#E36F59"/>
<path d="M54.7744 181.582C52.2236 181.445 50.2649 180.579 50.1738 180.534L51.0848 178.573C51.0848 178.573 52.7702 179.303 54.911 179.44L54.7744 181.582ZM57.143 181.491L56.8241 179.348C58.1451 179.166 59.2838 178.665 60.2859 177.935L61.5613 179.668C60.2859 180.625 58.8283 181.217 57.143 181.491ZM63.3378 178.026L61.698 176.613C62.4723 175.702 63.1556 174.562 63.6566 173.194L65.6608 173.969C65.0687 175.565 64.2943 176.932 63.3378 178.026Z" fill="#E36F59"/>
<path d="M111.393 176.431C110.209 176.203 109.116 175.793 108.068 175.155L109.207 173.286C110.027 173.787 110.892 174.106 111.803 174.289L111.393 176.431ZM106.155 173.696C105.107 172.693 104.151 171.462 103.331 170.049L105.198 168.955C105.927 170.231 106.747 171.28 107.612 172.101L106.155 173.696ZM102.329 167.998C101.281 165.673 100.917 163.758 100.871 163.667L103.012 163.257C103.012 163.257 103.376 165.035 104.333 167.132L102.329 167.998Z" fill="#E36F59"/>
<path d="M103.377 244.491C101.965 244.491 100.917 244.263 100.826 244.218L101.327 242.121C101.327 242.121 105.336 243.078 108.205 240.799L109.526 242.486C107.522 244.127 105.153 244.491 103.377 244.491Z" fill="#E36F59"/>
<path d="M65.7982 154.778C65.7982 154.778 86.569 166.311 108.752 149.171C108.752 149.171 112.624 151.724 113.17 157.012C113.17 157.012 97.3644 171.554 65.2061 160.613L65.7982 154.778Z" fill="white"/>
<path d="M88.0714 166.174C81.5578 166.174 73.8142 165.034 64.7498 161.98L63.7021 161.615L64.6131 152.544L66.4807 153.592C67.3006 154.048 86.7505 164.442 107.886 148.122L108.66 147.529L109.48 148.076C109.662 148.213 113.898 151.039 114.536 156.966L114.627 157.649L114.126 158.151C113.671 158.561 105.107 166.174 88.0714 166.174ZM66.7085 159.655C93.6741 168.453 108.66 158.743 111.666 156.464C111.165 153.683 109.662 151.86 108.706 150.994C90.2578 164.624 72.63 159.245 66.9818 156.874L66.7085 159.655Z" fill="#1C1C1C"/>
<path d="M44.5715 145.296L36.5547 163.622C35.4615 166.129 36.418 169.092 38.7866 170.505L45.7102 174.608C48.4432 176.203 51.9506 175.155 53.3626 172.328L60.2863 158.425L44.5715 145.296Z" fill="#E36F59"/>
<path d="M48.4892 176.75C47.2594 176.75 46.0751 176.431 45.0274 175.793L38.1038 171.69C35.0975 169.912 33.9132 166.22 35.2797 163.029L44.0253 142.971L62.0176 158.06L54.5929 172.921C53.7275 174.607 52.2243 175.884 50.4023 176.431C49.8102 176.659 49.1725 176.75 48.4892 176.75ZM45.1185 147.575L37.8761 164.214C37.0562 166.083 37.785 168.271 39.5159 169.319L46.4395 173.422C47.396 174.015 48.5348 174.152 49.628 173.832C50.7212 173.513 51.5866 172.784 52.0877 171.781L58.5103 158.88L45.1185 147.575Z" fill="#1C1C1C"/>
<path d="M45.5735 136.315C44.207 135.175 42.1572 135.677 41.474 137.272L31.1797 160.43C30.0865 162.937 31.043 165.9 33.4116 167.314L40.3352 171.416C43.0682 173.012 46.5756 171.963 47.9876 169.137L57.6898 149.079C58.2364 147.985 57.9175 146.663 57.0065 145.888L45.5735 136.315Z" fill="white"/>
<path d="M43.1142 173.559C41.8844 173.559 40.7001 173.24 39.6525 172.602L32.7288 168.499C29.7225 166.721 28.5382 163.029 29.9047 159.837L40.199 136.68C40.7001 135.494 41.7478 134.674 42.9776 134.4C44.2075 134.127 45.5284 134.4 46.485 135.221L57.918 144.794C59.3301 145.979 59.7856 147.985 58.9657 149.672L49.2635 169.73C48.398 171.416 46.8949 172.738 45.0729 173.24C44.4352 173.468 43.7975 173.559 43.1142 173.559ZM43.8886 137.09C43.7975 137.09 43.7064 137.09 43.6153 137.136C43.2509 137.227 42.9321 137.5 42.7499 137.819L32.4555 160.977C31.6356 162.846 32.3644 165.034 34.0953 166.083L41.019 170.186C41.9755 170.778 43.1143 170.915 44.2075 170.596C45.3007 170.277 46.1661 169.547 46.6672 168.544L56.3693 148.532C56.5971 148.031 56.506 147.392 56.0505 147.028L44.6174 137.455C44.4808 137.181 44.2075 137.09 43.8886 137.09Z" fill="#1C1C1C"/>
<path d="M36.8223 159.113L35.3809 161.543L43.6454 166.452L45.0868 164.022L36.8223 159.113Z" fill="#1C1C1C"/>
<path d="M62.0172 148.669L59.4209 147.62C75.1357 108.052 61.7439 82.9793 61.6073 82.7514L64.067 81.3838C64.6591 82.4323 78.2331 107.733 62.0172 148.669Z" fill="#1C1C1C"/>
<path d="M154.621 136.224C149.474 131.939 145.192 133.854 133.303 133.671C123.1 133.489 112.897 135.677 103.741 140.145C94.6314 144.612 89.0743 147.393 86.0224 152.726L81.4219 156.419L83.6083 167.086L83.6994 167.36C85.3847 174.517 92.6272 180.032 105.29 182.449C117.862 184.865 130.98 182.95 142.55 177.525C158.948 169.867 165.826 159.382 164.323 150.629L162.182 139.962L154.621 136.224Z" fill="#1C1C1C"/>
<path d="M116.13 184.865C112.395 184.865 108.66 184.5 105.062 183.817C92.3076 181.355 84.2452 175.611 82.3777 167.679L82.3321 167.542L79.918 155.872L84.974 151.77C88.3447 146.071 94.5851 143.017 103.148 138.869C112.441 134.356 122.872 132.076 133.348 132.259C136.673 132.304 139.315 132.213 141.684 132.122C147.696 131.894 151.34 131.757 155.394 135.039L163.411 138.96L165.734 150.448C167.511 160.704 159.084 171.372 143.187 178.802C134.624 182.814 125.286 184.865 116.13 184.865ZM83.0154 156.966L85.0651 166.859C86.7049 173.833 93.9929 178.802 105.563 181.036C117.497 183.315 130.433 181.628 141.957 176.204C156.442 169.411 164.459 159.702 162.91 150.812L160.906 140.874L153.663 137.319C150.384 134.584 147.514 134.72 141.729 134.948C139.315 135.039 136.582 135.131 133.211 135.085C123.145 134.903 113.169 137.091 104.287 141.422C94.9495 145.98 89.9845 148.579 87.206 153.456L86.8871 153.867L83.0154 156.966Z" fill="#1C1C1C"/>
<path d="M147.013 125.831C164.641 131.711 167.647 146.481 153.755 158.835C139.862 171.189 114.308 176.386 96.6805 170.505C79.0526 164.624 76.0463 149.855 89.9391 137.501C103.832 125.192 129.385 119.95 147.013 125.831Z" fill="white"/>
<path d="M112.714 174.289C106.884 174.289 101.19 173.514 96.1794 171.827C87.1605 168.819 81.4212 163.44 80.0547 156.693C78.6882 149.946 81.8311 142.744 88.9369 136.453C103.149 123.825 129.385 118.492 147.423 124.509C156.442 127.518 162.181 132.897 163.548 139.644C164.914 146.39 161.771 153.593 154.666 159.884C144.417 169.001 127.882 174.289 112.714 174.289ZM130.797 124.828C116.358 124.828 100.598 129.888 90.85 138.595C84.5186 144.202 81.6945 150.448 82.8332 156.191C84.0175 161.89 89.0736 166.539 97.0904 169.229C114.263 174.973 139.27 169.867 152.798 157.833C159.13 152.225 161.954 145.98 160.815 140.236C159.631 134.538 154.575 129.888 146.558 127.199C141.775 125.603 136.4 124.828 130.797 124.828Z" fill="#1C1C1C"/>
<path d="M139.68 134.036C127.518 130.708 109.708 134.4 99.8234 142.196C89.9391 149.991 91.8066 159.017 103.923 162.299C116.085 165.581 133.895 161.934 143.779 154.139C153.664 146.344 151.842 137.363 139.68 134.036Z" fill="#1C1C1C"/>
<path d="M113.854 164.944C110.21 164.944 106.702 164.534 103.605 163.713C97.1823 161.981 93.1739 158.607 92.3085 154.277C91.443 149.946 93.8116 145.251 99.0043 141.148C109.162 133.125 127.61 129.341 140.09 132.76C146.513 134.492 150.521 137.866 151.432 142.196C152.298 146.527 149.929 151.222 144.737 155.325C137.039 161.297 124.786 164.944 113.854 164.944ZM129.705 134.219C119.411 134.219 107.887 137.638 100.735 143.29C96.408 146.709 94.3582 150.402 95.0415 153.638C95.7247 156.875 99.0043 159.473 104.334 160.932C116.086 164.123 133.395 160.568 142.96 153.046C147.287 149.627 149.337 145.934 148.654 142.698C147.971 139.461 144.691 136.863 139.362 135.404C136.401 134.583 133.121 134.219 129.705 134.219Z" fill="#1C1C1C"/>
<path d="M140.91 140.053C128.748 136.725 110.938 140.418 101.054 148.213C97.5006 151.04 95.4509 154.003 94.9043 156.829C96.5441 159.199 99.5504 161.114 103.923 162.345C116.085 165.627 133.895 161.98 143.779 154.185C147.332 151.359 149.382 148.395 149.929 145.569C148.334 143.199 145.328 141.238 140.91 140.053Z" fill="#FFCA41"/>
<path d="M113.853 164.944C110.209 164.944 106.702 164.533 103.605 163.713C99.0496 162.482 95.6789 160.385 93.7658 157.65L93.4014 157.149L93.538 156.556C94.2213 153.319 96.4988 150.037 100.188 147.12C110.346 139.096 128.794 135.313 141.274 138.732C145.829 139.963 149.2 142.06 151.113 144.795L151.478 145.296L151.341 145.889C150.658 149.125 148.38 152.408 144.691 155.325C137.038 161.297 124.785 164.944 113.853 164.944ZM96.4077 156.51C98.0019 158.47 100.689 159.975 104.288 160.978C116.04 164.169 133.349 160.613 142.914 153.091C145.829 150.766 147.743 148.305 148.426 145.889C146.832 143.929 144.144 142.424 140.546 141.421C128.794 138.23 111.485 141.786 101.919 149.308C99.004 151.633 97.1365 154.094 96.4077 156.51Z" fill="#1C1C1C"/>
<path d="M154.013 159.878L151.871 160.316L153.668 169.115L155.81 168.676L154.013 159.878Z" fill="#FFCA41"/>
<path d="M110.164 184.226C102.876 183.223 98.1389 181.582 97.9111 181.491L98.6399 179.439C98.6855 179.439 103.377 181.081 110.483 182.038L110.164 184.226Z" fill="#FFCA41"/>
<path d="M123.876 133.325L121.733 133.763L122.891 139.435L125.033 138.997L123.876 133.325Z" fill="#FFCA41"/>
<path d="M100.416 149.444L101.418 154.276L108.569 155.37L110.665 149.672L110.756 149.581L136.993 158.333C138.906 157.422 140.682 156.373 142.322 155.279L144.554 153.319L143.552 148.487L109.708 141.694L100.416 149.444Z" fill="#1C1C1C"/>
<path d="M137.038 159.519L111.348 150.949L109.298 156.602L100.507 155.234L99.2314 149.034L109.389 140.51L144.417 147.576L145.647 153.684L142.959 156.1C141.229 157.331 139.361 158.38 137.402 159.337L137.038 159.519ZM110.391 148.442L111.074 148.578L136.856 157.194C138.587 156.328 140.181 155.416 141.639 154.414L143.324 152.909L142.595 149.399L109.981 142.835L101.6 149.855L102.283 153.319L107.84 154.186L109.708 149.08L110.391 148.442Z" fill="#1C1C1C"/>
<path d="M109.754 144.794L109.663 144.84L107.613 150.538L100.416 149.444L103.468 141.558L108.752 136.862L143.506 148.487L137.312 154.003L109.754 144.794Z" fill="white"/>
<path d="M137.585 155.188L110.391 146.117L108.342 151.769L99.0039 150.311L102.602 140.92L108.524 135.632L144.463 147.621L144.782 148.806L137.585 155.188ZM109.435 143.609L110.118 143.746L137.084 152.772L141.411 148.943L108.979 138.139L104.379 142.242L101.919 148.669L106.884 149.444L108.752 144.339L109.435 143.609Z" fill="#1C1C1C"/>
<path d="M144.951 165.959L142.809 166.396L144.603 175.196L146.746 174.758L144.951 165.959Z" fill="#FFCA41"/>
<path d="M77.3678 165.035L83.5171 170.278C83.5171 170.278 86.9334 172.922 88.9831 175.566C91.0784 178.21 96.9088 183.315 96.9088 183.315L101.191 185.503C103.377 186.597 102.785 190.016 100.371 190.199C99.6874 190.244 98.913 190.108 98.0476 189.743C94.9502 188.375 86.6601 184.546 82.1506 182.449C80.1464 181.537 78.3699 180.17 76.9579 178.483L73.8605 174.836L64.4316 168.226L66.8913 160.477L77.3678 165.035Z" fill="#FFDCCB"/>
<path d="M100.097 191.337C99.323 191.337 98.4575 191.155 97.6376 190.79C94.358 189.377 85.3847 185.229 81.6951 183.497C79.5543 182.494 77.6412 181.035 76.138 179.212L73.1317 175.656L63.1562 168.681L66.2081 159.062L78.0967 164.259L84.2459 169.502C84.337 169.593 87.7533 172.237 89.8941 174.972C91.7617 177.343 96.8177 181.81 97.5921 182.494L101.783 184.636C103.24 185.366 103.969 186.961 103.65 188.557C103.331 190.107 102.102 191.201 100.553 191.337C100.371 191.337 100.234 191.337 100.097 191.337ZM65.7071 167.815L74.726 174.152L77.8234 177.798C79.1443 179.394 80.7841 180.625 82.6517 181.491C86.3412 183.223 95.269 187.326 98.5486 188.785C99.1863 189.058 99.824 189.195 100.371 189.149C101.282 189.104 101.464 188.329 101.509 188.101C101.6 187.599 101.464 186.87 100.781 186.505L96.2711 184.135C96.0434 183.907 90.3041 178.938 88.2088 176.248C86.2501 173.741 82.925 171.143 82.925 171.143L76.8668 165.946L67.6202 161.934L65.7071 167.815Z" fill="#1C1C1C"/>
<path d="M67.0278 60.7334C63.2471 61.4628 58.4644 63.2862 56.8701 67.8448L55.7314 69.8506C55.7314 69.8506 45.5282 72.2667 41.1554 79.7884C36.7826 87.3101 41.1554 145.888 41.1554 145.888C41.1554 145.888 42.9774 155.689 56.3235 164.761C69.6241 173.833 70.353 173.833 70.353 173.833C70.353 173.833 68.9864 169.593 72.0839 166.584C75.1813 163.621 77.4132 165.08 77.4132 165.08C77.4132 165.08 71.9472 162.071 65.8435 154.823C59.7398 147.575 55.7769 140.372 55.7769 140.372C55.7769 140.372 58.3277 115.118 57.0979 97.567L67.0278 60.7334Z" fill="#E36F59"/>
<path d="M72.2656 175.2H70.3525C69.897 175.2 69.2137 175.2 55.5487 165.901C41.8837 156.601 39.8795 146.572 39.7884 146.116C39.3329 139.917 35.4612 86.7176 39.9706 79.0591C44.0246 72.13 52.4969 69.3037 54.8655 68.6199L55.6398 67.2523C57.143 63.1951 61.0147 60.46 66.7996 59.3203L67.3462 62.1011C63.9755 62.7393 59.6482 64.3804 58.2362 68.3008L58.1451 68.5287L56.6875 71.0359L56.0953 71.1727C56.0042 71.2183 46.4387 73.5432 42.3848 80.4267C39.3329 85.6691 40.8361 122.32 42.567 145.706C42.567 145.706 44.5712 154.96 57.0974 163.53C63.3378 167.77 66.754 170.003 68.6216 171.189C68.6671 169.456 69.2137 167.314 71.0813 165.536C71.8556 164.807 72.5844 164.305 73.2677 163.94C71.0357 162.254 67.9839 159.564 64.7043 155.689C58.6006 148.441 54.6377 141.284 54.5011 141.011L54.2733 140.646L54.3189 140.19C54.3644 139.917 56.8241 114.844 55.6398 97.6126L58.4639 97.4303C59.6027 113.613 57.5074 136.543 57.1885 140.053C58.0995 141.603 61.7435 147.803 66.8907 153.911C72.7211 160.841 78.0049 163.804 78.096 163.849C78.1415 163.895 78.1871 163.895 78.1871 163.895L76.7295 166.311C76.7295 166.311 76.6839 166.265 76.5928 166.22C76.3651 166.129 75.0441 165.673 73.0399 167.587C70.6258 169.912 71.6734 173.377 71.6734 173.377L72.2656 175.2Z" fill="#1C1C1C"/>
<path d="M77.8691 172.966C77.8691 172.966 89.2111 178.391 90.3498 175.382C91.4886 172.419 77.8691 167.496 77.8691 167.496V172.966Z" fill="white"/>
<path d="M88.3903 177.343C84.7463 177.343 78.7337 174.562 77.3672 173.924L78.2782 171.964C81.7855 173.651 87.5248 175.702 89.1191 175.064C89.2557 173.833 83.6075 170.687 77.4127 168.454L78.1415 166.402C80.0546 167.086 89.6657 170.687 91.1688 173.924C91.5332 174.699 91.3966 175.292 91.2599 175.702C91.0322 176.295 90.5767 176.75 89.8934 177.024C89.529 177.252 88.9825 177.343 88.3903 177.343Z" fill="#1C1C1C"/>
<path d="M57.2342 78.9682C53.7269 74.8199 54.9567 68.7113 55.0023 68.4834L57.7353 69.076C57.7353 69.076 56.7332 74.0905 59.3751 77.1903L57.2342 78.9682Z" fill="#1C1C1C"/>
<path d="M56.0045 143.563C53.9548 140.418 50.7207 136.725 50.7207 136.725L52.816 134.856C52.9527 134.993 56.2323 138.731 58.3731 142.059L56.0045 143.563Z" fill="#1C1C1C"/>
<path d="M91.8068 118.674L88.9827 118.583C89.6204 100.166 87.6618 91.0031 87.6162 90.9119L90.3492 90.3193C90.4403 90.684 92.4445 99.8468 91.8068 118.674Z" fill="#1C1C1C"/>
<path d="M84.6556 98.2051C84.6556 99.4359 83.6535 100.484 82.3781 100.484C81.1482 100.484 80.1006 99.4815 80.1006 98.2051C80.1006 96.9743 81.1027 95.9258 82.3781 95.9258C83.6535 95.9258 84.6556 96.9743 84.6556 98.2051Z" fill="white"/>
<path d="M85.0657 106.912C85.0657 108.143 84.0636 109.191 82.7882 109.191C81.5584 109.191 80.5107 108.189 80.5107 106.912C80.5107 105.681 81.5128 104.633 82.7882 104.633C84.0636 104.633 85.0657 105.636 85.0657 106.912Z" fill="white"/>
<path d="M80.1011 62.7397C80.1011 62.7397 90.031 71.948 96.6813 60.3236C103.332 48.6991 102.056 30.1 102.056 30.1L87.298 18.6123L69.8523 27.8207L67.9392 40.5392C67.9392 40.5392 64.7051 37.7129 64.4318 41.2686C64.1585 44.8243 65.8894 47.6507 67.8937 49.1094C67.8937 49.1094 70.8544 55.9017 66.2083 61.8735C61.5166 67.8453 66.7549 80.0168 78.9623 87.265C91.1697 94.5132 98.6399 89.0884 97.82 79.0595C96.9546 68.9849 93.8572 65.566 93.8572 65.566L80.1011 62.7397Z" fill="#FFDCCB"/>
<path d="M89.1192 92.0054C85.9306 92.0054 82.2411 90.8202 78.2782 88.4953C70.3525 83.7999 64.6588 76.6429 63.3834 69.8506C62.7457 66.3405 63.3378 63.2862 65.1143 61.0069C68.7127 56.4483 67.2096 51.297 66.7541 49.975C64.7043 48.2884 62.7457 45.1885 63.0645 41.1313C63.2012 39.2623 64.0666 38.5329 64.7954 38.2594C65.5242 37.9859 66.253 38.0315 66.9363 38.305L68.6672 26.9541L87.5249 16.9707L103.467 29.4157L103.513 30.0539C103.559 30.8289 104.743 49.2001 97.9559 61.0525C97.0904 62.5568 96.1339 63.8332 95.0862 64.8361C95.7695 65.6567 98.5025 69.6227 99.2768 78.9678C99.7323 84.2102 98.047 88.4497 94.6307 90.5467C92.9909 91.5496 91.1689 92.0054 89.1192 92.0054ZM65.9342 40.949C65.8886 41.0402 65.8886 41.1769 65.8431 41.4049C65.6153 44.5047 67.164 46.8752 68.7583 48.0148L69.0771 48.2428L69.2138 48.6075C69.3504 48.9266 72.4478 56.2659 67.3462 62.7847C66.0708 64.4258 65.6609 66.7051 66.1619 69.3491C67.2551 75.2753 72.5845 81.8397 79.7359 86.0792C85.2019 89.3158 90.0757 90.0908 93.1276 88.1762C95.5873 86.6263 96.8171 83.3441 96.4527 79.1957C95.6784 69.8506 92.8543 66.5228 92.8543 66.5228L93.082 66.3405C92.0344 66.9331 90.9412 67.3433 89.7569 67.5257C84.1998 68.3462 79.417 63.97 79.2348 63.7876L81.1479 61.7363C81.1934 61.7818 85.2018 65.3831 89.3469 64.7449C91.7155 64.3803 93.8108 62.648 95.5417 59.6393C101.235 49.7015 100.917 34.1111 100.78 30.8289L87.2516 20.2985L71.2635 28.7775L69.0771 43.3195L67.164 41.6328C66.7085 41.3137 66.253 41.0402 65.9342 40.949Z" fill="#1C1C1C"/>
<path d="M63.6119 45.3252C63.6119 45.3252 57.0527 42.9092 58.3281 35.9345C58.3281 35.9345 51.0856 31.9685 58.1915 17.6545C65.2973 3.34043 73.4963 3.47719 77.4591 4.61684C77.4591 4.61684 77.3225 1.19788 80.0099 1.92726C82.6974 2.65664 83.8361 4.48008 83.8361 4.48008C83.8361 4.48008 88.9377 1.38023 95.7247 5.61974C102.512 9.85924 106.793 16.9707 107.613 25.9056C108.16 31.695 106.702 37.0741 105.609 40.1284C105.199 41.2225 103.696 41.3592 103.149 40.3108C102.056 38.1682 100.599 35.0228 100.325 32.7435C100.28 32.5611 100.052 32.5155 99.9608 32.6523L96.8634 37.53C96.0435 38.852 94.7226 39.8093 93.1739 40.174C90.6231 40.721 86.3869 40.8122 80.5565 37.7123C72.4942 33.4273 73.0863 40.6754 72.5853 42.9092C72.2209 44.4135 69.7612 43.0915 67.9847 41.6783C67.9392 41.6328 60.0134 35.3875 63.6119 45.3252Z" fill="#1C1C1C"/>
<path d="M65.9797 47.6959L63.1101 46.6474C60.5593 45.6901 56.1865 42.4535 56.7786 36.5729C54.82 34.8862 50.6749 29.5071 56.8697 17.0165C63.5656 3.52298 71.3546 2.10981 76.183 2.88477C76.3652 2.24656 76.7296 1.56277 77.3217 1.01574C77.8683 0.559876 78.8249 0.149606 80.2825 0.514294C82.15 1.01574 83.3799 1.97304 84.1087 2.70242C86.1584 1.92746 90.759 0.878983 96.3616 4.38911C103.559 8.90214 108.022 16.4694 108.933 25.7234C109.48 31.604 108.114 37.0288 106.838 40.5389C106.474 41.5874 105.517 42.2712 104.424 42.3623C103.331 42.4535 102.329 41.8609 101.782 40.9036C101.008 39.4448 100.142 37.5758 99.5046 35.7523L97.9559 38.214C96.9082 39.9007 95.2684 41.0403 93.3553 41.4506C90.5768 42.0888 85.9762 42.1344 79.7814 38.8522C77.7772 37.8037 76.2285 37.439 75.4541 37.8493C74.452 38.3508 74.2243 40.3565 74.0421 41.7241C73.9966 42.2712 73.9055 42.7726 73.8144 43.1373C73.6322 43.9123 73.1311 44.5049 72.4023 44.7328C70.8081 45.2799 68.5761 43.9579 66.9819 42.6814C65.9342 41.8609 64.6132 41.1315 63.9755 41.0403C63.93 41.405 63.9755 42.4535 64.841 44.7784L65.9797 47.6959ZM74.1788 5.52877C70.1703 5.52877 64.5677 7.85365 59.4205 18.2473C53.0891 31.0114 58.7373 34.5671 59.0106 34.7039L59.876 35.2053L59.7394 36.2082C59.2383 38.9434 60.1949 40.858 61.3336 42.0888C61.197 40.7212 61.4247 39.4904 62.3813 38.761C64.3399 37.3479 67.5285 39.536 68.8039 40.5389C69.8515 41.3594 70.717 41.8153 71.2636 42.0432C71.3091 41.8609 71.3091 41.6785 71.3546 41.4506C71.5824 39.536 71.9468 36.6641 74.2699 35.4333C76.0008 34.5215 78.2783 34.8406 81.239 36.4361C86.6595 39.3081 90.5768 39.3081 92.8998 38.761C94.0386 38.4875 95.0407 37.8037 95.7239 36.7552L98.8213 31.8775C99.1857 31.3305 99.869 31.0114 100.507 31.1482C101.144 31.2849 101.645 31.8319 101.737 32.5157C101.919 34.1568 102.875 36.6641 104.424 39.6272C105.289 36.9832 106.793 31.6496 106.246 25.9969C105.472 17.6547 101.463 10.8168 94.9951 6.75959C89.0736 3.06711 84.7464 5.52876 84.5642 5.61994L83.3799 6.30373L82.6511 5.11849C82.6055 5.0729 81.7401 3.75091 79.6448 3.20387C79.3715 3.1127 79.1893 3.15828 79.1893 3.15828C79.0071 3.29504 78.8704 4.02442 78.8704 4.48028L78.916 6.3949L77.0484 5.89345C76.2285 5.7111 75.272 5.52877 74.1788 5.52877Z" fill="#1C1C1C"/>
<path d="M96.6351 87.7211C72.1292 87.7211 64.9778 62.512 64.8867 62.2841L67.6197 61.5547C67.893 62.512 74.3156 84.9404 96.6351 84.9404C99.1859 84.9404 100.78 84.3477 101.327 83.1625C102.967 79.5612 96.9084 70.5352 92.6722 65.703L94.8131 63.8796C96.0429 65.2928 106.793 77.9657 103.878 84.3477C102.83 86.5815 100.37 87.7211 96.6351 87.7211Z" fill="#1C1C1C"/>
<path d="M66.7548 19.4324L64.0674 18.6575C64.204 18.156 67.848 6.21246 77.2769 5.4375L77.5046 8.26384C69.9889 8.81088 66.8004 19.2957 66.7548 19.4324Z" fill="#E36F59"/>
<path d="M102.739 31.7413L100.006 31.1031C101.919 22.9887 96.4079 16.5155 96.3623 16.4699L98.5031 14.6465C98.7309 14.92 104.971 22.2138 102.739 31.7413Z" fill="#E36F59"/>
<path d="M63.7479 34.2025C63.6568 34.0658 61.607 30.5556 62.518 24.9941L65.2966 25.45C64.5678 29.9174 66.0709 32.607 66.162 32.7438L63.7479 34.2025Z" fill="#E36F59"/>
<path d="M89.8483 38.6701L89.165 35.9349C89.3472 35.8894 93.219 34.7953 94.4033 30.1455L97.1363 30.8293C95.4965 37.1658 90.076 38.5789 89.8483 38.6701Z" fill="#E36F59"/>
<path d="M68.345 47.7757L67.4854 50.4678L71.043 51.6056L71.9027 48.9136L68.345 47.7757Z" fill="#1C1C1C"/>
<path d="M90.9412 55.9012C90.258 55.9012 89.4836 55.81 88.6182 55.5821L89.347 52.8469C90.4402 53.166 91.3056 53.1205 91.8067 52.9837L90.8501 46.784L93.6287 46.3281L94.9041 54.488L94.2208 54.9895C94.0842 55.1262 92.9454 55.9012 90.9412 55.9012Z" fill="#1C1C1C"/>
<path d="M89.7569 60.6424C87.1605 60.6424 85.3841 59.138 85.293 59.0468L87.115 56.9043C87.115 56.9043 88.3448 57.9072 90.0302 57.816L90.2579 60.6424C90.0757 60.6424 89.8935 60.6424 89.7569 60.6424Z" fill="#1C1C1C"/>
<path d="M87.3428 47.6961C87.2972 49.7474 86.2951 51.3886 85.0653 51.3886C83.8354 51.3886 82.8789 49.7019 82.9244 47.6505C82.97 45.5991 83.9721 43.958 85.2019 43.958C86.4318 43.958 87.3883 45.6447 87.3428 47.6961Z" fill="#1C1C1C"/>
<path d="M100.507 46.6023C100.461 48.6537 99.4592 50.2948 98.2293 50.2948C96.9995 50.2948 96.0429 48.6081 96.0885 46.5567C96.134 44.5054 97.1361 42.8643 98.366 42.8643C99.5958 42.8643 100.552 44.5509 100.507 46.6023Z" fill="#1C1C1C"/>
<path d="M86.8875 11.5464C86.022 9.67732 83.4256 8.4465 82.5146 8.12739L83.4256 5.4834C83.6078 5.52898 87.8896 7.03332 89.4383 10.3611L86.8875 11.5464Z" fill="#E36F59"/>
<path d="M105.244 83.4356C105.244 84.6664 104.242 85.7149 102.967 85.7149C101.692 85.7149 100.689 84.712 100.689 83.4356C100.689 82.2047 101.692 81.1562 102.967 81.1562C104.242 81.1562 105.244 82.1591 105.244 83.4356Z" fill="white"/>
</svg>



