<svg width="32" height="23" viewBox="0 0 32 23" fill="none" xmlns="http://www.w3.org/2000/svg">
<path d="M31.0484 0.856445H0.931641V22.2014H31.0484V0.856445Z" fill="#75B687"/>
<path d="M31.2772 4.04667C31.2772 4.12263 24.4914 4.12263 16.1044 4.12263C7.71745 4.12263 0.931641 4.04667 0.931641 4.04667C0.931641 4.04667 7.71745 3.9707 16.1044 3.9707C24.4914 3.9707 31.2772 3.97071 31.2772 4.04667Z" fill="white"/>
<path d="M3.37183 2.52751C3.37183 2.75539 3.21934 2.90731 2.9906 2.90731C2.76187 2.90731 2.60938 2.75539 2.60938 2.52751C2.60938 2.29963 2.76187 2.14771 2.9906 2.14771C3.21934 2.14771 3.37183 2.29963 3.37183 2.52751Z" fill="white"/>
<path d="M4.89624 2.52751C4.89624 2.75539 4.74375 2.90731 4.51501 2.90731C4.28628 2.90731 4.13379 2.75539 4.13379 2.52751C4.13379 2.29963 4.28628 2.14771 4.51501 2.14771C4.6675 2.14771 4.89624 2.29963 4.89624 2.52751Z" fill="white"/>
<path d="M6.34546 2.52751C6.34546 2.75539 6.19297 2.90731 5.96423 2.90731C5.7355 2.90731 5.58301 2.75539 5.58301 2.52751C5.58301 2.29963 5.7355 2.14771 5.96423 2.14771C6.19297 2.14771 6.34546 2.29963 6.34546 2.52751Z" fill="white"/>
</svg>
