<svg width="160" height="253" viewBox="0 0 160 253" fill="none" xmlns="http://www.w3.org/2000/svg">
<path d="M1.20376 100.546L21.1037 167.544C22.0187 170.506 24.7635 172.557 27.8133 172.557L108.633 172.785C112.903 172.785 116.334 169.215 116.105 164.961C115.876 161.011 112.598 157.897 108.633 157.897H77.7538L52.9741 89.2283H9.7432C3.79609 89.2283 -0.473631 94.9253 1.20376 100.546Z" fill="#455A64"/>
<path d="M69.5958 163.442C69.5958 163.594 61.3613 163.746 51.2208 163.746C41.0802 163.746 32.8457 163.594 32.8457 163.442C32.8457 163.29 41.0802 163.138 51.2208 163.138C61.3613 163.138 69.5958 163.29 69.5958 163.442Z" fill="#263238"/>
<path d="M7.15069 91.3552C7.30318 91.2793 12.7928 107.307 19.4261 127.209C26.0595 147.035 31.3204 163.138 31.1679 163.214C31.0154 163.29 25.5257 147.262 18.8924 127.361C12.2591 107.535 6.9982 91.3552 7.15069 91.3552Z" fill="#263238"/>
<path d="M66.2411 232.111L61.2852 231.959V172.557H66.2411V232.111Z" fill="#455A64"/>
<path d="M40.8516 231.807H86.6748L65.9362 224.667H60.9802L40.8516 231.807Z" fill="#455A64"/>
<path d="M29.2617 73.8082L36.81 111.561L35.4376 139.894L86.4455 131.463L84.4631 106.699L84.3869 86.1899L96.8911 110.345L106.65 91.5831L88.8091 59.4516C85.5306 56.1094 81.7183 53.6026 77.1436 51.9315C74.9325 51.0959 72.5689 50.6402 69.8241 50.5642C63.9532 52.3873 58.0823 52.3873 52.1352 50.5642C51.449 50.6402 50.4578 50.7161 49.1617 50.8681C49.0854 50.8681 49.0092 50.8681 48.9329 50.8681C38.1061 52.1594 29.8717 61.1228 29.2617 71.9852V73.8082Z" fill="#E36F59"/>
<path d="M49.2378 50.8682C49.2378 50.8682 28.2704 51.0201 25.6781 73.0487L25.2969 89.2284L43.367 89.0765L49.2378 50.8682Z" fill="#E36F59"/>
<path d="M99.3304 79.2015C99.3304 79.3535 82.8615 79.5054 62.5041 79.5054C42.1467 79.5054 25.6777 79.3535 25.6777 79.2015C25.6777 79.0496 42.1467 78.8977 62.5041 78.8977C82.8615 78.8977 99.3304 79.0496 99.3304 79.2015Z" fill="#FAFAFA"/>
<path d="M99.3304 82.6957C99.3304 82.8476 82.8615 82.9995 62.5041 82.9995C42.1467 82.9995 25.6777 82.8476 25.6777 82.6957C25.6777 82.5438 42.1467 82.3918 62.5041 82.3918C82.8615 82.3918 99.3304 82.5438 99.3304 82.6957Z" fill="#FAFAFA"/>
<path d="M98.1105 76.3151C98.1105 76.467 81.8703 76.6189 61.8941 76.6189C41.9179 76.6189 25.6777 76.467 25.6777 76.3151C25.6777 76.1632 41.9179 76.0112 61.8941 76.0112C81.9466 76.0112 98.1105 76.1632 98.1105 76.3151Z" fill="#FAFAFA"/>
<path d="M84.1584 110.346C84.0059 110.346 84.0822 101.382 84.3109 90.3679C84.5397 79.3535 84.8446 70.3901 85.0734 70.3901C85.2259 70.3901 85.1496 79.3535 84.9209 90.3679C84.6159 101.382 84.3109 110.346 84.1584 110.346Z" fill="#263238"/>
<path d="M76.9914 95.8369C76.9914 95.8369 86.9033 96.5206 88.6569 99.1792C90.4106 101.762 93.1554 109.206 92.1642 109.282C91.0968 109.358 90.4106 108.75 90.4106 108.75L87.6657 103.965C87.6657 103.965 88.1232 108.598 86.4458 108.674C84.8447 108.75 76.7627 110.345 76.7627 110.345L76.9914 95.8369Z" fill="#FFBE9D"/>
<path d="M25.373 84.8985V110.345C25.678 116.27 31.3202 120.524 37.1148 119.309L77.0672 111.105L76.9909 94.7734L42.5282 101.382L42.0707 84.1389L25.373 84.8985Z" fill="#E36F59"/>
<path d="M48.1707 117.258C48.1707 117.258 48.3232 117.182 48.7045 117.106C49.0857 117.03 49.6194 116.878 50.2294 116.726C51.6018 116.422 53.5841 116.043 56.1002 115.511C61.2086 114.447 68.3757 113.004 76.9151 111.257L76.6864 111.485C76.6864 106.396 76.6864 100.698 76.6864 94.6976L76.9914 95.0014C74.704 95.4572 72.3404 95.9129 69.9768 96.3687C59.9125 98.2677 50.4581 100.091 42.5286 101.61L42.2236 101.686V101.382C42.4524 93.786 42.6811 87.4813 42.8336 82.9996C42.9098 80.7967 42.9861 79.1256 43.0623 77.9102C43.0623 77.3785 43.1386 76.9227 43.1386 76.5429C43.1386 76.2391 43.2148 76.0872 43.2148 76.0872C43.2148 76.0872 43.2148 76.2391 43.2148 76.5429C43.2148 76.9227 43.2148 77.3025 43.2148 77.9102C43.2148 79.1256 43.1386 80.8727 43.1386 83.0756C43.0623 87.5572 42.9098 93.862 42.6811 101.458L42.3761 101.23C50.3056 99.711 59.76 97.8879 69.8243 95.9129C72.2642 95.4572 74.6278 95.0014 76.8389 94.5457L77.1439 94.4697V94.7735C77.1439 100.774 77.1439 106.396 77.1439 111.561V111.789L76.9151 111.865C68.3757 113.536 61.2086 114.903 56.1002 115.891C53.5841 116.346 51.6018 116.726 50.2294 116.954C49.5432 117.03 49.0857 117.182 48.6282 117.258C48.3232 117.258 48.1707 117.258 48.1707 117.258Z" fill="#263238"/>
<path d="M71.1197 50.8681C71.1197 50.8681 71.1959 51.02 71.2722 51.2479C71.3484 51.4758 71.5009 51.8556 71.5772 52.3873C71.8059 53.3748 71.8821 54.894 71.4247 56.6411C70.9672 58.3882 69.7473 60.3632 67.9936 61.9584C66.1638 63.6295 63.5714 64.693 60.7504 64.693C57.9293 64.693 55.2607 63.5536 53.5833 61.8065C51.9059 60.0594 51.1435 57.8565 50.9148 56.0334C50.686 54.2104 51.0672 52.6912 51.4485 51.7796C51.601 51.3239 51.8297 50.9441 51.9822 50.7162C52.1347 50.4883 52.2109 50.3364 52.2109 50.4123C52.2872 50.4123 51.9822 50.9441 51.6772 51.8556C51.3722 52.7671 51.1435 54.2104 51.3722 55.9575C51.601 57.7046 52.3634 59.7555 54.0408 61.4267C55.642 63.0978 58.158 64.1613 60.8266 64.1613C63.4952 64.1613 66.0113 63.1738 67.7649 61.5786C69.5186 60.0594 70.6622 58.2363 71.1959 56.4892C71.7297 54.8181 71.6534 53.2989 71.5772 52.3873C71.1959 51.3998 71.0435 50.8681 71.1197 50.8681Z" fill="#263238"/>
<path d="M73.0259 112.396C72.9497 112.396 72.9497 111.409 73.0259 109.89C73.1022 108.37 73.1784 106.244 73.1784 103.889C73.1784 101.534 73.1784 99.407 73.1022 97.8878C73.0259 96.3686 73.0259 95.3811 73.1022 95.3811C73.1784 95.3811 73.3309 96.2926 73.4834 97.8878C73.6359 99.407 73.7121 101.61 73.7121 103.965C73.7121 106.319 73.5596 108.446 73.4072 110.042C73.2547 111.485 73.1022 112.472 73.0259 112.396Z" fill="#FAFAFA"/>
<path d="M70.9679 112.852C70.8916 112.852 70.8916 111.865 70.8916 110.345C70.8916 108.598 70.9679 106.547 70.9679 104.345C70.9679 102.142 70.9679 100.091 70.9679 98.3436C70.9679 96.8244 70.9678 95.8369 71.0441 95.8369C71.1203 95.8369 71.2728 96.7484 71.3491 98.3436C71.4253 99.8628 71.5016 101.99 71.5016 104.345C71.5016 106.699 71.4253 108.826 71.2728 110.345C71.1966 111.941 71.0441 112.852 70.9679 112.852Z" fill="#FAFAFA"/>
<path d="M110.997 213.956L118.545 234.693L129.295 249.354C130.058 250.417 129.753 251.937 128.685 252.62C128.075 253 127.313 253.076 126.627 252.772C122.281 250.949 106.422 244.34 105.964 242.821C105.431 240.998 95.2139 218.742 95.2139 218.742L110.997 213.956Z" fill="#E36F59"/>
<g opacity="0.6">
<g opacity="0.6">
<path opacity="0.6" d="M128.609 252.62L105.354 241.454L105.659 242.289C105.964 243.049 106.498 243.657 107.184 244.037C109.09 245.024 114.428 247.759 126.398 252.772C127.161 253.076 127.999 253 128.609 252.62Z" fill="white"/>
</g>
</g>
<g opacity="0.6">
<g opacity="0.6">
<g opacity="0.6">
<path opacity="0.6" d="M106.955 233.174C107.642 233.326 108.099 234.01 107.947 234.693C107.794 235.377 107.108 235.833 106.422 235.681C105.736 235.529 105.202 234.693 105.354 234.086C105.583 233.478 106.422 232.946 107.032 233.25" fill="white"/>
</g>
</g>
</g>
<path d="M120.374 245.48C120.527 245.48 120.527 244.265 121.594 243.201C122.586 242.138 123.805 241.986 123.805 241.834C123.805 241.758 123.5 241.682 122.967 241.834C122.433 241.986 121.823 242.29 121.213 242.897C120.679 243.505 120.374 244.189 120.298 244.72C120.222 245.176 120.298 245.48 120.374 245.48Z" fill="#263238"/>
<path d="M122.967 247.683C123.12 247.759 123.501 246.771 124.416 246.087C125.331 245.328 126.322 245.176 126.322 245.024C126.322 244.872 125.179 244.872 124.111 245.708C123.044 246.467 122.815 247.607 122.967 247.683Z" fill="#263238"/>
<path d="M116.257 242.973C116.41 243.049 117.02 241.606 118.392 240.39C119.765 239.099 121.213 238.643 121.137 238.491C121.137 238.339 119.46 238.643 118.011 240.011C116.562 241.378 116.181 242.973 116.257 242.973Z" fill="#263238"/>
<path d="M113.436 236.896C113.513 236.972 114.504 236.061 115.952 235.453C117.401 234.769 118.697 234.693 118.697 234.617C118.697 234.466 117.325 234.39 115.724 235.073C114.199 235.681 113.36 236.82 113.436 236.896Z" fill="#263238"/>
<path d="M111.073 230.895C111.149 230.971 112.064 229.832 113.666 229.3C115.267 228.692 116.639 229.072 116.639 228.92C116.639 228.844 116.334 228.692 115.724 228.616C115.114 228.54 114.276 228.54 113.437 228.844C112.598 229.148 111.912 229.604 111.531 230.06C111.149 230.515 111.073 230.819 111.073 230.895Z" fill="#263238"/>
<path d="M113.207 228.161C113.207 228.161 113.207 227.857 112.902 227.401C112.674 226.945 112.216 226.262 111.454 225.578C111.072 225.274 110.691 224.895 110.005 224.819C109.7 224.819 109.242 225.046 109.09 225.35C108.938 225.73 109.014 226.11 109.09 226.414C109.624 227.705 111.225 228.541 112.75 228.161C114.275 227.781 115.266 226.414 115.418 225.046C115.418 224.743 115.418 224.287 115.113 224.059C114.808 223.755 114.351 223.755 114.046 223.983C113.436 224.287 113.207 224.819 112.978 225.198C112.521 226.034 112.292 226.794 112.216 227.325C112.14 227.857 112.14 228.161 112.14 228.161C112.216 228.161 112.292 226.945 113.283 225.35C113.512 224.97 113.817 224.515 114.275 224.287C114.503 224.211 114.732 224.211 114.808 224.363C114.961 224.515 115.037 224.743 114.961 225.046C114.808 226.186 113.893 227.401 112.597 227.705C111.301 228.009 109.852 227.325 109.471 226.262C109.395 226.034 109.319 225.73 109.395 225.502C109.471 225.274 109.624 225.198 109.852 225.198C110.31 225.198 110.767 225.502 111.149 225.806C112.75 227.021 113.131 228.237 113.207 228.161Z" fill="#263238"/>
<path d="M142.867 208.563L142.181 225.426C142.181 225.426 159.107 231.731 159.336 234.845L126.551 234.769L126.475 208.487L142.867 208.563Z" fill="#E36F59"/>
<g opacity="0.6">
<g opacity="0.6">
<path opacity="0.6" d="M132.04 223.983C131.43 224.135 130.973 224.894 131.125 225.502C131.278 226.11 131.964 226.565 132.65 226.414C133.26 226.262 133.87 225.426 133.641 224.818C133.413 224.211 132.574 223.679 131.964 224.059" fill="white"/>
</g>
</g>
<g opacity="0.6">
<path opacity="0.6" d="M126.551 234.769V232.187L158.116 233.25C158.116 233.25 159.565 233.858 159.412 234.921L126.551 234.769Z" fill="white"/>
</g>
<path d="M142.715 225.274C142.715 225.426 141.876 225.502 141.114 226.034C140.275 226.49 139.894 227.249 139.741 227.173C139.589 227.173 139.818 226.186 140.809 225.578C141.8 224.894 142.791 225.122 142.715 225.274Z" fill="#263238"/>
<path d="M146.146 226.641C146.146 226.793 145.46 227.097 144.926 227.705C144.393 228.389 144.24 229.072 144.088 229.072C143.935 229.072 143.859 228.161 144.545 227.325C145.231 226.565 146.146 226.49 146.146 226.641Z" fill="#263238"/>
<path d="M148.129 230.743C147.976 230.743 147.747 229.984 148.205 229.072C148.586 228.161 149.349 227.857 149.425 228.009C149.501 228.161 149.044 228.616 148.662 229.3C148.357 230.06 148.281 230.743 148.129 230.743Z" fill="#263238"/>
<path d="M142.487 221.4C142.41 221.552 141.648 221.324 140.809 221.4C139.894 221.476 139.208 221.704 139.132 221.628C139.055 221.476 139.742 220.944 140.809 220.868C141.8 220.716 142.563 221.248 142.487 221.4Z" fill="#263238"/>
<g opacity="0.3">
<path opacity="0.3" d="M142.715 211.905L142.639 214.867L126.475 214.716V211.981L142.715 211.905Z" fill="black"/>
</g>
<path d="M142.563 217.982C142.563 218.058 141.953 218.134 140.885 217.982C140.352 217.906 139.818 217.754 139.132 217.45C138.827 217.298 138.522 217.146 138.217 216.918C138.064 216.842 137.912 216.691 137.759 216.539C137.607 216.387 137.454 215.931 137.683 215.703C137.836 215.475 138.141 215.323 138.369 215.323C138.598 215.323 138.827 215.399 138.979 215.399C139.36 215.475 139.665 215.627 139.97 215.779C140.58 216.083 141.114 216.463 141.495 216.766C142.258 217.45 142.486 218.058 142.486 218.134C142.41 218.21 142.029 217.678 141.267 217.07C140.885 216.766 140.352 216.463 139.818 216.235C139.513 216.083 139.208 216.007 138.903 215.931C138.522 215.855 138.293 215.855 138.141 216.007C138.141 216.083 138.141 216.083 138.141 216.159C138.217 216.235 138.369 216.311 138.522 216.463C138.827 216.615 139.132 216.842 139.36 216.994C139.894 217.298 140.504 217.45 140.962 217.602C141.877 217.83 142.563 217.906 142.563 217.982Z" fill="#263238"/>
<path d="M142.333 218.21C142.257 218.21 141.952 217.678 141.876 216.615C141.876 216.083 141.876 215.475 142.105 214.792C142.181 214.488 142.333 214.108 142.562 213.804C142.791 213.5 143.02 213.044 143.63 212.969C143.935 212.969 144.24 213.196 144.316 213.424C144.392 213.652 144.468 213.804 144.468 214.032C144.545 214.412 144.545 214.792 144.468 215.171C144.392 215.855 144.087 216.463 143.782 216.843C143.172 217.678 142.486 217.906 142.486 217.83C142.41 217.754 143.02 217.45 143.477 216.615C143.706 216.235 143.935 215.703 144.011 215.095C144.011 214.792 144.011 214.488 144.011 214.184C143.935 213.804 143.858 213.576 143.706 213.576C143.553 213.576 143.248 213.804 143.096 214.108C142.943 214.412 142.791 214.716 142.715 215.019C142.486 215.627 142.41 216.159 142.41 216.615C142.257 217.602 142.41 218.21 142.333 218.21Z" fill="#263238"/>
<path d="M126.475 127.816C107.109 129.791 81.4141 132.45 81.4141 132.45L84.9213 163.898C84.9213 163.898 122.663 153.947 122.434 154.782C122.129 155.618 124.188 221.704 124.188 221.704H146.909L147.366 146.883C147.442 135.564 137.759 126.677 126.475 127.816Z" fill="#263238"/>
<path d="M34.9805 140.502V150.225C34.9805 156.833 42.605 163.898 49.2383 163.898H54.423C58.4639 163.898 64.8685 160.935 68.1471 158.581L70.1294 157.137L93.8416 230.212C93.8416 230.212 120.909 225.35 120.909 224.515C120.909 223.679 102.534 164.657 94.0704 137.235C90.6394 126.069 78.5926 119.537 67.4608 123.335C67.0796 123.487 66.6984 123.639 66.3172 123.79C54.1942 128.728 34.9805 140.502 34.9805 140.502Z" fill="#263238"/>
<path d="M120.833 224.591C120.833 224.591 120.757 224.515 120.68 224.363C120.604 224.135 120.528 223.907 120.375 223.603C120.147 222.919 119.765 221.932 119.308 220.565C118.393 217.906 117.173 214.108 115.648 209.322C112.598 199.827 108.557 186.61 104.135 172.026C101.924 164.733 99.8654 157.745 97.9593 151.44C97.0444 148.25 96.1294 145.287 95.2907 142.477C94.8333 141.034 94.4521 139.742 94.0708 138.375C93.6896 137.084 93.3084 135.792 92.8509 134.653C91.936 132.374 90.4873 130.627 89.0386 129.26C87.59 127.892 86.2176 126.905 84.9977 126.145C83.854 125.386 82.939 124.778 82.2528 124.398C81.9479 124.246 81.7191 124.094 81.5666 123.942C81.4141 123.866 81.3379 123.791 81.3379 123.791C81.3379 123.791 81.4141 123.791 81.5666 123.942C81.7954 124.018 82.0241 124.17 82.3291 124.322C83.0153 124.702 83.9302 125.234 85.0739 125.993C86.2938 126.753 87.6662 127.74 89.1911 129.032C90.6398 130.399 92.1647 132.146 93.1559 134.501C93.6896 135.64 94.0708 136.932 94.4521 138.223C94.8333 139.514 95.2907 140.882 95.672 142.249C96.5107 145.06 97.4256 148.098 98.4168 151.212C100.323 157.517 102.458 164.506 104.669 171.798C109.091 186.382 113.056 199.524 115.953 209.171C117.402 213.88 118.622 217.754 119.46 220.489C119.842 221.78 120.223 222.844 120.452 223.527C120.528 223.831 120.604 224.135 120.68 224.363C120.833 224.439 120.833 224.591 120.833 224.591Z" fill="#455A64"/>
<path d="M126.551 145.363C126.703 145.439 125.407 147.414 124.34 149.997C123.272 152.58 122.815 154.858 122.586 154.858C122.434 154.858 122.662 152.504 123.806 149.769C124.95 147.034 126.475 145.211 126.551 145.363Z" fill="#455A64"/>
<path d="M130.897 148.402C130.973 148.554 128.99 149.389 127.008 150.985C124.949 152.58 123.653 154.251 123.501 154.175C123.348 154.099 124.492 152.2 126.627 150.529C128.762 148.858 130.897 148.25 130.897 148.402Z" fill="#455A64"/>
<path d="M93.9945 230.288C93.842 230.364 87.4374 210.766 79.7367 186.61C71.9597 162.455 65.8601 142.781 66.0126 142.781C66.1651 142.705 72.5696 162.303 80.2704 186.458C87.9711 210.614 94.147 230.212 93.9945 230.288Z" fill="#455A64"/>
<path d="M64.9443 116.27L142.486 117.03L156.896 76.3149L100.551 76.6947L87.4366 113.308L64.9443 113.612V116.27Z" fill="#455A64"/>
<path d="M123.729 100.167C121.975 99.9388 120.832 98.3436 121.06 96.5965C121.289 94.8494 122.89 93.71 124.644 93.9379C126.397 94.1658 127.541 95.7609 127.312 97.508C127.007 99.1792 125.406 100.395 123.729 100.167Z" fill="white"/>
<path d="M58.6167 6.12712C59.3791 3.39252 61.3615 2.10119 64.0301 1.18966C66.6986 0.278129 69.8247 0.809858 72.0358 2.481C73.5607 3.62041 74.7044 5.29155 76.458 5.89924C79.3553 6.88673 82.7863 4.75982 85.6074 6.05116C87.2848 6.81077 88.1997 8.86171 87.8185 10.6088C87.361 12.3559 85.6074 13.7232 83.7775 13.6472C85.6837 14.3309 86.2936 17.0655 85.1499 18.7366C84.0063 20.4078 81.7189 21.0914 79.7365 20.7116C77.7542 20.3318 76.0005 19.1164 74.4756 17.7491C72.9507 16.3818 71.5783 14.8626 69.9772 13.6472C68.376 12.4319 66.3937 11.5203 64.3351 11.5963C61.5902 11.7482 59.2266 13.7992 58.0067 16.2299C56.7868 18.6607 56.4818 21.4712 56.3293 24.2058C56.1768 26.9404 56.1006 29.7509 55.3381 32.3336C55.2619 32.6375 55.1094 33.0173 54.8044 33.0932C54.347 33.2452 53.9657 32.7894 53.737 32.3336C51.2209 27.7 49.6198 22.6106 49.086 17.3693C48.7811 14.3309 48.8573 11.4444 50.5347 8.93767C52.2883 6.355 56.5581 4.45598 58.6167 6.12712Z" fill="#263238"/>
<path d="M53.2792 18.8126L51.9068 49.5768C51.678 54.8181 52.3642 62.5661 60.6749 62.5661C67.9182 62.0344 70.0531 55.2738 70.2056 50.4124C70.2818 48.1335 70.4343 46.1586 70.4343 45.9307C70.4343 45.9307 78.2875 45.5509 79.2787 37.8028C79.7362 34.0808 80.0412 26.3328 80.1937 19.2684C80.4224 11.7483 74.704 5.29159 67.232 4.53198L66.4695 4.45602C58.3113 4.07622 53.5079 10.6848 53.2792 18.8126Z" fill="#FFBE9D"/>
<path d="M70.5104 45.7788C70.5104 45.7788 65.5545 45.6269 60.6748 41.8289C60.6748 41.8289 62.5047 47.6778 70.2817 47.7538L70.5104 45.7788Z" fill="#EB996E"/>
<path d="M77.3733 24.206C77.297 24.8137 76.7633 25.2695 76.1534 25.1935C75.5434 25.1935 75.0859 24.6618 75.0859 24.0541C75.1622 23.4464 75.6959 22.9907 76.3059 23.0666C76.9921 23.1426 77.4495 23.5984 77.3733 24.206Z" fill="#263238"/>
<path d="M78.1362 22.9147C77.9837 23.0666 77.2212 22.307 76.0013 22.231C74.7814 22.0791 73.8665 22.6108 73.7902 22.4589C73.714 22.3829 73.8664 22.1551 74.3239 21.9272C74.7051 21.6993 75.3914 21.4714 76.1538 21.5474C76.9163 21.6233 77.5262 22.0031 77.8312 22.307C78.1362 22.5349 78.2124 22.8387 78.1362 22.9147Z" fill="#263238"/>
<path d="M65.6311 23.3704C65.5549 23.978 65.0211 24.4338 64.4112 24.3578C63.8012 24.3578 63.3438 23.8261 63.3438 23.2184C63.42 22.6107 63.9537 22.155 64.5637 22.2309C65.2499 22.3069 65.7073 22.7627 65.6311 23.3704Z" fill="#263238"/>
<path d="M66.394 21.8512C66.2415 22.0031 65.479 21.2435 64.2591 21.1675C63.0392 21.0156 62.1243 21.5473 62.048 21.3954C61.9718 21.3195 62.1243 21.0916 62.5817 20.8637C62.963 20.6358 63.6492 20.4079 64.4116 20.4839C65.1741 20.5599 65.784 20.9397 66.089 21.2435C66.394 21.5473 66.4702 21.7752 66.394 21.8512Z" fill="#263238"/>
<path d="M69.749 31.1184C69.749 31.0424 70.5115 30.9664 71.7314 30.9664C72.0364 30.9664 72.3414 30.9664 72.4176 30.7386C72.4938 30.5107 72.4176 30.2068 72.3414 29.827C72.1126 29.0674 71.8839 28.2318 71.6551 27.3963C70.7402 23.978 70.1302 21.1675 70.2827 21.1675C70.4352 21.1675 71.2739 23.9021 72.1889 27.3203C72.4176 28.1559 72.6463 28.9915 72.7988 29.7511C72.8751 30.1309 73.0276 30.5107 72.7988 30.9664C72.7226 31.1943 72.4176 31.3462 72.2651 31.3462C72.0364 31.4222 71.8839 31.3462 71.7314 31.3462C70.5115 31.2703 69.749 31.1943 69.749 31.1184Z" fill="#263238"/>
<path d="M66.1653 31.5742C66.3941 31.5742 66.2416 32.8656 67.2328 33.929C68.2239 34.9925 69.6726 34.9925 69.5964 35.1444C69.5964 35.2203 69.2914 35.3723 68.6814 35.2963C68.0715 35.2203 67.309 34.9925 66.699 34.3848C66.0891 33.7771 65.8604 32.9415 65.8604 32.4098C65.9366 31.8781 66.0891 31.5742 66.1653 31.5742Z" fill="#263238"/>
<path d="M67.2325 17.2175C67.08 17.5213 65.9363 17.2175 64.4876 17.2935C63.039 17.2935 61.8953 17.5973 61.7428 17.2935C61.6666 17.1415 61.8953 16.8377 62.429 16.6098C62.8865 16.3819 63.6489 16.1541 64.4876 16.1541C65.3263 16.1541 66.0888 16.3819 66.5463 16.6098C67.0037 16.8377 67.2325 17.0656 67.2325 17.2175Z" fill="#263238"/>
<path d="M78.059 19.4203C77.8303 19.6482 76.9916 19.2684 76.0766 19.1924C75.0854 19.0405 74.2467 19.1924 74.0943 18.8886C74.018 18.7366 74.1705 18.5088 74.5517 18.2809C74.933 18.053 75.5429 17.9011 76.2291 17.977C76.9153 18.053 77.449 18.3568 77.754 18.6607C78.059 18.9645 78.1353 19.2684 78.059 19.4203Z" fill="#263238"/>
<path d="M53.3556 24.5855C53.2031 24.5095 48.171 22.4586 47.7897 27.7758C47.4085 33.0931 52.8219 32.4095 52.8219 32.2575C52.8219 32.0297 53.3556 24.5855 53.3556 24.5855Z" fill="#FFBE9D"/>
<path d="M51.3737 30.0546C51.3737 30.0546 51.2974 30.1305 51.1449 30.2065C50.9924 30.2824 50.6874 30.2824 50.4587 30.2065C49.925 29.9786 49.4675 29.0671 49.5438 28.0796C49.5438 27.6238 49.6963 27.168 49.925 26.7882C50.1537 26.4084 50.3825 26.1806 50.6874 26.1046C50.9924 26.0286 51.1449 26.2565 51.2212 26.4084C51.2974 26.5604 51.2212 26.6363 51.2974 26.7123C51.2974 26.7123 51.4499 26.6363 51.3737 26.4084C51.3737 26.3325 51.2974 26.1806 51.2212 26.0286C51.0687 25.9527 50.9162 25.8767 50.6874 25.8767C50.3062 25.8767 49.8487 26.2565 49.62 26.6363C49.3913 27.0161 49.2388 27.5479 49.1625 28.0796C49.0863 29.143 49.62 30.2065 50.3062 30.4344C50.6874 30.5863 50.9924 30.4344 51.1449 30.3584C51.2974 30.2065 51.3737 30.1305 51.3737 30.0546Z" fill="#EB996E"/>
<path d="M82.0239 17.825C78.5166 18.3567 74.7806 17.0654 72.3408 14.5587C70.5871 12.7356 69.4435 10.3048 67.1561 9.31735C65.6312 8.63371 63.8013 8.78563 62.2764 9.46927C60.7515 10.1529 59.4554 11.2164 58.2354 12.4317C59.3029 16.5336 57.8542 20.7874 56.4056 24.7374C56.2531 25.1932 56.0243 25.6489 55.6431 25.8768C54.9569 26.2566 54.042 25.8009 53.5845 25.1932C52.822 24.2057 52.5933 22.8384 52.5171 21.623C52.2883 18.7365 52.5171 15.774 53.5082 13.0394C54.4232 10.3048 56.1006 7.79814 58.3879 5.97507C61.2852 3.77221 65.0213 2.86068 68.681 3.31644C72.3408 3.77221 75.6956 5.44335 78.2879 7.95006C79.5078 9.08947 80.6515 10.4568 81.109 12.0519" fill="#263238"/>
</svg>
