<svg width="41" height="32" viewBox="0 0 41 32" fill="none" xmlns="http://www.w3.org/2000/svg">
<path d="M26.3154 21.5729C26.3154 21.5729 26.4679 21.4209 26.6967 21.1171C27.0016 20.8133 27.3829 20.4335 27.8403 19.9777C28.8315 18.9902 30.2039 17.6989 31.7288 16.2556V16.4835C30.2039 15.0402 28.8315 13.7489 27.8403 12.8374C27.3829 12.3816 27.0016 12.0018 26.6967 11.698C26.3917 11.3941 26.3154 11.2422 26.3154 11.2422C26.3154 11.2422 26.4679 11.3941 26.7729 11.622C27.0779 11.9258 27.5353 12.3056 27.9928 12.6854C28.984 13.597 30.4327 14.8883 31.9576 16.3316L32.0338 16.4075L31.9576 16.4835C30.4327 17.9267 29.0602 19.2181 27.9928 20.2056C27.5353 20.6613 27.0779 21.0411 26.7729 21.269C26.4679 21.4969 26.3154 21.6488 26.3154 21.5729Z" fill="#E0E0E0"/>
<path d="M14.4215 11.1663C14.4215 11.1663 14.269 11.3182 14.0403 11.622C13.7353 11.9259 13.3541 12.3057 12.8966 12.7614C11.9054 13.7489 10.533 15.0403 9.0081 16.4835V16.2556C10.533 17.6989 11.9054 18.9902 12.8966 19.9018C13.3541 20.3575 13.7353 20.7373 14.0403 21.0412C14.3453 21.345 14.4215 21.4969 14.4215 21.4969C14.4215 21.4969 14.269 21.345 13.964 21.1171C13.659 20.8133 13.2016 20.4335 12.7441 20.0537C11.7529 19.1422 10.3043 17.8508 8.77937 16.4076L8.70312 16.3316L8.77937 16.2556C10.3043 14.8124 11.6767 13.521 12.7441 12.5336C13.2016 12.0778 13.659 11.698 13.964 11.4701C14.1928 11.2422 14.3453 11.1663 14.4215 11.1663Z" fill="#E0E0E0"/>
<path d="M17.4712 24.0795C17.3949 24.0795 18.6148 20.5853 20.2922 16.2556C21.8934 12.0018 23.2658 8.50757 23.342 8.50757C23.4183 8.50757 22.1984 12.0018 20.521 16.3315C18.8436 20.6613 17.5474 24.0795 17.4712 24.0795Z" fill="#E0E0E0"/>
<path d="M39.8108 31.5238C39.8108 31.5238 39.8108 31.2959 39.8108 30.9161C39.8108 30.5363 39.8108 29.9286 39.8108 29.2449C39.8108 27.8017 39.8108 25.5988 39.8108 22.8642C39.8108 17.395 39.8108 9.57107 39.7345 0.0759609L39.8108 0.151922C28.7552 0.151922 15.4123 0.151922 1.07828 0.151922L1.23078 0C1.23078 11.3941 1.23078 22.1046 1.23078 31.4478L1.07828 31.2959C12.5913 31.2959 22.1982 31.3718 29.0602 31.3718C32.4912 31.3718 35.1598 31.3718 36.9897 31.3718C37.9046 31.3718 38.5908 31.3718 39.1246 31.3718C39.3533 31.3718 39.5058 31.3718 39.6583 31.3718C39.7345 31.5238 39.8108 31.5238 39.8108 31.5238C39.8108 31.5238 39.7345 31.5238 39.6583 31.5238C39.5058 31.5238 39.3533 31.5238 39.1246 31.5238C38.6671 31.5238 37.9809 31.5238 37.066 31.5238C35.2361 31.5238 32.5675 31.5238 29.1364 31.5238C22.3506 31.5238 12.6675 31.5238 1.07828 31.5997H0.925781V31.4478C0.925781 22.1046 0.925781 11.3941 0.925781 0H1.07828C15.4123 0 28.679 0 39.8108 0H39.887V0.0759609C39.887 9.57107 39.8108 17.395 39.8108 22.9402C39.8108 25.6748 39.8108 27.8017 39.8108 29.3209C39.8108 30.0805 39.8108 30.6122 39.8108 30.992C39.8108 31.3718 39.8108 31.5238 39.8108 31.5238Z" fill="#E0E0E0"/>
<path d="M40.1156 4.78547C40.1156 4.86143 31.3474 4.93739 20.5969 4.93739C9.84631 4.93739 1.07812 4.86143 1.07812 4.78547C1.07812 4.70951 9.84631 4.63354 20.5969 4.63354C31.3474 4.63354 40.1156 4.70951 40.1156 4.78547Z" fill="#E0E0E0"/>
<path d="M4.28034 2.50682C4.28034 2.81067 4.0516 3.03855 3.74662 3.03855C3.44164 3.03855 3.21289 2.81067 3.21289 2.50682C3.21289 2.20298 3.44164 1.9751 3.74662 1.9751C4.0516 1.9751 4.28034 2.20298 4.28034 2.50682Z" fill="#E0E0E0"/>
<path d="M5.65287 3.03855C5.94763 3.03855 6.18659 2.80049 6.18659 2.50682C6.18659 2.21316 5.94763 1.9751 5.65287 1.9751C5.3581 1.9751 5.11914 2.21316 5.11914 2.50682C5.11914 2.80049 5.3581 3.03855 5.65287 3.03855Z" fill="#E0E0E0"/>
<path d="M8.09284 2.50682C8.09284 2.81067 7.8641 3.03855 7.55912 3.03855C7.25414 3.03855 7.02539 2.81067 7.02539 2.50682C7.02539 2.20298 7.25414 1.9751 7.55912 1.9751C7.8641 1.9751 8.09284 2.20298 8.09284 2.50682Z" fill="#E0E0E0"/>
</svg>
