<svg width="97" height="65" viewBox="0 0 97 65" fill="none" xmlns="http://www.w3.org/2000/svg">
<path d="M96.3523 0.427246H0.893555V64.0825H96.3523V0.427246Z" fill="white"/>
<path d="M96.3524 64.0825C96.3524 64.0825 96.3524 63.7027 96.3524 62.9431C96.3524 62.1835 96.3524 61.0441 96.3524 59.6008C96.3524 56.6384 96.3524 52.3086 96.3524 46.7635C96.3524 35.6732 96.2762 19.7973 96.2762 0.42731L96.4287 0.57923C70.1241 0.57923 36.9575 0.57923 0.969874 0.57923L1.12236 0.42731C1.12236 23.1396 1.12236 44.7125 1.12236 64.0825L0.969874 63.9306C29.1043 63.9306 52.8928 64.0066 69.7429 64.0066C78.1299 64.0066 84.8394 64.0066 89.4141 64.0825C91.7015 64.0825 93.4551 64.0825 94.675 64.0825C95.285 64.0825 95.7425 64.0825 96.0475 64.0825C96.1999 64.0825 96.3524 64.0825 96.3524 64.0825C96.3524 64.0825 96.1999 64.0825 95.895 64.0825C95.59 64.0825 95.1325 64.0825 94.5988 64.0825C93.3789 64.0825 91.7015 64.0825 89.4141 64.0825C84.8394 64.0825 78.2061 64.0825 69.8192 64.1585C52.969 64.1585 29.1043 64.2345 0.969874 64.2345H0.817383V64.0825C0.817383 44.6365 0.817383 23.0637 0.817383 0.42731V0.275391H0.969874C36.9575 0.275391 70.1241 0.275391 96.4287 0.275391H96.5812V0.42731C96.5812 19.8733 96.5049 35.7491 96.5049 46.8394C96.5049 52.3846 96.5049 56.7143 96.5049 59.6008C96.5049 61.0441 96.5049 62.1835 96.5049 62.9431C96.3524 63.7027 96.3524 64.0825 96.3524 64.0825Z" fill="#E0E0E0"/>
<path d="M0.893555 6.12433C0.893555 6.04837 22.2422 5.97241 48.623 5.97241C75.0037 5.97241 96.3523 6.04837 96.3523 6.12433C96.3523 6.20029 75.0037 6.27625 48.623 6.27625C22.2422 6.27625 0.893555 6.20029 0.893555 6.12433Z" fill="#E0E0E0"/>
<g opacity="0.3">
<g opacity="0.3">
<path opacity="0.3" d="M4.62939 3.23788C4.62939 3.69365 4.32441 3.99749 3.86694 3.99749C3.40947 3.99749 3.10449 3.69365 3.10449 3.23788C3.10449 2.78211 3.40947 2.47827 3.86694 2.47827C4.32441 2.47827 4.62939 2.85808 4.62939 3.23788Z" fill="#E0E0E0"/>
</g>
</g>
<g opacity="0.3">
<g opacity="0.3">
<path opacity="0.3" d="M6.45972 3.99749C6.88081 3.99749 7.22217 3.6574 7.22217 3.23788C7.22217 2.81836 6.88081 2.47827 6.45972 2.47827C6.03863 2.47827 5.69727 2.81836 5.69727 3.23788C5.69727 3.6574 6.03863 3.99749 6.45972 3.99749Z" fill="#E0E0E0"/>
</g>
</g>
<g opacity="0.3">
<g opacity="0.3">
<path opacity="0.3" d="M9.81396 3.23788C9.81396 3.69365 9.50898 3.99749 9.05151 3.99749C8.59404 3.99749 8.28906 3.69365 8.28906 3.23788C8.28906 2.78211 8.59404 2.47827 9.05151 2.47827C9.50898 2.47827 9.81396 2.85808 9.81396 3.23788Z" fill="#E0E0E0"/>
</g>
</g>
<path d="M34.5176 12.7329H9.05176V38.1039H34.5176V12.7329Z" fill="#E0E0E0"/>
<path d="M83.2379 19.9493C83.2379 20.0253 73.326 20.1012 61.0506 20.1012C48.7751 20.1012 38.8633 20.0253 38.8633 19.9493C38.8633 19.8733 48.7751 19.7974 61.0506 19.7974C73.326 19.7214 83.2379 19.7974 83.2379 19.9493Z" fill="#E0E0E0"/>
<path d="M83.2379 24.6588C83.2379 24.7347 73.326 24.8107 61.0506 24.8107C48.7751 24.8107 38.8633 24.7347 38.8633 24.6588C38.8633 24.5828 48.7751 24.5068 61.0506 24.5068C73.326 24.5068 83.2379 24.5828 83.2379 24.6588Z" fill="#E0E0E0"/>
<path d="M83.2379 29.3685C83.2379 29.4444 73.326 29.5204 61.0506 29.5204C48.7751 29.5204 38.8633 29.4444 38.8633 29.3685C38.8633 29.2925 48.7751 29.2166 61.0506 29.2166C73.326 29.2166 83.2379 29.2925 83.2379 29.3685Z" fill="#E0E0E0"/>
<path d="M65.0917 34.078C65.0917 34.078 64.7105 34.1539 64.0243 34.1539C63.2618 34.1539 62.3469 34.1539 61.2032 34.2299C58.8396 34.2299 55.5611 34.3059 51.9013 34.3059C48.3178 34.3059 45.0393 34.3059 42.5994 34.2299C41.4558 34.2299 40.5408 34.1539 39.7784 34.1539C39.0922 34.1539 38.7109 34.078 38.7109 34.078C38.7109 34.078 39.0922 34.002 39.7784 34.002C40.5408 34.002 41.4558 34.002 42.5994 33.9261C44.963 33.9261 48.2416 33.8501 51.9013 33.8501C55.4848 33.8501 58.7634 33.8501 61.2032 33.9261C62.3469 33.9261 63.2618 34.002 64.0243 34.002C64.7105 34.002 65.0917 34.078 65.0917 34.078Z" fill="#E0E0E0"/>
<path d="M22.6238 46.6875H10.6533V58.6134H22.6238V46.6875Z" fill="#E0E0E0"/>
<path d="M44.3533 46.6875H32.3828V58.6134H44.3533V46.6875Z" fill="#E0E0E0"/>
<path d="M66.0828 46.6875H54.1123V58.6134H66.0828V46.6875Z" fill="#E0E0E0"/>
<path d="M87.7371 46.6875H75.7666V58.6134H87.7371V46.6875Z" fill="#E0E0E0"/>
</svg>
