<svg width="51" height="68" viewBox="0 0 51 68" fill="none" xmlns="http://www.w3.org/2000/svg">
<path d="M18.3436 55.531C18.3436 55.531 18.2673 55.9868 17.8099 56.5945C17.3524 57.2021 16.5137 58.1137 15.2176 58.4935C14.5313 58.7214 13.7689 58.7973 12.9302 58.6454C12.0915 58.4935 11.2528 58.1137 10.5666 57.506C10.1854 57.2021 9.88041 56.8223 9.65167 56.4425C9.34669 56.0627 9.19419 55.607 9.0417 55.0752C8.73672 54.0877 8.81297 53.0243 9.1942 51.9608C9.57542 50.9734 10.2616 50.1378 11.1766 49.6061C11.634 49.3022 12.0915 49.1503 12.549 48.9984C13.0064 48.8464 13.4639 48.7705 13.9976 48.8465C14.9126 48.8465 15.8275 49.1503 16.5137 49.6061C17.1999 50.0618 17.7336 50.5935 18.1149 51.2012C18.8773 52.4166 18.8773 53.632 18.8011 54.3916C18.4961 55.1512 18.3436 55.531 18.3436 55.531C18.3436 55.531 18.4961 55.1512 18.5723 54.3916C18.6486 53.632 18.5723 52.4926 17.8861 51.3532C17.5049 50.8214 17.0474 50.2137 16.3612 49.8339C15.675 49.4541 14.8363 49.1503 13.9976 49.1503C13.5402 49.1503 13.0827 49.2263 12.6252 49.3022C12.1678 49.4541 11.7103 49.6061 11.329 49.9099C10.4904 50.4416 9.8804 51.2012 9.49917 52.1887C9.11795 53.1762 9.11794 54.1637 9.34667 55.0752C9.49916 55.531 9.65166 55.9868 9.8804 56.3666C10.1091 56.7464 10.4141 57.1262 10.7953 57.3541C11.4816 57.9618 12.244 58.2656 13.0065 58.4175C13.7689 58.5694 14.5313 58.4935 15.2176 58.3416C16.5137 57.9618 17.3524 57.1262 17.8099 56.5945C18.1149 55.9108 18.2674 55.531 18.3436 55.531Z" fill="#E0E0E0"/>
<path d="M22.842 60.1646C22.842 60.1646 22.9182 60.1646 22.9945 60.1646C23.147 60.1646 23.2994 60.1646 23.5282 60.2406C23.9856 60.3165 24.6719 60.3925 25.5868 60.5444H25.5106C25.8918 59.481 26.4255 58.0377 27.1117 56.3666V56.4425C26.4255 55.9868 25.663 55.455 24.8244 54.9233H24.7481V54.8474C24.8243 53.9358 24.8243 52.9483 24.6719 51.9608V51.8849H24.7481C25.4343 51.3532 26.1968 50.8214 26.9592 50.2897V50.4416C26.3492 49.1503 25.7393 47.783 25.1293 46.3397L25.2818 46.4157C24.4431 46.5676 23.5282 46.7955 22.6133 46.9474H22.537L22.4608 46.8715C21.927 46.1878 21.1646 45.5042 20.3259 44.8965L20.2496 44.8205V44.7446C20.4021 43.909 20.4784 42.9975 20.6309 42.0859L20.7071 42.2379C19.411 41.7061 17.9623 41.1744 16.5136 40.6427L16.6661 40.5667C16.2087 41.2504 15.6749 42.01 15.1412 42.8455L15.065 42.9215H14.9887C14.0738 42.8455 13.0826 42.8455 12.0914 42.9975H12.0152L11.9389 42.9215C11.4052 42.2379 10.8715 41.4782 10.3378 40.7186L10.4903 40.7946C9.1941 41.4023 7.8217 42.01 6.37304 42.6177L6.44929 42.4657C6.60178 43.3013 6.83053 44.2128 6.98302 45.1244V45.2003L6.90677 45.2763C6.22056 45.884 5.45811 46.5676 4.92439 47.4032C4.84815 47.4032 5.07687 47.3272 4.77189 47.4792H4.69566H4.61941H4.46692L4.16194 47.4032L3.47574 47.3272C3.01827 47.2513 2.56078 47.1753 2.10331 47.0993L2.25581 47.0234C1.7221 48.4666 1.18838 49.8339 0.654663 51.2012L0.578413 51.0493C1.34086 51.581 2.10331 52.0368 2.86576 52.5685L2.94201 52.6445V52.7205C2.86577 53.7079 2.86577 54.6954 3.01826 55.607V55.6829L2.94201 55.7589C2.17956 56.2906 1.49336 56.8223 0.730912 57.3541L0.807162 57.2022C1.41712 58.5694 2.02708 60.0127 2.63704 61.304L2.48454 61.2281C3.39948 61.0762 4.31442 60.8483 5.15312 60.6964H5.22937L5.30561 60.7723C5.91558 61.5319 6.60177 62.2156 7.44047 62.7473L7.51672 62.8233V62.8992C7.36423 63.8107 7.21174 64.7223 7.13549 65.5578L7.05924 65.4059C8.5079 66.0136 9.95655 66.5453 11.2527 67.0011L11.1002 67.0771C11.634 66.3175 12.1677 65.5578 12.6251 64.7982V64.7223H12.7014C13.7688 64.7982 14.6838 64.7982 15.5987 64.6463H15.6749V64.7223C16.2849 65.4819 16.8186 66.2415 17.2761 66.9251H17.1998C18.801 66.2415 20.1734 65.6338 21.3171 65.1021V65.178C21.0883 64.1146 20.9358 63.2031 20.7833 62.5194C21.5458 61.9117 22.0795 61.38 22.3845 61.0002C22.537 60.8483 22.6132 60.6964 22.7657 60.5444C22.842 60.1646 22.842 60.0887 22.842 60.1646C22.842 60.1646 22.842 60.2406 22.7657 60.3165C22.6895 60.3925 22.6132 60.5444 22.4608 60.7723C22.1558 61.1521 21.6983 61.6838 20.8596 62.3675V62.2915C21.0121 63.0511 21.1646 63.8867 21.3933 64.9502V65.0261H21.3171C20.1734 65.5578 18.801 66.1655 17.1998 66.8492H17.1236L17.0473 66.7732C16.5136 66.0896 15.9799 65.4059 15.4462 64.5704H15.5224C14.6075 64.7223 13.6163 64.7982 12.5489 64.6463L12.6251 64.5704C12.1677 65.254 11.634 66.0136 11.1002 66.8492L11.024 66.9251H10.9477C9.65158 66.3934 8.20292 65.8617 6.75427 65.33H6.67802V65.254C6.83051 64.4184 6.90675 63.5069 7.05924 62.5954L7.13549 62.7473C6.37304 62.2156 5.6106 61.5319 5.00064 60.6964L5.15312 60.7723C4.31442 60.9242 3.39948 61.1521 2.48454 61.304H2.40831L2.33206 61.2281C1.7221 59.8608 1.11215 58.4935 0.502187 57.1262L0.425937 57.0502L0.502187 56.9743C1.18839 56.4425 1.95084 55.9108 2.71329 55.3791L2.63704 55.531C2.48455 54.5435 2.48454 53.556 2.56079 52.5685L2.63704 52.7205C1.87459 52.1887 1.11214 51.733 0.349687 51.2012L0.273438 51.1253L0.349687 51.0493C0.883403 49.682 1.41712 48.2388 1.95084 46.8715L2.02709 46.7955H2.10331C2.56078 46.8715 3.01827 46.9474 3.47574 47.0234L4.16194 47.0993L4.46692 47.1753H4.61941H4.69566H4.77189C4.54316 47.2513 4.69566 47.1753 4.61941 47.2513C5.22937 46.4157 5.91557 45.6561 6.67802 45.1244L6.60179 45.2763C6.4493 44.3648 6.22056 43.4532 6.06807 42.6177V42.5417L6.14432 42.4657C7.59297 41.858 8.96538 41.2504 10.2615 40.6427L10.3378 40.5667L10.414 40.6427C10.9478 41.4023 11.5577 42.1619 12.0152 42.8455L11.8627 42.7696C12.8539 42.6177 13.9213 42.6177 14.8362 42.6936L14.6837 42.7696C15.2175 42.01 15.7512 41.2504 16.2086 40.4908L16.2849 40.4148H16.3611C17.8098 40.9465 19.2585 41.5542 20.5546 42.01H20.6309V42.0859C20.4784 42.9975 20.3259 43.909 20.2496 44.7446L20.1734 44.6686C21.0121 45.2763 21.7745 45.9599 22.3083 46.7195L22.232 46.6436C23.147 46.4917 24.0619 46.2638 24.9006 46.1119H24.9768V46.1878C25.5868 47.6311 26.1968 48.9984 26.8067 50.2897V50.3657L26.7305 50.4416C25.968 50.9734 25.2056 51.581 24.5194 52.0368V51.9608C24.6719 53.0243 24.6718 54.0118 24.5956 54.9233V54.8474C25.4343 55.3791 26.1967 55.9108 26.883 56.3666H26.9592V56.4425C26.273 58.1137 25.7393 59.5569 25.2818 60.6204C24.4431 60.4685 23.7569 60.3925 23.2994 60.3165C23.0707 60.3165 22.9182 60.2406 22.7657 60.2406C22.9182 60.1646 22.842 60.1646 22.842 60.1646Z" fill="#E0E0E0"/>
<path fill-rule="evenodd" clip-rule="evenodd" d="M46.8587 47.3273C46.4012 48.0109 45.7912 48.6186 45.1813 49.0744L45.6387 51.2772L42.2077 52.7964L40.8353 50.9734C40.0729 51.1253 39.2342 51.1253 38.3955 51.0493L37.0993 52.9484L33.592 51.5811L33.897 49.3782C33.2108 48.9224 32.6009 48.3148 32.1434 47.7071L29.9323 48.1628L28.4074 44.7446L30.2373 43.3773C30.0848 42.6177 30.0848 41.7821 30.161 40.9465L28.2549 39.6552L29.6273 36.161L31.8384 36.4649C32.2959 35.7812 32.9058 35.1735 33.5158 34.7178L33.0583 32.5149L36.4893 30.9957L37.8618 32.8187C38.6242 32.6668 39.4629 32.6668 40.3016 32.7428L41.5978 30.8438L45.105 32.211L44.8 34.4139C45.4862 34.8697 46.0962 35.4774 46.5537 36.0851L48.7648 35.6293L50.2897 39.0475L48.4598 40.4148C48.6123 41.1744 48.6123 42.01 48.5361 42.8456L50.4422 44.1369L49.0698 47.6311L46.8587 47.3273ZM43.0464 43.5292C43.8089 41.4783 42.8177 39.1235 40.7591 38.3639C38.7004 37.6043 36.3369 38.5918 35.5744 40.6427C34.812 42.6936 35.8031 45.0484 37.8618 45.808C39.9204 46.6436 42.284 45.5802 43.0464 43.5292Z" fill="#E0E0E0"/>
<path fill-rule="evenodd" clip-rule="evenodd" d="M32.1441 26.5899C31.3816 27.6533 30.4667 28.5648 29.4755 29.3244L30.1617 32.8186L24.8246 35.1734L22.6897 32.3629C21.4698 32.5908 20.1736 32.5908 18.8774 32.4388L16.8951 35.4013L11.4054 33.2744L11.9392 29.7802C10.8717 29.0206 9.95678 28.1091 9.19433 27.1216L5.68705 27.8052L3.32345 22.488L6.14453 20.3611C5.91579 19.1457 5.91579 17.8544 6.06828 16.563L3.09473 14.588L5.22958 9.11885L8.73686 9.65057C9.49931 8.58712 10.4142 7.67559 11.4054 6.91598L10.7192 3.42178L16.0564 1.06699L18.1912 3.87755C19.4112 3.64966 20.7073 3.64966 22.0035 3.80158L23.9859 0.839111L29.4755 2.96602L28.9418 6.46022C30.0092 7.21982 30.9242 8.13136 31.6866 9.11885L35.1939 8.4352L37.5575 13.7525L34.7364 15.8794C34.9652 17.0947 34.9652 18.3861 34.8127 19.6774L37.7862 21.6524L35.6513 27.1216L32.1441 26.5899ZM26.197 20.5889C27.4169 17.3226 25.8158 13.7525 22.6135 12.4611C19.3349 11.2458 15.7514 12.8409 14.4552 16.0313C13.2353 19.2976 14.8365 22.8678 18.0388 24.1591C21.3173 25.4504 24.9008 23.8553 26.197 20.5889Z" fill="#E0E0E0"/>
</svg>
