<svg width="45" height="89" viewBox="0 0 45 89" fill="none" xmlns="http://www.w3.org/2000/svg">
<path d="M29.9637 37.2171C32.7086 35.8498 35.9109 35.6219 38.8844 36.1536C40.4856 36.4575 42.1629 36.9132 43.3066 38.1286C44.3741 39.344 44.6028 41.4709 43.3829 42.5343C42.6204 43.142 41.553 43.218 40.5618 43.218C38.1982 43.218 35.6059 42.7622 33.6997 44.2055C32.6323 45.041 31.8699 46.3324 30.6499 46.7881C29.3538 47.1679 27.9814 46.4083 27.2952 45.2689C26.609 44.1295 26.609 42.6862 26.9139 41.4709C26.8377 41.3949 27.2189 38.5844 29.9637 37.2171Z" fill="#75B687"/>
<path d="M23.7116 25.2151C25.389 27.5699 28.5913 26.8103 30.1162 25.3671C31.6411 23.9238 32.251 21.7969 32.861 19.8219C34.1571 15.2643 35.5296 10.4787 34.5384 5.84513C34.2334 4.47783 33.6997 3.11053 32.7085 2.04708C31.7173 0.983629 30.1924 0.375956 28.82 0.75576C27.2188 1.21153 26.1514 2.80669 25.4652 4.24994C23.3303 8.73163 22.1867 13.5931 22.1867 18.5306C22.1104 20.8854 22.4154 23.3161 23.7116 25.2151Z" fill="#75B687"/>
<path d="M19.1373 28.6333C20.9672 26.5064 21.2722 23.392 20.5097 20.7334C19.671 18.0748 17.9174 15.7959 15.7825 13.8969C13.3427 11.694 10.4454 10.0229 7.31931 8.95945C6.09939 8.50369 4.80322 8.19985 3.50705 8.35178C2.21089 8.5037 0.914723 9.11138 0.304762 10.2508C-0.610179 11.9219 0.304762 13.9729 1.2197 15.644C2.82085 18.6065 4.72697 21.417 6.78559 24.0757C8.46298 26.2026 10.3691 28.3295 12.8852 29.241C15.4013 30.2285 18.0699 30.0766 19.366 28.3295" fill="#75B687"/>
<path d="M23.5596 60.9167C23.5596 60.9167 23.6358 60.5369 23.7121 59.8533C23.7883 59.0937 23.8646 58.1062 24.017 56.8908C24.1695 55.6754 24.322 54.1562 24.7032 52.561C25.0082 50.9658 25.6182 49.2187 26.3044 47.4716C26.9906 45.7245 27.9055 44.1294 28.8967 42.914C29.8879 41.6227 31.1078 40.7111 32.1753 40.1794C33.2427 39.6477 34.2339 39.4198 34.9201 39.3438C35.6063 39.2679 35.9875 39.1919 35.9875 39.1919C35.9875 39.1919 35.6063 39.1919 34.9201 39.1919C34.2339 39.2679 33.1664 39.4198 32.0228 39.9515C30.8791 40.4832 29.5829 41.3948 28.5155 42.6861C27.4481 43.9774 26.5331 45.5726 25.8469 47.3957C25.1607 49.1428 24.627 50.8899 24.322 52.561C24.017 54.1562 23.8646 55.6754 23.7121 56.8908C23.6358 58.1062 23.5596 59.1696 23.5596 59.8533C23.5596 60.5369 23.5596 60.9167 23.5596 60.9167Z" fill="#263238"/>
<path d="M23.7883 58.6378C23.7883 58.6378 23.7883 58.4859 23.7883 58.1061C23.7883 57.7263 23.7883 57.2705 23.7883 56.6628C23.7883 55.4475 23.7883 53.6244 23.8646 51.4216C23.9408 47.0158 24.322 42.2303 25.0845 35.5457C25.7707 29.241 26.6856 21.8728 27.6768 17.0872C27.9055 16.0238 28.1343 15.0363 28.2868 14.2007C28.5155 13.3652 28.668 12.6055 28.8205 11.9979C28.973 11.4661 29.0492 11.0104 29.1255 10.6306C29.2017 10.3267 29.2017 10.1748 29.2017 10.1748C29.2017 10.1748 29.1255 10.3267 29.0492 10.6306C28.973 11.0104 28.8205 11.4661 28.668 11.9979C28.5155 12.6055 28.2868 13.2892 28.058 14.2007C27.8293 15.0363 27.6006 16.0238 27.3718 17.0872C26.3806 21.417 25.3895 27.4939 24.627 34.1784C23.8646 40.939 23.5596 47.0158 23.5596 51.4975C23.5596 53.7004 23.5596 55.5234 23.6358 56.7388C23.6358 57.3465 23.7121 57.8023 23.7121 58.1821C23.7883 58.4859 23.7883 58.6378 23.7883 58.6378Z" fill="#263238"/>
<path d="M23.788 46.7881C23.788 46.7881 23.788 46.2564 23.788 45.2689C23.7118 44.2814 23.6355 42.9141 23.3306 41.243C23.0256 39.5718 22.6443 37.5209 22.0344 35.394C21.7294 34.4065 21.1194 31.9758 19.5945 28.4056C17.5359 23.5441 14.7911 19.5941 12.3513 17.1634C11.8176 16.4797 11.1313 16.024 10.6739 15.5682C10.4451 15.3403 10.2164 15.1124 9.91143 14.9605C9.68269 14.8086 9.45396 14.6567 9.22522 14.5047C8.46277 13.973 8.0053 13.6692 7.92906 13.6692C7.85281 13.7452 9.68269 14.8846 12.0463 17.3153C14.4099 19.822 17.0785 23.696 19.1371 28.4816C20.2808 31.0642 21.0432 33.419 21.6532 35.394C22.2631 37.5209 22.7206 39.5718 23.0256 41.243C23.3306 42.9141 23.483 44.2814 23.6355 45.2689C23.7118 46.3324 23.788 46.7881 23.788 46.7881Z" fill="#263238"/>
<path d="M12.3516 67.6772L13.5715 83.8569H34.4626L35.6825 67.6772H12.3516Z" fill="#263238"/>
<path d="M38.1986 61.2966H10.3691V67.6773H38.1986V61.2966Z" fill="#263238"/>
<path d="M10.3691 83.2493V84.9964H11.6653H37.6649V83.2493H10.3691Z" fill="#455A64"/>
<path d="M12.9612 88.1107L11.665 84.9963H36.6734L35.2248 88.1107H12.9612Z" fill="#455A64"/>
<path d="M35.2248 72.9185C35.2248 72.9185 35.2248 72.9945 35.1485 73.0704C35.0723 73.1464 34.996 73.2983 34.8436 73.4502C34.5386 73.83 34.1574 74.3618 33.6236 74.9694L33.5474 75.0454C32.7849 73.982 31.7938 72.6147 30.5738 70.9435H30.7263C29.8114 72.2349 28.8202 73.6022 27.7528 75.1214L27.6765 75.2733L27.6003 75.1214C26.5328 73.83 25.3129 72.4627 24.093 70.9435H24.3217C24.2455 71.0195 24.1693 71.0954 24.093 71.1714C23.0256 72.5387 21.9581 73.83 20.967 75.0454L20.8907 75.1973L20.8145 75.0454C19.747 73.5262 18.7559 72.1589 17.8409 70.8676H17.9934C16.5447 72.5387 15.3248 73.906 14.3336 74.9694L14.2574 75.0454L14.1812 74.9694C13.7237 74.1339 13.3425 73.5262 13.0375 73.0704C12.885 72.8425 12.8087 72.6906 12.7325 72.5387C12.6563 72.3868 12.6562 72.3868 12.6562 72.3868C12.6562 72.3868 12.7325 72.4627 12.8087 72.5387C12.885 72.6906 13.0375 72.8425 13.1137 72.9945C13.4187 73.4502 13.7999 74.0579 14.3336 74.8935H14.2574C15.1723 73.83 16.3923 72.3868 17.8409 70.7156L17.9172 70.6397L17.9934 70.7156C18.9083 72.007 19.8995 73.3743 20.967 74.8175H20.7382C21.7294 73.6022 22.7968 72.2349 23.8643 70.9435C23.9405 70.8676 24.0168 70.7916 24.093 70.7156L24.1693 70.5637L24.2455 70.7156C25.4654 72.1589 26.6091 73.6021 27.7528 74.8935H27.524C28.5915 73.3743 29.5827 72.007 30.4976 70.7916L30.5738 70.6397L30.6501 70.7916C31.7938 72.4627 32.8612 73.906 33.5474 74.9694H33.4711C34.0049 74.3618 34.4623 73.83 34.7673 73.4502C34.9198 73.2983 34.996 73.1464 35.0723 73.0704C35.2248 72.9945 35.2248 72.9185 35.2248 72.9185Z" fill="#E0E0E0"/>
<path d="M35.9111 67.5255C35.9111 67.6014 30.6502 67.6774 24.2456 67.6774C17.7647 67.6774 12.5801 67.6014 12.5801 67.5255C12.5801 67.4495 17.841 67.3735 24.2456 67.3735C30.7264 67.4495 35.9111 67.4495 35.9111 67.5255Z" fill="#455A64"/>
<path d="M36.9785 85.2242C36.9785 85.3001 31.2602 85.3761 24.2456 85.3761C17.2311 85.3761 11.5127 85.3001 11.5127 85.2242C11.5127 85.1482 17.2311 85.0723 24.2456 85.0723C31.3364 85.0723 36.9785 85.1482 36.9785 85.2242Z" fill="#263238"/>
</svg>
