<svg width="45" height="110" viewBox="0 0 45 110" fill="none" xmlns="http://www.w3.org/2000/svg">
<path d="M44.8666 38.7834H11.8525V109.655H44.8666V38.7834Z" fill="#263238"/>
<path d="M42.0453 102.135C42.0453 102.135 42.0453 102.059 42.0453 101.831C42.0453 101.603 42.0453 101.299 42.0453 100.919C42.0453 100.16 42.0453 99.0205 42.0453 97.5013C42.0453 94.5388 42.0453 90.209 41.9691 84.8158C41.9691 74.0293 41.8928 58.8372 41.8928 41.1383L42.0453 41.2902C33.5059 41.2902 24.1277 41.2902 14.4446 41.2902L14.6734 41.0623C14.6734 64.7621 14.5971 86.259 14.5971 101.983L14.4446 101.831C22.9841 101.831 29.8461 101.907 34.6496 101.907C37.0132 101.907 38.9193 101.907 40.1392 101.907C40.7492 101.907 41.2066 101.907 41.5879 101.907C41.8166 102.135 42.0453 102.135 42.0453 102.135C42.0453 102.135 41.8928 102.135 41.5879 102.135C41.2829 102.135 40.7492 102.135 40.1392 102.135C38.843 102.135 37.0132 102.135 34.6496 102.135C29.8461 102.135 22.9078 102.211 14.3684 102.211H14.2159V102.059C14.2159 86.259 14.2159 64.7621 14.1396 41.1383V40.9104H14.3684C24.0515 40.9104 33.4296 40.9104 41.9691 40.9104H42.1216V41.0623C42.1216 58.8372 42.0453 74.0293 42.0453 84.8917C42.0453 90.285 41.9691 94.5388 41.9691 97.5013C41.9691 98.9445 41.9691 100.084 41.9691 100.844C41.9691 101.223 41.9691 101.527 41.9691 101.679C42.0453 102.059 42.0453 102.135 42.0453 102.135Z" fill="#455A64"/>
<path d="M40.2918 46.3795C40.2918 46.3795 40.2918 46.1516 40.2918 45.6199C40.2918 45.0882 40.2918 44.4045 40.2156 43.569L40.2918 43.6449C36.0221 43.7209 26.8727 43.7209 16.2746 43.7209C16.3509 43.6449 16.0459 43.9488 16.5034 43.493V43.569V43.6449V43.7968V44.1766C16.5034 44.4045 16.5034 44.6324 16.5034 44.8603C16.5034 45.316 16.5034 45.7718 16.5034 46.2276L16.2746 45.9997C22.9842 45.9997 29.0076 46.0757 33.2773 46.0757C35.4121 46.0757 37.1658 46.1516 38.3857 46.1516C38.9957 46.1516 39.4531 46.1516 39.7581 46.1516C40.1393 46.3795 40.2918 46.3795 40.2918 46.3795C40.2918 46.3795 40.1393 46.3795 39.8343 46.3795C39.4531 46.3795 39.0719 46.3795 38.4619 46.3795C37.242 46.3795 35.4884 46.3795 33.4298 46.4555C29.0838 46.5314 23.0604 46.5314 16.2746 46.5314H16.0459V46.3036C16.0459 45.8478 16.0459 45.392 16.0459 44.9362C16.0459 44.7084 16.0459 44.4805 16.0459 44.2526V43.8728V43.7209V43.6449V43.569C16.4271 43.1892 16.1221 43.493 16.2746 43.3411C26.8727 43.3411 36.0221 43.417 40.2918 43.417H40.3681V43.493C40.3681 44.4045 40.3681 45.0882 40.2918 45.6199C40.3681 46.1516 40.2918 46.3795 40.2918 46.3795Z" fill="#455A64"/>
<path d="M18.7141 48.3546C18.7141 48.4305 18.1804 48.5825 17.5704 48.5825C16.9605 48.5825 16.4268 48.5065 16.4268 48.3546C16.4268 48.2027 16.9605 48.1267 17.5704 48.1267C18.1804 48.2027 18.7141 48.2786 18.7141 48.3546Z" fill="#455A64"/>
<path d="M39.6821 52.0765C39.6821 52.1525 34.5737 52.3044 28.2453 52.3044C21.917 52.3044 16.8086 52.2284 16.8086 52.0765C16.8086 51.9246 21.917 51.8486 28.2453 51.8486C34.5737 51.8486 39.6821 51.9246 39.6821 52.0765Z" fill="#455A64"/>
<path d="M39.7578 56.4823C39.7578 56.5583 34.7257 56.7102 28.5498 56.7102C22.374 56.7102 17.3418 56.6342 17.3418 56.4823C17.3418 56.4063 22.374 56.2544 28.5498 56.2544C34.7257 56.2544 39.7578 56.3304 39.7578 56.4823Z" fill="#455A64"/>
<path d="M28.2449 68.6361C29.2555 68.6361 30.0748 67.8199 30.0748 66.8131C30.0748 65.8062 29.2555 64.99 28.2449 64.99C27.2343 64.99 26.415 65.8062 26.415 66.8131C26.415 67.8199 27.2343 68.6361 28.2449 68.6361Z" fill="#E36F59"/>
<path d="M23.1365 66.661C23.1365 66.7369 22.0691 66.8889 20.6967 66.8889C19.3243 66.8889 18.2568 66.8129 18.2568 66.661C18.2568 66.585 19.3243 66.4331 20.6967 66.4331C22.0691 66.5091 23.1365 66.585 23.1365 66.661Z" fill="#455A64"/>
<path d="M37.852 66.2054C37.852 66.2814 36.7846 66.4333 35.5647 66.4333C34.2685 66.4333 33.2773 66.3573 33.2773 66.2054C33.2773 66.1295 34.3448 65.9775 35.5647 65.9775C36.8609 66.0535 37.852 66.1295 37.852 66.2054Z" fill="#455A64"/>
<path d="M12.9961 74.3331C12.9961 74.3331 12.5386 74.3331 11.7762 74.1052C11.0137 73.8773 9.79379 73.4975 8.49763 72.586C7.20146 71.7504 5.75281 70.3831 4.53289 68.4841C3.31297 66.5851 2.32178 64.2303 1.63557 61.4957C0.949367 58.7612 0.491899 55.7227 0.720634 52.4564C0.949369 49.1901 1.94055 45.6199 4.15166 42.6574C5.21909 41.1382 6.66775 39.7709 8.26889 38.7075C9.10759 38.1758 10.0225 37.72 10.9375 37.4161C11.8524 37.1123 12.8436 36.8844 13.911 36.7325C15.8934 36.4286 17.952 36.5046 20.0869 36.3527C22.1455 36.2008 24.2803 35.8969 26.1102 34.9854C28.0164 34.0738 29.465 32.4027 29.8462 30.4277C30.3037 28.4527 29.77 26.3258 28.4738 24.8826C27.1777 23.4393 25.2715 22.5278 23.4417 22.6038C22.5267 22.6797 21.6118 22.9836 20.9256 23.5153C20.2394 24.047 19.7819 24.9586 19.8581 25.7941C20.0106 27.5412 21.6118 28.9845 23.2892 29.0604C24.9666 29.2124 26.5677 28.3008 27.6351 27.0854C28.7026 25.8701 29.3125 24.4268 29.77 22.9836C30.1512 21.5403 30.4562 20.097 30.6849 18.7298C31.4474 13.1846 31.2186 8.70292 31.0662 5.58853C30.9899 4.06931 30.9137 2.85393 30.9137 2.01836C30.9137 1.63855 30.9137 1.33472 30.8374 1.10684C30.8374 0.878958 30.8374 0.802979 30.8374 0.802979C30.8374 0.802979 30.8374 0.878958 30.9137 1.10684C30.9137 1.33472 30.9899 1.63855 30.9899 2.01836C31.0662 2.85393 31.1424 4.06931 31.2186 5.58853C31.3711 8.70292 31.6761 13.2606 30.9137 18.8057C30.6849 20.173 30.4562 21.6163 30.075 23.1355C29.6937 24.5788 29.0075 26.098 27.9401 27.3893C26.7964 28.6047 25.1953 29.5922 23.2892 29.4402C21.4593 29.3643 19.7056 27.8451 19.5532 25.8701C19.4769 24.8826 19.9344 23.8951 20.7731 23.2874C21.5355 22.6797 22.5267 22.2999 23.5179 22.224C25.5003 22.072 27.5589 23.0595 28.9313 24.5787C30.3037 26.098 30.8374 28.3768 30.38 30.5037C30.1512 31.5671 29.6937 32.5546 29.0075 33.3902C28.3213 34.2258 27.4064 34.9094 26.4915 35.3652C24.5091 36.3527 22.3742 36.6565 20.3156 36.8085C18.257 36.9604 16.1984 36.8844 14.216 37.1883C13.2248 37.3402 12.2336 37.5681 11.3187 37.8719C10.4038 38.1757 9.56506 38.6315 8.72636 39.1632C7.12522 40.2267 5.7528 41.518 4.68537 42.9613C2.47427 45.9237 1.48308 49.342 1.25435 52.6083C1.02561 55.8746 1.40684 58.9131 2.09304 61.5717C2.77925 64.2303 3.69419 66.5851 4.91411 68.4841C6.05779 70.3831 7.50644 71.6745 8.72636 72.586C10.0225 73.4975 11.1662 73.8773 11.9287 74.1812C12.3099 74.3331 12.6149 74.3331 12.8436 74.4091C12.8436 74.2572 12.9961 74.3331 12.9961 74.3331Z" fill="#263238"/>
</svg>
