<svg width="84" height="111" viewBox="0 0 84 111" fill="none" xmlns="http://www.w3.org/2000/svg">
<path d="M68.8621 39.0999H0.851562V110.959H68.8621V39.0999Z" fill="#70CAFC"/>
<path d="M72.2933 49.5825H68.9385V52.9248H72.2933V49.5825Z" fill="#263238"/>
<path d="M72.2933 60.1411H68.9385V63.4834H72.2933V60.1411Z" fill="#263238"/>
<path d="M72.2933 70.7756H68.9385V74.1179H72.2933V70.7756Z" fill="#263238"/>
<path d="M72.2933 81.3342H68.9385V84.6765H72.2933V81.3342Z" fill="#263238"/>
<path d="M72.3694 71.687C72.3694 71.687 72.7506 71.611 73.3606 71.4591C74.0468 71.3832 74.9617 71.1553 76.2579 71.1553C77.4778 71.1553 79.0027 71.3832 80.3751 72.2187C81.0613 72.6745 81.7475 73.2822 82.1287 74.1177C82.5862 74.9533 82.7387 75.8648 82.6624 76.8523C82.5862 77.7639 82.2812 78.6754 81.8238 79.435C81.3663 80.1946 80.7563 80.8023 80.0701 81.2581C78.7739 82.2456 77.3253 82.6254 76.1054 82.8532C74.8855 83.0052 73.8943 83.0052 73.2081 82.9292C72.5218 82.8532 72.1406 82.7773 72.1406 82.7773C72.1406 82.7773 72.5218 82.7773 73.2081 82.7773C73.8943 82.7773 74.8855 82.7773 76.0291 82.5494C77.1728 82.3215 78.5452 81.8658 79.8414 80.9542C81.0613 80.0427 82.205 78.5235 82.2812 76.7764C82.3575 75.8648 82.205 75.0293 81.8238 74.2697C81.4425 73.5101 80.8326 72.9783 80.2226 72.5226C78.9264 71.687 77.4778 71.4591 76.2579 71.3831C75.0379 71.3831 74.123 71.4591 73.4368 71.5351C72.7506 71.687 72.3694 71.7629 72.3694 71.687Z" fill="#263238"/>
<path d="M71.5303 61.2046C71.5303 61.2046 71.6065 61.1287 71.8352 60.9768C72.064 60.9008 72.369 60.7489 72.8264 60.597C73.7414 60.2931 75.1138 60.0652 76.7149 60.3691C77.0962 60.445 77.5536 60.597 77.9349 60.8248C78.3161 61.0527 78.6973 61.5085 78.8498 62.0402C79.1548 63.0277 78.7735 64.1671 78.0873 65.0786C77.7061 65.5344 77.2486 65.9142 76.7149 66.1421C76.1812 66.37 75.4188 66.37 74.8851 66.0661C74.3513 65.7623 73.8176 65.1546 73.8176 64.4709C73.8176 63.7873 74.2751 63.1037 74.8851 62.7998C75.495 62.496 76.1812 62.496 76.8674 62.5719C77.4774 62.7238 78.0873 63.0277 78.5448 63.4075C79.536 64.1671 80.146 65.3065 80.2222 66.4459C80.3747 67.5853 79.9172 68.6488 79.3835 69.4844C78.7735 70.3199 78.0111 70.8517 77.3249 71.2315C75.8 71.9911 74.4276 72.143 73.5126 72.219C73.0552 72.219 72.6739 72.2949 72.4452 72.2949C72.2165 72.2949 72.064 72.2949 72.064 72.2949C72.064 72.2949 72.5977 72.219 73.5126 72.143C74.4276 71.9911 75.7237 71.8392 77.1724 71.0796C77.8586 70.6997 78.6211 70.168 79.1548 69.4084C79.6885 68.6488 80.0697 67.6613 79.9172 66.5979C79.7647 65.5344 79.231 64.5469 78.3161 63.8633C77.8586 63.4835 77.3249 63.2556 76.7912 63.1037C76.2575 62.9517 75.6475 63.0277 75.1138 63.2556C74.5801 63.4835 74.2751 64.0152 74.2751 64.5469C74.2751 65.0786 74.6563 65.5344 75.1138 65.8383C75.5712 66.1421 76.1812 66.1421 76.6387 65.9142C77.1724 65.7623 77.5536 65.3825 77.8586 65.0027C78.5448 64.2431 78.8498 63.1796 78.6211 62.2681C78.3923 61.3566 77.5536 60.9008 76.7149 60.7489C75.1138 60.3691 73.8176 60.597 72.9027 60.8248C71.9877 60.9768 71.5303 61.2806 71.5303 61.2046Z" fill="#263238"/>
<path d="M71.6074 50.8738C71.6074 50.8738 71.8362 50.7979 72.3699 50.7219C72.8273 50.7219 73.5898 50.7219 74.4285 51.0258C75.2672 51.3296 76.1821 51.8613 76.9446 52.6969C77.707 53.6084 78.2407 54.8238 78.2407 56.1911C78.317 57.5584 77.8595 58.8497 77.1733 59.7613C76.4871 60.6728 75.5722 61.2805 74.7335 61.5843C73.8948 61.8882 73.2086 61.9641 72.7511 61.9641C72.2936 61.9641 71.9886 61.8882 71.9886 61.8882C71.9886 61.8122 73.1323 62.0401 74.6572 61.2805C75.4197 60.9007 76.2584 60.369 76.8683 59.4574C77.5546 58.5459 77.9358 57.4065 77.8595 56.1151C77.7833 54.8238 77.3258 53.6844 76.6396 52.8488C75.9534 52.0132 75.0384 51.4815 74.276 51.1777C72.6749 50.7219 71.6074 50.9498 71.6074 50.8738Z" fill="#263238"/>
<path d="M21.0566 0.967529C21.0566 0.967529 21.3616 1.42329 21.6666 2.33482C21.9716 3.24635 22.2766 4.61364 22.5815 6.4367C22.8865 8.25976 23.1153 10.4626 23.344 12.9693C23.5727 15.552 23.8015 18.4385 24.1827 21.7048C24.2589 22.5404 24.4114 23.3 24.5639 24.1356C24.7164 24.9712 24.9451 25.8067 25.3264 26.5663C25.7076 27.3259 26.3175 28.0096 27.0037 28.6173C27.69 29.225 28.3762 29.8326 29.2149 30.2884C30.816 31.2759 32.7221 31.9596 34.7045 32.1874C36.6869 32.4153 38.8217 32.1115 40.7279 31.124C42.634 30.2125 44.1589 28.3894 44.6164 26.2625C44.8451 25.199 44.7689 24.0596 44.3876 22.9962C44.0064 21.9327 43.2439 21.0972 42.2528 20.4895C41.3378 19.8818 40.1942 19.502 39.0505 19.426C37.9068 19.3501 36.6869 19.6539 35.7719 20.4135C35.3145 20.7933 34.9332 21.1731 34.7045 21.7048C34.4758 22.2366 34.3995 22.7683 34.4758 23.376C34.7045 24.5154 35.5432 25.5029 36.6106 26.0346C37.6781 26.6423 38.898 26.8702 40.1179 27.0221C41.3378 27.174 42.5578 27.25 43.7014 27.25C46.1413 27.3259 48.5049 27.0981 50.7922 26.8702C55.4432 26.3384 59.9416 25.5789 64.2113 25.5789C68.4811 25.5029 72.6745 26.1106 76.1818 27.8577C77.9354 28.6932 79.4604 29.8327 80.604 31.2C81.8239 32.5672 82.5864 34.1624 82.8914 35.7576C83.5776 39.0239 82.8151 42.0624 81.5952 44.3412C80.299 46.62 78.5454 48.1392 77.0967 49.1267C75.5718 50.1142 74.2757 50.7219 73.3607 51.0257C72.4458 51.3296 71.9883 51.4815 71.9883 51.4815C71.9883 51.4815 72.1408 51.4055 72.3695 51.3296C72.5983 51.2536 72.9795 51.1017 73.3607 50.9498C74.2757 50.57 75.5718 50.0382 77.0205 48.9748C78.4692 47.9113 80.2228 46.3921 81.4427 44.1893C82.6626 41.9864 83.3488 38.948 82.6626 35.8336C82.2814 34.3144 81.5952 32.7192 80.3753 31.4278C79.2316 30.1365 77.7067 28.9971 76.0293 28.2375C72.5983 26.5663 68.4811 25.9587 64.2113 26.0346C59.9416 26.1106 55.4432 26.8702 50.7922 27.3259C48.4286 27.5538 46.065 27.7817 43.6252 27.7057C42.4053 27.7057 41.1853 27.6298 39.9654 27.4779C38.7455 27.326 37.4493 27.0981 36.3819 26.4904C35.2382 25.8827 34.3233 24.8192 34.0945 23.5279C33.9421 22.9202 34.0945 22.2366 34.3233 21.6289C34.6283 21.0212 35.0095 20.5654 35.5432 20.1856C36.5344 19.426 37.8306 19.1222 39.0505 19.1222C40.2704 19.1981 41.4903 19.5779 42.4815 20.2616C43.4727 20.9452 44.3114 21.8568 44.7689 22.9962C45.2263 24.1356 45.2263 25.351 44.9976 26.4144C44.4639 28.6933 42.8627 30.5163 40.8804 31.5038C38.898 32.4913 36.6869 32.7951 34.7045 32.5672C32.6459 32.3394 30.7398 31.6557 29.0624 30.6682C28.2237 30.1365 27.4612 29.6048 26.8513 28.9211C26.1651 28.2375 25.5551 27.6298 25.0976 26.7942C24.7164 25.9587 24.4877 25.1231 24.3352 24.2875C24.1827 23.4519 24.0302 22.6164 23.9539 21.8568C23.5727 18.6664 23.344 15.7039 23.1153 13.1213C22.8865 10.5386 22.6578 8.33573 22.429 6.58863C22.2003 4.76557 21.8953 3.39828 21.5904 2.48675C21.4379 2.03098 21.3616 1.65116 21.2091 1.49924C21.1329 1.04348 21.0566 0.967529 21.0566 0.967529Z" fill="#263238"/>
<path d="M65.0495 107.921C65.0495 107.921 65.0495 107.845 65.0495 107.617C65.0495 107.389 65.0495 107.085 65.0495 106.705C65.0495 105.87 65.0495 104.73 65.0495 103.135C65.0495 100.021 65.0494 95.4629 64.9732 89.6899C64.9732 78.1438 64.897 61.6603 64.897 41.9105L65.0495 42.0624C47.0556 42.0624 26.012 42.0624 3.51969 42.0624L3.74841 41.8345C3.74841 66.142 3.74841 88.7784 3.74841 107.845L3.59594 107.693C22.0472 107.693 37.3725 107.769 48.123 107.769C53.5364 107.769 57.7299 107.769 60.6272 107.845C62.0759 107.845 63.1433 107.845 63.9058 107.845C64.6682 107.921 65.0495 107.921 65.0495 107.921C65.0495 107.921 64.6682 107.921 63.9058 107.921C63.1433 107.921 62.0759 107.921 60.6272 107.921C57.7299 107.921 53.5364 107.921 48.1993 107.996C37.4487 107.996 22.0472 108.072 3.51969 108.072H3.36719V107.921C3.36719 88.8543 3.36719 66.142 3.36719 41.9105V41.6826H3.59594C26.012 41.6826 47.0556 41.6826 65.1257 41.6826H65.2782V41.8345C65.2782 61.5844 65.2019 78.1438 65.2019 89.6899C65.2019 95.4629 65.2019 100.021 65.1257 103.135C65.1257 104.654 65.1257 105.87 65.1257 106.629C65.1257 107.009 65.1257 107.313 65.1257 107.541C65.0494 107.845 65.0495 107.921 65.0495 107.921Z" fill="#263238"/>
<path d="M47.7418 50.0382C47.7418 50.1901 47.5893 50.3421 47.4368 50.3421C47.2843 50.3421 47.1318 50.1901 47.1318 50.0382C47.1318 49.8863 47.2843 49.7344 47.4368 49.7344C47.5893 49.7344 47.7418 49.8863 47.7418 50.0382Z" fill="#263238"/>
<path d="M49.4957 50.0382C49.4957 50.1901 49.3432 50.3421 49.1907 50.3421C49.0382 50.3421 48.8857 50.1901 48.8857 50.0382C48.8857 49.8863 49.0382 49.7344 49.1907 49.7344C49.3432 49.7344 49.4957 49.8863 49.4957 50.0382Z" fill="#263238"/>
<path d="M51.1725 50.0382C51.1725 50.1901 51.02 50.3421 50.8675 50.3421C50.715 50.3421 50.5625 50.1901 50.5625 50.0382C50.5625 49.8863 50.715 49.7344 50.8675 49.7344C51.02 49.7344 51.1725 49.8863 51.1725 50.0382Z" fill="#263238"/>
<path d="M52.9264 50.0382C52.9264 50.1901 52.7739 50.3421 52.6214 50.3421C52.4689 50.3421 52.3164 50.1901 52.3164 50.0382C52.3164 49.8863 52.4689 49.7344 52.6214 49.7344C52.7739 49.7344 52.9264 49.8863 52.9264 50.0382Z" fill="#263238"/>
<path d="M54.6803 50.0382C54.6803 50.1901 54.5278 50.3421 54.3753 50.3421C54.2228 50.3421 54.0703 50.1901 54.0703 50.0382C54.0703 49.8863 54.2228 49.7344 54.3753 49.7344C54.5278 49.7344 54.6803 49.8863 54.6803 50.0382Z" fill="#263238"/>
<path d="M56.4342 50.0382C56.4342 50.1901 56.2817 50.3421 56.1292 50.3421C55.9767 50.3421 55.8242 50.1901 55.8242 50.0382C55.8242 49.8863 55.9767 49.7344 56.1292 49.7344C56.2817 49.7344 56.4342 49.8863 56.4342 50.0382Z" fill="#263238"/>
<path d="M58.111 50.0382C58.111 50.1901 57.9585 50.3421 57.806 50.3421C57.6535 50.3421 57.501 50.1901 57.501 50.0382C57.501 49.8863 57.6535 49.7344 57.806 49.7344C58.0347 49.7344 58.111 49.8863 58.111 50.0382Z" fill="#263238"/>
<path d="M57.0433 51.5574C57.2117 51.5574 57.3483 51.4214 57.3483 51.2535C57.3483 51.0857 57.2117 50.9497 57.0433 50.9497C56.8748 50.9497 56.7383 51.0857 56.7383 51.2535C56.7383 51.4214 56.8748 51.5574 57.0433 51.5574Z" fill="#263238"/>
<path d="M55.2903 51.5574C55.4588 51.5574 55.5953 51.4214 55.5953 51.2535C55.5953 51.0857 55.4588 50.9497 55.2903 50.9497C55.1219 50.9497 54.9854 51.0857 54.9854 51.2535C54.9854 51.4214 55.1219 51.5574 55.2903 51.5574Z" fill="#263238"/>
<path d="M53.7652 51.2535C53.7652 51.4055 53.6127 51.5574 53.4602 51.5574C53.3078 51.5574 53.1553 51.4055 53.1553 51.2535C53.1553 51.1016 53.3078 50.9497 53.4602 50.9497C53.6127 50.8737 53.7652 51.0256 53.7652 51.2535Z" fill="#263238"/>
<path d="M51.7064 51.5574C51.8748 51.5574 52.0113 51.4214 52.0113 51.2535C52.0113 51.0857 51.8748 50.9497 51.7064 50.9497C51.5379 50.9497 51.4014 51.0857 51.4014 51.2535C51.4014 51.4214 51.5379 51.5574 51.7064 51.5574Z" fill="#263238"/>
<path d="M49.9524 51.5574C50.1209 51.5574 50.2574 51.4214 50.2574 51.2535C50.2574 51.0857 50.1209 50.9497 49.9524 50.9497C49.784 50.9497 49.6475 51.0857 49.6475 51.2535C49.6475 51.4214 49.784 51.5574 49.9524 51.5574Z" fill="#263238"/>
<path d="M48.4283 51.2535C48.4283 51.4055 48.2758 51.5574 48.1233 51.5574C47.9708 51.5574 47.8184 51.4055 47.8184 51.2535C47.8184 51.1016 47.9708 50.9497 48.1233 50.9497C48.3521 50.8737 48.4283 51.0256 48.4283 51.2535Z" fill="#263238"/>
<path d="M47.7418 52.545C47.7418 52.697 47.5893 52.8489 47.4368 52.8489C47.2843 52.8489 47.1318 52.697 47.1318 52.545C47.1318 52.3931 47.2843 52.2412 47.4368 52.2412C47.5893 52.2412 47.7418 52.3931 47.7418 52.545Z" fill="#263238"/>
<path d="M49.4957 52.545C49.4957 52.697 49.3432 52.8489 49.1907 52.8489C49.0382 52.8489 48.8857 52.697 48.8857 52.545C48.8857 52.3931 49.0382 52.2412 49.1907 52.2412C49.3432 52.2412 49.4957 52.3931 49.4957 52.545Z" fill="#263238"/>
<path d="M51.1725 52.545C51.1725 52.697 51.02 52.8489 50.8675 52.8489C50.715 52.8489 50.5625 52.697 50.5625 52.545C50.5625 52.3931 50.715 52.2412 50.8675 52.2412C51.02 52.2412 51.1725 52.3931 51.1725 52.545Z" fill="#263238"/>
<path d="M52.9264 52.545C52.9264 52.697 52.7739 52.8489 52.6214 52.8489C52.4689 52.8489 52.3164 52.697 52.3164 52.545C52.3164 52.3931 52.4689 52.2412 52.6214 52.2412C52.7739 52.2412 52.9264 52.3931 52.9264 52.545Z" fill="#263238"/>
<path d="M54.6803 52.545C54.6803 52.697 54.5278 52.8489 54.3753 52.8489C54.2228 52.8489 54.0703 52.697 54.0703 52.545C54.0703 52.3931 54.2228 52.2412 54.3753 52.2412C54.5278 52.2412 54.6803 52.3931 54.6803 52.545Z" fill="#263238"/>
<path d="M56.4342 52.545C56.4342 52.697 56.2817 52.8489 56.1292 52.8489C55.9767 52.8489 55.8242 52.697 55.8242 52.545C55.8242 52.3931 55.9767 52.2412 56.1292 52.2412C56.2817 52.2412 56.4342 52.3931 56.4342 52.545Z" fill="#263238"/>
<path d="M58.111 52.545C58.111 52.697 57.9585 52.8489 57.806 52.8489C57.6535 52.8489 57.501 52.697 57.501 52.545C57.501 52.3931 57.6535 52.2412 57.806 52.2412C58.0347 52.2412 58.111 52.3931 58.111 52.545Z" fill="#263238"/>
<path d="M57.3483 53.6845C57.3483 53.8364 57.1958 53.9883 57.0433 53.9883C56.8908 53.9883 56.7383 53.8364 56.7383 53.6845C56.7383 53.5325 56.8908 53.3806 57.0433 53.3806C57.1958 53.3806 57.3483 53.5325 57.3483 53.6845Z" fill="#263238"/>
<path d="M55.5953 53.6845C55.5953 53.8364 55.4428 53.9883 55.2903 53.9883C55.1378 53.9883 54.9854 53.8364 54.9854 53.6845C54.9854 53.5325 55.1378 53.3806 55.2903 53.3806C55.4428 53.3806 55.5953 53.5325 55.5953 53.6845Z" fill="#263238"/>
<path d="M53.7652 53.6845C53.7652 53.8364 53.6127 53.9883 53.4602 53.9883C53.3078 53.9883 53.1553 53.8364 53.1553 53.6845C53.1553 53.5325 53.3078 53.3806 53.4602 53.3806C53.6127 53.3806 53.7652 53.5325 53.7652 53.6845Z" fill="#263238"/>
<path d="M52.0113 53.6845C52.0113 53.8364 51.8589 53.9883 51.7064 53.9883C51.5539 53.9883 51.4014 53.8364 51.4014 53.6845C51.4014 53.5325 51.5539 53.3806 51.7064 53.3806C51.8589 53.3806 52.0113 53.5325 52.0113 53.6845Z" fill="#263238"/>
<path d="M50.2574 53.6845C50.2574 53.8364 50.1049 53.9883 49.9524 53.9883C49.7999 53.9883 49.6475 53.8364 49.6475 53.6845C49.6475 53.5325 49.7999 53.3806 49.9524 53.3806C50.1049 53.3806 50.2574 53.5325 50.2574 53.6845Z" fill="#263238"/>
<path d="M48.4283 53.6845C48.4283 53.8364 48.2758 53.9883 48.1233 53.9883C47.9708 53.9883 47.8184 53.8364 47.8184 53.6845C47.8184 53.5325 47.9708 53.3806 48.1233 53.3806C48.3521 53.3806 48.4283 53.5325 48.4283 53.6845Z" fill="#263238"/>
<path d="M47.7418 55.0516C47.7418 55.2035 47.5893 55.3555 47.4368 55.3555C47.2843 55.3555 47.1318 55.2035 47.1318 55.0516C47.1318 54.8997 47.2843 54.7478 47.4368 54.7478C47.5893 54.6718 47.7418 54.8237 47.7418 55.0516Z" fill="#263238"/>
<path d="M49.4957 55.0516C49.4957 55.2035 49.3432 55.3555 49.1907 55.3555C49.0382 55.3555 48.8857 55.2035 48.8857 55.0516C48.8857 54.8997 49.0382 54.7478 49.1907 54.7478C49.3432 54.6718 49.4957 54.8237 49.4957 55.0516Z" fill="#263238"/>
<path d="M51.1725 55.0516C51.1725 55.2035 51.02 55.3555 50.8675 55.3555C50.715 55.3555 50.5625 55.2035 50.5625 55.0516C50.5625 54.8997 50.715 54.7478 50.8675 54.7478C51.02 54.6718 51.1725 54.8237 51.1725 55.0516Z" fill="#263238"/>
<path d="M52.9264 55.0516C52.9264 55.2035 52.7739 55.3555 52.6214 55.3555C52.4689 55.3555 52.3164 55.2035 52.3164 55.0516C52.3164 54.8997 52.4689 54.7478 52.6214 54.7478C52.7739 54.6718 52.9264 54.8237 52.9264 55.0516Z" fill="#263238"/>
<path d="M54.6803 55.0516C54.6803 55.2035 54.5278 55.3555 54.3753 55.3555C54.2228 55.3555 54.0703 55.2035 54.0703 55.0516C54.0703 54.8997 54.2228 54.7478 54.3753 54.7478C54.5278 54.6718 54.6803 54.8237 54.6803 55.0516Z" fill="#263238"/>
<path d="M56.4342 55.0516C56.4342 55.2035 56.2817 55.3555 56.1292 55.3555C55.9767 55.3555 55.8242 55.2035 55.8242 55.0516C55.8242 54.8997 55.9767 54.7478 56.1292 54.7478C56.2817 54.6718 56.4342 54.8237 56.4342 55.0516Z" fill="#263238"/>
<path d="M58.111 55.0516C58.111 55.2035 57.9585 55.3555 57.806 55.3555C57.6535 55.3555 57.501 55.2035 57.501 55.0516C57.501 54.8997 57.6535 54.7478 57.806 54.7478C58.0347 54.6718 58.111 54.8237 58.111 55.0516Z" fill="#263238"/>
<path d="M57.0433 56.4949C57.2117 56.4949 57.3483 56.3589 57.3483 56.191C57.3483 56.0232 57.2117 55.8872 57.0433 55.8872C56.8748 55.8872 56.7383 56.0232 56.7383 56.191C56.7383 56.3589 56.8748 56.4949 57.0433 56.4949Z" fill="#263238"/>
<path d="M55.2903 56.4949C55.4588 56.4949 55.5953 56.3589 55.5953 56.191C55.5953 56.0232 55.4588 55.8872 55.2903 55.8872C55.1219 55.8872 54.9854 56.0232 54.9854 56.191C54.9854 56.3589 55.1219 56.4949 55.2903 56.4949Z" fill="#263238"/>
<path d="M53.7652 56.191C53.7652 56.343 53.6127 56.4949 53.4602 56.4949C53.3078 56.4949 53.1553 56.343 53.1553 56.191C53.1553 56.0391 53.3078 55.8872 53.4602 55.8872C53.6127 55.8872 53.7652 56.0391 53.7652 56.191Z" fill="#263238"/>
<path d="M51.7064 56.4949C51.8748 56.4949 52.0113 56.3589 52.0113 56.191C52.0113 56.0232 51.8748 55.8872 51.7064 55.8872C51.5379 55.8872 51.4014 56.0232 51.4014 56.191C51.4014 56.3589 51.5379 56.4949 51.7064 56.4949Z" fill="#263238"/>
<path d="M49.9524 56.4949C50.1209 56.4949 50.2574 56.3589 50.2574 56.191C50.2574 56.0232 50.1209 55.8872 49.9524 55.8872C49.784 55.8872 49.6475 56.0232 49.6475 56.191C49.6475 56.3589 49.784 56.4949 49.9524 56.4949Z" fill="#263238"/>
<path d="M48.4283 56.191C48.4283 56.343 48.2758 56.4949 48.1233 56.4949C47.9708 56.4949 47.8184 56.343 47.8184 56.191C47.8184 56.0391 47.9708 55.8872 48.1233 55.8872C48.3521 55.8872 48.4283 56.0391 48.4283 56.191Z" fill="#263238"/>
</svg>
