<svg width="52" height="34" viewBox="0 0 52 34" fill="none" xmlns="http://www.w3.org/2000/svg">
<path d="M12.3369 18.5149C12.3369 15.2486 14.853 12.8179 18.2078 12.8179C19.8089 12.8179 21.2576 13.3496 22.2488 14.3371L21.715 14.8688C20.7239 13.9573 19.5802 13.5015 18.284 13.5015C15.3867 13.5015 13.2519 15.6284 13.2519 18.439C13.2519 21.2495 15.463 23.3764 18.284 23.3764C19.5802 23.3764 20.8001 22.9966 21.715 22.0091L22.2488 22.5409C21.2576 23.6043 19.8089 24.136 18.2078 24.136C14.853 24.212 12.3369 21.7813 12.3369 18.5149Z" fill="#E36F59"/>
<path d="M23.7734 22.6928L24.1547 22.0851C24.9171 22.9206 26.3658 23.5283 27.8907 23.5283C30.178 23.5283 31.1692 22.5408 31.1692 21.3255C31.1692 17.9832 24.1547 19.9582 24.1547 15.8563C24.1547 14.2611 25.3746 12.8938 28.1194 12.8938C29.3393 12.8938 30.6355 13.2736 31.5504 13.8813L31.2454 14.5649C30.3305 13.9572 29.1868 13.6534 28.1194 13.6534C25.9083 13.6534 24.9171 14.6409 24.9171 15.9322C24.9171 19.2745 31.9317 17.2995 31.9317 21.4014C31.9317 22.9966 30.6355 24.3639 27.8907 24.3639C26.137 24.212 24.5359 23.6043 23.7734 22.6928Z" fill="#E36F59"/>
<path d="M33.5332 22.6928L33.9144 22.0851C34.6769 22.9206 36.1256 23.5283 37.6505 23.5283C39.9378 23.5283 40.929 22.5408 40.929 21.3255C40.929 17.9832 33.9144 19.9582 33.9144 15.8563C33.9144 14.2611 35.1344 12.8938 37.8792 12.8938C39.0991 12.8938 40.3953 13.2736 41.3102 13.8813L41.0052 14.5649C40.0903 13.9572 38.9466 13.6534 37.8792 13.6534C35.6681 13.6534 34.6769 14.6409 34.6769 15.9322C34.6769 19.2745 41.6914 17.2995 41.6914 21.4014C41.6914 22.9966 40.3953 24.3639 37.6505 24.3639C35.9731 24.212 34.3719 23.6043 33.5332 22.6928Z" fill="#E36F59"/>
<path d="M51.2984 33.0994C51.2984 33.0994 51.2984 32.8715 51.2984 32.4917C51.2984 32.1119 51.2984 31.5042 51.2984 30.7446C51.2984 29.2254 51.2984 27.0226 51.2221 24.212C51.2221 18.5909 51.1459 10.539 51.1459 0.664129L51.2984 0.816049C37.5743 0.816049 20.0379 0.816051 1.05288 0.892011L1.28162 0.664129C1.28162 12.1342 1.28162 23.0726 1.28162 33.0235L1.12913 32.8715C15.8444 32.8715 28.4249 32.9475 37.2693 32.9475C41.6915 32.9475 45.1988 32.9475 47.6386 33.0235C48.8585 33.0235 49.7735 33.0235 50.3834 33.0235C50.6884 33.0235 50.9171 33.0235 51.0696 33.0235C51.2221 33.0994 51.2984 33.0994 51.2984 33.0994C51.2984 33.0994 51.2221 33.0994 51.0696 33.0994C50.9171 33.0994 50.6884 33.0994 50.3834 33.0994C49.7735 33.0994 48.8585 33.0994 47.6386 33.0994C45.1988 33.0994 41.6915 33.0994 37.3455 33.1754C28.4248 33.1754 15.8444 33.2513 1.05288 33.2513H0.900391V33.0994C0.900391 23.1485 0.900391 12.2861 0.900391 0.740089V0.512207H1.12913C20.1141 0.512207 37.5743 0.512206 51.3746 0.588167H51.5271V0.740089C51.5271 10.615 51.4508 18.7428 51.4508 24.3639C51.4508 27.1745 51.4509 29.3014 51.3746 30.8206C51.3746 31.5802 51.3746 32.1119 51.3746 32.4917C51.2984 32.9475 51.2984 33.0994 51.2984 33.0994Z" fill="#E36F59"/>
<path d="M51.2983 5.60166C51.2983 5.67763 40.014 5.82955 26.1374 5.82955C12.2608 5.82955 0.976562 5.75359 0.976562 5.60166C0.976562 5.5257 12.2608 5.37378 26.1374 5.37378C40.0903 5.37378 51.2983 5.44974 51.2983 5.60166Z" fill="#E36F59"/>
<path d="M4.78926 3.24681C4.78926 3.55066 4.48427 3.77854 4.17929 3.77854C3.87431 3.77854 3.56934 3.55066 3.56934 3.24681C3.56934 2.94297 3.87431 2.71509 4.17929 2.71509C4.56051 2.71509 4.78926 2.94297 4.78926 3.24681Z" fill="#E36F59"/>
<path d="M7.0002 3.24681C7.0002 3.55066 6.69523 3.77854 6.39025 3.77854C6.08527 3.77854 5.78027 3.55066 5.78027 3.24681C5.78027 2.94297 6.08527 2.71509 6.39025 2.71509C6.77147 2.71509 7.0002 2.94297 7.0002 3.24681Z" fill="#E36F59"/>
<path d="M9.28731 3.24681C9.28731 3.55066 8.98234 3.77854 8.67736 3.77854C8.37238 3.77854 8.06738 3.55066 8.06738 3.24681C8.06738 2.94297 8.37238 2.71509 8.67736 2.71509C8.98234 2.71509 9.28731 2.94297 9.28731 3.24681Z" fill="#E36F59"/>
</svg>
