<svg width="41" height="49" viewBox="0 0 41 49" fill="none" xmlns="http://www.w3.org/2000/svg">
<path d="M31.6488 0.0908203C31.6488 0.0908203 32.1063 0.0908226 32.8687 0.318705C33.6312 0.546588 34.7748 1.15428 35.8423 2.29369C36.9097 3.43311 37.8246 5.1802 38.5108 7.3071C39.197 9.43401 39.807 11.8648 40.1882 14.6753C41.0269 20.2205 41.1794 26.905 40.6457 34.2732C40.4932 36.0963 40.0357 38.0713 38.9683 39.6664C38.4346 40.502 37.6722 41.1857 36.8335 41.7174C35.9948 42.2491 34.9273 42.553 33.8599 42.401C32.7925 42.3251 31.8013 41.8693 31.0388 41.1097C30.6576 40.7299 30.3526 40.2741 30.2001 39.7424C30.0476 39.2107 30.0476 38.603 30.2001 38.0713C30.5051 37.0078 31.2676 36.0963 32.335 35.7165C32.8687 35.4886 33.4787 35.5645 34.0124 35.7165C34.5461 35.9444 35.0036 36.2482 35.3848 36.704C36.071 37.6155 36.2997 38.7549 36.1472 39.8184C35.9947 40.8818 35.5373 41.8693 35.0798 42.7808C34.0124 44.6039 32.4875 46.1231 30.7339 47.1106C27.1503 49.1615 22.7281 49.0856 19.4496 47.2625C17.7722 46.351 16.3998 45.1356 15.3324 43.6924C14.2649 42.3251 13.4262 40.8059 12.8163 39.2107C11.6726 36.0963 11.2914 33.0578 11.1389 30.2473C10.9864 27.4367 11.1389 24.93 10.8339 22.7272C10.6814 21.6637 10.4527 20.6003 10.1477 19.7647C9.84272 18.8532 9.38524 18.1695 8.85152 17.5618C7.86034 16.3464 6.7929 15.7388 6.03045 15.5109C5.268 15.283 4.81055 15.283 4.81055 15.207C4.81055 15.207 5.268 15.207 6.03045 15.4349C6.7929 15.6628 7.93659 16.2705 8.92777 17.4859C9.46149 18.0935 9.91895 18.8532 10.2239 19.7647C10.6052 20.6762 10.8339 21.6637 10.9864 22.8031C11.2914 25.006 11.1389 27.5127 11.2914 30.3233C11.4439 33.0579 11.8251 36.1722 12.9688 39.2107C13.5787 40.7299 14.3412 42.2491 15.4086 43.5405C16.476 44.9077 17.8484 46.1231 19.4496 46.9587C22.6519 48.7058 26.9216 48.7817 30.3526 46.8068C32.03 45.8193 33.5549 44.376 34.5461 42.5529C35.0036 41.6414 35.461 40.7299 35.6135 39.7424C35.766 38.7549 35.5373 37.6915 34.9273 36.8559C34.6224 36.4761 34.2411 36.1722 33.7837 35.9444C33.3262 35.7924 32.7925 35.7924 32.335 35.9444C31.42 36.2482 30.7338 37.1597 30.4289 38.0713C30.1239 38.9828 30.5051 40.0462 31.1913 40.7299C31.8775 41.4135 32.7925 41.7934 33.7837 41.9453C34.7748 42.0212 35.6898 41.7934 36.5285 41.2616C37.3672 40.8059 38.0534 40.0462 38.5871 39.2866C39.6545 37.6915 40.0358 35.8684 40.2645 34.0453C40.7982 26.7531 40.6457 20.0685 39.8833 14.5994C39.502 11.8648 38.8921 9.35805 38.2821 7.3071C37.6722 5.1802 36.7572 3.50906 35.6898 2.36965C34.6224 1.23023 33.5549 0.622553 32.7925 0.394671C32.1063 0.0908273 31.6488 0.0908203 31.6488 0.0908203Z" fill="#E0E0E0"/>
<path d="M25.702 11.0293H0.388672V15.8148H25.702V11.0293Z" fill="#E0E0E0"/>
</svg>
