<svg width="47" height="33" viewBox="0 0 47 33" fill="none" xmlns="http://www.w3.org/2000/svg">
<path d="M45.8754 0.635498H0.662109V32.691H45.8754V0.635498Z" fill="#75B687"/>
<path d="M46.1805 5.34507C46.1805 5.42103 35.9636 5.57295 23.3832 5.57295C10.8028 5.57295 0.585938 5.49699 0.585938 5.34507C0.585938 5.26911 10.8028 5.11719 23.3832 5.11719C35.9636 5.19315 46.1805 5.26911 46.1805 5.34507Z" fill="white"/>
<path d="M4.32148 3.06615C4.32148 3.36999 4.0165 3.59788 3.71152 3.59788C3.40654 3.59788 3.10156 3.36999 3.10156 3.06615C3.10156 2.76231 3.40654 2.53442 3.71152 2.53442C4.0165 2.53442 4.32148 2.76231 4.32148 3.06615Z" fill="white"/>
<path d="M6.53242 3.06615C6.53242 3.36999 6.22744 3.59788 5.92246 3.59788C5.61748 3.59788 5.3125 3.36999 5.3125 3.06615C5.3125 2.76231 5.61748 2.53442 5.92246 2.53442C6.22744 2.53442 6.53242 2.76231 6.53242 3.06615Z" fill="white"/>
<path d="M8.1334 3.59788C8.47027 3.59788 8.74336 3.35981 8.74336 3.06615C8.74336 2.77249 8.47027 2.53442 8.1334 2.53442C7.79653 2.53442 7.52344 2.77249 7.52344 3.06615C7.52344 3.35981 7.79653 3.59788 8.1334 3.59788Z" fill="white"/>
<path d="M17.3594 18.1825C17.3594 20.0815 15.987 21.2969 13.6234 21.2969H11.1836V24.1834H10.1924V15.0681H13.6234C15.9108 15.0681 17.3594 16.2075 17.3594 18.1825ZM16.3682 18.1825C16.3682 16.7393 15.377 15.9037 13.6234 15.9037H11.1836V20.4613H13.6234C15.377 20.3854 16.3682 19.6258 16.3682 18.1825Z" fill="white"/>
<path d="M26.9663 15.0681V24.1075H26.0514V19.9296H20.333V24.1075H19.3418V15.0681H20.333V19.094H26.0514V15.0681H26.9663Z" fill="white"/>
<path d="M37.0303 18.1825C37.0303 20.0815 35.6579 21.2969 33.2943 21.2969H30.8545V24.1834H29.8633V15.0681H33.2943C35.6579 15.0681 37.0303 16.2075 37.0303 18.1825ZM36.1154 18.1825C36.1154 16.7393 35.1242 15.9037 33.3706 15.9037H30.9307V20.4613H33.3706C35.1242 20.3854 36.1154 19.6258 36.1154 18.1825Z" fill="white"/>
</svg>
