<svg width="42" height="30" viewBox="0 0 42 30" fill="none" xmlns="http://www.w3.org/2000/svg">
<path d="M41.1144 0.312256H0.24707V29.3293H41.1144V0.312256Z" fill="#75B687"/>
<path d="M14.0471 13.7573V19.5303H12.6747V17.1756H10.0824V19.5303H8.70996V13.7573H10.0824V16.0362H12.6747V13.7573H14.0471Z" fill="white"/>
<path d="M16.6394 14.8967H14.8096V13.8333H19.8417V14.8967H18.0119V19.5303H16.6394V14.8967Z" fill="white"/>
<path d="M20.5283 13.7573H21.9007V18.3909H24.798V19.4544H20.5283V13.7573Z" fill="white"/>
<path d="M30.7452 19.5303V16.1121L29.0678 18.9227H28.4578L26.7805 16.1881V19.5303H25.5605V13.7573H26.7042L28.8391 17.3275L30.9739 13.7573H32.0414V19.5303H30.7452Z" fill="white"/>
<path d="M41.4194 4.64217C41.4194 4.71813 32.1937 4.79408 20.8332 4.79408C9.47272 4.79408 0.24707 4.71813 0.24707 4.64217C0.24707 4.5662 9.47272 4.49023 20.8332 4.49023C32.1937 4.49023 41.4194 4.5662 41.4194 4.64217Z" fill="white"/>
<path d="M3.60163 2.51517C3.60163 2.74305 3.37288 2.97093 3.0679 2.97093C2.76292 2.97093 2.53418 2.74305 2.53418 2.51517C2.53418 2.28729 2.76292 2.0594 3.0679 2.0594C3.37288 1.98344 3.60163 2.21133 3.60163 2.51517Z" fill="white"/>
<path d="M5.58403 2.5151C5.58403 2.74298 5.35531 2.97085 5.05033 2.97085C4.74535 2.97085 4.5166 2.74298 4.5166 2.5151C4.5166 2.28721 4.74535 2.05933 5.05033 2.05933C5.35531 2.05933 5.58403 2.21125 5.58403 2.5151Z" fill="white"/>
<path d="M7.64262 2.51517C7.64262 2.74305 7.41388 2.97093 7.1089 2.97093C6.80392 2.97093 6.5752 2.74305 6.5752 2.51517C6.5752 2.28729 6.80392 2.0594 7.1089 2.0594C7.33763 1.98344 7.64262 2.21133 7.64262 2.51517Z" fill="white"/>
</svg>
