<svg width="91" height="37" viewBox="0 0 91 37" fill="none" xmlns="http://www.w3.org/2000/svg">
<path d="M90.0136 0.268066H0.501953V36.5014H90.0136V0.268066Z" fill="white"/>
<path d="M90.0139 36.5015C90.0139 36.5015 90.0139 36.2736 90.0139 35.8179C90.0139 35.3621 90.0139 34.7544 90.0139 33.9188C90.0139 32.2477 90.0139 29.8169 90.0139 26.7026C90.0139 20.4738 90.0138 11.4344 89.9376 0.192206L90.0139 0.268167C67.2166 0.268167 35.5749 0.268167 0.502175 0.344128L0.654663 0.192206C0.654663 12.8777 0.654663 25.1074 0.654663 36.4255L0.502175 36.2736C26.4255 36.2736 48.7653 36.3496 64.7005 36.3496C72.63 36.3496 78.9583 36.3496 83.3043 36.3496C85.4391 36.3496 87.1165 36.3496 88.2602 36.3496C88.7939 36.3496 89.2514 36.3496 89.5564 36.3496C89.8614 36.5015 90.0139 36.5015 90.0139 36.5015C90.0139 36.5015 89.8614 36.5015 89.5564 36.5015C89.2514 36.5015 88.8702 36.5015 88.2602 36.5015C87.1165 36.5015 85.4391 36.5015 83.3043 36.5015C78.9583 36.5015 72.63 36.5015 64.7005 36.5015C48.7653 36.5015 26.4255 36.5775 0.425925 36.5775H0.273438V36.4255C0.273438 25.1074 0.273438 12.8777 0.273438 0.192206V0.0402832H0.425925C35.4224 0.0402832 67.1403 0.0402835 89.9376 0.116244H90.0139V0.192206C90.0139 11.4344 89.9376 20.4738 89.9376 26.7026C89.9376 29.8169 89.9376 32.2477 89.9376 33.9188C89.9376 34.7544 89.9376 35.3621 89.9376 35.8179C90.0138 36.2736 90.0139 36.5015 90.0139 36.5015Z" fill="#E0E0E0"/>
<path d="M0.578125 5.20563C0.578125 5.12967 20.5543 5.05371 45.2577 5.05371C69.9611 5.05371 89.9373 5.12967 89.9373 5.20563C89.9373 5.28159 69.9611 5.35755 45.2577 5.35755C20.5543 5.28159 0.578125 5.28159 0.578125 5.20563Z" fill="#E0E0E0"/>
<g opacity="0.3">
<g opacity="0.3">
<path opacity="0.3" d="M4.3148 3.00274C4.3148 3.38255 4.00981 3.68639 3.62858 3.68639C3.24736 3.68639 2.94238 3.38255 2.94238 3.00274C2.94238 2.62294 3.24736 2.31909 3.62858 2.31909C4.00981 2.31909 4.3148 2.62294 4.3148 3.00274Z" fill="#EBEBEB"/>
</g>
</g>
<g opacity="0.3">
<g opacity="0.3">
<path opacity="0.3" d="M6.52573 3.00274C6.52573 3.38255 6.22076 3.68639 5.83953 3.68639C5.45831 3.68639 5.15332 3.38255 5.15332 3.00274C5.15332 2.62294 5.45831 2.31909 5.83953 2.31909C6.22076 2.31909 6.52573 2.62294 6.52573 3.00274Z" fill="#EBEBEB"/>
</g>
</g>
<g opacity="0.3">
<g opacity="0.3">
<path opacity="0.3" d="M8.12664 3.68639C8.50562 3.68639 8.81284 3.38031 8.81284 3.00274C8.81284 2.62517 8.50562 2.31909 8.12664 2.31909C7.74766 2.31909 7.44043 2.62517 7.44043 3.00274C7.44043 3.38031 7.74766 3.68639 8.12664 3.68639Z" fill="#EBEBEB"/>
</g>
</g>
<path d="M29.7805 11.0547H8.12695V32.6276H29.7805V11.0547Z" fill="#E0E0E0"/>
<path d="M83.7616 16.8277C83.7616 16.9037 72.6298 16.9796 58.9057 16.9796C45.1816 16.9796 34.0498 16.9037 34.0498 16.8277C34.0498 16.7517 45.1816 16.6758 58.9057 16.6758C72.706 16.6758 83.7616 16.7517 83.7616 16.8277Z" fill="#E0E0E0"/>
<path d="M83.7616 21.2335C83.7616 21.3094 72.6298 21.3854 58.9057 21.3854C45.1816 21.3854 34.0498 21.3094 34.0498 21.2335C34.0498 21.1575 45.1816 21.0815 58.9057 21.0815C72.706 21.0815 83.7616 21.1575 83.7616 21.2335Z" fill="#E0E0E0"/>
<path d="M66.0726 25.6392C66.0726 25.6392 65.9963 25.6392 65.7676 25.6392C65.5389 25.6392 65.2339 25.6392 64.8527 25.6392C64.014 25.6392 62.8703 25.6392 61.4216 25.7152C58.5243 25.7152 54.4833 25.7152 50.1374 25.7911C45.7151 25.7911 41.7504 25.7911 38.8531 25.7152C37.4044 25.7152 36.2608 25.7152 35.4221 25.6392C35.0408 25.6392 34.7359 25.6392 34.5071 25.6392C34.2784 25.6392 34.2021 25.6392 34.2021 25.6392C34.2021 25.6392 34.2784 25.6392 34.5071 25.6392C34.7359 25.6392 35.0408 25.6392 35.4221 25.6392C36.2608 25.6392 37.4044 25.6392 38.8531 25.5633C41.7504 25.5633 45.7914 25.5633 50.1374 25.4873C54.5596 25.4873 58.5243 25.4873 61.4216 25.5633C62.8703 25.5633 64.014 25.5633 64.8527 25.6392C65.2339 25.6392 65.5389 25.6392 65.7676 25.6392C65.9963 25.5633 66.0726 25.5633 66.0726 25.6392Z" fill="#E0E0E0"/>
</svg>
