<svg width="126" height="103" viewBox="0 0 126 103" fill="none" xmlns="http://www.w3.org/2000/svg">
<path d="M125.256 0.859863H18.4365V87.6072H125.256V0.859863Z" fill="#E0E0E0"/>
<path d="M117.631 6.40503H10.8115V93.1524H117.631V6.40503Z" fill="#EBEBEB"/>
<path d="M110.083 12.4058H0.366211V101.432H110.083V12.4058Z" fill="white"/>
<path d="M110.083 101.432C110.083 101.432 110.083 100.9 110.083 99.7609C110.083 98.6974 110.083 97.1022 110.083 94.9753C110.083 90.7975 110.083 84.7206 110.007 76.9726C110.007 61.4006 109.93 39.22 109.93 12.4059L110.083 12.5578C78.67 12.5578 41.005 12.5578 0.366355 12.5578L0.595092 12.3299C0.595092 44.5373 0.595092 74.9217 0.595092 101.356L0.442593 101.204C33.0755 101.204 60.4474 101.28 79.7374 101.28C89.3443 101.28 96.9688 101.28 102.153 101.356C104.746 101.356 106.728 101.356 108.101 101.356C108.787 101.356 109.244 101.356 109.626 101.356C109.854 101.432 110.083 101.432 110.083 101.432C110.083 101.432 109.93 101.432 109.549 101.432C109.168 101.432 108.711 101.432 108.024 101.432C106.652 101.432 104.67 101.432 102.153 101.432C96.9688 101.432 89.4206 101.432 79.7374 101.508C60.4474 101.508 32.9992 101.584 0.366355 101.584H0.213867V101.432C0.213867 74.9976 0.213867 44.6133 0.213867 12.4059V12.178H0.442593C41.005 12.178 78.7463 12.178 110.159 12.178H110.312V12.3299C110.312 39.22 110.235 61.4766 110.235 77.0486C110.235 84.7966 110.235 90.8734 110.159 95.0513C110.159 97.1022 110.159 98.6974 110.159 99.7609C110.083 100.9 110.083 101.432 110.083 101.432Z" fill="#263238"/>
<path d="M13.7096 25.2433L12.5659 25.6991L13.7096 26.1548V26.6106L12.0322 26.0029V25.5471L13.7096 24.9395V25.2433Z" fill="#E36F59"/>
<path d="M16.5306 24.4836V26.9144H15.9206V25.9269H14.777V26.9144H14.167V24.4836H14.777V25.4711H15.9206V24.4836H16.5306Z" fill="#E36F59"/>
<path d="M17.5984 24.9394H16.8359V24.4836H18.9708V24.9394H18.2084V26.9144H17.5984V24.9394Z" fill="#E36F59"/>
<path d="M21.4866 26.9144V25.4711L20.7241 26.6865H20.4954L19.7329 25.4711V26.9144H19.1992V24.4836H19.6567L20.5716 26.0029L21.4866 24.4836H21.944V26.9144H21.4866Z" fill="#E36F59"/>
<path d="M22.6299 24.4836H23.2398V26.4586H24.4598V26.9144H22.6299V24.4836Z" fill="#E36F59"/>
<path d="M26.3659 25.471V25.9268L24.6885 26.5345V26.0787L25.8322 25.623L24.6885 25.1672V24.7114L26.3659 25.471Z" fill="#E36F59"/>
<path d="M12.7184 92.7726L11.5747 93.2284L12.7184 93.6841V94.1399L11.041 93.5322V93.0764L12.7184 92.4688V92.7726Z" fill="#E36F59"/>
<path d="M14.0148 91.4812H14.4722L13.3285 94.8235H12.8711L14.0148 91.4812Z" fill="#E36F59"/>
<path d="M16.9124 92.0129V94.4437H16.3024V93.4562H15.1587V94.4437H14.625V92.0129H15.235V93.0004H16.3786V92.0129H16.9124Z" fill="#E36F59"/>
<path d="M17.9792 92.4687H17.2168V92.0129H19.3517V92.4687H18.5892V94.4437H17.9792V92.4687Z" fill="#E36F59"/>
<path d="M21.9436 94.4437V93.0004L21.1812 94.2158H20.9524L20.19 93.0004V94.4437H19.6562V92.0129H20.1137L21.0287 93.5322L21.9436 92.0129H22.4011V94.4437H21.9436Z" fill="#E36F59"/>
<path d="M23.0117 92.0129H23.6217V93.9879H24.8416V94.4437H23.0117V92.0129Z" fill="#E36F59"/>
<path d="M26.7477 93.0003V93.4561L25.0703 94.0638V93.608L26.214 93.1523L25.0703 92.6965V92.2407L26.7477 93.0003Z" fill="#E36F59"/>
<path d="M21.4859 32.0038L20.266 32.4595L21.4859 32.9153V33.2191L19.8848 32.6115V32.3836L21.4859 31.7759V32.0038Z" fill="black"/>
<path d="M24.2306 31.2441V33.6749H23.8494V32.6114H22.4008V33.6749H22.0195V31.2441H22.4008V32.3076H23.8494V31.2441H24.2306Z" fill="black"/>
<path d="M26.7469 33.447V33.7508H24.917V31.3201H26.6706V31.6239H25.2982V32.3835H26.5181V32.6874H25.2982V33.447H26.7469Z" fill="black"/>
<path d="M28.8818 33.1431H27.5856L27.2806 33.7508H26.8994L28.0431 31.3201H28.4243L29.568 33.7508H29.1868L28.8818 33.1431ZM28.8055 32.8393L28.2718 31.6239L27.7381 32.8393H28.8055Z" fill="black"/>
<path d="M29.9492 31.2441H31.0166C31.7791 31.2441 32.389 31.7759 32.389 32.4595C32.389 33.2191 31.8553 33.6749 31.0166 33.6749H29.9492V31.2441ZM30.9404 33.447C31.5504 33.447 31.9316 33.0672 31.9316 32.5355C31.9316 32.0037 31.5504 31.6239 30.9404 31.6239H30.2542V33.447H30.9404Z" fill="black"/>
<path d="M34.2955 32.3836V32.6874L32.6943 33.2951V32.9913L33.9905 32.5355L32.6943 32.0797V31.7759L34.2955 32.3836Z" fill="black"/>
<path d="M21.4859 40.4354L20.266 40.8912L21.4859 41.347V41.6508L19.8848 41.0431V40.7393L21.4859 40.1316V40.4354Z" fill="black"/>
<path d="M22.5535 40.0556H21.7148V39.7517H23.7735V40.0556H22.9348V42.1825H22.5535V40.0556Z" fill="black"/>
<path d="M24.1543 39.7517H24.5355V42.1825H24.1543V39.7517Z" fill="black"/>
<path d="M25.7557 40.0556H24.917V39.7517H26.9756V40.0556H26.1369V42.1825H25.7557V40.0556Z" fill="black"/>
<path d="M27.3564 39.7517H27.7377V41.8786H29.1101V42.1825H27.4327V39.7517H27.3564Z" fill="black"/>
<path d="M31.2449 41.8786V42.1825H29.415V39.7517H31.1687V40.0556H29.7963V40.8152H31.0162V41.119H29.7963V41.8786H31.2449Z" fill="black"/>
<path d="M33.2281 40.8152V41.119L31.627 41.7267V41.4229L32.9231 40.9671L31.627 40.5114V40.2075L33.2281 40.8152Z" fill="black"/>
<path d="M34.8291 39.7517H35.2103V41.8786H36.5827V42.1825H34.9054V39.7517H34.8291Z" fill="black"/>
<path d="M36.6582 41.2709C36.6582 40.7392 37.0394 40.2834 37.6494 40.2834C38.1831 40.2834 38.6406 40.6633 38.6406 41.2709C38.6406 41.8027 38.2594 42.2584 37.6494 42.2584C37.1157 42.1825 36.6582 41.8027 36.6582 41.2709ZM38.2594 41.2709C38.2594 40.8911 37.9544 40.5873 37.6494 40.5873C37.2682 40.5873 37.0394 40.8152 37.0394 41.2709C37.0394 41.6507 37.3444 41.9546 37.6494 41.9546C38.0306 41.8786 38.2594 41.6507 38.2594 41.2709Z" fill="black"/>
<path d="M40.0898 40.2835V40.5873H40.0136C39.6323 40.5873 39.4036 40.8152 39.4036 41.195V42.1065H39.0986V40.2075H39.4036V40.5114C39.5561 40.4354 39.7848 40.2835 40.0898 40.2835Z" fill="black"/>
<path d="M42.1483 41.3469H40.6234C40.6997 41.6508 40.9284 41.8787 41.3096 41.8787C41.5383 41.8787 41.6908 41.8027 41.8433 41.6508L41.9958 41.8787C41.8433 42.1065 41.5383 42.1825 41.2334 42.1825C40.6234 42.1825 40.2422 41.8027 40.2422 41.195C40.2422 40.6633 40.6234 40.2075 41.1571 40.2075C41.6908 40.2075 42.0721 40.5873 42.0721 41.195C42.1483 41.271 42.1483 41.3469 42.1483 41.3469ZM40.6234 41.119H41.8433C41.8433 40.8152 41.5383 40.5873 41.2334 40.5873C40.9284 40.5873 40.6997 40.8152 40.6234 41.119Z" fill="black"/>
<path d="M45.7323 41.119V42.1825H45.4273V41.119C45.4273 40.7392 45.2748 40.5873 44.9698 40.5873C44.6648 40.5873 44.4361 40.8152 44.4361 41.195V42.1825H44.1311V41.119C44.1311 40.7392 43.9786 40.5873 43.6737 40.5873C43.3687 40.5873 43.1399 40.8152 43.1399 41.195V42.1825H42.835V40.2834H43.1399V40.5873C43.2924 40.3594 43.5212 40.2834 43.7499 40.2834C44.0549 40.2834 44.2836 40.3594 44.4361 40.6633C44.5886 40.4354 44.8173 40.2834 45.1223 40.2834C45.4273 40.2834 45.7323 40.5873 45.7323 41.119Z" fill="black"/>
<path d="M47.2568 39.7518C47.2568 39.5999 47.3331 39.5239 47.4856 39.5239C47.6381 39.5239 47.7143 39.5999 47.7143 39.7518C47.7143 39.9037 47.6381 39.9797 47.4856 39.9797C47.4093 39.9797 47.2568 39.8278 47.2568 39.7518ZM47.3331 40.2835H47.6381V42.1826H47.3331V40.2835Z" fill="black"/>
<path d="M50.2303 41.271C50.2303 41.8787 49.8491 42.2585 49.3154 42.2585C49.0867 42.2585 48.7817 42.1826 48.6292 41.9547V42.9422H48.3242V40.3595H48.6292V40.6633C48.7817 40.4354 49.0104 40.3595 49.3154 40.3595C49.8491 40.2835 50.2303 40.6633 50.2303 41.271ZM49.9253 41.271C49.9253 40.8912 49.6204 40.5874 49.3154 40.5874C48.9342 40.5874 48.7054 40.8152 48.7054 41.271C48.7054 41.6508 49.0104 41.9547 49.3154 41.9547C49.6204 41.8787 49.9253 41.6508 49.9253 41.271Z" fill="black"/>
<path d="M50.459 41.9546L50.6115 41.6507C50.764 41.7267 50.9927 41.8786 51.2977 41.8786C51.6027 41.8786 51.7552 41.8027 51.7552 41.6507C51.7552 41.195 50.5352 41.5748 50.5352 40.8152C50.5352 40.5113 50.8402 40.2834 51.2977 40.2834C51.5264 40.2834 51.8314 40.3594 51.9839 40.4354L51.8314 40.7392C51.6789 40.6633 51.4502 40.5873 51.2977 40.5873C50.9927 40.5873 50.8402 40.6633 50.8402 40.8152C50.8402 41.2709 52.0601 40.8911 52.0601 41.6507C52.0601 41.9546 51.7552 42.1825 51.2214 42.1825C50.9927 42.1825 50.6115 42.1065 50.459 41.9546Z" fill="black"/>
<path d="M54.2712 40.2834V42.1825H53.9662V41.8786C53.8137 42.1065 53.585 42.1825 53.3563 42.1825C52.8988 42.1825 52.5176 41.9546 52.5176 41.3469V40.2834H52.8226V41.3469C52.8226 41.7267 52.975 41.8786 53.3563 41.8786C53.7375 41.8786 53.9662 41.6507 53.9662 41.2709V40.2834H54.2712Z" fill="black"/>
<path d="M58.0077 41.119V42.1825H57.7027V41.119C57.7027 40.7392 57.5502 40.5873 57.2452 40.5873C56.9402 40.5873 56.7115 40.8152 56.7115 41.195V42.1825H56.4065V41.119C56.4065 40.7392 56.254 40.5873 55.9491 40.5873C55.6441 40.5873 55.4153 40.8152 55.4153 41.195V42.1825H55.1104V40.2834H55.4153V40.5873C55.5678 40.3594 55.7965 40.2834 56.0253 40.2834C56.3303 40.2834 56.559 40.3594 56.7115 40.6633C56.864 40.4354 57.0927 40.2834 57.3977 40.2834C57.7027 40.2834 58.0077 40.5873 58.0077 41.119Z" fill="black"/>
<path d="M61.0572 40.4354L59.8373 40.8912L61.0572 41.347V41.6508L59.4561 41.0431V40.7393L61.0572 40.1316V40.4354Z" fill="black"/>
<path d="M62.3536 39.22H62.6586L61.5149 42.5622H61.21L62.3536 39.22Z" fill="black"/>
<path d="M63.4969 40.0556H62.6582V39.7517H64.7168V40.0556H63.8781V42.1825H63.4969V40.0556Z" fill="black"/>
<path d="M65.0977 39.7517H65.4789V42.1825H65.0977V39.7517Z" fill="black"/>
<path d="M66.699 40.0556H65.8604V39.7517H67.919V40.0556H67.0803V42.1825H66.699V40.0556Z" fill="black"/>
<path d="M68.3008 39.7517H68.682V41.8786H70.0544V42.1825H68.377V39.7517H68.3008Z" fill="black"/>
<path d="M72.1893 41.8786V42.1825H70.3594V39.7517H72.113V40.0556H70.7406V40.8152H71.9605V41.119H70.7406V41.8786H72.1893Z" fill="black"/>
<path d="M74.1715 40.8152V41.119L72.5703 41.7267V41.4229L73.8665 40.9671L72.5703 40.5114V40.2075L74.1715 40.8152Z" fill="black"/>
<path d="M21.4859 48.943L20.266 49.3988L21.4859 49.8545V50.1584L19.8848 49.5507V49.2468L21.4859 48.6392V48.943Z" fill="black"/>
<path d="M22.7823 47.6516H23.0873L21.9436 50.9939H21.6387L22.7823 47.6516Z" fill="black"/>
<path d="M25.4504 48.1833V50.6141H25.0692V49.5506H23.6205V50.6141H23.2393V48.1833H23.6205V49.2468H25.0692V48.1833H25.4504Z" fill="black"/>
<path d="M28.0428 50.3103V50.6141H26.2129V48.1833H27.9665V48.4872H26.5941V49.2468H27.814V49.5506H26.5941V50.3103H28.0428Z" fill="black"/>
<path d="M30.1777 50.0064H28.8815L28.5765 50.6141H28.1953L29.339 48.1833H29.7202L30.8639 50.6141H30.4827L30.1777 50.0064ZM30.0252 49.7026L29.4915 48.4872L28.9578 49.7026H30.0252Z" fill="black"/>
<path d="M31.1689 48.1833H32.2364C32.9988 48.1833 33.6088 48.7151 33.6088 49.3987C33.6088 50.1583 33.0751 50.6141 32.2364 50.6141H31.1689V48.1833ZM32.1601 50.3103C32.7701 50.3103 33.1513 49.9304 33.1513 49.3987C33.1513 48.867 32.7701 48.4872 32.1601 48.4872H31.4739V50.3103H32.1601Z" fill="black"/>
<path d="M35.5152 49.2468V49.5507L33.9141 50.1584V49.8545L35.2102 49.3988L33.9141 48.943V48.6392L35.5152 49.2468Z" fill="black"/>
<path d="M14.9293 56.2355L13.7094 56.6912L14.9293 57.147V57.4509L13.3281 56.8432V56.5393L14.9293 55.9316V56.2355Z" fill="black"/>
<path d="M17.6739 57.2989C17.6739 57.7546 17.3689 57.9825 16.7589 57.9825H15.6152V55.5518H16.7589C17.2926 55.5518 17.6739 55.7796 17.6739 56.1594C17.6739 56.4633 17.5214 56.6152 17.3689 56.6912C17.4451 56.7671 17.6739 56.995 17.6739 57.2989ZM15.9202 55.7796V56.5393H16.6827C17.0639 56.5393 17.2164 56.3873 17.2164 56.1594C17.2164 55.9316 16.9877 55.7796 16.6827 55.7796H15.9202ZM17.2926 57.2989C17.2926 56.995 17.0639 56.9191 16.6827 56.9191H15.844V57.7546H16.6827C17.0639 57.6787 17.2926 57.5267 17.2926 57.2989Z" fill="black"/>
<path d="M17.9795 56.7672C17.9795 56.0076 18.5132 55.4758 19.2757 55.4758C20.0381 55.4758 20.5718 56.0076 20.5718 56.7672C20.5718 57.5268 20.0381 58.0585 19.2757 58.0585C18.5895 57.9825 17.9795 57.4508 17.9795 56.7672ZM20.2668 56.7672C20.2668 56.2354 19.8856 55.8556 19.2757 55.8556C18.742 55.8556 18.2845 56.2354 18.2845 56.7672C18.2845 57.2989 18.6657 57.6787 19.2757 57.6787C19.8856 57.6787 20.2668 57.2989 20.2668 56.7672Z" fill="black"/>
<path d="M21.1816 55.4758H22.2491C23.0115 55.4758 23.6215 56.0076 23.6215 56.6912C23.6215 57.4508 23.0878 57.9066 22.2491 57.9066H21.1816V55.4758ZM22.1728 57.6787C22.7828 57.6787 23.164 57.2989 23.164 56.7672C23.164 56.2354 22.7828 55.8556 22.1728 55.8556H21.4866V57.6787H22.1728Z" fill="black"/>
<path d="M24.9173 57.1469V57.9825H24.5361V57.1469L23.5449 55.5518H23.9261L24.6886 56.8431L25.451 55.5518H25.8323L24.9173 57.1469Z" fill="black"/>
<path d="M27.7388 56.6153V56.9191L26.1377 57.5268V57.223L27.4338 56.7672L26.1377 56.3114V55.9316L27.7388 56.6153Z" fill="black"/>
<path d="M14.9293 64.6671L13.7094 65.1229L14.9293 65.5786V65.8825L13.3281 65.2748V65.0469L14.9293 64.4392V64.6671Z" fill="black"/>
<path d="M17.674 63.9834V66.4141H17.2928V65.3507H15.8441V66.4141H15.4629V63.9834H15.8441V65.0468H17.2928V63.9834H17.674Z" fill="black"/>
<path d="M18.9706 63.9834V66.4141H18.5894V64.2872H18.0557V63.9834H18.9706Z" fill="black"/>
<path d="M21.1812 65.0469V65.3507L19.5801 65.9584V65.6546L20.8763 65.1988L19.5801 64.7431V64.4392L21.1812 65.0469Z" fill="black"/>
<path d="M22.7823 63.9834H23.011V66.2622H24.3834V66.4901H22.7061V63.9834H22.7823Z" fill="black"/>
<path d="M24.5361 65.5026C24.5361 64.9709 24.9174 64.5911 25.4511 64.5911C25.9848 64.5911 26.366 64.9709 26.366 65.5026C26.366 66.0343 25.9848 66.4141 25.4511 66.4141C24.9936 66.4141 24.5361 66.0343 24.5361 65.5026ZM26.2135 65.5026C26.2135 65.0468 25.9085 64.743 25.5273 64.743C25.1461 64.743 24.8411 65.0468 24.8411 65.5026C24.8411 65.9584 25.1461 66.2622 25.5273 66.2622C25.9085 66.1863 26.2135 65.8824 26.2135 65.5026Z" fill="black"/>
<path d="M27.8905 64.5151V64.743H27.8143C27.433 64.743 27.2043 64.9709 27.2043 65.4267V66.3382H26.9756V64.5151H27.2043V64.8949C27.2806 64.6671 27.5855 64.5151 27.8905 64.5151Z" fill="black"/>
<path d="M29.9499 65.5786H28.425C28.425 65.9584 28.73 66.1862 29.1875 66.1862C29.4162 66.1862 29.6449 66.1103 29.7212 65.9584L29.8737 66.1103C29.7212 66.3382 29.4162 66.4141 29.1875 66.4141C28.5775 66.4141 28.1963 66.0343 28.1963 65.5026C28.1963 64.9709 28.5775 64.5911 29.1112 64.5911C29.645 64.5911 30.0262 64.9709 30.0262 65.5026C29.9499 65.5026 29.9499 65.5026 29.9499 65.5786ZM28.425 65.3507H29.7212C29.7212 64.9709 29.4162 64.743 29.035 64.743C28.73 64.743 28.425 65.0468 28.425 65.3507Z" fill="black"/>
<path d="M33.5331 65.3507V66.4142H33.3044V65.3507C33.3044 64.9709 33.0757 64.743 32.7707 64.743C32.3894 64.743 32.1607 64.9709 32.1607 65.4267V66.4142H31.932V65.3507C31.932 64.9709 31.7033 64.743 31.3983 64.743C31.017 64.743 30.7883 64.9709 30.7883 65.4267V66.4142H30.5596V64.5911H30.7883V64.8949C30.9408 64.6671 31.1695 64.5151 31.4745 64.5151C31.7795 64.5151 32.0082 64.6671 32.1607 64.8949C32.3132 64.6671 32.5419 64.5151 32.9232 64.5151C33.2282 64.5151 33.5331 64.819 33.5331 65.3507Z" fill="black"/>
<path d="M35.0576 63.9835C35.0576 63.9075 35.1339 63.8315 35.2101 63.8315C35.2864 63.8315 35.3626 63.9075 35.3626 63.9835C35.3626 64.0594 35.2864 64.1354 35.2101 64.1354C35.1339 64.1354 35.0576 64.0594 35.0576 63.9835ZM35.1339 64.5912H35.3626V66.4142H35.1339V64.5912Z" fill="black"/>
<path d="M37.9549 65.5027C37.9549 66.0344 37.5736 66.4142 37.0399 66.4142C36.7349 66.4142 36.5062 66.2623 36.3537 66.0344V67.0979H36.125V64.5912H36.3537V64.971C36.5062 64.7431 36.7349 64.5912 37.0399 64.5912C37.5736 64.5152 37.9549 64.895 37.9549 65.5027ZM37.7261 65.5027C37.7261 65.0469 37.4212 64.7431 37.0399 64.7431C36.6587 64.7431 36.3537 65.0469 36.3537 65.5027C36.3537 65.9585 36.6587 66.2623 37.0399 66.2623C37.4212 66.1864 37.7261 65.8825 37.7261 65.5027Z" fill="black"/>
<path d="M38.2607 66.1863L38.337 65.9584C38.4895 66.1103 38.7182 66.1863 39.0232 66.1863C39.4044 66.1863 39.5569 66.0344 39.5569 65.8824C39.5569 65.4267 38.337 65.8065 38.337 65.0469C38.337 64.743 38.5657 64.5151 39.0994 64.5151C39.3282 64.5151 39.6332 64.5911 39.7856 64.6671L39.7094 64.8949C39.5569 64.819 39.3282 64.743 39.1757 64.743C38.8707 64.743 38.7182 64.8949 38.7182 65.0469C38.7182 65.5786 39.9381 65.1988 39.9381 65.8824C39.9381 66.1863 39.6332 66.4142 39.1757 66.4142C38.642 66.4142 38.4132 66.3382 38.2607 66.1863Z" fill="black"/>
<path d="M41.9196 64.5911V66.4141H41.6908V66.1103C41.5383 66.3382 41.3096 66.4901 41.0046 66.4901C40.5472 66.4901 40.2422 66.2622 40.2422 65.7305V64.667H40.4709V65.7305C40.4709 66.1103 40.6997 66.3382 41.0046 66.3382C41.3859 66.3382 41.6146 66.1103 41.6146 65.6545V64.667H41.9196V64.5911Z" fill="black"/>
<path d="M45.6562 65.3507V66.4142H45.4274V65.3507C45.4274 64.9709 45.1987 64.743 44.8937 64.743C44.5125 64.743 44.2838 64.9709 44.2838 65.4267V66.4142H44.055V65.3507C44.055 64.9709 43.8263 64.743 43.5213 64.743C43.1401 64.743 42.9114 64.9709 42.9114 65.4267V66.4142H42.6826V64.5911H42.9114V64.8949C43.0639 64.6671 43.2926 64.5151 43.5976 64.5151C43.9025 64.5151 44.1313 64.6671 44.2838 64.8949C44.4363 64.6671 44.665 64.5151 45.0462 64.5151C45.3512 64.5151 45.6562 64.819 45.6562 65.3507Z" fill="black"/>
<path d="M48.9344 63.8315V66.4142H48.7056V66.0344C48.5532 66.2623 48.3244 66.4142 48.0194 66.4142C47.4857 66.4142 47.1045 66.0344 47.1045 65.5027C47.1045 64.971 47.4857 64.5912 48.0194 64.5912C48.3244 64.5912 48.5532 64.7431 48.7056 64.971V63.8315H48.9344ZM48.7056 65.5027C48.7056 65.0469 48.4006 64.7431 48.0194 64.7431C47.6382 64.7431 47.3332 65.0469 47.3332 65.5027C47.3332 65.9585 47.6382 66.2623 48.0194 66.2623C48.4006 66.1863 48.7056 65.8825 48.7056 65.5027Z" fill="black"/>
<path d="M49.4688 65.5026C49.4688 64.9709 49.85 64.5911 50.3837 64.5911C50.9174 64.5911 51.2986 64.9709 51.2986 65.5026C51.2986 66.0343 50.9174 66.4141 50.3837 66.4141C49.85 66.4141 49.4688 66.0343 49.4688 65.5026ZM51.1461 65.5026C51.1461 65.0468 50.8412 64.743 50.4599 64.743C50.0787 64.743 49.7737 65.0468 49.7737 65.5026C49.7737 65.9584 50.0787 66.2622 50.4599 66.2622C50.8412 66.1863 51.1461 65.8824 51.1461 65.5026Z" fill="black"/>
<path d="M51.9082 63.8315H52.137V66.4142H51.9082V63.8315Z" fill="black"/>
<path d="M52.6709 65.5026C52.6709 64.9709 53.0521 64.5911 53.5858 64.5911C54.1196 64.5911 54.5008 64.9709 54.5008 65.5026C54.5008 66.0343 54.1196 66.4141 53.5858 66.4141C53.0521 66.4141 52.6709 66.0343 52.6709 65.5026ZM54.272 65.5026C54.272 65.0468 53.9671 64.743 53.5858 64.743C53.2046 64.743 52.8996 65.0468 52.8996 65.5026C52.8996 65.9584 53.2046 66.2622 53.5858 66.2622C53.9671 66.1863 54.272 65.8824 54.272 65.5026Z" fill="black"/>
<path d="M55.9491 64.5151V64.743H55.8729C55.4917 64.743 55.2629 64.9709 55.2629 65.4267V66.3382H55.0342V64.5151H55.2629V64.8949C55.4154 64.6671 55.6441 64.5151 55.9491 64.5151Z" fill="black"/>
<path d="M57.0928 66.1863L57.169 65.9584C57.3215 66.1103 57.5502 66.1863 57.8552 66.1863C58.2364 66.1863 58.3889 66.0344 58.3889 65.8824C58.3889 65.4267 57.169 65.8065 57.169 65.0469C57.169 64.743 57.3977 64.5151 57.9315 64.5151C58.1602 64.5151 58.4652 64.5911 58.6177 64.6671L58.5414 64.8949C58.3889 64.819 58.1602 64.743 58.0077 64.743C57.7027 64.743 57.5502 64.8949 57.5502 65.0469C57.5502 65.5786 58.7702 65.1988 58.7702 65.8824C58.7702 66.1863 58.4652 66.4142 58.0077 66.4142C57.5502 66.4142 57.2453 66.3382 57.0928 66.1863Z" fill="black"/>
<path d="M59.0752 63.9835C59.0752 63.9075 59.1514 63.8315 59.2277 63.8315C59.3039 63.8315 59.3802 63.9075 59.3802 63.9835C59.3802 64.0594 59.3039 64.1354 59.2277 64.1354C59.1514 64.1354 59.0752 64.0594 59.0752 63.9835ZM59.0752 64.5912H59.3039V66.4142H59.0752V64.5912Z" fill="black"/>
<path d="M61.0578 66.3383C60.9816 66.4143 60.8291 66.4903 60.6766 66.4903C60.2954 66.4903 60.1429 66.2624 60.1429 65.9585V64.8191H59.8379V64.5912H60.1429V64.2114H60.3716V64.5912H60.9053V64.8191H60.3716V65.9585C60.3716 66.1864 60.4479 66.2624 60.6766 66.2624C60.7528 66.2624 60.9053 66.2624 60.9816 66.1864L61.0578 66.3383Z" fill="black"/>
<path d="M63.8022 65.2749V66.4143H63.5735V66.1105C63.4973 66.3383 63.2685 66.4143 62.9635 66.4143C62.5061 66.4143 62.2773 66.1864 62.2773 65.8826C62.2773 65.5787 62.4298 65.3508 62.9635 65.3508H63.5735V65.2749C63.5735 64.9711 63.421 64.8191 63.0398 64.8191C62.8111 64.8191 62.5823 64.8951 62.4298 65.047L62.3536 64.8951C62.5061 64.7432 62.8111 64.6672 63.116 64.6672C63.5735 64.5153 63.8022 64.8191 63.8022 65.2749ZM63.5735 65.8826V65.5787H62.9635C62.5823 65.5787 62.5061 65.7307 62.5061 65.8826C62.5061 66.1105 62.6586 66.2624 62.9635 66.2624C63.2685 66.2624 63.4973 66.1105 63.5735 65.8826Z" fill="black"/>
<path d="M67.538 65.3507V66.4142H67.3093V65.3507C67.3093 64.9709 67.0805 64.743 66.7756 64.743C66.3943 64.743 66.1656 64.9709 66.1656 65.4267V66.4142H65.9369V65.3507C65.9369 64.9709 65.7081 64.743 65.4032 64.743C65.0219 64.743 64.7932 64.9709 64.7932 65.4267V66.4142H64.5645V64.5911H64.7932V64.8949C64.9457 64.6671 65.1744 64.5151 65.4794 64.5151C65.7844 64.5151 66.0131 64.6671 66.1656 64.8949C66.3181 64.6671 66.5468 64.5151 66.9281 64.5151C67.3093 64.5151 67.538 64.819 67.538 65.3507Z" fill="black"/>
<path d="M69.9021 65.5786H68.3772C68.3772 65.9584 68.6821 66.1862 69.1396 66.1862C69.3683 66.1862 69.5971 66.1103 69.6733 65.9584L69.8258 66.1103C69.6733 66.3382 69.3683 66.4141 69.1396 66.4141C68.5297 66.4141 68.1484 66.0343 68.1484 65.5026C68.1484 64.9709 68.5296 64.5911 69.0634 64.5911C69.5971 64.5911 69.9783 64.9709 69.9783 65.5026C69.9021 65.5026 69.9021 65.5026 69.9021 65.5786ZM68.3009 65.3507H69.5971C69.5971 64.9709 69.2921 64.743 68.9109 64.743C68.6059 64.743 68.3772 65.0468 68.3009 65.3507Z" fill="black"/>
<path d="M71.3508 66.3383C71.2745 66.4143 71.122 66.4903 70.9696 66.4903C70.5883 66.4903 70.4359 66.2624 70.4359 65.9585V64.8191H70.1309V64.5912H70.4359V64.2114H70.6646V64.5912H71.1983V64.8191H70.6646V65.9585C70.6646 66.1864 70.7408 66.2624 70.9696 66.2624C71.0458 66.2624 71.1983 66.2624 71.2745 66.1864L71.3508 66.3383Z" fill="black"/>
<path d="M72.1127 66.2623C72.1127 66.3383 72.1127 66.3383 72.0364 66.4902L71.8839 66.946H71.7314L71.8839 66.4142C71.8077 66.4142 71.7314 66.3383 71.7314 66.2623C71.7314 66.1863 71.8077 66.0344 71.8839 66.0344C72.0364 66.0344 72.1127 66.1104 72.1127 66.2623Z" fill="black"/>
<path d="M73.333 65.5026C73.333 64.9709 73.7142 64.5911 74.3242 64.5911C74.6292 64.5911 74.9341 64.743 75.0866 64.9709L74.8579 65.0468C74.7054 64.8949 74.5529 64.743 74.3242 64.743C73.943 64.743 73.638 65.0468 73.638 65.5026C73.638 65.9584 73.943 66.2622 74.3242 66.2622C74.5529 66.2622 74.7054 66.1862 74.8579 65.9584L75.0104 66.1103C74.8579 66.3382 74.6292 66.4901 74.248 66.4901C73.7905 66.4141 73.333 66.0343 73.333 65.5026Z" fill="black"/>
<path d="M75.3154 65.5026C75.3154 64.9709 75.6966 64.5911 76.2304 64.5911C76.7641 64.5911 77.1453 64.9709 77.1453 65.5026C77.1453 66.0343 76.7641 66.4141 76.2304 66.4141C75.6966 66.4141 75.3154 66.0343 75.3154 65.5026ZM76.9166 65.5026C76.9166 65.0468 76.6116 64.743 76.2304 64.743C75.8491 64.743 75.5442 65.0468 75.5442 65.5026C75.5442 65.9584 75.8491 66.2622 76.2304 66.2622C76.6878 66.1863 76.9166 65.8824 76.9166 65.5026Z" fill="black"/>
<path d="M79.4323 65.3507V66.4142H79.2036V65.3507C79.2036 64.9709 78.9748 64.7431 78.6698 64.7431C78.2886 64.7431 77.9836 64.9709 77.9836 65.4267V66.4142H77.7549V64.5911H77.9836V64.9709C78.1361 64.7431 78.3649 64.5911 78.6698 64.5911C79.1273 64.5152 79.4323 64.819 79.4323 65.3507Z" fill="black"/>
<path d="M79.8135 66.1863L79.8897 65.9584C80.0422 66.1103 80.2709 66.1863 80.5759 66.1863C80.9572 66.1863 81.1097 66.0344 81.1097 65.8824C81.1097 65.4267 79.8897 65.8065 79.8897 65.0469C79.8897 64.743 80.1185 64.5151 80.6522 64.5151C80.8809 64.5151 81.1859 64.5911 81.3384 64.6671L81.2621 64.8949C81.1096 64.819 80.8809 64.743 80.7284 64.743C80.4234 64.743 80.271 64.8949 80.271 65.0469C80.271 65.5786 81.4909 65.1988 81.4909 65.8824C81.4909 66.1863 81.1859 66.4142 80.7284 66.4142C80.271 66.4142 79.966 66.3382 79.8135 66.1863Z" fill="black"/>
<path d="M83.4734 65.5786H81.9485C81.9485 65.9584 82.2534 66.1862 82.7109 66.1862C82.9396 66.1862 83.1684 66.1103 83.2446 65.9584L83.3971 66.1103C83.2446 66.3382 82.9396 66.4141 82.7109 66.4141C82.1009 66.4141 81.7197 66.0343 81.7197 65.5026C81.7197 64.9709 82.101 64.5911 82.6347 64.5911C83.1684 64.5911 83.5496 64.9709 83.5496 65.5026C83.4734 65.5026 83.4734 65.5026 83.4734 65.5786ZM81.8722 65.3507H83.1684C83.1684 64.9709 82.8634 64.743 82.4822 64.743C82.1772 64.743 81.9485 65.0468 81.8722 65.3507Z" fill="black"/>
<path d="M83.7783 65.5026C83.7783 64.9709 84.1595 64.5911 84.7695 64.5911C85.0745 64.5911 85.3795 64.743 85.5319 64.9709L85.3794 65.1228C85.227 64.9709 85.0745 64.8189 84.8457 64.8189C84.4645 64.8189 84.1595 65.1228 84.1595 65.5786C84.1595 66.0343 84.4645 66.3382 84.8457 66.3382C85.0745 66.3382 85.227 66.2622 85.3794 66.0343L85.5319 66.1862C85.3795 66.4141 85.1507 66.5661 84.7695 66.5661C84.1595 66.4141 83.7783 66.0343 83.7783 65.5026Z" fill="black"/>
<path d="M86.9807 66.3383C86.9044 66.4143 86.7519 66.4903 86.5994 66.4903C86.2182 66.4903 86.0657 66.2624 86.0657 65.9585V64.8191H85.7607V64.5912H86.0657V64.2114H86.2945V64.5912H86.8282V64.8191H86.2945V65.9585C86.2945 66.1864 86.3707 66.2624 86.5994 66.2624C86.6757 66.2624 86.8282 66.2624 86.9044 66.1864L86.9807 66.3383Z" fill="black"/>
<path d="M88.9636 65.5786H87.4387C87.4387 65.9584 87.7437 66.1862 88.2011 66.1862C88.4299 66.1862 88.6586 66.1103 88.7349 65.9584L88.8873 66.1103C88.7348 66.3382 88.4299 66.4141 88.2011 66.4141C87.5912 66.4141 87.21 66.0343 87.21 65.5026C87.21 64.9709 87.5912 64.5911 88.1249 64.5911C88.6586 64.5911 89.0398 64.9709 89.0398 65.5026C88.9636 65.5026 88.9636 65.5026 88.9636 65.5786ZM87.4387 65.3507H88.7349C88.7349 64.9709 88.4299 64.743 88.0486 64.743C87.6674 64.743 87.4387 65.0468 87.4387 65.3507Z" fill="black"/>
<path d="M90.4885 66.3383C90.4122 66.4143 90.2597 66.4903 90.1073 66.4903C89.726 66.4903 89.5735 66.2624 89.5735 65.9585V64.8191H89.2686V64.5912H89.5735V64.2114H89.8023V64.5912H90.336V64.8191H89.8023V65.9585C89.8023 66.1864 89.8785 66.2624 90.1073 66.2624C90.1835 66.2624 90.336 66.2624 90.4122 66.1864L90.4885 66.3383Z" fill="black"/>
<path d="M92.6227 64.5911V66.4141H92.394V66.1103C92.2415 66.3382 92.0127 66.4901 91.7078 66.4901C91.2503 66.4901 90.9453 66.2622 90.9453 65.7305V64.667H91.174V65.7305C91.174 66.1103 91.4028 66.3382 91.7078 66.3382C92.089 66.3382 92.3177 66.1103 92.3177 65.6545V64.667H92.6227V64.5911Z" fill="black"/>
<path d="M94.9099 65.5786H93.385C93.385 65.9584 93.69 66.1862 94.1474 66.1862C94.3762 66.1862 94.6049 66.1103 94.6812 65.9584L94.8337 66.1103C94.6812 66.3382 94.3762 66.4141 94.1474 66.4141C93.5375 66.4141 93.1562 66.0343 93.1562 65.5026C93.1562 64.9709 93.5375 64.5911 94.0712 64.5911C94.6049 64.5911 94.9861 64.9709 94.9861 65.5026C94.9099 65.5026 94.9099 65.5026 94.9099 65.5786ZM93.385 65.3507H94.6812C94.6812 64.9709 94.3762 64.743 93.995 64.743C93.6137 64.743 93.385 65.0468 93.385 65.3507Z" fill="black"/>
<path d="M96.3593 64.5151V64.743H96.283C95.9018 64.743 95.6731 64.9709 95.6731 65.4267V66.3382H95.4443V64.5151H95.6731V64.8949C95.7493 64.6671 96.0543 64.5151 96.3593 64.5151Z" fill="black"/>
<path d="M14.853 69.4526V70.592H14.6243V70.3641C14.5481 70.592 14.3193 70.668 14.0143 70.668C13.5569 70.668 13.3281 70.4401 13.3281 70.1363C13.3281 69.8324 13.4806 69.6045 14.0143 69.6045H14.6243V69.5286C14.6243 69.2247 14.4718 69.0728 14.0906 69.0728C13.8618 69.0728 13.6331 69.1488 13.4806 69.3007L13.4044 69.1488C13.5569 68.9968 13.8618 68.9209 14.1668 68.9209C14.5481 68.769 14.853 68.9969 14.853 69.4526ZM14.6243 70.0603V69.7565H14.0143C13.6331 69.7565 13.5569 69.9084 13.5569 70.0603C13.5569 70.2882 13.7094 70.4401 14.0143 70.4401C14.3193 70.4401 14.4718 70.2882 14.6243 70.0603Z" fill="black"/>
<path d="M17.2166 68.0093V70.592H16.9879V70.2121C16.8354 70.44 16.6066 70.592 16.3017 70.592C15.768 70.592 15.3867 70.2122 15.3867 69.6804C15.3867 69.1487 15.768 68.7689 16.3017 68.7689C16.6066 68.7689 16.8354 68.9208 16.9879 69.1487V68.0093H17.2166ZM16.9879 69.6804C16.9879 69.2247 16.6829 68.9208 16.3017 68.9208C15.9204 68.9208 15.6154 69.2247 15.6154 69.6804C15.6154 70.1362 15.9204 70.44 16.3017 70.44C16.6829 70.44 16.9879 70.1362 16.9879 69.6804Z" fill="black"/>
<path d="M17.9023 68.1612C17.9023 68.0852 17.9786 68.0093 18.0548 68.0093C18.1311 68.0093 18.2073 68.0852 18.2073 68.1612C18.2073 68.2372 18.1311 68.3131 18.0548 68.3131C17.9786 68.3891 17.9023 68.3131 17.9023 68.1612ZM17.9023 68.7689H18.1311V70.592H17.9023V68.7689Z" fill="black"/>
<path d="M20.8006 69.6806C20.8006 70.2123 20.4193 70.5921 19.8856 70.5921C19.5806 70.5921 19.3519 70.4402 19.1994 70.2123V71.2758H18.9707V68.769H19.1994V69.1488C19.3519 68.921 19.5806 68.769 19.8856 68.769C20.3431 68.769 20.8006 69.1489 20.8006 69.6806ZM20.4956 69.6806C20.4956 69.2248 20.1906 68.921 19.8094 68.921C19.4282 68.921 19.1232 69.2248 19.1232 69.6806C19.1232 70.1363 19.4282 70.4402 19.8094 70.4402C20.1906 70.4402 20.4956 70.1363 20.4956 69.6806Z" fill="black"/>
<path d="M21.2578 68.1612C21.2578 68.0852 21.334 68.0093 21.4103 68.0093C21.4865 68.0093 21.5628 68.0852 21.5628 68.1612C21.5628 68.2372 21.4865 68.3131 21.4103 68.3131C21.334 68.3891 21.2578 68.3131 21.2578 68.1612ZM21.2578 68.7689H21.4865V70.592H21.2578V68.7689Z" fill="black"/>
<path d="M21.9434 70.4402L22.0196 70.2123C22.1721 70.3642 22.4008 70.4402 22.7058 70.4402C23.087 70.4402 23.2395 70.2883 23.2395 70.1363C23.2395 69.6806 22.0196 70.0604 22.0196 69.3008C22.0196 68.9969 22.2483 68.769 22.7821 68.769C23.0108 68.769 23.3158 68.845 23.4683 68.921L23.392 69.1488C23.2395 69.0729 23.0108 68.9969 22.8583 68.9969C22.5533 68.9969 22.4008 69.1489 22.4008 69.3008C22.4008 69.8325 23.6207 69.4527 23.6207 70.1363C23.6207 70.4402 23.3158 70.6681 22.8583 70.6681C22.4008 70.6681 22.0958 70.5921 21.9434 70.4402Z" fill="black"/>
<path d="M23.7734 69.6806C23.7734 69.1489 24.1547 68.769 24.7646 68.769C25.0696 68.769 25.3746 68.921 25.5271 69.1488L25.3746 69.3008C25.2221 69.1489 25.0696 68.9969 24.8409 68.9969C24.4596 68.9969 24.1547 69.3008 24.1547 69.7565C24.1547 70.2123 24.4596 70.5161 24.8409 70.5161C25.0696 70.5161 25.2221 70.4402 25.3746 70.2123L25.5271 70.3642C25.3746 70.5921 25.1458 70.744 24.7646 70.744C24.1547 70.6681 23.7734 70.2883 23.7734 69.6806Z" fill="black"/>
<path d="M25.9082 68.1612C25.9082 68.0852 25.9845 68.0093 26.0607 68.0093C26.1369 68.0093 26.2132 68.0852 26.2132 68.1612C26.2132 68.2372 26.1369 68.3131 26.0607 68.3131C25.9845 68.3891 25.9082 68.3131 25.9082 68.1612ZM25.9845 68.7689H26.2132V70.592H25.9845V68.7689Z" fill="black"/>
<path d="M28.5768 69.5287V70.5922H28.3481V69.6047C28.3481 69.2249 28.1193 68.997 27.8143 68.997C27.4331 68.997 27.1281 69.2249 27.1281 69.6806V70.6681H26.8994V68.8451H27.1281V69.2249C27.2806 68.997 27.5094 68.8451 27.8143 68.8451C28.2718 68.7691 28.5768 68.997 28.5768 69.5287Z" fill="black"/>
<path d="M31.0174 68.7691V70.3643C31.0174 70.972 30.7124 71.2758 30.1024 71.2758C29.7974 71.2758 29.4162 71.1999 29.2637 70.972L29.4162 70.7441C29.5687 70.896 29.8737 70.972 30.1787 70.972C30.6361 70.972 30.8649 70.7441 30.8649 70.2883V70.0605C30.7124 70.2883 30.4074 70.4403 30.1024 70.4403C29.5687 70.4403 29.1875 70.0604 29.1875 69.5287C29.1875 68.997 29.5687 68.6172 30.1024 68.6172C30.4074 68.6172 30.7124 68.7691 30.8649 68.997V68.6172H31.0174V68.7691ZM30.7887 69.6806C30.7887 69.3008 30.4837 68.997 30.1024 68.997C29.7212 68.997 29.4162 69.3008 29.4162 69.6806C29.4162 70.0605 29.7212 70.3643 30.1024 70.3643C30.4837 70.3643 30.7887 70.0605 30.7887 69.6806Z" fill="black"/>
<path d="M34.2956 69.7565H32.7707C32.7707 70.1363 33.0757 70.3642 33.5332 70.3642C33.7619 70.3642 33.9906 70.2883 34.0669 70.1363L34.2194 70.2883C34.0669 70.5161 33.7619 70.5921 33.5332 70.5921C32.9232 70.5921 32.542 70.2123 32.542 69.6806C32.542 69.1489 32.9232 68.769 33.4569 68.769C33.9907 68.769 34.3719 69.1489 34.3719 69.6806C34.2956 69.7565 34.2956 69.7565 34.2956 69.7565ZM32.6945 69.6046H33.9906C33.9906 69.2248 33.6857 68.9969 33.3044 68.9969C32.9995 68.9969 32.7707 69.2248 32.6945 69.6046Z" fill="black"/>
<path d="M34.7529 68.0093H34.9817V70.592H34.7529V68.0093Z" fill="black"/>
<path d="M35.668 68.1612C35.668 68.0852 35.7442 68.0093 35.8204 68.0093C35.8967 68.0093 35.9729 68.0852 35.9729 68.1612C35.9729 68.2372 35.8967 68.3131 35.8204 68.3131C35.7442 68.3891 35.668 68.3131 35.668 68.1612ZM35.7442 68.7689H35.9729V70.592H35.7442V68.7689Z" fill="black"/>
<path d="M37.6506 70.5161C37.5743 70.592 37.4219 70.668 37.2694 70.668C36.8881 70.668 36.7356 70.4401 36.7356 70.1363V68.9968H36.4307V68.769H36.7356V68.3892H36.9644V68.769H37.4981V68.9968H36.9644V70.1363C36.9644 70.3641 37.0406 70.4401 37.2694 70.4401C37.3456 70.4401 37.4981 70.4401 37.5743 70.3641L37.6506 70.5161Z" fill="black"/>
<path d="M38.3363 70.44C38.3363 70.516 38.3363 70.516 38.2601 70.6679L38.1076 71.1237H37.9551L38.1076 70.592C38.0313 70.592 37.9551 70.516 37.9551 70.44C37.9551 70.3641 38.0313 70.2122 38.1076 70.2122C38.26 70.2881 38.3363 70.3641 38.3363 70.44Z" fill="black"/>
<path d="M39.5566 70.4402L39.6329 70.2123C39.7854 70.3642 40.0141 70.4402 40.3191 70.4402C40.7003 70.4402 40.8528 70.2883 40.8528 70.1363C40.8528 69.6806 39.6329 70.0604 39.6329 69.3008C39.6329 68.9969 39.8616 68.769 40.3953 68.769C40.6241 68.769 40.9291 68.845 41.0815 68.921L41.0053 69.1488C40.8528 69.0729 40.6241 68.9969 40.4716 68.9969C40.1666 68.9969 40.0141 69.1489 40.0141 69.3008C40.0141 69.8325 41.234 69.4527 41.234 70.1363C41.234 70.4402 40.929 70.6681 40.4716 70.6681C40.0141 70.6681 39.7091 70.5921 39.5566 70.4402Z" fill="black"/>
<path d="M43.2165 69.7565H41.6916C41.6916 70.1363 41.9966 70.3642 42.4541 70.3642C42.6828 70.3642 42.9115 70.2883 42.9878 70.1363L43.1403 70.2883C42.9878 70.5161 42.6828 70.5921 42.4541 70.5921C41.8441 70.5921 41.4629 70.2123 41.4629 69.6806C41.4629 69.1489 41.8441 68.769 42.3778 68.769C42.9115 68.769 43.2928 69.1489 43.2928 69.6806C43.2165 69.7565 43.2165 69.7565 43.2165 69.7565ZM41.6154 69.6046H42.9115C42.9115 69.2248 42.6066 68.9969 42.2253 68.9969C41.9204 68.9969 41.6916 69.2248 41.6154 69.6046Z" fill="black"/>
<path d="M45.4276 68.0093V70.592H45.1226V70.2121C44.9701 70.44 44.7414 70.592 44.4364 70.592C43.9027 70.592 43.5215 70.2122 43.5215 69.6804C43.5215 69.1487 43.9027 68.7689 44.4364 68.7689C44.7414 68.7689 44.9701 68.9208 45.1226 69.1487V68.0093H45.4276ZM45.1226 69.6804C45.1226 69.2247 44.8177 68.9208 44.4364 68.9208C44.0552 68.9208 43.7502 69.2247 43.7502 69.6804C43.7502 70.1362 44.0552 70.44 44.4364 70.44C44.8177 70.44 45.1226 70.1362 45.1226 69.6804Z" fill="black"/>
<path d="M48.7059 68.0093V70.592H48.4771V70.2121C48.3246 70.44 48.0959 70.592 47.7909 70.592C47.2572 70.592 46.876 70.2122 46.876 69.6804C46.876 69.1487 47.2572 68.7689 47.7909 68.7689C48.0959 68.7689 48.3246 68.9208 48.4771 69.1487V68.0093H48.7059ZM48.4771 69.6804C48.4771 69.2247 48.1722 68.9208 47.7909 68.9208C47.4097 68.9208 47.1047 69.2247 47.1047 69.6804C47.1047 70.1362 47.4097 70.44 47.7909 70.44C48.1722 70.44 48.4771 70.1362 48.4771 69.6804Z" fill="black"/>
<path d="M49.3154 68.1612C49.3154 68.0852 49.3917 68.0093 49.4679 68.0093C49.5442 68.0093 49.6204 68.0852 49.6204 68.1612C49.6204 68.2372 49.5442 68.3131 49.4679 68.3131C49.4679 68.3891 49.3154 68.3131 49.3154 68.1612ZM49.3917 68.7689H49.6204V70.592H49.3917V68.7689Z" fill="black"/>
<path d="M51.7554 69.4526V70.592H51.5266V70.3641C51.4504 70.592 51.2216 70.668 50.9167 70.668C50.4592 70.668 50.2305 70.4401 50.2305 70.1363C50.2305 69.8324 50.383 69.6045 50.9167 69.6045H51.5266V69.5286C51.5266 69.2247 51.3741 69.0728 50.9929 69.0728C50.7642 69.0728 50.5354 69.1488 50.3829 69.3007L50.3067 69.1488C50.4592 68.9968 50.7642 68.9209 51.0691 68.9209C51.5266 68.769 51.7554 68.9969 51.7554 69.4526ZM51.5266 70.0603V69.7565H50.9167C50.5354 69.7565 50.4592 69.9084 50.4592 70.0603C50.4592 70.2882 50.6117 70.4401 50.9167 70.4401C51.2216 70.4401 51.4504 70.2882 51.5266 70.0603Z" fill="black"/>
<path d="M55.4921 69.5287V70.5921H55.2634V69.6046C55.2634 69.2248 55.0346 68.9969 54.7297 68.9969C54.3484 68.9969 54.1197 69.2248 54.1197 69.6806V70.6681H53.891V69.6046C53.891 69.2248 53.6622 68.9969 53.3572 68.9969C52.976 68.9969 52.7473 69.2248 52.7473 69.6806V70.6681H52.5186V68.845H52.7473V69.1488C52.8998 68.921 53.1285 68.769 53.4335 68.769C53.7385 68.769 53.9672 68.921 54.1197 69.1488C54.2722 68.921 54.5009 68.769 54.8821 68.769C55.1871 68.769 55.4921 68.9969 55.4921 69.5287Z" fill="black"/>
<path d="M57.6265 68.921L56.4066 69.3768L57.6265 69.8326V70.1364L56.0254 69.5287V69.2249L57.6265 68.6172V68.921Z" fill="black"/>
<path d="M58.9991 67.7056H59.3041L58.1604 71.0478H57.8555L58.9991 67.7056Z" fill="black"/>
<path d="M61.6672 68.1614V70.5921H61.286V69.5287H59.8373V70.5921H59.4561V68.1614H59.8373V69.2248H61.286V68.1614H61.6672Z" fill="black"/>
<path d="M62.9638 68.1614V70.5921H62.5825V68.4652H62.0488V68.1614H62.9638Z" fill="black"/>
<path d="M65.1744 69.2249V69.5287L63.5732 70.1364V69.8326L64.8694 69.3768L63.5732 68.921V68.6172L65.1744 69.2249Z" fill="black"/>
<path d="M14.9293 77.3527L13.7094 77.8084L14.9293 78.2642V78.568L13.3281 77.9604V77.6565L14.9293 77.0488V77.3527Z" fill="black"/>
<path d="M17.5215 77.5044C17.5215 78.0361 17.1403 78.34 16.4541 78.34H15.8441V79.0996H15.4629V76.6689H16.4541C17.1403 76.5929 17.5215 76.9727 17.5215 77.5044ZM17.1403 77.5044C17.1403 77.1246 16.9115 76.9727 16.4541 76.9727H15.8441V78.1121H16.4541C16.9115 78.0361 17.1403 77.8083 17.1403 77.5044Z" fill="black"/>
<path d="M19.5035 77.7324V78.0363L17.9023 78.644V78.3401L19.1985 77.8844L17.9023 77.4286V77.1248L19.5035 77.7324Z" fill="black"/>
<path d="M22.5533 77.3527L21.3334 77.8084L22.5533 78.2642V78.568L20.9521 77.9604V77.6565L22.5533 77.0488V77.3527Z" fill="black"/>
<path d="M23.1641 76.593H23.5453V79.0238H23.1641V76.593Z" fill="black"/>
<path d="M26.5188 79.0997V77.2766L25.6038 78.7959H25.4514L24.5364 77.2766V79.0997H24.2314V76.6689H24.5364L25.6038 78.416L26.595 76.6689H26.9V79.0997H26.5188Z" fill="black"/>
<path d="M29.3397 77.8084H29.6447V78.7959C29.416 79.0238 29.0347 79.0998 28.7298 79.0998C27.9673 79.0998 27.4336 78.568 27.4336 77.8084C27.4336 77.0488 27.9673 76.5171 28.7298 76.5171C29.111 76.5171 29.4922 76.669 29.6447 76.8969L29.416 77.1248C29.1872 76.8969 28.9585 76.8209 28.7298 76.8209C28.1198 76.8209 27.7386 77.2007 27.7386 77.7325C27.7386 78.2642 28.1198 78.644 28.7298 78.644C28.9585 78.644 29.111 78.568 29.3397 78.4921V77.8084Z" fill="black"/>
<path d="M31.0928 78.7959L31.2452 78.492C31.3977 78.644 31.779 78.7959 32.0839 78.7959C32.5414 78.7959 32.6939 78.644 32.6939 78.4161C32.6939 77.8084 31.169 78.1882 31.169 77.2767C31.169 76.8969 31.474 76.593 32.0839 76.593C32.3889 76.593 32.6939 76.669 32.8464 76.8209L32.6939 77.1247C32.4652 76.9728 32.2364 76.8969 32.0077 76.8969C31.5502 76.8969 31.3977 77.0488 31.3977 77.2767C31.3977 77.8844 32.9226 77.5046 32.9226 78.4161C32.9226 78.7959 32.6177 79.0997 31.9315 79.0997C31.6265 79.0997 31.2453 79.0238 31.0928 78.7959Z" fill="black"/>
<path d="M35.1344 79.0997L34.6007 78.3401C34.5245 78.3401 34.5245 78.3401 34.4482 78.3401H33.8383V79.0997H33.457V76.6689H34.4482C35.0582 76.6689 35.5156 76.9728 35.5156 77.5045C35.5156 77.8843 35.2869 78.1882 34.9819 78.2641L35.5919 79.0997H35.1344ZM35.1344 77.5045C35.1344 77.1247 34.9057 76.9728 34.4482 76.9728H33.8383V78.1122H34.4482C34.9057 78.0362 35.1344 77.8084 35.1344 77.5045Z" fill="black"/>
<path d="M35.8203 77.8844C35.8203 77.1247 36.354 76.593 37.1165 76.593C37.4977 76.593 37.8027 76.7449 38.0314 76.9728L37.8027 77.2007C37.574 76.9728 37.3452 76.8969 37.1165 76.8969C36.5828 76.8969 36.1253 77.2767 36.1253 77.8084C36.1253 78.3401 36.5065 78.7199 37.1165 78.7199C37.4215 78.7199 37.6502 78.644 37.8027 78.4161L38.0314 78.644C37.8027 78.8718 37.4977 79.0238 37.1165 79.0238C36.4303 79.0997 35.8203 78.568 35.8203 77.8844Z" fill="black"/>
<path d="M38.4893 77.2766H40.0904V77.5805H38.4893V77.2766ZM38.4893 78.1122H40.0904V78.416H38.4893V78.1122Z" fill="black"/>
<path d="M41.4629 76.593H41.7679V77.5805H41.5391L41.4629 76.593ZM42.0728 76.593H42.3778V77.5805H42.1491L42.0728 76.593Z" fill="black"/>
<path d="M42.9873 76.593H43.3685V78.7199H44.7409V79.0238H43.0635V76.593H42.9873Z" fill="black"/>
<path d="M44.8174 78.1882C44.8174 77.6565 45.1986 77.2007 45.8086 77.2007C46.3423 77.2007 46.7998 77.5805 46.7998 78.1882C46.7998 78.7199 46.4185 79.1757 45.8086 79.1757C45.2748 79.0997 44.8174 78.7199 44.8174 78.1882ZM46.4185 78.1882C46.4185 77.8084 46.1135 77.5045 45.8086 77.5045C45.4273 77.5045 45.1986 77.7324 45.1986 78.1882C45.1986 78.568 45.5036 78.8718 45.8086 78.8718C46.1898 78.7959 46.4185 78.568 46.4185 78.1882Z" fill="black"/>
<path d="M48.248 77.2007V77.5045H48.1718C47.7906 77.5045 47.5618 77.7324 47.5618 78.1122V79.0237H47.2568V77.2007H47.5618V77.5045C47.7143 77.2766 47.9431 77.2007 48.248 77.2007Z" fill="black"/>
<path d="M50.3837 78.2642H48.8588C48.935 78.568 49.1637 78.7959 49.545 78.7959C49.7737 78.7959 49.9262 78.7199 50.0787 78.568L50.2312 78.7959C50.0787 79.0238 49.7737 79.0997 49.4687 79.0997C48.8588 79.0997 48.4775 78.7199 48.4775 78.1122C48.4775 77.5805 48.8588 77.1248 49.3925 77.1248C49.9262 77.1248 50.3074 77.5046 50.3074 78.1122C50.3837 78.1882 50.3837 78.2642 50.3837 78.2642ZM48.8588 78.0363H50.0787C50.0787 77.7325 49.7737 77.5046 49.4687 77.5046C49.0875 77.5046 48.8588 77.7325 48.8588 78.0363Z" fill="black"/>
<path d="M53.9667 78.0363V79.0997H53.6617V78.0363C53.6617 77.6565 53.5092 77.5045 53.2042 77.5045C52.8992 77.5045 52.6705 77.7324 52.6705 78.1122V79.0997H52.3655V78.0363C52.3655 77.6565 52.213 77.5045 51.908 77.5045C51.6031 77.5045 51.3743 77.7324 51.3743 78.1122V79.0997H51.0693V77.2007H51.3743V77.5045C51.5268 77.2766 51.7556 77.2007 51.9843 77.2007C52.2893 77.2007 52.518 77.2766 52.6705 77.5805C52.823 77.3526 53.0517 77.2007 53.3567 77.2007C53.6617 77.2007 53.9667 77.4286 53.9667 78.0363Z" fill="black"/>
<path d="M55.4912 76.669C55.4912 76.5171 55.5674 76.4412 55.7199 76.4412C55.8724 76.4412 55.9487 76.5171 55.9487 76.669C55.9487 76.821 55.8724 76.8969 55.7199 76.8969C55.5674 76.821 55.4912 76.745 55.4912 76.669ZM55.4912 77.2008H55.7962V79.0998H55.4912V77.2008Z" fill="black"/>
<path d="M58.4647 78.1882C58.4647 78.7959 58.0835 79.1757 57.5498 79.1757C57.321 79.1757 57.0161 79.0997 56.8636 78.8718V79.8593H56.5586V77.2007H56.8636V77.5045C57.0161 77.2766 57.2448 77.2007 57.5498 77.2007C58.0072 77.2007 58.4647 77.5805 58.4647 78.1882ZM58.0835 78.1882C58.0835 77.8084 57.7785 77.5045 57.4735 77.5045C57.0923 77.5045 56.8636 77.7324 56.8636 78.1882C56.8636 78.568 57.1686 78.8718 57.4735 78.8718C57.8548 78.7959 58.0835 78.568 58.0835 78.1882Z" fill="black"/>
<path d="M58.6943 78.8718L58.8468 78.568C58.9993 78.6439 59.2281 78.7959 59.533 78.7959C59.838 78.7959 59.9905 78.7199 59.9905 78.568C59.9905 78.1122 58.7706 78.492 58.7706 77.7324C58.7706 77.4286 59.0756 77.2007 59.533 77.2007C59.7618 77.2007 60.0667 77.2766 60.2192 77.3526L60.0668 77.6565C59.9143 77.5805 59.6855 77.5045 59.533 77.5045C59.2281 77.5045 59.0756 77.5805 59.0756 77.7324C59.0756 78.1882 60.2955 77.8084 60.2955 78.568C60.2955 78.8718 59.9905 79.0997 59.4568 79.0997C59.1518 79.0997 58.8468 79.0237 58.6943 78.8718Z" fill="black"/>
<path d="M62.4304 77.2007V79.0997H62.1254V78.7959C61.9729 79.0237 61.7442 79.0997 61.5155 79.0997C61.058 79.0997 60.6768 78.8718 60.6768 78.2641V77.2007H60.9817V78.2641C60.9817 78.6439 61.1342 78.7959 61.5155 78.7959C61.8967 78.7959 62.1254 78.568 62.1254 78.1882V77.2007H62.4304Z" fill="black"/>
<path d="M66.1659 78.0363V79.0997H65.8609V78.0363C65.8609 77.6565 65.7084 77.5045 65.4034 77.5045C65.0984 77.5045 64.8697 77.7324 64.8697 78.1122V79.0997H64.5647V78.0363C64.5647 77.6565 64.4122 77.5045 64.1073 77.5045C63.8023 77.5045 63.5736 77.7324 63.5736 78.1122V79.0997H63.2686V77.2007H63.5736V77.5045C63.726 77.2766 63.9548 77.2007 64.1835 77.2007C64.4885 77.2007 64.7172 77.2766 64.8697 77.5805C65.0222 77.3526 65.2509 77.2007 65.5559 77.2007C65.8609 77.2007 66.1659 77.4286 66.1659 78.0363Z" fill="black"/>
<path d="M66.6992 76.593H67.0042V77.5805H66.7755L66.6992 76.593ZM67.3854 76.593H67.6904V77.5805H67.4617L67.3854 76.593Z" fill="black"/>
<path d="M69.6734 77.7324V78.0363L68.0723 78.644V78.3401L69.3684 77.8844L68.0723 77.4286V77.1248L69.6734 77.7324Z" fill="black"/>
<path d="M71.732 77.3527L70.5121 77.8084L71.732 78.2642V78.568L70.1309 77.9604V77.6565L71.732 77.0488V77.3527Z" fill="black"/>
<path d="M73.0284 76.1372H73.3334L72.1897 79.4795H71.8848L73.0284 76.1372Z" fill="black"/>
<path d="M75.6201 77.5044C75.6201 78.0361 75.2389 78.34 74.5527 78.34H73.9427V79.0996H73.5615V76.6689H74.5527C75.2389 76.5929 75.6201 76.9727 75.6201 77.5044ZM75.2389 77.5044C75.2389 77.1246 75.0102 76.9727 74.5527 76.9727H73.9427V78.1121H74.5527C75.0102 78.0361 75.2389 77.8083 75.2389 77.5044Z" fill="black"/>
<path d="M77.6031 77.7324V78.0363L76.002 78.644V78.3401L77.2981 77.8844L76.002 77.4286V77.1248L77.6031 77.7324Z" fill="black"/>
<path d="M14.9293 85.7843L13.7094 86.2401L14.9293 86.6958V86.9997L13.3281 86.392V86.0882L14.9293 85.4805V85.7843Z" fill="black"/>
<path d="M16.2257 84.5688H16.5307L15.387 87.9111H15.082L16.2257 84.5688Z" fill="black"/>
<path d="M18.8936 86.8477C18.8936 87.3035 18.5886 87.5313 17.9786 87.5313H16.835V85.1006H17.9786C18.5124 85.1006 18.8936 85.3285 18.8936 85.7083C18.8936 86.0121 18.7411 86.164 18.5886 86.24C18.7411 86.316 18.8936 86.5438 18.8936 86.8477ZM17.1399 85.3285V86.0881H17.9024C18.2836 86.0881 18.4361 85.9362 18.4361 85.7083C18.4361 85.4804 18.2074 85.3285 17.9024 85.3285H17.1399ZM18.5124 86.8477C18.5124 86.5438 18.2836 86.4679 17.9024 86.4679H17.0637V87.3035H17.9024C18.3599 87.2275 18.5124 87.1515 18.5124 86.8477Z" fill="black"/>
<path d="M19.2754 86.316C19.2754 85.5564 19.8091 85.0247 20.5715 85.0247C21.334 85.0247 21.8677 85.5564 21.8677 86.316C21.8677 87.0756 21.334 87.6073 20.5715 87.6073C19.8091 87.5314 19.2754 86.9996 19.2754 86.316ZM21.5627 86.316C21.5627 85.7843 21.1815 85.4045 20.5715 85.4045C20.0378 85.4045 19.5804 85.7843 19.5804 86.316C19.5804 86.8477 19.9616 87.2275 20.5715 87.2275C21.1053 87.2275 21.5627 86.8477 21.5627 86.316Z" fill="black"/>
<path d="M22.4014 85.1006H23.4688C24.2312 85.1006 24.8412 85.6323 24.8412 86.316C24.8412 86.9996 24.3075 87.5313 23.4688 87.5313H22.4014V85.1006ZM23.4688 87.2275C24.0788 87.2275 24.46 86.8477 24.46 86.316C24.46 85.7842 24.0788 85.4044 23.4688 85.4044H22.7826V87.2275H23.4688Z" fill="black"/>
<path d="M26.2132 86.6958V87.5313H25.832V86.6958L24.8408 85.1006H25.222L25.9845 86.3919L26.7469 85.1006H27.1282L26.2132 86.6958Z" fill="black"/>
<path d="M28.9585 86.1641V86.4679L27.3574 87.0756V86.7718L28.6536 86.316L27.3574 85.8602V85.5564L28.9585 86.1641Z" fill="black"/>
<path d="M110.083 19.774C110.083 19.85 85.6088 20.0019 55.4157 20.0019C25.2227 20.0019 0.748047 19.9259 0.748047 19.774C0.748047 19.6981 25.2227 19.5461 55.4157 19.5461C85.6088 19.6221 110.083 19.6981 110.083 19.774Z" fill="#263238"/>
<path d="M4.02573 15.9002C4.02573 16.28 3.72076 16.5838 3.33953 16.5838C2.95831 16.5838 2.65332 16.28 2.65332 15.9002C2.65332 15.5204 2.95831 15.2166 3.33953 15.2166C3.72076 15.2166 4.02573 15.5204 4.02573 15.9002Z" fill="#263238"/>
<path d="M6.00849 16.5838C6.38747 16.5838 6.69469 16.2778 6.69469 15.9002C6.69469 15.5226 6.38747 15.2166 6.00849 15.2166C5.62951 15.2166 5.32227 15.5226 5.32227 15.9002C5.32227 16.2778 5.62951 16.5838 6.00849 16.5838Z" fill="#263238"/>
<path d="M9.43883 15.9002C9.43883 16.28 9.13383 16.5838 8.75261 16.5838C8.37138 16.5838 8.06641 16.28 8.06641 15.9002C8.06641 15.5204 8.37138 15.2166 8.75261 15.2166C9.13383 15.2166 9.43883 15.5204 9.43883 15.9002Z" fill="#263238"/>
<path d="M7.68576 102.192C7.60951 102.192 7.45703 83.7333 7.45703 60.945C7.45703 38.1567 7.53327 19.6982 7.68576 19.6982C7.83825 19.6982 7.91451 38.1567 7.91451 60.945C7.91451 83.6573 7.762 102.192 7.68576 102.192Z" fill="#E0E0E0"/>
</svg>
