<svg width="97" height="539" viewBox="0 0 97 539" fill="none" xmlns="http://www.w3.org/2000/svg">
<path opacity="0.06" d="M15.7 496.63L17.5023 495.763L16.9573 494.63L15.7 494.63L15.7 496.63ZM20.64 506.9L19.517 508.555L25.6607 512.724L22.4423 506.033L20.64 506.9ZM17 504.43L17 502.43L10.4907 502.43L15.877 506.085L17 504.43ZM81.35 504.43L82.501 506.066L87.6674 502.43L81.35 502.43L81.35 504.43ZM77.84 506.9L75.9863 506.149L73.4363 512.444L78.991 508.536L77.84 506.9ZM82 496.63L82 494.63L80.6523 494.63L80.1463 495.879L82 496.63ZM95 496.63L97 496.63L97 494.63L95 494.63L95 496.63ZM95 538.88L95 540.88L97 540.88L97 538.88L95 538.88ZM82 538.88L80.1447 539.627L80.6492 540.88L82 540.88L82 538.88ZM77.97 528.87L79.0645 527.196L73.7379 523.713L76.1147 529.617L77.97 528.87ZM81.35 531.08L81.35 533.08L88.0635 533.08L82.4445 529.406L81.35 531.08ZM17 531.08L15.7249 529.539L11.4464 533.08L17 533.08L17 531.08ZM20.77 527.96L22.6239 528.71L19.4949 526.419L20.77 527.96ZM16.35 538.88L16.35 540.88L17.6981 540.88L18.2039 539.63L16.35 538.88ZM3.34999 538.88L1.35023 538.911L1.38053 540.88L3.34999 540.88L3.34999 538.88ZM2.69999 496.63L2.69999 494.63L0.668987 494.63L0.70023 496.661L2.69999 496.63ZM13.8977 497.497L18.8377 507.767L22.4423 506.033L17.5023 495.763L13.8977 497.497ZM21.763 505.245L18.123 502.775L15.877 506.085L19.517 508.555L21.763 505.245ZM17 506.43L81.35 506.43L81.35 502.43L17 502.43L17 506.43ZM80.199 502.794L76.689 505.264L78.991 508.536L82.501 506.066L80.199 502.794ZM79.6937 507.651L83.8537 497.381L80.1463 495.879L75.9863 506.149L79.6937 507.651ZM82 498.63L95 498.63L95 494.63L82 494.63L82 498.63ZM93 496.63L93 538.88L97 538.88L97 496.63L93 496.63ZM95 536.88L82 536.88L82 540.88L95 540.88L95 536.88ZM83.8553 538.133L79.8253 528.123L76.1147 529.617L80.1447 539.627L83.8553 538.133ZM76.8755 530.544L80.2555 532.754L82.4445 529.406L79.0645 527.196L76.8755 530.544ZM81.35 529.08L17 529.08L17 533.08L81.35 533.08L81.35 529.08ZM18.2751 532.621L22.0451 529.501L19.4949 526.419L15.7249 529.539L18.2751 532.621ZM18.9161 527.21L14.4961 538.13L18.2039 539.63L22.6239 528.71L18.9161 527.21ZM16.35 536.88L3.34999 536.88L3.34999 540.88L16.35 540.88L16.35 536.88ZM5.34976 538.849L4.69976 496.599L0.70023 496.661L1.35023 538.911L5.34976 538.849ZM2.69999 498.63L15.7 498.63L15.7 494.63L2.69999 494.63L2.69999 498.63ZM95 463.425L95 465.425L97 465.425L97 463.425L95 463.425ZM82 463.425L80.1026 464.058L80.5585 465.425L82 465.425L82 463.425ZM77.45 449.775L78.5969 448.137L73.6388 444.666L75.5526 450.408L77.45 449.775ZM83.95 454.325L83.95 456.325L90.2947 456.325L85.0969 452.687L83.95 454.325ZM17.65 454.325L16.05 453.125L13.65 456.325L17.65 456.325L17.65 454.325ZM21.55 449.125L23.55 449.125L23.55 443.125L19.95 447.925L21.55 449.125ZM21.55 466.675L20.0364 467.982L23.55 472.051L23.55 466.675L21.55 466.675ZM16.61 460.955L17.1023 459.017L10.9421 457.452L15.0963 462.262L16.61 460.955ZM32.99 465.115L34.99 465.115L34.99 463.56L33.4823 463.177L32.99 465.115ZM32.99 480.715L32.99 482.715L34.99 482.715L34.99 480.715L32.99 480.715ZM2.69999 480.715L0.699992 480.715L0.699992 482.715L2.69999 482.715L2.69999 480.715ZM2.69999 401.285L2.69999 399.285L0.699989 399.285L0.699989 401.285L2.69999 401.285ZM32.99 401.285L34.99 401.285L34.99 399.285L32.99 399.285L32.99 401.285ZM32.99 416.885L33.4828 418.823L34.99 418.44L34.99 416.885L32.99 416.885ZM17.65 420.785L16.0225 419.623L12.8457 424.07L18.1428 422.723L17.65 420.785ZM21.55 415.325L23.55 415.325L23.55 409.084L19.9225 414.163L21.55 415.325ZM21.55 432.875L19.95 434.075L23.55 438.875L23.55 432.875L21.55 432.875ZM17.65 427.675L17.65 425.675L13.65 425.675L16.05 428.875L17.65 427.675ZM83.95 427.675L85.0517 429.344L90.6111 425.675L83.95 425.675L83.95 427.675ZM77.45 431.965L75.5563 431.322L73.6773 436.851L78.5517 433.634L77.45 431.965ZM82 418.575L82 416.575L80.5673 416.575L80.1063 417.932L82 418.575ZM95 418.575L97 418.575L97 416.575L95 416.575L95 418.575ZM95 461.425L82 461.425L82 465.425L95 465.425L95 461.425ZM83.8974 462.793L79.3474 449.143L75.5526 450.408L80.1026 464.058L83.8974 462.793ZM76.3031 451.414L82.8031 455.964L85.0969 452.687L78.5969 448.137L76.3031 451.414ZM83.95 452.325L17.65 452.325L17.65 456.325L83.95 456.325L83.95 452.325ZM19.25 455.525L23.15 450.325L19.95 447.925L16.05 453.125L19.25 455.525ZM19.55 449.125L19.55 466.675L23.55 466.675L23.55 449.125L19.55 449.125ZM23.0636 465.368L18.1236 459.648L15.0963 462.262L20.0364 467.982L23.0636 465.368ZM16.1177 462.894L32.4977 467.054L33.4823 463.177L17.1023 459.017L16.1177 462.894ZM30.99 465.115L30.99 480.715L34.99 480.715L34.99 465.115L30.99 465.115ZM32.99 478.715L2.69999 478.715L2.69999 482.715L32.99 482.715L32.99 478.715ZM4.69999 480.715L4.69999 401.285L0.699989 401.285L0.699992 480.715L4.69999 480.715ZM2.69999 403.285L32.99 403.285L32.99 399.285L2.69999 399.285L2.69999 403.285ZM30.99 401.285L30.99 416.885L34.99 416.885L34.99 401.285L30.99 401.285ZM32.4972 414.947L17.1572 418.847L18.1428 422.723L33.4828 418.823L32.4972 414.947ZM19.2775 421.948L23.1775 416.488L19.9225 414.163L16.0225 419.623L19.2775 421.948ZM19.55 415.325L19.55 432.875L23.55 432.875L23.55 415.325L19.55 415.325ZM23.15 431.675L19.25 426.475L16.05 428.875L19.95 434.075L23.15 431.675ZM17.65 429.675L83.95 429.675L83.95 425.675L17.65 425.675L17.65 429.675ZM82.8483 426.006L76.3483 430.296L78.5517 433.634L85.0517 429.344L82.8483 426.006ZM79.3437 432.609L83.8936 419.219L80.1063 417.932L75.5563 431.322L79.3437 432.609ZM82 420.575L95 420.575L95 416.575L82 416.575L82 420.575ZM93 418.575L93 463.425L97 463.425L97 418.575L93 418.575ZM15.7 343.169L17.5023 342.302L16.9573 341.169L15.7 341.169L15.7 343.169ZM20.64 353.439L19.517 355.094L25.6607 359.263L22.4423 352.572L20.64 353.439ZM17 350.969L17 348.969L10.4907 348.969L15.877 352.624L17 350.969ZM81.35 350.969L82.501 352.605L87.6674 348.969L81.35 348.969L81.35 350.969ZM77.84 353.439L75.9863 352.688L73.4363 358.984L78.991 355.075L77.84 353.439ZM82 343.169L82 341.169L80.6523 341.169L80.1463 342.418L82 343.169ZM95 343.169L97 343.169L97 341.169L95 341.169L95 343.169ZM95 385.419L95 387.419L97 387.419L97 385.419L95 385.419ZM82 385.419L80.1447 386.166L80.6492 387.419L82 387.419L82 385.419ZM77.97 375.409L79.0645 373.735L73.7379 370.252L76.1147 376.156L77.97 375.409ZM81.35 377.619L81.35 379.619L88.0635 379.619L82.4445 375.945L81.35 377.619ZM17 377.619L15.7249 376.078L11.4464 379.619L17 379.619L17 377.619ZM20.77 374.499L22.6239 375.249L19.4949 372.958L20.77 374.499ZM16.35 385.419L16.35 387.419L17.6981 387.419L18.2039 386.169L16.35 385.419ZM3.34999 385.419L1.35022 385.45L1.38052 387.419L3.34999 387.419L3.34999 385.419ZM2.69999 343.169L2.69999 341.169L0.66898 341.169L0.700223 343.2L2.69999 343.169ZM13.8977 344.036L18.8377 354.306L22.4423 352.572L17.5023 342.302L13.8977 344.036ZM21.763 351.784L18.123 349.314L15.877 352.624L19.517 355.094L21.763 351.784ZM17 352.969L81.35 352.969L81.35 348.969L17 348.969L17 352.969ZM80.199 349.333L76.689 351.803L78.991 355.075L82.501 352.605L80.199 349.333ZM79.6937 354.19L83.8537 343.92L80.1463 342.418L75.9863 352.688L79.6937 354.19ZM82 345.169L95 345.169L95 341.169L82 341.169L82 345.169ZM93 343.169L93 385.419L97 385.419L97 343.169L93 343.169ZM95 383.419L82 383.419L82 387.419L95 387.419L95 383.419ZM83.8553 384.672L79.8253 374.662L76.1147 376.156L80.1447 386.166L83.8553 384.672ZM76.8755 377.083L80.2555 379.293L82.4445 375.945L79.0645 373.735L76.8755 377.083ZM81.35 375.619L17 375.619L17 379.619L81.35 379.619L81.35 375.619ZM18.2751 379.16L22.0451 376.04L19.4949 372.958L15.7249 376.078L18.2751 379.16ZM18.9161 373.749L14.4961 384.669L18.2039 386.169L22.6239 375.249L18.9161 373.749ZM16.35 383.419L3.34999 383.419L3.34999 387.419L16.35 387.419L16.35 383.419ZM5.34975 385.388L4.69975 343.138L0.700223 343.2L1.35022 385.45L5.34975 385.388ZM2.69999 345.169L15.7 345.169L15.7 341.169L2.69999 341.169L2.69999 345.169ZM95 323.923L95 325.923L97 325.923L97 323.923L95 323.923ZM82 323.923L80.1463 324.674L80.6523 325.923L82 325.923L82 323.923ZM77.84 313.653L78.991 312.017L73.4363 308.108L75.9863 314.404L77.84 313.653ZM81.35 316.123L81.35 318.123L87.6674 318.123L82.501 314.487L81.35 316.123ZM15.7 316.123L14.5616 314.479L9.29746 318.123L15.7 318.123L15.7 316.123ZM20.77 312.613L22.6328 313.341L25.017 307.24L19.6316 310.969L20.77 312.613ZM16.35 323.923L16.35 325.923L17.7157 325.923L18.2128 324.651L16.35 323.923ZM3.34999 323.923L1.35036 323.961L1.38808 325.923L3.34999 325.923L3.34999 323.923ZM2.69998 290.123L0.699984 290.123L0.699984 290.142L0.700354 290.161L2.69998 290.123ZM2.69998 255.803L2.69023 253.803L0.699982 253.813L0.699983 255.803L2.69998 255.803ZM29.35 255.673L31.35 255.673L31.35 253.663L29.3402 253.673L29.35 255.673ZM29.35 271.273L29.8865 273.2L31.35 272.792L31.35 271.273L29.35 271.273ZM19.08 274.133L17.3223 273.179L15.0712 277.325L19.6165 276.06L19.08 274.133ZM21.55 269.583L23.55 269.583L19.7923 268.629L21.55 269.583ZM21.55 293.373L20.1358 294.787L23.55 298.201L23.55 293.373L21.55 293.373ZM17.65 289.473L17.65 287.473L12.8216 287.473L16.2358 290.887L17.65 289.473ZM42.61 289.473L44.0966 290.811L47.1007 287.473L42.61 287.473L42.61 289.473ZM39.1 293.373L37.1 293.373L37.1 298.585L40.5866 294.711L39.1 293.373ZM39.1 266.073L39.1 264.073L37.1 264.073L37.1 266.073L39.1 266.073ZM57.95 266.073L59.95 266.073L59.95 264.073L57.95 264.073L57.95 266.073ZM57.95 293.373L56.5358 294.787L59.95 298.201L59.95 293.373L57.95 293.373ZM54.05 289.473L54.05 287.473L49.2216 287.473L52.6358 290.887L54.05 289.473ZM81.35 289.473L82.6469 290.995L86.782 287.473L81.35 287.473L81.35 289.473ZM77.84 292.463L75.9388 291.842L73.7369 298.585L79.1369 293.985L77.84 292.463ZM82 279.723L82 277.723L80.5491 277.723L80.0988 279.102L82 279.723ZM95 279.723L97 279.723L97 277.723L95 277.723L95 279.723ZM95 321.923L82 321.923L82 325.923L95 325.923L95 321.923ZM83.8537 323.172L79.6937 312.902L75.9863 314.404L80.1463 324.674L83.8537 323.172ZM76.689 315.289L80.199 317.759L82.501 314.487L78.991 312.017L76.689 315.289ZM81.35 314.123L15.7 314.123L15.7 318.123L81.35 318.123L81.35 314.123ZM16.8384 317.767L21.9084 314.257L19.6316 310.969L14.5616 314.479L16.8384 317.767ZM18.9072 311.885L14.4872 323.195L18.2128 324.651L22.6328 313.341L18.9072 311.885ZM16.35 321.923L3.34999 321.923L3.34999 325.923L16.35 325.923L16.35 321.923ZM5.34962 323.885L4.69961 290.085L0.700354 290.161L1.35036 323.961L5.34962 323.885ZM4.69998 290.123L4.69998 255.803L0.699983 255.803L0.699984 290.123L4.69998 290.123ZM2.70974 257.803L29.3597 257.673L29.3402 253.673L2.69023 253.803L2.70974 257.803ZM27.35 255.673L27.35 271.273L31.35 271.273L31.35 255.673L27.35 255.673ZM28.8134 269.346L18.5434 272.206L19.6165 276.06L29.8865 273.2L28.8134 269.346ZM20.8377 275.087L23.3077 270.537L19.7923 268.629L17.3223 273.179L20.8377 275.087ZM19.55 269.583L19.55 293.373L23.55 293.373L23.55 269.583L19.55 269.583ZM22.9642 291.959L19.0642 288.059L16.2358 290.887L20.1358 294.787L22.9642 291.959ZM17.65 291.473L42.61 291.473L42.61 287.473L17.65 287.473L17.65 291.473ZM41.1234 288.135L37.6134 292.035L40.5866 294.711L44.0966 290.811L41.1234 288.135ZM41.1 293.373L41.1 266.073L37.1 266.073L37.1 293.373L41.1 293.373ZM39.1 268.073L57.95 268.073L57.95 264.073L39.1 264.073L39.1 268.073ZM55.95 266.073L55.95 293.373L59.95 293.373L59.95 266.073L55.95 266.073ZM59.3642 291.959L55.4642 288.059L52.6358 290.887L56.5358 294.787L59.3642 291.959ZM54.05 291.473L81.35 291.473L81.35 287.473L54.05 287.473L54.05 291.473ZM80.0531 287.95L76.5431 290.94L79.1369 293.985L82.6469 290.995L80.0531 287.95ZM79.7412 293.084L83.9012 280.344L80.0988 279.102L75.9388 291.842L79.7412 293.084ZM82 281.723L95 281.723L95 277.723L82 277.723L82 281.723ZM93 279.723L93 323.923L97 323.923L97 279.723L93 279.723ZM15.7 197.96L17.5023 197.093L16.9573 195.96L15.7 195.96L15.7 197.96ZM20.64 208.23L19.517 209.885L25.6607 214.054L22.4423 207.363L20.64 208.23ZM17 205.76L17 203.76L10.4907 203.76L15.877 207.415L17 205.76ZM81.35 205.76L82.501 207.396L87.6674 203.76L81.35 203.76L81.35 205.76ZM77.84 208.23L75.9863 207.479L73.4363 213.775L78.991 209.866L77.84 208.23ZM82 197.96L82 195.96L80.6523 195.96L80.1463 197.209L82 197.96ZM95 197.96L97 197.96L97 195.96L95 195.96L95 197.96ZM95 240.21L95 242.21L97 242.21L97 240.21L95 240.21ZM82 240.21L80.1447 240.957L80.6492 242.21L82 242.21L82 240.21ZM77.97 230.2L79.0645 228.526L73.7379 225.043L76.1147 230.947L77.97 230.2ZM81.35 232.41L81.35 234.41L88.0635 234.41L82.4445 230.736L81.35 232.41ZM17 232.41L15.7248 230.869L11.4464 234.41L17 234.41L17 232.41ZM20.77 229.29L22.6239 230.04L19.4948 227.749L20.77 229.29ZM16.35 240.21L16.35 242.21L17.6981 242.21L18.2039 240.96L16.35 240.21ZM3.34998 240.21L1.35022 240.241L1.38051 242.21L3.34998 242.21L3.34998 240.21ZM2.69998 197.96L2.69998 195.96L0.668974 195.96L0.700217 197.991L2.69998 197.96ZM13.8976 198.827L18.8376 209.097L22.4423 207.363L17.5023 197.093L13.8976 198.827ZM21.763 206.575L18.123 204.105L15.877 207.415L19.517 209.885L21.763 206.575ZM17 207.76L81.35 207.76L81.35 203.76L17 203.76L17 207.76ZM80.199 204.124L76.689 206.594L78.991 209.866L82.501 207.396L80.199 204.124ZM79.6937 208.981L83.8537 198.711L80.1463 197.209L75.9863 207.479L79.6937 208.981ZM82 199.96L95 199.96L95 195.96L82 195.96L82 199.96ZM93 197.96L93 240.21L97 240.21L97 197.96L93 197.96ZM95 238.21L82 238.21L82 242.21L95 242.21L95 238.21ZM83.8553 239.463L79.8253 229.453L76.1147 230.947L80.1447 240.957L83.8553 239.463ZM76.8755 231.874L80.2555 234.084L82.4445 230.736L79.0645 228.526L76.8755 231.874ZM81.35 230.41L17 230.41L17 234.41L81.35 234.41L81.35 230.41ZM18.2751 233.951L22.0451 230.831L19.4948 227.749L15.7248 230.869L18.2751 233.951ZM18.9161 228.54L14.4961 239.46L18.2039 240.96L22.6239 230.04L18.9161 228.54ZM16.35 238.21L3.34998 238.21L3.34998 242.21L16.35 242.21L16.35 238.21ZM5.34974 240.179L4.69974 197.929L0.700217 197.991L1.35022 240.241L5.34974 240.179ZM2.69998 199.96L15.7 199.96L15.7 195.96L2.69998 195.96L2.69998 199.96ZM91.75 158.824L93.4758 159.835L93.4842 159.82L93.4925 159.806L91.75 158.824ZM75.89 173.514L76.8017 175.294L76.8148 175.287L76.8278 175.28L75.89 173.514ZM23.24 173.644L22.3627 175.441L23.24 173.644ZM6.59998 158.564L8.32503 157.552L8.32004 157.543L8.31497 157.535L6.59998 158.564ZM2.56998 120.864L4.51026 121.349L4.51436 121.333L4.51817 121.316L2.56998 120.864ZM7.76998 105.004L7.8782 103.007L6.45757 102.93L5.91889 104.247L7.76998 105.004ZM34.16 106.434L36.16 106.434L36.16 104.539L34.2682 104.437L34.16 106.434ZM34.16 122.034L34.6979 123.96L36.16 123.552L36.16 122.034L34.16 122.034ZM19.73 126.064L18.2303 124.741L13.7591 129.808L20.2679 127.99L19.73 126.064ZM23.63 121.644L25.5 122.353L22.1303 120.321L23.63 121.644ZM21.55 128.534L23.5043 128.959L23.5062 128.95L23.5079 128.942L21.55 128.534ZM23.89 143.614L22.3675 144.911L23.89 143.614ZM32.6 148.814L32.0333 150.732L32.0478 150.736L32.0624 150.74L32.6 148.814ZM63.15 148.164L63.7824 150.061L63.805 150.054L63.8274 150.046L63.15 148.164ZM72.77 141.664L74.37 142.864L74.3822 142.848L74.394 142.831L72.77 141.664ZM74.07 123.074L75.9569 122.411L75.949 122.389L75.9405 122.366L74.07 123.074ZM68.74 113.064L67.6747 111.371L65.9269 112.471L67.0823 114.183L68.74 113.064ZM83.82 103.574L85.4026 102.351L84.292 100.914L82.7547 101.881L83.82 103.574ZM93.7 121.124L91.8196 121.805L93.7 121.124ZM94.95 138.674C94.95 145.621 93.3 151.998 90.0075 157.842L93.4925 159.806C97.1333 153.343 98.95 146.287 98.95 138.674L94.95 138.674ZM90.0242 157.813C86.682 163.519 81.6884 168.171 74.9522 171.747L76.8278 175.28C84.1316 171.403 89.7113 166.262 93.4758 159.835L90.0242 157.813ZM74.9782 171.734C68.2301 175.19 59.7249 176.974 49.37 176.974L49.37 180.974C60.1617 180.974 69.3365 179.118 76.8017 175.294L74.9782 171.734ZM49.37 176.974C39.4594 176.974 31.0641 175.237 24.1172 171.847L22.3627 175.441C29.9759 179.157 39.0006 180.974 49.37 180.974L49.37 176.974ZM24.1172 171.847C17.1632 168.452 11.9241 163.687 8.32503 157.552L4.87493 159.576C8.90251 166.441 14.7568 171.729 22.3627 175.441L24.1172 171.847ZM8.31497 157.535C4.63231 151.397 2.74998 144.053 2.74998 135.424L-1.25002 135.424C-1.25002 144.648 0.767651 152.731 4.885 159.593L8.31497 157.535ZM2.74998 135.424C2.74998 130.739 3.33537 126.049 4.51026 121.349L0.629693 120.379C-0.622075 125.386 -1.25002 130.402 -1.25002 135.424L2.74998 135.424ZM4.51817 121.316C5.61574 116.588 7.31234 111.405 9.62107 105.761L5.91889 104.247C3.54762 110.043 1.77755 115.433 0.621785 120.412L4.51817 121.316ZM7.66177 107.001L34.0518 108.431L34.2682 104.437L7.8782 103.007L7.66177 107.001ZM32.16 106.434L32.16 122.034L36.16 122.034L36.16 106.434L32.16 106.434ZM33.622 120.108L19.192 124.138L20.2679 127.99L34.6979 123.96L33.622 120.108ZM21.2296 127.387L25.1297 122.967L22.1303 120.321L18.2303 124.741L21.2296 127.387ZM21.76 120.935C20.7787 123.522 20.0515 125.921 19.592 128.126L23.5079 128.942C23.9152 126.987 24.5746 124.793 25.5 122.353L21.76 120.935ZM19.5956 128.109C19.1355 130.226 18.9 132.275 18.9 134.254L22.9 134.254C22.9 132.593 23.0978 130.829 23.5043 128.959L19.5956 128.109ZM18.9 134.254C18.9 138.498 19.9904 142.12 22.3675 144.911L25.4125 142.317C23.8029 140.428 22.9 137.81 22.9 134.254L18.9 134.254ZM22.3675 144.911C24.6766 147.622 27.9558 149.527 32.0333 150.732L33.1667 146.896C29.6175 145.847 27.09 144.286 25.4125 142.317L22.3675 144.911ZM32.0624 150.74C36.0171 151.844 40.7598 152.374 46.25 152.374L46.25 148.374C40.9935 148.374 36.6362 147.864 33.1376 146.888L32.0624 150.74ZM46.25 152.374C53.2204 152.374 59.087 151.626 63.7824 150.061L62.5175 146.267C58.373 147.648 52.9729 148.374 46.25 148.374L46.25 152.374ZM63.8274 150.046C68.4099 148.396 71.9901 146.037 74.37 142.864L71.17 140.464C69.3898 142.837 66.5567 144.812 62.4725 146.282L63.8274 150.046ZM74.394 142.831C76.6483 139.695 77.76 136.074 77.76 132.044L73.76 132.044C73.76 135.294 72.8783 138.086 71.1459 140.497L74.394 142.831ZM77.76 132.044C77.76 129 77.1421 125.784 75.9569 122.411L72.1831 123.737C73.2512 126.777 73.76 129.541 73.76 132.044L77.76 132.044ZM75.9405 122.366C74.662 118.987 72.8061 115.513 70.3977 111.945L67.0823 114.183C69.3538 117.548 71.0513 120.747 72.1994 123.782L75.9405 122.366ZM69.8052 114.757L84.8852 105.267L82.7547 101.881L67.6747 111.371L69.8052 114.757ZM82.2374 104.797C86.5477 110.375 89.7324 116.045 91.8196 121.805L95.5804 120.443C93.3342 114.243 89.9323 108.213 85.4026 102.351L82.2374 104.797ZM91.8196 121.805C93.9159 127.591 94.95 133.211 94.95 138.674L98.95 138.674C98.95 132.697 97.8174 126.617 95.5804 120.443L91.8196 121.805ZM91.62 69.3017L93.3413 70.32L93.3498 70.3058L93.358 70.2914L91.62 69.3017ZM75.76 83.3417L76.5723 85.1693L76.5859 85.1633L76.5995 85.157L75.76 83.3417ZM28.83 85.0317L28.1975 86.9291L28.2056 86.9318L28.2136 86.9344L28.83 85.0317ZM13.23 76.0617L14.5979 74.6026L13.23 76.0617ZM3.86997 62.0217L1.99729 62.724L2.001 62.7337L3.86997 62.0217ZM3.86997 24.7117L5.73113 25.444L5.73511 25.4337L3.86997 24.7117ZM12.97 11.3217L14.3007 12.8148L14.3178 12.7995L14.3346 12.7838L12.97 11.3217ZM27.4 3.13171L28.0064 5.03753L28.0194 5.03338L28.0324 5.02905L27.4 3.13171ZM73.55 5.86169L72.6638 7.65466L72.6723 7.65887L73.55 5.86169ZM90.84 21.5917L92.5588 20.5691L90.84 21.5917ZM74.46 36.1517L72.7959 37.2611L72.8056 37.2757L72.8156 37.2901L74.46 36.1517ZM65.88 30.8217L65.2834 32.7307L65.3017 32.7364L65.32 32.7417L65.88 30.8217ZM31.56 30.5617L32.0648 32.4969L32.09 32.4904L32.1151 32.4832L31.56 30.5617ZM23.24 52.6617L24.9139 51.5672L24.8994 51.5451L24.8844 51.5233L23.24 52.6617ZM31.56 57.7317L31.0268 59.6593L31.0268 59.6593L31.56 57.7317ZM65.62 57.9917L66.0851 59.9369L66.105 59.9321L66.1248 59.9269L65.62 57.9917ZM74.2 53.1817L72.6382 51.9323L74.2 53.1817ZM94.95 46.4217C94.95 55.1753 93.225 62.4413 89.882 68.312L93.358 70.2914C97.1216 63.6821 98.95 55.6948 98.95 46.4217L94.95 46.4217ZM89.8986 68.2834C86.4794 74.0635 81.5124 78.4777 74.9204 81.5265L76.5995 85.157C83.8742 81.7924 89.4806 76.8466 93.3413 70.32L89.8986 68.2834ZM74.9477 81.5141C68.2474 84.492 60.0465 86.0217 50.28 86.0217L50.28 90.0217C60.4468 90.0217 69.2326 88.4314 76.5723 85.1693L74.9477 81.5141ZM50.28 86.0217C42.2908 86.0217 35.3567 85.0437 29.4463 83.1291L28.2136 86.9344C34.61 89.0064 41.9758 90.0217 50.28 90.0217L50.28 86.0217ZM29.4624 83.1343C23.4545 81.1317 18.5172 78.2771 14.5979 74.6026L11.8621 77.5208C16.2627 81.6464 21.7255 84.7718 28.1975 86.9291L29.4624 83.1343ZM14.5979 74.6026C10.665 70.9156 7.71357 66.4931 5.73895 61.3097L2.001 62.7337C4.18638 68.4703 7.47492 73.4078 11.8621 77.5208L14.5979 74.6026ZM5.74263 61.3195C3.76083 56.0347 2.74997 49.9953 2.74997 43.1717L-1.25003 43.1717C-1.25003 50.3882 -0.180884 56.9154 1.99732 62.724L5.74263 61.3195ZM2.74997 43.1717C2.74997 36.3452 3.76168 30.4496 5.73111 25.444L2.00884 23.9795C-0.181734 29.5472 -1.25003 35.9582 -1.25003 43.1717L2.74997 43.1717ZM5.73511 25.4337C7.70987 20.3322 10.5692 16.1407 14.3007 12.8148L11.6392 9.82867C7.39742 13.6094 4.19008 18.3445 2.00484 23.9897L5.73511 25.4337ZM14.3346 12.7838C17.9922 9.37012 22.5333 6.77899 28.0064 5.03753L26.7936 1.22583C20.8266 3.12445 15.7478 5.99335 11.6053 9.85962L14.3346 12.7838ZM28.0324 5.02905C33.5113 3.20282 39.7918 2.27173 46.9 2.27173L46.9 -1.72827C39.4481 -1.72827 32.7287 -0.752688 26.7675 1.23431L28.0324 5.02905ZM46.9 2.27173C56.8846 2.27172 65.4525 4.09045 72.6638 7.65466L74.4361 4.06878C66.5674 0.179622 57.3687 -1.72828 46.9 -1.72827L46.9 2.27173ZM72.6723 7.65887C79.7911 11.1354 85.2553 16.1164 89.1212 22.6143L92.5588 20.5691C88.278 13.3737 82.2156 7.86798 74.4276 4.06457L72.6723 7.65887ZM89.1212 22.6143C92.9741 29.0904 94.95 36.9965 94.95 46.4217L98.95 46.4217C98.95 36.4336 96.8525 27.7863 92.5588 20.5691L89.1212 22.6143ZM78.8 44.4717C78.8 40.8551 77.9393 37.6638 76.1044 35.0133L72.8156 37.2901C74.1006 39.1463 74.8 41.5016 74.8 44.4717L78.8 44.4717ZM76.1241 35.0423C74.1941 32.1473 70.8188 30.1789 66.44 28.9017L65.32 32.7417C69.2611 33.8912 71.6059 35.4761 72.7959 37.2611L76.1241 35.0423ZM66.4765 28.9128C62.028 27.5226 55.8094 26.8717 47.94 26.8717L47.94 30.8717C55.6706 30.8717 61.4119 31.5208 65.2834 32.7307L66.4765 28.9128ZM47.94 26.8717C40.8476 26.8717 35.17 27.437 31.0049 28.6403L32.1151 32.4832C35.7499 31.4331 40.9924 30.8717 47.94 30.8717L47.94 26.8717ZM31.0551 28.6265C26.8306 29.7285 23.5362 31.5602 21.5956 34.3633L24.8844 36.6401C26.0638 34.9365 28.316 33.4749 32.0648 32.4969L31.0551 28.6265ZM21.5956 34.3633C19.739 37.045 18.9 40.4265 18.9 44.3417L22.9 44.3417C22.9 40.977 23.6209 38.4651 24.8844 36.6401L21.5956 34.3633ZM18.9 44.3417C18.9 47.9583 19.7606 51.1496 21.5956 53.8001L24.8844 51.5233C23.5993 49.6671 22.9 47.3118 22.9 44.3417L18.9 44.3417ZM21.566 53.7562C23.4213 56.5937 26.739 58.4734 31.0268 59.6593L32.0931 55.8041C28.2343 54.7368 26.0053 53.2364 24.9139 51.5672L21.566 53.7562ZM31.0268 59.6593C35.3628 60.8587 41.5144 61.4217 49.37 61.4217L49.37 57.4217C41.6256 57.4217 35.9038 56.8581 32.0931 55.8041L31.0268 59.6593ZM49.37 61.4217C56.2839 61.4217 61.8785 60.9428 66.0851 59.9369L65.1548 56.0466C61.3881 56.9473 56.1494 57.4217 49.37 57.4217L49.37 61.4217ZM66.1248 59.9269C70.3357 58.8285 73.6568 57.0623 75.7617 54.4311L72.6382 51.9323C71.2765 53.6345 68.8776 55.0749 65.1151 56.0565L66.1248 59.9269ZM75.7617 54.4311C77.8566 51.8125 78.8 48.4233 78.8 44.4717L74.8 44.4717C74.8 47.8001 74.0101 50.2176 72.6382 51.9323L75.7617 54.4311Z" fill="#23262D"/>
</svg>
