<svg width="301" height="75" viewBox="0 0 301 75" fill="none" xmlns="http://www.w3.org/2000/svg">
<path opacity="0.3" d="M0.204688 73H-1.79531L-1.79531 75H0.204688L0.204688 73ZM0.204688 63L-0.538094 61.143L-1.79531 61.6459L-1.79531 63H0.204688ZM8.70469 59.6L10.3884 60.6793L13.7565 55.4252L7.96191 57.743L8.70469 59.6ZM6.20469 63.5H4.20469L4.20469 70.326L7.88845 64.5793L6.20469 63.5ZM6.20469 12L7.78132 10.7695L4.20469 6.1869L4.20469 12H6.20469ZM9.40469 16.1L8.67589 17.9625L15.4705 20.6213L10.9813 14.8695L9.40469 16.1ZM0.204688 12.5H-1.79531L-1.79531 13.8651L-0.524111 14.3625L0.204688 12.5ZM0.204688 2.5L0.173922 0.500233L-1.79531 0.530529L-1.79531 2.5H0.204688ZM32.7047 2H34.7047L34.7047 -0.0310097L32.6739 0.000232697L32.7047 2ZM32.7047 12L33.5415 13.8165L34.7047 13.2807V12H32.7047ZM23.8047 16.1L22.1589 14.9636L18.0109 20.9711L24.6415 17.9165L23.8047 16.1ZM26.7047 11.9H28.7047V5.4835L25.0589 10.7636L26.7047 11.9ZM26.7047 32.5L25.2905 33.9142L28.7047 37.3284L28.7047 32.5H26.7047ZM23.7047 29.5V27.5L18.8763 27.5L22.2905 30.9142L23.7047 29.5ZM49.8047 29.5L51.2189 30.9142L54.6331 27.5H49.8047V29.5ZM46.8047 32.5H44.8047V37.3284L48.2189 33.9142L46.8047 32.5ZM46.8047 12L48.4187 10.819L44.8047 5.87977V12H46.8047ZM49.8047 16.1L49.0619 17.957L55.5367 20.5469L51.4188 14.919L49.8047 16.1ZM40.8047 12.5H38.8047V13.8541L40.0619 14.357L40.8047 12.5ZM40.8047 2.5L40.7739 0.500233L38.8047 0.530529L38.8047 2.5H40.8047ZM73.3047 2L75.3047 2V-0.0310097L73.2739 0.000232697L73.3047 2ZM73.3047 12L74.1482 13.8134L75.3047 13.2755V12H73.3047ZM64.7047 16L63.0157 14.9289L59.3618 20.6908L65.5481 17.8134L64.7047 16ZM67.3047 11.9H69.3047V5.01163L65.6157 10.8289L67.3047 11.9ZM67.3047 63.5L65.6406 64.6094L69.3047 70.1055V63.5H67.3047ZM64.7047 59.6L65.44 57.7401L59.4938 55.3893L63.0406 60.7094L64.7047 59.6ZM73.3047 63H75.3047V61.6401L74.04 61.1401L73.3047 63ZM73.3047 73V75H75.3047V73H73.3047ZM40.8047 73H38.8047V75H40.8047V73ZM40.8047 63L40.0543 61.1461L38.8047 61.6519V63H40.8047ZM49.2047 59.6L50.908 60.6482L54.1002 55.4609L48.4543 57.7461L49.2047 59.6ZM46.8047 63.5H44.8047V70.5661L48.508 64.5482L46.8047 63.5ZM46.8047 41L48.2189 39.5858L44.8047 36.1716V41H46.8047ZM49.8047 44L49.8047 46H54.6331L51.2189 42.5858L49.8047 44ZM23.7047 44L22.2905 42.5858L18.8763 46H23.7047V44ZM26.7047 41H28.7047V36.1716L25.2905 39.5858L26.7047 41ZM26.7047 63.5L25.0014 64.5482L28.7047 70.5661V63.5H26.7047ZM24.3047 59.6L25.0551 57.7461L19.4092 55.4609L22.6014 60.6482L24.3047 59.6ZM32.7047 63H34.7047V61.6519L33.4551 61.1461L32.7047 63ZM32.7047 73V75H34.7047V73H32.7047ZM2.20469 73L2.20469 63H-1.79531L-1.79531 73H2.20469ZM0.947469 64.857L9.44747 61.457L7.96191 57.743L-0.538094 61.143L0.947469 64.857ZM7.02093 58.5207L4.52093 62.4207L7.88845 64.5793L10.3884 60.6793L7.02093 58.5207ZM8.20469 63.5L8.20469 12H4.20469L4.20469 63.5H8.20469ZM4.62806 13.2305L7.82806 17.3305L10.9813 14.8695L7.78132 10.7695L4.62806 13.2305ZM10.1335 14.2375L0.933486 10.6375L-0.524111 14.3625L8.67589 17.9625L10.1335 14.2375ZM2.20469 12.5L2.20469 2.5H-1.79531L-1.79531 12.5H2.20469ZM0.235453 4.49976L32.7355 3.99976L32.6739 0.000232697L0.173922 0.500233L0.235453 4.49976ZM30.7047 2V12H34.7047V2H30.7047ZM31.8679 10.1835L22.9679 14.2835L24.6415 17.9165L33.5415 13.8165L31.8679 10.1835ZM25.4505 17.2364L28.3505 13.0364L25.0589 10.7636L22.1589 14.9636L25.4505 17.2364ZM24.7047 11.9L24.7047 32.5H28.7047L28.7047 11.9H24.7047ZM28.1189 31.0858L25.1189 28.0858L22.2905 30.9142L25.2905 33.9142L28.1189 31.0858ZM23.7047 31.5H49.8047V27.5H23.7047V31.5ZM48.3905 28.0858L45.3905 31.0858L48.2189 33.9142L51.2189 30.9142L48.3905 28.0858ZM48.8047 32.5V12H44.8047V32.5H48.8047ZM45.1906 13.181L48.1906 17.281L51.4188 14.919L48.4187 10.819L45.1906 13.181ZM50.5475 14.243L41.5475 10.643L40.0619 14.357L49.0619 17.957L50.5475 14.243ZM42.8047 12.5V2.5H38.8047V12.5H42.8047ZM40.8355 4.49976L73.3355 3.99976L73.2739 0.000232697L40.7739 0.500233L40.8355 4.49976ZM71.3047 2V12H75.3047V2L71.3047 2ZM72.4612 10.1866L63.8612 14.1866L65.5481 17.8134L74.1482 13.8134L72.4612 10.1866ZM66.3937 17.0711L68.9937 12.9711L65.6157 10.8289L63.0157 14.9289L66.3937 17.0711ZM65.3047 11.9L65.3047 63.5H69.3047L69.3047 11.9H65.3047ZM68.9688 62.3906L66.3688 58.4906L63.0406 60.7094L65.6406 64.6094L68.9688 62.3906ZM63.9694 61.4599L72.5694 64.8599L74.04 61.1401L65.44 57.7401L63.9694 61.4599ZM71.3047 63V73H75.3047V63H71.3047ZM73.3047 71L40.8047 71V75L73.3047 75V71ZM42.8047 73V63L38.8047 63V73L42.8047 73ZM41.5551 64.8539L49.9551 61.4539L48.4543 57.7461L40.0543 61.1461L41.5551 64.8539ZM47.5014 58.5518L45.1014 62.4518L48.508 64.5482L50.908 60.6482L47.5014 58.5518ZM48.8047 63.5L48.8047 41H44.8047L44.8047 63.5H48.8047ZM45.3905 42.4142L48.3905 45.4142L51.2189 42.5858L48.2189 39.5858L45.3905 42.4142ZM49.8047 42H23.7047V46L49.8047 46L49.8047 42ZM25.1189 45.4142L28.1189 42.4142L25.2905 39.5858L22.2905 42.5858L25.1189 45.4142ZM24.7047 41L24.7047 63.5H28.7047L28.7047 41H24.7047ZM28.408 62.4518L26.008 58.5518L22.6014 60.6482L25.0014 64.5482L28.408 62.4518ZM23.5543 61.4539L31.9543 64.8539L33.4551 61.1461L25.0551 57.7461L23.5543 61.4539ZM30.7047 63V73H34.7047V63H30.7047ZM32.7047 71H0.204688L0.204688 75H32.7047V71ZM130.034 51.9V49.9L128.473 49.9L128.094 51.4149L130.034 51.9ZM142.034 51.9L144.034 51.919L144.053 49.9H142.034V51.9ZM141.834 73V75H143.816L143.834 73.019L141.834 73ZM88.1344 73H86.1344V75H88.1344V73ZM88.1344 63L87.3916 61.143L86.1344 61.6459V63H88.1344ZM96.6344 59.6L98.3181 60.6793L101.686 55.4252L95.8916 57.743L96.6344 59.6ZM94.1344 63.5H92.1344V70.326L95.8181 64.5793L94.1344 63.5ZM94.1344 12L95.8254 10.932L92.1344 5.08797V12H94.1344ZM96.5344 15.8L95.8031 17.6615L101.485 19.8939L98.2253 14.732L96.5344 15.8ZM88.1344 12.5H86.1344V13.8631L87.4031 14.3615L88.1344 12.5ZM88.1344 2.5L88.0959 0.500366L86.1344 0.538088V2.5H88.1344ZM114.134 2V-3.8147e-06H114.115L114.096 0.000366211L114.134 2ZM140.834 2H142.834V-3.8147e-06H140.834V2ZM140.834 22.2V24.2H142.834V22.2H140.834ZM128.834 22.2L126.907 22.7341L127.313 24.2H128.834V22.2ZM126.534 13.9L127.705 12.2786L123.085 8.94174L124.607 14.4341L126.534 13.9ZM130.134 16.5V18.5H136.32L131.305 14.8786L130.134 16.5ZM111.634 16.5L110.22 15.0858L106.806 18.5L111.634 18.5V16.5ZM114.634 13.5H116.634V8.67157L113.22 12.0858L114.634 13.5ZM114.634 33L113.22 34.4142L116.634 37.8284V33H114.634ZM111.634 30V28L106.806 28L110.22 31.4142L111.634 30ZM132.534 30H134.534V28H132.534V30ZM132.534 44V46H134.534V44H132.534ZM111.634 44L110.116 42.6984L107.286 46H111.634V44ZM114.634 40.5H116.634V35.0935L113.116 39.1984L114.634 40.5ZM114.634 61.5L113.22 62.9142L116.634 66.3284V61.5H114.634ZM111.634 58.5V56.5H106.806L110.22 59.9142L111.634 58.5ZM131.334 58.5L132.594 60.0535L136.977 56.5H131.334V58.5ZM127.634 61.5L125.694 61.0149L124.241 66.8259L128.894 63.0535L127.634 61.5ZM130.034 53.9H142.034V49.9H130.034V53.9ZM140.034 51.881L139.834 72.981L143.834 73.019L144.034 51.919L140.034 51.881ZM141.834 71L88.1344 71V75L141.834 75V71ZM90.1344 73V63H86.1344V73H90.1344ZM88.8772 64.857L97.3772 61.457L95.8916 57.743L87.3916 61.143L88.8772 64.857ZM94.9506 58.5207L92.4506 62.4207L95.8181 64.5793L98.3181 60.6793L94.9506 58.5207ZM96.1344 63.5L96.1344 12H92.1344L92.1344 63.5H96.1344ZM92.4434 13.068L94.8434 16.868L98.2253 14.732L95.8254 10.932L92.4434 13.068ZM97.2657 13.9385L88.8657 10.6385L87.4031 14.3615L95.8031 17.6615L97.2657 13.9385ZM90.1344 12.5V2.5H86.1344V12.5H90.1344ZM88.1728 4.49963L114.173 3.99963L114.096 0.000366211L88.0959 0.500366L88.1728 4.49963ZM114.134 4L140.834 4V-3.8147e-06L114.134 -3.8147e-06V4ZM138.834 2V22.2H142.834V2L138.834 2ZM140.834 20.2H128.834V24.2H140.834V20.2ZM130.762 21.6659L128.462 13.3659L124.607 14.4341L126.907 22.7341L130.762 21.6659ZM125.363 15.5214L128.963 18.1214L131.305 14.8786L127.705 12.2786L125.363 15.5214ZM130.134 14.5H111.634V18.5H130.134V14.5ZM113.049 17.9142L116.049 14.9142L113.22 12.0858L110.22 15.0858L113.049 17.9142ZM112.634 13.5L112.634 33H116.634L116.634 13.5H112.634ZM116.049 31.5858L113.049 28.5858L110.22 31.4142L113.22 34.4142L116.049 31.5858ZM111.634 32H132.534V28H111.634V32ZM130.534 30V44H134.534V30H130.534ZM132.534 42H111.634V46L132.534 46V42ZM113.153 45.3016L116.153 41.8016L113.116 39.1984L110.116 42.6984L113.153 45.3016ZM112.634 40.5V61.5H116.634V40.5H112.634ZM116.049 60.0858L113.049 57.0858L110.22 59.9142L113.22 62.9142L116.049 60.0858ZM111.634 60.5L131.334 60.5V56.5L111.634 56.5V60.5ZM130.075 56.9465L126.375 59.9465L128.894 63.0535L132.594 60.0535L130.075 56.9465ZM129.575 61.9851L131.975 52.3851L128.094 51.4149L125.694 61.0149L129.575 61.9851ZM157.705 73H155.705V75H157.705V73ZM157.705 63L156.973 61.1385L155.705 61.6369V63H157.705ZM166.105 59.7L167.796 60.768L171.056 55.6061L165.373 57.8385L166.105 59.7ZM163.705 63.5H161.705L161.705 70.412L165.396 64.568L163.705 63.5ZM163.705 12.1L165.226 10.8015L161.705 6.67672V12.1H163.705ZM167.205 16.2L166.479 18.0636L168.726 14.9015L167.205 16.2ZM157.705 12.5H155.705V13.8674L156.979 14.3636L157.705 12.5ZM157.705 2.5L157.668 0.500332L155.705 0.536291V2.5H157.705ZM185.005 2V-3.8147e-06H184.986L184.968 0.000331879L185.005 2ZM211.905 7.3L210.629 8.84038L210.635 8.84523L210.641 8.85004L211.905 7.3ZM213.205 36.9L211.716 35.5649L211.714 35.5664L213.205 36.9ZM196.605 44.1L194.612 43.9267L194.397 46.4049L196.863 46.0832L196.605 44.1ZM196.805 41.8L196.753 39.8007L194.967 39.8465L194.812 41.6267L196.805 41.8ZM203.205 42.6L202.527 44.4818L202.572 44.4977L202.617 44.5116L203.205 42.6ZM207.405 45L205.99 46.4142L206.012 46.4356L206.034 46.4564L207.405 45ZM210.305 48.8L212.062 47.845L212.06 47.8423L210.305 48.8ZM217.805 62.6L216.745 64.296L223.193 68.3262L219.562 61.645L217.805 62.6ZM212.205 59.1L212.944 57.2417L211.145 60.796L212.205 59.1ZM222.005 63H224.005V61.6434L222.744 61.1417L222.005 63ZM222.005 73V75H224.005V73H222.005ZM201.605 73L199.797 73.8558L200.339 75H201.605V73ZM192.705 54.2L190.886 55.0315L190.891 55.0437L190.897 55.0558L192.705 54.2ZM190.205 49L191.972 48.0642L190.205 49ZM188.105 46.8L187.277 48.6207L187.306 48.6339L187.335 48.6461L188.105 46.8ZM184.505 46.4L184.562 48.3992L184.573 48.3989L184.585 48.3984L184.505 46.4ZM181.005 46.5L179.715 44.9714L175.34 48.6627L181.062 48.4992L181.005 46.5ZM184.205 43.8H186.205V39.4957L182.915 42.2714L184.205 43.8ZM184.205 63.5L182.521 64.5793L186.205 70.326L186.205 63.5H184.205ZM181.705 59.6L182.447 57.743L176.653 55.4252L180.021 60.6793L181.705 59.6ZM190.205 63H192.205V61.6459L190.947 61.143L190.205 63ZM190.205 73V75H192.205V73H190.205ZM184.205 37.5L182.52 38.5781L186.205 44.3352V37.5H184.205ZM181.005 32.5V30.5H177.35L179.32 33.5781L181.005 32.5ZM195.305 30.4L196.653 31.877L196.67 31.8613L196.687 31.8453L195.305 30.4ZM195.805 18.5L194.25 19.7584L194.283 19.799L194.318 19.8379L195.805 18.5ZM181.005 16.4L179.637 14.9409L175.947 18.4H181.005V16.4ZM184.205 13.4H186.205V8.78354L182.837 11.9409L184.205 13.4ZM159.705 73L159.705 63H155.705L155.705 73H159.705ZM158.436 64.8615L166.836 61.5615L165.373 57.8385L156.973 61.1385L158.436 64.8615ZM164.414 58.632L162.014 62.432L165.396 64.568L167.796 60.768L164.414 58.632ZM165.705 63.5V12.1H161.705V63.5H165.705ZM162.184 13.3985L165.684 17.4985L168.726 14.9015L165.226 10.8015L162.184 13.3985ZM167.931 14.3364L158.431 10.6364L156.979 14.3636L166.479 18.0636L167.931 14.3364ZM159.705 12.5V2.5H155.705V12.5H159.705ZM157.741 4.49966L185.041 3.99966L184.968 0.000331879L157.668 0.500332L157.741 4.49966ZM185.005 4H192.805V-3.8147e-06H185.005V4ZM192.805 4C201.041 4 206.868 5.72569 210.629 8.84038L213.18 5.75962C208.408 1.80764 201.502 -3.8147e-06 192.805 -3.8147e-06V4ZM210.641 8.85004C214.422 11.9333 216.405 16.3803 216.405 22.5H220.405C220.405 15.4197 218.054 9.73334 213.169 5.74996L210.641 8.85004ZM216.405 22.5C216.405 27.7959 214.818 32.1044 211.716 35.5649L214.694 38.2351C218.525 33.9623 220.405 28.6708 220.405 22.5H216.405ZM211.714 35.5664C208.763 38.8647 203.774 41.148 196.346 42.1168L196.863 46.0832C204.769 45.052 210.846 42.5353 214.695 38.2336L211.714 35.5664ZM198.597 44.2733L198.797 41.9733L194.812 41.6267L194.612 43.9267L198.597 44.2733ZM196.856 43.7993C199.314 43.7363 201.176 43.9954 202.527 44.4818L203.882 40.7182C201.9 40.0045 199.496 39.7303 196.753 39.8007L196.856 43.7993ZM202.617 44.5116C204.101 44.9682 205.197 45.6205 205.99 46.4142L208.819 43.5858C207.479 42.2462 205.775 41.2984 203.793 40.6884L202.617 44.5116ZM206.034 46.4564C207.002 47.368 207.843 48.4629 208.549 49.7577L212.06 47.8423C211.167 46.2037 210.074 44.7654 208.775 43.5436L206.034 46.4564ZM208.547 49.755L216.047 63.555L219.562 61.645L212.062 47.845L208.547 49.755ZM218.865 60.904L213.265 57.404L211.145 60.796L216.745 64.296L218.865 60.904ZM211.465 60.9583L221.265 64.8583L222.744 61.1417L212.944 57.2417L211.465 60.9583ZM220.005 63L220.005 73H224.005L224.005 63H220.005ZM222.005 71L201.605 71V75L222.005 75V71ZM203.412 72.1442L194.512 53.3442L190.897 55.0558L199.797 73.8558L203.412 72.1442ZM194.524 53.3685C193.453 51.0273 192.6 49.2508 191.972 48.0642L188.437 49.9358C189.009 51.0158 189.823 52.706 190.886 55.0315L194.524 53.3685ZM191.972 48.0642C191.256 46.711 190.266 45.5338 188.874 44.9538L187.335 48.6461C187.544 48.7328 187.954 49.0224 188.437 49.9358L191.972 48.0642ZM188.932 44.9793C187.744 44.4393 186.138 44.3331 184.425 44.4016L184.585 48.3984C186.205 48.3336 186.998 48.4941 187.277 48.6207L188.932 44.9793ZM184.448 44.4008L180.948 44.5008L181.062 48.4992L184.562 48.3992L184.448 44.4008ZM182.294 48.0286L185.494 45.3286L182.915 42.2714L179.715 44.9714L182.294 48.0286ZM182.205 43.8V63.5H186.205V43.8H182.205ZM185.888 62.4207L183.388 58.5207L180.021 60.6793L182.521 64.5793L185.888 62.4207ZM180.962 61.457L189.462 64.857L190.947 61.143L182.447 57.743L180.962 61.457ZM188.205 63L188.205 73H192.205L192.205 63H188.205ZM190.205 71H157.705V75H190.205V71ZM185.889 36.4219L182.689 31.4219L179.32 33.5781L182.52 38.5781L185.889 36.4219ZM181.005 34.5H188.005V30.5H181.005V34.5ZM188.005 34.5C191.551 34.5 194.584 33.7665 196.653 31.877L193.956 28.923C192.959 29.8335 191.125 30.5 188.005 30.5V34.5ZM196.687 31.8453C198.738 29.8832 199.605 27.1141 199.605 23.9L195.605 23.9C195.605 26.4192 194.938 27.9835 193.922 28.9547L196.687 31.8453ZM199.605 23.9C199.605 21.2742 198.902 18.9519 197.291 17.1621L194.318 19.8379C195.107 20.7147 195.605 21.9925 195.605 23.9L199.605 23.9ZM197.359 17.2416C195.7 15.1924 193.13 14.4 190.205 14.4V18.4C192.479 18.4 193.642 19.0076 194.25 19.7584L197.359 17.2416ZM190.205 14.4H181.005V18.4H190.205V14.4ZM182.373 17.8591L185.573 14.8591L182.837 11.9409L179.637 14.9409L182.373 17.8591ZM182.205 13.4V37.5H186.205V13.4H182.205ZM247.727 70.4L246.709 72.1214L246.723 72.1298L246.738 72.138L247.727 70.4ZM236.927 58.2L235.1 59.0123L235.106 59.026L235.112 59.0396L236.927 58.2ZM235.627 22.1L233.73 21.4675L233.727 21.4756L233.725 21.4836L235.627 22.1ZM242.527 10.1L243.986 11.4679L242.527 10.1ZM253.327 2.9L252.625 1.02731L252.615 1.03102L253.327 2.9ZM282.027 2.9L281.295 4.76116L281.305 4.76513L282.027 2.9ZM292.327 9.9L290.834 11.2307L290.85 11.2479L290.865 11.2646L292.327 9.9ZM298.627 21L296.721 21.6064L296.726 21.6195L296.73 21.6325L298.627 21ZM296.527 56.5L294.734 55.6138L294.73 55.6223L296.527 56.5ZM284.427 69.8L285.45 71.5188L284.427 69.8ZM273.227 57.2L272.118 55.5359L272.103 55.5456L272.089 55.5556L273.227 57.2ZM277.327 50.6L275.418 50.0034L275.413 50.0217L275.407 50.04L277.327 50.6ZM277.527 24.2L275.592 24.7048L275.599 24.73L275.606 24.7551L277.527 24.2ZM260.527 17.8L261.622 19.4739L261.644 19.4594L261.666 19.4444L260.527 17.8ZM256.627 24.2L254.7 23.6668L256.627 24.2ZM256.427 50.4L254.482 50.8651L254.487 50.885L254.492 50.9048L256.427 50.4ZM260.127 57L261.377 55.4383L260.127 57ZM265.327 72.5C258.654 72.5 253.148 71.1851 248.717 68.662L246.738 72.138C251.907 75.0816 258.134 76.5 265.327 76.5V72.5ZM248.746 68.6786C244.386 66.0994 241.051 62.3524 238.743 57.3604L235.112 59.0396C237.737 64.7142 241.602 69.1006 246.709 72.1214L248.746 68.6786ZM238.755 57.3877C236.497 52.3074 235.327 46.0665 235.327 38.6H231.327C231.327 46.4668 232.558 53.2926 235.1 59.0123L238.755 57.3877ZM235.327 38.6C235.327 32.4908 236.075 27.2067 237.53 22.7164L233.725 21.4836C232.113 26.46 231.327 32.1758 231.327 38.6H235.327ZM237.525 22.7325C239.047 18.1645 241.212 14.4273 243.986 11.4679L241.068 8.73212C237.843 12.1727 235.407 16.4355 233.73 21.4675L237.525 22.7325ZM243.986 11.4679C246.773 8.49505 250.116 6.26359 254.039 4.76897L252.615 1.03102C248.139 2.7364 244.281 5.30494 241.068 8.73212L243.986 11.4679ZM254.03 4.77266C258.034 3.27086 262.624 2.5 267.827 2.5V-1.5C262.231 -1.5 257.154 -0.670862 252.625 1.02734L254.03 4.77266ZM267.827 2.5C273.034 2.5 277.509 3.27171 281.295 4.76113L282.76 1.03886C278.412 -0.671711 273.421 -1.5 267.827 -1.5V2.5ZM281.305 4.76513C285.167 6.25989 288.328 8.41921 290.834 11.2307L293.82 8.56925C290.86 5.24745 287.155 2.7401 282.749 1.03486L281.305 4.76513ZM290.865 11.2646C293.439 14.0222 295.4 17.4534 296.721 21.6064L300.533 20.3936C299.055 15.7466 296.816 11.7778 293.789 8.53536L290.865 11.2646ZM296.73 21.6325C298.116 25.7913 298.827 30.5718 298.827 36H302.827C302.827 30.2282 302.072 25.0087 300.525 20.3675L296.73 21.6325ZM298.827 36C298.827 43.6246 297.439 50.1425 294.734 55.6138L298.32 57.3862C301.349 51.2575 302.827 44.1087 302.827 36H298.827ZM294.73 55.6223C292.094 61.0211 288.323 65.1554 283.405 68.0812L285.45 71.5188C291.065 68.178 295.361 63.4456 298.324 57.3777L294.73 55.6223ZM283.405 68.0812C278.509 70.9941 272.513 72.5 265.327 72.5V76.5C273.075 76.5 279.813 74.8726 285.45 71.5188L283.405 68.0812ZM266.827 61C269.684 61 272.235 60.3193 274.366 58.8444L272.089 55.5556C270.753 56.4807 269.037 57 266.827 57V61ZM274.337 58.8641C276.692 57.2941 278.25 54.5788 279.247 51.16L275.407 50.04C274.538 53.0212 273.363 54.7059 272.118 55.5359L274.337 58.8641ZM279.236 51.1965C280.326 47.708 280.827 42.8694 280.827 36.8H276.827C276.827 42.7306 276.328 47.0919 275.418 50.0034L279.236 51.1965ZM280.827 36.8C280.827 31.3276 280.392 26.9101 279.449 23.6449L275.606 24.7551C276.396 27.4899 276.827 31.4724 276.827 36.8H280.827ZM279.463 23.6952C278.601 20.3907 277.149 17.7362 274.866 16.1556L272.589 19.4444C273.773 20.2638 274.854 21.876 275.592 24.7048L279.463 23.6952ZM274.866 16.1556C272.704 14.659 270.003 14 266.927 14V18C269.452 18 271.284 18.541 272.589 19.4444L274.866 16.1556ZM266.927 14C264.071 14 261.519 14.6807 259.389 16.1556L261.666 19.4444C263.002 18.5193 264.717 18 266.927 18V14ZM259.433 16.1261C257.115 17.6413 255.626 20.319 254.7 23.6668L258.555 24.7332C259.362 21.8143 260.473 20.2253 261.622 19.4739L259.433 16.1261ZM254.7 23.6668C253.76 27.0628 253.327 31.8444 253.327 37.9H257.327C257.327 31.9556 257.761 27.6038 258.555 24.7332L254.7 23.6668ZM253.327 37.9C253.327 43.2339 253.696 47.5786 254.482 50.8651L258.372 49.9349C257.692 47.0881 257.327 43.0994 257.327 37.9H253.327ZM254.492 50.9048C255.351 54.1957 256.747 56.8568 258.878 58.5617L261.377 55.4383C260.175 54.4765 259.104 52.7377 258.363 49.8952L254.492 50.9048ZM258.878 58.5617C260.997 60.2566 263.716 61 266.827 61V57C264.339 57 262.591 56.4101 261.377 55.4383L258.878 58.5617Z" fill="white"/>
</svg>
