<svg width="45" height="50" viewBox="0 0 45 50" fill="none" xmlns="http://www.w3.org/2000/svg">
<path d="M44.4577 14.6842C44.4577 13.8488 44.2797 13.0955 43.9099 12.4654C43.5538 11.8354 43.0196 11.315 42.3075 10.9041C36.3907 7.49374 30.4603 4.08343 24.5435 0.673067C22.9411 -0.244587 21.4071 -0.217183 19.8184 0.714144C17.4626 2.09749 5.65651 8.86336 2.15031 10.9041C0.698481 11.7396 0 13.027 0 14.698V35.2969C0 36.1187 0.178039 36.8446 0.520443 37.4747C0.876578 38.1184 1.42442 38.6662 2.15031 39.0908C5.67024 41.1315 17.4626 47.8837 19.8184 49.2808C21.4071 50.2119 22.9548 50.253 24.5435 49.3218C30.4603 45.8978 36.3907 42.5012 42.3075 39.0908C43.047 38.6662 43.5812 38.1321 43.9373 37.4747C44.2797 36.8446 44.4577 36.1187 44.4577 35.2969V14.6842Z" fill="#9770D6"/>
<path d="M28.6254 28.5858C27.3654 30.8182 24.9686 32.3386 22.2156 32.3386C19.4764 32.3386 17.0933 30.8456 15.8332 28.6269C15.2169 27.5449 14.8608 26.3122 14.8608 24.9837C14.8608 20.9159 18.1478 17.6288 22.2156 17.6288C24.9274 17.6288 27.2969 19.108 28.5707 21.2994L34.9941 17.6014C32.433 13.1913 27.6667 10.2192 22.2019 10.2192C14.039 10.2192 7.4375 16.8345 7.4375 24.9837C7.4375 27.6544 8.14965 30.1746 9.39604 32.3386C11.9435 36.7624 16.7372 39.7482 22.2156 39.7482C27.7078 39.7482 32.5015 36.7487 35.0489 32.2975L28.6254 28.5858ZM36.7472 21.4912H35.2817V28.5721H36.7472V21.4912ZM39.9932 21.4912H38.5277V28.5721H39.9932V21.4912Z" fill="white"/>
<path d="M41.1863 22.6827H34.1055V24.1482H41.1863V22.6827ZM41.1863 25.915H34.1055V27.3805H41.1863V25.915Z" fill="white"/>
</svg>
