<svg width="20" height="30" viewBox="0 0 20 30" fill="none" xmlns="http://www.w3.org/2000/svg">
<path d="M20 9.88233C20 6.35164 18.094 3.08882 14.9999 1.3241C11.9061 -0.441367 8.09377 -0.441367 5.00006 1.3241C1.90597 3.08932 0 6.35183 0 9.88233V20.1177C0 23.6484 1.90603 26.9112 5.00006 28.6759C8.0939 30.4414 11.9062 30.4414 14.9999 28.6759C18.094 26.9107 20 23.6482 20 20.1177V9.88233ZM18.5716 20.1177H18.5713C18.5713 23.1439 16.9379 25.9404 14.2857 27.4532C11.6339 28.9663 8.36642 28.9663 5.71441 27.4532C3.06228 25.9401 1.42881 23.1436 1.42881 20.1177V9.88233C1.42881 6.8561 3.06228 4.0596 5.71441 2.5468C8.36629 1.03368 11.6337 1.03368 14.2857 2.5468C16.9379 4.05991 18.5713 6.85642 18.5713 9.88233L18.5716 20.1177Z" fill="#23262D"/>
<path d="M10 7.00001C9.4475 7.00001 9 7.34961 9 7.7812V12.2188C9 12.6502 9.44751 13 10 13C10.5525 13 11 12.6501 11 12.2188V7.7812C11 7.57411 10.8947 7.37521 10.707 7.22888C10.5197 7.08228 10.2651 7 9.99998 7L10 7.00001Z" fill="#E36F59"/>
</svg>
