<svg width="253" height="71" viewBox="0 0 253 71" fill="none" xmlns="http://www.w3.org/2000/svg">
<path d="M43.2 0.499996L43.1653 -1.4997L41.2 -1.46558L41.2 0.499996H43.2ZM72 -3.8147e-06H74V-2.03503L71.9653 -1.9997L72 -3.8147e-06ZM72 10L72.8355 11.8171L74 11.2817V10H72ZM63.3 14L61.6297 12.9L57.7862 18.7363L64.1355 15.8171L63.3 14ZM66 9.9H68V3.22653L64.3297 8.80002L66 9.9ZM66 71V73H68V71H66ZM42.3 71L40.471 71.8092L40.9979 73L42.3 73V71ZM20.4 21.5V19.5L17.3282 19.5L18.571 22.3092L20.4 21.5ZM23.2 21.5H25.2V19.5H23.2V21.5ZM23.2 61.5L21.5808 62.6739L25.2 67.666V61.5H23.2ZM20.3 57.5L21.032 55.6387L14.665 53.1349L18.6808 58.6739L20.3 57.5ZM29.2 61H31.2V59.6374L29.932 59.1387L29.2 61ZM29.2 71V73H31.2V71H29.2ZM0.4 71H-1.6L-1.6 73H0.4L0.4 71ZM0.4 61L-0.331952 59.1387L-1.6 59.6374L-1.6 61H0.4ZM9.3 57.5L10.9192 58.6739L14.935 53.1349L8.56805 55.6387L9.3 57.5ZM6.4 61.5H4.4L4.4 67.666L8.01922 62.6739L6.4 61.5ZM6.4 10L8.18886 9.10557L4.4 10H6.4ZM8.2 13.6L7.46133 15.4586L12.3336 17.395L9.98886 12.7056L8.2 13.6ZM0.4 10.5H-1.6L-1.6 11.8573L-0.338672 12.3586L0.4 10.5ZM0.4 0.499996L0.367001 -1.49973L-1.6 -1.46727L-1.6 0.499996H0.4ZM30.7 -3.8147e-06L32.5279 -0.811577L31.9907 -2.02158L30.667 -1.99973L30.7 -3.8147e-06ZM52.1 48.2V50.2H55.1762L53.9279 47.3884L52.1 48.2ZM49.2 48.2H47.2V50.2H49.2V48.2ZM49.2 10L50.8192 8.82606L47.2 3.83404V10H49.2ZM52.1 14L51.368 15.8612L57.735 18.3651L53.7192 12.8261L52.1 14ZM43.2 10.5H41.2V11.8626L42.4681 12.3612L43.2 10.5ZM43.2347 2.49969L72.0347 1.99969L71.9653 -1.9997L43.1653 -1.4997L43.2347 2.49969ZM70 -3.8147e-06V10H74V-3.8147e-06H70ZM71.1645 8.18286L62.4645 12.1829L64.1355 15.8171L72.8355 11.8171L71.1645 8.18286ZM64.9703 15.1L67.6703 11L64.3297 8.80002L61.6297 12.9L64.9703 15.1ZM64 9.9L64 71H68L68 9.9L64 9.9ZM66 69H42.3V73H66V69ZM44.129 70.1908L22.229 20.6908L18.571 22.3092L40.471 71.8092L44.129 70.1908ZM20.4 23.5H23.2V19.5H20.4V23.5ZM21.2 21.5L21.2 61.5H25.2L25.2 21.5H21.2ZM24.8192 60.3261L21.9192 56.3261L18.6808 58.6739L21.5808 62.6739L24.8192 60.3261ZM19.568 59.3613L28.468 62.8613L29.932 59.1387L21.032 55.6387L19.568 59.3613ZM27.2 61V71H31.2V61H27.2ZM29.2 69H0.4L0.4 73H29.2V69ZM2.4 71L2.4 61H-1.6L-1.6 71H2.4ZM1.13195 62.8613L10.032 59.3613L8.56805 55.6387L-0.331952 59.1387L1.13195 62.8613ZM7.68078 56.3261L4.78078 60.3261L8.01922 62.6739L10.9192 58.6739L7.68078 56.3261ZM8.4 61.5L8.4 10H4.4L4.4 61.5H8.4ZM4.61115 10.8944L6.41115 14.4944L9.98886 12.7056L8.18886 9.10557L4.61115 10.8944ZM8.93867 11.7414L1.13867 8.64141L-0.338672 12.3586L7.46133 15.4586L8.93867 11.7414ZM2.4 10.5L2.4 0.499996H-1.6L-1.6 10.5H2.4ZM0.432999 2.49972L30.733 1.99972L30.667 -1.99973L0.367001 -1.49973L0.432999 2.49972ZM28.8721 0.811569L50.2721 49.0116L53.9279 47.3884L32.5279 -0.811577L28.8721 0.811569ZM52.1 46.2H49.2V50.2H52.1V46.2ZM51.2 48.2L51.2 10H47.2L47.2 48.2H51.2ZM47.5808 11.1739L50.4808 15.1739L53.7192 12.8261L50.8192 8.82606L47.5808 11.1739ZM52.832 12.1387L43.932 8.63875L42.4681 12.3612L51.368 15.8612L52.832 12.1387ZM45.2 10.5V0.499996H41.2V10.5H45.2ZM127.495 49.9V47.9H125.934L125.555 49.4149L127.495 49.9ZM139.495 49.9L141.495 49.919L141.514 47.9H139.495V49.9ZM139.295 71V73H141.276L141.295 71.019L139.295 71ZM85.5953 71H83.5953V73H85.5953V71ZM85.5953 61L84.8525 59.143L83.5953 59.6459V61H85.5953ZM94.0953 57.6L95.7791 58.6793L99.1471 53.4252L93.3525 55.743L94.0953 57.6ZM91.5953 61.5H89.5953V68.326L93.2791 62.5793L91.5953 61.5ZM91.5953 10L93.2863 8.93201L89.5953 3.08797V10H91.5953ZM93.9953 13.8L93.264 15.6615L98.9464 17.8939L95.6863 12.732L93.9953 13.8ZM85.5953 10.5H83.5953V11.8631L84.864 12.3615L85.5953 10.5ZM85.5953 0.499996L85.5569 -1.49963L83.5953 -1.46191V0.499996H85.5953ZM111.595 -3.8147e-06V-2H111.576L111.557 -1.99963L111.595 -3.8147e-06ZM138.295 -3.8147e-06H140.295V-2H138.295V-3.8147e-06ZM138.295 20.2V22.2H140.295V20.2H138.295ZM126.295 20.2L124.368 20.7341L124.774 22.2H126.295V20.2ZM123.995 11.9L125.166 10.2786L120.546 6.94174L122.068 12.4341L123.995 11.9ZM127.595 14.5V16.5H133.78L128.766 12.8786L127.595 14.5ZM109.095 14.5L107.681 13.0858L104.267 16.5L109.095 16.5V14.5ZM112.095 11.5H114.095V6.67157L110.681 10.0858L112.095 11.5ZM112.095 31L110.681 32.4142L114.095 35.8284V31H112.095ZM109.095 28V26L104.267 26L107.681 29.4142L109.095 28ZM129.995 28H131.995V26H129.995V28ZM129.995 42V44L131.995 44V42L129.995 42ZM109.095 42L107.577 40.6984L104.747 44H109.095V42ZM112.095 38.5H114.095V33.0935L110.577 37.1984L112.095 38.5ZM112.095 59.5L110.681 60.9142L114.095 64.3284V59.5H112.095ZM109.095 56.5V54.5H104.267L107.681 57.9142L109.095 56.5ZM128.795 56.5L130.055 58.0535L134.438 54.5L128.795 54.5V56.5ZM125.095 59.5L123.155 59.0149L121.702 64.8259L126.355 61.0535L125.095 59.5ZM127.495 51.9L139.495 51.9V47.9L127.495 47.9V51.9ZM137.495 49.881L137.295 70.981L141.295 71.019L141.495 49.919L137.495 49.881ZM139.295 69L85.5953 69V73L139.295 73V69ZM87.5953 71V61H83.5953V71H87.5953ZM86.3381 62.857L94.8381 59.457L93.3525 55.743L84.8525 59.143L86.3381 62.857ZM92.4116 56.5207L89.9116 60.4207L93.2791 62.5793L95.7791 58.6793L92.4116 56.5207ZM93.5953 61.5L93.5953 10H89.5953L89.5953 61.5H93.5953ZM89.9043 11.068L92.3043 14.868L95.6863 12.732L93.2863 8.93201L89.9043 11.068ZM94.7266 11.9385L86.3266 8.63849L84.864 12.3615L93.264 15.6615L94.7266 11.9385ZM87.5953 10.5V0.499996H83.5953V10.5H87.5953ZM85.6338 2.49963L111.634 1.99963L111.557 -1.99963L85.5569 -1.49963L85.6338 2.49963ZM111.595 2L138.295 2V-2L111.595 -2V2ZM136.295 -3.8147e-06V20.2H140.295V-3.8147e-06H136.295ZM138.295 18.2H126.295V22.2H138.295V18.2ZM128.223 19.6659L125.923 11.3659L122.068 12.4341L124.368 20.7341L128.223 19.6659ZM122.824 13.5214L126.424 16.1214L128.766 12.8786L125.166 10.2786L122.824 13.5214ZM127.595 12.5H109.095V16.5H127.595V12.5ZM110.51 15.9142L113.51 12.9142L110.681 10.0858L107.681 13.0858L110.51 15.9142ZM110.095 11.5L110.095 31H114.095L114.095 11.5H110.095ZM113.51 29.5858L110.51 26.5858L107.681 29.4142L110.681 32.4142L113.51 29.5858ZM109.095 30H129.995V26H109.095V30ZM127.995 28V42L131.995 42V28H127.995ZM129.995 40H109.095V44H129.995V40ZM110.614 43.3016L113.614 39.8016L110.577 37.1984L107.577 40.6984L110.614 43.3016ZM110.095 38.5V59.5H114.095V38.5H110.095ZM113.51 58.0858L110.51 55.0858L107.681 57.9142L110.681 60.9142L113.51 58.0858ZM109.095 58.5H128.795V54.5H109.095V58.5ZM127.536 54.9465L123.836 57.9465L126.355 61.0535L130.055 58.0535L127.536 54.9465ZM127.036 59.9851L129.436 50.3851L125.555 49.4149L123.155 59.0149L127.036 59.9851ZM224.415 0.499996L224.379 -1.49969L222.415 -1.46461V0.499996H224.415ZM252.415 -3.8147e-06H254.415V-2.03604L252.379 -1.99969L252.415 -3.8147e-06ZM252.415 10L253.131 11.8672L254.415 11.3747V10H252.415ZM243.815 13.3L242.303 11.9912L244.531 15.1672L243.815 13.3ZM248.315 8.1L250.242 8.63608L246.803 6.79124L248.315 8.1ZM230.815 71V73H232.334L232.742 71.5361L230.815 71ZM211.515 71L209.581 71.5104L209.974 73H211.515V71ZM199.215 24.4L199.269 22.4007L196.6 22.3286L197.281 24.9104L199.215 24.4ZM202.915 24.5L204.843 25.0308L205.521 22.5697L202.969 22.5007L202.915 24.5ZM190.115 71V73H191.639L192.043 71.5308L190.115 71ZM171.115 71L169.179 71.5037L169.569 73H171.115V71ZM155.215 9.9L156.992 8.98271L153.279 10.4037L155.215 9.9ZM156.815 13L156.035 14.8415L161.13 17.0008L158.592 12.0827L156.815 13ZM150.915 10.5H148.915V11.8247L150.135 12.3415L150.915 10.5ZM150.915 0.499996L150.881 -1.49972L148.915 -1.46662V0.499996H150.915ZM180.615 -3.8147e-06H182.615V-2.03396L180.581 -1.99972L180.615 -3.8147e-06ZM180.615 10L181.52 11.7837L182.615 11.2281V10H180.615ZM173.715 13.5L172.051 12.3906L167.824 18.7307L174.62 15.2836L173.715 13.5ZM176.115 9.9L178.078 9.5201L177.153 4.73714L174.451 8.7906L176.115 9.9ZM184.415 52.8V54.8H186.839L186.378 52.4201L184.415 52.8ZM180.215 52.8L178.273 52.321L177.662 54.8H180.215V52.8ZM193.115 0.499996L193.062 -1.4993L191.538 -1.45877L191.173 0.0210419L193.115 0.499996ZM211.915 -3.8147e-06L213.859 -0.469406L213.479 -2.04232L211.862 -1.9993L211.915 -3.8147e-06ZM224.615 52.6L224.662 54.5994L227.141 54.5404L226.559 52.1306L224.615 52.6ZM220.415 52.7L218.467 52.245L217.879 54.7609L220.462 54.6994L220.415 52.7ZM230.415 9.9L232.242 9.08772L229.823 3.64345L228.467 9.44497L230.415 9.9ZM232.015 13.5L231.281 15.3603L235.828 17.1554L233.842 12.6877L232.015 13.5ZM224.415 10.5H222.415V11.8607L223.681 12.3603L224.415 10.5ZM224.451 2.49968L252.451 1.99968L252.379 -1.99969L224.379 -1.49969L224.451 2.49968ZM250.415 -3.8147e-06V10H254.415V-3.8147e-06L250.415 -3.8147e-06ZM251.698 8.13275L243.098 11.4327L244.531 15.1672L253.131 11.8672L251.698 8.13275ZM245.327 14.6088L249.827 9.40875L246.803 6.79124L242.303 11.9912L245.327 14.6088ZM246.388 7.56392L228.888 70.4639L232.742 71.5361L250.242 8.63608L246.388 7.56392ZM230.815 69L211.515 69V73L230.815 73V69ZM213.449 70.4896L201.149 23.8896L197.281 24.9104L209.581 71.5104L213.449 70.4896ZM199.161 26.3993L202.861 26.4993L202.969 22.5007L199.269 22.4007L199.161 26.3993ZM200.987 23.9692L188.187 70.4692L192.043 71.5308L204.843 25.0308L200.987 23.9692ZM190.115 69H171.115V73H190.115V69ZM173.05 70.4963L157.15 9.39632L153.279 10.4037L169.179 71.5037L173.05 70.4963ZM153.438 10.8173L155.038 13.9173L158.592 12.0827L156.992 8.98271L153.438 10.8173ZM157.595 11.1585L151.695 8.65849L150.135 12.3415L156.035 14.8415L157.595 11.1585ZM152.915 10.5V0.499996H148.915V10.5L152.915 10.5ZM150.949 2.49971L180.649 1.99971L180.581 -1.99972L150.881 -1.49972L150.949 2.49971ZM178.615 -3.8147e-06V10H182.615V-3.8147e-06H178.615ZM179.71 8.21634L172.81 11.7163L174.62 15.2836L181.52 11.7837L179.71 8.21634ZM175.379 14.6094L177.779 11.0094L174.451 8.7906L172.051 12.3906L175.379 14.6094ZM174.151 10.2799L182.451 53.1799L186.378 52.4201L178.078 9.5201L174.151 10.2799ZM184.415 50.8H180.215V54.8H184.415V50.8ZM182.157 53.279L195.057 0.978949L191.173 0.0210419L178.273 52.321L182.157 53.279ZM193.168 2.49929L211.968 1.99929L211.862 -1.9993L193.062 -1.4993L193.168 2.49929ZM209.971 0.469398L222.671 53.0694L226.559 52.1306L213.859 -0.469406L209.971 0.469398ZM224.567 50.6006L220.367 50.7006L220.462 54.6994L224.662 54.5994L224.567 50.6006ZM222.362 53.155L232.362 10.355L228.467 9.44497L218.467 52.245L222.362 53.155ZM228.587 10.7123L230.187 14.3123L233.842 12.6877L232.242 9.08772L228.587 10.7123ZM232.749 11.6397L225.149 8.63969L223.681 12.3603L231.281 15.3603L232.749 11.6397ZM226.415 10.5V0.499996H222.415V10.5H226.415Z" fill="white"/>
</svg>
