<svg width="47" height="50" viewBox="0 0 47 50" fill="none" xmlns="http://www.w3.org/2000/svg">
<path d="M46.0654 31.1038L41.5684 27.099C40.2664 25.9401 40.2664 24.042 41.5684 22.8831L46.0654 18.8754C47.3674 17.7165 47.0212 16.6386 45.2945 16.4694L39.3313 15.9045C37.6075 15.7432 36.6753 14.2562 37.2715 12.6077L40.4354 3.79845C41.029 2.14481 40.3024 1.54608 38.8235 2.46008L31.79 6.80896C30.3111 7.73061 28.3969 7.22565 27.5428 5.69947L24.9962 1.15296C24.1396 -0.378285 22.7257 -0.3834 21.8531 1.13226L19.4859 5.2464C18.6083 6.76965 16.6008 7.41554 15.0252 6.69404L10.8587 4.78279C9.27554 4.05369 8.06468 4.89214 8.15842 6.64717L8.3822 10.8525C8.47847 12.6076 7.18194 14.4123 5.50756 14.8653L1.48418 15.9436C-0.187681 16.3966 -0.494955 17.7142 0.80703 18.8731L5.30406 22.8808C6.60606 24.0397 6.60606 25.9378 5.30406 27.0967L0.80703 31.1045C-0.494973 32.2633 -0.151337 33.3881 1.56992 33.5966L7.02531 34.2581C8.74656 34.4663 9.70484 36.003 9.1552 37.6719L6.35869 46.1557C5.80941 47.8249 6.593 48.4705 8.09807 47.6008L14.5118 43.8873C16.017 43.0176 18.043 43.4968 19.014 44.9499L21.6754 48.9577C22.6439 50.4133 24.0995 50.3352 24.9042 48.7807L27.2452 44.2681C28.0525 42.7111 29.9847 42.0757 31.5367 42.8542L36.052 45.112C37.609 45.8854 38.8046 45.0858 38.7109 43.3359L38.4842 39.1251C38.393 37.3701 39.6844 35.5707 41.3643 35.1173L45.3822 34.0341C47.0591 33.5811 47.3664 32.2634 46.0644 31.1046L46.0654 31.1038ZM26.0406 35.4159H20.8326V30.2079H26.0406V35.4159ZM26.0406 27.6039H20.8326V14.5839H26.0406V27.6039Z" fill="#728796"/>
</svg>
