<svg width="276" height="214" viewBox="0 0 276 214" fill="none" xmlns="http://www.w3.org/2000/svg">
<g clip-path="url(#clip0_87_26904)">
<path d="M101.066 157.543C70.1835 148.063 -0.451263 125.815 13.0153 63.3913C28.5537 -8.70582 114.144 40.1757 166.651 15.7995C203.813 -1.48321 281.376 -19.6687 275.678 58.2968C270.11 134.134 266.938 189.013 221.877 202.039C176.751 215.066 147.681 171.859 101.066 157.543Z" fill="#F7F5F5"/>
<path opacity="0.3" d="M7.89844 213.196H275.676" stroke="#263238" stroke-miterlimit="10" stroke-linecap="round" stroke-linejoin="round"/>
<path d="M53.737 139.68C57.6863 142.904 56.3267 161.864 68.4984 153.738C80.6054 145.613 59.9523 140.776 61.1177 136.133C62.801 129.684 90.1227 137.423 85.5259 125.041C80.9291 112.66 64.6139 131.297 60.2761 126.654C56.3267 122.397 76.0086 107.049 66.8151 104.47C57.6216 101.89 59.6286 124.074 53.737 124.074C49.1402 124.074 49.9819 102.858 41.5653 110.403C33.1487 117.883 51.6005 125.299 49.1402 129.942C47.3274 133.489 32.7602 124.719 33.4077 132.909C34.0551 141.034 49.5934 136.327 53.737 139.68Z" fill="#75B687"/>
<path d="M56.3243 130.007C56.3243 130.007 47.4545 140.712 48.4904 169.731" stroke="#263238" stroke-miterlimit="10" stroke-linecap="round" stroke-linejoin="round"/>
<path d="M73.6081 145.097C72.0543 141.937 59.0409 139.809 66.4864 132.973C73.9318 126.138 73.8671 140.776 77.2337 140.712C81.8953 140.647 80.9888 121.108 88.6285 126.138C96.2682 131.168 81.0536 139.164 83.5138 142.775C85.7798 146.064 99.2464 135.359 99.5054 141.937C99.8291 148.515 85.1324 143.614 84.226 147.612C83.5138 150.707 97.9516 153.48 91.542 157.93C85.1324 162.38 83.0606 148.837 79.5645 149.74C76.91 150.385 80.4709 161.541 75.0972 159.8C69.7235 158.059 75.2267 148.45 73.6081 145.097Z" fill="#75B687"/>
<path opacity="0.3" d="M73.6081 145.097C72.0543 141.937 59.0409 139.809 66.4864 132.973C73.9318 126.138 73.8671 140.776 77.2337 140.712C81.8953 140.647 80.9888 121.108 88.6285 126.138C96.2682 131.168 81.0536 139.164 83.5138 142.775C85.7798 146.064 99.2464 135.359 99.5054 141.937C99.8291 148.515 85.1324 143.614 84.226 147.612C83.5138 150.707 97.9516 153.48 91.542 157.93C85.1324 162.38 83.0606 148.837 79.5645 149.74C76.91 150.385 80.4709 161.541 75.0972 159.8C69.7235 158.059 75.2267 148.45 73.6081 145.097Z" fill="black"/>
<path d="M80.2781 145.226C80.2781 145.226 55.0931 142.646 52.6328 169.667" stroke="#263238" stroke-miterlimit="10" stroke-linecap="round" stroke-linejoin="round"/>
<path d="M32.3054 142.324C28.3561 145.548 29.7157 164.508 17.544 156.382C5.43698 148.257 26.09 143.42 24.9247 138.777C23.2413 132.328 -4.08026 140.067 0.516504 127.685C5.11327 115.304 21.4285 133.941 25.7663 129.298C29.7157 125.041 10.0337 109.693 19.2273 107.114C28.4208 104.534 26.4138 126.718 32.3054 126.718C36.9021 126.718 36.0605 105.502 44.4771 113.047C52.8937 120.527 34.4419 127.943 36.9021 132.586C38.715 136.133 53.2822 127.363 52.6347 135.553C51.9226 143.614 36.3842 138.906 32.3054 142.324Z" fill="#75B687"/>
<path opacity="0.3" d="M32.3054 142.324C28.3561 145.548 29.7157 164.508 17.544 156.382C5.43698 148.257 26.09 143.42 24.9247 138.777C23.2413 132.328 -4.08026 140.067 0.516504 127.685C5.11327 115.304 21.4285 133.941 25.7663 129.298C29.7157 125.041 10.0337 109.693 19.2273 107.114C28.4208 104.534 26.4138 126.718 32.3054 126.718C36.9021 126.718 36.0605 105.502 44.4771 113.047C52.8937 120.527 34.4419 127.943 36.9021 132.586C38.715 136.133 53.2822 127.363 52.6347 135.553C51.9226 143.614 36.3842 138.906 32.3054 142.324Z" fill="white"/>
<path d="M29.5195 132.651C29.5195 132.651 40.9791 147.87 43.6335 173.343" stroke="#263238" stroke-miterlimit="10" stroke-linecap="round" stroke-linejoin="round"/>
<path d="M37.6791 213.131H55.5482C58.9796 213.131 61.8283 210.552 62.0873 207.134L64.8713 174.245C65.195 170.441 62.152 167.152 58.3322 167.152H34.8952C31.0106 167.152 28.0324 170.441 28.3561 174.245L31.1401 207.134C31.4638 210.487 34.3125 213.131 37.6791 213.131Z" fill="#70CAFC" stroke="#263238" stroke-miterlimit="10" stroke-linecap="round" stroke-linejoin="round"/>
<path d="M171.508 165.862C165.552 165.862 148.266 161.993 148.266 161.993H194.686C194.751 161.993 177.465 165.862 171.508 165.862Z" fill="#263238" stroke="#263238" stroke-miterlimit="10" stroke-linecap="round" stroke-linejoin="round"/>
<path d="M176.817 163.927H166.199V171.214H176.817V163.927Z" fill="#858585" stroke="#263238" stroke-miterlimit="10" stroke-linecap="round" stroke-linejoin="round"/>
<path d="M178.435 171.214H164.645V202.491H178.435V171.214Z" fill="#999999" stroke="#263238" stroke-miterlimit="10" stroke-linecap="round" stroke-linejoin="round"/>
<path d="M197.403 152.707C193.842 152.707 192.03 152.707 188.469 152.707C189.44 146.58 190.217 140.26 190.67 134.07C194.231 134.07 196.044 134.07 199.605 134.07C199.151 140.325 198.439 146.58 197.403 152.707Z" fill="#858585" stroke="#263238" stroke-miterlimit="10" stroke-linecap="round" stroke-linejoin="round"/>
<path d="M211 79.0617C198.116 79.0617 185.232 79.0617 172.348 79.0617C167.816 79.0617 164.838 82.8665 165.745 87.3806C168.205 101.245 169.694 114.917 170.147 128.975C170.212 133.038 173.32 136.198 177.463 136.198C188.275 136.198 199.152 136.198 209.964 136.198C214.043 136.198 217.733 133.038 218.251 128.975C219.805 115.046 220.388 101.374 219.935 87.3806C219.74 82.8665 215.597 79.0617 211 79.0617Z" fill="#858585" stroke="#263238" stroke-miterlimit="10" stroke-linecap="round" stroke-linejoin="round"/>
<path d="M213.137 87.3806C213.59 101.374 213.007 115.11 211.453 128.975C210.935 133.038 207.245 136.198 203.166 136.198C194.62 136.198 186.074 136.198 177.463 136.198C173.384 136.198 170.277 133.038 170.147 128.975C169.694 114.917 168.205 101.181 165.745 87.3806C164.838 82.8665 167.816 79.0617 172.348 79.0617C182.966 79.0617 193.519 79.0617 204.137 79.0617C208.734 79.0617 212.942 82.8665 213.137 87.3806Z" fill="#999999" stroke="#263238" stroke-miterlimit="10" stroke-linecap="round" stroke-linejoin="round"/>
<path d="M194.751 208.037C194.751 208.746 194.104 209.327 193.327 209.133C189.119 208.23 176.429 205.586 171.508 205.586C166.588 205.586 153.898 208.23 149.69 209.133C148.978 209.262 148.266 208.746 148.266 208.037C148.266 206.618 149.237 205.393 150.661 205.07C155.582 204.039 166.912 201.717 171.508 201.717C176.105 201.717 187.37 204.039 192.356 205.07C193.715 205.393 194.751 206.618 194.751 208.037Z" fill="#263238" stroke="#263238" stroke-miterlimit="10" stroke-linecap="round" stroke-linejoin="round"/>
<path d="M148.266 205.715C146.064 205.715 144.316 207.456 144.316 209.649C144.316 211.842 146.064 213.583 148.266 213.583C150.467 213.583 152.215 211.842 152.215 209.649C152.28 207.521 150.467 205.715 148.266 205.715ZM148.266 211.842C147.1 211.842 146.129 210.874 146.129 209.714C146.129 208.553 147.1 207.585 148.266 207.585C149.431 207.585 150.402 208.553 150.402 209.714C150.467 210.874 149.496 211.842 148.266 211.842Z" fill="#858585" stroke="#263238" stroke-miterlimit="10" stroke-linecap="round" stroke-linejoin="round"/>
<path d="M171.508 205.715C169.307 205.715 167.559 207.456 167.559 209.649C167.559 211.842 169.307 213.583 171.508 213.583C173.709 213.583 175.457 211.842 175.457 209.649C175.457 207.521 173.709 205.715 171.508 205.715ZM171.508 211.842C170.343 211.842 169.371 210.874 169.371 209.714C169.371 208.553 170.343 207.585 171.508 207.585C172.673 207.585 173.644 208.553 173.644 209.714C173.644 210.874 172.673 211.842 171.508 211.842Z" fill="#858585" stroke="#263238" stroke-miterlimit="10" stroke-linecap="round" stroke-linejoin="round"/>
<path d="M194.234 205.715C192.033 205.715 190.285 207.456 190.285 209.649C190.285 211.842 192.033 213.583 194.234 213.583C196.436 213.583 198.184 211.842 198.184 209.649C198.249 207.521 196.436 205.715 194.234 205.715ZM194.234 211.842C193.069 211.842 192.098 210.874 192.098 209.714C192.098 208.553 193.069 207.585 194.234 207.585C195.4 207.585 196.371 208.553 196.371 209.714C196.371 210.874 195.465 211.842 194.234 211.842Z" fill="#858585" stroke="#263238" stroke-miterlimit="10" stroke-linecap="round" stroke-linejoin="round"/>
<path d="M183.29 151.481C167.687 151.933 152.408 151.288 136.869 149.418C133.697 148.966 131.172 151.159 131.172 154.319C131.172 154.641 131.172 154.77 131.172 155.093C131.172 158.252 133.697 161.219 136.869 161.67C152.408 163.54 167.622 164.185 183.29 163.734C183.29 158.833 183.29 156.382 183.29 151.481Z" fill="#999999" stroke="#263238" stroke-miterlimit="10" stroke-linecap="round" stroke-linejoin="round"/>
<path d="M207.633 161.412C197.986 162.638 188.469 163.411 178.757 163.798C176.427 163.863 174.484 161.993 174.484 159.607C174.484 158.123 174.484 157.414 174.484 155.931C174.484 153.609 176.427 151.675 178.757 151.61C188.469 151.223 197.986 150.385 207.633 149.224C209.964 148.902 211.906 150.514 211.906 152.836C211.906 154.319 211.906 155.028 211.906 156.511C211.841 158.897 209.964 161.09 207.633 161.412Z" fill="#858585" stroke="#263238" stroke-miterlimit="10" stroke-linecap="round" stroke-linejoin="round"/>
<path d="M143.211 211.584C143.211 209.456 142.757 205.135 140.168 199.525L136.866 187.594L126.507 191.979L129.42 201.137C129.42 201.137 120.486 205.393 117.249 206.489C115.047 207.263 108.508 208.746 108.832 211.519C108.832 212.358 109.479 213.002 110.321 213.002H141.721C142.563 213.131 143.211 212.422 143.211 211.584Z" fill="#FFDCCB" stroke="#263238" stroke-miterlimit="10" stroke-linecap="round" stroke-linejoin="round"/>
<path d="M137.513 204.619C135.895 205.78 127.284 207.327 129.42 205.586C131.557 203.845 129.42 201.201 129.42 201.201C129.42 201.201 120.486 205.457 117.249 206.554C115.047 207.327 108.508 208.811 108.832 211.584C108.832 212.422 109.479 213.067 110.321 213.067H141.721C142.563 213.067 143.275 212.358 143.211 211.584C143.211 209.778 142.887 206.425 141.203 202.04C139.455 202.104 139.132 203.458 137.513 204.619Z" fill="#E36F59" stroke="#263238" stroke-miterlimit="10" stroke-linecap="round" stroke-linejoin="round"/>
<path d="M150.722 213.131H173.705C174.159 213.131 174.612 212.809 174.677 212.358C175 210.552 174.936 206.489 172.864 201.072L172.67 190.109L160.886 192.108L162.375 201.459C162.375 201.459 157.649 206.683 155.383 207.585C153.829 208.23 150.204 208.295 149.751 212.1C149.621 212.615 150.139 213.131 150.722 213.131Z" fill="#FFDCCB" stroke="#263238" stroke-miterlimit="10" stroke-linecap="round" stroke-linejoin="round"/>
<path d="M168.981 204.683C166.521 206.36 164.773 206.554 165.873 204.039C167.039 201.524 162.377 201.395 162.377 201.395C162.377 201.395 157.651 206.618 155.385 207.521C153.831 208.166 150.205 208.23 149.752 212.035C149.688 212.615 150.141 213.131 150.723 213.131H173.707C174.16 213.131 174.614 212.809 174.678 212.358C175.002 210.552 174.937 206.489 172.866 201.072C171.053 201.459 171.376 202.942 168.981 204.683Z" fill="#E36F59" stroke="#263238" stroke-miterlimit="10" stroke-linecap="round" stroke-linejoin="round"/>
<path d="M148.392 129.362C148.392 129.362 146.061 131.748 136.608 133.231C127.156 134.715 107.474 139.487 107.733 147.225C107.927 154.964 126.055 196.236 126.055 196.236C126.055 196.236 135.119 194.494 139.328 191.915C139.328 191.915 132.012 162.444 126.573 154.706C126.573 154.706 151.111 151.675 164.707 146.129C178.303 140.518 170.275 127.814 170.275 127.814L148.392 129.362Z" fill="#263238" stroke="#263238" stroke-miterlimit="10" stroke-linecap="round" stroke-linejoin="round"/>
<path d="M163.864 128.33C163.864 128.33 167.36 134.134 164.77 137.358C162.181 140.583 147.419 146.58 149.038 153.932C150.721 161.219 156.224 171.537 159.85 196.042C159.85 196.042 168.202 194.752 173.834 192.366C173.834 192.366 174.741 167.41 168.266 156.705C168.266 156.705 186.912 153.287 188.79 147.032C190.668 140.776 187.171 131.297 187.107 127.879L163.864 128.33Z" fill="#263238" stroke="#263238" stroke-miterlimit="10" stroke-linecap="round" stroke-linejoin="round"/>
<path d="M152.6 137.552C152.211 137.552 151.758 137.552 151.305 137.552" stroke="#7F7F7F" stroke-width="0.75" stroke-linecap="round" stroke-linejoin="round"/>
<path d="M153.441 133.683C153.441 133.683 157.261 134.779 158.75 139.745C158.88 140.131 158.362 140.454 158.103 140.131C157.326 139.358 156.031 138.326 154.413 137.81" stroke="#7F7F7F" stroke-width="0.75" stroke-linecap="round" stroke-linejoin="round"/>
<path d="M124.759 154.512C124.759 152.384 115.695 151.288 118.091 149.353C120.486 147.419 126.054 153.738 126.054 153.738" stroke="#7F7F7F" stroke-width="0.75" stroke-linecap="round" stroke-linejoin="round"/>
<path d="M169.302 162.896C169.302 160.51 160.626 159.155 161.08 156.576C161.533 153.996 167.036 159.091 167.036 159.091" stroke="#7F7F7F" stroke-width="0.75" stroke-linecap="round" stroke-linejoin="round"/>
<path d="M125.148 196.365L126.119 198.557C126.248 198.815 126.507 198.944 126.766 198.88C128.838 198.428 137.578 196.365 140.621 194.172C140.816 194.043 140.88 193.785 140.816 193.592L140.233 191.141C140.168 190.754 139.715 190.625 139.391 190.754C138.032 191.528 134.147 193.269 125.472 195.591C125.148 195.72 124.954 196.042 125.148 196.365Z" fill="#999999" stroke="#263238" stroke-miterlimit="10" stroke-linecap="round" stroke-linejoin="round"/>
<path d="M158.751 194.559C158.686 194.237 159.009 193.979 159.333 194.043C159.981 194.301 161.017 194.43 162.57 194.108C164.966 193.592 171.829 191.399 173.9 190.754C174.159 190.69 174.483 190.883 174.483 191.206V194.043C174.483 194.237 174.354 194.365 174.224 194.43C172.606 195.139 163.995 198.815 159.527 197.783C159.333 197.719 159.204 197.59 159.204 197.396L158.751 194.559Z" fill="#999999" stroke="#263238" stroke-miterlimit="10" stroke-linecap="round" stroke-linejoin="round"/>
<path d="M165.677 134.908C165.612 135.811 165.288 136.649 164.706 137.358C162.828 139.68 154.411 143.549 150.656 148.321" stroke="#7F7F7F" stroke-linecap="round" stroke-linejoin="round"/>
<path d="M165.223 131.619C165.352 132.071 165.482 132.586 165.546 133.102" stroke="#7F7F7F" stroke-linecap="round" stroke-linejoin="round"/>
<path d="M115.695 208.037C115.695 208.037 116.343 209.069 116.861 211.132H140.233C140.233 211.132 140.298 209.585 141.528 208.488" stroke="#263238" stroke-miterlimit="10" stroke-linecap="round" stroke-linejoin="round"/>
<path d="M156.289 208.037C156.289 208.037 159.526 208.295 160.756 211.132H172.993C172.993 211.132 173.64 209.649 173.64 208.488" stroke="#263238" stroke-miterlimit="10" stroke-linecap="round" stroke-linejoin="round"/>
<path d="M137.13 92.9266C137.453 94.0873 137.712 95.1836 138.036 96.2799C141.273 107.888 145.481 130.007 145.481 130.007C166.199 134.392 188.082 130.007 188.082 130.007C188.212 125.17 187.629 118.851 186.982 112.144C190.348 111.177 192.809 108.081 192.938 102.922C193.132 96.6024 191.967 85.317 191.32 80.0291C190.737 75.3859 191.125 72.613 183.939 69.0662C180.313 67.0026 174.292 65.9708 166.911 65.0035C152.344 63.0688 141.856 65.9708 138.101 67.583C135.122 66.8091 134.346 70.2914 134.346 70.2914C132.727 69.0662 130.785 74.2897 130.785 74.2897C125.994 80.3515 122.239 90.605 120.944 94.2808C120.685 95.0547 120.167 95.764 119.455 96.2799C116.023 98.8594 117.966 102.084 117.966 102.084L124.958 104.212C124.958 104.212 128.324 105.115 130.914 100.665C132.986 96.9248 136.547 90.6695 137.13 92.9266Z" fill="#E36F59"/>
<path opacity="0.3" d="M126.187 101.245C126.187 101.245 125.993 98.0211 123.403 97.4407C120.814 96.8603 124.116 95.893 126.187 96.4089C128.194 96.8603 127.741 95.1191 129.489 92.2172C131.237 89.3153 132.079 86.9937 133.568 88.6704C135.057 90.3471 136.546 90.605 137.194 92.8621C137.841 95.1836 134.734 100.601 134.734 100.601L129.878 104.341L127.418 105.695H123.727L122.497 102.535L126.187 101.245Z" fill="black"/>
<path d="M137.13 92.9266C137.453 94.0873 137.712 95.1836 138.036 96.2799C141.273 107.888 145.481 130.007 145.481 130.007C166.199 134.392 188.082 130.007 188.082 130.007C188.212 125.17 187.629 118.851 186.982 112.144C190.348 111.177 192.809 108.081 192.938 102.922C193.132 96.6024 191.967 85.317 191.32 80.0291C190.737 75.3859 191.125 72.613 183.939 69.0662C180.313 67.0026 174.292 65.9708 166.911 65.0035C152.344 63.0688 141.856 65.9708 138.101 67.583C135.122 66.8091 134.346 70.2914 134.346 70.2914C132.727 69.0662 130.785 74.2897 130.785 74.2897C125.994 80.3515 122.239 90.605 120.944 94.2808C120.685 95.0547 120.167 95.764 119.455 96.2799C116.023 98.8594 117.966 102.084 117.966 102.084L124.958 104.212C124.958 104.212 128.324 105.115 130.914 100.665C132.986 96.9248 136.547 90.6695 137.13 92.9266Z" stroke="#263238" stroke-miterlimit="10" stroke-linecap="round" stroke-linejoin="round"/>
<path opacity="0.3" d="M188.084 130.007C188.148 126.525 187.889 122.204 187.501 117.625C188.213 127.427 167.69 130.523 167.042 125.17C166.395 119.818 186.983 112.144 175.782 114.852C166.006 117.174 147.037 114.981 142.375 114.336C144.188 122.72 145.547 130.007 145.547 130.007C166.2 134.328 188.084 130.007 188.084 130.007Z" fill="black"/>
<path opacity="0.3" d="M178.628 80.6739C178.628 80.6739 175.715 89.1863 175.715 93.7004C175.715 98.2145 167.492 101.245 167.492 101.245C171.895 100.343 176.168 99.1818 178.24 98.6015C178.952 98.408 179.47 97.6986 179.405 96.9248C178.952 92.2817 178.563 86.0909 178.628 80.6739Z" fill="black"/>
<path d="M134.409 78.4814C134.409 78.4814 134.279 84.6077 136.545 90.2826C136.74 90.7985 136.157 91.3144 135.704 90.9275C134.603 90.1536 133.049 88.5414 131.625 85.2525" stroke="#263238" stroke-width="0.75" stroke-miterlimit="10" stroke-linecap="round" stroke-linejoin="round"/>
<path d="M189.376 104.857C187.692 99.2463 184.714 97.8276 182.448 97.6342C182.06 97.6342 181.93 97.1183 182.254 96.9248C183.613 96.2154 186.203 95.635 189.376 99.1819" stroke="#263238" stroke-width="0.75" stroke-miterlimit="10" stroke-linecap="round" stroke-linejoin="round"/>
<path d="M156.552 88.6704C156.552 89.1863 156.098 89.6377 155.581 89.6377C155.063 89.6377 154.609 89.1863 154.609 88.6704C154.609 88.1545 155.063 87.7031 155.581 87.7031C156.098 87.7031 156.552 88.1545 156.552 88.6704Z" fill="#999999" stroke="#263238" stroke-width="0.75" stroke-miterlimit="10" stroke-linecap="round" stroke-linejoin="round"/>
<path d="M157.849 99.6333C157.849 100.149 157.395 100.601 156.877 100.601C156.359 100.601 155.906 100.149 155.906 99.6333C155.906 99.1174 156.359 98.666 156.877 98.666C157.395 98.666 157.849 99.1174 157.849 99.6333Z" fill="#999999" stroke="#263238" stroke-width="0.75" stroke-miterlimit="10" stroke-linecap="round" stroke-linejoin="round"/>
<path d="M161.083 126.138C161.083 126.654 160.63 127.105 160.112 127.105C159.594 127.105 159.141 126.654 159.141 126.138C159.141 125.622 159.594 125.17 160.112 125.17C160.63 125.17 161.083 125.557 161.083 126.138Z" fill="#999999" stroke="#263238" stroke-miterlimit="10" stroke-linecap="round" stroke-linejoin="round"/>
<path d="M142.503 106.856C142.503 106.856 139.33 109.887 140.82 109.951C142.309 110.016 144.251 107.952 145.999 107.694C147.747 107.436 144.898 106.404 144.898 106.404L142.503 106.856Z" fill="#FFDCCB" stroke="#263238" stroke-miterlimit="10" stroke-linecap="round" stroke-linejoin="round"/>
<path d="M161.085 103.438C160.826 103.18 160.437 103.051 160.049 103.116C158.495 103.245 154.028 103.567 152.344 103.503C149.366 103.309 140.561 101.439 140.561 101.439C140.367 101.374 140.173 101.439 139.979 101.503L134.54 103.116C134.346 103.18 134.152 103.245 134.022 103.438L130.72 106.469C130.591 106.598 130.526 106.662 130.461 106.791L129.749 108.017C129.49 108.533 129.555 109.177 130.008 109.629L135.447 109.822C135.77 109.822 136.094 109.693 136.353 109.5L137.972 108.146C138.101 108.081 138.166 107.952 138.23 107.823C138.619 107.178 140.173 105.05 142.568 105.244C142.568 105.244 137.389 108.017 138.36 109.113C139.331 110.209 143.28 106.985 144.575 107.307C145.87 107.63 145.935 110.79 152.992 109.629C153.316 109.564 153.639 109.564 153.963 109.693L160.373 111.499C161.15 111.692 161.991 111.241 162.185 110.467C162.639 108.468 163.092 105.244 161.085 103.438Z" fill="#FFDCCB" stroke="#263238" stroke-miterlimit="10" stroke-linecap="round" stroke-linejoin="round"/>
<path d="M141.272 102.6L139.913 102.858C139.265 102.987 138.618 103.245 138.1 103.696L136.675 104.921C136.416 105.115 136.222 105.373 136.028 105.695L135.122 107.114C134.992 107.243 134.927 107.436 134.798 107.565C134.215 108.146 132.726 110.016 134.345 109.758" fill="#FFDCCB"/>
<path d="M141.272 102.6L139.913 102.858C139.265 102.987 138.618 103.245 138.1 103.696L136.675 104.921C136.416 105.115 136.222 105.373 136.028 105.695L135.122 107.114C134.992 107.243 134.927 107.436 134.798 107.565C134.215 108.146 132.726 110.016 134.345 109.758" stroke="#263238" stroke-miterlimit="10" stroke-linecap="round" stroke-linejoin="round"/>
<path d="M137.389 103.051L135.965 103.438C135.512 103.567 135.123 103.76 134.799 104.083L133.699 105.115C133.569 105.244 133.504 105.308 133.44 105.437L131.627 107.823C131.627 107.823 130.656 109.5 131.627 109.564" fill="#FFDCCB"/>
<path d="M137.389 103.051L135.965 103.438C135.512 103.567 135.123 103.76 134.799 104.083L133.699 105.115C133.569 105.244 133.504 105.308 133.44 105.437L131.627 107.823C131.627 107.823 130.656 109.5 131.627 109.564" stroke="#263238" stroke-miterlimit="10" stroke-linecap="round" stroke-linejoin="round"/>
<path d="M178.694 79.2552C178.435 84.9946 178.953 91.8948 179.341 96.9248C179.406 97.6986 178.953 98.3435 178.176 98.6015C175.327 99.4398 168.27 101.374 162.508 102.084" stroke="#263238" stroke-miterlimit="10" stroke-linecap="round" stroke-linejoin="round"/>
<path d="M179.018 75.257C178.954 75.9018 178.889 76.6112 178.824 77.3206" stroke="#263238" stroke-width="0.75" stroke-miterlimit="10" stroke-linecap="round" stroke-linejoin="round"/>
<path d="M181.218 69.2596C180.506 69.9045 179.924 71.0653 179.535 72.613" stroke="#263238" stroke-width="0.75" stroke-miterlimit="10" stroke-linecap="round" stroke-linejoin="round"/>
<path d="M148.782 65.3904C148.782 65.3904 149.17 64.1006 151.372 63.3913C153.573 62.6819 161.148 61.5211 165.032 63.3913C168.917 65.2614 161.472 75.5149 161.472 75.5149L157.975 80.287L154.868 82.6086L153.508 78.5458L151.695 76.6757C151.695 76.6757 147.875 73.5158 148.199 70.4204C148.523 67.325 148.782 65.3904 148.782 65.3904Z" fill="#FFBE9D"/>
<path d="M167.881 65.1324C167.299 63.0043 164.515 62.424 164.515 62.424C151.242 60.1669 148.459 65.0035 148.459 65.0035C145.739 72.484 148.459 78.5459 148.459 78.5459C148.459 78.5459 152.214 76.9981 152.861 78.5459C153.509 80.0936 154.674 83.4469 154.674 83.4469C154.674 83.4469 157.264 82.1572 159.335 79.4487C161.407 76.7402 166.198 79.4487 166.198 79.4487C169.306 74.0317 167.881 65.1324 167.881 65.1324ZM164.644 65.0035C159.53 81.0609 154.998 81.7702 154.998 81.7702C153.508 75.8374 152.214 77.1271 150.142 73.4513C148.523 70.4849 149.041 66.7446 149.365 65.3904C149.43 65.0679 149.624 64.7455 149.948 64.6165C155.062 62.037 161.278 63.0043 163.867 63.5202C164.515 63.6492 164.839 64.3586 164.644 65.0035Z" fill="#E36F59"/>
<path opacity="0.4" d="M167.881 65.1324C167.299 63.0043 164.515 62.424 164.515 62.424C151.242 60.1669 148.459 65.0035 148.459 65.0035C145.739 72.484 148.459 78.5459 148.459 78.5459C148.459 78.5459 152.214 76.9981 152.861 78.5459C153.509 80.0936 154.674 83.4469 154.674 83.4469C154.674 83.4469 157.264 82.1572 159.335 79.4487C161.407 76.7402 166.198 79.4487 166.198 79.4487C169.306 74.0317 167.881 65.1324 167.881 65.1324ZM164.644 65.0035C159.53 81.0609 154.998 81.7702 154.998 81.7702C153.508 75.8374 152.214 77.1271 150.142 73.4513C148.523 70.4849 149.041 66.7446 149.365 65.3904C149.43 65.0679 149.624 64.7455 149.948 64.6165C155.062 62.037 161.278 63.0043 163.867 63.5202C164.515 63.6492 164.839 64.3586 164.644 65.0035Z" fill="white"/>
<path d="M167.881 65.1324C167.299 63.0043 164.515 62.424 164.515 62.424C151.242 60.1669 148.459 65.0035 148.459 65.0035C145.739 72.484 148.459 78.5459 148.459 78.5459C148.459 78.5459 152.214 76.9981 152.861 78.5459C153.509 80.0936 154.674 83.4469 154.674 83.4469C154.674 83.4469 157.264 82.1571 159.335 79.4487C161.407 76.7402 166.198 79.4487 166.198 79.4487C169.306 74.0317 167.881 65.1324 167.881 65.1324ZM164.644 65.0035C159.53 81.0609 154.998 81.7702 154.998 81.7702C153.508 75.8374 152.214 77.1271 150.142 73.4513C148.523 70.4849 149.041 66.7446 149.365 65.3904C149.43 65.0679 149.624 64.7455 149.948 64.6165C155.062 62.037 161.278 63.0043 163.867 63.5202C164.515 63.6492 164.839 64.3586 164.644 65.0035Z" stroke="#263238" stroke-miterlimit="10" stroke-linecap="round" stroke-linejoin="round"/>
<path d="M146.193 40.5627C146.193 40.5627 134.734 42.8197 141.078 50.2358C148.071 58.4902 146.193 40.5627 146.193 40.5627Z" fill="#263238" stroke="#263238" stroke-miterlimit="10" stroke-linecap="round" stroke-linejoin="round"/>
<path d="M141.725 58.6837C141.725 58.6837 139.006 47.7208 144.185 42.4328C149.365 37.1448 154.997 36.113 159.206 38.6925C163.414 41.272 165.162 47.7208 164.515 51.0741C163.867 54.4275 164.191 66.3577 158.429 71.2588C152.667 76.2243 149.106 74.999 145.286 68.2278C142.696 63.7782 141.531 62.5529 141.725 58.6837Z" fill="#FFDCCB" stroke="#263238" stroke-miterlimit="10" stroke-linecap="round" stroke-linejoin="round"/>
<path d="M161.732 56.4911C161.732 56.4911 157.394 52.1704 156.035 47.1404C154.675 42.1104 153.963 41.2075 148.978 43.7226C143.993 46.1731 136.288 42.8842 138.295 36.6289C140.432 30.0512 146.906 38.5636 153.186 36.4355C159.466 34.3074 163.869 38.1766 163.869 43.8515C163.869 43.8515 167.624 47.5273 163.869 56.9425L161.732 56.4911Z" fill="#263238" stroke="#263238" stroke-miterlimit="10" stroke-linecap="round" stroke-linejoin="round"/>
<path d="M160.371 55.7817C160.371 55.7817 161.472 49.7844 164.515 50.3003C167.558 50.8807 165.356 59.7155 161.795 58.7482" fill="#FFDCCB"/>
<path d="M160.371 55.7817C160.371 55.7817 161.472 49.7844 164.515 50.3003C167.558 50.8807 165.356 59.7155 161.795 58.7482" stroke="#263238" stroke-miterlimit="10" stroke-linecap="round" stroke-linejoin="round"/>
<path d="M145.804 57.8453C145.804 57.8453 144.574 63.3913 144.963 64.3586C145.351 65.3259 149.041 64.552 149.041 64.552" fill="#FFDCCB"/>
<path d="M145.804 57.8453C145.804 57.8453 144.574 63.3913 144.963 64.3586C145.351 65.3259 149.041 64.552 149.041 64.552" stroke="#263238" stroke-miterlimit="10" stroke-linecap="round" stroke-linejoin="round"/>
<path d="M149.625 67.0026C149.625 67.0026 152.538 68.1633 155.063 64.3586L149.625 67.0026Z" fill="#FFDCCB"/>
<path d="M149.625 67.0026C149.625 67.0026 152.538 68.1633 155.063 64.3586" stroke="#263238" stroke-miterlimit="10" stroke-linecap="round" stroke-linejoin="round"/>
<path d="M143.863 58.2968C143.992 58.8127 143.863 59.2641 143.539 59.3286C143.28 59.393 142.956 59.0061 142.827 58.4902C142.697 57.9743 142.827 57.5229 143.151 57.4584C143.41 57.3939 143.733 57.7808 143.863 58.2968Z" fill="#263238"/>
<path d="M150.921 57.7164C151.051 58.2323 150.921 58.6837 150.598 58.7482C150.339 58.8126 150.015 58.4257 149.886 57.9098C149.756 57.3939 149.886 56.9425 150.209 56.878C150.533 56.8135 150.857 57.2005 150.921 57.7164Z" fill="#263238"/>
<path d="M145.352 58.0388C145.481 59.522 143.992 60.8118 142.05 61.0697C140.108 61.2632 138.36 60.2314 138.23 58.7482C138.101 57.2649 139.655 56.6201 141.597 56.4266C143.539 56.2976 145.222 56.6201 145.352 58.0388Z" stroke="#263238" stroke-miterlimit="10" stroke-linecap="round" stroke-linejoin="round"/>
<path d="M154.481 57.136C154.61 58.6192 153.121 59.9089 151.179 60.1669C149.237 60.3604 147.489 59.3285 147.359 57.8453C147.23 56.3621 148.783 55.7172 150.726 55.5238C152.733 55.3303 154.351 55.6528 154.481 57.136Z" stroke="#263238" stroke-miterlimit="10" stroke-linecap="round" stroke-linejoin="round"/>
<path d="M145.352 58.0388L147.359 57.8453" stroke="#263238" stroke-miterlimit="10" stroke-linecap="round" stroke-linejoin="round"/>
<path d="M154.223 56.4266L161.798 51.977" stroke="#263238" stroke-miterlimit="10" stroke-linecap="round" stroke-linejoin="round"/>
<path d="M163.09 63.2623L163.414 64.1651" stroke="#263238" stroke-miterlimit="10" stroke-linecap="round" stroke-linejoin="round"/>
<path d="M141.078 55.7172C141.078 55.7172 142.244 54.234 143.603 54.9434L141.078 55.7172Z" fill="#FFDCCB"/>
<path d="M141.078 55.7172C141.078 55.7172 142.244 54.234 143.603 54.9434" stroke="#263238" stroke-miterlimit="10" stroke-linecap="round" stroke-linejoin="round"/>
<path d="M152.797 55.0724C152.797 55.0724 150.79 53.1377 148.848 54.492L152.797 55.0724Z" fill="#FFDCCB"/>
<path d="M152.797 55.0724C152.797 55.0724 150.79 53.1377 148.848 54.492" stroke="#263238" stroke-miterlimit="10" stroke-linecap="round" stroke-linejoin="round"/>
<path d="M143.672 37.3383C146.715 38.3056 151.894 39.4664 156.103 38.2411C162.512 36.3065 160.376 43.5291 161.8 45.5282" stroke="#7F7F7F" stroke-linecap="round" stroke-linejoin="round"/>
<path d="M141.016 36.371C141.016 36.371 141.534 36.5644 142.375 36.8869" stroke="#7F7F7F" stroke-linecap="round" stroke-linejoin="round"/>
<path d="M148.719 40.9496C149.042 40.8206 149.431 40.6916 149.819 40.5627" stroke="#7F7F7F" stroke-linecap="round" stroke-linejoin="round"/>
<path d="M141.727 40.1113C141.727 40.1113 143.086 42.2393 147.489 41.272" stroke="#7F7F7F" stroke-linecap="round" stroke-linejoin="round"/>
<path d="M158.172 44.2385C158.431 46.0441 159.143 48.7526 160.891 51.1386" stroke="#7F7F7F" stroke-linecap="round" stroke-linejoin="round"/>
<path d="M157.977 41.9814C157.977 41.9814 157.977 42.4328 158.041 43.1422" stroke="#7F7F7F" stroke-linecap="round" stroke-linejoin="round"/>
<path opacity="0.3" d="M163.737 111.112C163.219 111.563 163.543 112.402 164.19 112.466C168.593 112.466 180.376 112.531 184.908 112.273C190.606 111.95 186.268 105.824 181.671 108.146C177.528 110.274 168.722 106.662 163.737 111.112Z" fill="black"/>
<path d="M114.402 105.115C114.402 105.115 117.057 98.0856 123.661 99.1819C130.394 100.278 125.214 105.824 122.042 106.34C122.107 106.34 121.589 104.405 114.402 105.115Z" fill="white" stroke="#263238" stroke-miterlimit="10" stroke-linecap="round" stroke-linejoin="round"/>
<path d="M108.77 109.048C107.864 109.951 105.792 110.016 107.216 108.081C108.77 106.018 110.518 105.308 111.748 104.728C114.921 103.309 116.151 103.631 119 102.987C121.848 102.342 122.366 103.503 123.402 104.083C125.733 105.373 126.316 105.566 126.898 106.856C127.481 108.146 128.128 109.822 126.316 109.822C124.632 109.822 124.503 107.049 122.884 107.178C121.266 107.307 120.424 109.822 119.323 109.822C118.223 109.822 119.841 109.822 118.87 109.822C117.899 109.822 117.834 109.048 118.417 107.759C119 106.469 119.647 105.373 119.647 105.373C119.647 105.373 118.223 106.018 117.446 107.63C116.669 109.306 116.539 109.951 115.115 109.951C113.691 109.951 113.755 108.919 115.18 106.533C115.18 106.533 113.885 107.243 113.173 108.533C112.461 109.822 112.137 109.758 111.166 109.758C109.936 109.758 110.065 107.759 112.202 106.469C112.331 106.598 111.813 106.018 108.77 109.048Z" fill="white" stroke="#263238" stroke-miterlimit="10" stroke-linecap="round" stroke-linejoin="round"/>
<path d="M117.121 104.341C117.121 104.341 116.28 104.276 115.762 105.695L117.121 104.341Z" fill="white"/>
<path d="M117.121 104.341C117.121 104.341 116.28 104.276 115.762 105.695" stroke="#263238" stroke-width="0.75" stroke-miterlimit="10" stroke-linecap="round" stroke-linejoin="round"/>
<path d="M223.496 43.6581C227.64 46.8824 231.589 50.4293 235.409 54.1695" stroke="#263238" stroke-width="0.75" stroke-miterlimit="10" stroke-linecap="round" stroke-linejoin="round"/>
<path d="M218.961 40.2402C219.738 40.8206 220.515 41.401 221.292 41.9814" stroke="#263238" stroke-width="0.75" stroke-miterlimit="10" stroke-linecap="round" stroke-linejoin="round"/>
<path d="M214.496 37.1448C215.338 37.6607 216.115 38.2411 216.892 38.757" stroke="#263238" stroke-width="0.75" stroke-miterlimit="10" stroke-linecap="round" stroke-linejoin="round"/>
<path d="M181.348 21.5388C191.966 24.8277 202.195 29.4708 211.842 35.4682" stroke="#263238" stroke-width="0.75" stroke-miterlimit="10" stroke-linecap="round" stroke-linejoin="round"/>
<path d="M174.289 19.6042C175.584 19.9266 176.879 20.3136 178.238 20.636" stroke="#263238" stroke-width="0.75" stroke-miterlimit="10" stroke-linecap="round" stroke-linejoin="round"/>
<path d="M167.039 17.992C168.463 18.25 169.888 18.5724 171.312 18.8948" stroke="#263238" stroke-width="0.75" stroke-miterlimit="10" stroke-linecap="round" stroke-linejoin="round"/>
<path d="M160.5 16.8957C161.73 17.0892 162.96 17.2827 164.19 17.4761" stroke="#263238" stroke-width="0.75" stroke-miterlimit="10" stroke-linecap="round" stroke-linejoin="round"/>
<path d="M121.461 17.1537C133.438 15.2835 145.675 15.0901 157.717 16.5088" stroke="#263238" stroke-width="0.75" stroke-miterlimit="10" stroke-linecap="round" stroke-linejoin="round"/>
<path d="M116.148 18.121C117.249 17.9275 118.35 17.6696 119.45 17.5406" stroke="#263238" stroke-width="0.75" stroke-miterlimit="10" stroke-linecap="round" stroke-linejoin="round"/>
<path d="M110.973 19.2173C112.073 18.9593 113.174 18.7014 114.275 18.4434" stroke="#263238" stroke-width="0.75" stroke-miterlimit="10" stroke-linecap="round" stroke-linejoin="round"/>
<path d="M104.562 20.894C105.663 20.5715 106.829 20.2491 107.929 19.9267" stroke="#263238" stroke-width="0.75" stroke-miterlimit="10" stroke-linecap="round" stroke-linejoin="round"/>
<path d="M66.0391 39.3374C76.9159 31.7279 88.7639 25.924 101 21.9902" stroke="#263238" stroke-width="0.75" stroke-miterlimit="10" stroke-linecap="round" stroke-linejoin="round"/>
<path d="M60.8594 43.2067C61.8953 42.4328 62.8664 41.659 63.9023 40.8851" stroke="#263238" stroke-width="0.75" stroke-miterlimit="10" stroke-linecap="round" stroke-linejoin="round"/>
<path d="M55.6133 47.4628C56.7139 46.4955 57.8145 45.5927 58.9799 44.6899" stroke="#263238" stroke-width="0.75" stroke-miterlimit="10" stroke-linecap="round" stroke-linejoin="round"/>
<path d="M48.3633 54.1695C49.8524 52.6863 51.4062 51.2031 53.0248 49.7844" stroke="#263238" stroke-width="0.75" stroke-miterlimit="10" stroke-linecap="round" stroke-linejoin="round"/>
<path d="M82.871 46.689C91.7744 46.689 98.9921 39.4998 98.9921 30.6316C98.9921 21.7633 91.7744 14.5742 82.871 14.5742C73.9676 14.5742 66.75 21.7633 66.75 30.6316C66.75 39.4998 73.9676 46.689 82.871 46.689Z" fill="#92E3A9"/>
<path opacity="0.3" d="M98.5551 34.3323C100.619 25.7053 95.2706 17.0453 86.6094 14.9896C77.9482 12.9339 69.2538 18.2611 67.19 26.8881C65.1262 35.5152 70.4744 44.1752 79.1357 46.2309C87.7969 48.2865 96.4913 42.9594 98.5551 34.3323Z" fill="white"/>
<path d="M75.1643 36.9514V32.8887C75.1643 31.8569 74.9053 31.5989 73.8047 31.5989V29.6643C74.9053 29.6643 75.1643 29.3418 75.1643 28.3745V24.3763C75.1643 22.6996 76.2649 21.9258 77.6245 21.9258H78.8547V23.8604H78.5309C77.754 23.8604 77.3656 24.1828 77.3656 25.4081V28.697C77.3656 29.4708 77.1066 30.3091 76.006 30.6316V30.6961C77.0418 31.0185 77.3656 31.8568 77.3656 32.6307V35.9196C77.3656 37.1448 77.754 37.4673 78.5309 37.4673H78.8547V39.4019H77.6245C76.2002 39.3374 75.1643 38.5636 75.1643 36.9514Z" fill="white"/>
<path d="M86.9492 37.4028H87.2729C88.0499 37.4028 88.4383 37.0803 88.4383 35.8551V32.5662C88.4383 31.7924 88.6973 30.954 89.7979 30.6316V30.5671C88.762 30.2447 88.4383 29.4063 88.4383 28.6325V25.3436C88.4383 24.1183 88.0499 23.7959 87.2729 23.7959H86.9492V21.8613H88.1793C89.5389 21.8613 90.6396 22.6351 90.6396 24.3118V28.31C90.6396 29.3418 90.8986 29.5998 91.9992 29.5998V31.5344C90.8986 31.5344 90.6396 31.8569 90.6396 32.8242V36.8224C90.6396 38.4991 89.5389 39.2729 88.1793 39.2729H86.9492V37.4028Z" fill="white"/>
<path d="M51.6664 75.7729H42.3434C38.0703 75.7729 34.5742 72.2906 34.5742 68.0344V58.8126C34.5742 54.5565 38.0703 51.0741 42.3434 51.0741H51.6664C55.9395 51.0741 59.4356 54.5565 59.4356 58.8126V68.0989C59.3708 72.355 55.9395 75.7729 51.6664 75.7729Z" fill="#E36F59"/>
<path d="M38.0039 64.0361V62.8109L42.9891 60.6828V61.9725L39.5577 63.3913L42.9891 64.81V66.0997L38.0039 64.0361Z" fill="white"/>
<path d="M48.4907 57.7808H50.0446L45.5773 69.0662H44.0234L48.4907 57.7808Z" fill="white"/>
<path d="M51.0156 64.8745L54.447 63.4558L51.0156 62.037V60.7473L55.9361 62.8754V64.1006L51.0156 66.2287V64.8745Z" fill="white"/>
<path d="M197.144 40.6916C204.724 40.6916 210.869 34.5708 210.869 27.0203C210.869 19.4698 204.724 13.3489 197.144 13.3489C189.563 13.3489 183.418 19.4698 183.418 27.0203C183.418 34.5708 189.563 40.6916 197.144 40.6916Z" fill="#70CAFC"/>
<path d="M188.664 29.8577V24.1828C188.664 22.5706 189.506 21.6033 191.124 21.6033C192.743 21.6033 193.585 22.5706 193.585 24.1828V25.2791H192.031V24.0539C192.031 23.3445 191.707 23.0865 191.189 23.0865C190.671 23.0865 190.347 23.3445 190.347 24.0539V29.9222C190.347 30.6316 190.671 30.8895 191.189 30.8895C191.707 30.8895 192.031 30.6316 192.031 29.9222V28.31H193.585V29.7932C193.585 31.4054 192.743 32.3727 191.124 32.3727C189.506 32.4372 188.664 31.4699 188.664 29.8577Z" fill="white"/>
<path d="M196.37 27.6007H194.363V26.4399H196.37V24.3763H197.536V26.4399H199.543V27.6007H197.536V29.6643H196.37V27.6007Z" fill="white"/>
<path d="M202.456 27.6007H200.449V26.4399H202.456V24.3763H203.622V26.4399H205.629V27.6007H203.622V29.6643H202.456V27.6007Z" fill="white"/>
<path d="M144.443 30.1802H132.012C127.156 30.1802 123.207 26.2464 123.207 21.4099V9.02826C123.207 4.19169 127.156 0.25795 132.012 0.25795H144.443C149.299 0.25795 153.248 4.19169 153.248 9.02826V21.4099C153.248 26.2464 149.299 30.1802 144.443 30.1802Z" fill="#E36F59"/>
<path d="M129.227 18.379V12.0592C129.227 10.2535 130.198 9.15723 131.946 9.15723C133.759 9.15723 134.665 10.2535 134.665 12.0592V13.2844H132.917V11.9302C132.917 11.1563 132.528 10.8339 132.011 10.8339C131.428 10.8339 131.104 11.1563 131.104 11.9302V18.5079C131.104 19.2818 131.493 19.6042 132.011 19.6042C132.593 19.6042 132.917 19.2818 132.917 18.5079V16.7023H134.665V18.379C134.665 20.1846 133.694 21.2809 131.946 21.2809C130.133 21.2164 129.227 20.1846 129.227 18.379Z" fill="white"/>
<path d="M135.508 18.25V17.6051H137.256V18.379C137.256 19.2173 137.644 19.5397 138.227 19.5397C138.81 19.5397 139.198 19.2173 139.198 18.379C139.198 17.4116 138.81 16.7668 137.644 15.735C136.091 14.3807 135.573 13.4134 135.573 12.0592C135.573 10.189 136.544 9.15723 138.357 9.15723C140.169 9.15723 141.076 10.2535 141.076 12.1237V12.6396H139.198V12.0592C139.198 11.2208 138.874 10.8984 138.292 10.8984C137.709 10.8984 137.385 11.2208 137.385 11.9947C137.385 12.833 137.774 13.4779 139.004 14.5097C140.558 15.8639 141.011 16.8313 141.011 18.25C141.011 20.1846 140.04 21.2164 138.227 21.2164C136.414 21.2164 135.508 20.1846 135.508 18.25Z" fill="white"/>
<path d="M141.723 18.25V17.6051H143.471V18.379C143.471 19.2173 143.859 19.5397 144.442 19.5397C145.025 19.5397 145.413 19.2173 145.413 18.379C145.413 17.4116 145.025 16.7668 143.859 15.735C142.305 14.3807 141.787 13.4134 141.787 12.0592C141.787 10.189 142.759 9.15723 144.571 9.15723C146.384 9.15723 147.291 10.2535 147.291 12.1237V12.6396H145.543V12.0592C145.543 11.2208 145.219 10.8984 144.636 10.8984C144.053 10.8984 143.73 11.2208 143.73 11.9947C143.73 12.833 144.118 13.4779 145.348 14.5097C146.902 15.8639 147.355 16.8313 147.355 18.25C147.355 20.1846 146.384 21.2164 144.571 21.2164C142.629 21.2164 141.723 20.1846 141.723 18.25Z" fill="white"/>
<path d="M233.464 69.6466C241.044 69.6466 247.189 63.5257 247.189 55.9752C247.189 48.4247 241.044 42.3038 233.464 42.3038C225.883 42.3038 219.738 48.4247 219.738 55.9752C219.738 63.5257 225.883 69.6466 233.464 69.6466Z" fill="#E36F59"/>
<path opacity="0.3" d="M246.864 59.1315C248.622 51.7864 244.069 44.4126 236.695 42.6617C229.32 40.9107 221.917 45.4457 220.16 52.7908C218.402 60.1359 222.955 67.5097 230.329 69.2607C237.703 71.0116 245.106 66.4767 246.864 59.1315Z" fill="white"/>
<path d="M228.09 58.6837V53.2667C228.09 51.719 228.932 50.8162 230.421 50.8162C231.974 50.8162 232.751 51.719 232.751 53.2667V54.363H231.262V53.2022C231.262 52.5574 230.939 52.2349 230.485 52.2349C230.032 52.2349 229.708 52.4929 229.708 53.2022V58.8126C229.708 59.4575 230.032 59.7155 230.485 59.7155C230.939 59.7155 231.262 59.4575 231.262 58.8126V57.2649H232.751V58.6837C232.751 60.2314 231.91 61.1342 230.421 61.1342C228.867 61.1342 228.09 60.2314 228.09 58.6837Z" fill="white"/>
<path d="M234.111 58.1033H233.398L233.528 57.007H234.24L234.499 54.363H233.722L233.852 53.2667H234.564L234.823 50.9452H236.053L235.794 53.2667H236.83L237.089 50.9452H238.319L238.06 53.2667H238.772L238.643 54.363H237.93L237.671 57.007H238.384L238.254 58.1033H237.607L237.283 61.0052H236.053L236.377 58.1033H235.341L235.017 61.0052H233.787L234.111 58.1033ZM236.506 57.007L236.765 54.363H235.729L235.47 57.007H236.506Z" fill="white"/>
<path d="M71.4085 213.196H68.9482L68.3008 118.27H71.4085V213.196Z" fill="#858585" stroke="#263238" stroke-miterlimit="10" stroke-linecap="round" stroke-linejoin="round"/>
<path d="M73.8056 213.196H71.4102V118.27H74.4531L73.8056 213.196Z" fill="#999999" stroke="#263238" stroke-miterlimit="10" stroke-linecap="round" stroke-linejoin="round"/>
<path d="M208.472 112.466H43.8945V118.27H208.472V112.466Z" fill="#263238" stroke="#263238" stroke-miterlimit="10" stroke-linecap="round" stroke-linejoin="round"/>
<path d="M242.851 112.466H206.012V118.27H242.851V112.466Z" fill="#858585" stroke="#263238" stroke-miterlimit="10" stroke-linecap="round" stroke-linejoin="round"/>
<path d="M215.918 118.27H52.3125V127.879H215.918V118.27Z" fill="#70CAFC" stroke="#263238" stroke-miterlimit="10"/>
<path d="M234.952 118.27H215.918V127.879H234.952V118.27Z" fill="#70CAFC"/>
<path opacity="0.3" d="M215.997 127.839H235.031V118.23H215.997V127.839Z" fill="black"/>
<path d="M234.952 118.27H215.918V127.879H234.952V118.27Z" stroke="#263238" stroke-miterlimit="10"/>
<path d="M215.918 213.196H213.522L212.875 118.27H215.918V213.196Z" fill="#858585" stroke="#263238" stroke-miterlimit="10" stroke-linecap="round" stroke-linejoin="round"/>
<path d="M218.378 213.196H215.918V118.27H219.026L218.378 213.196Z" fill="#999999" stroke="#263238" stroke-miterlimit="10" stroke-linecap="round" stroke-linejoin="round"/>
<path d="M52.3125 213.196H49.917L49.2695 118.27H52.3125V213.196Z" fill="#858585" stroke="#263238" stroke-miterlimit="10" stroke-linecap="round" stroke-linejoin="round"/>
<path d="M54.708 213.196H52.3125V118.27H55.3554L54.708 213.196Z" fill="#999999" stroke="#263238" stroke-miterlimit="10" stroke-linecap="round" stroke-linejoin="round"/>
<path d="M235.016 213.196H232.62L231.973 118.27H235.016V213.196Z" fill="#858585" stroke="#263238" stroke-miterlimit="10" stroke-linecap="round" stroke-linejoin="round"/>
<path d="M237.411 213.196H235.016V118.27H238.059L237.411 213.196Z" fill="#999999" stroke="#263238" stroke-miterlimit="10" stroke-linecap="round" stroke-linejoin="round"/>
<path d="M150.267 111.821H130.974C130.585 111.821 130.262 111.499 130.262 111.112V109.5L150.98 110.145V111.112C150.98 111.499 150.656 111.821 150.267 111.821Z" fill="#858585" stroke="#263238" stroke-miterlimit="10" stroke-linecap="round" stroke-linejoin="round"/>
<path d="M128.125 111.821H89.3439C88.6965 111.821 88.1138 111.37 87.9196 110.725L79.5677 83.8338C79.3088 83.1245 79.8267 82.4151 80.5389 82.4151H119.32C119.967 82.4151 120.55 82.8665 120.744 83.5114L129.096 110.403C129.29 111.177 128.837 111.821 128.125 111.821Z" fill="#999999" stroke="#263238" stroke-miterlimit="10" stroke-linecap="round" stroke-linejoin="round"/>
<path d="M130.845 110.403L122.493 83.5114C122.298 82.8665 121.716 82.4151 121.068 82.4151H119.32C119.968 82.4151 120.55 82.8665 120.745 83.5114L129.097 110.403C129.355 111.112 128.838 111.821 128.125 111.821H129.873C130.586 111.821 131.039 111.177 130.845 110.403Z" fill="#858585" stroke="#263238" stroke-miterlimit="10" stroke-linecap="round" stroke-linejoin="round"/>
<path d="M106.695 97.1183C106.889 98.408 105.918 99.5043 104.623 99.5043C103.328 99.5043 102.098 98.408 101.904 97.1183C101.709 95.8285 102.681 94.7322 103.975 94.7322C105.27 94.7322 106.565 95.764 106.695 97.1183Z" fill="white" stroke="#263238" stroke-miterlimit="10" stroke-linecap="round" stroke-linejoin="round"/>
</g>
<defs>
<clipPath id="clip0_87_26904">
<rect width="276" height="213.97" fill="white"/>
</clipPath>
</defs>
</svg>
