<svg width="270" height="58" viewBox="0 0 270 58" fill="none" xmlns="http://www.w3.org/2000/svg">
<path d="M251.664 41.6399C257.609 46.2662 263.276 51.3551 268.756 56.7216" stroke="#263238" stroke-width="0.75" stroke-miterlimit="10" stroke-linecap="round" stroke-linejoin="round"/>
<path d="M245.162 36.7358C246.277 37.5686 247.392 38.4013 248.506 39.234" stroke="#263238" stroke-width="0.75" stroke-miterlimit="10" stroke-linecap="round" stroke-linejoin="round"/>
<path d="M238.752 32.2947C239.96 33.0349 241.074 33.8676 242.189 34.6078" stroke="#263238" stroke-width="0.75" stroke-miterlimit="10" stroke-linecap="round" stroke-linejoin="round"/>
<path d="M191.191 9.90356C206.426 14.6224 221.103 21.2842 234.944 29.8891" stroke="#263238" stroke-width="0.75" stroke-miterlimit="10" stroke-linecap="round" stroke-linejoin="round"/>
<path d="M181.066 7.12769C182.924 7.59031 184.782 8.14547 186.733 8.6081" stroke="#263238" stroke-width="0.75" stroke-miterlimit="10" stroke-linecap="round" stroke-linejoin="round"/>
<path d="M170.662 4.8147C172.706 5.1848 174.749 5.64743 176.793 6.11006" stroke="#263238" stroke-width="0.75" stroke-miterlimit="10" stroke-linecap="round" stroke-linejoin="round"/>
<path d="M161.28 3.2417C163.045 3.51928 164.81 3.79685 166.575 4.07443" stroke="#263238" stroke-width="0.75" stroke-miterlimit="10" stroke-linecap="round" stroke-linejoin="round"/>
<path d="M105.266 3.61178C122.451 0.928536 140.007 0.650959 157.285 2.68652" stroke="#263238" stroke-width="0.75" stroke-miterlimit="10" stroke-linecap="round" stroke-linejoin="round"/>
<path d="M97.6484 4.99972C99.2276 4.72215 100.807 4.35204 102.386 4.16699" stroke="#263238" stroke-width="0.75" stroke-miterlimit="10" stroke-linecap="round" stroke-linejoin="round"/>
<path d="M90.2168 6.57271C91.796 6.20261 93.3751 5.8325 94.9543 5.4624" stroke="#263238" stroke-width="0.75" stroke-miterlimit="10" stroke-linecap="round" stroke-linejoin="round"/>
<path d="M81.0205 8.97822C82.5997 8.51559 84.2717 8.05296 85.8509 7.59033" stroke="#263238" stroke-width="0.75" stroke-miterlimit="10" stroke-linecap="round" stroke-linejoin="round"/>
<path d="M25.75 35.4407C41.3559 24.5226 58.3552 16.1953 75.9119 10.5513" stroke="#263238" stroke-width="0.75" stroke-miterlimit="10" stroke-linecap="round" stroke-linejoin="round"/>
<path d="M18.3184 40.9921C19.8046 39.8817 21.198 38.7714 22.6843 37.6611" stroke="#263238" stroke-width="0.75" stroke-miterlimit="10" stroke-linecap="round" stroke-linejoin="round"/>
<path d="M10.7949 47.0987C12.3741 45.7108 13.9533 44.4155 15.6253 43.1201" stroke="#263238" stroke-width="0.75" stroke-miterlimit="10" stroke-linecap="round" stroke-linejoin="round"/>
<path d="M0.390625 56.7214C2.52715 54.5933 4.75657 52.4653 7.07888 50.4297" stroke="#263238" stroke-width="0.75" stroke-miterlimit="10" stroke-linecap="round" stroke-linejoin="round"/>
</svg>
