<svg width="40" height="40" viewBox="0 0 40 40" fill="none" xmlns="http://www.w3.org/2000/svg">
<path d="M19.8572 39.3837C30.7335 39.3837 39.5504 30.6016 39.5504 19.7683C39.5504 8.93496 30.7335 0.152832 19.8572 0.152832C8.98101 0.152832 0.164062 8.93496 0.164062 19.7683C0.164062 30.6016 8.98101 39.3837 19.8572 39.3837Z" fill="#70CAFC"/>
<path d="M7.68848 23.8394V15.6971C7.68848 13.384 8.89609 11.9961 11.2184 11.9961C13.5407 11.9961 14.7483 13.384 14.7483 15.6971V17.2701H12.5189V15.5121C12.5189 14.4943 12.0544 14.1242 11.3113 14.1242C10.5681 14.1242 10.1037 14.4943 10.1037 15.5121V23.9319C10.1037 24.9497 10.5681 25.3198 11.3113 25.3198C12.0544 25.3198 12.5189 24.9497 12.5189 23.9319V21.6188H14.7483V23.7468C14.7483 26.06 13.5407 27.4479 11.2184 27.4479C8.89609 27.5404 7.68848 26.1525 7.68848 23.8394Z" fill="white"/>
<path d="M18.7429 20.6009H15.8633V18.9354H18.7429V15.9746H20.415V18.9354H23.2947V20.6009H20.415V23.5617H18.7429V20.6009Z" fill="white"/>
<path d="M27.4744 20.6009H24.5947V18.9354H27.4744V15.9746H29.1464V18.9354H32.0261V20.6009H29.1464V23.5617H27.4744V20.6009Z" fill="white"/>
</svg>
