<svg width="44" height="44" viewBox="0 0 44 44" fill="none" xmlns="http://www.w3.org/2000/svg">
<path d="M31.2431 43.302H13.4078C6.44084 43.302 0.774414 37.6579 0.774414 30.7185V12.9536C0.774414 6.01418 6.44084 0.370117 13.4078 0.370117H31.2431C38.21 0.370117 43.8765 6.01418 43.8765 12.9536V30.7185C43.8765 37.6579 38.21 43.302 31.2431 43.302Z" fill="#E36F59"/>
<path d="M9.41309 26.3698V17.3023C9.41309 14.7116 10.8065 13.1387 13.3146 13.1387C15.9155 13.1387 17.216 14.7116 17.216 17.3023V19.0603H14.7079V17.1173C14.7079 16.007 14.1506 15.5443 13.4074 15.5443C12.5714 15.5443 12.107 16.007 12.107 17.1173V26.5549C12.107 27.6652 12.6643 28.1278 13.4074 28.1278C14.2435 28.1278 14.7079 27.6652 14.7079 26.5549V23.9642H17.216V26.3698C17.216 28.9606 15.8227 30.5335 13.3146 30.5335C10.7136 30.441 9.41309 28.9606 9.41309 26.3698Z" fill="white"/>
<path d="M18.4238 26.1848V25.2595H20.9319V26.3698C20.9319 27.5727 21.4893 28.0353 22.3253 28.0353C23.1613 28.0353 23.7187 27.5727 23.7187 26.3698C23.7187 24.982 23.1613 24.0567 21.4893 22.5763C19.2599 20.6332 18.5167 19.2454 18.5167 17.3023C18.5167 14.6191 19.9101 13.1387 22.5111 13.1387C25.1121 13.1387 26.4126 14.7116 26.4126 17.3948V18.1351H23.7187V17.3023C23.7187 16.0995 23.2542 15.6369 22.4182 15.6369C21.5822 15.6369 21.1177 16.0995 21.1177 17.2098C21.1177 18.4126 21.6751 19.3379 23.44 20.8183C25.6694 22.7613 26.3197 24.1492 26.3197 26.1848C26.3197 28.9606 24.9263 30.441 22.3253 30.441C19.7243 30.441 18.4238 28.9606 18.4238 26.1848Z" fill="white"/>
<path d="M27.3408 26.1848V25.2595H29.8489V26.3698C29.8489 27.5727 30.4063 28.0353 31.2423 28.0353C32.0783 28.0353 32.6357 27.5727 32.6357 26.3698C32.6357 24.982 32.0783 24.0567 30.4063 22.5763C28.1769 20.6332 27.4337 19.2454 27.4337 17.3023C27.4337 14.6191 28.8271 13.1387 31.4281 13.1387C34.0291 13.1387 35.3296 14.7116 35.3296 17.3948V18.1351H32.8215V17.3023C32.8215 16.0995 32.357 15.6369 31.521 15.6369C30.6849 15.6369 30.2205 16.0995 30.2205 17.2098C30.2205 18.4126 30.7778 19.3379 32.5428 20.8183C34.7722 22.7613 35.4225 24.1492 35.4225 26.1848C35.4225 28.9606 34.0291 30.441 31.4281 30.441C28.6413 30.441 27.3408 28.9606 27.3408 26.1848Z" fill="white"/>
</svg>
