<svg width="48" height="48" viewBox="0 0 48 48" fill="none" xmlns="http://www.w3.org/2000/svg">
<path d="M23.9696 43.9276C34.8458 43.9276 43.6627 35.1455 43.6627 24.3122C43.6627 13.4789 34.8458 4.69678 23.9696 4.69678C13.0933 4.69678 4.27637 13.4789 4.27637 24.3122C4.27637 35.1455 13.0933 43.9276 23.9696 43.9276Z" fill="#E36F59"/>
<path opacity="0.3" d="M43.1954 28.8409C45.7176 18.3023 39.1851 7.72248 28.6047 5.21024C18.0243 2.69799 7.40253 9.20465 4.88033 19.7433C2.35813 30.2819 8.89059 40.8618 19.471 43.374C30.0514 45.8863 40.6732 39.3796 43.1954 28.8409Z" fill="white"/>
<path d="M16.2598 28.1983V20.4261C16.2598 18.2055 17.4674 16.9102 19.6039 16.9102C21.8333 16.9102 22.948 18.2055 22.948 20.4261V21.9991H20.8115V20.3336C20.8115 19.4083 20.347 18.9457 19.6968 18.9457C19.0465 18.9457 18.5821 19.3158 18.5821 20.3336V28.3833C18.5821 29.3086 19.0465 29.6787 19.6968 29.6787C20.347 29.6787 20.8115 29.3086 20.8115 28.3833V26.1627H22.948V28.1983C22.948 30.4189 21.7404 31.7143 19.6039 31.7143C17.3745 31.7143 16.2598 30.4189 16.2598 28.1983Z" fill="white"/>
<path d="M24.8988 27.3656H23.877L24.0627 25.7926H25.0845L25.4561 21.9991H24.3414L24.5272 20.4261H25.549L25.9206 17.0952H27.6855L27.314 20.4261H28.8002L29.1718 17.0952H30.9368L30.5652 20.4261H31.587L31.4012 21.9991H30.3794L30.0079 25.7926H31.0297L30.8439 27.3656H29.915L29.4505 31.5292H27.6855L28.15 27.3656H26.6637L26.1993 31.5292H24.4343L24.8988 27.3656ZM28.3358 25.7926L28.7074 21.9991H27.2211L26.8495 25.7926H28.3358Z" fill="white"/>
</svg>
