<svg width="56" height="56" viewBox="0 0 56 56" fill="none" xmlns="http://www.w3.org/2000/svg">
<path d="M27.9027 50.9887C40.6771 50.9887 51.0328 40.6738 51.0328 27.9498C51.0328 15.2257 40.6771 4.91089 27.9027 4.91089C15.1282 4.91089 4.77246 15.2257 4.77246 27.9498C4.77246 40.6738 15.1282 50.9887 27.9027 50.9887Z" fill="#92E3A9"/>
<path opacity="0.3" d="M50.4076 33.2596C53.3687 20.8816 45.6951 8.45636 33.2682 5.50693C20.8412 2.55751 8.36664 10.2008 5.40552 22.5787C2.44441 34.9567 10.118 47.382 22.545 50.3314C34.972 53.2808 47.4465 45.6375 50.4076 33.2596Z" fill="white"/>
<path d="M16.8482 37.0172V31.1881C16.8482 29.7077 16.4766 29.3376 14.8975 29.3376V26.5618C16.4766 26.5618 16.8482 26.0992 16.8482 24.7113V18.9747C16.8482 16.569 18.4274 15.4587 20.3781 15.4587H22.1431V18.2345H21.6786C20.5639 18.2345 20.0065 18.6971 20.0065 20.4551V25.1739C20.0065 26.2842 19.635 27.4871 18.0558 27.9497V28.0422C19.5421 28.5049 20.0065 29.7077 20.0065 30.818V35.5368C20.0065 37.2948 20.5639 37.7574 21.6786 37.7574H22.1431V40.5332H20.3781C18.3345 40.4407 16.8482 39.3304 16.8482 37.0172Z" fill="white"/>
<path d="M33.7549 37.6649H34.2193C35.3341 37.6649 35.8914 37.2023 35.8914 35.4443V30.7255C35.8914 29.6152 36.263 28.4123 37.8421 27.9497V27.8572C36.3559 27.3945 35.8914 26.1917 35.8914 25.0814V20.3626C35.8914 18.6046 35.3341 18.142 34.2193 18.142H33.7549V15.3662H35.5198C37.4706 15.3662 39.0497 16.4765 39.0497 18.8822V24.6188C39.0497 26.0992 39.4213 26.4693 41.0005 26.4693V29.2451C39.4213 29.2451 39.0497 29.7077 39.0497 31.0956V36.8322C39.0497 39.2378 37.4706 40.3481 35.5198 40.3481H33.7549V37.6649Z" fill="white"/>
</svg>
