<svg width="143" height="158" viewBox="0 0 143 158" fill="none" xmlns="http://www.w3.org/2000/svg">
<path d="M77.1006 51.4105C82.767 56.0368 80.8163 83.2393 98.28 71.581C115.651 59.9228 86.0182 52.9834 87.6903 46.3216C90.1055 37.069 129.306 48.1721 122.711 30.4071C116.115 12.6422 92.7065 39.3821 86.4827 32.7203C80.8163 26.6136 109.056 4.59251 95.8648 0.891484C82.6741 -2.80954 85.5538 29.0193 77.1006 29.0193C70.5052 29.0193 71.7128 -1.42166 59.6368 9.40384C47.5608 20.1368 74.0351 30.7773 70.5052 37.4391C67.9042 42.528 47.0035 29.9445 47.9324 41.6953C48.8613 53.3535 71.1555 46.5991 77.1006 51.4105Z" fill="#75B687"/>
<path d="M80.8158 37.5317C80.8158 37.5317 68.0895 52.891 69.5758 94.5275" stroke="#263238" stroke-miterlimit="10" stroke-linecap="round" stroke-linejoin="round"/>
<path d="M105.618 59.1827C103.389 54.6489 84.7174 51.5956 95.4 41.7879C106.083 31.9801 105.99 52.9835 110.82 52.8909C117.508 52.7984 116.208 24.7632 127.169 31.9801C138.13 39.1971 116.301 50.6703 119.831 55.8517C123.082 60.5706 142.404 45.2113 142.775 54.6489C143.24 64.0865 122.153 57.0546 120.853 62.7912C119.831 67.2324 140.546 71.211 131.349 77.5953C122.153 83.9795 119.18 64.5492 114.164 65.8445C110.356 66.7698 115.465 82.7767 107.755 80.2785C100.045 77.7803 107.94 63.994 105.618 59.1827Z" fill="#75B687"/>
<path opacity="0.3" d="M105.618 59.1827C103.389 54.6489 84.7174 51.5956 95.4 41.7879C106.083 31.9801 105.99 52.9835 110.82 52.8909C117.508 52.7984 116.208 24.7632 127.169 31.9801C138.13 39.1971 116.301 50.6703 119.831 55.8517C123.082 60.5706 142.404 45.2113 142.775 54.6489C143.24 64.0865 122.153 57.0546 120.853 62.7912C119.831 67.2324 140.546 71.211 131.349 77.5953C122.153 83.9795 119.18 64.5492 114.164 65.8445C110.356 66.7698 115.465 82.7767 107.755 80.2785C100.045 77.7803 107.94 63.994 105.618 59.1827Z" fill="black"/>
<path d="M115.187 59.3678C115.187 59.3678 79.0514 55.6668 75.5215 94.435" stroke="#263238" stroke-miterlimit="10" stroke-linecap="round" stroke-linejoin="round"/>
<path d="M46.3529 55.2039C40.6865 59.8302 42.6372 87.0327 25.1735 75.3745C7.80259 63.7163 37.4352 56.7769 35.7632 50.115C33.348 40.8624 -5.85259 51.9655 0.74277 34.2006C7.33813 16.4357 30.747 43.1756 36.9708 36.5137C42.6372 30.4071 14.3979 8.38597 27.5887 4.68494C40.7794 0.983917 37.8997 32.8127 46.3529 32.8127C52.9483 32.8127 51.7407 2.3718 63.8167 13.1973C75.8927 23.9303 49.4184 34.5707 52.9483 41.2326C55.5492 46.3215 76.45 33.738 75.5211 45.4887C74.4993 57.0544 52.2051 50.3001 46.3529 55.2039Z" fill="#75B687"/>
<path opacity="0.3" d="M46.3529 55.2039C40.6865 59.8302 42.6372 87.0327 25.1735 75.3745C7.80259 63.7163 37.4352 56.7769 35.7632 50.115C33.348 40.8624 -5.85259 51.9655 0.74277 34.2006C7.33813 16.4357 30.747 43.1756 36.9708 36.5137C42.6372 30.4071 14.3979 8.38597 27.5887 4.68494C40.7794 0.983917 37.8997 32.8127 46.3529 32.8127C52.9483 32.8127 51.7407 2.3718 63.8167 13.1973C75.8927 23.9303 49.4184 34.5707 52.9483 41.2326C55.5492 46.3215 76.45 33.738 75.5211 45.4887C74.4993 57.0544 52.2051 50.3001 46.3529 55.2039Z" fill="white"/>
<path d="M42.3584 41.3252C42.3584 41.3252 58.8003 63.1612 62.6089 99.7089" stroke="#263238" stroke-miterlimit="10" stroke-linecap="round" stroke-linejoin="round"/>
<path d="M54.0634 156.797H79.7017C84.625 156.797 88.7122 153.096 89.0838 148.192L93.0782 101.004C93.5426 95.5452 89.1767 90.8264 83.6961 90.8264H50.069C44.4955 90.8264 40.2224 95.5452 40.6869 101.004L44.6813 148.192C45.1457 153.004 49.233 156.797 54.0634 156.797Z" fill="#70CAFC" stroke="#263238" stroke-miterlimit="10" stroke-linecap="round" stroke-linejoin="round"/>
</svg>
