<svg width="37" height="36" viewBox="0 0 37 36" fill="none" xmlns="http://www.w3.org/2000/svg">
<path d="M25.1281 35.7176H11.7516C5.62068 35.7176 0.604492 30.7212 0.604492 24.6145V11.3833C0.604492 5.27666 5.62068 0.280273 11.7516 0.280273H25.1281C31.259 0.280273 36.2752 5.27666 36.2752 11.3833V24.707C36.1823 30.8137 31.259 35.7176 25.1281 35.7176Z" fill="#E36F59"/>
<path d="M5.52734 18.8777V17.1198L12.6801 14.0664V15.9169L7.75676 17.9525L12.6801 19.988V21.8386L5.52734 18.8777Z" fill="white"/>
<path d="M20.5756 9.90283H22.805L16.3954 26.0948H14.166L20.5756 9.90283Z" fill="white"/>
<path d="M24.1982 20.0806L29.1215 18.045L24.1982 16.0094V14.1589L31.2581 17.2123V18.9703L24.1982 22.0236V20.0806Z" fill="white"/>
</svg>
