<svg width="105" height="44" viewBox="0 0 105 44" fill="none" xmlns="http://www.w3.org/2000/svg">
<path d="M102.603 43.4396H74.9212C74.3639 43.4396 73.8994 42.9769 73.8994 42.4218V40.1086L103.625 41.0339V42.4218C103.625 42.9769 103.161 43.4396 102.603 43.4396Z" fill="#858585" stroke="#263238" stroke-miterlimit="10" stroke-linecap="round" stroke-linejoin="round"/>
<path d="M70.8338 43.4395H15.1913C14.2624 43.4395 13.4263 42.7918 13.1477 41.8665L1.16456 3.28336C0.792992 2.26558 1.53613 1.2478 2.55795 1.2478H58.2005C59.1294 1.2478 59.9654 1.89548 60.2441 2.82074L72.2272 41.4039C72.5059 42.5142 71.8556 43.4395 70.8338 43.4395Z" fill="#999999" stroke="#263238" stroke-miterlimit="10" stroke-linecap="round" stroke-linejoin="round"/>
<path d="M74.735 41.4039L62.7519 2.82074C62.4732 1.89548 61.6372 1.2478 60.7083 1.2478H58.2002C59.1291 1.2478 59.9651 1.89548 60.2438 2.82074L72.2269 41.4039C72.5985 42.4217 71.8554 43.4395 70.8335 43.4395H73.3416C74.3635 43.4395 75.0137 42.5142 74.735 41.4039Z" fill="#858585" stroke="#263238" stroke-miterlimit="10" stroke-linecap="round" stroke-linejoin="round"/>
<path d="M40.0864 22.3436C40.365 24.1941 38.9717 25.7671 37.1138 25.7671C35.256 25.7671 33.491 24.1941 33.2123 22.3436C32.9336 20.4931 34.327 18.9202 36.1849 18.9202C38.0427 18.9202 39.9006 20.4006 40.0864 22.3436Z" fill="white" stroke="#263238" stroke-miterlimit="10" stroke-linecap="round" stroke-linejoin="round"/>
</svg>
