<svg width="287" height="147" viewBox="0 0 287 147" fill="none" xmlns="http://www.w3.org/2000/svg">
<path d="M40.4608 145.89H36.9309L36.002 9.69214H40.4608V145.89Z" fill="#858585" stroke="#263238" stroke-miterlimit="10" stroke-linecap="round" stroke-linejoin="round"/>
<path d="M43.898 145.89H40.4609V9.69214H44.8269L43.898 145.89Z" fill="#999999" stroke="#263238" stroke-miterlimit="10" stroke-linecap="round" stroke-linejoin="round"/>
<path d="M237.114 1.36475H0.981445V9.69205H237.114V1.36475Z" fill="#263238" stroke="#263238" stroke-miterlimit="10" stroke-linecap="round" stroke-linejoin="round"/>
<path d="M286.44 1.36475H233.584V9.69205H286.44V1.36475Z" fill="#858585" stroke="#263238" stroke-miterlimit="10" stroke-linecap="round" stroke-linejoin="round"/>
<path d="M247.797 9.69214H13.0576V23.4785H247.797V9.69214Z" fill="#70CAFC" stroke="#263238" stroke-miterlimit="10"/>
<path d="M275.106 9.69214H247.796V23.4785H275.106V9.69214Z" fill="#70CAFC"/>
<path opacity="0.3" d="M247.907 23.4209L275.218 23.4209V9.63457L247.907 9.63457V23.4209Z" fill="black"/>
<path d="M275.106 9.69214H247.796V23.4785H275.106V9.69214Z" stroke="#263238" stroke-miterlimit="10"/>
<path d="M247.797 145.89H244.36L243.431 9.69214H247.797V145.89Z" fill="#858585" stroke="#263238" stroke-miterlimit="10" stroke-linecap="round" stroke-linejoin="round"/>
<path d="M251.326 145.89H247.796V9.69214H252.255L251.326 145.89Z" fill="#999999" stroke="#263238" stroke-miterlimit="10" stroke-linecap="round" stroke-linejoin="round"/>
<path d="M13.0573 145.89H9.62033L8.69141 9.69214H13.0573V145.89Z" fill="#858585" stroke="#263238" stroke-miterlimit="10" stroke-linecap="round" stroke-linejoin="round"/>
<path d="M16.4946 145.89H13.0576V9.69214H17.4236L16.4946 145.89Z" fill="#999999" stroke="#263238" stroke-miterlimit="10" stroke-linecap="round" stroke-linejoin="round"/>
<path d="M275.2 145.89H271.763L270.834 9.69214H275.2V145.89Z" fill="#858585" stroke="#263238" stroke-miterlimit="10" stroke-linecap="round" stroke-linejoin="round"/>
<path d="M278.637 145.89H275.2V9.69214H279.566L278.637 145.89Z" fill="#999999" stroke="#263238" stroke-miterlimit="10" stroke-linecap="round" stroke-linejoin="round"/>
</svg>
