<svg width="165" height="259" viewBox="0 0 165 259" fill="none" xmlns="http://www.w3.org/2000/svg">
<path d="M94.072 189.976C85.5259 189.976 60.7236 184.425 60.7236 184.425H127.327C127.42 184.425 102.618 189.976 94.072 189.976Z" fill="#263238" stroke="#263238" stroke-miterlimit="10" stroke-linecap="round" stroke-linejoin="round"/>
<path d="M101.689 187.2H86.4551V197.656H101.689V187.2Z" fill="#858585" stroke="#263238" stroke-miterlimit="10" stroke-linecap="round" stroke-linejoin="round"/>
<path d="M104.012 197.656H84.2256V242.53H104.012V197.656Z" fill="#999999" stroke="#263238" stroke-miterlimit="10" stroke-linecap="round" stroke-linejoin="round"/>
<path d="M131.229 171.101C126.12 171.101 123.519 171.101 118.41 171.101C119.804 162.311 120.918 153.243 121.568 144.361C126.678 144.361 129.279 144.361 134.388 144.361C133.737 153.336 132.716 162.311 131.229 171.101Z" fill="#858585" stroke="#263238" stroke-miterlimit="10" stroke-linecap="round" stroke-linejoin="round"/>
<path d="M150.736 65.4365C132.251 65.4365 113.765 65.4365 95.2795 65.4365C88.7771 65.4365 84.504 70.8955 85.8045 77.3723C89.3344 97.2653 91.4709 116.881 92.1212 137.051C92.214 142.88 96.6729 147.414 102.618 147.414C118.131 147.414 133.737 147.414 149.25 147.414C155.102 147.414 160.397 142.88 161.14 137.051C163.37 117.066 164.206 97.4504 163.555 77.3723C163.277 70.8955 157.332 65.4365 150.736 65.4365Z" fill="#858585" stroke="#263238" stroke-miterlimit="10" stroke-linecap="round" stroke-linejoin="round"/>
<path d="M153.802 77.3723C154.452 97.4504 153.616 117.158 151.386 137.051C150.643 142.88 145.348 147.414 139.496 147.414C127.234 147.414 114.973 147.414 102.618 147.414C96.7658 147.414 92.3069 142.88 92.1212 137.051C91.4709 116.881 89.3344 97.1728 85.8045 77.3723C84.504 70.8955 88.7771 65.4365 95.2795 65.4365C110.514 65.4365 125.655 65.4365 140.89 65.4365C147.485 65.4365 153.523 70.8955 153.802 77.3723Z" fill="#999999" stroke="#263238" stroke-miterlimit="10" stroke-linecap="round" stroke-linejoin="round"/>
<path d="M127.42 250.488C127.42 251.505 126.491 252.338 125.377 252.061C119.339 250.765 101.132 246.972 94.072 246.972C87.0122 246.972 68.8053 250.765 62.7673 252.061C61.7454 252.246 60.7236 251.505 60.7236 250.488C60.7236 248.452 62.117 246.694 64.1606 246.232C71.2205 244.751 87.4766 241.42 94.072 241.42C100.667 241.42 116.831 244.751 123.983 246.232C125.934 246.694 127.42 248.452 127.42 250.488Z" fill="#263238" stroke="#263238" stroke-miterlimit="10" stroke-linecap="round" stroke-linejoin="round"/>
<path d="M60.7241 247.157C57.5657 247.157 55.0576 249.655 55.0576 252.801C55.0576 255.947 57.5657 258.445 60.7241 258.445C63.8824 258.445 66.3905 255.947 66.3905 252.801C66.4834 249.747 63.8824 247.157 60.7241 247.157ZM60.7241 255.947C59.052 255.947 57.6586 254.559 57.6586 252.893C57.6586 251.228 59.052 249.84 60.7241 249.84C62.3961 249.84 63.7895 251.228 63.7895 252.893C63.8824 254.559 62.489 255.947 60.7241 255.947Z" fill="#858585" stroke="#263238" stroke-miterlimit="10" stroke-linecap="round" stroke-linejoin="round"/>
<path d="M94.0727 247.157C90.9143 247.157 88.4062 249.655 88.4062 252.801C88.4062 255.947 90.9143 258.445 94.0727 258.445C97.231 258.445 99.7391 255.947 99.7391 252.801C99.7391 249.747 97.231 247.157 94.0727 247.157ZM94.0727 255.947C92.4006 255.947 91.0073 254.559 91.0073 252.893C91.0073 251.228 92.4006 249.84 94.0727 249.84C95.7448 249.84 97.1382 251.228 97.1382 252.893C97.1382 254.559 95.7448 255.947 94.0727 255.947Z" fill="#858585" stroke="#263238" stroke-miterlimit="10" stroke-linecap="round" stroke-linejoin="round"/>
<path d="M126.677 247.157C123.519 247.157 121.011 249.655 121.011 252.801C121.011 255.947 123.519 258.445 126.677 258.445C129.836 258.445 132.344 255.947 132.344 252.801C132.437 249.747 129.836 247.157 126.677 247.157ZM126.677 255.947C125.005 255.947 123.612 254.559 123.612 252.893C123.612 251.228 125.005 249.84 126.677 249.84C128.349 249.84 129.743 251.228 129.743 252.893C129.743 254.559 128.442 255.947 126.677 255.947Z" fill="#858585" stroke="#263238" stroke-miterlimit="10" stroke-linecap="round" stroke-linejoin="round"/>
<path d="M110.979 169.343C88.5915 169.99 66.6689 169.065 44.3747 166.382C39.823 165.734 36.2002 168.88 36.2002 173.414C36.2002 173.876 36.2002 174.061 36.2002 174.524C36.2002 179.058 39.823 183.314 44.3747 183.962C66.6689 186.645 88.4986 187.57 110.979 186.923C110.979 179.891 110.979 176.375 110.979 169.343Z" fill="#999999" stroke="#263238" stroke-miterlimit="10" stroke-linecap="round" stroke-linejoin="round"/>
<path d="M145.906 183.592C132.065 185.35 118.409 186.46 104.476 187.015C101.132 187.108 98.3447 184.424 98.3447 181.001C98.3447 178.873 98.3447 177.855 98.3447 175.727C98.3447 172.396 101.132 169.62 104.476 169.528C118.409 168.973 132.065 167.77 145.906 166.104C149.25 165.642 152.036 167.955 152.036 171.286C152.036 173.414 152.036 174.432 152.036 176.56C151.944 179.983 149.25 183.129 145.906 183.592Z" fill="#858585" stroke="#263238" stroke-miterlimit="10" stroke-linecap="round" stroke-linejoin="round"/>
<path d="M53.4782 255.577C53.4782 252.523 52.828 246.324 49.1123 238.274L44.3748 221.157L29.512 227.449L33.6921 240.587C33.6921 240.587 20.873 246.694 16.2284 248.267C13.0701 249.377 3.68793 251.505 4.15239 255.484C4.15239 256.687 5.0813 257.612 6.2889 257.612H51.3417C52.5493 257.797 53.4782 256.779 53.4782 255.577Z" fill="#FFDCCB" stroke="#263238" stroke-miterlimit="10" stroke-linecap="round" stroke-linejoin="round"/>
<path d="M45.3037 245.584C42.9814 247.249 30.6267 249.47 33.6921 246.972C36.7576 244.473 33.6921 240.68 33.6921 240.68C33.6921 240.68 20.873 246.787 16.2284 248.36C13.0701 249.47 3.68793 251.598 4.15239 255.577C4.15239 256.779 5.0813 257.705 6.2889 257.705H51.3417C52.5493 257.705 53.5711 256.687 53.4782 255.577C53.4782 252.986 53.0138 248.174 50.5986 241.883C48.0905 241.975 47.626 243.918 45.3037 245.584Z" fill="#E36F59" stroke="#263238" stroke-miterlimit="10" stroke-linecap="round" stroke-linejoin="round"/>
<path d="M64.2532 257.797H97.23C97.8802 257.797 98.5305 257.334 98.6234 256.687C99.0878 254.096 98.9949 248.267 96.0224 240.495L95.7437 224.765L78.8373 227.634L80.9738 241.05C80.9738 241.05 74.1927 248.544 70.9415 249.84C68.712 250.765 63.5101 250.858 62.8598 256.317C62.674 257.057 63.4172 257.797 64.2532 257.797Z" fill="#FFDCCB" stroke="#263238" stroke-miterlimit="10" stroke-linecap="round" stroke-linejoin="round"/>
<path d="M90.4485 245.676C86.9185 248.082 84.4105 248.359 85.9896 244.751C87.6617 241.142 80.9734 240.957 80.9734 240.957C80.9734 240.957 74.1923 248.452 70.9411 249.747C68.7117 250.672 63.5097 250.765 62.8594 256.224C62.7665 257.057 63.4168 257.797 64.2528 257.797H97.2296C97.8798 257.797 98.5301 257.334 98.623 256.687C99.0874 254.096 98.9945 248.267 96.022 240.495C93.421 241.05 93.8855 243.178 90.4485 245.676Z" fill="#E36F59" stroke="#263238" stroke-miterlimit="10" stroke-linecap="round" stroke-linejoin="round"/>
<path d="M60.9094 137.606C60.9094 137.606 57.5652 141.03 44.003 143.158C30.4407 145.286 2.2014 152.133 2.57297 163.236C2.85164 174.339 28.8615 233.555 28.8615 233.555C28.8615 233.555 41.8664 231.057 47.9044 227.356C47.9044 227.356 37.4076 185.072 29.6046 173.969C29.6046 173.969 64.8108 169.62 84.3182 161.663C103.826 153.613 92.307 135.386 92.307 135.386L60.9094 137.606Z" fill="#263238" stroke="#263238" stroke-miterlimit="10" stroke-linecap="round" stroke-linejoin="round"/>
<path d="M83.1109 136.126C83.1109 136.126 88.1271 144.453 84.4114 149.08C80.6957 153.706 59.5162 162.311 61.8385 172.859C64.2537 183.314 72.1496 198.118 77.3515 233.278C77.3515 233.278 89.3347 231.427 97.4163 228.004C97.4163 228.004 98.7168 192.196 89.4275 176.837C89.4275 176.837 116.181 171.933 118.874 162.958C121.568 153.983 116.552 140.382 116.459 135.478L83.1109 136.126Z" fill="#263238" stroke="#263238" stroke-miterlimit="10" stroke-linecap="round" stroke-linejoin="round"/>
<path d="M66.9477 149.357C66.3903 149.357 65.7401 149.357 65.0898 149.357" stroke="#7F7F7F" stroke-width="0.75" stroke-linecap="round" stroke-linejoin="round"/>
<path d="M68.1553 143.806C68.1553 143.806 73.6359 145.379 75.7724 152.503C75.9582 153.058 75.2151 153.521 74.8435 153.058C73.7288 151.948 71.871 150.468 69.5487 149.727" stroke="#7F7F7F" stroke-width="0.75" stroke-linecap="round" stroke-linejoin="round"/>
<path d="M27.0037 173.691C27.0037 170.638 13.9987 169.065 17.4358 166.289C20.8728 163.513 28.8615 172.581 28.8615 172.581" stroke="#7F7F7F" stroke-width="0.75" stroke-linecap="round" stroke-linejoin="round"/>
<path d="M90.9137 185.72C90.9137 182.296 78.4662 180.353 79.1164 176.652C79.7667 172.951 87.6625 180.261 87.6625 180.261" stroke="#7F7F7F" stroke-width="0.75" stroke-linecap="round" stroke-linejoin="round"/>
<path d="M27.5614 233.74L28.9548 236.886C29.1406 237.256 29.5121 237.441 29.8837 237.349C32.8562 236.701 45.3967 233.74 49.7626 230.595C50.0413 230.41 50.1342 230.039 50.0413 229.762L49.2053 226.246C49.1124 225.691 48.4622 225.506 47.9977 225.691C46.047 226.801 40.4734 229.299 28.0258 232.63C27.5614 232.815 27.2827 233.278 27.5614 233.74Z" fill="#999999" stroke="#263238" stroke-miterlimit="10" stroke-linecap="round" stroke-linejoin="round"/>
<path d="M75.7717 231.15C75.6788 230.687 76.1433 230.317 76.6078 230.41C77.5367 230.78 79.023 230.965 81.2524 230.502C84.6894 229.762 94.536 226.616 97.5085 225.691C97.8801 225.598 98.3446 225.876 98.3446 226.339V230.41C98.3446 230.687 98.1588 230.872 97.973 230.965C95.6507 231.983 83.296 237.257 76.8864 235.776C76.6077 235.684 76.422 235.499 76.422 235.221L75.7717 231.15Z" fill="#999999" stroke="#263238" stroke-miterlimit="10" stroke-linecap="round" stroke-linejoin="round"/>
<path d="M85.7112 145.563C85.6183 146.859 85.1538 148.062 84.3178 149.079C81.6239 152.41 69.5479 157.962 64.1602 164.809" stroke="#7F7F7F" stroke-linecap="round" stroke-linejoin="round"/>
<path d="M85.0605 140.845C85.2463 141.492 85.4321 142.233 85.525 142.973" stroke="#7F7F7F" stroke-linecap="round" stroke-linejoin="round"/>
<path d="M13.999 250.488C13.999 250.488 14.9279 251.968 15.6711 254.929H49.2052C49.2052 254.929 49.2981 252.708 51.0631 251.135" stroke="#263238" stroke-miterlimit="10" stroke-linecap="round" stroke-linejoin="round"/>
<path d="M72.2422 250.488C72.2422 250.488 76.8868 250.858 78.6518 254.929H96.2084C96.2084 254.929 97.1374 252.801 97.1374 251.135" stroke="#263238" stroke-miterlimit="10" stroke-linecap="round" stroke-linejoin="round"/>
<path d="M44.7467 85.3294C45.2111 86.9948 45.5827 88.5678 46.0471 90.1407C50.6918 106.795 56.7298 138.532 56.7298 138.532C86.4553 144.823 117.853 138.532 117.853 138.532C118.039 131.592 117.203 122.525 116.274 112.902C121.104 111.514 124.634 107.073 124.82 99.6709C125.099 90.6033 123.426 74.4114 122.498 66.8243C121.661 60.1624 122.219 56.1838 111.908 51.0949C106.706 48.1341 98.0668 46.6537 87.4771 45.2658C66.5763 42.49 51.5278 46.6537 46.14 48.9668C41.867 47.8565 40.7523 52.8529 40.7523 52.8529C38.43 51.0949 35.6432 58.5895 35.6432 58.5895C28.7692 67.2869 23.3814 81.9985 21.5236 87.2724C21.152 88.3827 20.4089 89.4005 19.3871 90.1407C14.4638 93.8417 17.2505 98.468 17.2505 98.468L27.2829 101.521C27.2829 101.521 32.1133 102.817 35.829 96.4325C38.8015 91.066 43.9106 82.091 44.7467 85.3294Z" fill="#E36F59"/>
<path opacity="0.3" d="M29.0474 97.2651C29.0474 97.2651 28.7687 92.6388 25.053 91.8061C21.3373 90.9734 26.0748 89.5855 29.0474 90.3257C31.927 90.9734 31.2768 88.4752 33.7849 84.3115C36.293 80.1479 37.5006 76.817 39.6371 79.2226C41.7736 81.6283 43.9101 81.9984 44.8391 85.2368C45.768 88.5677 41.3092 96.3399 41.3092 96.3399L34.3422 101.706L30.8123 103.649H25.5175L23.7525 99.1156L29.0474 97.2651Z" fill="black"/>
<path d="M44.7467 85.3294C45.2111 86.9948 45.5827 88.5678 46.0471 90.1407C50.6918 106.795 56.7298 138.532 56.7298 138.532C86.4553 144.823 117.853 138.532 117.853 138.532C118.039 131.592 117.203 122.525 116.274 112.902C121.104 111.514 124.634 107.073 124.82 99.6709C125.099 90.6033 123.426 74.4114 122.498 66.8243C121.661 60.1624 122.219 56.1838 111.908 51.0949C106.706 48.1341 98.0668 46.6537 87.4771 45.2658C66.5763 42.49 51.5278 46.6537 46.14 48.9668C41.867 47.8565 40.7523 52.8529 40.7523 52.8529C38.43 51.0949 35.6432 58.5895 35.6432 58.5895C28.7692 67.2869 23.3814 81.9985 21.5236 87.2724C21.152 88.3827 20.4089 89.4005 19.3871 90.1407C14.4638 93.8417 17.2505 98.468 17.2505 98.468L27.2829 101.521C27.2829 101.521 32.1133 102.817 35.829 96.4325C38.8015 91.066 43.9106 82.091 44.7467 85.3294Z" stroke="#263238" stroke-miterlimit="10" stroke-linecap="round" stroke-linejoin="round"/>
<path opacity="0.3" d="M117.852 138.532C117.945 133.535 117.574 127.336 117.016 120.767C118.038 134.83 88.5914 139.272 87.6625 131.592C86.7336 123.912 116.273 112.902 100.203 116.788C86.1762 120.119 58.9588 116.973 52.2705 116.048C54.8715 128.076 56.8222 138.532 56.8222 138.532C86.4549 144.731 117.852 138.532 117.852 138.532Z" fill="black"/>
<path opacity="0.3" d="M104.291 67.7495C104.291 67.7495 100.111 79.9629 100.111 86.4397C100.111 92.9165 88.3135 97.2652 88.3135 97.2652C94.6302 95.9698 100.761 94.3044 103.734 93.4716C104.755 93.194 105.499 92.1763 105.406 91.066C104.755 84.4041 104.198 75.5217 104.291 67.7495Z" fill="black"/>
<path d="M40.845 64.6038C40.845 64.6038 40.6592 73.3937 43.9104 81.536C44.1891 82.2762 43.3531 83.0164 42.7028 82.4612C41.1236 81.3509 38.8942 79.0378 36.8506 74.319" stroke="#263238" stroke-width="0.75" stroke-miterlimit="10" stroke-linecap="round" stroke-linejoin="round"/>
<path d="M119.711 102.447C117.296 94.3971 113.023 92.3615 109.771 92.0839C109.214 92.0839 109.028 91.3437 109.493 91.0661C111.443 90.0483 115.159 89.2156 119.711 94.3045" stroke="#263238" stroke-width="0.75" stroke-miterlimit="10" stroke-linecap="round" stroke-linejoin="round"/>
<path d="M72.6139 79.2228C72.6139 79.9631 71.9637 80.6107 71.2205 80.6107C70.4774 80.6107 69.8271 79.9631 69.8271 79.2228C69.8271 78.4826 70.4774 77.835 71.2205 77.835C71.9637 77.835 72.6139 78.4826 72.6139 79.2228Z" fill="#999999" stroke="#263238" stroke-width="0.75" stroke-miterlimit="10" stroke-linecap="round" stroke-linejoin="round"/>
<path d="M74.4723 94.9521C74.4723 95.6923 73.8221 96.34 73.0789 96.34C72.3358 96.34 71.6855 95.6923 71.6855 94.9521C71.6855 94.2119 72.3358 93.5642 73.0789 93.5642C73.8221 93.5642 74.4723 94.2119 74.4723 94.9521Z" fill="#999999" stroke="#263238" stroke-width="0.75" stroke-miterlimit="10" stroke-linecap="round" stroke-linejoin="round"/>
<path d="M79.1168 132.98C79.1168 133.72 78.4666 134.368 77.7235 134.368C76.9803 134.368 76.3301 133.72 76.3301 132.98C76.3301 132.24 76.9803 131.592 77.7235 131.592C78.4666 131.592 79.1168 132.147 79.1168 132.98Z" fill="#999999" stroke="#263238" stroke-miterlimit="10" stroke-linecap="round" stroke-linejoin="round"/>
<path d="M52.4565 105.315C52.4565 105.315 47.9048 109.664 50.0413 109.756C52.1778 109.849 54.9646 106.888 57.4727 106.518C59.9808 106.148 55.8935 104.667 55.8935 104.667L52.4565 105.315Z" fill="#FFDCCB" stroke="#263238" stroke-miterlimit="10" stroke-linecap="round" stroke-linejoin="round"/>
<path d="M79.1167 100.411C78.7451 100.041 78.1877 99.8559 77.6304 99.9484C75.401 100.133 68.9914 100.596 66.5762 100.504C62.3032 100.226 49.6698 97.5427 49.6698 97.5427C49.3911 97.4502 49.1124 97.5427 48.8338 97.6352L41.0308 99.9484C40.7521 100.041 40.4735 100.133 40.2877 100.411L35.5502 104.76C35.3644 104.945 35.2715 105.037 35.1786 105.222L34.1568 106.98C33.7852 107.721 33.8781 108.646 34.5284 109.293L42.3313 109.571C42.7958 109.571 43.2602 109.386 43.6318 109.108L45.9541 107.165C46.1399 107.073 46.2328 106.888 46.3257 106.703C46.883 105.777 49.1124 102.724 52.5495 103.002C52.5495 103.002 45.1181 106.98 46.5115 108.553C47.9048 110.126 53.5713 105.5 55.4291 105.963C57.287 106.425 57.3799 110.959 67.5051 109.293C67.9696 109.201 68.4341 109.201 68.8985 109.386L78.0949 111.977C79.2096 112.254 80.4172 111.607 80.6958 110.496C81.3461 107.628 81.9963 103.002 79.1167 100.411Z" fill="#FFDCCB" stroke="#263238" stroke-miterlimit="10" stroke-linecap="round" stroke-linejoin="round"/>
<path d="M50.692 99.2083L48.7412 99.5783C47.8123 99.7634 46.8834 100.134 46.1403 100.781L44.0966 102.539C43.7251 102.817 43.4464 103.187 43.1677 103.649L41.8672 105.685C41.6814 105.87 41.5885 106.148 41.4027 106.333C40.5667 107.165 38.4302 109.849 40.7525 109.479" fill="#FFDCCB"/>
<path d="M50.692 99.2083L48.7412 99.5783C47.8123 99.7634 46.8834 100.134 46.1403 100.781L44.0966 102.539C43.7251 102.817 43.4464 103.187 43.1677 103.649L41.8672 105.685C41.6814 105.87 41.5885 106.148 41.4027 106.333C40.5667 107.165 38.4302 109.849 40.7525 109.479" stroke="#263238" stroke-miterlimit="10" stroke-linecap="round" stroke-linejoin="round"/>
<path d="M45.1181 99.856L43.0745 100.411C42.4243 100.596 41.8669 100.874 41.4024 101.336L39.8233 102.817C39.6375 103.002 39.5446 103.094 39.4517 103.279L36.8507 106.703C36.8507 106.703 35.4573 109.109 36.8507 109.201" fill="#FFDCCB"/>
<path d="M45.1181 99.856L43.0745 100.411C42.4243 100.596 41.8669 100.874 41.4024 101.336L39.8233 102.817C39.6375 103.002 39.5446 103.094 39.4517 103.279L36.8507 106.703C36.8507 106.703 35.4573 109.109 36.8507 109.201" stroke="#263238" stroke-miterlimit="10" stroke-linecap="round" stroke-linejoin="round"/>
<path d="M104.383 65.7141C104.012 73.9489 104.755 83.8491 105.312 91.0661C105.405 92.1764 104.755 93.1017 103.64 93.4718C99.5528 94.6746 89.4276 97.4504 81.1602 98.4682" stroke="#263238" stroke-miterlimit="10" stroke-linecap="round" stroke-linejoin="round"/>
<path d="M104.848 59.9775C104.755 60.9028 104.662 61.9206 104.569 62.9384" stroke="#263238" stroke-width="0.75" stroke-miterlimit="10" stroke-linecap="round" stroke-linejoin="round"/>
<path d="M108.006 51.3726C106.984 52.2978 106.148 53.9633 105.591 56.1839" stroke="#263238" stroke-width="0.75" stroke-miterlimit="10" stroke-linecap="round" stroke-linejoin="round"/>
<path d="M61.4675 45.8211C61.4675 45.8211 62.0248 43.9706 65.1832 42.9528C68.3415 41.935 79.2099 40.2695 84.7835 42.9528C90.357 45.636 79.6744 60.3476 79.6744 60.3476L74.6582 67.1945L70.1994 70.5254L68.2486 64.6963L65.6476 62.0131C65.6476 62.0131 60.167 57.4793 60.6315 53.0381C61.0959 48.5968 61.4675 45.8211 61.4675 45.8211Z" fill="#FFBE9D"/>
<path d="M88.8702 45.451C88.0342 42.3976 84.0398 41.5649 84.0398 41.5649C64.9969 38.3265 61.0025 45.2659 61.0025 45.2659C57.1011 55.9989 61.0025 64.6963 61.0025 64.6963C61.0025 64.6963 66.3903 62.4757 67.3192 64.6963C68.2481 66.9169 69.9202 71.7283 69.9202 71.7283C69.9202 71.7283 73.6359 69.8777 76.6085 65.9917C79.581 62.1056 86.455 65.9917 86.455 65.9917C90.9139 58.2195 88.8702 45.451 88.8702 45.451ZM84.2256 45.2659C76.8871 68.3048 70.3847 69.3226 70.3847 69.3226C68.2481 60.8102 66.3903 62.6607 63.4177 57.3868C61.0954 53.1306 61.8386 47.7641 62.303 45.8211C62.3959 45.3585 62.6746 44.8958 63.1391 44.7108C70.4776 41.0097 79.3952 42.3976 83.1109 43.1378C84.0398 43.3229 84.5043 44.3407 84.2256 45.2659Z" fill="#E36F59"/>
<path opacity="0.4" d="M88.8702 45.451C88.0342 42.3976 84.0398 41.5649 84.0398 41.5649C64.9969 38.3265 61.0025 45.2659 61.0025 45.2659C57.1011 55.9989 61.0025 64.6963 61.0025 64.6963C61.0025 64.6963 66.3903 62.4757 67.3192 64.6963C68.2481 66.9169 69.9202 71.7283 69.9202 71.7283C69.9202 71.7283 73.6359 69.8777 76.6085 65.9917C79.581 62.1056 86.455 65.9917 86.455 65.9917C90.9139 58.2195 88.8702 45.451 88.8702 45.451ZM84.2256 45.2659C76.8871 68.3048 70.3847 69.3226 70.3847 69.3226C68.2481 60.8102 66.3903 62.6607 63.4177 57.3868C61.0954 53.1306 61.8386 47.7641 62.303 45.8211C62.3959 45.3585 62.6746 44.8958 63.1391 44.7108C70.4776 41.0097 79.3952 42.3976 83.1109 43.1378C84.0398 43.3229 84.5043 44.3407 84.2256 45.2659Z" fill="white"/>
<path d="M88.8702 45.451C88.0342 42.3976 84.0398 41.5649 84.0398 41.5649C64.9969 38.3265 61.0025 45.2659 61.0025 45.2659C57.1011 55.9989 61.0025 64.6963 61.0025 64.6963C61.0025 64.6963 66.3903 62.4757 67.3192 64.6963C68.2481 66.9169 69.9202 71.7283 69.9202 71.7283C69.9202 71.7283 73.6359 69.8777 76.6085 65.9917C79.581 62.1056 86.4551 65.9917 86.4551 65.9917C90.9139 58.2195 88.8702 45.451 88.8702 45.451ZM84.2256 45.2659C76.8871 68.3048 70.3847 69.3226 70.3847 69.3226C68.2481 60.8102 66.3903 62.6607 63.4177 57.3868C61.0954 53.1306 61.8386 47.7641 62.303 45.8211C62.3959 45.3585 62.6746 44.8958 63.1391 44.7108C70.4776 41.0097 79.3952 42.3976 83.1109 43.1378C84.0398 43.3229 84.5043 44.3407 84.2256 45.2659Z" stroke="#263238" stroke-miterlimit="10" stroke-linecap="round" stroke-linejoin="round"/>
<path d="M57.7512 10.1987C57.7512 10.1987 41.3092 13.4371 50.4127 24.0776C60.4451 35.9209 57.7512 10.1987 57.7512 10.1987Z" fill="#263238" stroke="#263238" stroke-miterlimit="10" stroke-linecap="round" stroke-linejoin="round"/>
<path d="M51.3419 36.1984C51.3419 36.1984 47.4404 20.469 54.8718 12.8819C62.3032 5.29482 70.3848 3.81441 76.4228 7.51544C82.4608 11.2165 84.9689 20.469 84.04 25.2804C83.1111 30.0917 83.5755 47.2089 75.3081 54.2409C67.0407 61.3654 61.9316 59.6074 56.451 49.8922C52.7353 43.5079 51.0632 41.7499 51.3419 36.1984Z" fill="#FFDCCB" stroke="#263238" stroke-miterlimit="10" stroke-linecap="round" stroke-linejoin="round"/>
<path d="M80.0455 33.0525C80.0455 33.0525 73.8217 26.8533 71.871 19.6363C69.9202 12.4193 68.8984 11.1239 61.7457 14.7324C54.593 18.2484 43.5388 13.5296 46.4185 4.55459C49.4839 -4.88303 58.7732 7.33035 67.7837 4.27701C76.7943 1.22366 83.111 6.7752 83.111 14.9175C83.111 14.9175 88.4987 20.1914 83.111 33.7002L80.0455 33.0525Z" fill="#263238" stroke="#263238" stroke-miterlimit="10" stroke-linecap="round" stroke-linejoin="round"/>
<path d="M78.0947 32.0346C78.0947 32.0346 79.6739 23.4297 84.0398 24.1699C88.4058 25.0026 85.2474 37.6787 80.1384 36.2908" fill="#FFDCCB"/>
<path d="M78.0947 32.0346C78.0947 32.0346 79.6739 23.4297 84.0398 24.1699C88.4058 25.0026 85.2474 37.6787 80.1384 36.2908" stroke="#263238" stroke-miterlimit="10" stroke-linecap="round" stroke-linejoin="round"/>
<path d="M57.1944 34.9956C57.1944 34.9956 55.4294 42.9528 55.9868 44.3407C56.5441 45.7286 61.839 44.6183 61.839 44.6183" fill="#FFDCCB"/>
<path d="M57.1944 34.9956C57.1944 34.9956 55.4294 42.9528 55.9868 44.3407C56.5441 45.7286 61.839 44.6183 61.839 44.6183" stroke="#263238" stroke-miterlimit="10" stroke-linecap="round" stroke-linejoin="round"/>
<path d="M62.6748 48.1341C62.6748 48.1341 66.855 49.7996 70.4778 44.3406L62.6748 48.1341Z" fill="#FFDCCB"/>
<path d="M62.6748 48.1341C62.6748 48.1341 66.855 49.7996 70.4778 44.3406" stroke="#263238" stroke-miterlimit="10" stroke-linecap="round" stroke-linejoin="round"/>
<path d="M54.4071 35.6431C54.5929 36.3833 54.4071 37.031 53.9426 37.1235C53.571 37.216 53.1066 36.6609 52.9208 35.9207C52.735 35.1805 52.9208 34.5328 53.3853 34.4403C53.7568 34.3477 54.2213 34.9029 54.4071 35.6431Z" fill="#263238"/>
<path d="M64.5321 34.8106C64.7179 35.5508 64.5321 36.1985 64.0676 36.291C63.6961 36.3835 63.2316 35.8284 63.0458 35.0882C62.86 34.348 63.0458 33.7003 63.5103 33.6077C63.9747 33.5152 64.4392 34.0704 64.5321 34.8106Z" fill="#263238"/>
<path d="M56.5434 35.273C56.7292 37.4011 54.5927 39.2516 51.8059 39.6218C49.0192 39.8993 46.5111 38.4189 46.3253 36.2908C46.1395 34.1627 48.3689 33.2375 51.1557 32.9599C53.9424 32.7749 56.3577 33.2375 56.5434 35.273Z" stroke="#263238" stroke-miterlimit="10" stroke-linecap="round" stroke-linejoin="round"/>
<path d="M69.6411 33.9778C69.8269 36.1059 67.6903 37.9564 64.9036 38.3265C62.1168 38.6041 59.6087 37.1236 59.4229 34.9956C59.2372 32.8675 61.4666 31.9422 64.2533 31.6646C67.133 31.3871 69.4553 31.8497 69.6411 33.9778Z" stroke="#263238" stroke-miterlimit="10" stroke-linecap="round" stroke-linejoin="round"/>
<path d="M56.5439 35.2732L59.4236 34.9956" stroke="#263238" stroke-miterlimit="10" stroke-linecap="round" stroke-linejoin="round"/>
<path d="M69.2695 32.96L80.1379 26.5757" stroke="#263238" stroke-miterlimit="10" stroke-linecap="round" stroke-linejoin="round"/>
<path d="M81.9961 42.7676L82.4606 44.0629" stroke="#263238" stroke-miterlimit="10" stroke-linecap="round" stroke-linejoin="round"/>
<path d="M50.4131 31.9421C50.4131 31.9421 52.0852 29.814 54.0359 30.8318L50.4131 31.9421Z" fill="#FFDCCB"/>
<path d="M50.4131 31.9421C50.4131 31.9421 52.0852 29.814 54.0359 30.8318" stroke="#263238" stroke-miterlimit="10" stroke-linecap="round" stroke-linejoin="round"/>
<path d="M67.226 31.017C67.226 31.017 64.3463 28.2412 61.5596 30.1842L67.226 31.017Z" fill="#FFDCCB"/>
<path d="M67.226 31.017C67.226 31.017 64.3463 28.2412 61.5596 30.1842" stroke="#263238" stroke-miterlimit="10" stroke-linecap="round" stroke-linejoin="round"/>
<path d="M54.1289 5.57251C58.4948 6.96039 65.9262 8.62585 71.9642 6.86787C81.1606 4.0921 78.0951 14.455 80.1388 17.3233" stroke="#7F7F7F" stroke-linecap="round" stroke-linejoin="round"/>
<path d="M50.3203 4.18457C50.3203 4.18457 51.0634 4.46215 52.271 4.92477" stroke="#7F7F7F" stroke-linecap="round" stroke-linejoin="round"/>
<path d="M61.374 10.7539C61.8385 10.5688 62.3958 10.3838 62.9532 10.1987" stroke="#7F7F7F" stroke-linecap="round" stroke-linejoin="round"/>
<path d="M51.3418 9.55103C51.3418 9.55103 53.2925 12.6044 59.6092 11.2165" stroke="#7F7F7F" stroke-linecap="round" stroke-linejoin="round"/>
<path d="M74.9365 15.4724C75.3081 18.0631 76.3299 21.9492 78.838 25.3727" stroke="#7F7F7F" stroke-linecap="round" stroke-linejoin="round"/>
<path d="M74.6582 12.2341C74.6582 12.2341 74.6582 12.8818 74.7511 13.8996" stroke="#7F7F7F" stroke-linecap="round" stroke-linejoin="round"/>
<path opacity="0.3" d="M82.9251 111.422C82.182 112.069 82.6464 113.272 83.5754 113.365C89.892 113.365 106.798 113.457 113.301 113.087C121.475 112.625 115.252 103.835 108.656 107.166C102.711 110.219 90.0778 105.038 82.9251 111.422Z" fill="black"/>
<path d="M12.1406 102.817C12.1406 102.817 15.9492 92.7316 25.4242 94.3045C35.085 95.8774 27.6536 103.835 23.1019 104.575C23.1948 104.575 22.4517 101.799 12.1406 102.817Z" fill="white" stroke="#263238" stroke-miterlimit="10" stroke-linecap="round" stroke-linejoin="round"/>
<path d="M4.0594 108.461C2.75891 109.756 -0.213644 109.849 1.82999 107.073C4.0594 104.112 6.5675 103.094 8.33245 102.262C12.8842 100.226 14.6491 100.689 18.7364 99.7634C22.8237 98.8381 23.5668 100.504 25.0531 101.336C28.3972 103.187 29.2332 103.464 30.0693 105.315C30.9053 107.165 31.8342 109.571 29.2332 109.571C26.818 109.571 26.6322 105.592 24.3099 105.778C21.9876 105.963 20.78 109.571 19.2009 109.571C17.6217 109.571 19.944 109.571 18.5506 109.571C17.1572 109.571 17.0643 108.461 17.9004 106.61C18.7364 104.76 19.6653 103.187 19.6653 103.187C19.6653 103.187 17.6217 104.112 16.507 106.425C15.3923 108.831 15.2065 109.756 13.1629 109.756C11.1192 109.756 11.2121 108.276 13.2557 104.852C13.2557 104.852 11.3979 105.87 10.3761 107.721C9.35426 109.571 8.8898 109.479 7.49641 109.479C5.73146 109.479 5.91725 106.61 8.9827 104.76C9.16848 104.945 8.42534 104.112 4.0594 108.461Z" fill="white" stroke="#263238" stroke-miterlimit="10" stroke-linecap="round" stroke-linejoin="round"/>
<path d="M16.0425 101.706C16.0425 101.706 14.8349 101.614 14.0918 103.649L16.0425 101.706Z" fill="white"/>
<path d="M16.0425 101.706C16.0425 101.706 14.8349 101.614 14.0918 103.649" stroke="#263238" stroke-width="0.75" stroke-miterlimit="10" stroke-linecap="round" stroke-linejoin="round"/>
</svg>
