<svg width="45" height="50" viewBox="0 0 45 50" fill="none" xmlns="http://www.w3.org/2000/svg">
<g clip-path="url(#clip0_1_6483)">
<path d="M43.8663 37.4999C44.2149 36.896 44.4316 36.2155 44.4316 35.6045V14.3952C44.4316 13.7842 44.2152 13.1039 43.8665 12.5L22.2158 24.9999L43.8663 37.4999Z" fill="#659AD2"/>
<path d="M24.1398 49.5416L42.5078 38.937C43.0369 38.6315 43.5178 38.104 43.8664 37.4999L22.2159 25L0.56543 37.5001C0.914057 38.104 1.39511 38.6316 1.92408 38.937L20.292 49.5416C21.3501 50.1526 23.0818 50.1526 24.1398 49.5416Z" fill="#659AD2"/>
<path d="M43.8664 12.4999C43.5176 11.8959 43.0366 11.3684 42.5076 11.0629L24.1397 0.458255C23.0816 -0.152752 21.3499 -0.152752 20.2919 0.458255L1.92391 11.0629C0.865689 11.6737 0 13.1734 0 14.3952V35.6046C0 36.2156 0.216495 36.896 0.565268 37.4999L22.2158 25L43.8664 12.4999Z" fill="#659AD2"/>
<path d="M22.2158 39.8105C14.0492 39.8105 7.40527 33.1665 7.40527 25C7.40527 16.8334 14.0492 10.1895 22.2158 10.1895C27.4854 10.1895 32.4 13.0252 35.0415 17.5901L28.6319 21.2991C27.3099 19.0142 24.8512 17.5947 22.2158 17.5947C18.1324 17.5947 14.8105 20.9166 14.8105 25C14.8105 29.0832 18.1324 32.4052 22.2158 32.4052C24.8515 32.4052 27.3102 30.9857 28.6324 28.7004L35.042 32.4093C32.4005 36.9746 27.4857 39.8105 22.2158 39.8105Z" fill="white"/>
<path d="M37.0262 24.1768H35.3805V22.5312H33.7351V24.1768H32.0894V25.8224H33.7351V27.4681H35.3805V25.8224H37.0262V24.1768Z" fill="white"/>
<path d="M43.1971 24.1768H41.5514V22.5312H39.906V24.1768H38.2603V25.8224H39.906V27.4681H41.5514V25.8224H43.1971V24.1768Z" fill="white"/>
</g>
<defs>
<clipPath id="clip0_1_6483">
<rect width="44.4315" height="50" fill="white"/>
</clipPath>
</defs>
</svg>
