<svg width="107" height="52" viewBox="0 0 107 52" fill="none" xmlns="http://www.w3.org/2000/svg">
<path fill-rule="evenodd" clip-rule="evenodd" d="M46.9224 10.5617C42.1246 14.0104 39 19.6403 39 26C39 32.3597 42.1246 37.9896 46.9224 41.4383C42.1869 47.8453 34.5786 52 26 52C11.6406 52 0 40.3594 0 26C0 11.6406 11.6406 0 26 0C34.5786 0 42.1869 4.1547 46.9224 10.5617Z" fill="#E36F59"/>
<path d="M17.78 18.04L15.14 18.94L15.59 18.28V34.69L15.14 34.06L17.78 34.84V37H9.08V34.84L11.69 34.09L11.3 34.69V18.28L11.84 18.94L9.08 18.19V16.03L17.78 15.88V18.04ZM23.0825 37V34.84L26.4125 34L25.6325 35.08V18.31L26.5025 18.97H21.6125L22.5725 18.13L21.7625 21.94H19.2125V15.88H36.3725V21.94H33.8225L33.0725 18.31L33.9725 18.97H29.0825L29.9525 18.31V35.08L29.2025 34L32.5025 34.84V37H23.0825Z" fill="white"/>
<path d="M50.0523 34.54L49.7523 34.18L52.0623 34.84V37H43.8423V34.84L46.1523 34.18L45.8523 34.54V23.59L46.1223 23.86L43.8423 23.23V21.07L50.0523 20.86V34.54ZM47.8323 18.52C47.0923 18.52 46.4923 18.31 46.0323 17.89C45.5923 17.47 45.3723 16.87 45.3723 16.09C45.3723 15.25 45.6023 14.63 46.0623 14.23C46.5423 13.81 47.1423 13.6 47.8623 13.6C48.5623 13.6 49.1423 13.81 49.6023 14.23C50.0623 14.63 50.2923 15.24 50.2923 16.06C50.2923 16.88 50.0523 17.5 49.5723 17.92C49.1123 18.32 48.5323 18.52 47.8323 18.52ZM53.753 37V34.84L56.153 34.15L55.763 34.6V23.47L56.153 23.92H53.663V21.67L56.243 21.01L55.763 21.64V19.72C55.763 18.3 56.013 17.13 56.513 16.21C57.033 15.27 57.753 14.57 58.673 14.11C59.593 13.65 60.643 13.42 61.823 13.42C62.243 13.42 62.693 13.45 63.173 13.51C63.653 13.55 64.133 13.63 64.613 13.75L64.043 16.66C63.763 16.58 63.483 16.52 63.203 16.48C62.943 16.44 62.683 16.42 62.423 16.42C61.623 16.42 61.013 16.65 60.593 17.11C60.173 17.57 59.963 18.32 59.963 19.36V21.64L59.423 21.13H63.803L63.713 23.92H59.543L59.963 23.47V34.6L59.573 34.15L62.363 34.84V37H53.753ZM71.4823 34.54L71.1823 34.18L73.4923 34.84V37H65.2723V34.84L67.5823 34.18L67.2823 34.54V23.59L67.5523 23.86L65.2723 23.23V21.07L71.4823 20.86V34.54ZM69.2623 18.52C68.5223 18.52 67.9223 18.31 67.4623 17.89C67.0223 17.47 66.8023 16.87 66.8023 16.09C66.8023 15.25 67.0323 14.63 67.4923 14.23C67.9723 13.81 68.5723 13.6 69.2923 13.6C69.9923 13.6 70.5723 13.81 71.0323 14.23C71.4923 14.63 71.7223 15.24 71.7223 16.06C71.7223 16.88 71.4823 17.5 71.0023 17.92C70.5423 18.32 69.9623 18.52 69.2623 18.52ZM82.4431 37.36C81.0631 37.36 79.8131 37.04 78.6931 36.4C77.5931 35.74 76.7231 34.8 76.0831 33.58C75.4431 32.36 75.1231 30.88 75.1231 29.14C75.1231 27.56 75.3531 26.23 75.8131 25.15C76.2731 24.07 76.8931 23.2 77.6731 22.54C78.4531 21.86 79.3231 21.37 80.2831 21.07C81.2431 20.77 82.2331 20.62 83.2531 20.62C84.2131 20.62 85.1831 20.74 86.1631 20.98C87.1431 21.22 87.9431 21.49 88.5631 21.79L88.4431 26.2H85.7431L85.2931 23.74L85.6231 23.98C85.3231 23.86 84.9531 23.77 84.5131 23.71C84.0931 23.65 83.7031 23.62 83.3431 23.62C82.4831 23.62 81.7631 23.84 81.1831 24.28C80.6231 24.7 80.2031 25.31 79.9231 26.11C79.6431 26.89 79.5031 27.82 79.5031 28.9C79.5031 30.06 79.6631 31.04 79.9831 31.84C80.3031 32.64 80.7531 33.25 81.3331 33.67C81.9331 34.07 82.6231 34.27 83.4031 34.27C84.0231 34.27 84.7031 34.14 85.4431 33.88C86.1831 33.62 86.9531 33.23 87.7531 32.71L89.1631 34.84C88.0431 35.7 86.9231 36.34 85.8031 36.76C84.6831 37.16 83.5631 37.36 82.4431 37.36ZM98.4038 20.62C100.764 20.62 102.604 21.32 103.924 22.72C105.244 24.12 105.904 26.11 105.904 28.69C105.904 30.49 105.584 32.04 104.944 33.34C104.304 34.62 103.384 35.61 102.184 36.31C100.984 37.01 99.5438 37.36 97.8638 37.36C95.5038 37.36 93.6738 36.66 92.3738 35.26C91.0938 33.86 90.4538 31.87 90.4538 29.29C90.4538 27.49 90.7638 25.95 91.3838 24.67C92.0238 23.37 92.9338 22.37 94.1138 21.67C95.2938 20.97 96.7238 20.62 98.4038 20.62ZM98.1938 23.62C97.0538 23.62 96.2038 24.07 95.6438 24.97C95.0838 25.85 94.8038 27.22 94.8038 29.08C94.8038 30.94 95.0738 32.29 95.6138 33.13C96.1538 33.95 96.9738 34.36 98.0738 34.36C98.8738 34.36 99.5238 34.16 100.024 33.76C100.524 33.36 100.904 32.75 101.164 31.93C101.424 31.11 101.554 30.1 101.554 28.9C101.554 27.08 101.274 25.75 100.714 24.91C100.154 24.05 99.3138 23.62 98.1938 23.62Z" fill="#23262D"/>
</svg>
