<svg width="595" height="483" viewBox="0 0 595 483" fill="none" xmlns="http://www.w3.org/2000/svg">
<path d="M577.384 225.732C511.393 112.663 332.121 153.016 295.535 98.0384C276.835 69.8727 255.832 37.2385 225.479 20.312C196.481 4.06257 162.876 -1.76014 133.607 0.406447C28.9977 8.12492 -15.4478 101.559 4.74238 204.337C31.5723 341.373 153.12 481.389 297.432 482.337C372.908 482.879 444.996 455.932 501.637 417.746C502.044 417.475 502.45 417.204 502.857 416.933C559.498 378.476 627.792 311.989 577.384 225.732Z" fill="#E36F59"/>
<path opacity="0.8" d="M577.384 225.732C511.393 112.663 332.121 153.016 295.535 98.0384C276.835 69.8727 255.832 37.2385 225.479 20.312C196.481 4.06257 162.876 -1.76014 133.607 0.406447C28.9977 8.12492 -15.4478 101.559 4.74238 204.337C31.5723 341.373 153.12 481.389 297.432 482.337C372.908 482.879 444.996 455.932 501.637 417.746C502.044 417.475 502.45 417.204 502.857 416.933C559.498 378.476 627.792 311.989 577.384 225.732Z" fill="white"/>
</svg>
