<svg width="185" height="100" viewBox="0 0 185 100" fill="none" xmlns="http://www.w3.org/2000/svg">
<path opacity="0.06" d="M13.9 94.3L12.4067 95.6304L12.4134 95.6379L12.4201 95.6453L13.9 94.3ZM7.1 59.6L5.41764 60.6815L5.43109 60.7024L5.44505 60.723L7.1 59.6ZM0 56.8H-2V58.8H0L0 56.8ZM0 43.8L0 41.8H-2L-2 43.8H0ZM7.3 41L9.00958 42.038L7.3 41ZM13.9 6.3L12.4201 4.95465L12.4134 4.96208L12.4067 4.96958L13.9 6.3ZM37.4 0.799996H39.4V-1.2H37.4V0.799996ZM37.4 12.8V14.8H39.4V12.8H37.4ZM30.5 13.8L31.2288 15.6625L31.2491 15.6545L31.2692 15.6462L30.5 13.8ZM27.3 17L25.4375 16.2712L25.4236 16.3068L25.411 16.343L27.3 17ZM24.1 44.3L22.4359 43.1906L22.4286 43.2016L24.1 44.3ZM17.5 49.5L18.2353 51.3599L17.5 49.5ZM7.2 51.2H5.2L5.2 53.2H7.2L7.2 51.2ZM7.2 49.4V47.4H5.2V49.4H7.2ZM17.5 51.1L18.2353 49.2401L17.5 51.1ZM24.1 56.4L22.4146 57.4768L22.4321 57.5042L22.4505 57.5311L24.1 56.4ZM27.3 83.6L25.411 84.257L25.4236 84.2932L25.4375 84.3288L27.3 83.6ZM30.5 86.9L29.7025 88.7341L29.7497 88.7546L29.7978 88.7727L30.5 86.9ZM37.4 87.8H39.4V85.8H37.4V87.8ZM37.4 99.8V101.8H39.4V99.8H37.4ZM29.4 97.8C22.7247 97.8 18.1988 96.0555 15.3799 92.9547L12.4201 95.6453C16.2678 99.8778 22.0753 101.8 29.4 101.8V97.8ZM15.3933 92.9696C12.5684 89.7988 11 85.0163 11 78.3H7C7 85.5837 8.69822 91.4679 12.4067 95.6304L15.3933 92.9696ZM11 78.3L11 67.3H7L7 78.3H11ZM11 67.3C11 63.8039 10.3264 60.7928 8.75495 58.477L5.44505 60.723C6.40696 62.1406 7 64.2628 7 67.3H11ZM8.78236 58.5185C7.03415 55.799 3.79503 54.8 0 54.8L0 58.8C3.27164 58.8 4.76585 59.6676 5.41764 60.6815L8.78236 58.5185ZM2 56.8L2 43.8H-2L-2 56.8H2ZM0 45.8C3.92791 45.8 7.31221 44.8336 9.00958 42.038L5.59043 39.962C5.02112 40.8997 3.53875 41.8 0 41.8L0 45.8ZM9.00958 42.038C10.4047 39.7401 11 36.7637 11 33.3H7C7 36.3696 6.46194 38.5266 5.59043 39.962L9.00958 42.038ZM11 33.3L11 22.3H7L7 33.3H11ZM11 22.3C11 15.5837 12.5684 10.8012 15.3933 7.63041L12.4067 4.96958C8.69822 9.13214 7 15.0163 7 22.3H11ZM15.3799 7.64534C18.1988 4.5445 22.7247 2.8 29.4 2.8V-1.2C22.0753 -1.2 16.2678 0.722164 12.4201 4.95465L15.3799 7.64534ZM29.4 2.8H37.4V-1.2L29.4 -1.2V2.8ZM35.4 0.799996V12.8H39.4V0.799996L35.4 0.799996ZM37.4 10.8C34.3007 10.8 31.6907 11.1372 29.7308 11.9538L31.2692 15.6462C32.5093 15.1295 34.4993 14.8 37.4 14.8V10.8ZM29.7712 11.9375C27.7184 12.7408 26.2408 14.2184 25.4375 16.2712L29.1625 17.7288C29.5592 16.7149 30.2149 16.0592 31.2288 15.6625L29.7712 11.9375ZM25.411 16.343C24.7722 18.1797 24.5 20.5342 24.5 23.3H28.5C28.5 20.7325 28.7612 18.887 29.189 17.657L25.411 16.343ZM24.5 23.3L24.5 35.2H28.5L28.5 23.3H24.5ZM24.5 35.2C24.5 38.5785 23.7644 41.1979 22.4359 43.1906L25.7641 45.4094C27.6356 42.6021 28.5 39.1548 28.5 35.2H24.5ZM22.4286 43.2016C21.1449 45.1551 19.2901 46.6417 16.7647 47.6401L18.2353 51.3599C21.4433 50.0917 23.9885 48.1115 25.7714 45.3984L22.4286 43.2016ZM16.7647 47.6401C14.1904 48.6578 11.0196 49.2 7.2 49.2L7.2 53.2C11.3804 53.2 15.0763 52.6088 18.2353 51.3599L16.7647 47.6401ZM9.2 51.2V49.4H5.2V51.2H9.2ZM7.2 51.4C11.0196 51.4 14.1904 51.9422 16.7647 52.9599L18.2353 49.2401C15.0763 47.9912 11.3804 47.4 7.2 47.4V51.4ZM16.7647 52.9599C19.2742 53.952 21.1267 55.4609 22.4146 57.4768L25.7854 55.3232C24.0067 52.5391 21.4591 50.5146 18.2353 49.2401L16.7647 52.9599ZM22.4505 57.5311C23.7632 59.4454 24.5 62.0184 24.5 65.4H28.5C28.5 61.4482 27.6368 58.0213 25.7495 55.2689L22.4505 57.5311ZM24.5 65.4L24.5 77.3H28.5L28.5 65.4H24.5ZM24.5 77.3C24.5 80.0658 24.7722 82.4203 25.411 84.257L29.189 82.943C28.7612 81.713 28.5 79.8675 28.5 77.3H24.5ZM25.4375 84.3288C26.2347 86.3661 27.6898 87.859 29.7025 88.7341L31.2975 85.0659C30.2435 84.6076 29.5653 83.9006 29.1625 82.8712L25.4375 84.3288ZM29.7978 88.7727C31.7311 89.4977 34.3132 89.8 37.4 89.8V85.8C34.4868 85.8 32.4689 85.5023 31.2022 85.0273L29.7978 88.7727ZM35.4 87.8V99.8H39.4V87.8H35.4ZM37.4 97.8H29.4V101.8H37.4V97.8ZM112.399 6.7L114.319 7.25926L115.065 4.7H112.399V6.7ZM86.0992 97V99H87.5998L88.0194 97.5593L86.0992 97ZM72.3992 97L70.4779 96.4447L69.7393 99H72.3992V97ZM98.4992 6.7V4.7H96.9954L96.5779 6.14466L98.4992 6.7ZM110.479 6.14073L84.179 96.4407L88.0194 97.5593L114.319 7.25926L110.479 6.14073ZM86.0992 95H72.3992V99H86.0992V95ZM74.3206 97.5553L100.421 7.25534L96.5779 6.14466L70.4779 96.4447L74.3206 97.5553ZM98.4992 8.7L112.399 8.7V4.7L98.4992 4.7V8.7ZM170.841 94.3L169.361 92.9547L169.354 92.9621L169.347 92.9696L170.841 94.3ZM177.741 59.6L179.396 60.723L177.741 59.6ZM184.841 56.8V58.8H186.841V56.8H184.841ZM184.841 43.8H186.841V41.8H184.841V43.8ZM177.541 41L175.831 42.038L177.541 41ZM170.841 6.3L169.347 7.63041L169.354 7.63791L169.361 7.64534L170.841 6.3ZM147.441 0.799996V-1.2L145.441 -1.2V0.799996L147.441 0.799996ZM147.441 12.8H145.441V14.8H147.441V12.8ZM154.241 13.8L153.443 15.6341L153.49 15.6546L153.538 15.6727L154.241 13.8ZM157.441 17L155.552 17.657L155.564 17.6932L155.578 17.7288L157.441 17ZM160.641 44.3L158.955 45.3768L158.973 45.4042L158.991 45.4311L160.641 44.3ZM167.341 49.5L168.076 47.6401L167.341 49.5ZM177.641 51.2V53.2H179.641V51.2H177.641ZM177.641 49.4H179.641V47.4H177.641V49.4ZM167.341 51.1L168.076 52.9599L167.341 51.1ZM160.641 56.4L158.976 55.2906L158.969 55.3016L160.641 56.4ZM157.441 83.6L155.578 82.8712L155.564 82.9068L155.552 82.943L157.441 83.6ZM154.241 86.9L154.969 88.7625L154.99 88.7545L155.01 88.7462L154.241 86.9ZM147.441 87.8V85.8H145.441V87.8H147.441ZM147.441 99.8H145.441V101.8H147.441V99.8ZM155.441 101.8C162.762 101.8 168.549 99.8792 172.334 95.6304L169.347 92.9696C166.599 96.0542 162.119 97.8 155.441 97.8V101.8ZM172.321 95.6453C176.105 91.4829 177.841 85.5928 177.841 78.3H173.841C173.841 85.0072 172.243 89.7838 169.361 92.9547L172.321 95.6453ZM177.841 78.3V67.3H173.841V78.3H177.841ZM177.841 67.3C177.841 64.2628 178.434 62.1406 179.396 60.723L176.086 58.477C174.514 60.7928 173.841 63.8039 173.841 67.3H177.841ZM179.396 60.723C180.121 59.6538 181.665 58.8 184.841 58.8V54.8C181.083 54.8 177.893 55.8129 176.086 58.477L179.396 60.723ZM186.841 56.8V43.8H182.841V56.8H186.841ZM184.841 41.8C181.302 41.8 179.82 40.8997 179.25 39.962L175.831 42.038C177.528 44.8336 180.913 45.8 184.841 45.8V41.8ZM179.25 39.962C178.379 38.5266 177.841 36.3696 177.841 33.3H173.841C173.841 36.7637 174.436 39.7401 175.831 42.038L179.25 39.962ZM177.841 33.3V22.3H173.841V33.3H177.841ZM177.841 22.3C177.841 15.0072 176.105 9.11711 172.321 4.95465L169.361 7.64534C172.243 10.8162 173.841 15.5928 173.841 22.3H177.841ZM172.334 4.96958C168.549 0.720844 162.762 -1.2 155.441 -1.2V2.8C162.119 2.8 166.599 4.54582 169.347 7.63041L172.334 4.96958ZM155.441 -1.2L147.441 -1.2V2.8L155.441 2.8V-1.2ZM145.441 0.799996V12.8H149.441V0.799996L145.441 0.799996ZM147.441 14.8C150.35 14.8 152.288 15.1319 153.443 15.6341L155.038 11.9659C153.127 11.1348 150.531 10.8 147.441 10.8V14.8ZM153.538 15.6727C154.615 16.0765 155.225 16.7181 155.552 17.657L159.33 16.343C158.59 14.2152 157.066 12.7235 154.943 11.9273L153.538 15.6727ZM155.578 17.7288C156.048 18.9305 156.341 20.7474 156.341 23.3H160.341C160.341 20.5192 160.033 18.1361 159.303 16.2712L155.578 17.7288ZM156.341 23.3V35.2H160.341V23.3H156.341ZM156.341 35.2C156.341 39.1399 157.165 42.5747 158.955 45.3768L162.326 43.2232C161.05 41.2253 160.341 38.5934 160.341 35.2H156.341ZM158.991 45.4311C160.837 48.1224 163.403 50.0938 166.605 51.3599L168.076 47.6401C165.545 46.6395 163.645 45.1442 162.29 43.1689L158.991 45.4311ZM166.605 51.3599C169.764 52.6088 173.46 53.2 177.641 53.2V49.2C173.821 49.2 170.65 48.6578 168.076 47.6401L166.605 51.3599ZM179.641 51.2V49.4H175.641V51.2H179.641ZM177.641 47.4C173.46 47.4 169.764 47.9912 166.605 49.2401L168.076 52.9599C170.65 51.9422 173.821 51.4 177.641 51.4V47.4ZM166.605 49.2401C163.387 50.5123 160.818 52.5279 158.977 55.2906L162.305 57.5094C163.663 55.4721 165.561 53.9543 168.076 52.9599L166.605 49.2401ZM158.969 55.3016C157.164 58.049 156.341 61.4633 156.341 65.4H160.341C160.341 62.0034 161.051 59.4177 162.312 57.4984L158.969 55.3016ZM156.341 65.4V77.3H160.341V65.4H156.341ZM156.341 77.3C156.341 79.8526 156.048 81.6694 155.578 82.8712L159.303 84.3288C160.033 82.4639 160.341 80.0808 160.341 77.3H156.341ZM155.552 82.943C155.219 83.8989 154.586 84.5894 153.471 85.0538L155.01 88.7462C157.095 87.8773 158.595 86.3678 159.33 84.257L155.552 82.943ZM153.512 85.0375C152.329 85.5003 150.362 85.8 147.441 85.8V89.8C150.519 89.8 153.085 89.4997 154.969 88.7625L153.512 85.0375ZM145.441 87.8V99.8H149.441V87.8H145.441ZM147.441 101.8H155.441V97.8H147.441V101.8Z" fill="#23262D"/>
</svg>
