<svg width="168" height="100" viewBox="0 0 168 100" fill="none" xmlns="http://www.w3.org/2000/svg">
<path opacity="0.06" d="M0.8 99.8H-1.2L-1.2 101.835L0.834717 101.8L0.8 99.8ZM0.8 0.799996L0.834717 -1.1997L-1.2 -1.23503V0.799996H0.8ZM29.6 1.3L31.6 1.3V-0.665584L29.6347 -0.699703L29.6 1.3ZM29.6 13.3L29.7689 15.2929L31.6 15.1377V13.3H29.6ZM17.8 14.3L17.6311 12.3071L15.8 12.4623V14.3H17.8ZM17.8 86.3H15.8V88.1377L17.6311 88.2929L17.8 86.3ZM29.6 87.3H31.6V85.4623L29.7689 85.3071L29.6 87.3ZM29.6 99.3L29.6347 101.3L31.6 101.266V99.3H29.6ZM2.8 99.8L2.8 0.799996H-1.2L-1.2 99.8H2.8ZM0.765283 2.7997L29.5653 3.29969L29.6347 -0.699703L0.834717 -1.1997L0.765283 2.7997ZM27.6 1.3V13.3L31.6 13.3V1.3L27.6 1.3ZM29.4311 11.3071L17.6311 12.3071L17.9689 16.2929L29.7689 15.2929L29.4311 11.3071ZM15.8 14.3L15.8 86.3H19.8L19.8 14.3H15.8ZM17.6311 88.2929L29.4311 89.2929L29.7689 85.3071L17.9689 84.3071L17.6311 88.2929ZM27.6 87.3V99.3H31.6V87.3H27.6ZM29.5653 97.3003L0.765283 97.8003L0.834717 101.8L29.6347 101.3L29.5653 97.3003ZM104.274 6.7L106.194 7.25926L106.94 4.7H104.274V6.7ZM77.9742 97V99H79.4748L79.8944 97.5593L77.9742 97ZM64.2742 97L62.3529 96.4447L61.6143 99H64.2742V97ZM90.3742 6.7V4.7L88.8704 4.7L88.4529 6.14466L90.3742 6.7ZM102.354 6.14073L76.054 96.4407L79.8944 97.5593L106.194 7.25926L102.354 6.14073ZM77.9742 95H64.2742V99H77.9742V95ZM66.1956 97.5553L92.2956 7.25534L88.4529 6.14466L62.3529 96.4447L66.1956 97.5553ZM90.3742 8.7L104.274 8.7V4.7L90.3742 4.7V8.7ZM167.816 0.799996L169.816 0.799996V-1.23503L167.781 -1.1997L167.816 0.799996ZM167.816 99.8L167.781 101.8L169.816 101.835V99.8H167.816ZM139.016 99.3H137.016V101.266L138.981 101.3L139.016 99.3ZM139.016 87.3L138.847 85.3071L137.016 85.4623V87.3H139.016ZM150.816 86.3L150.985 88.2929L152.816 88.1377V86.3H150.816ZM150.816 14.3H152.816V12.4623L150.985 12.3071L150.816 14.3ZM139.016 13.3L137.016 13.3V15.1377L138.847 15.2929L139.016 13.3ZM139.016 1.3L138.981 -0.699703L137.016 -0.665584V1.3H139.016ZM165.816 0.799996L165.816 99.8H169.816L169.816 0.799996L165.816 0.799996ZM167.85 97.8003L139.05 97.3003L138.981 101.3L167.781 101.8L167.85 97.8003ZM141.016 99.3V87.3H137.016V99.3H141.016ZM139.185 89.2929L150.985 88.2929L150.647 84.3071L138.847 85.3071L139.185 89.2929ZM152.816 86.3L152.816 14.3H148.816L148.816 86.3H152.816ZM150.985 12.3071L139.185 11.3071L138.847 15.2929L150.647 16.2929L150.985 12.3071ZM141.016 13.3V1.3H137.016V13.3L141.016 13.3ZM139.05 3.29969L167.85 2.7997L167.781 -1.1997L138.981 -0.699703L139.05 3.29969Z" fill="#23262D"/>
</svg>
