<svg width="222" height="349" viewBox="0 0 222 349" fill="none" xmlns="http://www.w3.org/2000/svg">
<path d="M93.9835 315.074C93.9835 315.074 54.6872 326.314 49.267 328.345C44.2533 330.105 30.7029 334.844 20.5401 333.355C19.5915 333.22 18.5075 332.949 17.6945 332.678C7.39615 329.563 2.789 326.72 1.43395 320.355C0.0789076 313.856 5.22807 309.116 10.1062 306.137C14.9844 303.023 41.8143 299.908 41.8143 299.908L48.3185 301.804L93.9835 315.074Z" fill="#E36F59"/>
<path d="M20.5401 333.219C19.5915 333.084 18.5075 332.813 17.6945 332.542C7.39615 329.428 2.789 326.584 1.43395 320.22C0.0789073 313.72 5.22807 308.98 10.1062 306.001C14.9844 302.887 41.8143 299.772 41.8143 299.772L48.3185 301.668C42.4918 304.376 20.6756 305.866 15.9329 308.574C11.1903 311.282 8.88668 316.428 11.7323 323.47C13.0873 327.126 17.1525 330.782 20.5401 333.219Z" fill="white"/>
<path d="M88.0211 316.699C88.0211 316.699 58.4812 324.282 46.8278 329.293C35.1744 334.167 12.8162 336.334 4.82141 326.178C-3.17335 316.158 3.87288 307.356 11.8676 305.46C19.8624 303.564 35.8519 300.45 44.6597 301.669" stroke="#263238" stroke-width="1.1031" stroke-miterlimit="10" stroke-linecap="round" stroke-linejoin="round"/>
<path d="M21.0818 332.678C21.0818 332.678 6.04078 324.418 11.0544 312.908C14.7131 304.377 34.7677 306.273 44.6595 301.533" stroke="#263238" stroke-width="1.1031" stroke-miterlimit="10" stroke-linecap="round" stroke-linejoin="round"/>
<path d="M213.634 335.115C213.227 339.178 211.872 342.969 207.807 345.407C205.097 347.032 201.303 347.979 195.747 347.844C181.926 347.709 156.044 337.824 156.044 337.824L131.789 324.418L144.391 304.512L147.779 299.096L156.722 301.127C156.722 301.127 164.039 305.325 171.492 308.575C178.945 311.96 196.967 312.637 203.335 317.783C209.704 322.793 214.311 328.345 213.634 335.115Z" fill="#E36F59"/>
<path d="M213.633 335.115C213.227 339.178 211.872 342.969 207.807 345.407C208.62 342.292 209.162 337.959 207.129 333.355C204.419 327.261 195.611 321.98 183.958 321.032C172.44 320.085 163.497 314.668 158.89 312.231C155.231 310.335 147.643 306.273 144.391 304.512L147.778 299.096L156.722 301.127C156.722 301.127 164.039 305.325 171.492 308.575C178.944 311.96 196.966 312.637 203.335 317.783C209.704 322.793 214.311 328.345 213.633 335.115Z" fill="white"/>
<path d="M137.074 328.209C154.283 338.094 174.067 345.271 193.85 347.573C198.322 348.115 203.335 348.115 206.317 344.865C207.943 342.969 208.62 340.396 208.349 337.959C207.807 331.73 202.522 326.855 196.831 324.282C191.14 321.845 184.771 321.168 178.674 319.814C172.576 318.46 166.749 316.293 161.194 313.449C156.857 311.147 152.521 308.439 147.779 307.356C142.901 306.272 137.209 307.627 134.635 311.824" stroke="#263238" stroke-width="1.1031" stroke-miterlimit="10" stroke-linecap="round" stroke-linejoin="round"/>
<path d="M204.826 346.489C209.298 344.187 212.956 339.99 213.634 334.979C214.447 329.157 211.195 323.199 206.452 319.542C201.71 315.886 195.883 314.261 190.056 313.043C184.23 311.824 178.267 311.011 172.712 308.845C164.175 305.46 155.774 298.96 146.966 301.262" stroke="#263238" stroke-width="1.1031" stroke-miterlimit="10" stroke-linecap="round" stroke-linejoin="round"/>
<path d="M164.446 118.456L123.388 102.884L122.846 102.748C122.846 102.748 122.982 101.665 123.117 100.04C123.388 96.79 123.524 91.3736 122.033 89.6132C119.73 86.905 113.225 89.207 106.992 86.2279C100.624 83.3843 88.9701 88.5299 88.9701 88.5299C88.9701 88.5299 80.5688 87.0404 76.7747 93.1339C74.8777 98.0087 75.5552 105.321 75.5552 105.321C75.5552 105.321 75.2842 105.456 74.7421 105.592C69.864 107.352 43.3051 117.373 37.6139 121.435C31.3807 125.904 24.47 170.996 22.3019 184.266C20.1339 197.536 16.2042 209.453 18.1013 214.057C20.1339 218.661 48.7253 240.597 65.1213 246.285C81.5174 251.972 139.92 250.347 139.92 250.347C139.92 250.347 140.868 250.076 142.63 249.535C152.522 246.42 187.482 233.285 206.046 202.547C206.046 202.547 188.159 143.643 164.446 118.456ZM53.6035 194.422C50.6224 196.589 52.2484 204.849 52.2484 204.849L47.0993 200.38L59.9722 168.694L65.5278 193.068C65.5278 192.932 56.5846 192.255 53.6035 194.422ZM156.858 214.598C155.503 215.275 160.923 200.109 158.348 196.589C155.774 193.068 147.915 193.474 147.915 193.474L148.592 189.276C148.728 188.87 153.199 165.444 153.199 165.444L154.69 163.548C154.69 163.548 170.679 190.901 173.525 200.515C173.525 200.651 156.045 214.598 156.858 214.598Z" fill="#E36F59"/>
<path opacity="0.5" d="M123.523 102.749C123.252 103.561 122.845 104.374 122.439 105.186C118.916 111.821 103.739 124.279 103.739 124.279L99.132 110.196L96.5574 124.279C91.4083 122.113 75.9608 108.707 75.9608 108.707C75.9608 108.707 75.4187 107.488 74.7412 105.457C75.2832 105.322 75.5542 105.186 75.5542 105.186C75.5542 105.186 74.8767 97.874 76.7738 92.9992C80.4324 86.9056 88.9692 88.3951 88.9692 88.3951C88.9692 88.3951 100.623 83.2495 106.991 86.0931C113.36 88.9368 119.864 86.7702 122.032 89.4784C124.336 92.1867 122.981 102.613 122.981 102.613L123.523 102.749Z" fill="white"/>
<path d="M87.0732 19.6055L65.9345 42.0838C65.9345 42.0838 62.9534 44.6567 64.1729 51.1564C65.3925 57.6562 68.1026 63.3435 70.1351 63.7497C72.1677 64.156 75.0133 64.156 75.0133 64.156C75.0133 64.156 79.6205 74.041 82.7371 77.8326C82.7371 77.8326 83.8211 92.9987 83.2791 97.1965C83.2791 97.1965 90.8673 103.832 98.049 104.644C105.231 105.457 116.342 94.4882 116.342 94.4882L119.052 81.0825C119.052 81.0825 125.556 71.1974 125.963 68.6246C126.369 66.0518 129.351 66.7288 130.841 65.3747C132.332 64.0206 135.719 58.3333 136.261 52.7814C136.803 47.3649 136.803 41.0006 130.435 42.8963C124.879 41.4068 128.402 29.7614 128.402 29.7614L118.781 21.2304L87.0732 19.6055Z" fill="#FFE6DA"/>
<path opacity="0.2" d="M164.446 118.456L123.388 102.884L122.846 102.748C122.846 102.748 122.981 101.665 123.117 100.04L122.304 105.321L116.206 113.581C116.206 113.581 126.504 117.237 135.177 121.977C141.274 125.227 144.662 131.726 143.849 138.497L136.261 203.088L133.144 239.785L142.494 249.535C152.386 246.42 187.346 233.285 205.91 202.547C206.046 202.547 188.159 143.643 164.446 118.456ZM156.857 214.598C155.502 215.275 160.923 200.109 158.348 196.589C155.773 193.068 147.914 193.474 147.914 193.474L148.592 189.276C148.727 188.87 153.199 165.444 153.199 165.444L154.689 163.548C154.689 163.548 170.679 190.901 173.524 200.516C173.524 200.651 156.044 214.598 156.857 214.598Z" fill="black"/>
<path opacity="0.2" d="M68.2377 196.589L61.869 175.33C61.869 175.33 50.4866 136.331 42.6274 126.717L44.6599 154.205C44.6599 154.205 37.8847 186.975 31.6515 196.725C25.4183 206.474 24.0632 208.912 31.6515 208.912C39.2397 208.912 57.6683 223.536 57.6683 223.536L56.3133 211.349L68.2377 196.589ZM52.2482 204.849L47.099 200.381L59.9719 168.694L65.5276 193.069C65.5276 193.069 56.7198 192.392 53.7387 194.558C50.6221 196.589 52.2482 204.849 52.2482 204.849Z" fill="black"/>
<path d="M82.6016 77.833C82.6016 77.833 83.821 89.343 82.6016 94.6241" stroke="#263238" stroke-width="1.1031" stroke-miterlimit="10" stroke-linecap="round" stroke-linejoin="round"/>
<path d="M117.29 92.9986C117.29 92.9986 117.29 87.4467 118.51 82.0303" stroke="#263238" stroke-width="1.1031" stroke-miterlimit="10" stroke-linecap="round" stroke-linejoin="round"/>
<path d="M120.407 28.1367C120.407 28.1367 127.318 36.9385 127.047 43.4383C126.64 50.0734 126.098 57.9273 126.369 65.5104C126.505 73.2289 114.038 89.2075 107.669 90.697C101.301 92.1865 95.7451 92.4573 91.5445 88.395C87.4793 84.3326 83.2787 78.6453 77.994 71.3331C72.5738 64.0209 73.9289 48.0423 73.9289 48.0423" stroke="#263238" stroke-width="1.1031" stroke-miterlimit="10" stroke-linecap="round" stroke-linejoin="round"/>
<path d="M103.74 54C103.333 56.4374 103.198 58.8748 103.198 61.3122C103.198 63.3434 103.604 65.51 104.959 66.9995C105.772 67.812 106.856 68.3536 106.992 69.4369C107.127 70.3848 106.45 71.3327 105.501 71.7389C104.688 72.2806 103.74 72.5514 102.927 73.2285" stroke="#263238" stroke-width="1.1031" stroke-miterlimit="10" stroke-linecap="round" stroke-linejoin="round"/>
<path d="M92.6279 74.1768C92.6279 74.1768 93.441 79.3224 100.352 80.4057" stroke="#263238" stroke-width="1.1031" stroke-miterlimit="10" stroke-linecap="round" stroke-linejoin="round"/>
<path d="M93.3062 57.927C93.3062 59.4165 92.6287 60.6352 91.8157 60.6352C91.0027 60.6352 90.3252 59.4165 90.3252 57.927C90.3252 56.4375 91.0027 55.2188 91.8157 55.2188C92.7642 55.2188 93.3062 56.4375 93.3062 57.927Z" fill="#263238"/>
<path d="M114.038 58.6037C114.038 60.0933 113.36 61.312 112.547 61.312C111.734 61.312 111.057 60.0933 111.057 58.6037C111.057 57.1142 111.734 55.8955 112.547 55.8955C113.496 55.8955 114.038 57.1142 114.038 58.6037Z" fill="#263238"/>
<path d="M109.973 52.1044C109.973 52.1044 116.748 45.3338 122.439 52.9169" stroke="#263238" stroke-width="2.2062" stroke-miterlimit="10" stroke-linecap="round" stroke-linejoin="round"/>
<path d="M95.6096 52.2402C95.6096 52.2402 91.2735 47.5008 84.6338 52.2402" stroke="#263238" stroke-width="2.2062" stroke-miterlimit="10" stroke-linecap="round" stroke-linejoin="round"/>
<path d="M83.1428 84.1967C83.1428 84.1967 87.208 95.5713 96.5578 98.8212C105.772 102.071 118.103 85.28 118.103 85.28L117.425 83.1134C117.425 83.1134 109.431 93.5401 100.487 91.7798C91.5441 90.0194 82.7363 77.9678 82.7363 77.9678L83.1428 84.1967Z" fill="#263238"/>
<path d="M74.8774 63.75C74.8774 63.75 69.3217 65.6458 67.9667 61.448C66.4762 57.1148 61.4625 45.8756 65.9341 42.0841C70.2703 38.2925 73.7934 47.0943 73.7934 47.0943" stroke="#263238" stroke-width="1.1031" stroke-miterlimit="10" stroke-linecap="round" stroke-linejoin="round"/>
<path d="M126.369 66.0523C126.369 66.0523 131.518 67.1356 133.009 62.8025C134.499 58.4693 139.513 47.2301 135.041 43.4386C130.705 39.647 127.182 48.4488 127.182 48.4488" stroke="#263238" stroke-width="1.1031" stroke-miterlimit="10" stroke-linecap="round" stroke-linejoin="round"/>
<path d="M73.7934 57.9271C75.2839 57.7917 77.8585 56.4376 78.6716 55.0835C79.4846 53.7294 79.7556 52.2398 80.0266 50.7503C80.5686 47.9067 80.8396 44.9276 80.8396 42.084C80.8396 41.0007 80.8396 39.782 81.1106 38.6987C81.5171 37.6154 82.1946 36.5321 83.0077 35.7196C84.9047 33.4176 87.2083 31.5218 89.1054 29.2198C90.8669 26.9178 92.222 23.9388 91.8155 21.0951C91.8155 21.0951 104.282 32.4697 122.304 28.949C131.925 27.0533 141.275 18.5223 140.191 7.96018C139.784 4.16865 136.938 1.46041 133.415 0.512531C128.673 -0.706175 124.337 1.86665 120 3.49159C112.141 6.47065 104.417 1.325 96.4226 0.512531C89.6474 -0.164528 81.2461 0.647931 77.723 7.41852C77.723 7.41852 65.3921 8.90805 60.1074 18.9285C54.6873 28.949 64.9856 42.8964 64.9856 42.8964C64.9856 42.8964 69.0507 37.8862 74.3354 48.0421L73.7934 57.9271Z" fill="#263238"/>
<path d="M121.22 25.564C121.22 25.564 118.103 42.0842 126.369 50.0735C126.369 50.0735 128.13 45.0633 130.027 43.8446C130.027 43.8446 134.635 35.1782 128.537 25.564C122.439 15.9498 121.22 25.564 121.22 25.564Z" fill="#263238"/>
<path opacity="0.2" d="M136.396 6.74121C135.177 11.3452 131.383 14.8659 126.911 16.6263C115.393 21.3657 104.282 16.0846 92.7639 15.1368C83.4141 14.3243 72.9803 22.7198 72.3027 32.4695" stroke="white" stroke-width="1.1031" stroke-miterlimit="10" stroke-linecap="round" stroke-linejoin="round"/>
<path opacity="0.2" d="M65.2568 29.7614C65.3923 22.1783 70.406 14.8661 77.4522 12.0225" stroke="white" stroke-width="1.1031" stroke-miterlimit="10" stroke-linecap="round" stroke-linejoin="round"/>
<path d="M80.0264 92.9987C80.0264 92.9987 87.6146 101.394 97.9129 105.186C97.9129 105.186 111.734 101.259 118.645 91.6445" stroke="#263238" stroke-width="1.1031" stroke-miterlimit="10" stroke-linecap="round" stroke-linejoin="round"/>
<path d="M94.051 68.9952C100.173 66.1892 102.86 58.9546 100.052 52.8364C97.2444 46.7182 90.0049 44.0331 83.8825 46.8391C77.7601 49.6452 75.0732 56.8797 77.8811 62.998C80.6891 69.1162 87.9286 71.8012 94.051 68.9952Z" stroke="#263238" stroke-width="1.1031" stroke-miterlimit="10" stroke-linecap="round" stroke-linejoin="round"/>
<path d="M117.665 70.0114C124.35 69.1909 129.103 63.1104 128.282 56.4301C127.461 49.7499 121.377 44.9996 114.692 45.8201C108.007 46.6405 103.253 52.7211 104.075 59.4013C104.896 66.0816 110.98 70.8319 117.665 70.0114Z" stroke="#263238" stroke-width="1.1031" stroke-miterlimit="10" stroke-linecap="round" stroke-linejoin="round"/>
<path d="M82.6009 88.53C82.6009 88.53 78.9423 89.3425 76.7742 93.134C74.6061 96.9256 75.9612 108.842 75.9612 108.842C75.9612 108.842 87.0725 119.81 96.5578 124.414L99.4034 108.706L103.74 124.414C103.74 124.414 118.374 113.987 122.439 105.321C122.439 105.321 123.794 95.1652 122.439 91.7799C121.084 88.3946 118.103 88.53 118.103 88.53" stroke="#263238" stroke-width="1.1031" stroke-miterlimit="10" stroke-linecap="round" stroke-linejoin="round"/>
<path d="M65.2566 193.474C65.2566 193.474 60.9204 164.361 55.0938 152.444" stroke="#263238" stroke-width="1.1031" stroke-miterlimit="10" stroke-linecap="round" stroke-linejoin="round"/>
<path d="M42.627 126.717C42.627 126.717 48.1826 134.435 51.5703 141.748" stroke="#263238" stroke-width="1.1031" stroke-miterlimit="10" stroke-linecap="round" stroke-linejoin="round"/>
<path d="M156.857 148.382C158.348 142.56 159.974 137.549 161.6 134.164" stroke="#263238" stroke-width="1.1031" stroke-miterlimit="10" stroke-linecap="round" stroke-linejoin="round"/>
<path d="M147.778 193.475C147.778 193.475 150.895 173.569 154.689 157.049" stroke="#263238" stroke-width="1.1031" stroke-miterlimit="10" stroke-linecap="round" stroke-linejoin="round"/>
<path d="M153.199 165.444C156.18 161.517 160.516 158.538 165.259 157.184" stroke="#263238" stroke-width="1.1031" stroke-miterlimit="10" stroke-linecap="round" stroke-linejoin="round"/>
<path d="M122.981 102.613C122.981 102.613 148.185 112.634 164.581 118.456C164.581 118.456 184.636 137.279 206.181 202.547C206.181 202.547 186.533 235.723 148.998 246.285" stroke="#263238" stroke-width="1.1031" stroke-miterlimit="10" stroke-linecap="round" stroke-linejoin="round"/>
<path d="M155.367 215.682L173.525 200.516C173.525 200.516 183.146 193.203 193.037 198.214" stroke="#263238" stroke-width="1.1031" stroke-miterlimit="10" stroke-linecap="round" stroke-linejoin="round"/>
<path d="M154.689 163.684C154.689 163.684 169.73 185.756 173.525 200.651" stroke="#263238" stroke-width="1.1031" stroke-miterlimit="10" stroke-linecap="round" stroke-linejoin="round"/>
<path d="M52.3831 205.661L47.0985 200.651C47.0985 200.651 39.2392 199.297 30.2959 205.255" stroke="#263238" stroke-width="1.1031" stroke-miterlimit="10" stroke-linecap="round" stroke-linejoin="round"/>
<path d="M47.0986 200.652C47.0986 200.652 53.7383 178.986 60.1071 167.882" stroke="#263238" stroke-width="1.1031" stroke-miterlimit="10" stroke-linecap="round" stroke-linejoin="round"/>
<path d="M75.5547 105.321C75.5547 105.321 39.2395 118.998 35.7164 122.925C32.1933 126.852 18.6428 203.089 18.2363 211.755C17.9653 219.609 46.1502 237.077 60.2427 244.389" stroke="#263238" stroke-width="1.1031" stroke-miterlimit="10" stroke-linecap="round" stroke-linejoin="round"/>
<path d="M206.994 92.9985H165.529C160.651 92.9985 156.722 89.0716 156.722 84.1967V59.958C156.722 55.0832 160.651 51.1562 165.529 51.1562H206.994C211.872 51.1562 215.802 55.0832 215.802 59.958V84.1967C215.937 89.0716 212.007 92.9985 206.994 92.9985Z" fill="white" stroke="#263238" stroke-width="1.1031" stroke-miterlimit="10" stroke-linecap="round" stroke-linejoin="round"/>
<path d="M175.828 63.75L164.581 70.7914L175.015 80.1348" stroke="#263238" stroke-width="1.1031" stroke-miterlimit="10" stroke-linecap="round" stroke-linejoin="round"/>
<path d="M196.56 80.8116L206.858 72.1452L195.069 64.4268" stroke="#263238" stroke-width="1.1031" stroke-miterlimit="10" stroke-linecap="round" stroke-linejoin="round"/>
<path d="M181.384 86.2279L189.785 59.958" stroke="#263238" stroke-width="1.1031" stroke-miterlimit="10" stroke-linecap="round" stroke-linejoin="round"/>
<path d="M102.655 131.05C102.655 132.404 101.571 133.487 100.216 133.487C98.8614 133.487 97.7773 132.404 97.7773 131.05C97.7773 129.696 98.8614 128.612 100.216 128.612C101.571 128.612 102.655 129.696 102.655 131.05Z" fill="#263238"/>
<path d="M144.798 258.608H62.1402C61.0562 258.608 60.2432 257.795 60.2432 256.712C60.2432 255.629 61.0562 254.816 62.1402 254.816H144.798C145.882 254.816 146.695 255.629 146.695 256.712C146.695 257.66 145.746 258.608 144.798 258.608Z" fill="#263238"/>
<path d="M147.644 252.108L158.755 200.11C159.433 196.725 156.858 193.475 153.335 193.475H56.7202C53.1971 193.475 50.6225 196.725 51.3 200.11L61.1919 250.348C61.7339 252.92 63.902 254.681 66.4765 254.816L142.088 256.577C144.798 256.577 147.102 254.816 147.644 252.108Z" fill="white" stroke="#263238" stroke-width="1.1031" stroke-miterlimit="10" stroke-linecap="round" stroke-linejoin="round"/>
<path d="M112.412 223.401C112.412 227.599 109.025 231.12 104.689 231.12C100.352 231.12 96.9648 227.734 96.9648 223.401C96.9648 219.068 100.352 215.683 104.689 215.683C109.025 215.683 112.412 219.203 112.412 223.401Z" fill="#263238"/>
<path d="M127.589 198.35H138.971" stroke="#263238" stroke-width="1.1031" stroke-miterlimit="10" stroke-linecap="round" stroke-linejoin="round"/>
<path d="M72.71 198.35H116.342" stroke="#263238" stroke-width="1.1031" stroke-miterlimit="10" stroke-linecap="round" stroke-linejoin="round"/>
<path d="M147.779 307.356L138.971 330.511C138.971 330.511 116.478 324.824 87.7506 319.001C57.6686 312.772 26.2316 304.918 9.97107 276.346C7.93851 272.826 6.71898 268.763 7.53201 264.836C9.83559 254.951 22.7085 252.243 31.2453 251.295C36.53 250.618 41.9501 250.483 47.2348 250.347C49.9449 250.347 59.0237 248.858 61.1918 250.483C61.1918 250.483 66.8829 254.68 71.6256 256.712C76.3683 258.743 146.695 254.816 146.695 254.816C146.695 254.816 148.728 250.347 148.863 246.42C159.839 240.868 185.449 236.129 196.29 238.16C213.228 241.41 223.12 251.295 221.358 261.722C219.461 272.013 181.926 299.772 147.779 307.356Z" fill="#263238"/>
<path d="M147.779 307.356C147.779 307.356 126.369 301.669 109.025 289.888C91.5448 278.107 77.9943 264.431 53.6035 267.274" stroke="white" stroke-width="1.1031" stroke-miterlimit="10" stroke-linecap="round" stroke-linejoin="round"/>
<path d="M104.959 287.044C115.935 283.929 124.065 276.753 132.873 269.847C142.223 262.534 152.115 255.628 162.819 250.212" stroke="white" stroke-width="1.1031" stroke-miterlimit="10" stroke-linecap="round" stroke-linejoin="round"/>
<path d="M101.165 59.958H104.417" stroke="#263238" stroke-width="1.1031" stroke-miterlimit="10" stroke-linecap="round" stroke-linejoin="round"/>
</svg>
