<svg width="396" height="391" viewBox="0 0 396 391" fill="none" xmlns="http://www.w3.org/2000/svg">
<path d="M160.88 372.443H19.1427C9.38636 372.443 1.3916 364.454 1.3916 354.704V158.628C1.3916 148.878 9.38636 140.889 19.1427 140.889H160.88C170.637 140.889 178.631 148.878 178.631 158.628V354.704C178.631 364.454 170.772 372.443 160.88 372.443Z" fill="#70CAFC" stroke="#263238" stroke-width="1.1031" stroke-miterlimit="10"/>
<path opacity="0.2" d="M160.88 372.443H19.1427C9.38636 372.443 1.3916 364.454 1.3916 354.704V158.628C1.3916 148.878 9.38636 140.889 19.1427 140.889H160.88C170.637 140.889 178.631 148.878 178.631 158.628V354.704C178.631 364.454 170.772 372.443 160.88 372.443Z" fill="black"/>
<path d="M195.163 176.095V372.172C195.163 381.921 187.168 389.911 177.412 389.911H35.6739C25.9176 389.911 17.9229 381.921 17.9229 372.172V176.095C17.9229 166.346 25.9176 158.356 35.6739 158.356H177.412C187.168 158.356 195.163 166.346 195.163 176.095Z" fill="white" stroke="#263238" stroke-width="1.1031" stroke-miterlimit="10" stroke-linecap="round" stroke-linejoin="round"/>
<path d="M195.163 176.095V186.658H17.9229V176.095C17.9229 166.346 25.9176 158.356 35.6739 158.356H177.412C187.168 158.356 195.163 166.346 195.163 176.095Z" fill="#70CAFC" stroke="#263238" stroke-width="1.1031" stroke-miterlimit="10"/>
<path d="M78.2223 198.709H34.5898V206.021H78.2223V198.709Z" fill="#70CAFC"/>
<path d="M78.2223 264.248H34.5898V271.56H78.2223V264.248Z" fill="#70CAFC"/>
<path d="M78.2223 323.694H34.5898V331.007H78.2223V323.694Z" fill="#70CAFC"/>
<path d="M158.441 216.854H34.5898V222.271H158.441V216.854Z" fill="#263238"/>
<path d="M136.083 227.146H34.5898V232.427H136.083V227.146Z" fill="#263238"/>
<path d="M149.362 237.166H34.5898V242.447H149.362V237.166Z" fill="#263238"/>
<path d="M149.362 247.322H34.5898V252.603H149.362V247.322Z" fill="#263238"/>
<path d="M158.441 276.3H34.5898V281.716H158.441V276.3Z" fill="#263238"/>
<path d="M136.083 286.591H34.5898V291.872H136.083V286.591Z" fill="#263238"/>
<path d="M149.362 296.611H34.5898V301.892H149.362V296.611Z" fill="#263238"/>
<path d="M158.441 341.568H34.5898V346.985H158.441V341.568Z" fill="#263238"/>
<path d="M136.083 351.725H34.5898V357.006H136.083V351.725Z" fill="#263238"/>
<path d="M149.362 361.88H34.5898V367.161H149.362V361.88Z" fill="#263238"/>
<path d="M394.896 22.4035V101.619C394.896 113.265 385.411 122.744 373.758 122.744H191.098C179.444 122.744 169.959 113.265 169.959 101.619V22.4035C169.959 10.7581 179.444 1.2793 191.098 1.2793H373.758C385.411 1.2793 394.896 10.7581 394.896 22.4035Z" fill="white" stroke="#222221" stroke-width="1.1031" stroke-miterlimit="10"/>
<path d="M394.896 22.4035V24.1639H169.959V22.4035C169.959 10.7581 179.444 1.2793 191.098 1.2793H373.758C385.411 1.2793 394.896 10.7581 394.896 22.4035Z" fill="#70CAFC" stroke="#263238" stroke-width="1.1031" stroke-miterlimit="10"/>
<path d="M202.886 16.4458C201.667 17.6645 199.498 17.6645 198.279 16.4458C197.059 15.2271 197.059 13.0605 198.279 11.8418C199.498 10.6231 201.667 10.6231 202.886 11.8418C204.241 13.1959 204.241 15.2271 202.886 16.4458Z" fill="#263238"/>
<path d="M218.063 16.4458C216.843 17.6645 214.675 17.6645 213.456 16.4458C212.236 15.2271 212.236 13.0605 213.456 11.8418C214.675 10.6231 216.843 10.6231 218.063 11.8418C219.282 13.1959 219.282 15.2271 218.063 16.4458Z" fill="#263238"/>
<path d="M233.104 16.4458C231.884 17.6645 229.716 17.6645 228.497 16.4458C227.277 15.2271 227.277 13.0605 228.497 11.8418C229.716 10.6231 231.884 10.6231 233.104 11.8418C234.323 13.1959 234.323 15.2271 233.104 16.4458Z" fill="#263238"/>
<path d="M257.765 38.7881H184.187V102.296H257.765V38.7881Z" stroke="#263238" stroke-width="1.1031" stroke-miterlimit="10" stroke-linecap="round" stroke-linejoin="round" stroke-dasharray="4.41 4.41"/>
<path d="M353.839 38.7881H269.148V43.2567H353.839V38.7881Z" fill="#263238"/>
<path d="M334.055 47.9961H269.148V52.4647H334.055V47.9961Z" fill="#263238"/>
<path d="M365.899 57.2041H269.148V61.6727H365.899V57.2041Z" fill="#263238"/>
<path d="M351.535 66.2764H269.148V70.745H351.535V66.2764Z" fill="#263238"/>
</svg>
