<svg width="491" height="306" viewBox="0 0 491 306" fill="none" xmlns="http://www.w3.org/2000/svg">
<path d="M490.153 31.3602V275.237C490.153 291.893 476.738 305.298 460.071 305.298H30.9287C14.2616 305.298 0.84668 291.893 0.84668 275.237V31.3602C0.84668 30.6832 0.846678 30.0061 0.982182 29.1937C2.06622 13.6213 15.0746 1.29883 30.9287 1.29883H460.071C475.925 1.29883 488.934 13.6213 490.018 29.1937C490.153 30.0061 490.153 30.6832 490.153 31.3602Z" fill="white" stroke="#263238" stroke-width="1.1031" stroke-miterlimit="10" stroke-linecap="round" stroke-linejoin="round"/>
<path d="M448.825 293.924H43.6664C28.0834 293.924 15.4814 281.331 15.4814 265.758V40.5684H477.01V265.758C477.01 281.331 464.408 293.924 448.825 293.924Z" fill="#263238"/>
<path opacity="0.2" d="M477.01 40.5684V265.758C477.01 281.331 464.543 293.924 449.096 293.924H43.3954C27.9479 293.924 15.4814 281.331 15.4814 265.758V40.5684H477.01Z" fill="white"/>
<path d="M490.018 29.3291H0.982422C2.06646 13.6213 15.0749 1.29883 30.9289 1.29883H460.071C475.925 1.29883 488.934 13.6213 490.018 29.3291Z" fill="#75B687" stroke="#263238" stroke-width="1.1031" stroke-miterlimit="10"/>
<path d="M61.0108 15.2459C61.0108 18.225 58.5717 20.527 55.7261 20.527C52.745 20.527 50.4414 18.0895 50.4414 15.2459C50.4414 12.2668 52.8805 9.96484 55.7261 9.96484C58.7072 9.96484 61.0108 12.4022 61.0108 15.2459Z" fill="#263238"/>
<path d="M83.5039 15.2459C83.5039 18.225 81.0648 20.527 78.2192 20.527C75.2381 20.527 72.9346 18.0895 72.9346 15.2459C72.9346 12.2668 75.3737 9.96484 78.2192 9.96484C81.2003 9.96484 83.5039 12.4022 83.5039 15.2459Z" fill="#263238"/>
<path d="M100.713 20.527C103.632 20.527 105.998 18.1625 105.998 15.2459C105.998 12.3292 103.632 9.96484 100.713 9.96484C97.7947 9.96484 95.4287 12.3292 95.4287 15.2459C95.4287 18.1625 97.7947 20.527 100.713 20.527Z" fill="#263238"/>
<path d="M477.01 40.5684V265.758C477.01 281.331 464.408 293.924 448.825 293.924H43.6664C29.9804 293.924 18.598 284.174 16.0235 271.175C15.617 269.414 15.4814 267.654 15.4814 265.758V40.5684H477.01Z" stroke="#263238" stroke-width="1.1031" stroke-miterlimit="10"/>
<path d="M476.602 75.3693C474.57 74.286 472.537 73.3381 470.369 72.7965L467.795 61.4219H457.09L454.515 72.7965C452.347 73.3381 450.179 74.286 448.282 75.3693L438.526 69.1403L430.937 76.7234L437.035 86.4731C435.951 88.5042 435.003 90.5354 434.46 92.702L423.078 95.2748V105.972L434.46 108.545C435.003 110.712 435.951 112.878 437.035 114.91L430.802 124.659L438.39 132.242L448.146 126.013C450.179 127.097 452.212 128.044 454.38 128.586L456.954 139.825H467.659L470.234 128.586C472.402 127.909 474.57 127.097 476.467 126.013L477.009 126.284V75.0985L476.602 75.3693ZM462.51 114.639C454.786 114.639 448.553 108.41 448.553 100.691C448.553 92.9728 454.786 86.7439 462.51 86.7439C470.234 86.7439 476.467 92.9728 476.467 100.691C476.331 108.41 470.098 114.639 462.51 114.639Z" fill="#263238"/>
<path d="M282.696 86.3376V63.7238L258.847 58.4427C257.492 53.8387 255.731 49.3701 253.427 45.1724L256.273 40.5684H143.668L146.514 45.0369C144.211 49.2347 142.313 53.7033 141.094 58.3073L117.245 63.5884V86.2021L141.094 91.4832C142.313 96.0872 144.211 100.556 146.514 104.754L133.37 125.336L149.36 141.315L169.956 128.18C174.157 130.482 178.629 132.378 183.236 133.596L188.52 157.429H211.15L216.434 133.596C221.042 132.242 225.513 130.482 229.578 128.18L250.175 141.315L266.165 125.336L253.156 104.754C255.46 100.556 257.357 96.0872 258.576 91.4832L282.696 86.3376ZM200.038 104.212C183.913 104.212 170.769 91.077 170.769 74.963C170.769 58.849 183.913 45.714 200.038 45.714C216.163 45.714 229.307 58.849 229.307 74.963C229.307 91.077 216.163 104.212 200.038 104.212Z" fill="#263238"/>
<path d="M132.15 241.926L133.099 223.916L114.399 218.635C113.586 214.979 112.231 211.322 110.605 207.937L121.852 192.094L109.792 178.688L92.8537 188.167C89.6016 186.136 86.214 184.511 82.5554 183.292L79.4388 164.335L61.4167 163.387L56.2675 182.074C52.6089 182.886 48.9503 184.24 45.5627 185.865L29.7087 174.626L16.2937 186.678L25.9145 203.604C23.882 206.854 22.2559 210.239 21.0364 213.895L15.6162 214.843V239.217L19.5458 240.301C20.3589 243.957 21.7139 247.613 23.34 250.998L15.6162 261.831L16.1582 271.175L24.153 280.112L41.091 270.633C44.3431 272.664 47.7308 274.424 51.3894 275.643L54.506 294.059L54.6415 294.872L72.6636 295.819L73.2056 294.059L77.9483 277.133C81.7424 276.32 85.2655 274.966 88.6531 273.341L104.372 284.58L117.787 272.529L108.301 255.602C110.334 252.352 111.96 248.967 113.179 245.311L132.15 241.926ZM84.317 213.895C75.6447 204.281 61.0102 203.604 51.3894 212.135C41.7686 220.801 41.091 235.426 49.6278 245.04C58.3001 254.654 72.9346 255.331 82.5554 246.8C92.1762 238.269 92.9893 223.51 84.317 213.895Z" fill="#263238"/>
<path d="M276.056 215.114C276.734 212.27 277.14 209.426 277.14 206.583L290.013 199.812L286.49 186.677L271.856 187.354C270.365 184.917 268.604 182.615 266.571 180.584L270.907 166.636L259.118 159.866L249.226 170.563C246.516 169.886 243.535 169.48 240.69 169.48L233.914 156.48L220.77 160.001L221.448 174.626C219.009 176.115 216.705 177.876 214.673 179.907L200.716 175.574L193.941 187.354L204.781 197.239C204.103 200.083 203.697 202.927 203.697 205.77L190.688 212.541L194.212 225.676L208.846 224.999C210.337 227.436 212.098 229.738 214.131 231.769L209.795 245.717L221.583 252.487L231.34 241.79C234.185 242.467 237.031 242.873 239.877 242.873L246.652 255.873L259.796 252.352L259.254 239.894L259.118 237.728C261.557 236.238 263.861 234.478 266.029 232.447L279.986 236.78L285.813 226.759L286.761 224.999L276.056 215.114ZM245.161 223.103C235.811 225.676 226.191 220.124 223.616 210.781C221.041 201.437 226.597 191.823 235.947 189.25C245.297 186.677 254.918 192.229 257.492 201.573C259.931 210.916 254.511 220.53 245.161 223.103Z" fill="#263238"/>
<path d="M426.195 238.134L429.176 220.124L410.883 212.812C410.477 209.021 409.528 205.229 408.309 201.573L421.452 186.949L410.883 172.053L392.726 179.772C389.744 177.334 386.492 175.303 382.969 173.678L381.885 154.044L363.863 151.064L356.546 169.21C352.752 169.616 348.958 170.564 345.299 171.782L330.665 158.648L315.759 169.21L323.483 187.219C321.315 189.928 319.553 192.771 318.063 195.75C317.792 196.157 317.656 196.563 317.385 196.969L297.737 198.052L294.756 216.062L297.737 217.281L313.049 223.374C313.455 227.166 314.268 230.957 315.624 234.614L302.48 249.238L313.049 264.133L331.207 256.415C334.188 258.852 337.44 260.883 340.963 262.508L342.047 282.008L360.069 284.987L367.386 266.977C371.18 266.571 374.974 265.623 378.633 264.404L393.268 277.539L408.173 266.842L400.449 248.696C402.888 245.717 404.921 242.332 406.683 238.947L426.195 238.134ZM375.652 237.322C365.083 244.905 350.313 242.467 342.724 231.905C335.136 221.343 337.575 206.583 348.145 199C358.714 191.417 373.484 193.855 381.072 204.417C388.66 215.114 386.221 229.739 375.652 237.322Z" fill="#263238"/>
</svg>
