<svg width="88" height="154" viewBox="0 0 88 154" fill="none" xmlns="http://www.w3.org/2000/svg">
<path d="M79.8001 101.014C91.0908 96.8841 85.2764 79.8923 85.2764 79.8923L28.0115 85.1726C23.5493 85.1726 19.8984 88.7605 19.8984 93.2285C19.8984 97.6964 23.4817 101.284 27.9439 101.284L79.8001 101.014Z" fill="#263238"/>
<path d="M6.03806 148.198L5.90284 142.511L16.7879 138.653L17.2612 146.573L16.6527 146.844C13.9483 148.13 2.65761 153.207 0.561724 153.41C-1.73699 153.613 6.03806 148.198 6.03806 148.198Z" fill="#E36F59"/>
<g opacity="0.4">
<g opacity="0.4">
<g opacity="0.4">
<g opacity="0.4">
<g opacity="0.4">
<g opacity="0.4">
<g opacity="0.4">
<path opacity="0.4" d="M2.32038 150.973C2.32038 150.973 -0.316375 153.072 0.224498 153.41C0.832979 153.749 12.3941 149.01 17.3296 146.505L17.1944 146.302L3.74017 151.921C3.74017 151.921 2.92887 150.77 2.32038 150.973Z" fill="white"/>
</g>
</g>
</g>
</g>
</g>
</g>
</g>
<path d="M17.3292 146.235C17.3292 146.235 17.2616 146.302 17.194 146.302C17.0588 146.37 16.8559 146.438 16.7207 146.505C16.2474 146.709 15.639 146.979 14.8953 147.318C13.3402 147.995 11.2444 148.943 8.87805 149.89C6.51173 150.838 4.34824 151.718 2.72562 152.26C1.98192 152.53 1.37344 152.734 0.832566 152.937C0.629739 153.004 0.494524 153.072 0.291697 153.14C0.156478 153.207 0.0888672 153.207 0.0888672 153.207C0.0888672 153.207 0.156478 153.207 0.291697 153.14C0.426915 153.072 0.62974 153.004 0.764958 152.937C1.23822 152.734 1.91431 152.53 2.5904 152.192C4.14541 151.583 6.3089 150.77 8.67522 149.755C11.0415 148.807 13.205 147.859 14.76 147.182C15.5037 146.844 16.1122 146.573 16.5855 146.37C16.7883 146.302 16.9235 146.235 17.0588 146.167C17.2616 146.302 17.3292 146.235 17.3292 146.235Z" fill="#263238"/>
<path d="M3.80719 152.124C3.73958 152.124 3.53675 151.718 3.1311 151.379C2.65784 151.041 2.18457 150.973 2.18457 150.906C2.18457 150.906 2.72544 150.906 3.19871 151.244C3.67197 151.582 3.80719 152.124 3.80719 152.124Z" fill="#263238"/>
<path d="M6.17384 149.349C6.17384 149.349 5.97102 149.281 5.70058 149.078C5.43014 148.875 5.29492 148.739 5.29492 148.739C5.29492 148.739 5.49775 148.807 5.76819 149.01C6.03863 149.145 6.17384 149.349 6.17384 149.349Z" fill="#263238"/>
<path d="M6.84962 148.604C6.84962 148.672 6.6468 148.604 6.37636 148.536C6.10593 148.469 5.9707 148.333 5.9707 148.333C5.9707 148.266 6.17353 148.333 6.44397 148.401C6.6468 148.469 6.84962 148.536 6.84962 148.604Z" fill="#263238"/>
<path d="M6.91746 147.453C6.91746 147.521 6.71463 147.588 6.4442 147.724C6.17376 147.859 5.90332 147.927 5.90332 147.859C5.90332 147.859 6.10615 147.724 6.37659 147.588C6.71463 147.453 6.91746 147.385 6.91746 147.453Z" fill="#263238"/>
<path d="M6.84978 146.641C6.84978 146.641 6.64695 146.911 6.3089 147.047C5.97086 147.182 5.70042 147.25 5.63281 147.182C5.63281 147.114 5.90325 147.047 6.2413 146.911C6.57934 146.776 6.84978 146.641 6.84978 146.641Z" fill="#263238"/>
<path d="M5.4974 148.604C5.4974 148.604 5.29457 148.739 4.82131 148.875C4.61848 148.942 4.34805 149.01 4.07761 149.01C3.94239 149.01 3.80717 149.01 3.60434 149.01C3.53673 149.01 3.40152 148.942 3.33391 148.875C3.2663 148.807 3.2663 148.672 3.33391 148.604C3.80717 147.995 4.61848 148.13 4.95652 148.333C5.15935 148.468 5.29457 148.604 5.36218 148.672C5.42979 148.739 5.42979 148.807 5.42979 148.875C5.42979 148.875 5.29457 148.604 4.88892 148.468C4.68609 148.401 4.48326 148.333 4.21283 148.333C3.94239 148.333 3.60434 148.468 3.46913 148.672C3.40152 148.807 3.46912 148.875 3.60434 148.942C3.73956 148.942 3.87478 148.942 4.01 148.942C4.28044 148.942 4.55087 148.875 4.7537 148.875C5.22696 148.672 5.4974 148.604 5.4974 148.604Z" fill="#263238"/>
<path d="M5.29477 148.739C5.29477 148.739 5.09195 148.604 5.02434 148.333C4.95673 148.198 4.95673 147.995 5.02434 147.792C5.09195 147.588 5.15956 147.318 5.42999 147.25C5.56521 147.182 5.70043 147.318 5.76804 147.453C5.83565 147.588 5.76804 147.724 5.76804 147.792C5.76804 147.995 5.70043 148.198 5.63282 148.333C5.4976 148.536 5.36238 148.672 5.29477 148.739C5.29477 148.672 5.42999 148.536 5.4976 148.265C5.56521 148.13 5.56521 147.927 5.63282 147.792C5.63282 147.588 5.63282 147.318 5.42999 147.385C5.22717 147.453 5.15956 147.656 5.09195 147.859C5.02434 148.062 5.02434 148.198 5.09195 148.333C5.22717 148.536 5.36238 148.672 5.29477 148.739Z" fill="#263238"/>
<path d="M15.9768 143.527C15.9768 143.527 15.7063 143.594 15.233 143.865C14.8274 144.068 14.2189 144.542 13.8809 145.219C13.5428 145.896 13.4076 146.573 13.4752 147.047C13.4752 147.521 13.6104 147.859 13.6104 147.859C13.6104 147.859 13.5428 147.791 13.5428 147.656C13.4752 147.521 13.4752 147.318 13.4076 147.047C13.34 146.573 13.4076 145.828 13.8133 145.084C14.2189 144.407 14.7598 143.933 15.233 143.73C15.4359 143.594 15.6387 143.527 15.7739 143.527C15.9091 143.594 15.9768 143.527 15.9768 143.527Z" fill="#263238"/>
<path d="M13.2722 139.736C13.2722 139.736 13.7455 140.616 14.2188 141.767C14.692 142.918 15.0977 143.865 15.0301 143.865C15.0301 143.865 14.5568 142.985 14.0836 141.834C13.5427 140.751 13.2046 139.804 13.2722 139.736Z" fill="#263238"/>
<path d="M11.9201 147.521C11.9201 147.521 11.3116 147.927 10.5003 148.265C9.689 148.604 8.94531 148.807 8.94531 148.739C8.94531 148.672 9.6214 148.468 10.4327 148.13C11.244 147.791 11.9201 147.453 11.9201 147.521Z" fill="#263238"/>
<path d="M13.8813 146.708C13.9489 146.708 13.8813 146.844 13.8813 147.047C13.8813 147.25 13.8813 147.385 13.8813 147.385C13.8813 147.385 13.7461 147.25 13.7461 147.047C13.7461 146.776 13.8813 146.641 13.8813 146.708Z" fill="#263238"/>
<path d="M14.287 145.422C14.3546 145.422 14.287 145.558 14.2194 145.693C14.1518 145.828 14.0842 145.964 14.0166 145.964C14.0166 145.964 14.0166 145.828 14.0842 145.693C14.1518 145.558 14.2194 145.422 14.287 145.422Z" fill="#263238"/>
<path d="M15.166 144.61C15.166 144.678 15.0308 144.678 14.8956 144.813C14.7604 144.948 14.6928 145.016 14.6252 145.016C14.5575 145.016 14.6252 144.813 14.7604 144.678C14.9632 144.542 15.166 144.542 15.166 144.61Z" fill="#263238"/>
<path d="M15.8417 144.068C15.8417 144.068 15.8417 144.204 15.7741 144.271C15.7065 144.339 15.6389 144.339 15.5713 144.339C15.5713 144.339 15.5713 144.204 15.6389 144.136C15.7741 144.068 15.8417 144.068 15.8417 144.068Z" fill="#263238"/>
<path d="M49.7819 84.3604L17.8028 84.9696C12.6645 85.0373 8.40514 88.896 7.79666 93.9732L1.44141 145.558H18.8169L24.0905 101.014H49.3086L49.7819 84.3604Z" fill="#263238"/>
<path d="M1.71191 142.308C1.71191 142.376 5.49802 142.511 10.2307 142.511C14.8957 142.511 18.6818 142.444 18.7494 142.444C19.2903 142.376 14.9633 142.24 10.2307 142.24C5.49802 142.173 1.71191 142.24 1.71191 142.308Z" fill="#455A64"/>
<path d="M67.36 82.7356C67.36 82.7356 67.2924 82.7356 67.2248 82.7356C67.0896 82.7356 66.9544 82.7356 66.7515 82.7356C66.3459 82.7356 65.7374 82.8033 64.9261 82.8033C63.3711 82.871 61.0724 83.0064 58.3004 83.1418C52.6888 83.4126 44.9814 83.8187 36.4627 84.2926C35.3809 84.3603 34.3668 84.428 33.285 84.428C32.2709 84.428 31.1892 84.4957 30.2426 84.5634C29.2285 84.6311 28.282 84.6988 27.2678 84.7665C26.3213 84.9019 25.3072 84.9696 24.4282 85.308C23.5493 85.6465 22.738 86.1204 22.0619 86.7297C21.3858 87.3389 20.9126 88.0836 20.6421 88.8959C20.3717 89.7083 20.1689 90.453 20.0337 91.1976C19.8984 91.9423 19.8984 92.6869 19.8984 93.4316C19.8984 94.8532 20.1689 96.1394 20.6421 97.1549C21.1154 98.1703 21.7915 98.915 22.4 99.3888C23.0085 99.8627 23.6169 100.133 24.0226 100.269C24.4282 100.404 24.4282 100.337 24.0226 100.201C23.6169 100.066 23.0761 99.795 22.4676 99.3211C21.8591 98.8473 21.2506 98.1026 20.7774 97.0872C20.3041 96.0717 20.1013 94.8532 20.1013 93.4316C20.1013 92.7546 20.1689 92.01 20.3041 91.2653C20.4393 90.5206 20.5745 89.776 20.9126 88.9636C21.183 88.219 21.6563 87.4743 22.2648 86.9328C22.8732 86.3235 23.6845 85.9173 24.4959 85.5788C25.3748 85.2403 26.2537 85.1727 27.2678 85.0373C28.2143 84.9696 29.2285 84.9019 30.2426 84.8342C31.2568 84.7665 32.2709 84.7665 33.285 84.6988C34.2992 84.6988 35.3809 84.6311 36.4627 84.5634C44.9814 84.0895 52.6888 83.6833 58.3004 83.3449C61.0724 83.2095 63.3035 83.0064 64.9261 82.9387C65.6698 82.871 66.2783 82.871 66.7515 82.8033C66.9544 82.8033 67.0896 82.8033 67.2248 82.7356C67.2924 82.7356 67.36 82.7356 67.36 82.7356Z" fill="#455A64"/>
<path d="M57.2188 61.3435L54.4469 70.0763C53.3651 73.6642 50.3903 76.3721 46.6042 77.1167L30.4456 81.5847L29.1611 78.606L28.0117 74.2058L42.0068 69.4671C43.359 69.1963 44.4407 68.1131 44.8464 66.7592L50.3903 54.6416L57.4217 58.9742L57.2188 61.3435Z" fill="#B78876"/>
<path d="M63.9799 34.0619C58.0979 34.7389 56.1372 37.1759 53.7709 40.6961C52.7568 42.1177 51.9454 43.7424 51.4046 45.3671L46.9424 58.094L56.2724 61.0049L55.9344 71.3624L51.675 84.0216L87.5754 86.8648L87.4402 68.5192L87.1698 57.417C87.5078 53.2199 88.3868 44.3517 87.6431 42.1854C84.4654 33.1818 77.3665 34.8742 72.2282 33.588C71.1464 33.3172 66.0081 33.3849 65.1292 33.588" fill="#E36F59"/>
<path d="M87.5757 67.2329C87.5757 67.3006 80.5444 67.436 71.8904 67.436C63.2364 67.436 56.2051 67.3683 56.2051 67.2329C56.2051 67.1652 63.2364 67.0298 71.8904 67.0298C80.5444 67.0975 87.5757 67.1652 87.5757 67.2329Z" fill="#FAFAFA"/>
<path d="M87.0347 73.5288C87.0347 73.5965 80.0033 73.7319 71.3494 73.7319C62.6954 73.7319 55.6641 73.6642 55.6641 73.5288C55.6641 73.3934 62.6954 73.3257 71.3494 73.3257C80.0033 73.3257 87.0347 73.4611 87.0347 73.5288Z" fill="#FAFAFA"/>
<path d="M87.1695 80.7046C87.1695 80.7723 79.7325 80.9076 70.6052 80.9076C61.4104 80.9076 54.041 80.8399 54.041 80.7046C54.041 80.5692 61.478 80.5015 70.6052 80.5015C79.7325 80.5692 87.1695 80.6369 87.1695 80.7046Z" fill="#FAFAFA"/>
<g opacity="0.3">
<g opacity="0.3">
<g opacity="0.3">
<g opacity="0.3">
<g opacity="0.3">
<path opacity="0.3" d="M82.8427 63.2389C82.3694 65.676 82.1666 68.3161 81.3553 70.6178C80.7468 72.3102 80.0707 74.0703 78.9214 75.4919C77.434 77.4551 75.2029 78.809 72.8365 79.5537C70.4702 80.2983 59.0443 82.8708 56.6104 82.6677L77.5016 72.7841L80.0031 62.3589L82.8427 63.2389Z" fill="black"/>
</g>
</g>
</g>
</g>
</g>
<path d="M81.626 62.9004L79.3273 71.7686C78.4484 75.4242 75.5412 78.3352 71.8227 79.2152L53.433 83.5478L48.3623 83.6155V76.5751L66.8872 71.5656C68.2394 71.2271 69.2535 70.0762 69.5916 68.7223L71.3494 60.9373L81.626 62.9004Z" fill="#B78876"/>
<path d="M87.7106 41.5761C87.7106 41.6438 79.9355 41.7792 70.4027 41.7792C60.8698 41.7792 53.0947 41.7115 53.0947 41.5761C53.0947 41.5084 60.8698 41.373 70.4027 41.373C80.0032 41.4407 87.7106 41.5084 87.7106 41.5761Z" fill="#FAFAFA"/>
<path d="M87.9813 47.601C87.9813 47.6687 79.6654 47.8041 69.3212 47.8041C59.0447 47.8041 50.6611 47.7364 50.6611 47.601C50.6611 47.5333 58.977 47.3979 69.3212 47.3979C79.5978 47.3979 87.9813 47.4656 87.9813 47.601Z" fill="#FAFAFA"/>
<path d="M87.4398 54.0998C87.4398 54.1675 78.6507 54.3706 67.8332 54.4383C57.0157 54.506 48.2266 54.506 48.2266 54.4383C48.2266 54.3706 57.0157 54.1675 67.8332 54.0998C78.6507 53.9644 87.4398 53.9644 87.4398 54.0998Z" fill="#FAFAFA"/>
<path d="M87.1695 60.9372C87.1695 61.0049 80.1381 61.1403 71.4841 61.1403C62.8302 61.1403 55.7988 61.0726 55.7988 60.9372C55.7988 60.8695 62.8302 60.7341 71.4841 60.7341C80.1381 60.7341 87.1695 60.8018 87.1695 60.9372Z" fill="#FAFAFA"/>
<path d="M84.8039 63.5773C84.8039 63.5773 84.8039 63.5096 84.8039 63.4419C84.8039 63.3065 84.8715 63.1711 84.8715 63.0357C84.9391 62.6295 85.0067 62.088 85.142 61.411C85.3448 59.9894 85.6828 57.8908 86.0209 55.3184C86.3589 52.7459 86.7646 49.5642 86.9674 46.044C87.035 44.2839 87.1702 42.3884 86.2913 40.6283C85.8857 39.7483 85.2096 39.0036 84.3983 38.462C83.587 37.9205 82.6404 37.5143 81.6263 37.3789C80.5445 37.0404 79.3276 37.2435 78.1782 37.582C77.0289 37.9882 75.9471 38.5297 75.0006 39.2744C74.7978 39.4098 74.6626 39.6129 74.5273 39.816C74.3921 40.0191 74.2569 40.2221 74.1893 40.4929C73.9865 40.9668 73.7836 41.4407 73.6484 41.9145C73.378 42.8623 73.1751 43.8777 73.0399 44.8932C72.7019 46.8564 72.3638 48.7518 72.0258 50.5796C71.3497 54.2352 70.7412 57.62 70.2004 60.5987L70.0651 60.4633C74.3921 61.411 77.9754 62.1557 80.4769 62.6972C81.6939 62.968 82.6404 63.1711 83.3165 63.3065C83.6546 63.3742 83.8574 63.4419 84.0602 63.5096C84.1954 63.5773 84.3307 63.5773 84.3307 63.5773C84.3307 63.5773 84.263 63.5773 84.0602 63.5773C83.8574 63.5096 83.587 63.5096 83.3165 63.4419C82.6404 63.3065 81.6939 63.1034 80.4093 62.9003C77.9078 62.3588 74.3245 61.6818 69.9975 60.8018H69.8623V60.6664C70.4032 57.6877 71.0117 54.3029 71.6201 50.5796C71.9582 48.7518 72.2962 46.8564 72.6343 44.8932C72.8371 43.9454 72.9723 42.93 73.2428 41.9145C73.378 41.4407 73.5808 40.8991 73.7836 40.4252C73.9189 40.1544 73.9865 39.9514 74.1893 39.7483C74.3245 39.4775 74.5273 39.2744 74.7302 39.139C75.7443 38.3266 76.826 37.7174 78.043 37.3112C79.1924 36.905 80.4769 36.7019 81.6939 37.1081H81.6263C82.708 37.2435 83.7222 37.6497 84.5335 38.259C85.4124 38.8682 86.0885 39.6129 86.5618 40.5606C86.8322 41.0345 86.9674 41.5084 87.1026 41.9145C87.1702 42.3884 87.3055 42.8623 87.3055 43.3362C87.3055 43.6069 87.3055 43.81 87.3731 44.0131C87.3731 44.2162 87.3731 44.487 87.3731 44.6901C87.3731 45.164 87.3731 45.5701 87.3055 46.044C87.1026 49.5642 86.6294 52.7459 86.2237 55.3184C85.8181 57.8908 85.48 59.9894 85.2096 61.411C85.0744 62.088 85.0067 62.6295 84.8715 63.0357C84.8039 63.2388 84.8039 63.3742 84.8039 63.4419C84.8039 63.5773 84.8039 63.5773 84.8039 63.5773Z" fill="#263238"/>
<path d="M56.0695 71.1592C56.0695 71.1592 56.1371 70.8208 56.1371 70.2115C56.1371 69.5345 56.1371 68.6545 56.1371 67.639C56.1371 65.4728 56.1371 62.4941 56.0695 59.177C56.0019 55.8599 56.0019 52.8813 55.9343 50.715C55.9343 49.6996 55.8667 48.8195 55.8667 48.1426C55.8667 47.5333 55.799 47.1948 55.799 47.1948C55.799 47.1948 55.7314 47.5333 55.7314 48.1426C55.7314 48.8195 55.7314 49.6319 55.7314 50.715C55.7314 52.8813 55.7314 55.8599 55.799 59.177C55.8667 62.4941 55.8667 65.4728 55.9343 67.639C55.9343 68.6545 56.0019 69.5345 56.0019 70.2115C56.0695 70.8208 56.0695 71.1592 56.0695 71.1592Z" fill="#263238"/>
<path d="M67.3603 85.0373L67.6984 83.4803L53.7709 82.0587L47.6861 64.5254L19.2227 64.3223L28.5527 84.6311L67.3603 85.0373Z" fill="#455A64"/>
<path d="M37.4774 75.4921C38.1535 75.0859 38.3563 74.2059 37.883 73.5289C37.4774 72.852 36.5985 72.6489 35.9224 73.1228C35.2463 73.5289 35.0435 74.409 35.5167 75.086C35.9224 75.7629 36.8013 75.966 37.4774 75.4921Z" fill="white"/>
<path d="M56.8127 5.22335C55.3253 5.49414 53.9732 6.71267 53.7027 8.20198C53.4323 9.6913 54.176 11.3837 55.4606 12.1284C56.0014 12.4668 56.7451 12.6699 57.3536 12.3314C57.8945 12.0607 58.2325 11.4514 58.3677 10.8421C58.9762 8.94664 58.7734 6.78036 57.8945 5.02026" fill="#263238"/>
<path d="M68.5093 39.8161C65.1288 39.8161 62.4245 37.0406 62.4245 33.6558C62.4245 31.5572 62.4921 29.7294 62.4921 29.7294C62.4921 29.7294 57.6242 29.2556 57.2862 24.4491C56.9481 19.6427 57.0833 8.47285 57.0833 8.47285C62.4921 5.69731 68.9825 6.17118 74.0532 9.55599L74.7969 10.0299L74.5941 33.7235C74.5265 37.1083 71.8221 39.8161 68.5093 39.8161Z" fill="#B78876"/>
<path d="M62.4922 29.6616C62.4922 29.6616 65.5346 29.7293 68.6446 27.4954C68.6446 27.4954 67.36 31.0833 62.5598 30.9479L62.4922 29.6616Z" fill="#AA6550"/>
<path d="M73.5803 15.3778C73.6479 15.3778 76.6227 14.9716 76.3523 18.4918C76.0819 22.012 72.6338 20.5227 72.6338 20.455C72.6338 20.3196 73.5803 15.3778 73.5803 15.3778Z" fill="#B78876"/>
<path d="M73.7832 19.3041C73.7832 19.3041 73.8508 19.3718 73.9184 19.4395C73.986 19.5072 74.1889 19.5072 74.3917 19.5072C74.7973 19.3718 75.1354 18.8303 75.203 18.221C75.2706 17.8825 75.203 17.6117 75.1354 17.341C75.0678 17.0702 74.8649 16.8671 74.7297 16.8671C74.5269 16.7994 74.3917 16.9348 74.3241 17.0025C74.2565 17.0702 74.2565 17.1379 74.2565 17.2056C74.2565 17.2056 74.1889 17.1379 74.2565 17.0025C74.2565 16.9348 74.3241 16.8671 74.3917 16.7994C74.4593 16.7317 74.5945 16.7317 74.7297 16.7317C75.0002 16.7994 75.203 17.0702 75.3382 17.341C75.4734 17.6117 75.541 17.9502 75.4734 18.3564C75.4058 19.0334 75.0002 19.7103 74.4593 19.778C74.1889 19.8457 73.986 19.7103 73.9184 19.6426C73.7832 19.3718 73.7832 19.3041 73.7832 19.3041Z" fill="#AA6550"/>
<path d="M60.3964 10.4361C61.0725 10.1653 62.0866 9.21754 62.6951 8.81136C63.3036 9.7591 64.3177 10.3684 65.3995 10.5038C66.4812 10.6392 67.6306 10.233 68.3743 9.48832C68.3743 10.0976 68.7799 10.7068 69.3208 11.0453C69.8617 11.3161 70.5378 11.3161 71.1463 11.0453C71.1463 12.9408 71.2139 14.7686 71.2139 16.6641C71.2139 17.2057 71.2139 17.7472 71.5519 18.2211C71.89 18.6273 72.6337 18.7627 72.9041 18.3565C72.8365 17.6795 72.7689 16.9349 73.1069 16.3256C73.3774 15.7164 74.1887 15.2425 74.7971 15.581C75 14.4301 75 13.4147 75 12.2639C75 12.0608 75 11.4515 75.1352 11.2484C75.338 10.9099 75.4056 11.1807 75.7437 11.113C76.7578 10.9099 77.5691 9.89449 77.6367 8.87905C77.7043 7.86361 77.1635 6.78047 76.2845 6.17121C75.4056 5.56194 74.3239 5.35886 73.3097 5.42655C73.9858 4.81729 73.9182 3.59876 73.3097 2.8541C72.7013 2.10944 71.6871 1.83866 70.7406 1.90636C69.7941 1.97405 68.7799 2.51562 68.6447 3.39567C68.3743 1.56788 66.7517 0.0785625 64.9262 0.0108664C63.1008 -0.0568297 61.3429 1.36479 61.0049 3.12489C59.8555 2.65101 58.3005 2.04175 57.2188 2.58332C56.0694 3.12489 55.1229 3.86954 54.9201 5.76503C54.9201 5.76503 54.6496 9.62371 57.0836 10.3684C59.4499 11.2484 60.3964 10.4361 60.3964 10.4361Z" fill="#263238"/>
<path d="M58.3682 16.1903C58.3682 16.5288 58.6386 16.8673 59.0443 16.8673C59.4499 16.8673 59.7203 16.5965 59.7203 16.258C59.7203 15.9195 59.4499 15.5811 59.0443 15.5811C58.7062 15.5811 58.3682 15.8518 58.3682 16.1903Z" fill="#263238"/>
<path d="M58.2334 15.4458C58.301 15.5135 58.8419 15.175 59.5856 15.175C60.3293 15.175 60.8701 15.5135 60.9377 15.4458C61.0053 15.3781 60.8701 15.2427 60.6673 15.1073C60.4645 14.9719 60.0588 14.7688 59.5856 14.7688C59.1123 14.7688 58.7742 14.9719 58.5038 15.1073C58.2334 15.2427 58.1658 15.3781 58.2334 15.4458Z" fill="#263238"/>
<path d="M65.4668 16.3936C65.4668 16.732 65.7372 17.0705 66.1429 17.0705C66.5485 17.0705 66.819 16.7997 66.819 16.4613C66.819 16.1228 66.5485 15.7843 66.1429 15.7843C65.8048 15.7166 65.4668 15.9874 65.4668 16.3936Z" fill="#263238"/>
<path d="M65.332 15.5813C65.3996 15.649 65.9405 15.3105 66.6842 15.3105C67.4279 15.3105 67.9688 15.649 68.0364 15.5813C68.104 15.5136 67.9688 15.3782 67.766 15.2428C67.5631 15.1074 67.1575 14.9043 66.6842 14.9043C66.2109 14.9043 65.8729 15.1074 65.6025 15.2428C65.3996 15.3782 65.332 15.5136 65.332 15.5813Z" fill="#263238"/>
<path d="M62.6958 20.9969C62.6958 20.9292 62.2225 20.8615 61.5464 20.7939C61.3436 20.7939 61.2084 20.7262 61.1408 20.5908C61.0732 20.4554 61.2084 20.2523 61.276 20.0492C61.4788 19.5753 61.6141 19.1015 61.8169 18.6276C62.5606 16.5967 63.1015 14.972 63.0339 14.9043C62.9662 14.9043 62.2902 16.4613 61.4788 18.4922C61.276 18.9661 61.1408 19.4399 60.938 19.9138C60.8704 20.1169 60.7351 20.3877 60.8704 20.6585C60.938 20.7939 61.0732 20.9292 61.2084 20.9292C61.3436 20.9969 61.4112 20.9969 61.5464 20.9969C62.2225 20.9969 62.6958 20.9969 62.6958 20.9969Z" fill="#263238"/>
<path d="M64.8595 21.4707C64.7243 21.4707 64.7243 22.2831 64.0482 22.8246C63.3721 23.3662 62.5608 23.2985 62.4932 23.4339C62.4932 23.5016 62.696 23.5693 63.034 23.5693C63.3721 23.5693 63.913 23.5016 64.3186 23.0954C64.7243 22.7569 64.9271 22.2831 64.9271 21.9446C64.9947 21.6738 64.9271 21.4707 64.8595 21.4707Z" fill="#263238"/>
<path d="M65.1973 12.7378C65.2649 12.9409 66.0086 12.8732 66.8199 12.9409C67.6988 13.0086 68.3749 13.2794 68.5101 13.0763C68.5777 13.0086 68.4425 12.8055 68.1721 12.6024C67.9016 12.3993 67.4284 12.1962 66.9551 12.1962C66.4142 12.1285 65.941 12.1962 65.6705 12.3316C65.2649 12.467 65.1297 12.6024 65.1973 12.7378Z" fill="#263238"/>
<path d="M58.5041 13.347C58.6393 13.4823 59.1125 13.347 59.721 13.347C60.3295 13.347 60.8028 13.4823 60.938 13.2793C61.0056 13.2116 60.938 13.0085 60.6676 12.8731C60.4647 12.7377 60.0591 12.6023 59.6534 12.6023C59.2478 12.6023 58.9097 12.7377 58.6393 12.9408C58.5041 13.0762 58.4365 13.2116 58.5041 13.347Z" fill="#263238"/>
<path d="M59.8556 5.02041C59.8556 5.02041 59.788 5.02041 59.6528 4.95272C59.5176 4.95272 59.3147 4.95272 59.1795 5.08811C58.9767 5.2235 58.8415 5.49429 58.9767 5.83277C59.0443 6.17125 59.3147 6.44203 59.7204 6.64512C60.126 6.78051 60.5993 6.78051 61.005 6.57742C61.4106 6.37433 61.7487 5.83277 61.8163 5.2912C61.8839 4.74963 61.6811 4.14037 61.2078 3.73419C60.7345 3.32801 60.126 3.12492 59.5176 3.19262C58.9091 3.26031 58.3006 3.5988 57.8949 4.00497C57.4893 4.41115 57.2189 5.02041 57.0836 5.56198C56.8132 6.71282 57.1512 7.72826 57.5569 8.47292C57.9626 9.21757 58.571 9.69144 58.9091 10.0299C59.3147 10.3007 59.5852 10.4361 59.5852 10.4361C59.5852 10.4361 59.3147 10.3684 58.8415 10.0976C58.4358 9.82684 57.8273 9.35296 57.3541 8.54061C56.8808 7.79595 56.5428 6.64512 56.7456 5.42659C56.8808 4.81733 57.1513 4.20806 57.6245 3.66649C58.0978 3.19262 58.7739 2.78644 59.5176 2.71875C60.2613 2.65105 61.005 2.85414 61.4782 3.32801C62.0191 3.80188 62.2895 4.47885 62.1543 5.15581C62.0867 5.76507 61.6811 6.37434 61.2078 6.64512C60.6669 6.9159 60.1261 6.9159 59.6528 6.71282C59.1795 6.50973 58.9091 6.10355 58.8415 5.76507C58.7739 5.3589 58.9091 5.02041 59.1795 4.88502C59.3823 4.74963 59.6528 4.74963 59.788 4.81733C59.788 4.95272 59.8556 5.02041 59.8556 5.02041Z" fill="#455A64"/>
</svg>
