<svg width="92" height="103" viewBox="0 0 92 103" fill="none" xmlns="http://www.w3.org/2000/svg">
<path d="M91.6369 102.348H10.168V0.871826L72.5036 1.07492L91.6369 21.8576V102.348Z" fill="#EBEBEB"/>
<path d="M34.5068 58.752C34.3716 58.8197 33.0194 57.6012 30.9236 55.5703C28.8277 53.5394 25.9881 50.6285 22.8781 47.3791L22.54 47.0406L22.8781 46.7021V46.6344C25.9881 43.385 28.8277 40.4064 30.9236 38.3755C33.0194 36.2769 34.3716 35.0584 34.5068 35.1938C34.6421 35.2615 33.4251 36.6831 31.4644 38.9171C29.5038 41.1511 26.7318 44.1297 23.6218 47.3791V47.4468V46.7021C26.7318 49.9516 29.5038 52.9302 31.4644 55.0965C33.4927 57.2627 34.6421 58.6843 34.5068 58.752Z" fill="#263238"/>
<path d="M67.2299 35.1262C67.3652 35.0585 68.7173 36.277 70.8132 38.3079C72.9091 40.3388 75.7487 43.2497 78.8587 46.4992L79.1968 46.8376L78.8587 47.1761V47.2438C75.7487 50.4932 72.9091 53.4719 70.8132 55.5027C68.7173 57.6013 67.3652 58.8198 67.2299 58.6845C67.0947 58.6168 68.3117 57.1951 70.2724 54.9612C72.233 52.7272 75.005 49.7486 78.115 46.4992V46.4315V47.1761C75.005 43.9267 72.233 40.9481 70.2724 38.7818C68.3117 36.6155 67.0947 35.1939 67.2299 35.1262Z" fill="#263238"/>
<path d="M40.9302 62.4754C40.6597 62.34 44.9191 54.9611 50.3954 46.0252C55.8718 37.0893 60.4692 29.9813 60.7396 30.1166C61.0101 30.252 56.7507 37.6309 51.2744 46.5668C45.8656 55.5027 41.2006 62.6108 40.9302 62.4754Z" fill="#263238"/>
<path d="M72.5032 1.07495L72.4355 18.0667C72.4355 20.5714 74.4638 22.5346 76.8978 22.4669L91.6365 21.9253L72.5032 1.07495Z" fill="#E0E0E0"/>
<path d="M36.8056 69.5833H0.634766V91.5845H36.8056V69.5833Z" fill="#70CAFC"/>
<path d="M10.9111 85.0857L11.8577 84.0026C12.4661 84.8826 13.2774 85.3565 14.224 85.3565C15.5086 85.3565 16.1846 84.5441 16.1846 83.0548V76.6914H12.0605V75.2698H17.7397V82.9871C17.7397 85.4919 16.5227 86.7781 14.1564 86.7781C12.8718 86.7104 11.6548 86.1688 10.9111 85.0857Z" fill="white"/>
<path d="M20.0381 85.2888L20.6466 84.0025C21.4579 84.7472 22.9453 85.2888 24.3651 85.2888C26.3257 85.2888 27.137 84.5441 27.137 83.5287C27.137 80.7531 20.2409 82.5132 20.2409 78.3161C20.2409 76.556 21.5931 75.0667 24.5679 75.0667C25.9201 75.0667 27.2723 75.4051 28.2188 76.0821L27.6779 77.3683C26.6638 76.759 25.582 76.4206 24.5679 76.4206C22.6072 76.4206 21.7959 77.2329 21.7959 78.2484C21.7959 81.0239 28.692 79.2638 28.692 83.461C28.692 85.2211 27.2723 86.7104 24.2975 86.7104C22.6072 86.7104 20.917 86.1688 20.0381 85.2888Z" fill="white"/>
</svg>
