<svg width="229" height="143" viewBox="0 0 229 143" fill="none" xmlns="http://www.w3.org/2000/svg">
<path d="M209.967 140.723H18.7684C13.3597 140.723 8.89746 136.322 8.89746 130.839V6.27809C8.89746 3.36716 11.2638 0.997803 14.171 0.997803H215.24C217.742 0.997803 219.77 3.02868 219.77 5.53344V130.771C219.77 136.255 215.376 140.723 209.967 140.723Z" fill="#455A64"/>
<path d="M219.297 142.55H9.37084C4.23255 142.55 0.108398 138.421 0.108398 133.276V130.365H228.627V133.276C228.559 138.421 224.435 142.55 219.297 142.55Z" fill="#455A64"/>
<path d="M213.551 6.6167H14.5771V124.543H213.551V6.6167Z" fill="#E0E0E0"/>
<path d="M93.5439 130.365L96.3835 134.901H136.273L138.91 130.365H93.5439Z" fill="#263238"/>
<path d="M219.77 130.297H8.89746V130.974H219.77V130.297Z" fill="#263238"/>
<path d="M208.142 13.4539H20.459V124.543H208.142V13.4539Z" fill="#263238"/>
<path d="M34.8601 121.294C34.7924 121.294 34.6572 97.6002 34.6572 68.4231C34.6572 39.2461 34.7248 15.5525 34.8601 15.5525C34.9277 15.5525 35.0629 39.1784 35.0629 68.4231C35.0629 97.6002 34.9277 121.294 34.8601 121.294Z" fill="#E0E0E0"/>
<path d="M31.0741 25.1652C31.0741 25.2329 29.7219 25.3683 28.0317 25.3683C26.3414 25.3683 24.9893 25.3006 24.9893 25.1652C24.9893 25.0976 26.3414 24.9622 28.0317 24.9622C29.7219 24.9622 31.0741 25.0299 31.0741 25.1652Z" fill="#E0E0E0"/>
<path d="M31.2762 19.1403C31.2762 19.208 29.924 19.3434 28.2338 19.3434C26.5436 19.3434 25.1914 19.2757 25.1914 19.1403C25.1914 19.0726 26.5436 18.9373 28.2338 18.9373C29.924 19.005 31.2762 19.0726 31.2762 19.1403Z" fill="#E0E0E0"/>
<path d="M31.0741 31.5964C31.0741 31.6641 29.7219 31.7995 28.0317 31.7995C26.3414 31.7995 24.9893 31.7318 24.9893 31.5964C24.9893 31.461 26.3414 31.3933 28.0317 31.3933C29.7219 31.461 31.0741 31.5287 31.0741 31.5964Z" fill="#E0E0E0"/>
<path d="M31.0741 38.0952C31.0741 38.1629 29.7219 38.2983 28.0317 38.2983C26.3414 38.2983 24.9893 38.2306 24.9893 38.0952C24.9893 38.0275 26.3414 37.8921 28.0317 37.8921C29.7219 37.8921 31.0741 37.9598 31.0741 38.0952Z" fill="#E0E0E0"/>
<path d="M31.0741 44.5263C31.0741 44.594 29.7219 44.7294 28.0317 44.7294C26.3414 44.7294 24.9893 44.6617 24.9893 44.5263C24.9893 44.4586 26.3414 44.3232 28.0317 44.3232C29.7219 44.3909 31.0741 44.4586 31.0741 44.5263Z" fill="#E0E0E0"/>
<path d="M31.0741 51.0251C31.0741 51.0928 29.7219 51.2282 28.0317 51.2282C26.3414 51.2282 24.9893 51.1605 24.9893 51.0251C24.9893 50.9574 26.3414 50.822 28.0317 50.822C29.7219 50.822 31.0741 50.8897 31.0741 51.0251Z" fill="#E0E0E0"/>
<path d="M31.0741 57.4563C31.0741 57.5239 29.7219 57.6593 28.0317 57.6593C26.3414 57.6593 24.9893 57.5916 24.9893 57.4563C24.9893 57.3886 26.3414 57.2532 28.0317 57.2532C29.7219 57.3209 31.0741 57.3886 31.0741 57.4563Z" fill="#E0E0E0"/>
<path d="M31.0741 63.9551C31.0741 64.0227 29.7219 64.1581 28.0317 64.1581C26.3414 64.1581 24.9893 64.0904 24.9893 63.9551C24.9893 63.8197 26.3414 63.752 28.0317 63.752C29.7219 63.752 31.0741 63.8197 31.0741 63.9551Z" fill="#E0E0E0"/>
<path d="M31.0741 70.3862C31.0741 70.4539 29.7219 70.5893 28.0317 70.5893C26.3414 70.5893 24.9893 70.5216 24.9893 70.3862C24.9893 70.3185 26.3414 70.1831 28.0317 70.1831C29.7219 70.2508 31.0741 70.3185 31.0741 70.3862Z" fill="#E0E0E0"/>
<path d="M31.0741 76.8852C31.0741 76.9529 29.7219 77.0883 28.0317 77.0883C26.3414 77.0883 24.9893 77.0206 24.9893 76.8852C24.9893 76.8175 26.3414 76.6821 28.0317 76.6821C29.7219 76.6821 31.0741 76.7498 31.0741 76.8852Z" fill="#E0E0E0"/>
<path d="M31.0741 83.3161C31.0741 83.3838 29.7219 83.5192 28.0317 83.5192C26.3414 83.5192 24.9893 83.4515 24.9893 83.3161C24.9893 83.1807 26.3414 83.113 28.0317 83.113C29.7219 83.1807 31.0741 83.2484 31.0741 83.3161Z" fill="#E0E0E0"/>
<path d="M31.0741 89.8151C31.0741 89.8828 29.7219 90.0182 28.0317 90.0182C26.3414 90.0182 24.9893 89.9505 24.9893 89.8151C24.9893 89.6797 26.3414 89.6121 28.0317 89.6121C29.7219 89.6121 31.0741 89.6797 31.0741 89.8151Z" fill="#E0E0E0"/>
<path d="M31.0741 96.2463C31.0741 96.314 29.7219 96.4494 28.0317 96.4494C26.3414 96.4494 24.9893 96.3817 24.9893 96.2463C24.9893 96.1786 26.3414 96.0432 28.0317 96.0432C29.7219 96.1109 31.0741 96.1786 31.0741 96.2463Z" fill="#E0E0E0"/>
<path d="M31.0741 102.745C31.0741 102.813 29.7219 102.948 28.0317 102.948C26.3414 102.948 24.9893 102.88 24.9893 102.745C24.9893 102.677 26.3414 102.542 28.0317 102.542C29.7219 102.542 31.0741 102.61 31.0741 102.745Z" fill="#E0E0E0"/>
<path d="M31.0741 109.176C31.0741 109.244 29.7219 109.379 28.0317 109.379C26.3414 109.379 24.9893 109.312 24.9893 109.176C24.9893 109.041 26.3414 108.973 28.0317 108.973C29.7219 109.041 31.0741 109.109 31.0741 109.176Z" fill="#E0E0E0"/>
<path d="M31.0741 115.675C31.0741 115.743 29.7219 115.878 28.0317 115.878C26.3414 115.878 24.9893 115.81 24.9893 115.675C24.9893 115.607 26.3414 115.472 28.0317 115.472C29.7219 115.472 31.0741 115.54 31.0741 115.675Z" fill="#E0E0E0"/>
<path d="M55.4807 24.759C55.4807 24.8267 51.965 24.9621 47.5704 24.9621C43.1758 24.9621 39.6602 24.8944 39.6602 24.759C39.6602 24.6236 43.1758 24.5559 47.5704 24.5559C51.965 24.6236 55.4807 24.6913 55.4807 24.759Z" fill="#E36F59"/>
<path d="M55.4807 115.675C55.4807 115.743 51.965 115.878 47.5704 115.878C43.1758 115.878 39.6602 115.81 39.6602 115.675C39.6602 115.607 43.1758 115.472 47.5704 115.472C51.965 115.472 55.4807 115.54 55.4807 115.675Z" fill="#E36F59"/>
<path d="M77.521 38.0952C77.521 38.1629 70.8953 38.2983 62.7146 38.2983C54.5339 38.2983 47.9082 38.2306 47.9082 38.0952C47.9082 38.0275 54.5339 37.8921 62.7146 37.8921C70.8953 37.8921 77.521 37.9598 77.521 38.0952Z" fill="#E36F59"/>
<path d="M111.799 38.0952C111.799 38.1629 105.174 38.2983 96.9929 38.2983C88.8122 38.2983 82.1865 38.2306 82.1865 38.0952C82.1865 38.0275 88.8122 37.8921 96.9929 37.8921C105.174 37.8921 111.799 37.9598 111.799 38.0952Z" fill="#E0E0E0"/>
<path d="M98.6823 44.5263C98.6823 44.594 88.9466 44.7294 76.8446 44.7294C64.8102 44.7294 55.0068 44.6617 55.0068 44.5263C55.0068 44.4586 64.7426 44.3232 76.8446 44.3232C88.9466 44.3909 98.6823 44.4586 98.6823 44.5263Z" fill="#E0E0E0"/>
<path d="M98.6823 51.0251C98.6823 51.0928 88.9466 51.2282 76.8446 51.2282C64.8102 51.2282 55.0068 51.1605 55.0068 51.0251C55.0068 50.9574 64.7426 50.822 76.8446 50.822C88.9466 50.822 98.6823 50.8897 98.6823 51.0251Z" fill="#E0E0E0"/>
<path d="M128.701 70.3862C128.701 70.4539 118.965 70.5893 106.863 70.5893C94.8287 70.5893 85.0254 70.5216 85.0254 70.3862C85.0254 70.3185 94.7611 70.1831 106.863 70.1831C118.965 70.2508 128.701 70.3185 128.701 70.3862Z" fill="#E0E0E0"/>
<path d="M115.788 57.4563C115.788 57.5239 106.052 57.6593 93.95 57.6593C81.9156 57.6593 72.1123 57.5916 72.1123 57.4563C72.1123 57.3886 81.848 57.2532 93.95 57.2532C105.984 57.3209 115.788 57.3886 115.788 57.4563Z" fill="#E0E0E0"/>
<path d="M169.064 57.4563C169.064 57.5239 159.328 57.6593 147.226 57.6593C135.192 57.6593 125.389 57.5916 125.389 57.4563C125.389 57.3886 135.124 57.2532 147.226 57.2532C159.328 57.3209 169.064 57.3886 169.064 57.4563Z" fill="#E0E0E0"/>
<path d="M150.539 44.5263C150.539 44.594 140.803 44.7294 128.701 44.7294C116.667 44.7294 106.863 44.6617 106.863 44.5263C106.863 44.4586 116.599 44.3232 128.701 44.3232C140.735 44.3909 150.539 44.4586 150.539 44.5263Z" fill="#FAFAFA"/>
<path d="M180.692 70.3862C180.692 70.4539 170.956 70.5893 158.854 70.5893C146.82 70.5893 137.017 70.5216 137.017 70.3862C137.017 70.3185 146.752 70.1831 158.854 70.1831C170.889 70.2508 180.692 70.3185 180.692 70.3862Z" fill="#FAFAFA"/>
<path d="M174.675 51.0251C174.675 51.0928 159.531 51.2282 140.803 51.2282C122.075 51.2282 106.931 51.1605 106.931 51.0251C106.931 50.9574 122.075 50.822 140.803 50.822C159.463 50.822 174.675 50.8897 174.675 51.0251Z" fill="#455A64"/>
<path d="M55.4807 31.5964C55.4807 31.6641 51.965 31.7995 47.5704 31.7995C43.1758 31.7995 39.6602 31.7318 39.6602 31.5964C39.6602 31.461 43.1758 31.3933 47.5704 31.3933C51.965 31.461 55.4807 31.5287 55.4807 31.5964Z" fill="#FAFAFA"/>
<path d="M55.4807 109.176C55.4807 109.244 51.965 109.379 47.5704 109.379C43.1758 109.379 39.6602 109.312 39.6602 109.176C39.6602 109.041 43.1758 108.973 47.5704 108.973C51.965 109.041 55.4807 109.109 55.4807 109.176Z" fill="#FAFAFA"/>
<path d="M63.3235 57.4563C63.3235 57.5239 59.8078 57.6593 55.4132 57.6593C51.0186 57.6593 47.5029 57.5916 47.5029 57.4563C47.5029 57.3886 51.0186 57.2532 55.4132 57.2532C59.8078 57.3209 63.3235 57.3886 63.3235 57.4563Z" fill="#FAFAFA"/>
<path d="M190.157 57.4563C190.157 57.5239 186.642 57.6593 182.247 57.6593C177.853 57.6593 174.337 57.5916 174.337 57.4563C174.337 57.3886 177.853 57.2532 182.247 57.2532C186.642 57.3209 190.157 57.3886 190.157 57.4563Z" fill="#E36F59"/>
<path d="M77.521 83.3161C77.521 83.3838 70.8953 83.5192 62.7146 83.5192C54.5339 83.5192 47.9082 83.4515 47.9082 83.3161C47.9082 83.1807 54.5339 83.113 62.7146 83.113C70.8953 83.113 77.521 83.1807 77.521 83.3161Z" fill="#E36F59"/>
<path d="M111.799 83.3161C111.799 83.3838 105.174 83.5192 96.9929 83.5192C88.8122 83.5192 82.1865 83.4515 82.1865 83.3161C82.1865 83.1807 88.8122 83.113 96.9929 83.113C105.174 83.113 111.799 83.1807 111.799 83.3161Z" fill="#E0E0E0"/>
<path d="M98.6823 89.7473C98.6823 89.815 88.9466 89.9504 76.8446 89.9504C64.8102 89.9504 55.0068 89.8827 55.0068 89.7473C55.0068 89.6796 64.7426 89.5442 76.8446 89.5442C88.9466 89.6119 98.6823 89.6796 98.6823 89.7473Z" fill="#E0E0E0"/>
<path d="M98.6823 96.2463C98.6823 96.314 88.9466 96.4494 76.8446 96.4494C64.8102 96.4494 55.0068 96.3817 55.0068 96.2463C55.0068 96.1109 64.7426 96.0432 76.8446 96.0432C88.9466 96.0432 98.6823 96.1109 98.6823 96.2463Z" fill="#E0E0E0"/>
<path d="M115.788 102.677C115.788 102.745 106.052 102.88 93.95 102.88C81.9156 102.88 72.1123 102.813 72.1123 102.677C72.1123 102.61 81.848 102.474 93.95 102.474C105.984 102.474 115.788 102.61 115.788 102.677Z" fill="#E0E0E0"/>
<path d="M169.064 102.677C169.064 102.745 159.328 102.88 147.226 102.88C135.192 102.88 125.389 102.813 125.389 102.677C125.389 102.61 135.124 102.474 147.226 102.474C159.328 102.474 169.064 102.61 169.064 102.677Z" fill="#E0E0E0"/>
<path d="M150.539 89.7473C150.539 89.815 140.803 89.9504 128.701 89.9504C116.667 89.9504 106.863 89.8827 106.863 89.7473C106.863 89.6796 116.599 89.5442 128.701 89.5442C140.735 89.6119 150.539 89.6796 150.539 89.7473Z" fill="#FAFAFA"/>
<path d="M174.675 96.2463C174.675 96.314 159.531 96.4494 140.803 96.4494C122.075 96.4494 106.931 96.3817 106.931 96.2463C106.931 96.1109 122.075 96.0432 140.803 96.0432C159.463 96.0432 174.675 96.1109 174.675 96.2463Z" fill="#455A64"/>
<path d="M63.3235 102.677C63.3235 102.745 59.8078 102.88 55.4132 102.88C51.0186 102.88 47.5029 102.813 47.5029 102.677C47.5029 102.61 51.0186 102.474 55.4132 102.474C59.8078 102.474 63.3235 102.61 63.3235 102.677Z" fill="#FAFAFA"/>
<path d="M190.157 102.677C190.157 102.745 186.642 102.88 182.247 102.88C177.853 102.88 174.337 102.813 174.337 102.677C174.337 102.61 177.853 102.474 182.247 102.474C186.642 102.474 190.157 102.61 190.157 102.677Z" fill="#E36F59"/>
</svg>
