<svg width="185" height="108" viewBox="0 0 185 108" fill="none" xmlns="http://www.w3.org/2000/svg">
<path d="M184.411 0.450195H0.649414V107.681H184.411V0.450195Z" fill="#263238"/>
<path d="M14.9821 102.265C14.9145 102.265 14.7793 80.3315 14.7793 53.3207C14.7793 26.2423 14.8469 4.37646 14.9821 4.37646C15.0497 4.37646 15.1849 26.31 15.1849 53.3207C15.1849 80.3315 15.1173 102.265 14.9821 102.265Z" fill="#E0E0E0"/>
<path d="M11.2645 8.43844C11.2645 8.50614 9.91232 8.64153 8.2221 8.64153C6.53187 8.64153 5.17969 8.57383 5.17969 8.43844C5.17969 8.30305 6.53187 8.23535 8.2221 8.23535C9.84472 8.30305 11.2645 8.37075 11.2645 8.43844Z" fill="#E0E0E0"/>
<path d="M11.2645 14.9372C11.2645 15.0049 9.91232 15.1403 8.2221 15.1403C6.53187 15.1403 5.17969 15.0726 5.17969 14.9372C5.17969 14.8695 6.53187 14.7341 8.2221 14.7341C9.84472 14.7341 11.2645 14.8018 11.2645 14.9372Z" fill="#E0E0E0"/>
<path d="M11.2645 21.3684C11.2645 21.4361 9.91232 21.5715 8.2221 21.5715C6.53187 21.5715 5.17969 21.5038 5.17969 21.3684C5.17969 21.3007 6.53187 21.1653 8.2221 21.1653C9.84472 21.1653 11.2645 21.233 11.2645 21.3684Z" fill="#E0E0E0"/>
<path d="M11.2645 27.7995C11.2645 27.8672 9.91232 28.0026 8.2221 28.0026C6.53187 28.0026 5.17969 27.9349 5.17969 27.7995C5.17969 27.7318 6.53187 27.5964 8.2221 27.5964C9.84472 27.6641 11.2645 27.7318 11.2645 27.7995Z" fill="#E0E0E0"/>
<path d="M11.2645 34.2983C11.2645 34.366 9.91232 34.5014 8.2221 34.5014C6.53187 34.5014 5.17969 34.4337 5.17969 34.2983C5.17969 34.2306 6.53187 34.0952 8.2221 34.0952C9.84472 34.0952 11.2645 34.1629 11.2645 34.2983Z" fill="#E0E0E0"/>
<path d="M11.2645 40.7295C11.2645 40.7972 9.91232 40.9325 8.2221 40.9325C6.53187 40.9325 5.17969 40.8648 5.17969 40.7295C5.17969 40.6618 6.53187 40.5264 8.2221 40.5264C9.84472 40.5264 11.2645 40.5941 11.2645 40.7295Z" fill="#E0E0E0"/>
<path d="M11.2645 47.1604C11.2645 47.2281 9.91232 47.3635 8.2221 47.3635C6.53187 47.3635 5.17969 47.2958 5.17969 47.1604C5.17969 47.025 6.53187 46.9573 8.2221 46.9573C9.84472 47.025 11.2645 47.0927 11.2645 47.1604Z" fill="#E0E0E0"/>
<path d="M11.2645 53.6594C11.2645 53.7271 9.91232 53.8625 8.2221 53.8625C6.53187 53.8625 5.17969 53.7948 5.17969 53.6594C5.17969 53.524 6.53187 53.4563 8.2221 53.4563C9.84472 53.4563 11.2645 53.524 11.2645 53.6594Z" fill="#E0E0E0"/>
<path d="M11.2645 60.0905C11.2645 60.1582 9.91232 60.2936 8.2221 60.2936C6.53187 60.2936 5.17969 60.2259 5.17969 60.0905C5.17969 59.9551 6.53187 59.8875 8.2221 59.8875C9.84472 59.8875 11.2645 59.9551 11.2645 60.0905Z" fill="#E0E0E0"/>
<path d="M11.2645 66.5214C11.2645 66.5891 9.91232 66.7245 8.2221 66.7245C6.53187 66.7245 5.17969 66.6568 5.17969 66.5214C5.17969 66.3861 6.53187 66.3184 8.2221 66.3184C9.84472 66.3861 11.2645 66.4538 11.2645 66.5214Z" fill="#E0E0E0"/>
<path d="M11.2645 73.0205C11.2645 73.0882 9.91232 73.2236 8.2221 73.2236C6.53187 73.2236 5.17969 73.1559 5.17969 73.0205C5.17969 72.9528 6.53187 72.8174 8.2221 72.8174C9.84472 72.8174 11.2645 72.8851 11.2645 73.0205Z" fill="#E0E0E0"/>
<path d="M11.2645 79.4516C11.2645 79.5193 9.91232 79.6547 8.2221 79.6547C6.53187 79.6547 5.17969 79.587 5.17969 79.4516C5.17969 79.3839 6.53187 79.2485 8.2221 79.2485C9.84472 79.2485 11.2645 79.3162 11.2645 79.4516Z" fill="#E0E0E0"/>
<path d="M11.2645 85.8825C11.2645 85.9502 9.91232 86.0856 8.2221 86.0856C6.53187 86.0856 5.17969 86.0179 5.17969 85.8825C5.17969 85.8148 6.53187 85.6794 8.2221 85.6794C9.84472 85.7471 11.2645 85.8148 11.2645 85.8825Z" fill="#E0E0E0"/>
<path d="M11.2645 92.3816C11.2645 92.4493 9.91232 92.5846 8.2221 92.5846C6.53187 92.5846 5.17969 92.5169 5.17969 92.3816C5.17969 92.3139 6.53187 92.1785 8.2221 92.1785C9.84472 92.1785 11.2645 92.2462 11.2645 92.3816Z" fill="#E0E0E0"/>
<path d="M11.2645 98.8127C11.2645 98.8804 9.91232 99.0158 8.2221 99.0158C6.53187 99.0158 5.17969 98.9481 5.17969 98.8127C5.17969 98.745 6.53187 98.6096 8.2221 98.6096C9.84472 98.6096 11.2645 98.6773 11.2645 98.8127Z" fill="#E0E0E0"/>
<path d="M35.6037 8.09982C35.6037 8.16751 32.088 8.3029 27.6935 8.3029C23.2989 8.3029 19.7832 8.23521 19.7832 8.09982C19.7832 7.96443 23.2989 7.89673 27.6935 7.89673C32.088 7.89673 35.6037 7.96443 35.6037 8.09982Z" fill="#E36F59"/>
<path d="M35.6037 98.8127C35.6037 98.8804 32.088 99.0158 27.6935 99.0158C23.2989 99.0158 19.7832 98.9481 19.7832 98.8127C19.7832 98.745 23.2989 98.6096 27.6935 98.6096C32.088 98.6096 35.6037 98.6773 35.6037 98.8127Z" fill="#E36F59"/>
<path d="M57.644 21.3684C57.644 21.4361 51.0184 21.5715 42.8377 21.5715C34.657 21.5715 28.0312 21.5038 28.0312 21.3684C28.0312 21.3007 34.657 21.1653 42.8377 21.1653C51.0184 21.1653 57.644 21.233 57.644 21.3684Z" fill="#E36F59"/>
<path d="M91.7866 21.3684C91.7866 21.4361 85.1609 21.5715 76.9802 21.5715C68.7995 21.5715 62.1738 21.5038 62.1738 21.3684C62.1738 21.3007 68.7995 21.1653 76.9802 21.1653C85.1609 21.1653 91.7866 21.233 91.7866 21.3684Z" fill="#E0E0E0"/>
<path d="M78.7375 27.7995C78.7375 27.8672 69.0018 28.0026 56.9674 28.0026C44.933 28.0026 35.1973 27.9349 35.1973 27.7995C35.1973 27.7318 44.933 27.5964 56.9674 27.5964C69.0018 27.6641 78.7375 27.7318 78.7375 27.7995Z" fill="#E0E0E0"/>
<path d="M78.7375 34.2983C78.7375 34.366 69.0018 34.5014 56.9674 34.5014C44.933 34.5014 35.1973 34.4337 35.1973 34.2983C35.1973 34.2306 44.933 34.0952 56.9674 34.0952C69.0018 34.0952 78.7375 34.1629 78.7375 34.2983Z" fill="#E0E0E0"/>
<path d="M108.689 53.6594C108.689 53.7271 98.953 53.8625 86.9186 53.8625C74.8841 53.8625 65.1484 53.7948 65.1484 53.6594C65.1484 53.524 74.8841 53.4563 86.9186 53.4563C98.953 53.4563 108.689 53.524 108.689 53.6594Z" fill="#E0E0E0"/>
<path d="M95.7756 40.7295C95.7756 40.7972 86.0399 40.9325 74.0055 40.9325C61.971 40.9325 52.2354 40.8648 52.2354 40.7295C52.2354 40.6618 61.971 40.5264 74.0055 40.5264C86.0399 40.5264 95.7756 40.5941 95.7756 40.7295Z" fill="#E0E0E0"/>
<path d="M148.984 40.7295C148.984 40.7972 139.248 40.9325 127.213 40.9325C115.179 40.9325 105.443 40.8648 105.443 40.7295C105.443 40.6618 115.179 40.5264 127.213 40.5264C139.248 40.5264 148.984 40.5941 148.984 40.7295Z" fill="#E0E0E0"/>
<path d="M130.527 27.7995C130.527 27.8672 120.791 28.0026 108.756 28.0026C96.722 28.0026 86.9863 27.9349 86.9863 27.7995C86.9863 27.7318 96.722 27.5964 108.756 27.5964C120.723 27.6641 130.527 27.7318 130.527 27.7995Z" fill="#FAFAFA"/>
<path d="M160.613 53.6594C160.613 53.7271 150.877 53.8625 138.842 53.8625C126.808 53.8625 117.072 53.7948 117.072 53.6594C117.072 53.524 126.808 53.4563 138.842 53.4563C150.809 53.4563 160.613 53.524 160.613 53.6594Z" fill="#FAFAFA"/>
<path d="M154.595 34.2983C154.595 34.366 139.451 34.5014 120.791 34.5014C102.131 34.5014 86.9863 34.4337 86.9863 34.2983C86.9863 34.2306 102.131 34.0952 120.791 34.0952C139.451 34.0952 154.595 34.1629 154.595 34.2983Z" fill="#455A64"/>
<path d="M35.6037 14.9372C35.6037 15.0049 32.088 15.1403 27.6935 15.1403C23.2989 15.1403 19.7832 15.0726 19.7832 14.9372C19.7832 14.8695 23.2989 14.7341 27.6935 14.7341C32.088 14.7341 35.6037 14.8018 35.6037 14.9372Z" fill="#FAFAFA"/>
<path d="M35.6037 92.3816C35.6037 92.4493 32.088 92.5846 27.6935 92.5846C23.2989 92.5846 19.7832 92.5169 19.7832 92.3816C19.7832 92.3139 23.2989 92.1785 27.6935 92.1785C32.088 92.1785 35.6037 92.2462 35.6037 92.3816Z" fill="#FAFAFA"/>
<path d="M43.4455 40.7295C43.4455 40.7972 39.9298 40.9325 35.5353 40.9325C31.1407 40.9325 27.625 40.8648 27.625 40.7295C27.625 40.6618 31.1407 40.5264 35.5353 40.5264C39.9298 40.5264 43.4455 40.5941 43.4455 40.7295Z" fill="#FAFAFA"/>
<path d="M170.077 40.7295C170.077 40.7972 166.562 40.9325 162.167 40.9325C157.773 40.9325 154.257 40.8648 154.257 40.7295C154.257 40.6618 157.773 40.5264 162.167 40.5264C166.494 40.5264 170.077 40.5941 170.077 40.7295Z" fill="#E36F59"/>
<path d="M57.644 66.5214C57.644 66.5891 51.0184 66.7245 42.8377 66.7245C34.657 66.7245 28.0312 66.6568 28.0312 66.5214C28.0312 66.4538 34.657 66.3184 42.8377 66.3184C51.0184 66.3184 57.644 66.3861 57.644 66.5214Z" fill="#E36F59"/>
<path d="M91.7866 66.5214C91.7866 66.5891 85.1609 66.7245 76.9802 66.7245C68.7995 66.7245 62.1738 66.6568 62.1738 66.5214C62.1738 66.4538 68.7995 66.3184 76.9802 66.3184C85.1609 66.3184 91.7866 66.3861 91.7866 66.5214Z" fill="#E0E0E0"/>
<path d="M78.7375 72.9526C78.7375 73.0203 69.0018 73.1557 56.9674 73.1557C44.933 73.1557 35.1973 73.088 35.1973 72.9526C35.1973 72.8172 44.933 72.7495 56.9674 72.7495C69.0018 72.7495 78.7375 72.8849 78.7375 72.9526Z" fill="#E0E0E0"/>
<path d="M78.7375 79.3838C78.7375 79.4515 69.0018 79.5868 56.9674 79.5868C44.933 79.5868 35.1973 79.5191 35.1973 79.3838C35.1973 79.3161 44.933 79.1807 56.9674 79.1807C69.0018 79.2484 78.7375 79.3161 78.7375 79.3838Z" fill="#E0E0E0"/>
<path d="M95.7756 85.8825C95.7756 85.9502 86.0399 86.0856 74.0055 86.0856C61.971 86.0856 52.2354 86.0179 52.2354 85.8825C52.2354 85.8148 61.971 85.6794 74.0055 85.6794C86.0399 85.6794 95.7756 85.7471 95.7756 85.8825Z" fill="#E0E0E0"/>
<path d="M148.984 85.8825C148.984 85.9502 139.248 86.0856 127.213 86.0856C115.179 86.0856 105.443 86.0179 105.443 85.8825C105.443 85.8148 115.179 85.6794 127.213 85.6794C139.248 85.6794 148.984 85.7471 148.984 85.8825Z" fill="#E0E0E0"/>
<path d="M130.527 72.9526C130.527 73.0203 120.791 73.1557 108.756 73.1557C96.722 73.1557 86.9863 73.088 86.9863 72.9526C86.9863 72.8172 96.722 72.7495 108.756 72.7495C120.723 72.7495 130.527 72.8849 130.527 72.9526Z" fill="#FAFAFA"/>
<path d="M154.595 79.3838C154.595 79.4515 139.451 79.5868 120.791 79.5868C102.131 79.5868 86.9863 79.5191 86.9863 79.3838C86.9863 79.3161 102.131 79.1807 120.791 79.1807C139.451 79.2484 154.595 79.3161 154.595 79.3838Z" fill="#455A64"/>
<path d="M43.4455 85.8825C43.4455 85.9502 39.9298 86.0856 35.5353 86.0856C31.1407 86.0856 27.625 86.0179 27.625 85.8825C27.625 85.8148 31.1407 85.6794 35.5353 85.6794C39.9298 85.6794 43.4455 85.7471 43.4455 85.8825Z" fill="#FAFAFA"/>
<path d="M170.077 85.8825C170.077 85.9502 166.562 86.0856 162.167 86.0856C157.773 86.0856 154.257 86.0179 154.257 85.8825C154.257 85.8148 157.773 85.6794 162.167 85.6794C166.494 85.6794 170.077 85.7471 170.077 85.8825Z" fill="#E36F59"/>
</svg>
