<svg width="23" height="31" viewBox="0 0 23 31" fill="none" xmlns="http://www.w3.org/2000/svg">
<path d="M10.6458 12.8816C9.83449 14.0325 8.21186 13.694 7.46816 12.9493C6.72446 12.2047 6.38642 11.1892 6.11598 10.1738C5.43989 7.87212 4.83144 5.50275 5.30471 3.20108C5.43992 2.52412 5.71035 1.84717 6.18362 1.3056C6.65688 0.764027 7.40057 0.493247 8.07666 0.696335C8.88797 0.899424 9.36124 1.71178 9.76689 2.45644C10.8486 4.69041 11.3895 7.12747 11.3895 9.56453C11.4571 10.7154 11.3219 11.9339 10.6458 12.8816Z" fill="#75B687"/>
<g opacity="0.2">
<g opacity="0.2">
<g opacity="0.2">
<path opacity="0.2" d="M10.6458 12.8816C9.83449 14.0325 8.21186 13.694 7.46816 12.9493C6.72446 12.2047 6.38642 11.1892 6.11598 10.1738C5.43989 7.87212 4.83144 5.50275 5.30471 3.20108C5.43992 2.52412 5.71035 1.84717 6.18362 1.3056C6.65688 0.764027 7.40057 0.493247 8.07666 0.696335C8.88797 0.899424 9.36124 1.71178 9.76689 2.45644C10.8486 4.69041 11.3895 7.12747 11.3895 9.56453C11.4571 10.7154 11.3219 11.9339 10.6458 12.8816Z" fill="black"/>
</g>
</g>
</g>
<path d="M7.60395 18.8388C6.25177 18.1619 4.69678 18.0265 3.14177 18.2973C2.33046 18.4327 1.51914 18.7034 0.978269 19.245C0.437396 19.8543 0.302178 20.9374 0.978269 21.4113C1.38392 21.7498 1.85719 21.7498 2.33045 21.7498C3.47981 21.7498 4.83199 21.5467 5.71091 22.2236C6.25178 22.6298 6.58981 23.3068 7.26591 23.5098C7.87439 23.7129 8.61809 23.3068 8.95613 22.7652C9.29418 22.2236 9.29417 21.479 9.15895 20.8697C9.09134 20.9374 8.95613 19.5158 7.60395 18.8388Z" fill="#75B687"/>
<path d="M12.9448 14.5741C12.0659 13.491 11.8631 11.934 12.2687 10.6477C12.6744 9.29381 13.5533 8.21067 14.6351 7.26292C15.852 6.17979 17.2718 5.36745 18.8268 4.82588C19.4353 4.62279 20.0438 4.4197 20.7199 4.4874C21.3284 4.5551 22.0044 4.89357 22.2749 5.43514C22.7481 6.24749 22.2749 7.26294 21.8692 8.14299C21.0579 9.6323 20.179 10.9862 19.0973 12.3401C18.2859 13.4233 17.3394 14.4387 16.0548 14.9126C14.7703 15.3865 13.4857 15.3188 12.8096 14.4387" fill="#75B687"/>
<path d="M10.714 30.618C10.714 30.618 10.6463 30.4149 10.6463 30.0764C10.5787 29.6703 10.5787 29.1964 10.5111 28.5871C10.4435 27.9778 10.3759 27.2332 10.1731 26.4209C9.97024 25.6085 9.76745 24.7961 9.3618 23.9161C9.02375 23.036 8.55047 22.2914 8.07721 21.6144C7.60394 21.0052 6.99544 20.5313 6.45457 20.2605C5.9137 19.9897 5.44043 19.8543 5.10239 19.8543C4.76434 19.7866 4.56152 19.7866 4.56152 19.7866C4.56152 19.7866 4.76434 19.7866 5.10239 19.7866C5.44043 19.7866 5.98133 19.922 6.5222 20.1928C7.13069 20.4636 7.73917 20.9375 8.21243 21.5467C8.75331 22.2237 9.15896 22.9683 9.56461 23.8484C9.90266 24.7284 10.1731 25.6085 10.3083 26.4209C10.4435 27.2332 10.5111 27.9778 10.5788 28.5871C10.6464 29.1964 10.6463 29.738 10.6463 30.0764C10.714 30.4149 10.714 30.618 10.714 30.618Z" fill="#263238"/>
<path d="M10.6467 29.5349C10.6467 29.5349 10.6467 29.4672 10.6467 29.2641C10.6467 29.0611 10.6467 28.858 10.6467 28.5872C10.6467 27.9779 10.6467 27.0979 10.6467 25.947C10.5791 23.7131 10.3763 20.7345 10.0383 17.3496C9.70024 14.0325 9.15935 10.9862 8.7537 8.81994C8.61848 8.27837 8.55087 7.80449 8.41565 7.39831C8.34805 6.99214 8.21281 6.58596 8.1452 6.31517C8.07759 6.04439 8.01002 5.7736 8.01002 5.63821C7.94241 5.50282 7.94238 5.36743 7.94238 5.36743C7.94238 5.36743 8.01002 5.43512 8.01002 5.57051C8.07763 5.7736 8.14523 5.97669 8.21284 6.24747C8.28044 6.51826 8.41564 6.92444 8.48325 7.33061C8.61847 7.73679 8.68607 8.21067 8.82129 8.75224C9.29456 10.9185 9.83543 13.8971 10.1735 17.2819C10.5115 20.5991 10.7144 23.7131 10.7144 25.8793C10.7144 26.9625 10.7144 27.9102 10.6467 28.5195C10.6467 28.7903 10.6468 29.0611 10.5792 29.1965C10.6468 29.3996 10.6467 29.5349 10.6467 29.5349Z" fill="#263238"/>
<path d="M10.5791 23.6453C10.5791 23.6453 10.5791 23.3745 10.5791 22.9006C10.5791 22.4268 10.6467 21.7498 10.7819 20.8697C10.9171 20.0574 11.12 19.042 11.458 17.9588C11.7284 16.8757 12.1341 15.6571 12.675 14.5063C13.6891 12.0693 15.0413 10.1061 16.2582 8.88754C16.5287 8.54906 16.8668 8.34597 17.1372 8.07518C17.2724 7.93979 17.4076 7.87209 17.4752 7.7367C17.6105 7.66901 17.6781 7.60132 17.8133 7.53362C18.2189 7.26284 18.4217 7.12744 18.4217 7.12744C18.4894 7.19514 17.5428 7.73669 16.3935 8.95522C15.2441 10.1738 13.8919 12.1369 12.8778 14.5063C12.3369 15.7248 11.9313 16.8757 11.6608 17.9588C11.3228 19.042 11.12 20.0574 10.9847 20.8697C10.8495 21.6821 10.7143 22.3591 10.7143 22.8329C10.6467 23.3745 10.6467 23.6453 10.5791 23.6453Z" fill="#263238"/>
</svg>
