<svg width="79" height="102" viewBox="0 0 79 102" fill="none" xmlns="http://www.w3.org/2000/svg">
<path d="M29.9584 63.37L32.6628 71.832C33.6769 75.3522 36.6517 77.9246 40.235 78.6016L58.2867 81.9864L63.2221 81.851L58.2867 75.7584L44.7648 71.155C43.4127 70.8842 42.3985 69.8688 42.0605 68.5826L36.6517 56.8035L29.8232 61.0006L29.9584 63.37Z" fill="#FFBE9D"/>
<path d="M17.0456 6.57287C17.1808 5.28664 16.7075 3.93272 16.0314 2.84959C15.3553 1.76645 14.3412 0.75101 13.0566 0.547922C11.6368 0.344834 10.1494 1.29258 9.54094 2.64651C9.00007 4.00043 9.27051 5.62512 10.0818 6.84365C10.4875 7.45292 11.096 7.9945 11.7044 8.40067C9.81138 9.6192 8.32398 11.447 7.64789 13.5456C7.37745 14.2902 7.24223 15.0349 6.90419 15.7118C6.56614 16.3888 6.09287 17.0658 5.41678 17.3365C4.87591 17.5396 4.33504 17.6073 3.79416 17.8104C2.91525 18.1489 2.23915 18.9613 2.03632 19.8413C1.8335 20.7891 2.03633 21.7368 2.5096 22.5492C2.78003 22.9553 3.11807 23.3615 3.11807 23.8354C3.11807 24.1739 2.98286 24.4446 2.91525 24.7831C2.64482 25.8663 3.18568 27.0171 4.13221 27.6264C5.07874 28.1679 6.36331 28.0325 7.17462 27.3556C7.51266 28.1679 7.98594 28.9126 8.72964 29.3188C9.47334 29.6572 10.6227 29.3865 10.7579 28.5064C11.1636 29.3188 12.1101 29.7926 12.989 29.6572C13.8679 29.5219 14.544 28.7095 14.6116 27.8294L29.1476 11.9209C26.9841 5.9636 18.533 6.43748 17.0456 6.57287Z" fill="#E36F59"/>
<path d="M14.6119 12.1241C13.6653 12.1918 12.9893 13.0041 12.9893 13.9518L14.0034 38.4578C14.071 41.3688 19.2769 44.7536 22.3869 44.6859C25.4969 44.6182 24.618 41.3011 24.618 38.5255C24.6856 33.9222 24.6856 32.2298 24.6856 32.2298C24.6856 32.2298 28.607 31.5528 29.4859 26.4079C29.8915 23.8355 29.7563 19.6383 29.5535 16.1858C29.3507 13.0718 27.3224 9.28082 24.2124 9.6193L14.6119 12.1241Z" fill="#FFBE9D"/>
<path d="M28.2016 19.5707C28.2016 19.9092 27.9311 20.2476 27.5931 20.2476C27.255 20.2476 26.917 19.9769 26.917 19.6384C26.917 19.2999 27.1874 18.9614 27.5255 18.9614C27.8635 18.9614 28.2016 19.2322 28.2016 19.5707Z" fill="#263238"/>
<path d="M28.6072 18.4199C28.5396 18.4876 27.9988 18.1491 27.3227 18.1491C26.579 18.1491 26.1057 18.4876 26.0381 18.4199C25.9705 18.3522 26.1057 18.2168 26.3085 18.0814C26.5114 17.946 26.917 17.7429 27.3903 17.7429C27.8635 17.7429 28.2016 17.8783 28.4044 18.0814C28.6072 18.2845 28.6748 18.4199 28.6072 18.4199Z" fill="#263238"/>
<path d="M21.2377 19.5707C21.2377 19.9092 20.9673 20.2476 20.6292 20.2476C20.2912 20.2476 19.9531 19.9769 19.9531 19.6384C19.9531 19.2999 20.2236 18.9614 20.5616 18.9614C20.8997 18.9614 21.2377 19.2322 21.2377 19.5707Z" fill="#263238"/>
<path d="M21.6434 18.5551C21.5758 18.6228 21.0349 18.2844 20.3588 18.2844C19.6151 18.2844 19.1418 18.6228 19.0742 18.5551C19.0066 18.4874 19.1418 18.352 19.3447 18.2167C19.5475 18.0813 19.9531 17.8782 20.4264 17.8782C20.8997 17.8782 21.2377 18.0136 21.4405 18.2167C21.5758 18.352 21.6434 18.5551 21.6434 18.5551Z" fill="#263238"/>
<path d="M24.2119 23.8356C24.2119 23.7679 24.6176 23.7002 25.3613 23.6325C25.5641 23.6325 25.6993 23.5648 25.7669 23.4294C25.8345 23.294 25.7669 23.0909 25.6317 22.8879C25.4289 22.4817 25.2937 22.0078 25.0908 21.5339C24.3471 19.5707 23.8063 17.946 23.8739 17.946C23.9415 17.946 24.6176 19.503 25.3613 21.4662C25.5641 21.9401 25.6993 22.414 25.9021 22.8879C25.9697 23.0909 26.105 23.3617 25.9698 23.6325C25.9021 23.7679 25.7669 23.8356 25.6993 23.9033C25.5641 23.971 25.4965 23.971 25.3613 23.971C24.6852 23.9033 24.2119 23.9033 24.2119 23.8356Z" fill="#263238"/>
<path d="M24.6852 32.2975C24.6852 32.2975 21.2371 32.5006 17.7891 30.4697C17.7891 30.4697 19.4793 33.9899 24.6176 33.5161L24.6852 32.2975Z" fill="#EB996E"/>
<path d="M23.8745 25.5955C23.604 25.257 23.1984 25.0539 22.7251 25.1216C22.3871 25.1216 22.1166 25.3247 21.9138 25.5278C21.711 25.7986 21.711 26.1371 21.8462 26.4079C22.049 26.6786 22.4547 26.7463 22.7927 26.6109C23.1308 26.5432 23.4012 26.2725 23.6716 26.0694C23.7392 26.0017 23.8069 25.934 23.8745 25.8663C24.0097 25.7986 24.0097 25.6632 23.8745 25.5955Z" fill="#EB996E"/>
<path d="M22.1161 24.377C22.2513 24.377 22.2514 25.1216 22.9274 25.6632C23.6035 26.2047 24.4148 26.137 24.4148 26.2047C24.4148 26.2724 24.212 26.3401 23.874 26.3401C23.5359 26.3401 23.0626 26.2724 22.657 25.934C22.2513 25.5955 22.0485 25.1216 22.0485 24.8508C21.9809 24.5123 22.0485 24.377 22.1161 24.377Z" fill="#263238"/>
<path d="M21.9138 17.3367C21.8462 17.5398 21.1025 17.4721 20.2912 17.5398C19.4799 17.6075 18.8038 17.8782 18.6686 17.6752C18.601 17.6075 18.7362 17.4044 19.0066 17.2013C19.2771 16.9982 19.6827 16.8628 20.2236 16.7951C20.6969 16.7274 21.1701 16.7951 21.5082 16.9305C21.8462 17.0659 21.9815 17.269 21.9138 17.3367Z" fill="#E36F59"/>
<path d="M28.3363 16.3889C28.201 16.5243 27.7278 16.3889 27.1193 16.3889C26.5108 16.3889 26.0375 16.5243 25.9023 16.3212C25.8347 16.2536 25.9023 16.0505 26.1728 15.9151C26.3756 15.7797 26.7137 15.6443 27.1193 15.6443C27.525 15.6443 27.863 15.7797 28.0658 15.9828C28.3362 16.1182 28.4039 16.3213 28.3363 16.3889Z" fill="#E36F59"/>
<path d="M13.5301 20.3831C13.1245 20.1123 12.5836 20.18 12.178 20.4508C11.2314 20.9923 10.7582 22.2786 11.0962 23.294C11.4343 24.3095 12.5836 25.0541 13.6654 24.9187" fill="#FFBE9D"/>
<path d="M21.6434 7.99463C23.5365 8.06233 24.9563 8.60389 26.5789 9.55163C28.2015 10.4317 29.6213 11.921 30.0946 13.7488C30.2298 14.155 30.2298 14.5612 30.027 14.8996C29.7565 15.3735 29.0804 15.4412 28.6072 15.2381C28.1339 15.035 27.7959 14.5612 27.4578 14.155C27.1874 15.1027 26.3085 15.8474 25.2943 15.7797C24.3478 15.7797 23.4013 15.035 23.1985 14.0873C23.1985 15.1027 22.1843 15.9151 21.2378 15.8474C20.2237 15.7797 19.3447 15.035 19.0743 14.0873C18.8715 14.9673 18.6687 15.8474 18.1954 16.592C17.6545 17.3367 16.708 17.8106 15.8291 17.5398C15.9643 18.2844 16.0995 19.0968 15.7615 19.8414C15.491 20.5861 14.6797 21.1277 13.936 20.9246C13.1923 20.6538 12.9219 19.8414 12.7867 19.0968C12.4486 17.6752 12.1782 16.2536 12.2458 14.7642C12.3134 13.2749 12.6514 11.8533 13.598 10.7025C14.5445 9.48394 15.8967 8.73929 17.3841 8.40081C18.8715 7.99463 20.3589 7.99463 21.8463 7.99463" fill="#E36F59"/>
<path d="M13.1924 23.3617C13.1924 23.294 12.9896 23.4294 12.7192 23.294C12.4487 23.2263 12.2459 22.8201 12.2459 22.414C12.2459 22.0078 12.5163 21.6693 12.7868 21.6016C13.0572 21.4662 13.26 21.5339 13.26 21.5339C13.26 21.5339 13.0572 21.3985 12.7192 21.4662C12.5839 21.5339 12.3811 21.6016 12.2459 21.8047C12.1107 22.0078 11.9755 22.2109 11.9755 22.4817C11.9078 23.0232 12.2459 23.4971 12.6515 23.5648C12.9896 23.5648 13.1924 23.3617 13.1924 23.3617Z" fill="#EB996E"/>
<path d="M11.2314 23.6323C11.2314 23.6323 11.1638 23.6323 11.0286 23.7C10.8934 23.7677 10.6905 23.8354 10.4877 23.9708C10.0144 24.2416 9.33834 24.7155 8.79747 25.5278C8.52703 25.934 8.32422 26.4756 8.32422 27.0848C8.32422 27.6941 8.45944 28.3033 8.72988 28.9126C9.06792 29.5219 9.47358 30.0635 10.0821 30.4696C10.6905 30.8758 11.4342 31.1466 12.1779 31.1466C13.7329 31.1466 15.0851 30.1311 15.626 28.9803C15.964 28.371 16.0316 27.7618 15.964 27.1525C15.8964 26.5432 15.6936 26.0694 15.4908 25.5955C15.0175 24.7155 14.2738 24.2416 13.8006 24.0385C13.5301 23.9031 13.3273 23.9031 13.1921 23.8354C13.0568 23.8354 12.9892 23.8354 12.9892 23.8354C12.9892 23.8354 13.2597 23.9031 13.8006 24.1062C14.2738 24.3093 14.9499 24.8509 15.3556 25.6632C15.5584 26.0694 15.7612 26.6109 15.8288 27.1525C15.8288 27.6941 15.7612 28.3033 15.4908 28.8449C14.9499 29.928 13.6653 30.8758 12.2455 30.8758C10.8257 30.8758 9.54118 29.928 9.00031 28.8449C8.39183 27.7618 8.52705 26.4756 9.00031 25.6632C9.47357 24.8509 10.1497 24.377 10.5553 24.1062C10.961 23.7677 11.2314 23.6323 11.2314 23.6323Z" fill="#263238"/>
<path d="M15.4909 7.65606C15.4232 7.65606 15.3556 7.18218 15.0176 6.50522C14.6795 5.82826 14.1387 4.94822 13.2597 4.27126C12.3808 3.5943 11.3667 3.18812 10.6906 3.05273C9.94691 2.91734 9.47363 2.91733 9.47363 2.84964C9.47363 2.78194 9.94691 2.71425 10.6906 2.78195C11.4343 2.84964 12.5161 3.18812 13.4626 3.93278C14.4091 4.67744 14.95 5.62519 15.2204 6.36984C15.4908 7.1145 15.4909 7.58837 15.4909 7.65606Z" fill="#E0E0E0"/>
<path d="M3.59182 27.2201C3.59182 27.2201 3.5242 27.2201 3.38898 27.0171C3.32138 26.8817 3.18617 26.6109 3.25378 26.3401C3.32139 26.0016 3.52421 25.6631 3.86226 25.3924C4.2003 25.1216 4.67356 24.9185 5.14683 24.7154C5.62009 24.4446 6.02576 24.0384 6.02576 23.4292C6.09336 22.8199 5.82293 22.2106 5.68771 21.466C5.6201 21.1275 5.55248 20.7213 5.55248 20.3151C5.62009 19.909 5.75532 19.5028 6.02576 19.1643C6.56663 18.555 7.44553 18.2843 8.18923 18.0135C8.93293 17.7427 9.74424 17.4719 10.1499 16.8626C10.5555 16.2534 10.5555 15.5087 10.4879 14.8318C10.4203 14.1548 10.2851 13.4778 10.3527 12.8009C10.4203 12.1239 10.5556 11.5823 10.7584 11.0408C11.164 10.0253 11.8401 9.34837 12.3134 8.9422C12.5162 8.73911 12.719 8.60371 12.8543 8.53601C12.9895 8.46832 13.0571 8.40063 13.0571 8.40063C13.0571 8.40063 12.7867 8.60372 12.381 9.0099C11.9754 9.41607 11.3669 10.093 11.0288 11.0408C10.826 11.5147 10.6908 12.1239 10.6908 12.7332C10.6232 13.3424 10.7584 14.0194 10.826 14.6964C10.8936 15.3733 10.9612 16.2534 10.4879 16.998C10.0147 17.7427 9.13577 18.0135 8.39207 18.2843C7.64837 18.5551 6.83706 18.7581 6.3638 19.2997C5.89054 19.8413 5.89054 20.5859 6.02576 21.2629C6.16097 21.9399 6.43141 22.6168 6.3638 23.2938C6.3638 23.6323 6.22858 23.9707 6.02576 24.2415C5.82293 24.5123 5.55249 24.6477 5.34966 24.7831C4.8764 25.0539 4.40312 25.1893 4.06508 25.46C3.72703 25.6631 3.52421 26.0016 3.4566 26.2724C3.32138 26.9494 3.65943 27.2201 3.59182 27.2201Z" fill="#E0E0E0"/>
<path d="M21.9812 13.8841C21.9136 13.8841 21.846 13.3425 21.5756 12.5302C21.3052 11.7178 20.7643 10.6347 19.8177 9.68692C18.8712 8.73917 17.7895 8.1976 16.9782 7.92682C16.1668 7.65603 15.626 7.58834 15.626 7.58834C15.626 7.52064 16.1669 7.52065 17.0458 7.72374C17.9247 7.92683 19.074 8.46839 20.0882 9.41614C21.1023 10.4316 21.5756 11.5824 21.846 12.4625C22.0489 13.3425 22.0488 13.8841 21.9812 13.8841Z" fill="#E0E0E0"/>
<path d="M26.173 11.6501C26.1054 11.6501 25.9702 10.9731 25.2941 10.0254C24.618 9.14532 23.401 8.06218 21.7784 7.5883C20.1558 7.04674 18.5332 7.11443 17.4514 7.24982C16.3021 7.38522 15.626 7.52062 15.626 7.45292C15.626 7.38523 16.3021 7.18213 17.4514 6.97904C18.6008 6.77596 20.2234 6.70825 21.9812 7.24982C23.6715 7.79139 24.956 8.94222 25.6321 9.88997C25.9702 10.3638 26.173 10.8377 26.2406 11.1085C26.173 11.447 26.173 11.6501 26.173 11.6501Z" fill="#E0E0E0"/>
<path d="M17.1816 6.30218C17.1816 6.30218 17.0464 6.64066 16.6408 7.04684C16.2351 7.45302 15.559 7.92688 14.7477 8.19766C13.9364 8.46845 13.1251 8.53616 12.5166 8.46846C11.9757 8.40077 11.6377 8.26536 11.6377 8.19766C11.6377 8.06227 13.0575 8.40075 14.6125 7.85918C16.2351 7.38531 17.0464 6.23448 17.1816 6.30218Z" fill="#263238"/>
<path d="M20.7639 101.618C8.39146 97.4886 16.8426 81.1062 16.8426 81.1062L70.9299 86.1834C75.2569 86.1834 78.8402 89.7036 78.8402 94.0362C78.8402 98.3687 75.3245 101.889 70.9975 101.889L20.7639 101.618Z" fill="#263238"/>
<path d="M8.12131 101.618C-3.91311 97.5563 4.40281 81.1062 4.40281 81.1062L57.1379 86.1157C62.2762 86.1834 64.7777 88.6882 64.7777 93.9685C64.7777 98.301 63.1551 101.957 57.1379 101.821L8.12131 101.618Z" fill="#263238"/>
<path d="M20.3584 83.8817C20.3584 83.8817 20.426 83.8817 20.4936 83.8817C20.6288 83.8817 20.7641 83.8817 20.8993 83.8817C21.3049 83.8817 21.8458 83.9494 22.5895 83.9494C24.0769 84.0171 26.1728 84.1525 28.8096 84.2878C34.0831 84.5586 41.3172 84.9648 49.2951 85.4387C50.3092 85.5064 51.2557 85.5741 52.2699 85.5741C53.2164 85.5741 54.2306 85.6418 55.1771 85.7094C56.1236 85.7771 57.0701 85.8449 57.9491 85.9125C58.828 86.0479 59.7745 86.1156 60.5858 86.4541C61.3971 86.7926 62.1408 87.2665 62.7493 87.8757C63.3578 88.485 63.831 89.2297 64.1015 90.042C64.3719 90.7867 64.5748 91.599 64.6424 92.3437C64.71 93.0883 64.7776 93.833 64.7776 94.5099C64.7776 95.9316 64.5071 97.1501 64.1015 98.1655C63.6282 99.181 63.0197 99.9256 62.4789 100.4C61.8704 100.873 61.3295 101.144 60.9915 101.212C60.5858 101.347 60.5858 101.28 60.9915 101.144C61.3295 101.009 61.8704 100.738 62.4112 100.264C62.9521 99.7902 63.5606 99.0456 63.9663 98.0301C64.3719 97.0147 64.6424 95.7962 64.6424 94.4423C64.6424 93.7653 64.5748 93.0206 64.5071 92.276C64.3719 91.5313 64.2367 90.7867 63.9663 90.042C63.6958 89.2974 63.2902 88.5527 62.6817 88.0111C62.0732 87.4019 61.3971 86.9957 60.5858 86.6572C59.7745 86.3187 58.8956 86.251 58.0166 86.1156C57.1377 86.0479 56.1912 85.9802 55.2447 85.9125C54.2982 85.8449 53.3516 85.8448 52.4051 85.7771C51.4586 85.7771 50.4445 85.7095 49.4303 85.6418C41.4525 85.1679 34.2182 84.7617 28.9447 84.4232C26.308 84.2878 24.2121 84.1524 22.7247 84.017C21.981 83.9493 21.4401 83.9494 21.0345 83.8817C20.8317 83.8817 20.6964 83.8817 20.6288 83.814C20.426 83.8817 20.3584 83.8817 20.3584 83.8817Z" fill="#455A64"/>
<path d="M39.086 84.965L34.759 82.8664L31.7166 72.7797L31.4462 59.9174L37.5986 57.345L32.7308 45.092C31.8518 43.2642 30.0264 38.5255 25.429 36.9007C25.429 36.0207 25.4289 35.1406 25.5642 34.8699C25.9022 34.2606 14.3411 33.9221 13.665 34.1252C13.0565 34.3283 13.8002 36.4946 13.665 36.833C9.54083 37.9839 5.55189 39.6763 4.06449 45.3628C3.45601 47.5967 3.65885 52.2001 3.99689 54.5017L7.24212 71.4934L5.41667 77.0445C5.41667 77.0445 -0.870968 90.2453 1.49535 95.3902C3.86167 100.535 7.98583 101.686 7.98583 101.686L39.4917 101.618L39.086 84.965Z" fill="#E36F59"/>
<g opacity="0.3">
<g opacity="0.3">
<g opacity="0.3">
<g opacity="0.3">
<g opacity="0.3">
<path opacity="0.3" d="M7.5127 64.7916C8.05357 67.1609 8.93248 70.6134 9.8114 72.8474C10.4875 74.4721 11.2312 76.0968 12.3129 77.5184C13.868 79.3462 16.0314 80.6325 18.3978 81.2417C20.6965 81.851 23.198 81.851 25.5643 81.5802L13.6651 74.8106L10.4875 63.7761L7.5127 64.7916Z" fill="black"/>
</g>
</g>
</g>
</g>
</g>
<path d="M31.7171 72.3736C31.7171 72.3736 31.6495 72.0351 31.6495 71.4935C31.6495 70.8842 31.5819 70.0042 31.5143 68.9888C31.4467 66.8902 31.3114 63.9793 31.2438 60.7975C31.1762 57.6158 31.1086 54.7049 31.041 52.6063C31.041 51.5909 31.041 50.7785 31.041 50.1016C31.041 49.4923 31.041 49.1538 31.041 49.1538C31.041 49.1538 31.1086 49.4923 31.1086 50.0339C31.1086 50.6431 31.1762 51.5232 31.2438 52.5386C31.3114 54.6372 31.4467 57.5481 31.5143 60.7298C31.5819 63.9116 31.6495 66.8225 31.7171 68.9211C31.7171 69.9365 31.7171 70.7489 31.7171 71.4258C31.7847 72.1028 31.7847 72.3736 31.7171 72.3736Z" fill="#263238"/>
<path d="M20.0877 60.3912C20.0877 60.3912 20.0201 60.4589 19.8849 60.4589C19.6821 60.5266 19.4793 60.5943 19.2088 60.7296C18.6004 60.9327 17.7214 61.2712 16.6397 61.6774C14.341 62.4897 11.0957 63.5729 7.10679 64.9945L6.97158 65.0622V64.9268C6.29549 61.4743 5.55178 57.4125 4.74047 53.0123C4.60525 50.846 4.19961 48.612 4.33483 46.2427C4.40244 45.6334 4.60526 45.0919 4.80808 44.5503C5.01091 44.0087 5.28136 43.5348 5.6194 43.061C6.22788 42.1132 7.1744 41.3686 8.12093 40.8947C10.0816 39.8793 12.5155 40.2177 14.0705 41.504C14.8142 42.1809 15.2875 43.061 15.6255 43.941C16.0312 44.8211 16.3016 45.6334 16.5721 46.5135C17.0453 48.2059 17.451 49.7629 17.8567 51.1845C18.6004 54.0277 19.1412 56.3294 19.6145 57.9541C19.8173 58.6988 19.9525 59.308 20.0877 59.7819C20.1554 59.985 20.1554 60.1204 20.223 60.2558C20.0878 60.3235 20.0877 60.3912 20.0877 60.3912C20.0877 60.3912 20.0877 60.3235 20.0201 60.1881C19.9525 60.0527 19.9525 59.9173 19.8849 59.7142C19.7497 59.2403 19.6145 58.6311 19.344 57.8864C18.8708 56.2617 18.2623 53.96 17.5186 51.1845C17.113 49.7629 16.7073 48.2059 16.234 46.5812C15.9636 45.7688 15.6931 44.8888 15.2875 44.0764C14.8818 43.264 14.4762 42.384 13.8001 41.7747C12.3803 40.5562 10.0816 40.2177 8.25615 41.1655C7.30962 41.6394 6.49832 42.3163 5.88983 43.1964C5.6194 43.6702 5.34896 44.1441 5.14613 44.618C4.9433 45.1596 4.74047 45.6334 4.74047 46.175C4.53764 48.4767 5.01091 50.7106 5.07852 52.8769C5.88983 57.2771 6.63353 61.3389 7.24202 64.7914L7.0392 64.656C10.9605 63.3698 14.2058 62.2867 16.5045 61.542C17.6538 61.2035 18.5327 60.865 19.1412 60.6619C19.4117 60.5942 19.6821 60.5266 19.8173 60.4589C19.9525 60.3912 20.0877 60.3912 20.0877 60.3912Z" fill="#263238"/>
<path d="M10.6223 63.5052C10.5547 63.5052 10.2843 63.0313 10.0815 62.3543C9.87866 61.6774 9.74343 61.1358 9.87865 61.0681C9.94625 61.0681 10.2167 61.542 10.4195 62.219C10.5547 62.9636 10.69 63.5052 10.6223 63.5052Z" fill="#263238"/>
<path d="M13.6653 62.6928C13.5977 62.6928 13.3948 62.219 13.192 61.542C13.0568 60.8651 12.9892 60.3235 13.0568 60.3235C13.1244 60.3235 13.3272 60.7974 13.5301 61.4743C13.7329 62.0836 13.8005 62.6252 13.6653 62.6928Z" fill="#263238"/>
<path d="M16.8421 61.542C16.7744 61.542 16.5716 61.1359 16.3688 60.5943C16.2336 60.0527 16.1659 59.5789 16.2336 59.5789C16.3012 59.5789 16.504 59.985 16.7068 60.5266C16.842 61.0682 16.9097 61.542 16.8421 61.542Z" fill="#263238"/>
<path d="M33.7446 58.9696C33.677 59.0373 33.3389 58.5635 33.0685 57.8865C32.7981 57.2095 32.7981 56.668 32.8657 56.668C32.9333 56.668 33.1361 57.1418 33.4066 57.7511C33.6094 58.3604 33.8122 58.9019 33.7446 58.9696Z" fill="#263238"/>
<path d="M36.1112 57.6158C36.0436 57.6835 35.7732 57.2773 35.5027 56.7357C35.2323 56.1941 35.0971 55.7203 35.1647 55.7203C35.2323 55.6526 35.5028 56.0587 35.7732 56.6003C36.0436 57.0742 36.1788 57.5481 36.1112 57.6158Z" fill="#263238"/>
<path d="M15.5577 37.4423C15.6253 37.4423 15.6253 37.5777 15.6253 37.7808H15.4225C15.3549 37.4423 15.2873 36.833 15.2197 36.1561C15.152 35.0729 15.152 34.2606 15.2197 34.1929C15.2873 34.1929 15.4901 35.0052 15.5577 36.0884C15.6253 36.7653 15.6253 37.3746 15.6253 37.7131H15.4225C15.4901 37.51 15.4901 37.4423 15.5577 37.4423Z" fill="#263238"/>
<path d="M18.3969 37.4424C18.3293 37.4424 18.194 36.7654 18.1264 35.8854C18.0588 35.0053 18.0588 34.3283 18.1941 34.2606C18.3293 34.1929 18.3969 34.9376 18.4645 35.8177C18.4645 36.6977 18.4645 37.4424 18.3969 37.4424Z" fill="#263238"/>
<path d="M21.3044 38.0515C21.2368 38.0515 21.1016 37.1714 21.1016 36.156C21.1016 35.1406 21.1692 34.2605 21.2368 34.2605C21.3044 34.2605 21.4396 35.1406 21.4396 36.156C21.4396 37.2391 21.372 38.0515 21.3044 38.0515Z" fill="#263238"/>
<path d="M23.738 37.6454C23.6704 37.6454 23.5352 36.9007 23.5352 36.0207C23.5352 35.1406 23.6028 34.396 23.738 34.396C23.8732 34.396 23.9408 35.1406 23.9408 36.0207C23.8732 36.9684 23.8056 37.6454 23.738 37.6454Z" fill="#263238"/>
<path d="M39.289 85.3034C39.289 85.3711 33.407 85.1003 26.1728 84.5587C18.9386 84.0848 13.0566 83.6109 13.0566 83.4756C13.0566 83.4079 18.9386 83.6786 26.1728 84.2202C33.4746 84.7618 39.289 85.2357 39.289 85.3034Z" fill="#263238"/>
<path d="M8.86426 64.3176L11.7715 73.7951C12.7856 77.3153 15.7604 79.9554 19.3437 80.7001L37.3953 84.1526L42.3308 84.0172L40.6406 79.82L23.8735 73.1858C22.5213 72.915 21.5072 71.8996 21.1691 70.5456L18.6 61.0005L8.86426 64.3176Z" fill="#FFBE9D"/>
<path d="M24.8203 84.2202L24.9555 83.0693L38.8154 82.5278L45.6439 65.4006L71.5382 67.093L62.749 86.1833L24.8203 84.2202Z" fill="#455A64"/>
<path d="M55.7851 76.5028C55.3795 77.1121 54.5682 77.3152 53.8921 76.909C53.2836 76.5028 53.0808 75.6905 53.4864 75.0135C53.8921 74.4042 54.7034 74.2011 55.3795 74.6073C56.0556 75.0135 56.1908 75.8936 55.7851 76.5028Z" fill="white"/>
</svg>
