<svg width="138" height="121" viewBox="0 0 138 121" fill="none" xmlns="http://www.w3.org/2000/svg">
<path fill-rule="evenodd" clip-rule="evenodd" d="M110.677 47.2518C113.449 48.6734 115.95 50.5012 118.181 52.5998L126.227 49.7565L133.799 61.6033L127.782 67.696C128.729 70.6069 129.269 73.6533 129.337 76.7673L137.044 80.4229L133.934 94.2329H125.416C123.996 97.0084 122.17 99.5132 120.075 101.747L122.914 109.803L110.947 117.385L104.862 111.36C101.955 112.308 98.9129 112.849 95.8029 112.917L92.152 120.634L78.3598 117.52V108.991C75.5878 107.569 73.0862 105.741 70.8551 103.643L62.8097 106.486L55.2374 94.5037L61.2546 88.411C60.3081 85.5001 59.7672 82.4537 59.6996 79.3397L51.9922 75.6841L55.1022 61.8741H63.6209C65.0407 59.0986 66.8662 56.5938 68.9621 54.3599L66.1225 46.304L78.0893 38.7221L84.1741 44.747C87.0813 43.7993 90.1237 43.2577 93.2338 43.19L96.8846 35.4727L110.677 38.5867V47.2518ZM98.5073 63.4988C90.3266 61.671 82.2135 66.8159 80.388 75.0072C78.5626 83.1984 83.7009 91.3219 91.8816 93.1497C100.062 94.9775 108.175 89.8326 110.001 81.6414C111.826 73.4502 106.688 65.3266 98.5073 63.4988Z" fill="#E0E0E0"/>
<path d="M34.7513 20.7826C34.7513 20.7826 35.7654 20.8503 37.3881 21.595C39.0107 22.3397 41.2418 23.9644 42.6616 26.943C43.3377 28.4323 43.8109 30.1924 43.7433 32.0879C43.6757 33.9834 43.1349 36.082 41.9855 37.9098C41.4446 38.8575 40.7009 39.6699 39.822 40.4145C38.9431 41.1592 37.9966 41.7684 36.9148 42.2423C34.7513 43.1901 32.2498 43.4608 29.8159 42.9193C27.3819 42.3777 25.2184 41.0238 23.6634 39.2637C22.8521 38.3836 22.2436 37.3682 21.838 36.3527C21.3647 35.3373 21.0943 34.2542 20.9591 33.171C20.6886 31.0048 21.0943 28.9062 21.838 27.1461C22.5817 25.386 23.7986 23.9644 25.0156 22.9489C27.5171 20.8503 30.2891 20.3765 32.047 20.3765C33.8724 20.4442 34.7513 20.7826 34.7513 20.7826C34.7513 20.8503 33.8048 20.5796 31.9793 20.6472C30.2215 20.7149 27.5847 21.2565 25.2184 23.3551C24.0691 24.3705 22.9197 25.7245 22.2436 27.4169C21.5675 29.1093 21.1619 31.0725 21.4999 33.1033C21.6351 34.1188 21.9056 35.1342 22.3789 36.1497C22.7845 37.1651 23.393 38.0452 24.1367 38.9252C25.5565 40.6176 27.6524 41.8361 29.9511 42.3777C32.2498 42.8516 34.6837 42.6485 36.712 41.7007C37.7261 41.2946 38.6726 40.6853 39.484 39.9406C40.2953 39.2637 40.9714 38.4513 41.5122 37.5713C42.6616 35.8789 43.1348 33.9157 43.2701 32.0879C43.3377 30.2601 42.932 28.5677 42.3235 27.1461C41.039 24.3028 38.8755 22.6104 37.3205 21.8658C35.7655 21.0534 34.7513 20.8503 34.7513 20.7826Z" fill="#E0E0E0"/>
<path d="M43.7434 8.80049C43.7434 8.80049 43.7434 8.6651 43.7434 8.39432C43.7434 8.12353 43.7434 7.71736 43.7434 7.17579C43.7434 6.09265 43.6758 4.46794 43.6758 2.43706L43.7434 2.50476C41.1067 1.96319 37.7262 1.15083 33.5344 0.270784L33.7373 0.203088C32.9259 1.96319 32.047 3.85868 31.0329 5.88956L30.9653 6.09265H30.8301C28.7342 6.16035 26.4355 6.56652 24.2044 7.24348L24.0692 7.31118L24.0015 7.24348C22.5817 5.88956 21.0943 4.33255 19.5393 2.77554H19.8098C17.0378 4.53564 14.063 6.43113 11.0206 8.39432L11.1558 8.12353C11.8319 9.95133 12.508 11.9822 13.2517 14.0808L13.3193 14.2162L13.1841 14.3516C11.7643 15.9086 10.4121 17.8041 9.33036 19.9027L9.26276 20.038H9.12754C7.16687 20.038 5.00339 20.038 2.8399 20.038L3.11033 19.835C2.36663 23.0167 1.62293 26.4692 0.811624 30.0571L0.676397 29.7186C2.43423 30.5309 4.39489 31.4787 6.35556 32.4264L6.49079 32.4941V32.6972C6.55839 34.7958 6.96404 37.0975 7.64013 39.3314L7.70774 39.5345L7.57254 39.6699C6.15274 41.0915 4.66534 42.5808 3.11033 44.1379L3.17794 43.7317C4.93578 46.5072 6.82883 49.5535 8.78949 52.5322L8.38383 52.3968C10.2769 51.7198 12.3052 50.9752 14.3334 50.2982L14.5363 50.2305L14.6715 50.3659C16.2265 51.7875 18.1195 53.1414 20.1478 54.2246C20.2154 54.36 19.945 53.9538 20.3507 54.4954V54.5631V54.6308V54.8338V55.24V56.0524V57.6094C20.3507 58.6925 20.3507 59.708 20.3507 60.7911L20.0802 60.4526C23.5283 61.1973 26.9087 62.0096 30.2892 62.7543L29.9511 62.9574C30.8301 61.0619 31.7766 59.1664 32.6555 57.2709L32.7231 57.0678H32.926C35.2247 57.0001 37.4558 56.5939 39.5516 55.917L39.7545 55.8493L39.8897 55.9847C41.3771 57.474 42.8645 58.9633 44.3519 60.4526L43.9462 60.3849C46.9886 58.4894 49.8958 56.5939 52.7354 54.8338L52.6002 55.1723C51.8565 53.1414 51.1804 51.1783 50.5043 49.2151L50.4367 49.0797L50.5719 48.9443C52.1269 47.2519 53.4115 45.4241 54.4256 43.4609L54.4933 43.3255H54.6285C56.792 43.3255 58.8878 43.3255 60.9161 43.3255L60.6457 43.5286C61.457 39.9407 62.2007 36.5559 62.9444 33.3065L63.0796 33.5773C61.0513 32.6295 59.2259 31.7495 57.4004 30.8694L57.2652 30.8017V30.6663C57.1976 28.2293 56.7244 26.063 56.1159 24.0321L56.0483 23.8967L56.1159 23.829C57.7385 22.2043 59.2259 20.715 60.5781 19.3611V19.5642C58.4146 16.1117 56.5891 13.2007 55.0341 10.696L55.237 10.7637C52.8706 11.576 50.91 12.253 49.2873 12.8623H49.2197L49.1521 12.7946C47.4619 11.2376 46.0421 10.2898 45.0956 9.68054C44.6223 9.40976 44.2843 9.20667 44.0138 9.00358C43.8786 8.86819 43.7434 8.80049 43.7434 8.80049C43.7434 8.80049 43.8786 8.86819 44.149 9.00358C44.4195 9.13897 44.7575 9.34206 45.2308 9.61285C46.1773 10.2221 47.6647 11.1022 49.355 12.6592H49.2197C50.8424 12.0499 52.803 11.3729 55.1693 10.4929L55.3046 10.4252L55.3722 10.4929C56.9948 12.9977 58.8202 15.9086 60.9837 19.2934L61.0513 19.4288L60.9161 19.5642C59.5639 20.9858 58.0765 22.4074 56.4539 24.0321L56.5215 23.829C57.1976 25.8599 57.6033 28.1616 57.7385 30.5986L57.6033 30.3956C59.4287 31.2756 61.3218 32.1557 63.2824 33.1034L63.4853 33.1711L63.4176 33.3742C62.6739 36.6236 61.9303 40.0084 61.1866 43.5963L61.119 43.7994H60.9161C58.8878 43.7994 56.792 43.7994 54.6285 43.7994L54.8989 43.664C53.8848 45.6949 52.5326 47.5904 50.9776 49.2828L51.0452 49.012C51.7213 50.9752 52.465 52.9384 53.1411 54.9692L53.2087 55.1723L53.0058 55.3077C50.1663 57.1355 47.1915 58.9633 44.2167 60.9265L44.0138 61.0619L43.811 60.8588C42.3236 59.3695 40.8362 57.8802 39.3488 56.3909L39.6869 56.4586C37.5234 57.1355 35.2247 57.5417 32.926 57.6771L33.1964 57.474C32.3175 59.3695 31.3709 61.265 30.492 63.1605L30.3568 63.3636L30.0864 63.2959C26.7059 62.5512 23.3254 61.8065 19.8774 60.9942L19.6069 60.9265V60.6557C19.6069 59.6403 19.6069 58.5571 19.6069 57.474V55.917V55.1046V54.6985V54.4954V54.4277V54.36C19.945 54.9015 19.6745 54.4954 19.8098 54.6308C17.7139 53.5476 15.8208 52.126 14.1982 50.6367L14.5363 50.7044C12.508 51.449 10.4797 52.126 8.58667 52.803L8.31622 52.8707L8.18101 52.6676C6.28796 49.6212 4.39489 46.6426 2.56944 43.8671L2.43424 43.664L2.63706 43.4609C4.19207 41.9039 5.67947 40.4146 7.09926 38.993L7.03165 39.3314C6.28795 37.0298 5.94992 34.7281 5.88231 32.5618L6.08513 32.8326C4.12446 31.8849 2.1638 30.9371 0.405965 30.1248L0.203125 29.9894L0.270738 29.7863C1.08205 26.2661 1.82574 22.8136 2.56944 19.5642L2.63706 19.3611H2.8399C5.00339 19.3611 7.16687 19.3611 9.12754 19.3611L8.8571 19.4965C9.93885 17.3302 11.3586 15.4347 12.846 13.8777L12.7784 14.1485C12.0347 12.0499 11.3586 10.019 10.6825 8.19123L10.6149 7.98814L10.8178 7.85275C13.9278 5.88956 16.835 4.06177 19.6746 2.30167L19.8098 2.23397L19.945 2.36936C21.5 3.92637 22.9874 5.41569 24.4072 6.83731L24.2044 6.76961C26.5031 6.02495 28.8018 5.68647 30.9653 5.61878L30.8301 5.75417C31.8442 3.72329 32.7231 1.7601 33.5344 0.0676961L33.4668 0H33.602C37.7262 0.947746 41.1743 1.7601 43.7434 2.36936H43.811V2.43706C43.811 4.46794 43.811 6.02495 43.7434 7.10809C43.7434 7.64966 43.7434 8.05584 43.7434 8.32662C43.811 8.6651 43.7434 8.80049 43.7434 8.80049Z" fill="#E0E0E0"/>
</svg>
