<svg width="71" height="87" viewBox="0 0 71 87" fill="none" xmlns="http://www.w3.org/2000/svg">
<path d="M3.07148 16.829C1.24603 17.7091 0.0966797 19.6046 0.0966797 21.7031L0.367112 61.9823C0.367112 63.8778 1.38126 65.6379 2.93627 66.5856L36.3351 86.4883L68.3142 65.7733C69.8692 64.7579 70.7482 63.0655 70.7482 61.2377L70.4777 19.1307C70.4777 16.9644 69.1932 15.0689 67.3001 14.2566L35.7943 0.649658L3.07148 16.829Z" fill="#70CAFC"/>
<g opacity="0.2">
<g opacity="0.2">
<path opacity="0.2" d="M35.8623 0.649658L36.4032 86.4883L68.3147 65.7733C69.8697 64.7579 70.8162 63.0655 70.8162 61.2377L70.5458 19.063C70.5458 16.9644 69.2612 15.0689 67.3682 14.2566L35.8623 0.649658Z" fill="black"/>
</g>
</g>
<path d="M45.1923 48.8493L25.7209 48.9846L21.732 58.3944L16.3232 58.4621L32.6847 20.7554H37.8905L54.7928 58.259L49.3165 58.3267L45.1923 48.8493ZM43.2993 44.5844L35.3214 26.1711L27.5464 44.6521L43.2993 44.5844Z" fill="white"/>
</svg>
