<svg width="70" height="65" viewBox="0 0 70 65" fill="none" xmlns="http://www.w3.org/2000/svg">
<path d="M46.75 26.1915C46.6147 26.2592 45.4654 24.3637 43.1667 21.1143C42.0173 19.4896 40.5299 17.5264 38.7721 15.3601C36.9466 13.1939 34.7832 10.8245 32.1464 8.45513C30.7942 7.3043 29.3744 6.15347 27.7518 5.07033C26.1292 4.05489 24.3714 3.10714 22.4783 2.70096C21.5318 2.49788 20.5176 2.43018 19.6387 2.63326C18.6922 2.83635 17.9485 3.37793 17.34 4.12259C16.7315 4.86724 16.3259 5.88268 16.0554 6.89812C15.785 7.91356 15.6498 9.0644 15.6498 10.2152C15.6498 12.5169 15.9202 14.8863 16.3935 17.2556C16.8668 19.625 17.6105 22.0621 18.4218 24.4314C20.112 29.2378 22.4107 34.0443 25.0474 38.7153C27.7518 43.3863 30.7942 47.7866 34.1071 51.6452C35.7297 53.6084 37.4875 55.3685 39.313 56.9933C41.1384 58.618 43.0315 60.0396 44.9921 61.1904C46.0063 61.732 47.0204 62.2058 48.0345 62.4766C49.0487 62.7474 50.1304 62.8828 51.077 62.7474C52.0235 62.612 52.9024 62.1381 53.5109 61.4612C54.187 60.7842 54.5926 59.9042 54.9307 58.9564C55.5392 57.0609 55.6068 55.0978 55.5391 53.2023C55.4715 51.3068 55.1335 49.479 54.7955 47.7189C54.1194 44.2664 53.1052 41.1524 52.1587 38.5122C51.1446 35.8721 50.198 33.6381 49.3867 31.8103C47.6965 28.2224 46.6147 26.2592 46.75 26.1915C46.8176 26.1915 47.1556 26.5977 47.6965 27.4777C48.2374 28.3578 49.0487 29.7117 49.9952 31.4718C50.9418 33.2319 52.0235 35.4659 53.1052 38.106C54.187 40.7462 55.2687 43.8602 56.08 47.3804C56.4857 49.1405 56.8237 51.036 56.959 53.0669C57.0942 55.0301 57.0942 57.1963 56.4181 59.3626C56.08 60.4458 55.5392 61.5289 54.7279 62.4766C53.9166 63.4244 52.6996 64.0336 51.415 64.2367C50.1304 64.4398 48.9135 64.3044 47.6965 63.9659C46.4795 63.6275 45.3978 63.1536 44.316 62.5443C42.1526 61.3935 40.1919 59.8365 38.2988 58.2118C36.4058 56.5194 34.6479 54.6916 32.8901 52.7284C29.442 48.802 26.3996 44.3341 23.6277 39.5276C20.8557 34.7212 18.557 29.8471 16.8668 24.9053C15.9878 22.4682 15.3117 19.9635 14.7709 17.4587C14.2976 14.954 13.9596 12.5169 14.0272 10.0121C14.0948 8.79362 14.23 7.57508 14.5004 6.35655C14.8385 5.13802 15.3117 3.98719 16.123 2.97174C16.9343 2.024 18.0837 1.27935 19.3007 1.00856C20.5176 0.737777 21.7346 0.805477 22.8164 1.07626C25.0475 1.61783 26.8729 2.63327 28.5631 3.71641C30.2534 4.86724 31.6731 6.08577 33.0253 7.3043C35.6621 9.74136 37.8256 12.2461 39.5834 14.5478C41.3412 16.7818 42.6934 18.8803 43.7752 20.5727C44.8569 22.2651 45.6006 23.6191 46.1415 24.5668C46.5472 25.6499 46.75 26.1238 46.75 26.1915Z" fill="#70CAFC"/>
<path d="M25.8596 26.1239C25.9948 26.1916 24.913 28.0194 23.1552 31.5396C22.2763 33.2997 21.3298 35.3983 20.3156 37.9707C19.3015 40.5432 18.2874 43.4541 17.5437 46.8389C17.2056 48.5313 16.8675 50.2914 16.7999 52.1192C16.7323 53.947 16.7323 55.9102 17.3408 57.6703C17.6112 58.5504 18.0845 59.4304 18.693 60.1073C19.3015 60.7843 20.1128 61.2582 21.0593 61.3936C22.0058 61.5967 23.02 61.529 24.0341 61.3259C25.0483 61.1228 26.0624 60.7166 27.0765 60.2427C29.0372 59.295 30.9303 57.9411 32.7557 56.5195C34.5812 55.0302 36.339 53.3378 37.9616 51.5777C41.342 47.9898 44.3845 43.8603 47.1564 39.3924C49.9284 34.9244 52.2271 30.3211 53.9174 25.7177C54.7963 23.4161 55.4723 21.1144 56.0132 18.8127C56.5541 16.5111 56.8245 14.2094 56.8245 12.0431C56.8245 10.96 56.6893 9.87686 56.4189 8.86142C56.1485 7.84598 55.7428 6.89822 55.2019 6.22126C54.5934 5.47661 53.8497 4.93504 52.9708 4.73195C52.0919 4.46117 51.1454 4.46117 50.1988 4.59656C48.3058 4.86734 46.548 5.6797 44.9929 6.62744C43.3703 7.50749 41.9505 8.59063 40.5984 9.67377C37.9616 11.84 35.7305 14.074 33.905 16.1049C32.0796 18.1358 30.5922 19.9636 29.4429 21.5206C27.1441 24.4315 25.9948 26.1916 25.8596 26.1239C25.792 26.1239 26.0624 25.5823 26.5357 24.7023C27.0765 23.8222 27.8202 22.536 28.902 20.9113C29.9837 19.2866 31.4035 17.3911 33.1614 15.2248C34.9192 13.1263 37.0827 10.7569 39.787 8.52294C41.1392 7.3721 42.6266 6.28896 44.2493 5.27352C45.9395 4.32578 47.7649 3.37802 49.9284 2.97185C51.0101 2.76876 52.1595 2.76877 53.3089 3.10725C54.4582 3.44573 55.54 4.12269 56.3513 5.07043C57.1626 6.01818 57.6358 7.16901 57.9063 8.31985C58.1767 9.47068 58.3119 10.6892 58.3795 11.84C58.4471 14.2094 58.1091 16.6465 57.5682 19.0158C57.0273 21.3852 56.3513 23.8223 55.4048 26.1916C53.6469 30.9303 51.2806 35.6014 48.5086 40.2047C45.669 44.7403 42.559 48.9375 39.1109 52.6608C37.4207 54.4886 35.5953 56.2487 33.7022 57.738C31.8092 59.295 29.7809 60.6489 27.6174 61.6644C26.5357 62.2059 25.3863 62.6121 24.2369 62.8152C23.0876 63.086 21.803 63.1537 20.6537 62.8829C19.4367 62.6121 18.2874 62.0029 17.5437 61.0551C16.7324 60.1751 16.2591 59.0919 15.921 58.0765C15.3125 55.9779 15.3126 53.8793 15.3802 51.9838C15.5154 50.0206 15.8534 48.1929 16.2591 46.5005C17.0704 43.048 18.2197 40.137 19.3015 37.5646C20.3832 34.9921 21.5326 32.8935 22.4791 31.2011C23.4256 29.5087 24.2369 28.2225 24.7778 27.3424C25.4539 26.5301 25.792 26.1239 25.8596 26.1239Z" fill="#70CAFC"/>
<path d="M34.9863 18.3388C34.9863 18.4742 32.8228 18.5418 28.9691 18.8803C27.076 19.0834 24.7097 19.3542 22.0053 19.8281C19.301 20.3019 16.2586 20.9789 13.0809 22.1297C11.4583 22.6713 9.83568 23.3483 8.21307 24.2283C6.59045 25.1084 4.96785 26.1915 3.75088 27.6131C3.1424 28.3578 2.66914 29.1701 2.3987 30.0502C2.12826 30.9302 2.19588 31.878 2.53393 32.758C2.87197 33.6381 3.41282 34.4504 4.15652 35.1951C4.90022 35.9397 5.71154 36.6167 6.65807 37.1583C8.48351 38.3091 10.647 39.2569 12.8781 40.0692C15.1092 40.8139 17.4755 41.4231 19.8418 41.897C24.6421 42.8447 29.7804 43.3186 34.9863 43.3186C40.1922 43.3186 45.3305 42.8447 50.1983 41.897C52.6323 41.4231 54.931 40.8139 57.1621 40.0692C59.3932 39.3246 61.4891 38.3768 63.3821 37.1583C64.3286 36.549 65.14 35.9397 65.8837 35.1951C66.6274 34.4504 67.1682 33.6381 67.5063 32.758C67.8443 31.878 67.8443 30.9302 67.6415 30.0502C67.371 29.1701 66.8978 28.3578 66.2893 27.6131C65.0723 26.1915 63.4497 25.1084 61.8271 24.2283C60.2045 23.3483 58.5819 22.6713 56.9593 22.1297C53.714 20.9789 50.6716 20.3019 48.0348 19.8281C45.3305 19.3542 42.9642 19.0834 41.0711 18.8803C37.0822 18.5418 34.9863 18.4742 34.9863 18.3388C34.9863 18.2711 35.5272 18.2034 36.5413 18.2034C37.5554 18.1357 39.0428 18.1357 41.0035 18.2034C42.9641 18.2711 45.3305 18.4741 48.1024 18.8803C50.8744 19.2865 53.9845 19.8958 57.2973 20.9789C58.9875 21.5205 60.6777 22.1974 62.4356 23.0775C64.1258 23.9575 65.8836 25.1084 67.371 26.7331C68.1147 27.5454 68.7232 28.5609 69.0613 29.7117C69.3993 30.8625 69.3317 32.1488 68.9261 33.2996C68.5204 34.4504 67.8443 35.4659 66.9654 36.3459C66.1541 37.226 65.2076 37.9706 64.1934 38.5799C62.1652 39.8661 60.0016 40.8816 57.7029 41.6939C55.4042 42.5063 52.9703 43.1155 50.5364 43.6571C45.6009 44.6725 40.3274 45.1464 35.0539 45.1464C29.7128 45.1464 24.5069 44.6725 19.5714 43.6571C17.0699 43.1832 14.7035 42.5063 12.4048 41.6939C10.1061 40.8816 7.87505 39.8661 5.91438 38.5799C4.90025 37.9029 3.95369 37.1583 3.14238 36.3459C2.33107 35.4659 1.5874 34.4504 1.18174 33.2996C0.77609 32.1488 0.708472 30.8625 1.04652 29.7117C1.38456 28.5609 1.99305 27.5454 2.73675 26.7331C4.22415 25.1084 5.98197 23.9575 7.6722 23.0775C9.36243 22.1974 11.1203 21.5205 12.8105 20.9789C16.1234 19.8958 19.301 19.2865 22.0053 18.8803C24.7773 18.4741 27.1436 18.2711 29.1043 18.2034C31.065 18.1357 32.5523 18.1357 33.5665 18.2034C34.4454 18.2034 34.9863 18.2711 34.9863 18.3388Z" fill="#70CAFC"/>
<path d="M42.2389 33.7589C42.7427 30.6592 40.6414 27.7375 37.5457 27.2331C34.4499 26.7287 31.532 28.8327 31.0283 31.9324C30.5246 35.0321 32.6258 37.9538 35.7215 38.4582C38.8173 38.9625 41.7352 36.8586 42.2389 33.7589Z" fill="#70CAFC"/>
</svg>
