<svg width="44" height="86" viewBox="0 0 44 86" fill="none" xmlns="http://www.w3.org/2000/svg">
<path d="M19.677 73.0265C20.1503 71.1987 18.9333 69.4386 17.6488 68.1524C16.2966 66.8662 14.7416 65.7153 14.0655 63.9552C12.9161 61.1797 14.4035 57.5241 12.5105 55.2225C11.3611 53.8685 9.40045 53.3947 8.38631 51.973C7.84544 51.2284 7.71022 50.2807 7.5074 49.3329C6.42565 44.7296 4.12694 40.397 0.814095 37.0122C0.611268 41.1417 1.5578 45.2711 3.45085 48.9267C4.19455 50.416 5.20869 51.8376 5.41151 53.4623C5.81717 56.1025 4.39738 58.878 5.07347 61.4505C5.81717 64.4291 9.19762 66.3923 9.40045 69.5063C9.53567 72.0788 7.30457 74.3805 7.5074 76.9529C7.57501 78.036 8.11588 79.0515 8.65675 79.9992C10.685 83.3163 13.6598 85.618 18.122 85.4826L23.5984 85.618L19.677 73.0265Z" fill="#75B687"/>
<g opacity="0.3">
<g opacity="0.3">
<g opacity="0.3">
<g opacity="0.3">
<path opacity="0.3" d="M19.677 73.0265C20.1503 71.1987 18.9333 69.4386 17.6488 68.1524C16.2966 66.8662 14.7416 65.7153 14.0655 63.9552C12.9161 61.1797 14.4035 57.5241 12.5105 55.2225C11.3611 53.8685 9.40045 53.3947 8.38631 51.973C7.84544 51.2284 7.71022 50.2807 7.5074 49.3329C6.42565 44.7296 4.12694 40.397 0.814095 37.0122C0.611268 41.1417 1.5578 45.2711 3.45085 48.9267C4.19455 50.416 5.20869 51.8376 5.41151 53.4623C5.81717 56.1025 4.39738 58.878 5.07347 61.4505C5.81717 64.4291 9.19762 66.3923 9.40045 69.5063C9.53567 72.0788 7.30457 74.3805 7.5074 76.9529C7.57501 78.036 8.11588 79.0515 8.65675 79.9992C10.685 83.3163 13.6598 85.618 18.122 85.4826L23.5984 85.618L19.677 73.0265Z" fill="black"/>
</g>
</g>
</g>
</g>
<path d="M24.5443 85.8211C24.5443 85.8211 25.0852 85.9565 26.0317 85.7534C26.505 85.6857 27.1134 85.5503 27.7895 85.2796C28.4656 85.0088 29.2093 84.6703 29.953 84.061C30.2911 83.7225 30.6291 83.3841 30.8319 82.8425C31.0348 82.3009 31.0348 81.7594 31.1024 81.2178C31.1024 80.6762 31.1024 80.067 31.2376 79.4577C31.3052 78.8484 31.5756 78.2392 31.9137 77.6976C32.5222 76.5468 33.6039 75.4636 33.942 73.9066C34.28 72.4173 34.0096 70.7249 33.7391 69.1002C33.4687 67.4755 33.1983 65.6477 33.8067 63.9553C34.4152 62.2629 35.5646 60.7059 36.1731 58.7427C36.7815 56.7795 36.4435 54.6809 36.5787 52.65C36.6463 51.6346 36.8491 50.5515 37.2548 49.6037C37.6605 48.656 38.2689 47.7082 38.7422 46.6928C39.6887 44.5942 39.8916 42.2925 40.0944 39.9909C40.2296 38.84 40.3648 37.6892 40.5 36.4707C40.6353 35.3198 40.7029 34.1013 41.1085 32.9505C41.4466 31.7996 41.9198 30.7165 42.3931 29.5657C42.5959 29.0241 42.8664 28.4148 43.0016 27.8056C43.1368 27.1286 43.1368 26.587 43.1368 25.9101C43.2044 24.6239 43.1368 23.4053 43.0016 22.1191C42.8664 20.8329 42.5959 19.6143 42.4607 18.3281C42.4607 18.2604 42.4607 18.1927 42.4607 18.125V17.8542L42.3255 18.0573C41.1761 18.6666 40.162 19.5467 39.4183 20.5621C38.6746 21.5775 38.0661 22.7284 37.6605 23.8792C36.7815 26.2486 36.4435 28.6856 35.9702 31.055C35.5646 33.4244 34.9561 35.726 33.7391 37.6892C33.1306 38.6369 32.4546 39.5847 31.7785 40.5324C31.17 41.4802 30.6291 42.4956 30.4263 43.6464C30.0882 45.9481 31.3728 47.979 31.17 50.0099C31.1024 51.0253 30.6967 51.9731 30.1558 52.8531C29.6826 53.7332 29.0741 54.5455 28.5332 55.3579C27.9924 56.1702 27.4515 56.9826 27.1134 57.8626C26.7078 58.7427 26.505 59.6904 26.4373 60.6382C26.3021 62.466 26.5726 64.2261 26.4373 65.9185C26.3021 67.5432 25.7613 69.1002 25.0852 70.4541C24.4091 71.808 23.733 73.0266 23.1245 74.2451C22.7865 74.8544 22.516 75.3959 22.3132 76.0052C22.0428 76.6145 21.9751 77.156 21.8399 77.7653C21.6371 78.9161 21.7047 79.9316 21.8399 80.8793C22.1104 82.7748 22.7865 84.1287 23.3949 84.8734C23.5302 85.0765 23.733 85.2119 23.8682 85.3473C24.0034 85.4826 24.1386 85.5503 24.2062 85.618C24.4767 85.7534 24.5443 85.8211 24.5443 85.8211C24.5443 85.8211 24.071 85.5504 23.4625 84.8057C22.8541 84.061 22.178 82.7071 21.9751 80.8793C21.8399 79.9316 21.8399 78.9161 22.0428 77.833C22.178 77.2914 22.2456 76.6821 22.516 76.1406C22.7188 75.599 23.0569 74.9897 23.3273 74.4482C23.9358 73.2973 24.6795 72.0788 25.3556 70.7249C26.0317 69.371 26.6402 67.814 26.7078 66.1216C26.843 64.4292 26.5726 62.6691 26.7078 60.8413C26.7754 59.9612 26.9782 59.0135 27.3839 58.2011C27.7895 57.3211 28.2628 56.5087 28.8037 55.6964C29.3445 54.884 29.953 54.0717 30.4263 53.1916C30.8995 52.3116 31.3728 51.2961 31.4404 50.213C31.7109 48.0467 30.4263 46.0158 30.7643 43.8495C30.8995 42.7664 31.4404 41.8187 32.0489 40.8709C32.6574 39.9232 33.4011 39.0431 34.0096 38.0277C35.2265 35.9968 35.835 33.6274 36.2407 31.2581C36.7139 28.8887 36.9844 26.4516 37.8633 24.15C38.3365 22.9991 38.8774 21.8483 39.6211 20.9006C40.3648 19.8851 41.3113 19.0728 42.4607 18.5312L42.1903 18.3958C42.1903 18.4635 42.1903 18.5312 42.1903 18.5989C42.3255 19.8851 42.5959 21.1036 42.7311 22.3899C42.8664 23.6084 42.934 24.8946 42.8664 26.1132C42.8664 26.7224 42.7987 27.3317 42.7311 27.941C42.5959 28.5502 42.3255 29.0918 42.1227 29.6334C41.6494 30.7842 41.1761 31.8673 40.8381 33.0859C40.4324 34.2367 40.3648 35.4552 40.2296 36.6738C40.0944 37.8246 39.9592 39.0431 39.8916 40.194C39.6211 42.4956 39.4859 44.7973 38.5394 46.7605C38.0661 47.7759 37.4576 48.656 37.052 49.6714C36.5787 50.6869 36.3759 51.77 36.3083 52.8531C36.1731 54.9517 36.5111 57.0503 35.9026 58.8781C35.3617 60.7736 34.1448 62.3306 33.5363 64.0907C32.9278 65.8508 33.1983 67.7463 33.4687 69.371C33.7391 70.9957 34.0096 72.6204 33.6715 74.1097C33.3335 75.599 32.3193 76.6821 31.7109 77.833C31.3728 78.4422 31.1024 79.0515 31.0348 79.6608C30.9672 80.2701 30.9672 80.8793 30.8995 81.4209C30.8995 81.9625 30.8319 82.5717 30.6967 83.0456C30.5615 83.5195 30.2235 83.9257 29.8854 84.1964C29.1417 84.8057 28.398 85.1442 27.7219 85.415C27.0458 85.6857 26.4373 85.8211 25.9641 85.8888C25.4908 85.9565 25.0852 86.0242 24.8823 86.0242C24.6795 85.8211 24.5443 85.8211 24.5443 85.8211Z" fill="#263238"/>
<path d="M41.4462 21.239C41.4462 21.239 41.4462 21.3067 41.3786 21.3744C41.3786 21.5098 41.311 21.6452 41.2434 21.8483C41.1082 22.2545 41.0406 22.9314 40.8377 23.7438C40.6349 24.5561 40.1616 25.5039 39.6884 26.587C39.2827 27.7378 38.8095 29.0241 38.4038 30.4457C37.9982 31.935 37.6601 33.5597 37.2545 35.2521C36.8488 37.0122 36.5108 38.84 35.5642 40.6001C35.091 41.4801 34.6177 42.4279 34.212 43.3756C33.8064 44.3911 33.6036 45.4065 33.4683 46.4897C33.1979 48.6559 32.8599 50.8899 32.319 53.1239C31.2372 57.5918 30.2231 61.9244 29.2766 65.783C28.3301 69.6417 27.4511 73.1619 26.775 76.1405C26.099 79.0515 25.4905 81.4209 25.0848 83.1133C24.882 83.9256 24.7468 84.5349 24.6792 85.0087C24.6116 85.2118 24.6116 85.3472 24.5439 85.4826C24.5439 85.618 24.5439 85.6857 24.5439 85.6857C24.5439 85.6857 24.5439 85.618 24.6116 85.5503C24.6792 85.4149 24.6792 85.2795 24.7468 85.0764C24.882 84.6026 25.0172 83.9933 25.22 83.181C25.6257 81.4886 26.2342 79.1192 26.9779 76.2082C27.7216 73.2973 28.6005 69.7771 29.6146 65.9184C30.5612 61.9921 31.5753 57.7272 32.657 53.2593C33.1303 51.0253 33.536 48.7913 33.8064 46.6251C33.9416 45.5419 34.1444 44.5265 34.5501 43.5787C34.9557 42.631 35.429 41.7509 35.8347 40.8032C36.7812 39.0431 37.1868 37.0799 37.5249 35.3875C37.8629 33.6274 38.201 32.0027 38.6066 30.5811C39.0123 29.0918 39.4179 27.8055 39.8236 26.7224C40.2293 25.5715 40.7025 24.6915 40.9053 23.8115C41.1082 22.9991 41.1758 22.3222 41.2434 21.916C41.311 21.7129 41.311 21.5775 41.311 21.4421C41.4462 21.3067 41.5138 21.239 41.4462 21.239Z" fill="#263238"/>
<path d="M25.5588 85.8211C29.142 83.6549 30.0886 77.2237 28.6012 73.3651C27.1138 69.5064 24.477 65.9862 24.0037 61.789C23.6657 58.6073 24.6798 55.3579 23.9361 52.2439C22.922 48.0467 18.7978 44.7973 18.7978 40.5325C18.7978 38.0954 20.15 35.7937 20.0824 33.4244C19.9472 30.4457 17.6485 28.1441 16.2287 25.5039C14.0652 21.5099 13.8624 16.7711 13.1187 12.3032C12.375 7.83524 10.6171 3.02882 6.62821 0.862549C6.08734 4.65353 5.0732 7.29368 5.41125 12.4386C5.54646 14.2664 7.70995 17.8543 8.048 21.916C8.25083 24.3531 8.38605 26.7901 8.52126 29.2272C8.65648 31.5966 8.85931 33.9659 9.67062 36.1999C10.3467 37.8923 11.3608 39.4493 11.9017 41.1417C12.8482 44.4588 11.6313 47.979 12.375 51.2961C12.9835 54.1394 14.9441 56.5087 15.4174 59.4197C16.0259 63.4137 13.4567 67.6109 14.8089 71.4696C15.485 73.3651 17.04 74.9221 17.5133 76.8853C17.8513 78.4423 17.5133 79.9993 17.8513 81.5563C18.3922 83.9933 23.0572 85.8888 25.6264 85.7534" fill="#75B687"/>
<path d="M7.64258 4.58594C7.64258 4.58594 7.64258 4.65363 7.64258 4.78902C7.64258 4.92441 7.71019 5.12749 7.71019 5.39828C7.7778 5.93985 7.91301 6.7522 8.11584 7.76764C8.31867 8.85078 8.85954 10.0016 9.3328 11.4232C9.80607 12.8449 10.2793 14.4696 10.685 16.2974C11.0906 18.1252 11.4287 20.156 11.8343 22.3223C12.24 24.4886 12.578 26.8579 13.7274 29.1596C14.2683 30.3104 14.8091 31.4613 15.2148 32.6798C15.6204 33.8984 15.8909 35.1846 15.9585 36.5385C16.1613 39.2463 16.4994 42.0219 17.0402 44.8651C18.1896 50.4839 19.2713 55.8996 20.2179 60.7737C21.232 65.6478 22.1785 70.0481 22.9222 73.7037C23.7335 77.3593 24.342 80.3379 24.8153 82.4365C25.0181 83.4519 25.2209 84.2643 25.3562 84.8058C25.4238 85.0766 25.4914 85.2797 25.4914 85.4151C25.559 85.5505 25.559 85.6182 25.559 85.6182C25.559 85.6182 25.559 85.5505 25.559 85.4151C25.559 85.2797 25.4914 85.0766 25.4238 84.8058C25.2885 84.2643 25.1533 83.4519 24.9505 82.4365C24.5448 80.3379 23.9364 77.3593 23.1927 73.7037C22.449 69.9804 21.5024 65.6478 20.5559 60.7737C19.6094 55.8996 18.5276 50.5516 17.3783 44.8651C16.8374 42.0219 16.4994 39.2463 16.2965 36.5385C16.1613 35.1846 15.9585 33.8307 15.4852 32.6121C15.012 31.3936 14.4711 30.2428 13.9302 29.0919C12.8485 26.8579 12.4428 24.4886 12.0372 22.3223C11.6315 20.156 11.2935 18.1252 10.8202 16.2974C10.4145 14.4696 9.94129 12.8449 9.40041 11.4232C8.92715 10.0016 8.38628 8.85078 8.18345 7.83534C7.98062 6.8199 7.8454 6.00755 7.7778 5.46598C7.71019 5.19519 7.71019 4.99211 7.64258 4.85672C7.64258 4.65363 7.64258 4.58594 7.64258 4.58594Z" fill="#263238"/>
</svg>
