<svg width="108" height="106" viewBox="0 0 108 106" fill="none" xmlns="http://www.w3.org/2000/svg">
<path d="M25.22 14.9755C25.22 14.9755 25.8961 15.1109 26.9103 15.8555C27.9244 16.5325 29.2766 17.8864 29.8851 20.0527C30.1555 21.1358 30.2907 22.3544 30.0203 23.6406C29.7498 24.9268 29.209 26.2807 28.1948 27.3639C27.7216 27.9055 27.1131 28.447 26.437 28.8532C25.7609 29.2594 25.0172 29.5979 24.2735 29.8009C22.7185 30.2071 20.9607 30.1394 19.338 29.4625C17.783 28.7855 16.4308 27.7024 15.5519 26.2807C15.1463 25.6038 14.8082 24.8591 14.6054 24.1145C14.4026 23.3698 14.335 22.6252 14.335 21.8805C14.4026 20.3912 14.8758 19.0373 15.5519 17.8864C16.228 16.8033 17.2422 15.9232 18.1887 15.3817C20.1493 14.2308 22.0424 14.2308 23.2594 14.4339C24.6115 14.637 25.22 14.9755 25.22 14.9755C25.22 15.0432 24.6115 14.7047 23.3946 14.5693C22.2452 14.4339 20.3522 14.5016 18.5267 15.6525C17.6478 16.194 16.7013 17.0064 16.0928 18.0895C15.4167 19.1727 14.9434 20.4589 14.9434 21.8805C14.9434 22.5575 15.0111 23.3021 15.2139 24.0468C15.4167 24.7914 15.6871 25.4684 16.0928 26.0777C16.9041 27.3639 18.1211 28.447 19.6761 29.0563C21.1635 29.6656 22.8537 29.7332 24.3411 29.3271C25.0848 29.124 25.7609 28.8532 26.437 28.447C27.0455 28.0409 27.654 27.6347 28.0596 27.0931C29.0061 26.0777 29.547 24.7914 29.8174 23.5729C30.0879 22.3544 29.9527 21.1358 29.6822 20.1204C29.1414 18.0218 27.8568 16.6679 26.9103 15.9909C25.8285 15.2463 25.22 15.0432 25.22 14.9755Z" fill="#E0E0E0"/>
<path d="M32.589 7.79968C32.589 7.79968 32.589 7.73197 32.589 7.52889C32.589 7.3258 32.6566 7.05502 32.7242 6.71654C32.8594 5.97188 32.9947 4.88874 33.1975 3.53482L33.2651 3.60251C31.5749 2.92555 29.3438 2.04551 26.5718 0.962368L26.707 0.894667C25.9633 1.9778 25.152 3.19634 24.2731 4.48256L24.2055 4.55026H24.1379C22.7181 4.34717 21.0955 4.34717 19.4728 4.61795H19.4052L19.3376 4.55026C18.5263 3.46712 17.715 2.2486 16.7685 1.03007L16.9713 1.09776C14.8754 1.97781 12.7119 2.92555 10.4132 3.94099L10.5484 3.73791C10.8189 5.09183 11.0893 6.51344 11.3597 8.00276V8.13816L11.2921 8.20585C10.1428 9.0859 8.99343 10.2367 8.0469 11.523L7.97929 11.5907H7.84407C6.49189 11.3876 5.0721 11.1168 3.5847 10.9137L3.78753 10.7783C2.97622 12.8769 2.02969 15.1109 1.15077 17.4125L1.08316 17.1417C2.16491 17.8864 3.38187 18.7664 4.66645 19.5788L4.80166 19.6465V19.7819C4.59884 21.2035 4.59884 22.8282 4.86927 24.3852V24.5206L4.73406 24.5883C3.65231 25.4007 2.43535 26.2807 1.21838 27.1608L1.28599 26.89C2.16491 28.9885 3.11144 31.2225 4.12557 33.4565L3.85514 33.3211C5.20732 33.0503 6.62711 32.7795 8.11451 32.5087H8.24973L8.31734 32.6441C9.19626 33.795 10.3456 34.9458 11.6302 35.8936C11.6978 35.9613 11.5626 35.6905 11.6978 36.0966V36.1643V36.2997L11.6302 36.5705L11.5626 37.1121L11.3597 38.1952C11.2245 38.9399 11.1569 39.6168 11.0217 40.3615L10.8865 40.0907C13.1176 40.9707 15.3487 41.9185 17.5122 42.7985L17.2417 42.8662C18.053 41.6477 18.8644 40.4969 19.6757 39.2784L19.7433 39.143H19.8785C21.4335 39.346 22.9885 39.346 24.4759 39.0753H24.6111L24.6787 39.2107C25.5577 40.4292 26.369 41.58 27.2479 42.7309L26.9775 42.6632C29.2086 41.7154 31.4397 40.7677 33.6031 39.8876L33.4679 40.2261C33.1975 38.8045 32.9271 37.3829 32.7242 35.9613V35.8259L32.7918 35.7582C34.0088 34.8104 35.0905 33.6596 36.0371 32.441L36.1047 32.3733H36.2399C37.7273 32.6441 39.1471 32.8472 40.4993 33.0503L40.2964 33.1857C41.243 30.8163 42.1219 28.6501 43.0008 26.5515L43.0684 26.7546C41.8515 25.8745 40.6345 25.0622 39.4851 24.2498L39.4175 24.1821V24.1144C39.6204 22.4897 39.5527 20.9327 39.3499 19.4434V19.3757L39.4175 19.308C40.7021 18.3603 41.8515 17.5479 42.9332 16.8032L42.8656 16.9386C41.7838 14.3662 40.8373 12.1999 40.0936 10.3044L40.2288 10.4398C38.5386 10.7106 37.1188 10.9814 35.9695 11.1845H35.9019C34.9553 9.96595 34.0764 9.1536 33.4679 8.61203C33.1975 8.34124 32.9947 8.20585 32.7918 8.07046C32.6566 7.86737 32.589 7.79968 32.589 7.79968C32.589 7.79968 32.6566 7.86737 32.8594 7.93507C32.9947 8.07046 33.2651 8.20585 33.5355 8.47664C34.144 8.95051 35.0229 9.76286 35.9695 10.9814H35.9019C37.0512 10.7783 38.471 10.5075 40.1612 10.169H40.2288V10.2367C41.0401 12.0645 41.9867 14.2985 43.0684 16.8032L43.136 16.8709L43.0684 16.9386C41.9867 17.751 40.8373 18.5633 39.5527 19.5111L39.6204 19.3757C39.8232 20.865 39.8908 22.422 39.688 24.1144L39.6204 23.979C40.7697 24.7914 41.9191 25.6037 43.2036 26.4161L43.3389 26.4838L43.2712 26.6192C42.4599 28.7178 41.581 30.9517 40.6345 33.2534L40.5669 33.3888H40.4317C39.0119 33.1857 37.5921 32.9149 36.1723 32.7118L36.3751 32.6441C35.4286 33.8627 34.3468 35.0135 33.0623 36.0289L33.1299 35.8259C33.4003 37.2475 33.6707 38.6691 33.9412 40.0907V40.2261L33.806 40.2938C31.6425 41.2415 29.479 42.1216 27.2479 43.137L27.1127 43.2047L27.0451 43.0693C26.2338 41.9185 25.3548 40.7677 24.4759 39.5491L24.6787 39.6168C23.1237 39.8199 21.5687 39.8876 19.9461 39.6845L20.1489 39.6168C19.3376 40.7677 18.5263 41.9862 17.715 43.2047L17.6474 43.3401L17.5122 43.2724C15.3487 42.3924 13.1176 41.5123 10.8865 40.6323L10.7513 40.5646V40.3615C10.8865 39.6845 10.9541 38.9399 11.0893 38.1952L11.2921 37.1121L11.3597 36.5705L11.4274 36.2997V36.1643V36.0966C11.6302 36.5028 11.495 36.232 11.495 36.2997C10.2104 35.352 9.06104 34.2011 8.11451 32.9826L8.31734 33.0503C6.82994 33.3211 5.41015 33.5919 4.05796 33.795H3.85514L3.78753 33.6596C2.841 31.3579 1.89447 29.1239 0.947947 27.0931L0.880336 26.9577L1.01555 26.89C2.23252 26.0099 3.44948 25.1299 4.53123 24.3175L4.46362 24.5206C4.26079 22.8959 4.26079 21.2712 4.39601 19.7819L4.46362 19.985C3.24665 19.1049 2.02969 18.2926 0.880336 17.5479L0.745117 17.4802L0.812728 17.3448C1.75926 15.0432 2.63817 12.8092 3.51709 10.7106L3.5847 10.5752H3.71992C5.20732 10.846 6.69472 11.0491 7.97929 11.2522L7.77647 11.3199C8.7906 9.96595 9.93996 8.81512 11.0893 7.93507L11.0217 8.13816C10.7513 6.64884 10.4808 5.15953 10.278 3.8733V3.73791L10.4132 3.67021C12.7119 2.65477 14.943 1.77472 17.0389 0.894667L17.1741 0.826978L17.2417 0.962368C18.1207 2.1809 18.9996 3.39942 19.7433 4.48256L19.6081 4.41487C21.2307 4.21178 22.8533 4.21178 24.3407 4.34717L24.2055 4.41487C25.0844 3.12865 25.9633 1.91012 26.707 0.826978L26.7746 0.759277H26.8422C29.5466 1.84241 31.7777 2.79016 33.4679 3.46712H33.5355V3.53482C33.3327 4.88874 33.1299 5.97188 32.9947 6.71654C32.9271 7.05502 32.8594 7.3258 32.8594 7.52889C32.6566 7.73197 32.6566 7.79968 32.589 7.79968Z" fill="#E0E0E0"/>
<path fill-rule="evenodd" clip-rule="evenodd" d="M89.1777 43.814C91.4089 45.5064 93.3695 47.4018 94.9921 49.5681L102.429 48.2142L107.365 59.7902L101.212 64.2582C101.618 66.966 101.618 69.6739 101.28 72.4494L107.5 76.782L102.835 88.4257L95.3302 87.2071C93.64 89.4411 91.7469 91.4043 89.5834 93.029L90.9356 100.476L79.3744 105.417L74.9122 99.2571C72.2079 99.6632 69.5035 99.6632 66.7315 99.3247L62.4045 105.553L50.7758 100.882L51.9927 93.3675C49.7616 91.6751 47.801 89.7796 46.1784 87.6133L38.7414 88.9673L33.8735 77.4589L40.0259 72.991C39.6203 70.2831 39.6203 67.5753 39.9583 64.7997L33.7383 60.4672L38.4033 48.8235L45.9079 50.042C47.5981 47.808 49.4912 45.8448 51.6547 44.1524L50.3025 36.7059L61.8637 31.7641L66.3259 37.9244C69.0302 37.5182 71.7346 37.5182 74.5066 37.8567L78.8336 31.6287L90.4623 36.2997L89.1777 43.814ZM76.1968 56.3377C69.3007 53.5622 61.458 56.8793 58.686 63.852C55.9141 70.757 59.2945 78.6097 66.1907 81.3853C73.0868 84.1608 80.9294 80.8437 83.7014 73.871C86.4058 66.966 83.0929 59.1133 76.1968 56.3377Z" fill="#E0E0E0"/>
</svg>
